<svg width="20" height="20" viewBox="0 0 20 20" fill="none" xmlns="http://www.w3.org/2000/svg">
<path d="M14.3754 3.15039C14.044 3.15039 13.7754 3.41902 13.7754 3.75039C13.7754 4.08176 14.044 4.35039 14.3754 4.35039H16.9004V6.87539C16.9004 7.20676 17.169 7.47539 17.5004 7.47539C17.8318 7.47539 18.1004 7.20676 18.1004 6.87539V3.75039C18.1004 3.41902 17.8318 3.15039 17.5004 3.15039H14.3754Z" fill="#97A0A7"/>
<path d="M3.10039 13.1254C3.10039 12.794 2.83176 12.5254 2.50039 12.5254C2.16902 12.5254 1.90039 12.794 1.90039 13.1254V16.2504C1.90039 16.5818 2.16902 16.8504 2.50039 16.8504H5.62539C5.95676 16.8504 6.22539 16.5818 6.22539 16.2504C6.22539 15.919 5.95676 15.6504 5.62539 15.6504H3.10039V13.1254Z" fill="#97A0A7"/>
<path d="M17.5004 12.5254C17.8318 12.5254 18.1004 12.794 18.1004 13.1254V16.2504C18.1004 16.5818 17.8318 16.8504 17.5004 16.8504H14.3754C14.044 16.8504 13.7754 16.5818 13.7754 16.2504C13.7754 15.919 14.044 15.6504 14.3754 15.6504H16.9004V13.1254C16.9004 12.794 17.169 12.5254 17.5004 12.5254Z" fill="#97A0A7"/>
<path d="M2.50039 3.15039C2.16902 3.15039 1.90039 3.41902 1.90039 3.75039V6.87539C1.90039 7.20676 2.16902 7.47539 2.50039 7.47539C2.83176 7.47539 3.10039 7.20676 3.10039 6.87539V4.35039H5.62539C5.95676 4.35039 6.22539 4.08176 6.22539 3.75039C6.22539 3.41902 5.95676 3.15039 5.62539 3.15039H2.50039Z" fill="#97A0A7"/>
<path d="M6.25039 6.27539C6.58176 6.27539 6.85039 6.54402 6.85039 6.87539V13.1254C6.85039 13.4568 6.58176 13.7254 6.25039 13.7254C5.91902 13.7254 5.65039 13.4568 5.65039 13.1254V6.87539C5.65039 6.54402 5.91902 6.27539 6.25039 6.27539Z" fill="#97A0A7"/>
<path d="M14.3504 6.87539C14.3504 6.54402 14.0818 6.27539 13.7504 6.27539C13.419 6.27539 13.1504 6.54402 13.1504 6.87539V13.1254C13.1504 13.4568 13.419 13.7254 13.7504 13.7254C14.0818 13.7254 14.3504 13.4568 14.3504 13.1254V6.87539Z" fill="#97A0A7"/>
<path d="M11.2504 6.27539C11.5818 6.27539 11.8504 6.54402 11.8504 6.87539V13.1254C11.8504 13.4568 11.5818 13.7254 11.2504 13.7254C10.919 13.7254 10.6504 13.4568 10.6504 13.1254V6.87539C10.6504 6.54402 10.919 6.27539 11.2504 6.27539Z" fill="#97A0A7"/>
<path d="M9.35039 6.87539C9.35039 6.54402 9.08176 6.27539 8.75039 6.27539C8.41902 6.27539 8.15039 6.54402 8.15039 6.87539V13.1254C8.15039 13.4568 8.41902 13.7254 8.75039 13.7254C9.08176 13.7254 9.35039 13.4568 9.35039 13.1254V6.87539Z" fill="#97A0A7"/>
</svg>
