<svg width="19" height="18" viewBox="0 0 19 18" fill="none" xmlns="http://www.w3.org/2000/svg">
<path d="M7.69987 17.4C8.5283 17.4 9.19987 16.7284 9.19987 15.9C9.19987 15.0715 8.5283 14.4 7.69987 14.4C6.87144 14.4 6.19987 15.0715 6.19987 15.9C6.19987 16.7284 6.87144 17.4 7.69987 17.4Z" fill="#55BE61"/>
<path d="M14.8999 17.4C15.7283 17.4 16.3999 16.7284 16.3999 15.9C16.3999 15.0715 15.7283 14.4 14.8999 14.4C14.0714 14.4 13.3999 15.0715 13.3999 15.9C13.3999 16.7284 14.0714 17.4 14.8999 17.4Z" fill="#55BE61"/>
<path fill-rule="evenodd" clip-rule="evenodd" d="M0.570312 1.18691C0.570312 0.855543 0.838942 0.586914 1.17031 0.586914H4.1811C4.46548 0.586914 4.7108 0.786553 4.76858 1.065L5.56742 4.91461C5.63475 5.23906 5.42631 5.55667 5.10185 5.624C4.77739 5.69133 4.45978 5.48288 4.39245 5.15843L3.69282 1.78691H1.17031C0.838942 1.78691 0.570312 1.51828 0.570312 1.18691Z" fill="#55BE61"/>
<path fill-rule="evenodd" clip-rule="evenodd" d="M4.88817 4.47236C5.21565 4.4217 5.52219 4.6461 5.57285 4.97357L5.58864 5.07559L6.71311 10.7181C6.86016 11.4169 7.42873 11.8743 8.04897 11.8743H14.5491C15.246 11.8743 15.8045 11.4064 15.9503 10.7218L17.0099 5.00278C17.0702 4.67696 17.3833 4.46176 17.7091 4.52213C18.035 4.5825 18.2502 4.89558 18.1898 5.2214L17.1276 10.9542L17.1262 10.9609C16.8713 12.1817 15.8399 13.0743 14.5491 13.0743H8.04897C6.81231 13.0743 5.79032 12.1695 5.53792 10.9609L5.5368 10.9555L4.40671 5.28469L4.38696 5.15704C4.3363 4.82957 4.5607 4.52303 4.88817 4.47236Z" fill="#55BE61"/>
<path fill-rule="evenodd" clip-rule="evenodd" d="M17.6644 1.20268C17.8976 1.4382 17.8998 1.8221 17.6694 2.06014L10.5772 9.38647C10.465 9.50243 10.3117 9.56727 10.152 9.56634C9.99229 9.56541 9.83965 9.49879 9.72855 9.38153L7.31098 6.82982C7.08293 6.58911 7.08898 6.20526 7.3245 5.97247C7.56002 5.73968 7.93582 5.7461 8.16388 5.98681L10.1593 8.09295L16.8249 1.20725C17.0553 0.969209 17.4312 0.967164 17.6644 1.20268Z" fill="#55BE61"/>
</svg>
