<svg width="30" height="28" viewBox="0 0 30 28" fill="none" xmlns="http://www.w3.org/2000/svg">
<path d="M10.8661 27.067C12.1548 27.067 13.1995 26.0223 13.1995 24.7337C13.1995 23.445 12.1548 22.4003 10.8661 22.4003C9.57748 22.4003 8.53281 23.445 8.53281 24.7337C8.53281 26.0223 9.57748 27.067 10.8661 27.067Z" fill="white"/>
<path d="M22.0661 27.067C23.3548 27.067 24.3995 26.0223 24.3995 24.7337C24.3995 23.445 23.3548 22.4003 22.0661 22.4003C20.7775 22.4003 19.7328 23.445 19.7328 24.7337C19.7328 26.0223 20.7775 27.067 22.0661 27.067Z" fill="white"/>
<path d="M26.9848 7.467C26.898 7.35994 26.7885 7.27344 26.6642 7.21373C26.54 7.15402 26.404 7.12258 26.2661 7.12167H7.59948L6.66615 1.71767C6.63037 1.49682 6.51645 1.29617 6.34514 1.15227C6.17383 1.00837 5.95652 0.930792 5.73281 0.933671H1.06615C0.81861 0.933671 0.581213 1.032 0.40618 1.20704C0.231146 1.38207 0.132813 1.61947 0.132812 1.867C0.132813 2.11454 0.231146 2.35194 0.40618 2.52697C0.581213 2.702 0.81861 2.80034 1.06615 2.80034H4.93948L7.23548 16.5857C7.40425 17.4468 7.87095 18.221 8.55366 18.7722C9.23637 19.3235 10.0915 19.6167 10.9688 19.6003H22.0755C22.9421 19.6157 23.7863 19.3245 24.4592 18.7781C25.132 18.2316 25.5902 17.465 25.7528 16.6137L27.1995 8.21367C27.2194 8.0811 27.2106 7.94579 27.1735 7.81694C27.1365 7.6881 27.0721 7.56874 26.9848 7.467ZM23.8675 16.2963C23.7809 16.7209 23.545 17.1004 23.2025 17.3659C22.8599 17.6313 22.4336 17.7651 22.0008 17.743H10.9221C10.4906 17.7536 10.0688 17.6142 9.72848 17.3488C9.38814 17.0833 9.15031 16.7081 9.05548 16.287L7.87015 8.98834H25.1555L23.8675 16.2963Z" fill="white"/>
</svg>
