<svg width="24" height="24" viewBox="0 0 24 24" fill="none" xmlns="http://www.w3.org/2000/svg">
<g clip-path="url(#clip0_2961_12593)">
<path fill-rule="evenodd" clip-rule="evenodd" d="M17.3203 0.302615C17.4846 0.590387 17.3845 0.956862 17.0967 1.12116C15.824 1.84779 14.9553 2.4616 14.276 3.33753C13.6199 4.18344 13.1056 5.31982 12.6343 7.13767C13.9677 6.43247 15.7117 5.82362 17.4426 6.04702C19.8041 6.35183 21.7654 8.12873 22.6827 12.2151C22.6863 12.2312 22.6892 12.2474 22.6912 12.2637C23.0384 15.006 22.5194 17.4573 21.5524 19.3866C20.5923 21.3021 19.1645 22.75 17.6462 23.4164C16.6242 23.865 15.7477 24.0135 14.9674 23.9992C14.2114 23.9853 13.5794 23.8173 13.0787 23.6842L13.057 23.6784C12.626 23.5639 12.3309 23.4896 12.0606 23.4797L10.912 23.6862C10.4125 23.819 9.78315 23.9853 9.03102 23.9992C8.25078 24.0135 7.37423 23.865 6.35226 23.4164C4.83389 22.75 3.40619 21.3021 2.44607 19.3866C1.47907 17.4573 0.960054 15.006 1.30721 12.2637C1.30927 12.2474 1.31212 12.2312 1.31573 12.2151C2.23306 8.12873 4.19439 6.35183 6.55587 6.04702C6.81576 6.01348 7.07595 5.9987 7.335 6.00019C6.39267 4.99647 5.85512 3.52556 5.51028 1.41257C5.4797 1.22517 5.53963 1.03435 5.67186 0.898085C5.80409 0.761817 5.99303 0.696186 6.18126 0.721127C8.15855 0.983118 9.65478 1.42481 10.72 2.45439C11.3471 3.06051 11.7901 3.83638 12.1128 4.81207C12.458 3.93053 12.8521 3.2153 13.3277 2.60208C14.1548 1.53573 15.1909 0.827452 16.5017 0.0790454C16.7895 -0.0852527 17.156 0.0148428 17.3203 0.302615ZM6.84592 2.03728C7.1997 3.72606 7.69579 4.71394 8.37732 5.34522C9.04174 5.96065 9.95409 6.30564 11.3142 6.5403C11.007 4.93876 10.554 3.96287 9.88603 3.31723C9.22877 2.68196 8.29095 2.29552 6.84592 2.03728ZM3.66987 18.9139C2.80124 17.1809 2.31778 14.9463 2.63297 12.4178C3.5052 8.55926 5.21673 7.40613 6.75037 7.20818C8.42134 6.9925 10.292 7.82985 11.5981 8.68985C11.8358 8.84637 12.1627 8.84637 12.4004 8.68985C13.7065 7.82985 15.5771 6.9925 17.2481 7.20818C18.7817 7.40613 20.4932 8.55926 21.3655 12.4178C21.6807 14.9463 21.1972 17.1809 20.3286 18.9139C19.4503 20.6663 18.2039 21.8595 17.0482 22.3667C16.2058 22.7365 15.5429 22.8358 14.9954 22.8258C14.4346 22.8155 13.9579 22.6916 13.4444 22.5551L13.4031 22.5441C12.9917 22.4346 12.5043 22.3049 11.9992 22.3049C11.4941 22.3049 11.0068 22.4346 10.5953 22.5441L10.554 22.5551C10.0405 22.6916 9.5638 22.8155 9.00304 22.8258C8.45555 22.8358 7.79268 22.7365 6.95021 22.3667C5.79455 21.8595 4.54819 20.6663 3.66987 18.9139Z" fill="#CF312C"/>
</g>
<defs>
<clipPath id="clip0_2961_12593">
<rect width="24" height="24" fill="white"/>
</clipPath>
</defs>
</svg>
