<svg width="24" height="24" viewBox="0 0 24 24" fill="none" xmlns="http://www.w3.org/2000/svg">
<g clip-path="url(#clip0_2961_8956)">
<path d="M17.2087 2.50631C17.9418 2.50105 18.6677 2.65219 19.3383 2.94974C20.009 3.2473 20.6091 3.68448 21.0989 4.23238C22.1449 5.43998 22.7063 6.99515 22.6741 8.59548C22.6202 10.5104 21.8785 12.3412 20.5858 13.7497C18.7984 15.7364 16.8594 17.58 14.7863 19.2635L12.0655 21.6608C12.0233 21.6775 11.9764 21.6775 11.9342 21.6608C11.8917 21.6754 11.8455 21.6754 11.8029 21.6608C10.8364 20.7978 9.90556 19.9947 9.08217 19.2635C7.01297 17.5841 5.07786 15.7445 3.29455 13.7617C1.99671 12.3506 1.25074 10.5157 1.19431 8.59548C1.16654 6.99376 1.73217 5.4388 2.78143 4.23238C3.27129 3.68448 3.87139 3.2473 4.54202 2.94974C5.21265 2.65219 5.93854 2.50105 6.67166 2.50631C7.77318 2.5091 8.83984 2.89448 9.69077 3.59709C10.1736 3.98133 10.6031 4.42881 10.9676 4.9276C10.9676 4.9276 11.5166 5.70672 11.9342 5.70672C12.3519 5.70672 12.9127 4.9276 12.9127 4.9276C13.2773 4.42881 13.7067 3.98133 14.1896 3.59709C15.0438 2.9031 16.1101 2.52631 17.2087 2.53029V2.50631ZM17.2087 1.33163C15.8424 1.32586 14.5155 1.79129 13.4497 2.65015C12.8784 3.10932 12.3689 3.64119 11.9342 4.23238C11.5077 3.62727 10.9974 3.08642 10.4187 2.62618C9.35615 1.76991 8.0339 1.30463 6.67166 1.30766C5.77225 1.30432 4.88224 1.49155 4.05975 1.85713C3.23726 2.22271 2.50077 2.75841 1.89837 3.42928C0.647198 4.85375 -0.0294426 6.6961 0.000983271 8.59548C0.0541806 10.7913 0.902734 12.8924 2.38763 14.5048C4.22223 16.5484 6.21754 18.4404 8.35424 20.1625C9.17764 20.8697 10.1084 21.6728 11.075 22.5598C11.3314 22.7841 11.6599 22.9076 11.9998 22.9076C12.3398 22.9076 12.6683 22.7841 12.9247 22.5598C13.8913 21.6968 14.8221 20.8937 15.6454 20.1625C17.7822 18.4404 19.7775 16.5484 21.6121 14.5048C23.0932 12.89 23.9412 10.7904 23.9987 8.59548C24.0336 6.69749 23.3611 4.85493 22.1133 3.42928C21.5109 2.75841 20.7744 2.22271 19.9519 1.85713C19.1294 1.49155 18.2394 1.30432 17.34 1.30766L17.2087 1.33163Z" fill="#FF7046"/>
</g>
<defs>
<clipPath id="clip0_2961_8956">
<rect width="24" height="24" fill="white"/>
</clipPath>
</defs>
</svg>
