<svg width="24" height="24" viewBox="0 0 24 24" fill="none" xmlns="http://www.w3.org/2000/svg">
<g clip-path="url(#clip0_2961_24653)">
<rect width="24" height="24" fill="white"/>
<path fill-rule="evenodd" clip-rule="evenodd" d="M9.46555 11.8655C7.30017 14.0308 3.78941 14.0308 1.62403 11.8655C-0.541344 9.70008 -0.541344 6.18931 1.62403 4.02393C3.78941 1.85856 7.30017 1.85856 9.46555 4.02393C11.6309 6.18931 11.6309 9.70008 9.46555 11.8655ZM8.09814 11.3867C6.42037 12.6346 4.03724 12.4972 2.51474 10.9747C0.84129 9.30129 0.84129 6.58809 2.51474 4.91464C4.18819 3.24119 6.90139 3.24119 8.57484 4.91464C10.0992 6.439 10.235 8.8261 8.98226 10.5042C8.96575 10.4828 8.94768 10.4621 8.92804 10.4425L3.80297 5.31743C3.55701 5.07147 3.15823 5.07147 2.91227 5.31743C2.6663 5.56339 2.6663 5.96218 2.91227 6.20814L8.03733 11.3332C8.0567 11.3526 8.07702 11.3704 8.09814 11.3867Z" fill="#28A49A"/>
<path fill-rule="evenodd" clip-rule="evenodd" d="M15.6366 7.62931C17.5498 5.71606 20.6518 5.71606 22.5651 7.62931C24.4783 9.54256 24.4783 12.6446 22.5651 14.5578L16.6263 20.4965C14.7131 22.4098 11.6111 22.4098 9.69785 20.4965C7.7846 18.5833 7.7846 15.4813 9.69785 13.568L15.6366 7.62931ZM21.6744 13.6671L19.186 16.1554L14.9695 11.9389C14.7235 11.6929 14.3247 11.6929 14.0788 11.9389C13.8328 12.1849 13.8328 12.5837 14.0788 12.8296L18.2953 17.0462L15.7356 19.6058C14.3143 21.0271 12.0099 21.0271 10.5886 19.6058C9.16724 18.1845 9.16724 15.8801 10.5886 14.4587L16.5273 8.52002C17.9486 7.09869 20.253 7.09869 21.6744 8.52002C23.0957 9.94135 23.0957 12.2458 21.6744 13.6671Z" fill="#28A49A"/>
</g>
<defs>
<clipPath id="clip0_2961_24653">
<rect width="24" height="24" fill="white"/>
</clipPath>
</defs>
</svg>
