<svg width="24" height="24" viewBox="0 0 24 24" fill="none" xmlns="http://www.w3.org/2000/svg">
<g clip-path="url(#clip0_2961_9029)">
<rect width="24" height="24" fill="white"/>
<path fill-rule="evenodd" clip-rule="evenodd" d="M23.64 8.1602C23.28 7.0802 22.56 6.00019 21.6 5.04019C19.68 3.00019 16.92 1.2002 13.68 1.2002C13.44 1.2002 13.2 1.3202 13.08 1.5602L10.32 10.2002H4.08L2.88 6.9602C2.76 6.4802 2.52 6.1202 2.04 5.8802C1.68 5.6402 1.2 5.5202 0.72 5.4002C0.36 5.4002 0.12 5.5202 0 5.8802C0 6.2402 0.12 6.48019 0.48 6.60019C0.96 6.72019 1.2 6.72019 1.44 6.84019C1.56 6.96019 1.68 7.08019 1.8 7.32019L4.2 13.9202C4.56 14.8802 4.92 15.6002 5.52 16.0802C6.12 16.6802 6.84 16.8002 7.68 16.8002H9.96L9.36 18.0002C9.24 18.0002 9 18.0002 8.88 18.0002C7.32 18.0002 6 19.3202 6 21.0002C6 22.6802 7.32 24.0002 8.88 24.0002C10.44 24.0002 11.88 22.6802 11.88 21.0002C11.88 19.9202 11.28 18.9602 10.56 18.4802L11.28 17.0402V16.8002H14.88L15 17.0402L15.72 18.4802C14.88 18.9602 14.4 19.9202 14.4 21.0002C14.4 22.6802 15.72 24.0002 17.4 24.0002C19.08 24.0002 20.4 22.6802 20.4 21.0002C20.4 19.3202 19.08 18.0002 17.4 18.0002C17.28 18.0002 17.04 18.0002 16.92 18.0002L16.32 16.8002H18.96C19.92 16.8002 20.76 16.6802 21.36 16.2002C21.96 15.7202 22.44 15.0002 22.8 14.0402L24 11.0402C24.12 10.2002 24 9.1202 23.64 8.1602ZM10.68 21.0002C10.68 21.9602 9.84 22.8002 8.88 22.8002C7.92 22.8002 7.2 21.9602 7.2 21.0002C7.2 20.0402 7.92 19.2002 8.88 19.2002C9.84 19.2002 10.68 20.0402 10.68 21.0002ZM17.28 19.2002C18.24 19.2002 19.08 20.0402 19.08 21.0002C19.08 21.9602 18.24 22.8002 17.28 22.8002C16.32 22.8002 15.48 21.9602 15.48 21.0002C15.48 20.0402 16.32 19.2002 17.28 19.2002ZM21.48 13.5602C21.12 14.4002 20.88 14.8802 20.52 15.1202C20.16 15.3602 19.68 15.4802 18.84 15.4802H7.8C7.08 15.4802 6.6 15.3602 6.36 15.1202C6 14.8802 5.76 14.4002 5.4 13.4402L4.56 11.4002H22.32L21.48 13.5602ZM22.8 10.2002H22.68H11.52L14.16 2.4002C16.8 2.5202 19.08 4.0802 20.76 5.7602C21.6 6.7202 22.2 7.68019 22.56 8.52019C22.8 9.24019 22.8 9.84019 22.8 10.2002Z" fill="#9CCC65"/>
</g>
<defs>
<clipPath id="clip0_2961_9029">
<rect width="24" height="24" fill="white"/>
</clipPath>
</defs>
</svg>
