<svg width="24" height="24" viewBox="0 0 24 24" fill="none" xmlns="http://www.w3.org/2000/svg">
<path fill-rule="evenodd" clip-rule="evenodd" d="M7.80156 10.8002C7.47019 10.8002 7.20156 11.0688 7.20156 11.4002V17.4002C7.20156 17.7316 7.47019 18.0002 7.80156 18.0002H16.2016C16.5329 18.0002 16.8016 17.7316 16.8016 17.4002V11.4002C16.8016 11.0688 16.5329 10.8002 16.2016 10.8002H7.80156ZM8.40156 12.0002V16.8002H15.6016V12.0002H8.40156Z" fill="#FEC92A"/>
<path d="M7.80156 19.2002C7.47019 19.2002 7.20156 19.4688 7.20156 19.8002C7.20156 20.1316 7.47019 20.4002 7.80156 20.4002H16.2016C16.5329 20.4002 16.8016 20.1316 16.8016 19.8002C16.8016 19.4688 16.5329 19.2002 16.2016 19.2002L7.80156 19.2002Z" fill="#FEC92A"/>
<path fill-rule="evenodd" clip-rule="evenodd" d="M8.40156 6.0002C7.73882 6.0002 7.20156 5.46294 7.20156 4.8002V2.4002C7.20156 1.73745 7.73882 1.2002 8.40156 1.2002H15.6016C16.2643 1.2002 16.8016 1.73745 16.8016 2.4002V4.8002C16.8016 5.46294 16.2643 6.0002 15.6016 6.0002V7.20019H18.0016C19.327 7.20019 20.4016 8.27471 20.4016 9.60019V21.6002C20.4016 22.9257 19.327 24.0002 18.0016 24.0002H6.00156C4.67608 24.0002 3.60156 22.9257 3.60156 21.6002V9.60019C3.60156 8.27471 4.67608 7.20019 6.00156 7.20019H8.40156V6.0002ZM8.40156 2.4002H15.6016V4.8002H8.40156V2.4002ZM9.60156 6.0002V7.20019H14.4016V6.0002H9.60156ZM18.0016 8.40019C18.6643 8.40019 19.2016 8.93745 19.2016 9.60019V21.6002C19.2016 22.2629 18.6643 22.8002 18.0016 22.8002H6.00156C5.33882 22.8002 4.80156 22.2629 4.80156 21.6002V9.60019C4.80156 8.93745 5.33882 8.40019 6.00156 8.40019H18.0016Z" fill="#FEC92A"/>
</svg>
