<svg width="24" height="24" viewBox="0 0 24 24" fill="none" xmlns="http://www.w3.org/2000/svg">
<rect width="24" height="24" fill="white"/>
<path fill-rule="evenodd" clip-rule="evenodd" d="M2.99259 17.5234C2.68783 10.5035 4.18133 6.5876 7.6914 4.64145C9.41937 3.68338 11.5721 3.24424 14.083 3.08046C16.5966 2.9165 19.5263 3.02597 22.834 3.20449C23.0144 3.21423 23.1809 3.3048 23.2871 3.45103C23.3933 3.59727 23.4279 3.78358 23.3814 3.95821L22.8016 3.80362C23.3814 3.95821 23.3814 3.95804 23.3814 3.95821L23.3792 3.96629L23.3735 3.98725L23.3517 4.06655C23.3324 4.13557 23.3039 4.23636 23.2663 4.36538C23.1911 4.62339 23.0792 4.99453 22.932 5.45056C22.6377 6.36202 22.2008 7.61568 21.6305 8.98459C20.501 11.6954 18.8069 14.9611 16.5921 16.8594C14.3084 18.8168 10.9547 19.1304 8.2983 19.0048C6.95133 18.9411 5.74189 18.7623 4.86981 18.5997C4.44186 18.5199 4.09369 18.4438 3.84864 18.3866C3.15487 19.3442 2.4445 20.3878 1.70531 21.5297C1.52523 21.8078 1.15375 21.8874 0.875579 21.7073C0.597407 21.5272 0.517884 21.1557 0.697959 20.8776C1.48707 19.6586 2.24721 18.5449 2.99259 17.5234ZM22.0151 4.363C19.0223 4.20955 16.4082 4.13133 14.1611 4.27791C11.7244 4.43686 9.77631 4.85758 8.27328 5.69093C5.61893 7.16263 4.1425 10.0561 4.15374 15.8686C7.78168 10.9944 12.8457 7.29062 19.6119 5.03467C19.9262 4.92985 20.266 5.09972 20.3708 5.41408C20.4756 5.72844 20.3058 6.06824 19.9914 6.17306C13.108 8.46812 8.09181 12.2899 4.58657 17.3207C4.73701 17.3521 4.90543 17.3857 5.08971 17.42C5.92388 17.5755 7.07694 17.7457 8.35497 17.8062C10.9486 17.9288 13.8949 17.5907 15.8112 15.9483C17.7963 14.2469 19.4022 11.2124 20.5228 8.52307C21.0774 7.1919 21.5031 5.97045 21.79 5.08182C21.8784 4.80818 21.9535 4.56638 22.0151 4.363Z" fill="#66BC6B"/>
</svg>
