<svg width="24" height="24" viewBox="0 0 24 24" fill="none" xmlns="http://www.w3.org/2000/svg">
<path fill-rule="evenodd" clip-rule="evenodd" d="M22.7992 4.80039C22.7992 3.47491 21.7247 2.40039 20.3992 2.40039H3.59922C2.27374 2.40039 1.19922 3.47491 1.19922 4.80039V15.6004C1.19922 16.9259 2.27374 18.0004 3.59922 18.0004H11.3992V20.4004H7.63558C7.39459 20.4004 7.19922 20.669 7.19922 21.0004C7.19922 21.3318 7.39459 21.6004 7.63558 21.6004H16.3629C16.6039 21.6004 16.7992 21.3318 16.7992 21.0004C16.7992 20.669 16.6039 20.4004 16.3629 20.4004H12.5992V18.0004H20.3992C21.7247 18.0004 22.7992 16.9259 22.7992 15.6004V4.80039ZM3.59922 3.60039H20.3992C21.062 3.60039 21.5992 4.13765 21.5992 4.80039V8.04039H15.0613C14.7848 8.04039 14.544 8.22939 14.4784 8.49802L13.6852 11.7458L12.1301 4.67157C12.0696 4.39641 11.8258 4.20039 11.544 4.20039C11.2623 4.20039 11.0185 4.39641 10.958 4.67157L9.52151 11.2064L8.619 5.66396C8.5712 5.37038 8.31553 5.15615 8.01811 5.16045C7.7207 5.16476 7.47134 5.38632 7.43206 5.68115L6.79799 10.4404H2.39922V4.80039C2.39922 4.13765 2.93648 3.60039 3.59922 3.60039ZM15.5324 9.24039H21.5992V15.6004C21.5992 16.2631 21.062 16.8004 20.3992 16.8004H3.59922C2.93648 16.8004 2.39922 16.2631 2.39922 15.6004V11.6404H7.32336C7.6241 11.6404 7.87838 11.4177 7.9181 11.1196L8.08616 9.85817L8.8415 14.4968C8.88778 14.781 9.1294 14.9923 9.41721 15.0002C9.70503 15.0081 9.95789 14.8104 10.0197 14.5292L11.544 7.59497L13.0684 14.5292C13.1283 14.8018 13.3683 14.9971 13.6474 15.0004C13.9265 15.0036 14.171 14.8139 14.2373 14.5428L15.5324 9.24039Z" fill="#FDA926"/>
</svg>
