<svg width="17" height="17" viewBox="0 0 17 17" fill="none" xmlns="http://www.w3.org/2000/svg">
<path fill-rule="evenodd" clip-rule="evenodd" d="M2.2037 17C1.46914 17 0 16.5593 0 14.7963V2.2037C0 1.46914 0.440741 0 2.2037 0H14.7963C15.5309 0 17 0.440741 17 2.2037V14.7963C17 15.5309 16.5593 17 14.7963 17H2.2037ZM13.9076 4.98231C13.5622 4.63553 13.0022 4.63553 12.6568 4.98231L6.64269 11.0333L4.34316 8.7245C3.99776 8.37772 3.43777 8.37772 3.09238 8.7245C2.74698 9.07129 2.74698 9.63353 3.09238 9.98032L6.08688 12.9869C6.27215 13.1645 6.74882 13.4131 7.17335 12.9869L13.9076 6.2255C14.253 5.87872 14.253 5.32909 13.9076 4.98231Z" fill="#50A7EA"/>
</svg>
