<svg width="20" height="20" viewBox="0 0 20 20" fill="none" xmlns="http://www.w3.org/2000/svg">
<path fill-rule="evenodd" clip-rule="evenodd" d="M19 10C19 14.9706 14.9706 19 10 19C5.02944 19 1 14.9706 1 10C1 5.02944 5.02944 1 10 1C14.9706 1 19 5.02944 19 10ZM14.8235 7.11265C15.0775 6.83897 15.0546 6.41745 14.7724 6.17114C14.4902 5.92484 14.0555 5.94702 13.8015 6.2207L8.09874 12.3651L5.17364 9.5286C4.90515 9.26825 4.46985 9.26825 4.20136 9.5286C3.93288 9.78895 3.93288 10.2111 4.20136 10.4714L7.63886 13.8047C7.77223 13.9341 7.95453 14.0046 8.14307 13.9998C8.33161 13.995 8.50984 13.9153 8.63601 13.7793L14.8235 7.11265Z" fill="#55BE61"/>
</svg>
