<svg width="20" height="20" viewBox="0 0 20 20" fill="none" xmlns="http://www.w3.org/2000/svg">
<path fill-rule="evenodd" clip-rule="evenodd" d="M10 19C14.9706 19 19 14.9706 19 10C19 5.02944 14.9706 1 10 1C5.02944 1 1 5.02944 1 10C1 14.9706 5.02944 19 10 19ZM10.75 5C10.75 4.58579 10.4142 4.25 10 4.25C9.58582 4.25 9.25003 4.58579 9.25003 5V11.375C9.25003 11.7892 9.58582 12.125 10 12.125C10.4142 12.125 10.75 11.7892 10.75 11.375V5ZM10.75 14C10.75 13.5858 10.4142 13.25 10 13.25C9.58582 13.25 9.25003 13.5858 9.25003 14V14.1C9.25003 14.5142 9.58582 14.85 10 14.85C10.4142 14.85 10.75 14.5142 10.75 14.1V14Z" fill="black"/>
</svg>
