<svg width="18" height="18" viewBox="0 0 18 18" fill="none" xmlns="http://www.w3.org/2000/svg">
<g clip-path="url(#clip0_2893_26210)">
<path fill-rule="evenodd" clip-rule="evenodd" d="M9.00039 3.1499C9.24892 3.1499 9.45039 3.35137 9.45039 3.5999V9.8999C9.45039 10.1484 9.24892 10.3499 9.00039 10.3499H4.50039C4.25186 10.3499 4.05039 10.1484 4.05039 9.8999C4.05039 9.65137 4.25186 9.4499 4.50039 9.4499H8.55039V3.5999C8.55039 3.35137 8.75186 3.1499 9.00039 3.1499Z" fill="#97A0A7"/>
<path fill-rule="evenodd" clip-rule="evenodd" d="M9.00039 16.1999C12.9768 16.1999 16.2004 12.9764 16.2004 8.9999C16.2004 5.02345 12.9768 1.7999 9.00039 1.7999C5.02394 1.7999 1.80039 5.02345 1.80039 8.9999C1.80039 12.9764 5.02394 16.1999 9.00039 16.1999ZM9.00039 17.0999C13.4739 17.0999 17.1004 13.4734 17.1004 8.9999C17.1004 4.5264 13.4739 0.899902 9.00039 0.899902C4.52688 0.899902 0.900391 4.5264 0.900391 8.9999C0.900391 13.4734 4.52688 17.0999 9.00039 17.0999Z" fill="#97A0A7"/>
</g>
<defs>
<clipPath id="clip0_2893_26210">
<rect width="18" height="18" fill="white"/>
</clipPath>
</defs>
</svg>
