<svg width="18" height="18" viewBox="0 0 18 18" fill="none" xmlns="http://www.w3.org/2000/svg">
<g clip-path="url(#clip0_3086_9802)">
<path d="M8.09922 16.6502C8.09922 17.1472 8.50216 17.5502 8.99922 17.5502C9.49627 17.5502 9.89922 17.1472 9.89922 16.6502V9.90019H16.6492C17.1463 9.90019 17.5492 9.49725 17.5492 9.00019C17.5492 8.50314 17.1463 8.10019 16.6492 8.10019H9.89922V1.3502C9.89922 0.85314 9.49627 0.450195 8.99922 0.450195C8.50216 0.450195 8.09922 0.853139 8.09922 1.3502V8.10019H1.34922C0.852162 8.10019 0.449219 8.50314 0.449219 9.00019C0.449219 9.49725 0.852162 9.90019 1.34922 9.90019H8.09922V16.6502Z" fill="#C4C4C4"/>
</g>
<defs>
<clipPath id="clip0_3086_9802">
<rect width="18" height="18" fill="white"/>
</clipPath>
</defs>
</svg>
