<svg width="30" height="30" viewBox="0 0 30 30" fill="none" xmlns="http://www.w3.org/2000/svg">
<path d="M20.428 14.8843C20.3858 14.3505 19.916 13.9096 19.3806 13.9014L15.8371 13.8471C15.6313 13.8439 15.4227 13.6627 15.3907 13.4594L14.61 8.49592C14.5817 8.31613 14.414 7.58305 13.4988 7.58305L9.0924 7.77493C8.51189 7.80016 8.03997 8.0824 8.03997 8.87454C8.03997 8.87454 8.02142 19.9066 7.99886 20.3064L7.84469 23.0359C7.82407 23.4004 7.68204 23.9905 7.53455 24.3244L5.75099 28.3613C5.63326 28.6277 5.63519 28.9221 5.75633 29.1692C5.87746 29.4163 6.10898 29.5982 6.39169 29.6684L6.98548 29.8158C7.07384 29.8377 7.16634 29.8488 7.26031 29.8488C7.73964 29.8488 8.19815 29.5706 8.4013 29.1566L10.0967 25.7008C10.284 25.3191 10.517 24.6722 10.6163 24.2587L11.573 20.2736L13.8881 23.8141C14.079 24.106 14.2808 24.6662 14.32 25.0128L14.7676 28.9766C14.8312 29.5409 15.3451 29.9999 15.9131 29.9999L16.5902 29.9976C16.8808 29.9966 17.1449 29.8806 17.3341 29.671C17.5231 29.4614 17.6116 29.1869 17.5829 28.8978L17.1154 24.1852C17.0723 23.7506 16.9162 23.0906 16.76 22.6827L14.6855 17.2642L14.6727 16.122L19.4941 15.9435C19.7633 15.9336 20.0092 15.8183 20.1866 15.619C20.364 15.4198 20.45 15.1622 20.4288 14.8934L20.428 14.8843Z" fill="#CF312C"/>
<path d="M10.501 6.53566C10.8719 6.53566 11.2387 6.47239 11.5912 6.34752C12.4139 6.0564 13.0739 5.46228 13.4496 4.67461C13.7153 4.11766 13.8156 3.51113 13.749 2.9128L14.844 2.78927C15.2255 2.74622 15.6128 2.44189 15.7448 2.08136L16.1116 1.07979C16.1898 0.865819 16.1692 0.649314 16.0549 0.485668C15.9434 0.326159 15.7556 0.234658 15.5397 0.234658C15.5146 0.234658 15.4887 0.235859 15.4622 0.238396L12.2962 0.539527C11.7742 0.195749 11.1536 0 10.5006 0C10.1298 0 9.76317 0.0632029 9.41058 0.18794C8.58794 0.47926 7.92795 1.07345 7.55214 1.86111C7.17632 2.64878 7.1298 3.53556 7.42113 4.35806C7.88237 5.66056 9.12006 6.53566 10.501 6.53566Z" fill="#CF312C"/>
<path d="M24.334 11.6495L24.019 7.12166C23.9816 6.58394 23.5126 6.14652 22.9718 6.14652L16.9192 6.15707C16.6482 6.15754 16.3991 6.26505 16.2178 6.4598C16.0365 6.65448 15.947 6.91056 15.9659 7.18093L16.2809 11.7088C16.3183 12.2465 16.7872 12.6839 17.3263 12.6839L23.3807 12.6734C23.6517 12.6729 23.9007 12.5654 24.0821 12.3707C24.2633 12.1759 24.3528 11.9198 24.334 11.6495Z" fill="#CF312C"/>
</svg>
