<svg width="31" height="30" viewBox="0 0 31 30" fill="none" xmlns="http://www.w3.org/2000/svg">
<path d="M25.0613 17.4146C22.1242 21.5869 19.1377 25.7241 16.2047 29.8994C16.1104 30.0335 15.9576 30.0335 15.8633 29.8994L7.5944 18.1284C5.06483 14.9469 4.01177 10.2862 6.14867 6.13878C8.84939 0.40495 15.4336 -1.23978 20.0802 0.901643C25.01 3.3931 27.8032 9.28396 23.9151 15.6632L18.7429 14.4709C20.4754 13.5294 21.6505 11.7 21.6505 9.59742C21.6505 6.53261 19.1535 4.04808 16.0732 4.04808C12.9929 4.04808 10.4958 6.53261 10.4958 9.59742C10.4958 12.1474 12.2244 14.2956 14.5793 14.9454L25.0613 17.4146Z" fill="#FFC525"/>
</svg>
