<svg width="30" height="30" viewBox="0 0 30 30" fill="none" xmlns="http://www.w3.org/2000/svg">
<path fill-rule="evenodd" clip-rule="evenodd" d="M12.8782 2.1216C14.0498 0.950028 15.9493 0.950026 17.1209 2.1216L21.6014 6.60211H17.7913V12.0483H12.0934V6.60211H8.39772L12.8782 2.1216ZM23.4778 8.47854L27.8801 12.8808C29.0509 14.0517 29.0518 15.9497 27.8819 17.1216L23.4778 21.5335V8.47854ZM21.8073 23.1925L17.1209 27.879C15.9493 29.0505 14.0498 29.0505 12.8782 27.879L8.19177 23.1925H12.0934V17.7463H17.7913V23.1925H21.8073ZM6.40687 21.4076L2.12087 17.1216C0.949295 15.95 0.949294 14.0505 2.12087 12.879L6.40687 8.59296V21.4076Z" fill="#CF312C"/>
</svg>
