<svg width="24" height="24" viewBox="0 0 24 24" fill="none" xmlns="http://www.w3.org/2000/svg">
<path fill-rule="evenodd" clip-rule="evenodd" d="M3.60039 22.8H20.4004V6L17.4004 6C16.4063 6 15.6004 5.19411 15.6004 4.2V1.2H3.60039V22.8ZM16.8004 1.69706V4.2C16.8004 4.53137 17.069 4.8 17.4004 4.8H19.9033L16.8004 1.69706ZM3.60039 0C2.93765 0 2.40039 0.537259 2.40039 1.2V22.8C2.40039 23.4627 2.93765 24 3.60039 24H20.4004C21.0631 24 21.6004 23.4627 21.6004 22.8V5.29706C21.6004 4.9788 21.474 4.67357 21.2489 4.44853L17.1519 0.351472C16.9268 0.126428 16.6216 0 16.3033 0H3.60039ZM6.00039 9C6.00039 8.66863 6.26902 8.4 6.60039 8.4L17.4004 8.4C17.7318 8.4 18.0004 8.66863 18.0004 9C18.0004 9.33137 17.7318 9.6 17.4004 9.6L6.60039 9.6C6.26902 9.6 6.00039 9.33137 6.00039 9ZM6.60039 13.2C6.26902 13.2 6.00039 13.4686 6.00039 13.8C6.00039 14.1314 6.26902 14.4 6.60039 14.4L17.4004 14.4C17.7318 14.4 18.0004 14.1314 18.0004 13.8C18.0004 13.4686 17.7318 13.2 17.4004 13.2L6.60039 13.2ZM6.00039 18.6C6.00039 18.2686 6.26902 18 6.60039 18L12.6004 18C12.9318 18 13.2004 18.2686 13.2004 18.6C13.2004 18.9314 12.9318 19.2 12.6004 19.2H6.60039C6.26902 19.2 6.00039 18.9314 6.00039 18.6Z" fill="white"/>
</svg>
