<svg width="14" height="14" viewBox="0 0 14 14" fill="none" xmlns="http://www.w3.org/2000/svg">
<g clip-path="url(#clip0_4675_51121)">
<path fill-rule="evenodd" clip-rule="evenodd" d="M8.80174 1.42403C9.76685 0.458918 11.3316 0.458918 12.2967 1.42403C13.2618 2.38914 13.2618 3.95389 12.2967 4.919L5.31823 11.8975C5.2737 11.942 5.21796 11.9737 5.15692 11.9892L1.13539 13.0107C1.01578 13.0411 0.889005 13.0063 0.801739 12.919C0.714473 12.8317 0.679615 12.705 0.71 12.5853L1.73152 8.56383C1.74703 8.50278 1.77872 8.44704 1.82326 8.40251L8.80174 1.42403ZM11.8017 1.919C11.11 1.22726 9.98846 1.22726 9.29671 1.919L9.29172 1.92399L11.7967 4.42902L11.8017 4.42403C12.4935 3.73228 12.4935 2.61075 11.8017 1.919ZM2.79177 8.42394L8.79675 2.41897L11.3018 4.92399L5.2968 10.929L2.79177 8.42394ZM2.35003 8.97215L1.5333 12.1874L4.74859 11.3707L2.35003 8.97215Z" fill="#50A7EA"/>
</g>
<defs>
<clipPath id="clip0_4675_51121">
<rect width="14" height="14" fill="white"/>
</clipPath>
</defs>
</svg>
