<svg width="24" height="24" viewBox="0 0 24 24" fill="none" xmlns="http://www.w3.org/2000/svg">
<path fill-rule="evenodd" clip-rule="evenodd" d="M3.59961 5.3998C3.59961 5.06843 3.86824 4.7998 4.19961 4.7998H19.7996C20.131 4.7998 20.3996 5.06843 20.3996 5.3998C20.3996 5.73118 20.131 5.9998 19.7996 5.9998H4.19961C3.86824 5.9998 3.59961 5.73118 3.59961 5.3998ZM7.19961 11.3998C7.19961 11.0684 7.46824 10.7998 7.79961 10.7998H16.1996C16.531 10.7998 16.7996 11.0684 16.7996 11.3998C16.7996 11.7312 16.531 11.9998 16.1996 11.9998H7.79961C7.46824 11.9998 7.19961 11.7312 7.19961 11.3998ZM11.3996 16.7998C11.0682 16.7998 10.7996 17.0684 10.7996 17.3998C10.7996 17.7312 11.0682 17.9998 11.3996 17.9998H12.5996C12.931 17.9998 13.1996 17.7312 13.1996 17.3998C13.1996 17.0684 12.931 16.7998 12.5996 16.7998H11.3996Z" fill="#555555"/>
</svg>
