<svg width="24" height="24" viewBox="0 0 24 24" fill="none" xmlns="http://www.w3.org/2000/svg">
<path fill-rule="evenodd" clip-rule="evenodd" d="M20.4004 19.9748V10.4835C20.4004 10.015 20.2088 9.57631 19.8856 9.2719L13.0285 2.81393C12.4427 2.26228 11.5581 2.26228 10.9723 2.81393L4.11517 9.2719C3.79195 9.57631 3.60039 10.015 3.60039 10.4835V19.9748C3.60039 20.9063 4.32443 21.6002 5.14325 21.6002H8.40039V14.9241C8.40039 13.9299 9.20628 13.1241 10.2004 13.1241H13.8004C14.7945 13.1241 15.6004 13.9299 15.6004 14.9241V21.6002H18.8575C19.6764 21.6002 20.4004 20.9063 20.4004 19.9748ZM3.29245 8.39833C2.72411 8.93358 2.40039 9.69028 2.40039 10.4835V19.9748C2.40039 21.5352 3.62841 22.8002 5.14325 22.8002H9.24039C9.43921 22.8002 9.60039 22.639 9.60039 22.4402V14.9241C9.60039 14.5927 9.86902 14.3241 10.2004 14.3241H13.8004C14.1318 14.3241 14.4004 14.5927 14.4004 14.9241V22.4402C14.4004 22.639 14.5616 22.8002 14.7604 22.8002H18.8575C20.3724 22.8002 21.6004 21.5352 21.6004 19.9748V10.4835C21.6004 9.69028 21.2767 8.93358 20.7083 8.39833L13.8512 1.94036C12.8033 0.953473 11.1975 0.953475 10.1496 1.94036L3.29245 8.39833Z" fill="white"/>
</svg>
