<svg width="14" height="14" viewBox="0 0 14 14" fill="none" xmlns="http://www.w3.org/2000/svg">
<rect width="14" height="14" rx="7" fill="white"/>
<path fill-rule="evenodd" clip-rule="evenodd" d="M13 7C13 10.3137 10.3137 13 7 13C3.68629 13 1 10.3137 1 7C1 3.68629 3.68629 1 7 1C10.3137 1 13 3.68629 13 7ZM6.99997 3.00003C7.35787 3.00003 7.74997 3.25181 7.74997 3.67535V7.82471C7.74997 8.24825 7.35787 8.50003 6.99997 8.50003C6.64207 8.50003 6.24997 8.24825 6.24997 7.82471V3.67535C6.24997 3.25181 6.64207 3.00003 6.99997 3.00003ZM7.74997 9.97653C7.74997 9.55283 7.39102 9.24997 6.99997 9.24997C6.60892 9.24997 6.24997 9.55283 6.24997 9.97653V10.0234C6.24997 10.4471 6.60892 10.75 6.99997 10.75C7.39102 10.75 7.74997 10.4471 7.74997 10.0234V9.97653Z" fill="#F3C04B"/>
</svg>
