<?xml version="1.0" encoding="UTF-8" standalone="no"?>
<svg
   width="20"
   height="20"
   viewBox="0 0 20 20"
   fill="none"
   version="1.1"
   id="svg6"
   sodipodi:docname="icon-info-o.svg"
   inkscape:version="1.2.1 (9c6d41e410, 2022-07-14)"
   xmlns:inkscape="http://www.inkscape.org/namespaces/inkscape"
   xmlns:sodipodi="http://sodipodi.sourceforge.net/DTD/sodipodi-0.dtd"
   xmlns="http://www.w3.org/2000/svg"
   xmlns:svg="http://www.w3.org/2000/svg">
  <defs
     id="defs10" />
  <sodipodi:namedview
     id="namedview8"
     pagecolor="#ffffff"
     bordercolor="#000000"
     borderopacity="0.25"
     inkscape:showpageshadow="2"
     inkscape:pageopacity="0.0"
     inkscape:pagecheckerboard="0"
     inkscape:deskcolor="#d1d1d1"
     showgrid="false"
     inkscape:zoom="51.35"
     inkscape:cx="9.9902629"
     inkscape:cy="9.9902629"
     inkscape:window-width="2560"
     inkscape:window-height="1377"
     inkscape:window-x="-8"
     inkscape:window-y="-8"
     inkscape:window-maximized="1"
     inkscape:current-layer="svg6" />
  <path
     fill-rule="evenodd"
     clip-rule="evenodd"
     d="M 10,14.85 C 9.5858,14.85 9.25,14.51421 9.25,14.1 V 7.725 c 0,-0.4142 0.3358,-0.75 0.75,-0.75 0.41421,0 0.75,0.3358 0.75,0.75 V 14.1 c 0,0.41421 -0.33579,0.75 -0.75,0.75 z m 0,-9 C 9.5858,5.85 9.25,5.5142 9.25,5.1 V 5 c 0,-0.4142 0.3358,-0.75 0.75,-0.75 0.41421,0 0.75,0.3358 0.75,0.75 v 0.1 c 0,0.4142 -0.33579,0.75 -0.75,0.75 z"
     fill="#97a0a7"
     id="path2" />
  <path
     fill-rule="evenodd"
     clip-rule="evenodd"
     d="m 10,18 c 4.4183,0 8,-3.5817 8,-8 0,-4.41828 -3.5817,-8 -8,-8 -4.41828,0 -8,3.58172 -8,8 0,4.4183 3.58172,8 8,8 z m 0,1 c 4.9706,0 9,-4.0294 9,-9 0,-4.97056 -4.0294,-9 -9,-9 -4.97056,0 -9,4.02944 -9,9 0,4.9706 4.02944,9 9,9 z"
     fill="#97a0a7"
     id="path4" />
</svg>
