<svg width="15" height="15" viewBox="0 0 15 15" fill="none" xmlns="http://www.w3.org/2000/svg">
<path d="M13.4428 1.52599C13.3563 1.49134 13.2597 1.49134 13.1731 1.52599L1.72933 6.05176C1.54298 6.12557 1.4518 6.33646 1.52561 6.52281C1.56053 6.61099 1.62858 6.68194 1.71518 6.72059L6.37776 8.79277L8.4503 13.4557C8.50854 13.5868 8.63855 13.6713 8.78199 13.6713H8.78961C8.93581 13.6681 9.06587 13.5776 9.11949 13.4416L13.6449 1.99777C13.7194 1.81169 13.6289 1.60048 13.4428 1.52599ZM8.76239 12.3706L6.98417 8.37035C6.94765 8.2882 6.88196 8.22247 6.79981 8.18599L2.79989 6.40777L12.6607 2.51019L8.76239 12.3706Z" fill="#55BE61"/>
</svg>
