<svg width="40" height="40" viewBox="0 0 40 40" fill="none" xmlns="http://www.w3.org/2000/svg">
<rect width="40" height="40" rx="20" fill="#CF312C"/>
<path d="M34 20.3732H32.931L32.681 20.7125H34V20.3732Z" fill="white"/>
<path d="M34 21.0036H32.4668L32.2227 21.3429H34V21.0036Z" fill="white"/>
<path d="M34 21.6337H32.0085L31.7585 21.967H34V21.6337Z" fill="white"/>
<path d="M6.87234 21.967H6V21.6337H7.12233L6.87234 21.967Z" fill="white"/>
<path d="M7.33661 21.3429H6V21.0036H7.5866L7.33661 21.3429Z" fill="white"/>
<path d="M7.80088 20.7125H6V20.3732H8.05087L7.80088 20.7125Z" fill="white"/>
<path d="M7.87822 18.6644L8.95557 17.2002H15.1816C16.7589 17.2002 17.1636 18.4442 16.7232 19.0454C16.3958 19.4858 16.0089 20.0156 16.0089 20.0156H13.6042C13.1459 20.0156 13.2828 19.8251 13.3602 19.7239C13.4346 19.6228 13.5329 19.4857 13.6311 19.3489C13.7292 19.212 13.8275 19.0751 13.9018 18.9739C14.0447 18.7775 14.0506 18.6644 13.753 18.6644H7.87822Z" fill="white"/>
<path d="M9.61037 19.0282L7.44377 21.9685H12.7293C14.4733 21.9685 15.4435 20.784 15.7411 20.3733H12.14C11.6817 20.3733 11.8186 20.1829 11.896 20.0817L12.4436 19.3377C12.5865 19.1412 12.5924 19.0282 12.2948 19.0282H9.61037Z" fill="white"/>
<path d="M18.6695 21.9684L19.8421 20.3732H16.7469L15.5744 21.9684H18.6695Z" fill="white"/>
<path d="M17.0089 20.0096H24.586L26.6574 17.2002H23.5623L22.3778 18.8132H20.9909L22.1813 17.2002H19.0862L17.0089 20.0096Z" fill="white"/>
<path d="M23.1515 21.9684L24.3241 20.3732H21.2289L20.0563 21.9684H23.1515Z" fill="white"/>
<path d="M28.8775 20.0156L30.9489 17.2002H27.6692L25.5979 20.0156H28.8775Z" fill="white"/>
<path d="M24.9908 20.8316C25.1039 20.6827 25.3301 20.3732 25.3301 20.3732H32.3655L31.193 21.9684H26.2169C24.9432 21.9684 24.6039 21.3553 24.9908 20.8316Z" fill="white"/>
</svg>
