<svg width="41" height="40" viewBox="0 0 41 40" fill="none" xmlns="http://www.w3.org/2000/svg">
<path d="M20.1049 0C9.14363 0 0.177124 8.999 0.177124 20C0.177124 31.001 9.14363 40 20.1049 40C31.0662 40 40.0327 31.001 40.0327 20C40.0327 8.999 31.0662 0 20.1049 0ZM35.3427 26.581V24.341L34.5446 26.581H34.0274L33.2293 24.341V26.581H32.485V23.768H33.5691L34.2536 25.835L34.9979 23.709H36.0272V26.582H35.3427V26.581ZM30.1953 25.834C30.3139 26.121 30.826 26.121 31.0572 25.834C31.2246 25.547 31.1708 24.86 31.0572 24.514C30.8848 24.227 30.3677 24.227 30.1953 24.514C29.9692 24.801 30.0279 25.488 30.1953 25.834ZM31.6281 26.235C31.2834 26.695 30.3667 26.754 29.9084 26.462C29.1641 26.007 29.0515 24.741 29.6224 24.113C29.9672 23.653 30.8838 23.594 31.396 23.881C32.1403 24.341 32.1403 25.661 31.6271 26.235H31.6281ZM28.1946 23.768H29.0515L27.9086 25.147L29.1651 26.581H28.2534L27.1105 25.147V26.581H26.3074V23.768H27.1105V25.147L28.1946 23.768ZM24.9384 26.635C24.0815 26.635 23.6231 26.175 23.6231 25.147C23.6231 24.687 23.7367 24.282 23.9629 24.054C24.3665 23.54 25.3369 23.54 25.8501 23.827L25.6239 24.455C25.3927 24.341 25.2791 24.282 24.9932 24.282C24.5936 24.282 24.4213 24.569 24.4213 25.147C24.4213 25.661 24.5936 25.948 24.9932 25.948C25.2791 25.948 25.5651 25.889 25.7963 25.721V26.408C25.6239 26.522 25.2243 26.635 24.9394 26.635H24.9384ZM22.022 25.375H21.3912V26.062H22.0758C22.7065 26.062 22.7653 25.375 22.022 25.375ZM22.0758 24.282H21.3912V24.86H21.9632C22.6477 24.86 22.5939 24.282 22.0768 24.282H22.0758ZM23.1648 24.915C23.0512 24.974 22.9336 25.088 22.7065 25.147C22.9327 25.147 23.0512 25.201 23.1648 25.315C23.5046 25.661 23.3372 26.175 22.9924 26.408C22.8201 26.581 22.4803 26.635 22.1355 26.635H20.6479V23.767H22.1355C22.4803 23.767 22.8201 23.826 22.9924 23.94C23.2784 24.167 23.392 24.627 23.1648 24.914V24.915ZM18.3024 25.834C18.4748 26.121 18.9919 26.121 19.1593 25.834C19.3905 25.488 19.3905 24.86 19.2181 24.514C19.0457 24.227 18.5336 24.227 18.3612 24.514C18.1301 24.86 18.1301 25.488 18.3024 25.834ZM19.79 26.235C19.3905 26.695 18.5336 26.754 18.0753 26.462C17.2722 26.007 17.2184 24.741 17.7305 24.113C18.1301 23.653 19.0457 23.594 19.5041 23.881C20.3022 24.341 20.2484 25.661 19.79 26.235ZM16.3017 23.768H17.2184L16.0755 25.147L17.2722 26.581H16.4153L15.2724 25.147V26.581H14.4743V23.768H15.2724V25.147L16.3017 23.768ZM13.1003 26.635C12.2434 26.635 11.7263 26.175 11.7263 25.147C11.7263 24.687 11.8986 24.282 12.071 24.054C12.5294 23.54 13.445 23.54 14.017 23.827L13.7858 24.455C13.5596 24.341 13.3863 24.282 13.1601 24.282C12.7565 24.282 12.5294 24.569 12.5294 25.147C12.5294 25.661 12.7555 25.948 13.1601 25.948C13.446 25.948 13.6722 25.889 13.9582 25.721V26.408C13.732 26.522 13.3275 26.635 13.1013 26.635H13.1003ZM9.67072 25.834C9.7843 26.121 10.2964 26.121 10.5276 25.834C10.7 25.547 10.6412 24.86 10.5276 24.514C10.3552 24.227 9.83811 24.227 9.67072 24.514C9.43955 24.801 9.49834 25.488 9.67072 25.834ZM11.0995 26.235C10.7548 26.695 9.83811 26.754 9.38475 26.462C8.64045 26.007 8.52786 24.741 9.09879 24.113C9.43856 23.653 10.3552 23.594 10.8674 23.881C11.6117 24.341 11.6117 25.661 11.0985 26.235H11.0995ZM4.86812 23.708L4.92193 26.581H4.17763V22.848H5.26668L6.12357 25.721L7.09406 22.848H8.12333V26.581H7.37902V23.708L6.46733 26.581H5.72302L4.86613 23.708H4.86812ZM22.0758 21.701C22.1943 21.587 22.3069 21.414 22.3069 21.187V20.9H21.9622C21.5626 20.9 21.1641 21.014 21.1641 21.474C21.1641 21.934 21.7898 21.988 22.0758 21.701ZM22.3079 21.874C22.0768 22.22 21.8496 22.334 21.3912 22.334C20.362 22.334 20.362 21.128 20.8791 20.781C21.0465 20.667 21.3912 20.554 21.8496 20.554H22.3079C22.3079 20.327 22.3079 20.153 22.1893 20.04C22.022 19.867 21.5636 19.867 21.3912 19.921C21.2189 19.98 21.1053 20.04 20.9917 20.04L20.8193 19.635C21.3315 19.348 22.1345 19.294 22.6467 19.635C22.8779 19.754 22.9327 20.04 22.9327 20.382V22.276H22.4793L22.3069 21.875L22.3079 21.874ZM17.9029 19.466V20.554H19.2769V19.466H19.8488V22.274H19.2769V21.073H17.9029V22.274H17.331V19.466H17.9029ZM31.6829 15.446L31.1708 13.325L30.6537 15.446H31.6829ZM31.9689 16.539H30.3677L30.1415 17.454H28.6539L30.2551 12.46H32.0287L33.6837 17.454H32.2011L31.9699 16.539H31.9689ZM28.7117 17.454H27.2241L25.7365 14.932V17.454H24.4213V12.46H25.7365V14.873L27.1653 12.46H28.5941L27.1115 14.873L28.7127 17.454H28.7117ZM23.5046 17.454H20.5931V12.46H23.5046V13.553H21.9034V14.354H23.391V15.447H21.9034V16.367H23.5046V17.455V17.454ZM18.706 17.454H17.3907V13.612H16.1293V12.46H19.9026V13.553H18.706V17.454ZM15.4448 17.454H14.1296V13.612H12.8143V17.454H11.4403V12.46H15.4458V17.454H15.4448ZM8.92741 15.446L8.41028 13.325L7.89814 15.446H8.92741ZM9.43956 17.454L9.15359 16.539H7.55239L7.32621 17.454H5.89739L7.49859 12.46H9.26718L10.8684 17.454H9.43956Z" fill="#267340"/>
</svg>
