<svg width="41" height="40" viewBox="0 0 41 40" fill="none" xmlns="http://www.w3.org/2000/svg">
<path d="M20.1399 0C9.17461 0 0.209106 8.998 0.209106 20.003C0.209106 31.002 9.17461 40 20.1399 40C31.0992 40 40.0647 31.002 40.0647 20.003C40.0647 8.998 31.0992 0 20.1399 0ZM23.699 12.646C24.6107 12.829 25.1577 14.417 24.8518 16.247C24.5519 18.142 23.5754 19.547 22.6049 19.364C21.6285 19.24 21.1402 17.652 21.4461 15.763C21.752 13.927 22.7225 12.528 23.699 12.646ZM12.381 16.437C13.2339 15.333 14.022 13.993 14.9337 12.954C15.0573 12.771 15.422 12.712 15.6691 12.771C15.7279 12.771 14.3867 16.065 14.2044 16.437H12.381ZM9.88703 17.287C8.85178 17.287 7.02839 17.287 6.41661 18.326C6.23427 18.692 5.93436 19.365 6.48137 19.672C7.45186 20.221 10.3115 17.653 10.3753 17.352C10.434 17.228 9.88703 17.287 9.88703 17.287ZM28.5643 13.196L29.5996 11.49H35.565C34.8356 12.647 34.1003 13.869 33.3709 15.032C35.3826 15.64 35.8061 17.836 34.6533 19.307C33.9179 20.34 32.524 20.895 29.9643 20.954C27.4703 20.895 27.1644 19.059 28.0761 18.085C29.476 17.105 30.3937 18.02 31.1231 19.915C33.7346 18.876 33.617 16.066 30.6936 15.64C31.3054 14.849 32.0935 13.993 32.6406 13.196H28.5633H28.5643ZM27.5291 16.006C27.288 18.633 25.0999 20.771 22.6637 20.771C20.658 20.771 19.1345 19.366 18.7698 17.471H15.97L15.423 19.183C14.9995 20.712 14.9347 20.712 14.6348 20.712C14.2701 20.712 13.5996 20.712 13.1761 20.771C12.8055 20.771 12.6231 20.771 12.5643 20.771C12.382 20.83 13.5996 17.902 13.8407 17.471H11.5938C4.53443 25.288 2.58749 16.621 8.06464 16.497C8.42931 16.497 10.9821 16.438 11.1056 16.373C11.1644 16.314 11.2292 16.314 11.6526 15.641C12.0761 15.033 12.929 13.811 13.476 13.014C14.6348 11.491 15.423 11.06 17.4347 11.308C17.7346 11.367 17.7346 11.426 17.3111 12.955C17.064 13.811 16.6406 15.151 16.2759 16.438H18.7111C18.7698 13.811 20.8991 11.307 23.6352 11.307C26.1939 11.307 27.7762 13.562 27.5291 16.007V16.006ZM34.0415 27.424C34.0415 27.672 34.1003 27.79 34.2238 27.914C34.465 28.156 34.8356 28.097 35.0767 27.855C35.2591 27.607 35.2591 27.123 35.0767 26.875C34.8356 26.633 34.5885 26.692 34.2826 26.751L34.3474 26.084C34.5885 26.084 34.7708 26.019 34.8944 25.96C35.0767 25.777 35.1355 25.411 34.8944 25.228C34.7121 24.986 34.4062 25.045 34.2238 25.228C34.1003 25.287 34.0415 25.47 34.0415 25.653L33.3121 25.535C33.3709 25.045 33.5533 24.738 33.9827 24.555C34.465 24.313 35.1355 24.372 35.565 24.797C36.112 25.352 35.8649 26.019 35.2591 26.385C35.5002 26.45 35.6825 26.568 35.8061 26.751C36.2296 27.241 36.0472 27.914 35.6238 28.339C35.1355 28.829 34.2238 28.888 33.6768 28.404C33.4357 28.156 33.3121 27.914 33.2533 27.548L34.0415 27.424ZM31.7877 25.535C31.9112 25.96 31.9112 27.182 31.7877 27.607C31.6053 28.221 31.0583 28.221 30.9407 27.607C30.8172 27.182 30.8172 25.96 30.9407 25.535C31.0583 24.862 31.6053 24.921 31.7877 25.535ZM32.3357 24.862C32.8887 25.535 32.8887 27.607 32.3357 28.28C31.8534 28.953 30.8182 28.888 30.3299 28.28C29.8417 27.607 29.8417 25.535 30.3947 24.862C30.877 24.248 31.8534 24.248 32.3357 24.862ZM26.4998 26.999H25.341L25.9468 25.411L26.4998 26.999ZM28.0761 28.646H27.1644L26.7997 27.672H25.0999L24.7352 28.646H23.8175L25.4646 24.43H26.3763L28.0761 28.646ZM20.658 24.431H21.5049V26.202C21.6873 26.202 21.8756 26.143 21.9344 26.084C22.2403 25.718 22.299 24.862 22.7873 24.555C23.0284 24.372 23.3931 24.431 23.7578 24.372V25.045C23.5754 25.045 23.3931 25.045 23.2107 25.104C22.7873 25.352 22.9696 26.143 22.299 26.509C22.7873 26.633 23.0284 27.117 23.2107 27.489L23.7578 28.646H22.7873C22.6049 28.339 22.0579 27.058 21.8756 26.875C21.752 26.816 21.6873 26.816 21.5049 26.816V28.646H20.658V24.43V24.431ZM16.6993 28.646V24.43H19.8639V25.168H17.5522V26.083H19.6815V26.815H17.5522V27.972H19.9286V28.645H16.6993V28.646ZM14.0868 28.646V25.169H12.8045V24.431H16.1513V25.169H14.9337V28.646H14.0868ZM8.91555 24.431H12.2574V28.647H11.4105V25.17H9.76348V28.647H8.91655V24.431H8.91555ZM6.90384 26.999H5.75102L6.35683 25.411L6.90384 26.999ZM8.48611 28.646H7.57441L7.20973 27.672H5.50392L5.13924 28.646H4.22754L5.8686 24.43H6.78627L8.48611 28.646Z" fill="#C50000"/>
</svg>
