<?xml version="1.0" encoding="UTF-8" standalone="no"?>
<svg
   width="24"
   height="24"
   viewBox="0 0 24 24"
   fill="none"
   version="1.1"
   id="svg11"
   sodipodi:docname="logo_ua.svg"
   inkscape:version="1.2.1 (9c6d41e410, 2022-07-14)"
   xmlns:inkscape="http://www.inkscape.org/namespaces/inkscape"
   xmlns:sodipodi="http://sodipodi.sourceforge.net/DTD/sodipodi-0.dtd"
   xmlns="http://www.w3.org/2000/svg"
   xmlns:svg="http://www.w3.org/2000/svg">
  <sodipodi:namedview
     id="namedview13"
     pagecolor="#ffffff"
     bordercolor="#000000"
     borderopacity="0.25"
     inkscape:showpageshadow="2"
     inkscape:pageopacity="0.0"
     inkscape:pagecheckerboard="0"
     inkscape:deskcolor="#d1d1d1"
     showgrid="false"
     inkscape:zoom="32"
     inkscape:cx="26.0625"
     inkscape:cy="16.5"
     inkscape:window-width="2560"
     inkscape:window-height="1377"
     inkscape:window-x="-8"
     inkscape:window-y="-8"
     inkscape:window-maximized="1"
     inkscape:current-layer="svg11" />
  <defs
     id="defs9">
    <linearGradient
       id="paint0_linear_5139_62455"
       x1="12"
       y1="0"
       x2="12"
       y2="24"
       gradientUnits="userSpaceOnUse"
       gradientTransform="translate(31.112698,1.3700194)">
      <stop
         offset="0.510417"
         stop-color="#3B94D0"
         id="stop4" />
      <stop
         offset="0.510517"
         stop-color="#FFD500"
         id="stop6" />
    </linearGradient>
  </defs>
  <path
     style="fill:#000000;fill-opacity:0;stroke-width:0.0330488"
     d="M 0.02757587,12.135761 C 0.00442968,11.937497 0.05953509,10.879744 0.11480029,10.461481 0.49764386,7.5640095 1.9011556,4.9142453 4.0541647,3.0241463 5.955992,1.3545566 8.18789,0.37294036 10.757387,0.07598691 c 0.543139,-0.06276986 2.072511,-0.05267724 2.62738,0.01733859 2.543103,0.32089973 4.792188,1.3352115 6.626727,2.9885786 1.842329,1.6603866 3.105817,3.8063482 3.662967,6.2213353 0.189622,0.8219246 0.318218,1.9250016 0.31882,2.7347886 l 1.53e-4,0.206555 H 12.016857 0.04028028 Z"
     id="path917" />
  <path
     style="fill:#ffd500;fill-opacity:1;stroke-width:0.033464"
     d="m 11.124951,24.014297 c -0.06373,-0.0076 -0.264837,-0.02981 -0.446913,-0.04933 C 5.7412529,23.435434 1.6112871,19.780722 0.36253379,14.836507 0.16221409,14.043378 0.00179881,12.914268 0.00179881,12.297414 v -0.271581 h 12.00000219 12 l -0.01767,0.262162 c -0.07102,1.053411 -0.167462,1.725408 -0.359704,2.506268 -0.542183,2.202275 -1.657427,4.172883 -3.267138,5.772949 -0.591255,0.587712 -1.055777,0.971755 -1.717587,1.420014 -1.578849,1.069389 -3.218151,1.693057 -5.16432,1.964751 -0.36223,0.05057 -2.06958,0.09584 -2.350428,0.06232 z"
     id="path1280" />
  <path
     style="fill:#3b94d0;fill-opacity:1;stroke-width:0.033464"
     d="m 11.154401,0.04278547 c -0.06373,0.0076 -0.264837,0.02981 -0.446913,0.04933 C 5.770703,0.62164847 1.6407372,4.2763605 0.39198387,9.2205755 0.19166417,10.013704 0.03124889,11.142814 0.03124889,11.759668 v 0.271581 h 12.00000211 12 l -0.01767,-0.262162 c -0.07102,-1.053411 -0.167462,-1.725408 -0.359704,-2.5062675 -0.542183,-2.202275 -1.657427,-4.172883 -3.267138,-5.772949 -0.591255,-0.587712 -1.055777,-0.971755 -1.717587,-1.420014 -1.578849,-1.069389 -3.218151,-1.69305703 -5.16432,-1.96475103 -0.36223,-0.05057 -2.06958,-0.09584 -2.350428,-0.06232 z"
     id="path1280-9" />
</svg>
