<svg width="41" height="40" viewBox="0 0 41 40" fill="none" xmlns="http://www.w3.org/2000/svg">
<path fill-rule="evenodd" clip-rule="evenodd" d="M20.064 40C31.1097 40 40.064 31.0457 40.064 20C40.064 8.9543 31.1097 0 20.064 0C9.01827 0 0.0639648 8.9543 0.0639648 20C0.0639648 31.0457 9.01827 40 20.064 40ZM25.3729 28.4068C26.7942 26.4121 28.2154 24.4174 29.6253 22.4146L19.1432 19.9454C16.7884 19.2956 15.0598 17.1474 15.0598 14.5974C15.0598 11.5326 17.5569 9.04808 20.6371 9.04808C23.7174 9.04808 26.2145 11.5326 26.2145 14.5974C26.2145 16.7 25.0393 18.5294 23.3069 19.4709L28.4791 20.6632C32.3672 14.284 29.574 8.3931 24.6442 5.90164C19.9976 3.76022 13.4134 5.40495 10.7126 11.1388C8.57573 15.2862 9.6288 19.9469 12.1584 23.1284L20.4273 34.8994C20.5215 35.0336 20.6744 35.0336 20.7686 34.8994C22.2938 32.7283 23.8333 30.5676 25.3729 28.4068Z" fill="#FFC525"/>
</svg>
