<svg width="41" height="40" viewBox="0 0 41 40" fill="none" xmlns="http://www.w3.org/2000/svg">
<path d="M20.1128 0C9.15555 0 0.185059 9.003 0.185059 20C0.185059 30.997 9.15555 40 20.1128 40C31.0701 40 40.0406 30.997 40.0406 20C40.0406 9.003 31.0701 0 20.1128 0ZM34.3034 24.985L33.6956 22.44L33.0729 24.985H34.3034ZM34.9112 27.381L34.6442 26.28H32.7311L32.4641 27.381H30.6845L32.5976 21.414H34.7179L36.6898 27.381H34.9102H34.9112ZM30.7592 27.381H28.9797L27.2001 24.36V27.381H25.6428V21.488H27.2001V24.301L28.905 21.488H30.6845L28.8462 24.301L30.7592 27.381ZM24.6205 27.381H21.0624V21.488H24.6205V22.783H22.7074V23.676H24.4123V24.986H22.7074V26.147H24.6205V27.382V27.381ZM17.2512 27.381V22.783H15.7387V21.488H20.2464V22.783H18.8086V27.381H17.2512ZM14.9236 27.381H13.3523V22.783H11.781V27.381H10.1499V21.488H14.9246V27.381H14.9236ZM7.13985 24.985L6.53206 22.44L5.92426 24.985H7.13985ZM7.7626 27.381L7.42183 26.28H5.50876L5.24173 27.381H3.53691L5.43503 21.414H7.55535L9.46841 27.381H7.76359H7.7626ZM32.5976 15.193C32.4641 15.193 32.0486 15.193 31.9151 15.253C31.4408 15.461 31.1588 16.012 31.3661 16.488C31.5733 16.83 31.7815 16.83 32.1811 16.83L32.5966 15.193H32.5976ZM33.0719 17.798C33.0719 18.334 33.4874 18.14 33.6946 18.14C33.6209 18.616 33.4126 18.958 32.9384 19.018C31.8413 19.018 31.8413 17.991 32.1233 17.173C31.9161 17.247 31.7825 17.247 31.649 17.247C31.5006 17.932 31.2335 19.018 30.4185 19.018C30.0777 19.018 29.9442 18.958 29.6622 18.75C29.455 18.482 29.3952 17.932 29.5885 17.589C30.3448 16.964 30.7602 18.14 30.0777 18.14C30.0777 18.825 30.819 18.274 31.0263 17.649C31.1 17.515 31.1 17.307 31.1598 17.113C30.8928 17.113 30.552 16.83 30.4773 16.562C30.0767 15.877 30.818 14.985 31.5006 14.851C32.2568 14.702 33.0719 14.777 33.8281 14.777C33.6209 15.328 33.0719 17.247 33.0719 17.798ZM27.1414 15.193C26.4588 15.193 26.2516 16.145 26.1181 16.562C26.0443 16.904 25.8361 17.797 26.1181 18.065C26.2516 18.139 26.5186 18.139 26.6671 18.065C26.7269 18.065 27.0078 17.797 27.1414 17.38L27.4084 15.535C27.4084 15.386 27.3486 15.193 27.1414 15.193ZM28.9797 18.333C28.5642 18.824 27.7492 19.092 27.2749 18.616C27.1414 18.542 27.0676 18.333 27.0078 18.065C26.7259 18.616 25.9846 18.958 25.4365 18.75C25.0958 18.616 24.8875 18.408 24.8138 18.14C24.473 17.247 25.021 15.804 25.6438 15.194C25.9846 14.852 26.3851 14.643 26.8594 14.643C27.1414 14.643 27.5419 14.703 27.5419 15.045L27.6156 14.643H28.7724L28.2234 17.456C28.2234 17.649 28.0311 18.066 28.5642 18.141C28.905 18.141 29.1869 17.65 29.1869 17.308H29.5277C29.5277 17.591 29.1869 18.201 28.9787 18.335L28.9797 18.333ZM22.9157 16.563C22.8419 16.563 22.7672 16.623 22.6337 16.623C22.2929 16.623 22.2332 16.489 22.2332 16.221C22.2332 15.879 22.5002 15.67 22.7672 15.67C22.9157 15.194 23.1827 14.703 23.3162 14.167C23.39 13.959 23.5235 13.274 23.109 13.274C22.9167 13.274 22.7084 13.616 22.6347 13.75C22.2341 14.435 21.5377 16.622 21.5377 17.455C21.5377 18.333 22.4274 18.333 22.7094 17.797C22.7692 17.648 23.0502 16.696 22.9167 16.562L22.9157 16.563ZM25.0948 15.729C24.6793 16.146 24.205 16.354 23.7307 16.414C23.7307 16.488 23.7307 16.697 23.7307 16.831C23.7307 17.307 23.5235 17.932 23.1817 18.274C22.7662 18.75 22.4255 18.884 21.7439 18.884C21.4032 18.884 20.9289 18.824 20.7206 18.482C19.7721 17.113 21.0614 13.616 22.2919 12.797C22.7074 12.514 23.1817 12.589 23.5225 12.857C23.7297 13.14 23.7297 13.482 23.7297 13.75C23.7297 14.435 23.4478 15.193 23.107 15.729C23.3142 15.803 23.3142 15.803 23.4477 16.012C23.655 16.012 24.0705 15.938 24.2777 15.878C24.47 15.804 24.8118 15.595 24.9603 15.461L25.0938 15.729H25.0948ZM16.9702 18.065C16.9702 18.407 17.5192 18.199 17.6528 18.139C18.127 17.931 18.4678 16.621 18.4678 16.071C18.4678 15.119 17.6528 15.327 17.4445 15.878L16.9702 18.066V18.065ZM15.1309 20.938L16.5687 14.435H17.7255L17.592 15.045C17.6518 14.985 17.859 14.852 17.9925 14.777C20.0391 14.092 19.6973 16.697 19.1493 17.932C18.7488 18.676 17.5182 19.361 16.8367 18.676L16.4212 20.67L15.1309 20.938ZM13.3523 16.83C13.4859 16.83 13.6931 16.756 13.8266 16.696C14.2421 16.354 14.5091 15.937 14.5091 15.386C14.5091 15.044 14.3168 14.984 14.0349 15.193C13.6941 15.535 13.3523 16.354 13.3523 16.83ZM14.0339 18.824C13.6931 18.958 13.1441 19.017 12.8033 18.884C12.4626 18.751 12.2693 18.616 12.1208 18.274C11.8538 17.515 12.1208 16.563 12.4616 15.804C12.6688 15.387 13.0106 15.045 13.4251 14.852C13.8256 14.644 14.6556 14.569 14.9226 14.912C15.6052 15.597 14.7154 16.698 13.9741 17.04C13.7668 17.114 13.4849 17.174 13.2178 17.174C13.2178 17.65 13.2178 18.201 13.8256 18.201C14.5819 18.201 14.7891 17.933 15.3381 17.457H15.5454C15.5454 17.383 14.8489 18.409 14.0329 18.826L14.0339 18.824ZM9.05192 18.884L10.2237 13.676C9.88291 13.616 9.39368 13.542 9.05192 13.483L7.89512 18.885H6.73831L7.89512 13.483C7.00534 13.751 6.73831 14.168 6.73831 15.12C6.73831 15.328 6.87182 15.537 6.87182 15.671C6.73831 15.671 6.32281 15.671 6.26403 15.463C5.92326 15.121 6.05678 14.436 6.19029 14.02C6.60579 12.993 7.82138 12.651 8.85962 12.651C9.73445 12.651 11.6475 13.142 12.4038 12.725C12.4038 13.41 12.063 13.752 11.4403 13.752L10.3582 18.886H9.05292L9.05192 18.884Z" fill="#308959"/>
</svg>
