<svg width="40" height="40" viewBox="0 0 40 40" fill="none" xmlns="http://www.w3.org/2000/svg">
<rect width="40" height="40" rx="20" fill="#CF312C"/>
<path fill-rule="evenodd" clip-rule="evenodd" d="M20 34C27.732 34 34 27.732 34 20C34 12.268 27.732 6 20 6C12.268 6 6 12.268 6 20C6 27.732 12.268 34 20 34ZM18.5255 10.6667C17.855 10.6667 17.3115 11.2102 17.3115 11.8806V17.3117H11.8806C11.2102 17.3117 10.6667 17.8552 10.6667 18.5257V21.4737C10.6667 22.1442 11.2102 22.6877 11.8806 22.6877H17.3115V28.1194C17.3115 28.7898 17.855 29.3333 18.5255 29.3333H21.4735C22.144 29.3333 22.6875 28.7898 22.6875 28.1194V22.6877H28.1194C28.7898 22.6877 29.3333 22.1442 29.3333 21.4737V18.5257C29.3333 17.8552 28.7898 17.3117 28.1194 17.3117H22.6875V11.8806C22.6875 11.2102 22.144 10.6667 21.4735 10.6667H18.5255Z" fill="white"/>
</svg>
