<svg width="41" height="40" viewBox="0 0 41 40" fill="none" xmlns="http://www.w3.org/2000/svg">
<path d="M20.1239 0C9.15862 0 0.193115 8.998 0.193115 20.003C0.193115 31.002 9.15862 40 20.1239 40C31.0832 40 40.0487 31.002 40.0487 20.003C40.0487 8.998 31.0832 0 20.1239 0ZM34.2138 21.632C34.5785 21.992 35.2959 21.85 35.5848 21.343C35.8728 20.764 35.8728 19.241 35.5848 18.586C35.2969 17.937 34.432 18.155 34.2138 18.875V21.632ZM32.8428 17.139H33.8551L33.9966 17.788C34.2846 16.849 36.091 16.631 36.7436 17.646C37.467 18.662 37.3206 21.194 36.6669 22.21C36.1667 22.936 34.9372 23.367 34.2138 22.865V25.179H32.8428V17.138V17.139ZM29.3783 18.515C29.2309 18.733 29.0904 19.023 29.0904 19.46H30.6786C30.7494 19.023 30.6786 18.734 30.6019 18.444C30.3139 18.007 29.5956 18.155 29.3783 18.515ZM31.8314 22.5C30.8958 23.297 29.0137 23.297 28.2963 22.211C27.5021 21.125 27.5021 18.663 28.367 17.718C29.5965 16.195 31.9789 16.921 31.9789 19.241C31.9789 19.601 31.9789 20.038 31.8314 20.398H29.0137C29.0904 20.835 29.1611 21.195 29.3783 21.484C29.8078 22.068 30.8958 21.921 31.396 21.484L31.8314 22.5ZM25.5482 20.617H24.1772V22.866H22.8062V17.139H24.1772V19.312H25.5482V17.139H26.9193V22.866H25.5482V20.617ZM22.301 18.373H21.0714V22.866H19.7004V18.373H18.4001V17.139H22.3V18.373H22.301ZM15.1539 21.632C15.5126 21.992 16.236 21.921 16.4542 21.343C16.8129 20.835 16.8129 19.241 16.5249 18.586C16.237 17.937 15.3721 18.155 15.1539 18.875V21.632ZM13.7829 17.139H14.7892L14.9367 17.865C15.2954 16.849 16.9603 16.56 17.6777 17.647C18.3304 18.663 18.2596 21.195 17.607 22.211C17.1008 22.937 15.8713 23.368 15.1539 22.866V25.18H13.7829V17.139ZM11.4712 21.272V20.327C10.8943 20.256 10.171 20.327 10.171 21.053C10.171 22.069 11.1833 21.921 11.4712 21.271V21.272ZM9.01215 17.429C9.66479 17.14 10.3892 16.992 11.0358 16.992C12.3361 16.992 12.8423 17.718 12.8423 18.952C12.8423 20.109 12.5543 21.774 12.913 22.937H11.8309L11.543 22.14C11.1076 23.079 9.80727 23.297 9.08987 22.5C8.51296 21.774 8.58371 20.327 9.44857 19.82C9.95474 19.531 10.6014 19.383 11.4722 19.46C11.4722 18.876 11.543 18.155 10.7489 18.155C10.2427 18.155 9.80727 18.297 9.37783 18.515L9.01315 17.429H9.01215ZM6.55904 16.124H4.46463V22.866H3.02386V14.819H8.0068V22.866H6.56004V16.124H6.55904Z" fill="#D4002A"/>
</svg>
