<svg width="40" height="40" viewBox="0 0 40 40" fill="none" xmlns="http://www.w3.org/2000/svg">
<rect width="40" height="40" rx="20" fill="#50A7EA"/>
<path fill-rule="evenodd" clip-rule="evenodd" d="M19.9942 14.3169L19.9984 14.3169L20.0027 14.3169C20.0834 14.3178 20.1643 14.3183 20.2455 14.3183C22.003 14.3183 23.6672 14.1021 25.1664 13.7165C24.8915 12.9338 24.568 12.2167 24.2056 11.5793C22.9933 9.44739 21.4706 8.3913 20.004 8.38863L20.0042 7.40039C26.8779 7.40349 32.4646 12.9106 32.5961 19.7536H32.5984V20.7418H32.577C32.1932 27.3555 26.7083 32.6004 19.9984 32.6004C13.2885 32.6004 7.80365 27.3555 7.41989 20.7418H7.39844V19.7536H7.40081C7.53228 12.9106 13.119 7.40349 19.9926 7.40039L19.9929 8.38863C18.5262 8.3913 17.0036 9.44739 15.7913 11.5793C15.4288 12.2167 15.1054 12.9338 14.8305 13.7165C16.3297 14.1021 17.9939 14.3183 19.7514 14.3183C19.8325 14.3183 19.9135 14.3178 19.9942 14.3169ZM19.9984 31.6122C21.4667 31.612 22.9919 30.556 24.2056 28.4215C24.568 27.7841 24.8915 27.067 25.1664 26.2843C23.6672 25.8987 22.003 25.6825 20.2455 25.6825C20.1635 25.6825 20.0811 25.683 19.9995 25.6839H19.9973C19.9157 25.683 19.8334 25.6825 19.7514 25.6825C17.9939 25.6825 16.3297 25.8987 14.8305 26.2843C15.1054 27.067 15.4288 27.7841 15.7913 28.4215C17.005 30.556 18.5302 31.612 19.9984 31.6122ZM19.9984 24.6956C20.08 24.6947 20.1636 24.6943 20.2455 24.6943C22.0963 24.6943 23.8628 24.9238 25.4648 25.3408C25.8577 23.9536 26.105 22.399 26.1622 20.7418H19.9984H13.8347C13.8919 22.399 14.1392 23.9536 14.5321 25.3408C16.1341 24.9238 17.9006 24.6943 19.7514 24.6943C19.8333 24.6943 19.9169 24.6947 19.9984 24.6956ZM19.9984 19.7536H26.1735C26.1525 17.9109 25.8965 16.1843 25.4648 14.66C23.8628 15.077 22.0963 15.3065 20.2455 15.3065C20.1643 15.3065 20.0823 15.3061 20.0015 15.3052L19.9984 15.3051L19.9954 15.3052C19.9146 15.3061 19.8326 15.3065 19.7514 15.3065C17.9006 15.3065 16.1341 15.077 14.5321 14.66C14.1003 16.1843 13.8444 17.9109 13.8234 19.7536H19.9984ZM13.5828 14.385C13.123 16.0067 12.8561 17.8272 12.8351 19.7536H8.38924C8.44112 17.266 9.27527 14.9707 10.6556 13.1038C11.5243 13.6091 12.5092 14.041 13.5828 14.385ZM12.8459 20.7418H8.40996C8.5547 23.0388 9.36724 25.1544 10.6556 26.8969C11.5243 26.3917 12.5092 25.9598 13.5828 25.6158C13.1625 24.1336 12.9034 22.4853 12.8459 20.7418ZM11.2847 27.6755C12.0545 27.2412 12.9266 26.8642 13.8795 26.5585C14.544 28.4721 15.4907 30.0496 16.6178 31.1123C14.5302 30.478 12.6916 29.2716 11.2847 27.6755ZM11.2847 12.3253C12.0545 12.7596 12.9266 13.1366 13.8795 13.4423C14.544 11.5287 15.4907 9.95115 16.6178 8.88844C14.5302 9.52275 12.6916 10.7292 11.2847 12.3253ZM26.4141 14.385C26.8739 16.0067 27.1408 17.8272 27.1618 19.7536H31.6076C31.5558 17.266 30.7216 14.9707 29.3412 13.1038C28.4726 13.6091 27.4877 14.041 26.4141 14.385ZM27.151 20.7418H31.5869C31.4422 23.0388 30.6296 25.1544 29.3412 26.8969C28.4726 26.3917 27.4877 25.9598 26.4141 25.6158C26.8343 24.1336 27.0934 22.4853 27.151 20.7418ZM28.7122 27.6755C27.9424 27.2412 27.0703 26.8642 26.1174 26.5585C25.4528 28.4721 24.5062 30.0496 23.3791 31.1123C25.4667 30.478 27.3053 29.2716 28.7122 27.6755ZM28.7122 12.3253C27.9424 12.7596 27.0703 13.1366 26.1174 13.4423C25.4528 11.5287 24.5062 9.95115 23.3791 8.88844C25.4667 9.52275 27.3053 10.7292 28.7122 12.3253Z" fill="white"/>
</svg>
