<svg width="41" height="40" viewBox="0 0 41 40" fill="none" xmlns="http://www.w3.org/2000/svg">
<path fill-rule="evenodd" clip-rule="evenodd" d="M20.064 40C31.1097 40 40.064 31.0457 40.064 20C40.064 8.9543 31.1097 0 20.064 0C9.01827 0 0.0639648 8.9543 0.0639648 20C0.0639648 31.0457 9.01827 40 20.064 40ZM26.6658 11.6018L20.064 5L13.4621 11.6018H17.1578V17.0481H22.8557V11.6018H26.6658ZM35.064 20L28.5422 13.4783V26.5332L35.064 20ZM20.064 35L26.8717 28.1922H22.8557V22.746H17.1578V28.1922H13.2562L20.064 35ZM5.06396 20L11.4713 26.4073V13.5927L5.06396 20Z" fill="#CF312C"/>
</svg>
