<svg width="60" height="60" viewBox="0 0 60 60" fill="none" xmlns="http://www.w3.org/2000/svg">
<g clip-path="url(#clip0_4787_70822)">
<path d="M30.1162 0C13.6835 0 0.230469 13.5045 0.230469 30C0.230469 46.4955 13.6835 60 30.1162 60C46.5488 60 60.0018 46.4955 60.0018 30C60.0018 13.5045 46.5488 0 30.1162 0ZM23.8237 30.7365C23.8237 33.2145 20.1104 33.2145 20.1104 30.7365C20.1104 28.371 23.8237 28.371 23.8237 30.7365ZM41.2351 30.7365C41.2351 33.2145 37.5218 33.2145 37.5218 30.7365C37.5218 28.371 41.2351 28.371 41.2351 30.7365ZM29.2046 35.9145V25.3125L25.847 27.456L24.3796 25.425L30.672 20.6925H32.5847V35.916H36.4101V38.9745H25.4032V35.916H29.2061L29.2046 35.9145ZM11.5721 20.6925C15.8413 20.6925 18.3098 23.1705 18.3098 27.456C18.3098 30.6255 17.5313 33.7725 15.2854 36.2505C13.4848 38.1705 10.9041 39.0855 8.30259 39.309L7.52407 36.5865C11.0147 36.1395 13.7059 34.443 14.4844 30.9615C13.5953 31.9665 12.3491 32.1885 11.0162 32.1885C7.74672 32.1885 5.27966 29.934 5.27966 26.6745C5.27966 22.8345 7.97086 20.6925 11.5721 20.6925ZM9.6594 28.5945C11.0162 29.7105 13.5953 29.487 14.8401 28.125C14.8401 26.451 14.9507 24.7545 13.0395 23.8395C12.0159 23.2815 10.3273 23.3925 9.43676 24.309C8.41317 25.314 8.41317 27.6795 9.6594 28.5945ZM47.7502 35.9145V25.3125L44.3926 27.456L42.9252 25.425L49.2176 20.6925H51.2409V35.916H54.9542V38.9745H43.9248V35.916H47.7502V35.9145Z" fill="#CF312C"/>
</g>
<rect x="0.5" y="0.5" width="59" height="59" rx="29.5" stroke="black" stroke-opacity="0.1"/>
<defs>
<clipPath id="clip0_4787_70822">
<rect width="60" height="60" rx="30" fill="white"/>
</clipPath>
</defs>
</svg>
