<svg width="42" height="41" viewBox="0 0 42 41" fill="none" xmlns="http://www.w3.org/2000/svg">
<path fill-rule="evenodd" clip-rule="evenodd" d="M20.9828 40.3496C32.0285 40.3496 40.9828 31.3953 40.9828 20.3496C40.9828 9.30391 32.0285 0.349609 20.9828 0.349609C9.93709 0.349609 0.982788 9.30391 0.982788 20.3496C0.982788 31.3953 9.93709 40.3496 20.9828 40.3496ZM8.35833 15.2399H10.2127L10.5687 16.2975H11.6933L9.77201 11.1646H8.79195L6.88119 16.2975H8.00579L8.35833 15.2399ZM9.92712 14.3832H8.64388L9.28198 12.4619L9.92712 14.3832ZM15.2928 16.2975H16.3539V11.1646H12.1798V16.2975H13.2375V12.0212H15.2928V16.2975ZM21.1484 12.0212H19.5761V16.2975H18.5185V12.0212H16.9673V11.1646H21.1484V12.0212ZM22.8124 14.073H24.8431V13.2445H22.8124V12.0212H25.1885V11.1646H21.7548V16.2975H25.1956V15.4479H22.8124V14.073ZM27.4906 14.1999H26.8807V16.2975H25.8231V11.1646H26.8807V13.2199H27.3637L28.6187 11.1646H29.909L28.3261 13.5935L30.0591 16.2733L31.9608 11.1646H32.9409L34.8622 16.2975H33.7376L33.3815 15.2399H31.5272L31.1747 16.2975H30.0747H30.0501H28.8126L27.4906 14.1999ZM33.096 14.3832H31.8127L32.4508 12.4619L33.096 14.3832ZM8.65798 20.8474C8.65798 21.3527 8.56867 21.7957 8.39005 22.1764C8.21143 22.5572 7.95526 22.851 7.62152 23.0578C7.29013 23.2646 6.90939 23.368 6.47929 23.368C6.05389 23.368 5.67433 23.2658 5.34059 23.0613C5.00685 22.8568 4.74833 22.5654 4.565 22.187C4.38168 21.8063 4.28885 21.3691 4.2865 20.8756V20.6217C4.2865 20.1164 4.37698 19.6722 4.55795 19.2892C4.74127 18.9037 4.99863 18.6087 5.33001 18.4043C5.66375 18.1975 6.04449 18.094 6.47224 18.094C6.89999 18.094 7.27956 18.1975 7.61094 18.4043C7.94468 18.6087 8.20203 18.9037 8.383 19.2892C8.56632 19.6722 8.65798 20.1153 8.65798 20.6182V20.8474ZM7.58626 20.6147C7.58626 20.0765 7.4899 19.6675 7.29718 19.3879C7.10446 19.1082 6.82948 18.9683 6.47224 18.9683C6.11735 18.9683 5.84355 19.107 5.65083 19.3843C5.4581 19.6593 5.36057 20.0636 5.35822 20.5971V20.8474C5.35822 21.3715 5.45458 21.7781 5.6473 22.0672C5.84002 22.3562 6.11735 22.5008 6.47929 22.5008C6.83418 22.5008 7.10681 22.3621 7.29718 22.0848C7.48755 21.8051 7.58391 21.3985 7.58626 20.865V20.6147ZM12.5465 23.2975H13.6076V18.1646H9.43357V23.2975H10.4912V19.0212H12.5465V23.2975ZM18.4022 19.0212H16.8298V23.2975H15.7722V19.0212H14.2211V18.1646H18.4022V19.0212ZM22.8583 22.1764C23.0369 21.7957 23.1262 21.3527 23.1262 20.8474V20.6182C23.1262 20.1153 23.0345 19.6722 22.8512 19.2892C22.6702 18.9037 22.4129 18.6087 22.0791 18.4043C21.7478 18.1975 21.3682 18.094 20.9404 18.094C20.5127 18.094 20.132 18.1975 19.7982 18.4043C19.4668 18.6087 19.2095 18.9037 19.0262 19.2892C18.8452 19.6722 18.7547 20.1164 18.7547 20.6217V20.8756C18.7571 21.3691 18.8499 21.8063 19.0332 22.187C19.2165 22.5654 19.4751 22.8568 19.8088 23.0613C20.1425 23.2658 20.5221 23.368 20.9475 23.368C21.3776 23.368 21.7583 23.2646 22.0897 23.0578C22.4235 22.851 22.6796 22.5572 22.8583 22.1764ZM21.7654 19.3879C21.9581 19.6675 22.0545 20.0765 22.0545 20.6147V20.865C22.0521 21.3985 21.9558 21.8051 21.7654 22.0848C21.575 22.3621 21.3024 22.5008 20.9475 22.5008C20.5856 22.5008 20.3082 22.3562 20.1155 22.0672C19.9228 21.7781 19.8264 21.3715 19.8264 20.8474V20.5971C19.8288 20.0636 19.9263 19.6593 20.119 19.3843C20.3117 19.107 20.5856 18.9683 20.9404 18.9683C21.2977 18.9683 21.5727 19.1082 21.7654 19.3879ZM23.8947 23.2975V18.1646H25.6927C26.3155 18.1646 26.7879 18.2844 27.1099 18.5241C27.4319 18.7615 27.5929 19.1105 27.5929 19.5712C27.5929 19.8227 27.5282 20.0448 27.399 20.2375C27.2697 20.4279 27.0899 20.5677 26.8596 20.657C27.1228 20.7228 27.3296 20.8556 27.48 21.0554C27.6328 21.2551 27.7092 21.4996 27.7092 21.7887C27.7092 22.2822 27.5517 22.6559 27.2368 22.9097C26.9219 23.1636 26.473 23.2928 25.8901 23.2975H23.8947ZM24.9523 21.0624V22.4479H25.8584C26.1075 22.4479 26.3014 22.3891 26.4401 22.2716C26.5811 22.1518 26.6516 21.9872 26.6516 21.7781C26.6516 21.308 26.4083 21.0695 25.9218 21.0624H24.9523ZM24.9523 20.315H25.735C26.2685 20.3056 26.5352 20.0929 26.5352 19.6769C26.5352 19.4443 26.4671 19.2774 26.3308 19.1763C26.1968 19.0729 25.9841 19.0212 25.6927 19.0212H24.9523V20.315ZM32.6447 18.1646H31.5836L29.5283 21.5807V18.1646H28.4707V23.2975H29.5283L31.5836 19.8885V23.2975H32.6447V18.1646ZM35.4615 19.9343L36.424 18.1646H37.6402L36.1455 20.7099L37.679 23.2975H36.4486L35.4615 21.4996L34.4744 23.2975H33.2441L34.7776 20.7099L33.2828 18.1646H34.4991L35.4615 19.9343ZM19.6008 25.1646H18.5432V30.2975H22.3612V31.5349H23.3483L23.4188 29.4479H22.7172V25.1646H21.6561V29.4479H19.6008V25.1646Z" fill="#28AA46"/>
</svg>
