<svg width="41" height="40" viewBox="0 0 41 40" fill="none" xmlns="http://www.w3.org/2000/svg">
<path d="M20.0888 0C9.12751 0 0.161011 8.999 0.161011 20C0.161011 31.001 9.12751 40 20.0888 40C31.0501 40 40.0166 31.001 40.0166 20C40.0166 8.999 31.0501 0 20.0888 0ZM22.4542 30.883H21.6123L21.4788 29.973H17.7244V25.226H18.8284V29.191H20.572V25.226H21.7398V29.191H22.4542V30.882V30.883ZM34.3371 21.261L32.9133 18.922H34.3371L35.2439 20.875L36.2193 18.922H37.5097L36.022 21.261L37.5784 23.733H36.2183L35.2429 21.785L34.0801 23.733H32.7848L34.3362 21.261H34.3371ZM27.9911 22.952C28.316 22.952 28.6418 23.016 29.0951 22.823C29.4847 22.497 29.4847 21.458 28.8341 21.394C28.4445 21.394 28.2532 21.394 27.9921 21.394V22.951L27.9911 22.952ZM26.8284 18.922H27.9911V20.613C28.4445 20.613 28.8979 20.549 29.415 20.677C29.9371 20.741 30.1932 20.939 30.4542 21.33C30.7741 21.913 30.5828 22.952 30.0646 23.407C29.414 23.926 27.5378 23.926 26.8284 23.669V18.922ZM31.0999 18.922H32.2676V23.733H31.0999V18.922ZM24.6263 20.677C24.9512 20.351 24.8186 19.96 24.5626 19.703C24.2377 19.505 23.7844 19.574 23.3948 19.574V20.939C23.8482 20.939 24.2368 20.939 24.6263 20.677ZM24.6911 22.823C24.9522 22.625 25.0159 22.24 24.8196 21.913C24.6273 21.522 23.7854 21.651 23.3958 21.651V22.951C23.6569 23.08 24.4301 23.015 24.6911 22.822V22.823ZM25.7891 20.677C25.4693 21.003 25.4045 21.003 25.0159 21.132V21.196C25.9864 21.458 26.5673 22.106 25.9864 23.016C25.7254 23.471 25.272 23.604 24.8186 23.733C24.2377 23.797 22.8139 23.797 22.227 23.669V18.922C23.1338 18.793 24.5626 18.729 25.4045 19.051C25.8529 19.313 26.1777 20.223 25.7891 20.678V20.677ZM19.1881 23.016C20.2223 23.016 20.2871 22.106 20.2871 21.33C20.2871 20.549 20.1585 19.575 19.1881 19.575C18.4736 19.575 18.1488 20.158 18.1488 21.33C18.1488 21.978 18.3461 23.016 19.1881 23.016ZM17.4384 19.441C17.8918 18.986 18.4726 18.793 19.1871 18.793C19.8327 18.793 20.5471 18.986 21.0005 19.505C21.3901 19.96 21.5814 20.677 21.5814 21.329C21.5814 22.105 21.3203 22.694 20.9357 23.149C20.6109 23.604 19.9603 23.797 19.1871 23.797C18.5364 23.797 17.8918 23.668 17.4384 23.149C16.724 22.239 16.6602 20.222 17.4384 19.441ZM16.7887 19.703H15.3011V23.733H14.0696V19.703H12.5182V18.922H16.7897V19.703H16.7887ZM10.8323 19.703H9.14744V23.733H7.98466V18.922H12.0001V23.733H10.8323V19.703ZM4.42257 22.887C4.81215 23.149 5.45682 23.016 5.71787 22.625C6.10746 22.042 6.10746 20.741 5.78164 20.093C5.52059 19.767 5.32828 19.574 4.93969 19.574C3.45208 19.574 3.64439 22.496 4.42257 22.887ZM3.19103 19.441C3.90544 18.531 5.91017 18.596 6.68935 19.505C7.46753 20.42 7.46753 22.304 6.68935 23.149C5.8474 24.059 3.90544 24.059 3.12726 23.149C2.41285 22.239 2.41285 20.222 3.19103 19.441ZM31.9428 15.609L31.4257 13.725L30.8448 15.609H31.9438H31.9428ZM32.1341 16.321H30.5828L30.2579 17.429H29.0314L30.9723 12.554H31.8791L33.82 17.429H32.5247L32.1351 16.321H32.1341ZM26.1787 15.347H25.9226V17.429H24.7549V12.618H25.9226V14.764L26.1787 14.635L27.5388 12.618H28.8989L27.4112 14.635L26.9579 14.892L27.4112 15.154L29.1599 17.428H27.6723L26.1797 15.346L26.1787 15.347ZM20.7394 12.618H23.9757V13.399H21.9062V14.571H23.7834V15.347H21.9062V16.583H24.0395V17.428H20.7384V12.617L20.7394 12.618ZM20.2223 13.399H18.6709V17.429H17.5032V13.399H15.882V12.618H20.2223V13.399ZM14.2659 13.399H12.5172V17.429H11.3495V12.618H15.4287V17.429H14.2659V13.399ZM7.98466 15.609H9.08367L8.56655 13.725L7.98565 15.609H7.98466ZM9.28096 16.321H7.7246L7.33501 17.429H6.17222L8.04942 12.554H9.0199L10.9609 17.429H9.73431L9.28096 16.321Z" fill="#28AA46"/>
</svg>
