<svg width="41" height="40" viewBox="0 0 41 40" fill="none" xmlns="http://www.w3.org/2000/svg">
<path d="M20.1288 0C31.0861 0 40.0566 9.003 40.0566 20C40.0566 30.997 31.0861 40 20.1288 40C9.17154 40 0.20105 30.997 0.20105 20C0.20105 9.003 9.17154 0 20.1288 0ZM7.9121 17.396C7.9121 18.214 9.08386 18.214 9.08386 17.396V15.685H11.4861V17.396C11.4861 18.214 12.6579 18.214 12.6579 17.396V12.991C12.6579 12.158 11.4861 12.158 11.4861 12.991V14.628H9.08386V12.991C9.08386 12.158 7.9121 12.158 7.9121 12.991V17.396ZM18.1131 17.396V12.991C18.1131 12.336 17.4017 12.158 17.046 12.634L14.5401 15.923V12.991C14.5401 12.158 13.3683 12.158 13.3683 12.991V17.396C13.3683 18.036 14.1246 18.155 14.4215 17.753L16.9862 14.449V17.395C16.9862 18.213 18.1131 18.213 18.1131 17.395V17.396ZM18.5725 17.098C18.5725 17.872 19.803 18.036 20.4556 18.036C21.6274 18.036 22.3837 17.218 22.3837 16.34C22.3837 15.685 21.9682 15.105 21.3903 14.926C21.8496 14.688 22.0867 14.227 22.0867 13.75C22.0867 12.932 21.5676 12.336 20.3969 12.336C19.804 12.336 18.692 12.515 18.692 13.169C18.692 13.452 18.9292 13.69 19.2261 13.69C19.5081 13.69 19.804 13.392 20.3381 13.392C20.6788 13.392 20.916 13.63 20.916 13.928C20.916 14.285 20.6788 14.404 20.4566 14.449C20.1009 14.568 19.7452 14.568 19.7452 15.044C19.7452 15.461 20.0421 15.52 20.3381 15.52C20.7386 15.58 21.0943 15.624 21.0943 16.219C21.0943 16.636 20.7974 16.978 20.3979 16.978C19.6864 16.978 19.4493 16.576 19.1075 16.576C18.7518 16.576 18.5735 16.814 18.5735 17.097L18.5725 17.098ZM24.1323 15.58H24.8437C26.0155 15.58 25.8969 16.919 24.9623 16.919H24.1323V15.58ZM24.1323 12.991C24.1323 12.158 22.9606 12.158 22.9606 12.991V17.336C22.9606 17.693 23.2575 17.931 23.6132 17.931H25.0809C27.4832 17.931 27.4832 14.508 24.9623 14.508H24.1323V12.99V12.991ZM27.3058 17.455C27.3058 18.154 28.4776 18.154 28.4776 17.455V15.461L30.4644 17.634C31.2794 18.512 32.1104 17.694 31.3392 16.86L29.5308 14.985L30.9984 13.571C31.933 12.633 30.8799 11.994 30.3458 12.574L28.4776 14.628V12.932C28.4776 12.158 27.3058 12.158 27.3058 12.932V17.456V17.455ZM32.0506 17.396C32.0506 18.155 33.1626 18.214 33.1626 17.396V12.991C33.1626 12.158 32.0506 12.158 32.0506 12.991V17.396ZM9.95769 25.982C9.95769 25.446 9.61692 25.327 9.20143 25.327V21.398C9.20143 20.565 8.02968 20.565 8.02968 21.398V25.327H5.62738V21.398C5.62738 20.565 4.45563 20.565 4.45563 21.398V25.803C4.45563 26.16 4.69277 26.383 5.04848 26.383H8.78494V27.038C8.78494 27.856 9.95669 27.856 9.95669 27.038V25.981L9.95769 25.982ZM10.2546 25.804C10.2546 26.622 11.4264 26.622 11.4264 25.804V21.399C11.4264 20.566 10.2546 20.566 10.2546 21.399V25.804ZM12.1378 25.804C12.1378 26.622 13.3095 26.622 13.3095 25.804V24.093H15.7706V25.804C15.7706 26.622 16.8826 26.622 16.8826 25.804V21.399C16.8826 20.566 15.7706 20.566 15.7706 21.399V23.036H13.3095V21.399C13.3095 20.566 12.1378 20.566 12.1378 21.399V25.804ZM22.3239 25.804V21.399C22.3239 20.744 21.6274 20.625 21.2707 21.042L18.7498 24.39V21.399C18.7498 20.566 17.5781 20.566 17.5781 21.399V25.804C17.5781 26.444 18.2745 26.622 18.69 26.161L21.1511 22.917L21.2109 25.804C21.2109 26.682 22.3229 26.622 22.3229 25.804H22.3239ZM25.0819 25.744C25.0819 26.562 26.3124 26.562 26.3124 25.744V22.798L28.8333 26.102C29.174 26.563 29.9452 26.385 29.9452 25.745V21.221C29.9452 20.388 28.7147 20.388 28.7147 21.221V24.212L26.1938 20.864C25.8969 20.447 25.0819 20.566 25.0819 21.221V25.745V25.744ZM31.6351 24.628C30.8789 24.628 30.8789 23.274 31.6351 23.274C32.4063 23.274 32.4063 24.628 31.6351 24.628ZM30.3448 23.988C30.3448 25.684 32.9842 25.684 32.9842 23.988C32.9842 22.217 30.3448 22.217 30.3448 23.988ZM30.6417 25.685C30.2262 25.685 30.2262 26.34 30.6417 26.34H32.6285C33.1028 26.34 33.1028 25.685 32.6285 25.685H30.6417ZM34.5715 25.744C34.5715 26.562 35.802 26.562 35.802 25.744V21.22C35.802 20.922 35.5649 20.625 35.268 20.625H34.156C33.3997 20.625 33.3997 21.741 34.156 21.741H34.5715V25.744Z" fill="#FF7519"/>
</svg>
