<svg width="24" height="24" viewBox="0 0 24 24" fill="none" xmlns="http://www.w3.org/2000/svg">
<path d="M12.0002 24C11.7602 24 11.5202 23.88 11.4002 23.76C11.2802 23.64 9.24023 21.36 7.20023 18.36C6.00023 16.68 5.16023 15 4.44023 13.56C3.60023 11.76 3.24023 10.08 3.24023 8.76C3.36023 3.84 7.20023 0 12.0002 0C16.8002 0 20.6402 3.84 20.6402 8.64C20.6402 9.96 20.2802 11.64 19.4402 13.44C18.8402 14.88 17.8802 16.56 16.6802 18.24C14.6402 21.24 12.6002 23.52 12.4802 23.64C12.4802 23.88 12.2402 24 12.0002 24ZM12.0002 1.2C7.92023 1.2 4.56023 4.56 4.56023 8.64C4.56023 9.84 4.92023 11.28 5.64023 12.96C6.24023 14.4 7.20023 15.96 8.28023 17.64C9.84023 19.92 11.4002 21.84 12.0002 22.56C12.6002 21.84 14.2802 19.92 15.7202 17.64C16.8002 15.96 17.7602 14.4 18.3602 12.96C19.0802 11.28 19.4402 9.84 19.4402 8.64C19.4402 4.56 16.0802 1.2 12.0002 1.2ZM12.0002 14.28C8.88023 14.28 6.48023 11.76 6.48023 8.76C6.48023 5.76 8.88023 3.12 12.0002 3.12C15.1202 3.12 17.5202 5.64 17.5202 8.64C17.5202 11.64 15.1202 14.28 12.0002 14.28ZM12.0002 4.32C9.60023 4.32 7.68023 6.24 7.68023 8.64C7.68023 11.04 9.60023 13.08 12.0002 13.08C14.4002 13.08 16.3202 11.16 16.3202 8.76C16.3202 6.36 14.4002 4.32 12.0002 4.32Z" fill="white"/>
</svg>
