<svg width="20" height="20" viewBox="0 0 20 20" fill="none" xmlns="http://www.w3.org/2000/svg">
<path d="M16.9583 3.79088C17.1524 3.98727 17.1505 4.30385 16.9541 4.49797L14.0586 7.35994C13.8622 7.55406 13.5456 7.55221 13.3515 7.35582C13.1574 7.15942 13.1592 6.84284 13.3556 6.64872L16.2512 3.78675C16.4476 3.59263 16.7641 3.59448 16.9583 3.79088Z" fill="black"/>
<path d="M3.5 11C3.5 10.7239 3.27614 10.5 3 10.5C2.72386 10.5 2.5 10.7239 2.5 11C2.5 14.6594 5.93295 17.5 10 17.5C10.2761 17.5 10.5 17.2761 10.5 17C10.5 16.7239 10.2761 16.5 10 16.5C6.33506 16.5 3.5 13.968 3.5 11Z" fill="black"/>
<path fill-rule="evenodd" clip-rule="evenodd" d="M18.8251 4.23942L14.6993 9H18.7059C19.4206 9 20 9.5794 20 10.2941C20 15.6545 15.6545 20 10.2941 20H9.70588C4.34547 20 0 15.6545 0 10.2941C0 9.5794 0.579396 9 1.29412 9H7.03821L15.9029 1.31705C16.2994 0.973304 16.894 0.994789 17.265 1.36588L18.7766 2.87711C19.1476 3.24821 19.1688 3.84293 18.8251 4.23942ZM16.5579 2.07291L18.0695 3.58414L13.3759 9H8.56476L16.5579 2.07291ZM1 10.2941C1 10.1317 1.13168 10 1.29412 10H18.7059C18.8683 10 19 10.1317 19 10.2941C19 15.1022 15.1022 19 10.2941 19H9.70588C4.89776 19 1 15.1022 1 10.2941Z" fill="black"/>
</svg>
