<svg width="20" height="20" viewBox="0 0 20 20" fill="none" xmlns="http://www.w3.org/2000/svg">
<path fill-rule="evenodd" clip-rule="evenodd" d="M6.27545 5.00039C6.27545 2.94313 7.94319 1.27539 10.0005 1.27539C12.0577 1.27539 13.7255 2.94313 13.7255 5.00039V10.0004C13.7255 12.0577 12.0577 13.7254 10.0005 13.7254C7.94319 13.7254 6.27545 12.0577 6.27545 10.0004V5.00039ZM10.0005 2.47539C8.60593 2.47539 7.47545 3.60587 7.47545 5.00039V10.0004C7.47545 11.3949 8.60593 12.5254 10.0005 12.5254C11.395 12.5254 12.5255 11.3949 12.5255 10.0004V5.00039C12.5255 3.60587 11.395 2.47539 10.0005 2.47539Z" fill="#97A0A7"/>
<path d="M10.6005 16.1671C11.9091 16.0406 13.1501 15.5025 14.1405 14.6224C15.2814 13.6086 16.0106 12.2116 16.19 10.696C16.229 10.3669 15.9938 10.0686 15.6647 10.0296C15.3357 9.99065 15.0373 10.2258 14.9984 10.5549C14.8535 11.7787 14.2646 12.9068 13.3435 13.7253C12.4223 14.5439 11.2328 14.996 10.0004 14.996C8.76812 14.996 7.57863 14.5439 6.65744 13.7253C5.73626 12.9068 5.14742 11.7787 5.00254 10.5549C4.96358 10.2258 4.66523 9.99065 4.33616 10.0296C4.00709 10.0686 3.7719 10.3669 3.81086 10.696C3.99028 12.2116 4.71953 13.6086 5.86035 14.6224C6.85083 15.5025 8.09178 16.0406 9.40045 16.1671V18.1254C9.40045 18.4568 9.66908 18.7254 10.0005 18.7254C10.3318 18.7254 10.6005 18.4568 10.6005 18.1254V16.1671Z" fill="#97A0A7"/>
</svg>
