<svg width="15" height="15" viewBox="0 0 15 15" fill="none" xmlns="http://www.w3.org/2000/svg">
<path d="M7.50615 10.9228C8.17547 10.9228 8.73124 11.4676 8.73124 12.1237C8.73124 12.7921 8.17547 13.3368 7.50615 13.3368C6.82424 13.3368 6.26847 12.7921 6.26847 12.1237C6.26847 11.4676 6.82424 10.9228 7.50615 10.9228ZM1.84866 12.074L4.29855 9.68499L3.56601 8.95462C3.66698 8.8307 3.78083 8.70706 3.89438 8.59575C4.67726 7.82838 5.71299 7.30829 6.86199 7.17231L9.36251 4.72131C8.76899 4.57272 8.13742 4.49842 7.50615 4.49842C5.34658 4.49842 3.40183 5.35242 2.00026 6.73886C1.87383 6.85016 1.76028 6.96175 1.65931 7.08539L0.75 6.20643C0.863554 6.0825 0.9774 5.95886 1.09095 5.84756C2.73251 4.23852 4.99304 3.24796 7.50615 3.24796C8.51642 3.24796 9.48894 3.40889 10.398 3.70609L12.2795 1.86182L13.1762 2.75311L2.75767 12.9653L1.84837 12.074H1.84866ZM11.8504 5.79822C12.2672 6.07045 12.6459 6.37998 12.9997 6.73886C13.1262 6.85016 13.2397 6.96175 13.3407 7.08539L14.25 6.20643C14.1364 6.0825 14.0226 5.95886 13.909 5.84756C13.5555 5.50102 13.1765 5.17916 12.7598 4.8943L11.8504 5.79793V5.79822ZM8.93318 8.65743C9.41314 8.84303 9.84248 9.12789 10.2086 9.47443C10.3222 9.59835 10.436 9.72199 10.537 9.84592L11.4463 8.95462C11.3327 8.8307 11.2189 8.70706 11.1053 8.59575C10.7518 8.24922 10.335 7.95202 9.89311 7.71679L8.93347 8.65743H8.93318Z" fill="#EB6161"/>
</svg>
