<svg width="24" height="24" viewBox="0 0 24 24" fill="none" xmlns="http://www.w3.org/2000/svg">
<circle cx="12" cy="12" r="12" fill="#C4C4C4"/>
<g clip-path="url(#clip0_2997_11910)">
<path d="M11.2996 17.9501C11.2996 18.3367 11.613 18.6501 11.9996 18.6501C12.3862 18.6501 12.6996 18.3367 12.6996 17.9501V12.7001H17.9496C18.3362 12.7001 18.6496 12.3867 18.6496 12.0001C18.6496 11.6135 18.3362 11.3001 17.9496 11.3001H12.6996V6.0501C12.6996 5.6635 12.3862 5.3501 11.9996 5.3501C11.613 5.3501 11.2996 5.6635 11.2996 6.0501V11.3001H6.04961C5.66301 11.3001 5.34961 11.6135 5.34961 12.0001C5.34961 12.3867 5.66301 12.7001 6.04961 12.7001H11.2996V17.9501Z" fill="white"/>
</g>
<defs>
<clipPath id="clip0_2997_11910">
<rect width="14" height="14" fill="white" transform="translate(5 5)"/>
</clipPath>
</defs>
</svg>
