<svg width="26" height="26" viewBox="0 0 26 26" fill="none" xmlns="http://www.w3.org/2000/svg">
<g clip-path="url(#clip0_2831_27620)">
<path d="M6.95424 17.7737C6.60277 18.1251 6.60277 18.695 6.95424 19.0465C7.30571 19.3979 7.87556 19.3979 8.22703 19.0465L13 14.2735L17.773 19.0465C18.1244 19.3979 18.6943 19.3979 19.0458 19.0465C19.3972 18.695 19.3972 18.1251 19.0458 17.7737L14.2728 13.0007L19.0458 8.22773C19.3972 7.87626 19.3972 7.30641 19.0458 6.95494C18.6943 6.60347 18.1244 6.60347 17.773 6.95494L13 11.7279L8.22703 6.95494C7.87556 6.60347 7.30571 6.60347 6.95424 6.95494C6.60277 7.30641 6.60277 7.87626 6.95424 8.22773L11.7272 13.0007L6.95424 17.7737Z" fill="#393939"/>
</g>
<defs>
<clipPath id="clip0_2831_27620">
<rect width="18" height="18" fill="white" transform="translate(13 0.272461) rotate(45)"/>
</clipPath>
</defs>
</svg>
