<svg width="24" height="24" viewBox="0 0 24 24" fill="none" xmlns="http://www.w3.org/2000/svg">
<path d="M8.00007 13.0534H7.20007V13.8498H8.00007V13.0534Z" fill="#50A7EA"/>
<path d="M8.00007 14.6462H7.20007V15.4425H8.00007V14.6462Z" fill="#50A7EA"/>
<path d="M8.00007 16.2389H7.20007V17.0353H8.00007V16.2389Z" fill="#50A7EA"/>
<path d="M8.00007 11.4606H7.20007V12.257H8.00007V11.4606Z" fill="#50A7EA"/>
<path d="M8.00007 9.86786H7.20007V10.6642H8.00007V9.86786Z" fill="#50A7EA"/>
<path d="M8.00007 8.27512H7.20007V9.0715H8.00007V8.27512Z" fill="#50A7EA"/>
<path d="M8.00007 6.68235H7.20007V7.47873H8.00007V6.68235Z" fill="#50A7EA"/>
<path d="M2.39998 6.68235H1.59998V7.47873H2.39998V6.68235Z" fill="#50A7EA"/>
<path d="M22.4 6.68235H21.6V7.47873H22.4V6.68235Z" fill="#50A7EA"/>
<path d="M22.4 16.2389H21.6V17.0353H22.4V16.2389Z" fill="#50A7EA"/>
<path d="M2.39998 16.2389H1.59998V17.0353H2.39998V16.2389Z" fill="#50A7EA"/>
<path d="M23.6 9.86788C23.8209 9.86788 24 9.68959 24 9.46969V5.48779C24 5.26789 23.8209 5.0896 23.6 5.0896H0.4C0.1791 5.0896 0 5.26789 0 5.48779V9.46969C0 9.68959 0.1791 9.86788 0.4 9.86788C1.50455 9.86788 2.4 10.7593 2.4 11.8588C2.4 12.9584 1.50455 13.8498 0.4 13.8498C0.1791 13.8498 0 14.0281 0 14.248V18.2299C0 18.4498 0.1791 18.6281 0.4 18.6281H23.6C23.8209 18.6281 24 18.4498 24 18.2299V14.248C24 14.0281 23.8209 13.8498 23.6 13.8498C22.4955 13.8498 21.6 12.9584 21.6 11.8588C21.6 10.7593 22.4955 9.86788 23.6 9.86788ZM20.8262 12.2548C21.0028 13.4798 21.9695 14.4421 23.2 14.6179V17.8317H0.8V14.6179C2.3307 14.3992 3.3935 12.9867 3.1738 11.4628C2.9972 10.238 2.0305 9.27557 0.8 9.09977V5.88598H23.2V9.09977C21.6693 9.31848 20.6065 10.731 20.8262 12.2548Z" fill="#50A7EA"/>
<path d="M12 7.87694C11.1164 7.87694 10.4 8.59005 10.4 9.4697C10.4 10.3493 11.1164 11.0625 12 11.0625C12.8837 11.0625 13.6 10.3493 13.6 9.4697C13.6 8.59005 12.8837 7.87694 12 7.87694ZM12 10.2661C11.5582 10.2661 11.2 9.90955 11.2 9.4697C11.2 9.02985 11.5582 8.67332 12 8.67332C12.4419 8.67332 12.8 9.02985 12.8 9.4697C12.8 9.90955 12.4419 10.2661 12 10.2661Z" fill="#50A7EA"/>
<path d="M16.8 12.6552C15.9163 12.6552 15.2 13.3683 15.2 14.248C15.2 15.1276 15.9163 15.8407 16.8 15.8407C17.6836 15.8407 18.4 15.1276 18.4 14.248C18.4 13.3683 17.6836 12.6552 16.8 12.6552ZM16.8 15.0443C16.3581 15.0443 16 14.6878 16 14.248C16 13.8081 16.3581 13.4516 16.8 13.4516C17.2418 13.4516 17.6 13.8081 17.6 14.248C17.6 14.6878 17.2418 15.0443 16.8 15.0443Z" fill="#50A7EA"/>
<path d="M17.3169 8.39095L10.917 14.7619L11.4827 15.325L17.8825 8.95407L17.3169 8.39095Z" fill="#50A7EA"/>
</svg>
