<svg width="16" height="16" viewBox="0 0 16 16" fill="none" xmlns="http://www.w3.org/2000/svg">
<path fill-rule="evenodd" clip-rule="evenodd" d="M13.0558 11.9244C15.0098 9.41365 14.8329 5.78191 12.5251 3.47413C10.0257 0.974771 5.97348 0.974771 3.47413 3.47413C0.974771 5.97348 0.974771 10.0257 3.47413 12.5251C5.78191 14.8329 9.41365 15.0098 11.9244 13.0558L13.8068 14.9382C14.1358 15.2672 14.6558 15.2807 14.9683 14.9683C15.2807 14.6558 15.2672 14.1358 14.9382 13.8068L13.0558 11.9244ZM11.3937 4.6055C13.2682 6.48001 13.2682 9.51921 11.3937 11.3937C9.51921 13.2682 6.48001 13.2682 4.6055 11.3937C2.73098 9.51921 2.73098 6.48001 4.6055 4.6055C6.48001 2.73098 9.51921 2.73098 11.3937 4.6055Z" fill="#97A0A7"/>
</svg>
