<svg width="20" height="20" viewBox="0 0 20 20" fill="none" xmlns="http://www.w3.org/2000/svg">
<path d="M18.4401 17.3867L15.1067 14.0534C16.3423 12.5117 16.9438 10.5571 16.789 8.58753C16.6341 6.61793 15.7344 4.78138 14.2731 3.45176C12.8118 2.12213 10.8987 1.39939 8.92328 1.43066C6.94784 1.46193 5.05858 2.24486 3.64008 3.62007C2.22303 5.04014 1.41043 6.95344 1.37248 8.95923C1.33454 10.965 2.07421 12.9077 3.43655 14.3803C4.79889 15.853 6.67821 16.7413 8.68089 16.8593C10.6836 16.9773 12.6542 16.3159 14.1801 15.0134L15.7401 16.5734L17.5001 18.3267C17.5598 18.3965 17.6334 18.4532 17.7161 18.4932C17.7988 18.5332 17.8889 18.5557 17.9807 18.5593C18.0725 18.5628 18.1641 18.5473 18.2496 18.5138C18.3352 18.4803 18.4129 18.4295 18.4778 18.3645C18.5428 18.2995 18.5937 18.2218 18.6272 18.1363C18.6607 18.0507 18.6762 17.9592 18.6726 17.8674C18.6691 17.7756 18.6466 17.6855 18.6066 17.6028C18.5666 17.5201 18.5099 17.4465 18.4401 17.3867ZM13.6868 13.6667C12.6338 14.7235 11.2468 15.3824 9.76243 15.531C8.27802 15.6797 6.788 15.3089 5.54637 14.4819C4.30474 13.6549 3.38836 12.4229 2.95345 10.9958C2.51854 9.56881 2.59201 8.03511 3.16135 6.65619C3.73068 5.27726 4.76064 4.13848 6.07564 3.43395C7.39064 2.72943 8.90928 2.50279 10.3727 2.79265C11.8361 3.08252 13.1537 3.87095 14.1008 5.02355C15.048 6.17615 15.566 7.62157 15.5667 9.11341C15.569 9.95883 15.404 10.7963 15.0814 11.5778C14.7587 12.3592 14.2848 13.0691 13.6868 13.6667Z" fill="#97A0A7"/>
</svg>
