<svg width="24" height="24" viewBox="0 0 24 24" fill="none" xmlns="http://www.w3.org/2000/svg">
<path fill-rule="evenodd" clip-rule="evenodd" d="M7.2337 7.125H3.75C3.33579 7.125 3 7.46079 3 7.875C3 8.28921 3.33579 8.625 3.75 8.625H7.2337C7.55641 9.70931 8.56087 10.5 9.75 10.5C10.9391 10.5 11.9436 9.70931 12.2663 8.625H20.25C20.6642 8.625 21 8.28921 21 7.875C21 7.46079 20.6642 7.125 20.25 7.125H12.2663C11.9436 6.04069 10.9391 5.25 9.75 5.25C8.56087 5.25 7.55641 6.04069 7.2337 7.125ZM8.625 7.875C8.625 7.25368 9.12868 6.75 9.75 6.75C10.3713 6.75 10.875 7.25368 10.875 7.875C10.875 8.49632 10.3713 9 9.75 9C9.12868 9 8.625 8.49632 8.625 7.875Z" fill="white"/>
<path fill-rule="evenodd" clip-rule="evenodd" d="M3.75 15.375H13.2337C13.5564 14.2907 14.5609 13.5 15.75 13.5C16.9391 13.5 17.9436 14.2907 18.2663 15.375H20.25C20.6642 15.375 21 15.7108 21 16.125C21 16.5392 20.6642 16.875 20.25 16.875H18.2663C17.9436 17.9593 16.9391 18.75 15.75 18.75C14.5609 18.75 13.5564 17.9593 13.2337 16.875H3.75C3.33579 16.875 3 16.5392 3 16.125C3 15.7108 3.33579 15.375 3.75 15.375ZM15.75 15C15.1287 15 14.625 15.5037 14.625 16.125C14.625 16.7463 15.1287 17.25 15.75 17.25C16.3713 17.25 16.875 16.7463 16.875 16.125C16.875 15.5037 16.3713 15 15.75 15Z" fill="white"/>
</svg>
