<svg width="25" height="24" viewBox="0 0 25 24" fill="none" xmlns="http://www.w3.org/2000/svg">
<path fill-rule="evenodd" clip-rule="evenodd" d="M4.40039 5.9999C4.40039 5.66853 4.66902 5.3999 5.00039 5.3999H17.7503C18.0817 5.3999 18.3503 5.66853 18.3503 5.9999C18.3503 6.33127 18.0817 6.5999 17.7503 6.5999H5.00039C4.66902 6.5999 4.40039 6.33127 4.40039 5.9999ZM17.7504 9.8999C18.0818 9.8999 18.3504 10.1685 18.3504 10.4999V18.0515L21.0761 15.3262C21.3104 15.0919 21.6903 15.0919 21.9246 15.3262C22.1589 15.5606 22.1589 15.9405 21.9245 16.1748L18.1746 19.9242C17.9403 20.1585 17.5604 20.1585 17.3261 19.9242L13.5761 16.1742C13.3418 15.9399 13.3418 15.56 13.5761 15.3256C13.8104 15.0913 14.1903 15.0913 14.4247 15.3256L17.1504 18.0514V10.4999C17.1504 10.1685 17.419 9.8999 17.7504 9.8999ZM5.00039 11.3999C4.66902 11.3999 4.40039 11.6685 4.40039 11.9999C4.40039 12.3313 4.66902 12.5999 5.00039 12.5999H11.7503C12.0817 12.5999 12.3503 12.3313 12.3503 11.9999C12.3503 11.6685 12.0817 11.3999 11.7503 11.3999H5.00039ZM5.00039 17.3999C4.66902 17.3999 4.40039 17.6685 4.40039 17.9999C4.40039 18.3313 4.66902 18.5999 5.00039 18.5999H10.2504C10.5818 18.5999 10.8504 18.3313 10.8504 17.9999C10.8504 17.6685 10.5818 17.3999 10.2504 17.3999H5.00039Z" fill="#555555"/>
</svg>
