<svg width="9" height="9" viewBox="0 0 9 9" fill="none" xmlns="http://www.w3.org/2000/svg">
<g clip-path="url(#clip0_3052_16952)">
<path d="M8.98471 3.2779C8.94394 3.11246 8.82163 3.02974 8.65855 2.98837L6.04926 2.61612L4.86693 0.217148C4.74462 -0.0723828 4.25538 -0.0723828 4.13307 0.217148L2.95074 2.57476L0.38222 2.98837C0.219139 2.98837 0.096829 3.11246 0.0152888 3.2779C-0.0254813 3.44335 0.0152888 3.6088 0.137599 3.69152L2.01302 5.55279L1.56455 8.19993C1.52378 8.36538 1.60532 8.53082 1.72763 8.61355C1.84994 8.69627 2.01302 8.73763 2.1761 8.65491L4.5 7.41406L6.8239 8.65491C6.90544 8.65491 6.94621 8.65491 7.02775 8.65491C7.10929 8.65491 7.19083 8.61355 7.27237 8.57219C7.39468 8.48946 7.47622 8.32402 7.43545 8.15857L6.98698 5.51143L8.8624 3.65016C8.98471 3.56744 9.02548 3.40199 8.98471 3.2779Z" fill="#C4C4C4"/>
</g>
<defs>
<clipPath id="clip0_3052_16952">
<rect width="9" height="9" fill="white"/>
</clipPath>
</defs>
</svg>
