<svg width="24" height="24" viewBox="0 0 24 24" fill="none" xmlns="http://www.w3.org/2000/svg">
<path fill-rule="evenodd" clip-rule="evenodd" d="M3.98432 1.59961H20.0242C20.3837 1.60257 20.7326 1.72092 21.0197 1.93717C21.3068 2.15342 21.5169 2.45617 21.6189 2.80081L21.6213 2.80876L23.1704 8.24711C23.1727 8.25535 23.1749 8.26362 23.177 8.27191C23.194 8.33987 23.2019 8.40905 23.2009 8.47774V10.2001C23.2009 11.3317 22.7514 12.417 21.9512 13.2171C21.7997 13.3686 21.638 13.5075 21.4677 13.6332V20.6002C21.4677 21.0423 21.2921 21.4662 20.9796 21.7787C20.667 22.0913 20.2431 22.2669 19.801 22.2669H4.20104C3.75902 22.2669 3.33509 22.0913 3.02253 21.7787C2.70997 21.4662 2.53437 21.0423 2.53437 20.6002V13.6332C2.36406 13.5075 2.20235 13.3686 2.05085 13.2171C1.25069 12.417 0.801172 11.3317 0.801172 10.2001V8.49158C0.798644 8.41104 0.808339 8.32875 0.831594 8.24711L2.38303 2.8008C2.48508 2.45616 2.69517 2.15342 2.98226 1.93717C3.26936 1.72092 3.61832 1.6026 3.97773 1.59964L3.98432 1.59961ZM20.3693 12.4477C20.2981 12.4764 20.2319 12.515 20.1725 12.5619C19.7939 12.7603 19.3696 12.8668 18.9342 12.8668C18.227 12.8668 17.5487 12.5858 17.0486 12.0857C16.5534 11.5905 16.2731 10.9206 16.2677 10.2208C16.2677 10.2139 16.2677 10.207 16.2677 10.2001V9.26628H21.6009V10.2001C21.6009 10.9074 21.32 11.5857 20.8199 12.0857C20.6821 12.2235 20.5309 12.3446 20.3693 12.4477ZM15.4676 12.6876C15.602 12.8748 15.7522 13.052 15.9173 13.2171C16.7174 14.0173 17.8027 14.4668 18.9342 14.4668C19.2508 14.4668 19.5637 14.4316 19.8677 14.3634V20.6002C19.8677 20.6179 19.8607 20.6349 19.8482 20.6474C19.8357 20.6599 19.8187 20.6669 19.801 20.6669H4.20104C4.18336 20.6669 4.1664 20.6599 4.1539 20.6474C4.1414 20.6349 4.13437 20.6179 4.13437 20.6002V14.3634C4.43842 14.4316 4.75132 14.4668 5.06784 14.4668C6.19943 14.4668 7.28467 14.0173 8.08483 13.2171C8.24991 13.052 8.40007 12.8748 8.53444 12.6876C8.66881 12.8748 8.81897 13.052 8.98405 13.2171C9.78421 14.0173 10.8694 14.4668 12.001 14.4668C13.1326 14.4668 14.2179 14.0173 15.018 13.2171C15.1831 13.052 15.3333 12.8748 15.4676 12.6876ZM14.6676 9.26628V10.2001C14.6676 10.207 14.6676 10.2139 14.6676 10.2208C14.6622 10.9206 14.3819 11.5905 13.8867 12.0857C13.3866 12.5858 12.7083 12.8668 12.001 12.8668C11.2938 12.8668 10.6155 12.5858 10.1154 12.0857C9.62019 11.5905 9.33987 10.9206 9.33445 10.2208L9.3345 10.2001V9.26628H14.6676ZM2.40117 9.26628H7.73437V10.2001L7.73442 10.2208C7.72901 10.9206 7.44869 11.5905 6.95346 12.0857C6.45336 12.5858 5.77508 12.8668 5.06784 12.8668C4.6325 12.8668 4.20813 12.7603 3.82954 12.5619C3.77018 12.515 3.70401 12.4764 3.63277 12.4477C3.47115 12.3446 3.31993 12.2235 3.18222 12.0857C2.68212 11.5857 2.40117 10.9074 2.40117 10.2001V9.26628ZM2.6607 7.66628H21.3413L20.0842 3.25326C20.0793 3.23809 20.0698 3.22478 20.0571 3.21518C20.0442 3.20549 20.0286 3.20005 20.0126 3.19961H3.9894C3.97333 3.20005 3.95778 3.20549 3.94491 3.21518C3.93216 3.22479 3.92269 3.23809 3.91779 3.25326L2.6607 7.66628Z" fill="white"/>
</svg>
