<svg width="16" height="16" viewBox="0 0 16 16" fill="none" xmlns="http://www.w3.org/2000/svg">
<g clip-path="url(#clip0_4801_71289)">
<path fill-rule="evenodd" clip-rule="evenodd" d="M8 12.8C10.651 12.8 12.8 10.651 12.8 8C12.8 5.34903 10.651 3.2 8 3.2C5.34903 3.2 3.2 5.34903 3.2 8C3.2 10.651 5.34903 12.8 8 12.8ZM8 13.6C11.0928 13.6 13.6 11.0928 13.6 8C13.6 4.90721 11.0928 2.4 8 2.4C4.90721 2.4 2.4 4.90721 2.4 8C2.4 11.0928 4.90721 13.6 8 13.6Z" fill="#97A0A7"/>
<path fill-rule="evenodd" clip-rule="evenodd" d="M8 10.4C9.32548 10.4 10.4 9.32548 10.4 8C10.4 6.67452 9.32548 5.6 8 5.6C6.67452 5.6 5.6 6.67452 5.6 8C5.6 9.32548 6.67452 10.4 8 10.4ZM8 11.2C9.76731 11.2 11.2 9.76731 11.2 8C11.2 6.23269 9.76731 4.8 8 4.8C6.23269 4.8 4.8 6.23269 4.8 8C4.8 9.76731 6.23269 11.2 8 11.2Z" fill="#97A0A7"/>
<path fill-rule="evenodd" clip-rule="evenodd" d="M8 3.2C7.77909 3.2 7.6 3.02091 7.6 2.8V0.4C7.6 0.179086 7.77909 9.65642e-09 8 0C8.22091 -9.65642e-09 8.4 0.179086 8.4 0.4V2.8C8.4 3.02091 8.22091 3.2 8 3.2Z" fill="#97A0A7"/>
<path fill-rule="evenodd" clip-rule="evenodd" d="M8 16C7.77909 16 7.6 15.8209 7.6 15.6V13.2C7.6 12.9791 7.77909 12.8 8 12.8C8.22091 12.8 8.4 12.9791 8.4 13.2V15.6C8.4 15.8209 8.22091 16 8 16Z" fill="#97A0A7"/>
<path fill-rule="evenodd" clip-rule="evenodd" d="M12.8 8C12.8 7.77909 12.9791 7.6 13.2 7.6H15.6C15.8209 7.6 16 7.77909 16 8C16 8.22091 15.8209 8.4 15.6 8.4H13.2C12.9791 8.4 12.8 8.22091 12.8 8Z" fill="#97A0A7"/>
<path fill-rule="evenodd" clip-rule="evenodd" d="M0 8C0 7.77909 0.179086 7.6 0.4 7.6H2.8C3.02091 7.6 3.2 7.77909 3.2 8C3.2 8.22091 3.02091 8.4 2.8 8.4H0.4C0.179086 8.4 0 8.22091 0 8Z" fill="#97A0A7"/>
</g>
<defs>
<clipPath id="clip0_4801_71289">
<rect width="16" height="16" fill="white"/>
</clipPath>
</defs>
</svg>
