<svg width="18" height="18" viewBox="0 0 18 18" fill="none" xmlns="http://www.w3.org/2000/svg">
<path fill-rule="evenodd" clip-rule="evenodd" d="M14.3992 17.1004V6.30039H3.59922V17.1004L14.3992 17.1004ZM15.2992 6.30039V17.1004C15.2992 17.5974 14.8963 18.0004 14.3992 18.0004H3.59922C3.10216 18.0004 2.69922 17.5974 2.69922 17.1004V6.30039C2.69922 5.80333 3.10216 5.40039 3.59922 5.40039H14.3992C14.8963 5.40039 15.2992 5.80333 15.2992 6.30039Z" fill="#97A0A7"/>
<path fill-rule="evenodd" clip-rule="evenodd" d="M16.1984 5.4002V3.6002H1.79844V5.4002H16.1984ZM17.0984 3.6002V5.4002C17.0984 5.89725 16.6955 6.3002 16.1984 6.3002H1.79844C1.30138 6.3002 0.898438 5.89725 0.898438 5.4002V3.6002C0.898438 3.10314 1.30138 2.7002 1.79844 2.7002H16.1984C16.6955 2.7002 17.0984 3.10314 17.0984 3.6002Z" fill="#97A0A7"/>
<path fill-rule="evenodd" clip-rule="evenodd" d="M11.6984 2.7V0.9H6.29844V2.7H11.6984ZM12.5984 0.9V2.7C12.5984 3.19706 12.1955 3.6 11.6984 3.6H6.29844C5.80138 3.6 5.39844 3.19706 5.39844 2.7V0.9C5.39844 0.402944 5.80138 0 6.29844 0H11.6984C12.1955 0 12.5984 0.402944 12.5984 0.9Z" fill="#97A0A7"/>
<path fill-rule="evenodd" clip-rule="evenodd" d="M11.2469 8.5498C11.4954 8.5498 11.6969 8.75128 11.6969 8.9998V14.8498C11.6969 15.0983 11.4954 15.2998 11.2469 15.2998C10.9983 15.2998 10.7969 15.0983 10.7969 14.8498V8.9998C10.7969 8.75128 10.9983 8.5498 11.2469 8.5498Z" fill="#97A0A7"/>
<path fill-rule="evenodd" clip-rule="evenodd" d="M6.74687 8.5498C6.9954 8.5498 7.19687 8.75128 7.19687 8.9998V14.8498C7.19687 15.0983 6.9954 15.2998 6.74687 15.2998C6.49835 15.2998 6.29688 15.0983 6.29688 14.8498V8.9998C6.29688 8.75128 6.49835 8.5498 6.74687 8.5498Z" fill="#97A0A7"/>
</svg>
