<svg width="24" height="24" viewBox="0 0 24 24" fill="none" xmlns="http://www.w3.org/2000/svg">
<path fill-rule="evenodd" clip-rule="evenodd" d="M10.1001 4C9.38178 4 8.79945 4.58233 8.79945 5.30068V8.79965H5.30068C4.58233 8.79965 4 9.38198 4 10.1003V13.899C4 14.6173 4.58233 15.1996 5.30068 15.1996H8.79945V18.6993C8.79945 19.4177 9.38178 20 10.1001 20H13.8988C14.6171 20 15.1994 19.4177 15.1994 18.6993V15.1996H18.6993C19.4177 15.1996 20 14.6173 20 13.899V10.1003C20 9.38198 19.4177 8.79965 18.6993 8.79965H15.1994V5.30068C15.1994 4.58233 14.6171 4 13.8988 4H10.1001ZM5.44 10.2396H10.2394V5.44H13.7594V10.2396H18.56V13.7596H13.7594V18.56H10.2394V13.7596H5.44V10.2396Z" fill="white"/>
<path fill-rule="evenodd" clip-rule="evenodd" d="M0 12C0 5.37258 5.37258 0 12 0C18.6274 0 24 5.37258 24 12C24 18.6274 18.6274 24 12 24C5.37258 24 0 18.6274 0 12ZM12 22.56C6.16787 22.56 1.44 17.8321 1.44 12C1.44 6.16787 6.16787 1.44 12 1.44C17.8321 1.44 22.56 6.16787 22.56 12C22.56 17.8321 17.8321 22.56 12 22.56Z" fill="white"/>
</svg>
