<svg width="24" height="24" viewBox="0 0 24 24" fill="none" xmlns="http://www.w3.org/2000/svg">
<path fill-rule="evenodd" clip-rule="evenodd" d="M2.40039 4.7999C2.40039 3.47442 3.47491 2.3999 4.80039 2.3999H8.40039C9.72587 2.3999 10.8004 3.47442 10.8004 4.7999V8.3999C10.8004 9.72539 9.72587 10.7999 8.40039 10.7999H4.80039C3.47491 10.7999 2.40039 9.72539 2.40039 8.3999V4.7999ZM4.80039 3.5999H8.40039C9.06313 3.5999 9.60039 4.13716 9.60039 4.7999V8.3999C9.60039 9.06264 9.06313 9.5999 8.40039 9.5999H4.80039C4.13765 9.5999 3.60039 9.06264 3.60039 8.3999V4.7999C3.60039 4.13716 4.13765 3.5999 4.80039 3.5999Z" fill="#97A0A7"/>
<path fill-rule="evenodd" clip-rule="evenodd" d="M2.40039 15.5999C2.40039 14.2744 3.47491 13.1999 4.80039 13.1999H8.40039C9.72587 13.1999 10.8004 14.2744 10.8004 15.5999V19.1999C10.8004 20.5254 9.72587 21.5999 8.40039 21.5999H4.80039C3.47491 21.5999 2.40039 20.5254 2.40039 19.1999V15.5999ZM4.80039 14.3999H8.40039C9.06313 14.3999 9.60039 14.9372 9.60039 15.5999V19.1999C9.60039 19.8626 9.06313 20.3999 8.40039 20.3999H4.80039C4.13765 20.3999 3.60039 19.8626 3.60039 19.1999V15.5999C3.60039 14.9372 4.13765 14.3999 4.80039 14.3999Z" fill="#97A0A7"/>
<path fill-rule="evenodd" clip-rule="evenodd" d="M15.6004 2.3999C14.2749 2.3999 13.2004 3.47442 13.2004 4.7999V8.3999C13.2004 9.72539 14.2749 10.7999 15.6004 10.7999H19.2004C20.5259 10.7999 21.6004 9.72539 21.6004 8.3999V4.7999C21.6004 3.47442 20.5259 2.3999 19.2004 2.3999H15.6004ZM19.2004 3.5999H15.6004C14.9376 3.5999 14.4004 4.13716 14.4004 4.7999V8.3999C14.4004 9.06264 14.9376 9.5999 15.6004 9.5999H19.2004C19.8631 9.5999 20.4004 9.06264 20.4004 8.3999V4.7999C20.4004 4.13716 19.8631 3.5999 19.2004 3.5999Z" fill="#97A0A7"/>
<path fill-rule="evenodd" clip-rule="evenodd" d="M13.2004 15.5999C13.2004 14.2744 14.2749 13.1999 15.6004 13.1999H19.2004C20.5259 13.1999 21.6004 14.2744 21.6004 15.5999V19.1999C21.6004 20.5254 20.5259 21.5999 19.2004 21.5999H15.6004C14.2749 21.5999 13.2004 20.5254 13.2004 19.1999V15.5999ZM15.6004 14.3999H19.2004C19.8631 14.3999 20.4004 14.9372 20.4004 15.5999V19.1999C20.4004 19.8626 19.8631 20.3999 19.2004 20.3999H15.6004C14.9376 20.3999 14.4004 19.8626 14.4004 19.1999V15.5999C14.4004 14.9372 14.9376 14.3999 15.6004 14.3999Z" fill="#97A0A7"/>
</svg>
