<svg width="24" height="24" viewBox="0 0 24 24" fill="none" xmlns="http://www.w3.org/2000/svg">
<path fill-rule="evenodd" clip-rule="evenodd" d="M2.40039 3.5999C2.40039 2.93716 2.93765 2.3999 3.60039 2.3999H6.00039C6.66313 2.3999 7.20039 2.93716 7.20039 3.5999V5.9999C7.20039 6.66264 6.66313 7.1999 6.00039 7.1999H3.60039C2.93765 7.1999 2.40039 6.66264 2.40039 5.9999V3.5999ZM3.60039 3.5999H6.00039V5.9999H3.60039V3.5999Z" fill="#55BE61"/>
<path fill-rule="evenodd" clip-rule="evenodd" d="M2.40039 10.7999C2.40039 10.1372 2.93765 9.5999 3.60039 9.5999H6.00039C6.66313 9.5999 7.20039 10.1372 7.20039 10.7999V13.1999C7.20039 13.8626 6.66313 14.3999 6.00039 14.3999H3.60039C2.93765 14.3999 2.40039 13.8626 2.40039 13.1999V10.7999ZM3.60039 10.7999H6.00039V13.1999H3.60039V10.7999Z" fill="#55BE61"/>
<path fill-rule="evenodd" clip-rule="evenodd" d="M3.60039 16.7999C2.93765 16.7999 2.40039 17.3372 2.40039 17.9999V20.3999C2.40039 21.0626 2.93765 21.5999 3.60039 21.5999H6.00039C6.66313 21.5999 7.20039 21.0626 7.20039 20.3999V17.9999C7.20039 17.3372 6.66313 16.7999 6.00039 16.7999H3.60039ZM6.00039 17.9999H3.60039V20.3999H6.00039V17.9999Z" fill="#55BE61"/>
<path d="M10.2004 4.1999C9.86902 4.1999 9.60039 4.46853 9.60039 4.7999C9.60039 5.13127 9.86902 5.3999 10.2004 5.3999L21.0004 5.3999C21.3318 5.3999 21.6004 5.13127 21.6004 4.7999C21.6004 4.46853 21.3318 4.1999 21.0004 4.1999L10.2004 4.1999Z" fill="#55BE61"/>
<path d="M9.60039 11.9999C9.60039 11.6685 9.86902 11.3999 10.2004 11.3999L21.0004 11.3999C21.3318 11.3999 21.6004 11.6685 21.6004 11.9999C21.6004 12.3313 21.3318 12.5999 21.0004 12.5999L10.2004 12.5999C9.86902 12.5999 9.60039 12.3313 9.60039 11.9999Z" fill="#55BE61"/>
<path d="M10.2004 18.5999C9.86902 18.5999 9.60039 18.8685 9.60039 19.1999C9.60039 19.5313 9.86902 19.7999 10.2004 19.7999H21.0004C21.3318 19.7999 21.6004 19.5313 21.6004 19.1999C21.6004 18.8685 21.3318 18.5999 21.0004 18.5999L10.2004 18.5999Z" fill="#55BE61"/>
</svg>
