<svg width="34" height="34" viewBox="0 0 34 34" fill="none" xmlns="http://www.w3.org/2000/svg">
<path fill-rule="evenodd" clip-rule="evenodd" d="M19.111 1.28805C18.4886 1.00237 17.7974 0.841797 17.069 0.841797C14.3602 0.841797 12.1564 3.0456 12.1564 5.75441V6.53244C12.1564 9.24126 14.3602 11.4451 17.069 11.4451C19.7778 11.4451 21.9816 9.24126 21.9816 6.53244V5.75435C21.9816 5.72081 21.9805 5.68759 21.9794 5.65435C21.9789 5.64102 21.9784 5.62769 21.9781 5.61433C22.0278 5.59447 22.0759 5.56816 22.1209 5.53464C23.2729 4.67831 23.5135 3.04421 22.6571 1.89209C21.8243 0.771849 20.2562 0.513749 19.111 1.28805ZM20.3736 2.12255C20.8447 2.05425 21.3378 2.23943 21.641 2.64742C21.9755 3.0974 21.9834 3.69 21.7084 4.14175C21.4361 3.36075 20.9731 2.66842 20.3736 2.12255ZM20.6921 6.94069C20.4884 8.7599 18.9416 10.179 17.069 10.179C15.1844 10.179 13.6292 8.74188 13.4414 6.90596C14.0711 6.78529 15.3645 6.4186 16.3104 5.35724C17.6783 6.57368 19.7398 6.86909 20.6921 6.94069ZM16.2185 3.73187C16.0058 3.7435 15.8133 3.86133 15.7061 4.04537C15.1115 5.06594 14.0393 5.46501 13.4261 5.6149C13.4998 3.66868 15.1052 2.10788 17.0691 2.10788C19.0517 2.10788 20.6687 3.69873 20.7135 5.67087C19.7701 5.59074 17.7103 5.26996 16.7621 3.98763C16.6355 3.81636 16.4308 3.72042 16.2185 3.73187ZM11.4531 12.6037C12.3724 12.0183 13.3797 11.5974 14.4465 11.3525C14.7872 11.2744 15.1269 11.4872 15.2051 11.8279C15.2833 12.1687 15.0705 12.5083 14.7297 12.5865C13.804 12.799 12.9303 13.1641 12.1329 13.6717C12.0275 13.7388 11.9099 13.7707 11.7936 13.7707C11.5844 13.7707 11.3797 13.6671 11.259 13.4776C11.0713 13.1827 11.1582 12.7914 11.4531 12.6037ZM17.9136 17.8973C18.3243 17.5431 18.8138 17.3888 19.2931 17.4628C22.2682 17.9225 23.6866 20.2481 23.7455 20.3469C23.9246 20.6472 23.8264 21.0358 23.5262 21.2149C23.2259 21.3941 22.8373 21.2957 22.6582 20.9956C22.6468 20.9765 21.4927 19.0839 19.0997 18.7141C18.9562 18.6923 18.8132 18.7936 18.7405 18.8561C18.5167 19.0492 18.3614 19.3701 18.3629 19.6364C18.3644 19.8921 18.5264 20.1175 18.7661 20.1972C19.9461 20.5895 20.7589 21.0555 21.1819 21.5819L23.6058 24.5987C23.8558 24.9099 24.2009 25.0822 24.5506 25.0703C24.7013 25.0653 24.8082 25.0166 24.9079 24.9078C25.5168 24.2424 25.3963 22.0741 25.3448 21.1482C25.3368 21.0051 25.3297 20.8757 25.3249 20.7635C25.0767 15.0437 22.8463 13.4145 19.3278 12.6397L19.11 12.5917C18.7686 12.5165 18.5528 12.1788 18.6281 11.8374C18.7033 11.4959 19.0412 11.28 19.3824 11.3554L19.6001 11.4034C21.9389 11.9184 23.5426 12.8022 24.6467 14.1848C25.8444 15.6845 26.4618 17.7575 26.5897 20.7087C26.5941 20.8095 26.6005 20.9247 26.6075 21.0517L26.6075 21.0519L26.6075 21.0519L26.609 21.0778C26.7065 22.8322 26.7358 24.7858 25.8421 25.7625C25.5136 26.1213 25.0816 26.3195 24.5925 26.3357C24.5671 26.3365 24.5416 26.337 24.5162 26.337C24.4719 26.337 24.4277 26.3357 24.3837 26.3331C24.3681 27.3638 24.1337 28.3539 23.6852 29.2774C23.5758 29.5029 23.3502 29.634 23.1154 29.634C23.0226 29.634 22.9283 29.6136 22.8394 29.5703C22.5247 29.4176 22.3936 29.0388 22.5464 28.7243C22.9265 27.9417 23.1192 27.1001 23.1192 26.2229V25.8716C22.9366 25.7379 22.7681 25.5774 22.6191 25.3917L20.1952 22.375C19.9385 22.0555 19.2721 21.6997 18.3669 21.3986C17.612 21.1475 17.1018 20.4423 17.0971 19.6437C17.0932 19.004 17.4063 18.3349 17.9136 17.8973ZM15.9025 22.7561C16.3184 22.7561 16.7249 22.8753 17.0752 23.0931C17.4255 22.8753 17.832 22.7561 18.2479 22.7561C19.487 22.7561 20.4952 23.7829 20.4952 25.0449C20.4952 25.7608 19.9783 26.6227 18.915 27.68C18.1972 28.3937 17.4893 28.9368 17.4595 28.9596C17.3461 29.0463 17.2106 29.0898 17.0751 29.0898C16.9396 29.0898 16.8041 29.0463 16.6906 28.9596C16.6608 28.9368 15.9529 28.3937 15.2352 27.68C14.1719 26.6227 13.655 25.7608 13.655 25.0449C13.6552 23.7828 14.6633 22.7561 15.9025 22.7561ZM17.0755 27.6472C18.1761 26.735 19.2292 25.5636 19.2292 25.0449C19.2292 24.481 18.7889 24.0222 18.2479 24.0222C17.9786 24.0222 17.7273 24.1338 17.5405 24.3364C17.4206 24.4663 17.2519 24.5402 17.0751 24.5402C16.8984 24.5402 16.7297 24.4663 16.6098 24.3364C16.4229 24.1338 16.1716 24.0222 15.9023 24.0222C15.3614 24.0222 14.9212 24.481 14.9212 25.0449C14.9212 25.5624 15.9747 26.734 17.0755 27.6472ZM21.5613 30.1519L21.545 30.1692C21.3029 30.4215 21.3112 30.8222 21.5635 31.0642C21.6862 31.182 21.844 31.2405 22.0017 31.2405C22.1681 31.2405 22.3343 31.1753 22.4585 31.0457L22.4857 31.0171C22.7246 30.7619 22.7114 30.3613 22.4561 30.1223C22.2009 29.8834 21.8003 29.8966 21.5613 30.1519ZM9.7135 14.0299L9.68004 14.0649C9.43864 14.3178 9.44819 14.7185 9.7011 14.9598C9.82354 15.0768 9.98096 15.1348 10.1379 15.1348C10.3049 15.1348 10.4716 15.0692 10.596 14.9387L10.6243 14.9093C10.8672 14.6578 10.8602 14.257 10.6086 14.0142C10.3571 13.7713 9.95629 13.7784 9.7135 14.0299ZM8.26242 15.9748C8.43438 15.6703 8.82042 15.5629 9.12488 15.7349C9.4294 15.9068 9.53673 16.2929 9.36483 16.5973C8.72607 17.7284 8.67534 19.0546 8.67534 20.6707V22.5999C8.67534 24.8273 9.18553 27.9558 11.6158 30.2114C12.061 30.6245 12.9164 31.0428 14.0897 31.4213C14.1314 31.4327 14.1726 31.4437 14.2137 31.4546C14.4919 31.5113 14.7769 31.4501 15.0104 31.2795C15.2742 31.0868 15.425 30.7889 15.4243 30.4621C15.4232 30.0119 15.1321 29.6234 14.6996 29.4954C13.5759 29.1626 12.7685 28.7734 12.2999 28.3385C10.6286 26.7873 10.7151 24.3864 10.7914 22.2682C10.8079 21.8116 10.8234 21.3804 10.8234 20.9577C10.8234 20.9125 10.8283 20.8685 10.8373 20.826C10.7066 20.5836 10.6196 20.3325 10.5771 20.0707C10.3857 18.8897 11.1522 17.8916 11.7681 17.0895L11.7682 17.0895L11.7684 17.0892C12.0119 16.7721 12.3796 16.2932 12.383 16.1233C12.3831 15.7737 12.6665 15.4903 13.016 15.4903C13.3656 15.4903 13.6491 15.7738 13.6491 16.1233C13.6491 16.7188 13.2427 17.2479 12.7722 17.8605L12.7722 17.8606C12.2803 18.5011 11.7228 19.227 11.8267 19.8681C11.8943 20.2848 12.2471 20.7114 12.8752 21.1361C13.1648 21.3319 13.2409 21.7254 13.0451 22.015C12.9228 22.196 12.7233 22.2936 12.5201 22.2936C12.3981 22.2936 12.2748 22.2583 12.1662 22.1848C12.1408 22.1677 12.1163 22.1504 12.0918 22.1331L12.0636 22.1131L12.0565 22.3137C11.9867 24.2507 11.9146 26.2536 13.161 27.4105C13.4762 27.7031 14.1503 28.0124 15.0588 28.2815C16.0323 28.5697 16.6878 29.445 16.6901 30.4593C16.6913 30.9771 16.5229 31.4624 16.2166 31.8561C16.942 31.9536 17.3779 31.9569 17.385 31.9569C18.3162 31.9569 19.2403 31.7288 20.0576 31.2974C20.3667 31.1342 20.7496 31.2525 20.913 31.5617C21.0761 31.8709 20.9579 32.2538 20.6487 32.4171C19.6499 32.9443 18.5214 33.223 17.385 33.223C17.3251 33.223 15.9293 33.2165 13.9084 32.6837C13.8655 32.6738 13.8228 32.6617 13.7802 32.6494L13.7409 32.6389C13.7377 32.638 13.7346 32.6367 13.7313 32.6358L13.7232 32.6335C13.7201 32.6327 13.7171 32.6319 13.7141 32.6309C12.34 32.1888 11.3441 31.687 10.7542 31.1395C8.56574 29.1084 7.40894 26.1555 7.40894 22.6V20.6709C7.40926 18.928 7.47339 17.3718 8.26242 15.9748Z" fill="#97A0A7"/>
</svg>
