<svg width="34" height="34" viewBox="0 0 34 34" fill="none" xmlns="http://www.w3.org/2000/svg">
<g clip-path="url(#clip0_2997_16664)">
<path fill-rule="evenodd" clip-rule="evenodd" d="M32.5439 22.0287H27.4554C26.8217 22.0287 26.2329 22.3421 25.8744 22.8601C25.1127 23.9793 23.8454 24.6508 22.4885 24.6508H18.6353C18.9233 24.1967 19.0833 23.6659 19.0833 23.1223C19.0833 22.2781 18.7057 21.4724 18.0592 20.9352C18.7057 20.398 19.0833 19.5986 19.0833 18.748C19.0833 17.6608 18.4497 16.6695 17.4896 16.1899C17.9184 15.6783 18.1488 15.0452 18.1488 14.3737C18.1488 12.8068 16.8687 11.5278 15.3005 11.5278H3.67056C2.82567 11.5278 2.1408 10.8435 2.1408 9.99934C2.1408 9.15517 2.82567 8.47088 3.67056 8.47088H17.5984C18.008 8.47088 18.3793 8.24705 18.5713 7.88892C18.7633 7.53079 18.7377 7.09591 18.5137 6.76336L16.4975 3.7704C16.3438 3.54657 16.2862 3.26518 16.3438 2.98379C16.4015 2.7024 16.5679 2.45938 16.7983 2.31229C17.1759 2.06927 17.6688 2.10125 18.0144 2.38903L24.0374 7.34532C24.3191 7.57555 24.7351 7.53718 24.9655 7.25579C25.196 6.9744 25.1575 6.55871 24.8759 6.32849L18.8529 1.37219C18.0656 0.719883 16.9519 0.655931 16.0878 1.19952C15.5566 1.53207 15.1789 2.08846 15.0445 2.72158C14.9101 3.35471 15.0381 3.98784 15.3902 4.51224L17.1759 7.15347H3.67056C2.1024 7.15347 0.822266 8.43251 0.822266 9.99934C0.822266 11.5662 2.1024 12.8452 3.67056 12.8452H6.89008C6.60205 13.2993 6.44204 13.8301 6.44204 14.3737C6.44204 15.4609 7.0757 16.4521 8.0358 16.9317C7.60696 17.4434 7.37653 18.0765 7.37653 18.748C7.37653 20.1421 8.38144 21.3125 9.72557 21.5491C9.41834 22.0159 9.25192 22.5595 9.25192 23.1159C9.25192 24.6828 10.5321 25.9618 12.1002 25.9618H22.4821C24.2743 25.9618 25.9512 25.0793 26.9625 23.5956C27.0713 23.4357 27.257 23.3398 27.449 23.3398H32.5439C32.9087 23.3398 33.2032 23.0456 33.2032 22.681C33.2032 22.3165 32.9087 22.0287 32.5439 22.0287ZM9.29673 12.858H15.3005C16.1454 12.858 16.8303 13.5423 16.8303 14.3865C16.8303 15.2306 16.1454 15.9149 15.3005 15.9149H9.29673C8.45184 15.9149 7.76697 15.2306 7.76697 14.3865C7.76697 13.5423 8.45184 12.858 9.29673 12.858ZM10.2312 17.2323H16.235C17.0799 17.2323 17.7648 17.9166 17.7648 18.7608C17.7648 19.605 17.0799 20.2892 16.235 20.2892H10.2312C9.38634 20.2892 8.70147 19.605 8.70147 18.7608C8.70147 17.9166 9.39274 17.2323 10.2312 17.2323ZM12.1066 21.6003H16.235C17.0799 21.6003 17.7648 22.2845 17.7648 23.1287C17.7648 23.9729 17.0799 24.6572 16.235 24.6572H12.1066C11.2617 24.6572 10.5769 23.9729 10.5769 23.1287C10.5769 22.2845 11.2617 21.6003 12.1066 21.6003ZM25.9895 8.98898L27.9033 10.5558C28.2426 10.8372 28.6778 10.9907 29.1195 10.9907H32.5438C32.9087 10.9907 33.2031 10.6965 33.2031 10.332C33.2031 9.96745 32.9087 9.67327 32.5438 9.67327H29.1195C28.9851 9.67327 28.8506 9.6285 28.7418 9.53897L26.828 7.97214C26.5464 7.74191 26.1304 7.78029 25.8999 8.06168C25.6631 8.33667 25.7079 8.75236 25.9895 8.98898ZM6.73647 18.748C6.73647 17.8527 5.99399 16.4841 4.53464 14.6743C4.34902 14.444 4.0738 14.3161 3.77937 14.3161C3.48494 14.3161 3.20971 14.4504 3.02409 14.6743C1.56474 16.4841 0.822266 17.8527 0.822266 18.748C0.822266 20.3788 2.1472 21.7026 3.77937 21.7026C5.41153 21.7026 6.73647 20.3788 6.73647 18.748ZM2.1408 18.748C2.1408 18.3451 2.64645 17.3027 3.77937 15.851C4.90588 17.3027 5.41793 18.3515 5.41793 18.748C5.41793 19.6497 4.68186 20.3852 3.77937 20.3852C2.87688 20.3852 2.1408 19.6497 2.1408 18.748ZM2.61447 10.0122C2.61447 9.64768 2.9089 9.3535 3.27374 9.3535H4.41946C4.7843 9.3535 5.07872 9.64768 5.07872 10.0122C5.07872 10.3767 4.7843 10.6709 4.41946 10.6709H3.27374C2.9089 10.6709 2.61447 10.3767 2.61447 10.0122ZM7.85007 28.8077C7.90128 28.635 8.02289 28.5007 8.17651 28.4175C8.50294 28.2513 8.89978 28.3792 9.0726 28.7117C9.39263 29.3321 9.55265 29.8373 9.55265 30.2594C9.55265 31.8902 8.22771 33.214 6.59555 33.214C4.96338 33.214 3.63845 31.8902 3.63845 30.2594C3.63845 29.364 4.38092 27.9955 5.84027 26.1856C6.02589 25.9554 6.30112 25.8211 6.59555 25.8211C6.88998 25.8211 7.1652 25.949 7.35082 26.1792C7.39466 26.2348 7.43895 26.2904 7.48333 26.3461C7.60741 26.5019 7.73221 26.6586 7.85007 26.8187C7.95889 26.9658 8.00369 27.1385 7.97809 27.3112C7.95249 27.4838 7.86288 27.6373 7.72206 27.7461C7.57485 27.8548 7.40203 27.8995 7.22921 27.874C7.05639 27.8484 6.90278 27.7588 6.79397 27.6181C6.72996 27.5286 6.66596 27.4455 6.59555 27.3559C5.46263 28.8077 4.95698 29.8501 4.95698 30.253C4.95698 31.1547 5.68665 31.8902 6.58915 31.8902C7.49164 31.8902 8.22771 31.1547 8.22771 30.253C8.22771 30.1634 8.19571 29.8884 7.89488 29.3129C7.81167 29.153 7.79887 28.9803 7.85007 28.8077Z" fill="#97A0A7"/>
</g>
<defs>
<clipPath id="clip0_2997_16664">
<rect width="34" height="34" fill="white"/>
</clipPath>
</defs>
</svg>
