<svg width="34" height="34" viewBox="0 0 34 34" fill="none" xmlns="http://www.w3.org/2000/svg">
<path fill-rule="evenodd" clip-rule="evenodd" d="M20.9399 10.7883C21.5068 9.49822 21.7903 8.13073 21.7903 6.7181V4.18955C21.4875 4.1573 21.2556 3.89928 21.2556 3.58966V1.44168C21.2556 1.11271 21.5261 0.841797 21.8547 0.841797H26.1518C26.4868 0.841797 26.7509 1.11271 26.7509 1.44168V3.58966C26.7509 3.89928 26.5125 4.1573 26.2162 4.18955V6.7181C26.2162 8.13073 26.4996 9.49822 27.0666 10.7883L28.5741 14.2393C29.5082 16.3679 29.9785 18.6191 29.9785 20.9412V32.6164C29.9785 32.9454 29.7079 33.2163 29.3794 33.2163H18.6399C18.3049 33.2163 18.0408 32.9454 18.0408 32.6164V20.9412C18.0408 18.6191 18.5111 16.3614 19.4452 14.2393L20.9399 10.7883ZM25.5526 2.98978V2.04157H22.4603V2.98978H25.5526ZM25.0115 6.7181V4.196H22.995V6.7181C22.995 8.29199 22.6793 9.82719 22.0415 11.2656L20.534 14.7166C19.6707 16.6904 19.2327 18.7803 19.2327 20.9412V32.0165H28.7674V20.9412C28.7674 18.7868 28.3293 16.6904 27.466 14.7166L25.9585 11.2656C25.3336 9.82719 25.0115 8.29199 25.0115 6.7181ZM22.6725 14.4327C22.8014 14.6133 22.8207 14.8455 22.7305 15.0455L22.505 15.5809C22.2795 16.1034 22.0798 16.6516 21.9188 17.1999C21.8415 17.4579 21.6095 17.6321 21.3389 17.6321C21.281 17.6321 21.223 17.6257 21.1714 17.6063C21.0168 17.5612 20.888 17.4579 20.8107 17.316C20.7334 17.1741 20.714 17.0129 20.7591 16.8581C20.9331 16.2582 21.1521 15.6647 21.4034 15.0971L21.6289 14.5617C21.7126 14.3553 21.893 14.2134 22.112 14.1876C22.3311 14.1618 22.5437 14.2585 22.6725 14.4327ZM23.0913 13.3298C23.3361 13.3298 23.5487 13.1878 23.6453 12.9685L24.0126 12.13C24.135 11.8204 23.9932 11.4785 23.6969 11.3495C23.3941 11.2205 23.0526 11.3495 22.9109 11.6462L22.5437 12.4912C22.4793 12.6331 22.4793 12.8008 22.5373 12.9492C22.5952 13.0975 22.7048 13.2136 22.8529 13.2782C22.9238 13.3104 23.0076 13.3298 23.0913 13.3298ZM27.8271 20.2574V29.3976C27.8271 29.7266 27.5565 29.9975 27.2279 29.9975H20.7856C20.457 29.9975 20.1864 29.7266 20.1864 29.3976V20.2574C20.1864 19.9285 20.457 19.6575 20.7856 19.6575H27.2279C27.5565 19.6511 27.8271 19.922 27.8271 20.2574ZM26.6223 28.7913V20.8573H21.3847V28.7913H26.6223ZM5.81955 31.8166L5.38791 32.1391C5.18176 32.2939 5.09801 32.5648 5.18176 32.8099C5.26551 33.055 5.49743 33.2228 5.75512 33.2228H14.3428C14.6005 33.2228 14.826 33.055 14.9097 32.8099C14.9935 32.5648 14.9097 32.2939 14.7036 32.1391L14.2719 31.8166C13.2089 31.0232 11.9591 30.5458 10.6449 30.4297V22.9731C12.1073 22.8247 13.4602 22.1474 14.4523 21.0573C15.4638 19.9543 16.0178 18.5288 16.0178 17.0323V17.0323C16.0178 17.0065 16.0178 16.9742 16.0114 16.9484L14.9355 9.42082C14.8968 9.1241 14.6391 8.90479 14.3428 8.90479H5.74869C5.45234 8.90479 5.20108 9.1241 5.15598 9.42082L4.08011 16.9484C4.07368 16.9742 4.07368 16.9999 4.07368 17.0321V17.0323C4.08012 18.5223 4.63415 19.9543 5.63916 21.0573C6.63128 22.1474 7.98418 22.8247 9.4466 22.9731V30.4297C8.13236 30.5458 6.87609 31.0232 5.81955 31.8166ZM10.0844 14.3167C8.95053 14.6392 7.78447 14.7359 6.61196 14.6069L5.65205 14.4973L6.27696 10.1046H13.821L14.375 14.007L14.2333 13.9877C13.8016 13.9296 13.37 13.9038 12.9384 13.9038C11.9978 13.9038 11.0636 14.0393 10.1488 14.2973L10.0844 14.3167ZM10.4258 15.4713L10.4903 15.4519C11.6628 15.123 12.8739 15.0327 14.0851 15.1875L14.5489 15.2455L14.8066 17.071C14.8066 19.6963 12.6678 21.8378 10.0393 21.8378C7.41081 21.8378 5.27195 19.7027 5.27195 17.071L5.47166 15.6906L6.47666 15.8003C7.81023 15.9551 9.13736 15.839 10.4258 15.4713ZM7.91331 32.0165H12.1846C10.8059 31.4876 9.28554 31.4876 7.91331 32.0165Z" fill="#97A0A7"/>
</svg>
