<svg width="34" height="34" viewBox="0 0 34 34" fill="none" xmlns="http://www.w3.org/2000/svg">
<path fill-rule="evenodd" clip-rule="evenodd" d="M25.6246 25.7899C26.4045 26.2428 26.9502 27.0095 27.122 27.8952C27.2942 28.7831 27.0733 29.7009 26.5158 30.4133L25.1615 32.1439C24.6143 32.8431 23.783 33.2191 22.9399 33.2191C22.4612 33.2191 21.9788 33.098 21.5422 32.8459C20.3367 32.1499 19.8201 30.6516 20.3406 29.3606L21.1622 27.3224C21.4339 26.6485 21.9293 26.0967 22.5568 25.7527V24.332C22.5568 24.1603 22.4171 24.0207 22.2454 24.0207H11.8186C11.6469 24.0207 11.5072 24.1603 11.5072 24.332V25.6653H17.3482C17.6975 25.6653 17.9806 25.9485 17.9806 26.2977C17.9806 26.6469 17.6975 26.9302 17.3482 26.9302H12.7095C12.7819 27.0556 12.8468 27.1862 12.9017 27.3224L13.7233 29.3606C14.2437 30.6516 13.7271 32.1499 12.5217 32.8459C12.0851 33.098 11.6026 33.2191 11.124 33.2191C10.2809 33.2191 9.44964 32.8432 8.90245 32.1439L7.54808 30.4133C6.99071 29.7009 6.76973 28.7831 6.94195 27.8951C7.11366 27.0095 7.65939 26.2427 8.43938 25.7899C8.29752 25.6741 8.16446 25.5459 8.04303 25.4048C7.44404 24.7089 7.17886 23.789 7.31547 22.8811C7.53745 21.406 8.16528 20.0278 9.13108 18.8953C9.85421 18.0473 10.743 17.3641 11.7377 16.8839C10.5204 15.5852 9.77357 13.8403 9.77357 11.9241C9.77364 7.98281 12.9313 4.76514 16.8497 4.668L16.8519 4.66783C16.8664 4.66675 16.8808 4.66566 16.8955 4.66566H16.8957C17.2941 4.66566 17.6687 4.51046 17.9505 4.22871C18.2323 3.94689 18.3875 3.57223 18.3875 3.17367C18.3875 2.58525 17.9088 2.10661 17.3204 2.10661H17.3203C17.099 2.10661 16.9024 2.16967 16.7665 2.28414C16.6514 2.38116 16.5931 2.50657 16.5931 2.65703C16.5931 3.00632 16.3099 3.28947 15.9607 3.28947C15.6114 3.28947 15.3282 3.00626 15.3282 2.65703C15.3283 2.13153 15.5496 1.65562 15.9514 1.31701C16.315 1.0106 16.8012 0.841797 17.3202 0.841797H17.3204C18.6062 0.841797 19.6524 1.88792 19.6524 3.17379C19.6524 3.82711 19.4262 4.44538 19.0117 4.94026C22.0548 5.80411 24.2903 8.60804 24.2904 11.9242C24.2904 13.8404 23.5436 15.5853 22.3262 16.884C23.321 17.3641 24.2098 18.0474 24.9329 18.8953C25.8987 20.0278 26.5265 21.4061 26.7485 22.8812C26.8851 23.7891 26.6199 24.709 26.0209 25.4048C25.8995 25.5459 25.7664 25.6741 25.6246 25.7899ZM17.032 5.9306C13.7272 5.93067 11.0385 8.61936 11.0384 11.9242C11.0384 15.229 13.7271 17.9177 17.032 17.9178C20.3368 17.9177 23.0255 15.229 23.0255 11.9242C23.0255 8.61936 20.3367 5.93067 17.032 5.9306ZM12.5503 29.8336L11.7287 27.7953C11.5275 27.2964 11.1204 26.9095 10.6117 26.7342C10.1031 26.5589 9.54406 26.6125 9.07814 26.8815C8.61216 27.1506 8.28614 27.6078 8.18368 28.136C8.08123 28.6642 8.21265 29.2102 8.54424 29.6338L9.89861 31.3645C10.3705 31.9675 11.2264 32.1334 11.8893 31.7506C12.5523 31.3678 12.8365 30.5437 12.5503 29.8336ZM21.6172 22.1234C21.6172 21.7742 21.9003 21.491 22.2496 21.491C22.5989 21.491 22.882 21.7742 22.882 22.1234V22.8906C23.4349 23.1358 23.8216 23.6895 23.8216 24.3321V25.2252C24.3005 25.1773 24.745 24.9482 25.0623 24.5796C25.4207 24.1632 25.5794 23.6127 25.4977 23.0694C25.1356 20.6627 23.531 18.6743 21.2783 17.8071C20.0835 18.6719 18.6164 19.1826 17.032 19.1826C15.4476 19.1826 13.9804 18.6719 12.7856 17.8071C10.5329 18.6743 8.92832 20.6627 8.56624 23.0694C8.48453 23.6127 8.64321 24.1632 9.00162 24.5796C9.31891 24.9482 9.76333 25.1773 10.2423 25.2252V24.3321C10.2423 23.6878 10.631 23.1329 11.1861 22.8887V22.1234C11.1861 21.7742 11.4692 21.491 11.8185 21.491C12.1678 21.491 12.4509 21.7742 12.4509 22.1234V22.7559H21.6172V22.1234ZM24.1654 31.3644L25.5197 29.6338C25.8513 29.2101 25.9827 28.6642 25.8804 28.136C25.7779 27.6078 25.4519 27.1505 24.9859 26.8815C24.7004 26.7166 24.38 26.6326 24.0576 26.6326C23.8538 26.6326 23.6493 26.6662 23.4523 26.734C22.9436 26.9094 22.5365 27.2962 22.3354 27.7952L21.5138 29.8334C21.2275 30.5436 21.5117 31.3677 22.1747 31.7506C22.8378 32.1333 23.6935 31.9674 24.1654 31.3644ZM18.8723 31.505C19.0022 31.1807 19.3706 31.0232 19.6946 31.1532C20.0188 31.2832 20.1763 31.6514 20.0463 31.9756C19.7426 32.7332 19.0129 33.2227 18.1872 33.2227H15.8767C15.051 33.2227 14.3213 32.7332 14.0175 31.9756C13.8876 31.6514 14.045 31.2832 14.3692 31.1532C14.6935 31.0236 15.0616 31.1807 15.1916 31.505C15.3002 31.7758 15.5756 31.9579 15.8767 31.9579H18.1872C18.4883 31.9579 18.7637 31.7758 18.8723 31.505ZM20.3074 25.8503C20.1897 25.7327 20.0266 25.665 19.8602 25.665C19.6939 25.665 19.5307 25.7326 19.4131 25.8503C19.2955 25.968 19.2278 26.1311 19.2278 26.2975C19.2278 26.4644 19.2955 26.627 19.4131 26.7445C19.5307 26.8628 19.6939 26.9299 19.8602 26.9299C20.0266 26.9299 20.1897 26.8628 20.3074 26.7445C20.425 26.627 20.4927 26.4638 20.4927 26.2975C20.4927 26.1311 20.425 25.968 20.3074 25.8503ZM17.8861 14.177C18.106 13.9058 18.5043 13.864 18.7756 14.0839C19.047 14.3038 19.0887 14.7021 18.8687 14.9735C18.4173 15.5304 17.7478 15.8498 17.032 15.8498C16.3162 15.8498 15.6467 15.5304 15.1952 14.9735C14.9753 14.7021 15.0169 14.3038 15.2883 14.0839C15.5597 13.8641 15.9579 13.9056 16.1778 14.177C16.3879 14.4363 16.6994 14.585 17.032 14.585C17.3646 14.585 17.6759 14.4363 17.8861 14.177ZM15.4339 11.4769C14.8602 10.9032 13.9267 10.9032 13.3529 11.4769C13.1059 11.7239 13.1058 12.1243 13.3529 12.3713C13.5998 12.6183 14.0003 12.6183 14.2473 12.3714C14.3278 12.2908 14.4589 12.2908 14.5395 12.3714C14.663 12.4948 14.8248 12.5566 14.9867 12.5566C15.1485 12.5566 15.3104 12.4948 15.4339 12.3714C15.6808 12.1244 15.6808 11.7239 15.4339 11.4769ZM18.63 11.4768C19.2037 10.9032 20.1373 10.9032 20.711 11.4768C20.958 11.7238 20.958 12.1242 20.711 12.3712C20.4641 12.6182 20.0636 12.6183 19.8166 12.3713C19.7361 12.2907 19.605 12.2908 19.5244 12.3713C19.401 12.4947 19.2391 12.5565 19.0772 12.5565C18.9154 12.5565 18.7535 12.4948 18.63 12.3713C18.3831 12.1242 18.3831 11.7238 18.63 11.4768Z" fill="#97A0A7"/>
</svg>
