<svg width="34" height="34" viewBox="0 0 34 34" fill="none" xmlns="http://www.w3.org/2000/svg">
<path d="M25.7274 25.6294C25.5008 25.4027 25.0474 25.5161 24.9341 25.7427C24.7074 26.0827 24.8208 26.4227 25.0474 26.6494C26.1808 27.4427 26.9741 28.3494 27.2008 29.2561C27.3141 29.5961 27.6541 29.8227 27.9941 29.7094C28.3341 29.5961 28.5608 29.2561 28.4474 28.9161C27.9941 27.5561 26.9741 26.5361 25.7274 25.6294Z" fill="#97A0A7"/>
<path d="M29.6942 25.8562C28.7875 24.3829 27.4275 23.3629 25.6142 22.6829L22.4409 21.5496L21.5342 19.7362C22.5542 18.6029 23.2342 17.1296 23.2342 15.4296L23.8009 9.30956C23.8009 9.30956 23.8009 9.30956 23.8009 9.19622C23.6875 5.79622 20.9675 2.96289 17.6809 2.96289H16.2075C12.9209 2.96289 10.2009 5.79622 10.2009 9.19622C10.2009 9.19622 10.2009 9.19622 10.2009 9.30956L10.7675 15.4296C10.7675 17.1296 11.4475 18.6029 12.4675 19.7362L11.3342 21.5496L8.16086 22.6829C6.34753 23.2496 4.98753 24.3829 4.08086 25.8562C3.17419 27.3296 2.60753 29.1429 2.38086 31.2962C2.38086 31.5229 2.38086 31.6362 2.49419 31.7496C2.60753 31.8629 2.72086 31.9762 2.94753 31.9762H30.6009C30.8275 31.9762 30.9409 31.8629 31.0542 31.7496C31.1675 31.6362 31.2809 31.4096 31.1675 31.2962C31.1675 29.1429 30.6009 27.2162 29.6942 25.8562ZM16.2075 4.20956H17.6809C20.2875 4.20956 22.5542 6.47622 22.5542 9.19622L22.4409 9.98956C18.8142 9.19622 17.2275 8.06289 15.8675 6.81622C15.7542 6.70289 15.5275 6.58956 15.4142 6.70289C13.6009 6.92956 12.2409 7.60956 11.3342 8.51622C11.7875 6.02289 13.8275 4.20956 16.2075 4.20956ZM11.9009 15.4296C11.9009 15.4296 11.9009 15.3162 11.9009 15.4296L11.4475 10.4429C12.1275 9.30956 13.1475 8.40289 15.3009 7.94956C16.7742 9.30956 18.7009 10.5562 22.4409 11.2362L22.1009 15.3162C22.1009 15.3162 22.1009 15.3162 22.1009 15.4296C22.1009 18.1496 19.9475 20.4162 17.2275 20.4162H16.7742C14.1675 20.4162 11.9009 18.1496 11.9009 15.4296ZM20.6275 20.6429L21.4209 22.1162C20.9675 23.3629 20.4009 24.4962 19.9475 25.5162L17.7942 23.2496L20.6275 20.6429ZM17.0009 22.3429L16.2075 21.5496C16.4342 21.5496 16.6609 21.5496 16.8875 21.5496H17.3409C17.5675 21.5496 17.6809 21.5496 17.9075 21.5496L17.0009 22.3429ZM16.0942 23.2496L13.9409 25.5162C13.4875 24.6096 13.0342 23.4762 12.4675 22.1162L13.2609 20.6429L16.0942 23.2496ZM3.74086 30.6162C3.96753 28.9162 4.42086 27.5562 5.10086 26.5362C5.89419 25.2896 7.02753 24.3829 8.50086 23.8162L11.3342 22.7962C11.9009 24.2696 12.4675 25.6296 13.1475 26.7629C13.1475 26.8762 13.1475 26.8762 13.2609 26.9896L15.7542 30.6162H3.74086ZM14.5075 26.6496L16.7742 24.2696L19.1542 26.7629L16.8875 30.2762L14.5075 26.6496ZM18.1342 30.6162L20.4009 27.1029C20.5142 27.1029 20.5142 26.9896 20.5142 26.8762C21.0809 25.7429 21.7609 24.3829 22.3275 22.7962L25.1609 23.7029C26.6342 24.2696 27.7675 25.1762 28.5609 26.4229C29.2409 27.5562 29.6942 28.9162 29.9209 30.5029L18.1342 30.6162Z" fill="#97A0A7"/>
<path d="M18.134 16.9034C17.9073 16.6767 17.454 16.6767 17.114 16.9034C17.0007 17.0167 16.8873 17.0167 16.774 16.9034C16.5473 16.6767 16.094 16.6767 15.754 16.9034C15.5273 17.1301 15.5273 17.5834 15.754 17.9234C16.094 18.2634 16.434 18.3767 16.8873 18.3767C17.3407 18.3767 17.6807 18.2634 18.0207 17.9234C18.3607 17.6967 18.3607 17.2434 18.134 16.9034Z" fill="#97A0A7"/>
<path d="M24.1411 25.0638C24.1411 25.4038 23.9145 25.7438 23.5745 25.7438C23.2345 25.7438 23.0078 25.5171 23.0078 25.0638C23.0078 24.7238 23.2345 24.3838 23.5745 24.3838C23.9145 24.4971 24.1411 24.7238 24.1411 25.0638Z" fill="#97A0A7"/>
<path d="M15.3013 12.4827C15.3013 12.8227 15.0746 13.1627 14.7346 13.1627C14.3946 13.1627 14.168 12.9361 14.168 12.4827C14.168 12.1427 14.3946 11.8027 14.7346 11.8027C15.0746 11.9161 15.3013 12.1427 15.3013 12.4827Z" fill="#97A0A7"/>
<path d="M20.0611 12.4827C20.0611 12.8227 19.8344 13.1627 19.4944 13.1627C19.1544 13.1627 18.9277 12.9361 18.9277 12.4827C18.9277 12.1427 19.1544 11.8027 19.4944 11.8027C19.7211 11.9161 20.0611 12.1427 20.0611 12.4827Z" fill="#97A0A7"/>
</svg>
