<svg width="34" height="34" viewBox="0 0 34 34" fill="none" xmlns="http://www.w3.org/2000/svg">
<g clip-path="url(#clip0_2997_16647)">
<path fill-rule="evenodd" clip-rule="evenodd" d="M19.4937 4.02528C19.6293 4.36832 20.0169 4.54307 20.3592 4.40715C20.5271 4.34243 20.6563 4.21298 20.7274 4.05116C20.7984 3.88935 20.8049 3.70812 20.7403 3.53984C19.8231 1.16444 18.6024 0.00585938 17.007 0.00585938C13.7388 0.00585938 12.7118 4.85375 11.8076 9.1256C11.6919 9.67018 11.6023 10.1475 11.5222 10.5749L11.5222 10.5749C11.307 11.722 11.1595 12.5088 10.7547 13.268C10.5804 13.5916 10.7031 13.9994 11.026 14.1741C11.1229 14.2259 11.2327 14.2518 11.3425 14.2518C11.588 14.2518 11.814 14.1159 11.9303 13.8958C12.4165 12.9846 12.588 12.0881 12.8332 10.8058L12.8332 10.8058C12.9137 10.3848 13.0021 9.92222 13.1123 9.40391L13.1147 9.39224C13.915 5.61518 14.8197 1.34566 17.007 1.34566C17.3622 1.34566 18.4603 1.34566 19.4937 4.02528ZM9.78589 15.1969C9.60504 15.2098 9.44357 15.2875 9.32731 15.4234C8.26804 16.6467 7.28627 18.0642 7.28627 20.1095C7.28627 21.5075 7.61568 22.5884 8.26157 23.3133C8.8558 23.9865 9.7213 24.3425 10.7612 24.3425C11.969 24.3425 12.9314 23.8765 13.474 23.5399C14.3072 24.6337 15.2566 25.3522 17.0006 25.3522C18.7445 25.3522 19.6875 24.6337 20.5272 23.5399C21.0632 23.8765 22.0256 24.3425 23.2399 24.3425C24.2734 24.3425 25.1389 23.9865 25.7395 23.3133C26.3854 22.5884 26.7148 21.5075 26.7148 20.1095C26.7148 17.7396 25.3785 16.2155 24.398 15.0973L24.3832 15.0804L24.3287 15.0178C24.003 14.6433 23.723 14.3214 23.5822 14.0577C23.0286 13.0125 22.6289 11.1314 22.2042 9.13217L22.2 9.11272L22.1227 8.7418C21.9124 7.73109 21.778 7.08509 21.4831 6.01888C21.3862 5.66289 21.018 5.45577 20.6628 5.55286C20.4949 5.60464 20.3528 5.71467 20.2623 5.87001C20.1719 6.02535 20.1525 6.20658 20.1977 6.38134C20.4685 7.37248 20.5974 7.98467 20.7908 8.90275L20.7908 8.90281L20.7909 8.90298C20.8235 9.05801 20.858 9.22175 20.8953 9.39751C21.341 11.5011 21.7608 13.4816 22.4067 14.692C22.6328 15.1062 22.9816 15.5075 23.3885 15.9671C24.2798 16.9768 25.3843 18.2324 25.3843 20.1095C25.3843 21.171 25.1711 21.9477 24.7513 22.4201C24.409 22.8085 23.9052 23.0027 23.2464 23.0027C22.4519 23.0027 21.7996 22.7244 21.3862 22.4913C21.961 22.0318 22.5876 21.9735 22.6199 21.9735C22.988 21.9477 23.2658 21.6305 23.2399 21.2616C23.227 21.0803 23.1495 20.9185 23.0139 20.802C22.8782 20.6855 22.7103 20.6273 22.5294 20.6402C22.4648 20.6402 20.8307 20.7632 19.8296 22.2195C19.061 23.3328 18.4861 24.0124 17.0006 24.0124C15.515 24.0124 14.9401 23.3328 14.1715 22.2195C13.1869 20.7872 11.5962 20.6509 11.4765 20.6406L11.4717 20.6402C11.2908 20.6337 11.1229 20.692 10.9873 20.8085C10.8516 20.925 10.7741 21.0868 10.7612 21.268C10.7547 21.4493 10.8129 21.6176 10.9291 21.7535C11.0454 21.8894 11.2069 21.9671 11.3877 21.98C11.39 21.9805 11.3954 21.9812 11.4035 21.9822C11.5093 21.996 12.0876 22.0711 12.6214 22.4978C12.208 22.7308 11.5492 23.0091 10.7612 23.0091C10.1024 23.0091 9.59858 22.8085 9.25626 22.4266C8.83642 21.9541 8.62328 21.1774 8.62328 20.1159C8.62328 18.4266 9.50816 17.2616 10.3349 16.3036C10.4512 16.1677 10.5093 15.9994 10.4964 15.8182C10.4899 15.637 10.406 15.4752 10.2703 15.3587C10.1347 15.2422 9.96674 15.1839 9.78589 15.1969ZM20.0815 25.5592C20.2494 25.3456 20.5078 25.2291 20.779 25.2291C21.0503 25.2291 21.3022 25.3521 21.4766 25.5592C22.5746 26.9184 23.1043 27.9216 23.1043 28.6207C23.1043 29.9022 22.0644 30.9507 20.779 30.9507C19.4937 30.9507 18.4538 29.9087 18.4538 28.6207C18.4538 27.9152 18.9834 26.9184 20.0815 25.5592ZM19.7908 28.6207C19.7908 29.1643 20.23 29.6045 20.7726 29.6045C21.3151 29.6045 21.7543 29.1643 21.7543 28.6207C21.7543 28.433 21.4895 27.8116 20.7726 26.8472C20.0556 27.8116 19.7908 28.4265 19.7908 28.6207ZM12.0594 29.5464C12.0078 29.3716 11.885 29.2357 11.73 29.1515C11.4006 28.9768 11.0002 29.1062 10.8322 29.4493C10.5093 30.0771 10.3478 30.5884 10.3478 31.0156C10.3478 32.6661 11.6848 34.0059 13.3318 34.0059C14.9789 34.0059 16.3159 32.6661 16.3159 31.0156C16.3159 30.1095 15.5666 28.7244 14.094 26.8927C13.9067 26.6596 13.629 26.5237 13.3318 26.5237C13.0347 26.5237 12.757 26.6532 12.5697 26.8862C12.5254 26.9424 12.4807 26.9987 12.436 27.0551C12.3108 27.2128 12.1848 27.3713 12.0659 27.5334C11.9561 27.6823 11.9109 27.857 11.9367 28.0318C11.9625 28.2066 12.053 28.3619 12.1951 28.4719C12.3436 28.582 12.518 28.6273 12.6924 28.6014C12.8668 28.5755 13.0218 28.4849 13.1316 28.3425C13.1962 28.2519 13.2608 28.1677 13.3318 28.0771C14.4751 29.5464 14.9853 30.6014 14.9853 31.0091C14.9853 31.9217 14.2426 32.6661 13.3318 32.6661C12.4211 32.6661 11.6783 31.9217 11.6783 31.0091C11.6783 30.9185 11.7106 30.6402 12.0142 30.0577C12.0982 29.8959 12.1111 29.7211 12.0594 29.5464Z" fill="#97A0A7"/>
</g>
<defs>
<clipPath id="clip0_2997_16647">
<rect width="34" height="34" fill="white"/>
</clipPath>
</defs>
</svg>
