<svg width="34" height="34" viewBox="0 0 34 34" fill="none" xmlns="http://www.w3.org/2000/svg">
<path fill-rule="evenodd" clip-rule="evenodd" d="M5.57633 19.8368C5.72825 19.5232 6.10575 19.3923 6.4191 19.5441C6.7327 19.696 6.86367 20.0734 6.71176 20.3869C6.11736 21.6136 5.816 22.9323 5.816 24.3062V28.0498C5.816 30.2065 7.57061 31.9611 9.72733 31.9611H14.136C14.7273 31.9611 15.2084 31.48 15.2084 30.8887C15.2084 30.2973 14.7273 29.8162 14.136 29.8162H10.6031C9.14214 29.8162 7.95354 28.6276 7.95354 27.1666V25.1479C7.95354 24.7995 8.23604 24.517 8.5844 24.517C8.93276 24.517 9.21526 24.7995 9.21526 25.1479V27.1666C9.21526 27.9319 9.83785 28.5545 10.6031 28.5545H13.354L10.7319 25.9324C8.5774 23.7779 8.5774 20.2721 10.7319 18.1176C12.8864 15.963 16.3922 15.9631 18.5467 18.1176L23.9748 23.5456C24.3881 23.9589 24.7309 24.4303 24.9937 24.9469C25.1518 25.2574 25.0282 25.6372 24.7177 25.7952C24.4072 25.9531 24.0274 25.8297 23.8693 25.5192C23.6666 25.1209 23.402 24.7572 23.0826 24.4378L20.7118 22.0671C20.9441 23.7285 20.8137 25.418 20.3184 27.0432C20.2356 27.3152 19.9856 27.4904 19.7152 27.4904C19.6543 27.4904 19.5924 27.4814 19.5311 27.4627C19.1978 27.3612 19.0099 27.0087 19.1115 26.6754C19.7372 24.6221 19.7102 22.4529 19.0334 20.4026C19.0321 20.3988 19.0312 20.3951 19.0302 20.3913L19.0281 20.3832L17.6546 19.0097C15.9919 17.3471 13.2866 17.3471 11.6241 19.0097C9.96156 20.6723 9.96156 23.3775 11.6241 25.0402L17.0522 30.4682C17.4094 30.8254 17.8254 31.1136 18.2777 31.3229C18.2511 31.1821 18.2366 31.0371 18.2366 30.8887C18.2366 29.6016 19.2837 28.5545 20.5708 28.5545H24.1035C24.8688 28.5545 25.4914 27.9319 25.4914 27.1666V24.7293C25.4914 24.381 25.7739 24.0985 26.1223 24.0985C26.4706 24.0985 26.7531 24.381 26.7531 24.7293V27.1666C26.7531 28.6276 25.5645 29.8162 24.1035 29.8162H20.5708C19.9794 29.8162 19.4983 30.2973 19.4983 30.8887C19.4983 31.48 19.9794 31.9611 20.5708 31.9611H24.9794C27.1361 31.9611 28.8907 30.2065 28.8907 28.0498V24.3062C28.8907 19.3437 24.8534 15.3064 19.891 15.3064H14.8159C13.1078 15.3064 11.4459 15.7868 10.0098 16.6957C9.9051 16.7619 9.78833 16.7936 9.67301 16.7936C9.46394 16.7936 9.25935 16.6897 9.1393 16.5C8.95301 16.2055 9.04064 15.8159 9.33506 15.6296C10.4659 14.9139 11.7192 14.4313 13.0276 14.2009C11.1784 12.989 9.95425 10.8984 9.95425 8.5271V8.32201C9.95425 4.24212 13.2734 0.922852 17.3534 0.922852C21.4334 0.922852 24.7525 4.24212 24.7525 8.32201V8.5271C24.7525 10.8985 23.5284 12.989 21.6791 14.201C26.4878 15.0496 30.1523 19.2578 30.1523 24.3062V28.0498C30.1523 30.9022 27.8317 33.2229 24.9793 33.2229H20.5707C20.1719 33.2229 19.7962 33.1222 19.4675 32.9451C18.3167 32.8197 17.2311 32.3333 16.3712 31.5597C16.0824 32.5207 15.1898 33.2229 14.1359 33.2229H9.72733C6.8749 33.2229 4.55428 30.9022 4.55428 28.0498V24.3062C4.55428 22.7401 4.89816 21.2363 5.57633 19.8368ZM17.3534 14.0447C19.3014 14.0447 20.8862 12.4599 20.8862 10.5119V8.87029C20.368 8.79692 19.5518 8.66299 18.6793 8.44926C17.2722 8.10449 16.2365 7.68566 15.5493 7.18079C15.0318 8.04702 14.2944 8.51367 13.8207 8.74021V10.5119H13.8205C13.8205 12.4599 15.4053 14.0447 17.3534 14.0447ZM23.4908 8.5271V8.32201C23.4908 4.93783 20.7376 2.18457 17.3533 2.18457C13.9691 2.18457 11.2159 4.93783 11.2159 8.32201V8.5271C11.2159 10.1588 11.9281 11.6271 13.0578 12.6382C12.739 11.997 12.5588 11.2753 12.5588 10.5119V8.3145C12.5588 8.03144 12.743 7.78427 13.0156 7.70812C13.0688 7.69241 14.3229 7.30746 14.7419 5.90046C14.8127 5.66256 15.0165 5.48832 15.2625 5.45526C15.509 5.42239 15.751 5.53658 15.8821 5.74722C16.5344 6.79552 19.7246 7.49338 21.5821 7.68699C21.9036 7.72036 22.1479 7.99125 22.1479 8.3145V10.5119C22.1479 11.2753 21.9677 11.997 21.6489 12.6382C22.7786 11.6271 23.4908 10.1588 23.4908 8.5271ZM7.10734 17.5327L7.08337 17.5601C6.85336 17.8218 6.87923 18.2204 7.14097 18.4503C7.26077 18.5556 7.40927 18.6072 7.55708 18.6072C7.73233 18.6072 7.90657 18.5347 8.03129 18.3927L8.0552 18.3654C8.28521 18.1036 8.25935 17.705 7.9976 17.4751C7.73592 17.2451 7.33723 17.2709 7.10734 17.5327ZM17.2982 19.6793C15.9185 18.2997 13.6737 18.2997 12.2939 19.6793C10.9142 21.059 10.9142 23.3039 12.2939 24.6836C12.9837 25.3734 13.8899 25.7183 14.7961 25.7183C15.7022 25.7183 16.6083 25.3734 17.2982 24.6836C18.6778 23.3039 18.6778 21.059 17.2982 19.6793ZM16.4059 23.7914C15.5181 24.6792 14.0736 24.6791 13.186 23.7914C12.2983 22.9037 12.2983 21.4591 13.186 20.5715C13.6299 20.1276 14.213 19.9057 14.7959 19.9057C15.3791 19.9057 15.9621 20.1276 16.406 20.5715C17.2936 21.4591 17.2936 22.9037 16.4059 23.7914ZM17.2122 11.6521C16.9657 11.4057 16.5664 11.4057 16.3201 11.6521C16.0738 11.8986 16.0738 12.298 16.3201 12.5444C16.6026 12.8269 16.9739 12.9682 17.3451 12.9682C17.7163 12.9682 18.0876 12.8269 18.3701 12.5444C18.6165 12.298 18.6165 11.8985 18.3701 11.6521C18.1237 11.4058 17.7243 11.4058 17.4779 11.6521C17.4048 11.7254 17.2855 11.7255 17.2122 11.6521ZM14.7098 22.4199C14.8019 22.4199 14.8768 22.345 14.8768 22.253C14.8768 21.9046 15.1593 21.6221 15.5077 21.6221C15.8561 21.6221 16.1386 21.9046 16.1386 22.253C16.1386 23.0408 15.4977 23.6817 14.7098 23.6817C14.3615 23.6817 14.079 23.3992 14.079 23.0508C14.079 22.7024 14.3615 22.4199 14.7098 22.4199ZM26.1223 21.5154C25.9564 21.5154 25.7936 21.5823 25.6764 21.7003C25.559 21.8176 25.4915 21.9797 25.4915 22.1463C25.4915 22.3122 25.559 22.4743 25.6764 22.5923C25.7936 22.7096 25.9564 22.7771 26.1223 22.7771C26.2882 22.7771 26.451 22.7096 26.5683 22.5923C26.6857 22.4743 26.7532 22.3122 26.7532 22.1463C26.7532 21.9798 26.6857 21.8176 26.5683 21.7003C26.451 21.5822 26.2882 21.5154 26.1223 21.5154ZM18.5339 9.63799C18.6512 9.52002 18.814 9.45315 18.9799 9.45315C19.1458 9.45315 19.3086 9.52002 19.4259 9.63799C19.5432 9.75533 19.6108 9.91809 19.6108 10.084C19.6108 10.2499 19.5433 10.4127 19.4259 10.53C19.3086 10.6474 19.1458 10.7149 18.9799 10.7149C18.8134 10.7149 18.6512 10.6474 18.5339 10.53C18.4166 10.4127 18.349 10.2499 18.349 10.084C18.349 9.91746 18.4166 9.75533 18.5339 9.63799ZM15.7106 9.45315C15.5447 9.45315 15.382 9.52002 15.2647 9.63799C15.1473 9.75533 15.0798 9.91746 15.0798 10.084C15.0798 10.2499 15.1474 10.4127 15.2647 10.53C15.382 10.6474 15.5447 10.7149 15.7106 10.7149C15.8766 10.7149 16.0393 10.6474 16.1567 10.53C16.2741 10.4127 16.3415 10.2499 16.3415 10.084C16.3415 9.91809 16.274 9.75533 16.1567 9.63799C16.0393 9.52002 15.8766 9.45315 15.7106 9.45315Z" fill="#97A0A7"/>
</svg>
