<svg width="34" height="34" viewBox="0 0 34 34" fill="none" xmlns="http://www.w3.org/2000/svg">
<g clip-path="url(#clip0_2997_16683)">
<path fill-rule="evenodd" clip-rule="evenodd" d="M17.0323 0.841797C21.3569 0.841797 25.4227 2.52586 28.4807 5.58384C31.5387 8.64188 33.2228 12.7076 33.2228 17.0323C33.2228 21.3569 31.5387 25.4227 28.4807 28.4807C25.4227 31.5387 21.3569 33.2228 17.0323 33.2228C12.7076 33.2228 8.64188 31.5387 5.58384 28.4807C2.52586 25.4227 0.841797 21.3569 0.841797 17.0323C0.841797 13.7413 1.82417 10.5732 3.68272 7.87061C3.88067 7.58279 4.27437 7.51006 4.56219 7.70789C4.84995 7.90578 4.92281 8.29954 4.72492 8.58736C3.01208 11.0781 2.10668 13.9983 2.10668 17.0323C2.10668 25.2623 8.80226 31.9579 17.0323 31.9579C25.2623 31.9579 31.9579 25.2623 31.9579 17.0323C31.9579 8.80226 25.2623 2.10668 17.0323 2.10668C13.9987 2.10668 11.0784 3.01214 8.58692 4.72523C8.29903 4.92306 7.9054 4.85021 7.70744 4.56244C7.50955 4.27462 7.58241 3.88086 7.87024 3.68297C10.5735 1.82429 13.7417 0.841797 17.0323 0.841797ZM30.0605 17.0323C30.0605 24.2161 24.2161 30.0606 17.0323 30.0606C9.84851 30.0606 4.004 24.2161 4.004 17.0323C4.004 9.84845 9.84851 4.00401 17.0323 4.00401C22.7194 4.00401 27.5664 7.66723 29.3394 12.7578C29.3408 12.7612 29.3418 12.7648 29.3432 12.7683C29.8074 14.105 30.0605 15.5395 30.0605 17.0323ZM28.7616 17.9319C28.7842 17.6349 28.7957 17.3349 28.7957 17.0323C28.7957 15.8145 28.6096 14.6393 28.2645 13.5337C27.5416 13.3791 26.8152 13.2395 26.086 13.1149C26.7727 14.7123 27.031 16.489 26.8257 18.2208C27.4505 18.0651 28.0977 17.9665 28.7616 17.9319ZM25.4794 18.6578C25.8533 16.6947 25.525 14.6205 24.5636 12.877C22.0695 12.5241 19.5494 12.3449 17.0323 12.3449C14.515 12.3449 11.9949 12.5242 9.50085 12.8771C8.53973 14.6203 8.21124 16.6949 8.58514 18.6578C11.472 19.8228 13.7104 22.2662 14.5956 25.2828C16.1783 25.7487 17.8861 25.7487 19.4689 25.2828C20.3541 22.2661 22.5926 19.8228 25.4794 18.6578ZM5.30297 17.9319C5.96684 17.9665 6.61395 18.0652 7.2388 18.2208C7.03358 16.4891 7.29199 14.7122 7.97857 13.1149C7.2493 13.2395 6.52294 13.3791 5.80006 13.5337C5.45494 14.6393 5.26888 15.8145 5.26888 17.0323C5.26888 17.3349 5.28039 17.6349 5.30297 17.9319ZM13.7436 28.1632C13.7436 23.4498 10.0937 19.5731 5.47189 19.2105C6.29261 23.5761 9.5326 27.0983 13.7416 28.3266C13.7426 28.2721 13.7436 28.2176 13.7436 28.1632ZM15.0085 28.1632C15.0085 28.3146 15.0045 28.4669 14.9978 28.6191C15.6589 28.7348 16.3386 28.7957 17.0323 28.7957C17.726 28.7957 18.4057 28.7348 19.0667 28.6192C19.06 28.4669 19.0561 28.3146 19.0561 28.1632C19.0561 27.6546 19.0939 27.1548 19.1658 26.6659C18.4651 26.8199 17.7486 26.8973 17.0323 26.8973C16.3157 26.8973 15.5994 26.8199 14.8987 26.6659C14.9706 27.1548 15.0085 27.6546 15.0085 28.1632ZM20.321 28.1632C20.321 28.2175 20.322 28.2721 20.323 28.3266C24.5319 27.0983 27.7719 23.5761 28.5927 19.2105C23.9709 19.5732 20.321 23.4499 20.321 28.1632ZM27.7247 12.1311C25.8627 8.08502 21.7704 5.26889 17.0323 5.26889C12.2942 5.26889 8.20188 8.08495 6.33979 12.1312C9.85616 11.4342 13.4472 11.0801 17.0322 11.0801C20.6173 11.0801 24.2082 11.4342 27.7247 12.1311ZM13.8701 17.0323C13.8701 18.776 15.2886 20.1945 17.0323 20.1945C18.7759 20.1945 20.1945 18.776 20.1945 17.0323C20.1945 15.2887 18.7759 13.8701 17.0323 13.8701C15.2886 13.8701 13.8701 15.2887 13.8701 17.0323ZM17.0323 15.135C18.0785 15.135 18.9296 15.9862 18.9296 17.0323C18.9296 18.0785 18.0785 18.9297 17.0323 18.9297C15.9861 18.9297 15.135 18.0785 15.135 17.0323C15.135 15.9862 15.9861 15.135 17.0323 15.135ZM6.47828 6.47824C6.35476 6.60176 6.1928 6.66361 6.03083 6.66361C5.86899 6.66361 5.70714 6.60195 5.58369 6.47837C5.33672 6.2314 5.3366 5.83113 5.58357 5.58416L5.58388 5.58385C5.83091 5.33688 6.23131 5.33688 6.47828 5.58385C6.72525 5.83082 6.72525 6.23128 6.47828 6.47824Z" fill="#97A0A7"/>
</g>
<defs>
<clipPath id="clip0_2997_16683">
<rect width="34" height="34" fill="white"/>
</clipPath>
</defs>
</svg>
