<svg width="24" height="24" viewBox="0 0 24 24" fill="none" xmlns="http://www.w3.org/2000/svg">
<rect width="24" height="24" rx="12" fill="#50A7EA"/>
<path fill-rule="evenodd" clip-rule="evenodd" d="M11.9956 7.12839L11.9992 7.12835L12.0028 7.12839C12.072 7.12917 12.1414 7.12957 12.211 7.12957C13.7174 7.12957 15.1439 6.94427 16.4289 6.61375C16.1933 5.94285 15.916 5.32823 15.6054 4.7819C14.5663 2.95452 13.2611 2.0493 12.004 2.04701L12.0042 1.19995C17.8959 1.20261 22.6845 5.92301 22.7972 11.7884H22.7992V12.6355H22.7808C22.4519 18.3043 17.7506 22.7999 11.9992 22.7999C6.24788 22.7999 1.54655 18.3043 1.21761 12.6355H1.19922V11.7884H1.20125C1.31394 5.92301 6.10252 1.20261 11.9942 1.19995L11.9944 2.04701C10.7373 2.0493 9.43217 2.95452 8.39308 4.7819C8.08242 5.32823 7.80517 5.94285 7.56957 6.61375C8.85456 6.94427 10.281 7.12957 11.7875 7.12957C11.857 7.12957 11.9264 7.12917 11.9956 7.12839ZM11.9992 21.9529C13.2577 21.9528 14.565 21.0476 15.6054 19.218C15.916 18.6717 16.1933 18.0571 16.4289 17.3862C15.1439 17.0556 13.7174 16.8703 12.211 16.8703C12.1407 16.8703 12.0701 16.8707 12.0002 16.8715H11.9983C11.9283 16.8707 11.8578 16.8703 11.7875 16.8703C10.281 16.8703 8.85456 17.0556 7.56957 17.3862C7.80517 18.0571 8.08242 18.6717 8.39308 19.218C9.43344 21.0476 10.7407 21.9528 11.9992 21.9529ZM11.9992 16.0244C12.0691 16.0237 12.1408 16.0233 12.211 16.0233C13.7974 16.0233 15.3115 16.22 16.6847 16.5774C17.0214 15.3884 17.2334 14.0559 17.2824 12.6355H11.9992H6.71602C6.76503 14.0559 6.97701 15.3884 7.31374 16.5774C8.68689 16.22 10.2011 16.0233 11.7875 16.0233C11.8577 16.0233 11.9293 16.0237 11.9992 16.0244ZM11.9992 11.7884H17.2921C17.2741 10.209 17.0547 8.72905 16.6847 7.4225C15.3115 7.77991 13.7974 7.97663 12.211 7.97663C12.1414 7.97663 12.0711 7.97624 12.0018 7.97549L11.9992 7.97546L11.9966 7.97549C11.9273 7.97624 11.857 7.97663 11.7875 7.97663C10.2011 7.97663 8.68689 7.77991 7.31374 7.4225C6.94371 8.72905 6.72433 10.209 6.70629 11.7884H11.9992ZM6.50012 7.18675C6.10598 8.57675 5.87722 10.1372 5.85918 11.7884H2.04848C2.09294 9.65618 2.80793 7.68881 3.9911 6.08862C4.73564 6.52173 5.57986 6.8919 6.50012 7.18675ZM5.86848 12.6355H2.06624C2.1903 14.6043 2.88676 16.4177 3.9911 17.9113C4.73564 17.4782 5.57986 17.108 6.50012 16.8132C6.13987 15.5427 5.91779 14.1298 5.86848 12.6355ZM4.53029 18.5786C5.19011 18.2063 5.93761 17.8832 6.7544 17.6212C7.32402 19.2614 8.13543 20.6136 9.10149 21.5245C7.31212 20.9808 5.73621 19.9467 4.53029 18.5786ZM4.53029 5.42131C5.19011 5.79356 5.93761 6.11669 6.7544 6.37871C7.32402 4.7385 8.13543 3.38632 9.10149 2.47542C7.31211 3.01912 5.73621 4.05325 4.53029 5.42131ZM17.4983 7.18675C17.8925 8.57675 18.1212 10.1372 18.1393 11.7884H21.95C21.9055 9.65618 21.1905 7.68881 20.0073 6.08862C19.2628 6.52173 18.4186 6.8919 17.4983 7.18675ZM18.13 12.6355H21.9322C21.8081 14.6043 21.1117 16.4177 20.0073 17.9113C19.2628 17.4782 18.4186 17.108 17.4983 16.8132C17.8586 15.5427 18.0806 14.1298 18.13 12.6355ZM19.4681 18.5786C18.8083 18.2063 18.0608 17.8832 17.244 17.6212C16.6744 19.2614 15.863 20.6136 14.8969 21.5245C16.6863 20.9808 18.2622 19.9467 19.4681 18.5786ZM19.4681 5.42131C18.8083 5.79356 18.0608 6.11669 17.244 6.37871C16.6744 4.7385 15.863 3.38632 14.8969 2.47542C16.6863 3.01912 18.2622 4.05325 19.4681 5.42131Z" fill="white"/>
</svg>
