<svg width="298" height="135" viewBox="0 0 298 135" fill="none" xmlns="http://www.w3.org/2000/svg">
<g opacity="0.98">
<rect width="298" height="134.958" fill="url(#paint0_radial_4725_105343)"/>
<path fill-rule="evenodd" clip-rule="evenodd" d="M50.289 131.705C53.0647 118.194 48.3535 126.893 49.5201 118.127C49.9928 114.573 46.0775 112.786 46.3343 118.244C46.6279 124.499 45.1762 122.943 45.2197 126.005C45.2401 127.49 45.5134 127.598 46.2303 128.984C46.202 127.068 45.992 126.075 46.9328 124.373C47.0361 124.186 47.1316 124.005 47.2211 123.829C47.9506 124.402 48.9065 123.91 47.0605 130.802C46.8116 131.694 47.3324 132.619 48.2238 132.868C49.1152 133.117 50.0402 132.596 50.289 131.705Z" fill="#50A7EA"/>
<path fill-rule="evenodd" clip-rule="evenodd" d="M38.4748 130.032C38.9976 123.453 44.3895 116.709 36.3575 116.761C35.8736 115.177 33.5549 108.024 31.9189 111.614C31.5733 112.371 31.5397 115.21 31.7662 116.836C20.873 118.099 29.6917 122.334 30.7576 130.24L31.0367 131.778C33.0368 122.389 22.7408 118.847 32.0401 118.832C33.3206 118.829 33.8697 118.5 34.0619 117.965C35.7796 121.515 36.4425 118.206 37.8158 119.632C37.8007 120.646 35.5675 126.168 35.1225 130.032C35.1225 130.957 35.873 131.708 36.7986 131.708C37.7243 131.708 38.4748 130.957 38.4748 130.032ZM34.0652 112.767C34.0994 112.693 34.1349 112.62 34.1758 112.548C34.1461 112.627 34.1093 112.7 34.0652 112.767ZM37.8211 119.638C37.8487 119.667 37.8764 119.697 37.904 119.729C37.856 119.691 37.8527 119.686 37.8211 119.638Z" fill="#50A7EA"/>
<path fill-rule="evenodd" clip-rule="evenodd" d="M27.0422 130.291C26.9718 124.927 26.8658 120.625 27.7052 115.271C28.484 110.298 25.5702 110.695 20.2908 110.583C16.1767 110.496 16.9931 111.576 17.342 115.636C17.7456 120.322 18.0932 125.032 18.8918 129.669L18.9174 129.667C18.7871 129.706 18.8509 129.675 18.7311 129.767C18.7969 129.827 18.8384 129.888 18.9345 129.88C19.7279 124.264 19.3388 118.52 19.2084 112.852C21.5239 112.974 22.7418 113.078 25.208 113.615C24.2521 115.731 23.7517 127.885 23.6905 130.291C23.6905 131.216 24.441 131.967 25.3667 131.967C26.2923 131.967 27.0422 131.216 27.0422 130.291Z" fill="#50A7EA"/>
<path fill-rule="evenodd" clip-rule="evenodd" d="M23.6654 105.973L23.5792 105.867C23.6246 105.846 23.6707 105.824 23.7181 105.8C24.9558 105.16 24.7735 104.4 24.0545 103.884C24.0868 103.857 24.1151 103.832 24.1388 103.81C23.5621 103.459 23.0683 103.324 22.6608 103.335C20.903 103.038 18.8917 103.977 20.9458 107.933C21.487 108.684 22.5343 108.854 23.2855 108.313C24.0361 107.772 24.2066 106.725 23.6654 105.973ZM23.042 104.709L23.0808 104.735C22.9827 104.827 23.0577 104.844 22.9149 104.921L22.8872 104.903C22.8965 104.861 22.9551 104.793 23.042 104.709Z" fill="#50A7EA"/>
<g opacity="0.4">
<path fill-rule="evenodd" clip-rule="evenodd" d="M223.595 12.5791C223.729 14.1183 223.863 15.6492 223.968 17.2479C222.878 17.2715 221.954 17.2374 221.167 17.2085C218.355 17.1049 217.303 17.0662 216.794 19.9544C216.765 18.9645 216.816 18.2019 216.856 17.5987C216.966 15.9323 216.996 15.4838 215.044 14.8246C215.005 14.3046 215.1 13.7354 215.191 13.1876C215.388 12.0086 215.568 10.9288 214.362 10.6519C210.384 9.73949 210.921 12.9458 211.167 14.4148C211.212 14.6852 211.247 14.8967 211.243 15.0128C210.96 15.1969 210.701 15.2622 210.415 15.3342C210.302 15.3626 210.185 15.3921 210.061 15.4303C207.735 16.1472 207.895 25.0212 210.567 25.6572C211.267 25.7303 211.895 25.2213 211.968 24.5208C212.002 24.1923 211.909 23.8796 211.727 23.6334L211.749 23.6341C212.138 23.6466 212.703 23.6647 213.592 23.719C215.208 23.8184 216.04 23.7482 216.456 23.2993C216.412 24.0188 216.372 24.8215 216.332 25.7168L216.332 25.7234C211.693 25.6891 207.085 25.6573 202.524 25.639C202.217 25.639 201.934 25.7478 201.714 25.9289C201.506 25.9208 201.298 25.9129 201.089 25.9054C200.384 25.9291 199.833 26.5189 199.856 27.2234C199.879 27.9272 200.469 28.4788 201.174 28.4558C204.499 28.5542 207.648 28.7332 210.767 28.9105L210.767 28.9105C215.555 29.1828 220.272 29.4509 225.446 29.417C237.375 29.339 249.302 29.16 261.23 28.981C272.841 28.8067 284.451 28.6325 296.065 28.5513L295.48 27.6217L296.065 26.8732L295.005 26.8685L294.957 26.7909C293.883 26.7194 292.815 26.6494 291.753 26.5812C291.774 26.2793 291.717 26.082 291.628 25.7728L291.628 25.7725L291.628 25.7721C291.543 25.4748 291.427 25.074 291.323 24.3775C291.186 23.4579 291.186 22.0433 291.185 20.6126V20.6118C291.185 19.2517 291.184 17.8771 291.067 16.8993C290.981 16.1855 289.916 15.6914 288.547 15.3558C288.636 15.277 288.726 15.1908 288.817 15.0967C290.111 13.7602 289.102 12.8313 287.88 12.4429C287.757 12.2342 287.573 12.0584 287.339 11.9445C284.919 11.0681 284.56 13.3514 285.347 14.8524C283.991 14.7237 282.796 14.6939 282.307 14.7135C280.107 14.8008 280.621 21.8854 280.952 24.8679C280.652 24.8693 280.345 24.8727 280.034 24.8777C280.541 24.2566 280.508 22.9116 280.305 20.2149C280.261 19.6364 280.228 19.0911 280.197 18.5793L280.197 18.5775C280.005 15.3892 279.892 13.5026 277.762 12.9863C277.793 12.7802 277.819 12.5228 277.845 12.2647C277.885 11.8671 277.926 11.4678 277.983 11.252C279.68 4.84466 277.583 5.11008 274.134 5.54662C273.231 5.66086 272.236 5.78681 271.192 5.80797C267.909 5.87493 269.64 11.744 270.263 13.6241C269.661 13.9631 269.444 14.5039 270.013 15.3885L269.97 15.3523C270.648 16.9232 270.508 21.6104 270.44 23.8686V23.8689V23.8695L270.44 23.8828C270.433 24.1202 270.426 24.3304 270.422 24.5068L270.236 24.5226L270.422 24.543C270.427 24.8446 270.536 25.1208 270.716 25.3369C270.226 25.371 269.75 25.4051 269.29 25.4384C260.719 25.1521 252.142 25.0754 243.127 25.3121C241.89 25.3447 240.639 25.3819 239.379 25.4194C234.173 25.5743 228.825 25.7334 223.724 25.586C224.134 25.6612 224.573 25.7282 225.036 25.7877C223.082 25.7739 221.131 25.7593 219.186 25.7447L218.884 25.7425L218.884 25.7168C218.881 25.4375 218.85 25.0363 218.815 24.5676L218.815 24.5672V24.5671C218.659 22.5145 218.406 19.1675 219.909 19.093C220.528 19.0623 221.067 19.0375 221.549 19.0153C222.569 18.9682 223.333 18.933 224.062 18.8794C224.132 20.2686 224.174 21.7236 224.174 23.2896C224.154 23.9934 224.708 24.5814 225.413 24.6011C226.116 24.6215 226.704 24.0665 226.724 23.3621C226.683 21.657 226.598 20.0962 226.485 18.6168C227.364 18.4944 228.43 18.324 229.893 18.0772L230.424 17.9825C230.635 19.5368 230.905 21.0292 231.433 22.8992C231.037 23.0093 230.013 23.1102 229.156 23.1944C228.646 23.2446 228.195 23.289 227.974 23.3259C228.757 23.4898 231.181 23.8762 231.956 23.4088C232.169 23.2802 231.94 20.606 231.646 17.7645L234.71 17.2182C234.232 18.7988 234.33 21.2922 234.664 22.916C234.116 22.9601 233.57 23.0076 233.025 23.0596C233.592 23.1116 234.16 23.1583 234.727 23.1992C234.852 23.7232 235.002 24.13 235.164 24.3447C235.654 24.8516 236.462 24.8654 236.968 24.3756C237.253 24.101 237.382 23.7258 237.354 23.3604C239.251 23.4568 241.148 23.5164 243.047 23.576C245.661 23.6581 248.277 23.7403 250.901 23.9187C252.124 24.0016 254.001 24.2713 255.796 24.5294C257.696 24.8024 259.504 25.0623 260.347 25.0735C263.002 25.1086 262.265 18.8702 261.766 17.323L261.971 17.3404L262.162 17.3568C263.439 17.4666 264.742 17.5787 266.582 17.5437C268.284 17.5115 266.828 9.76329 266.754 9.45847C266.222 7.26934 254.817 7.72877 248.795 7.97139C247.266 8.03296 246.084 8.08056 245.515 8.06737C243.877 8.02915 242.583 7.84725 241.569 7.70479C237.995 7.20233 237.911 7.19051 238.529 15.7042C237.36 15.7051 236.49 15.7164 236.059 15.736C235.404 15.7661 234.973 16.3521 234.713 17.2085C233.235 17.1217 232.259 17.0553 231.567 17.0081C231.482 16.1984 231.394 15.3922 231.312 14.6438L231.312 14.64L231.312 14.6394L231.312 14.6378L231.311 14.6364C231.126 12.94 230.974 11.5421 230.955 11.0771C230.941 10.7271 230.999 9.98835 231.072 9.05031V9.05015C231.337 5.64723 231.806 -0.378198 229.802 0.0186693C228.778 0.221568 227.868 0.314169 227.074 0.394974C224.252 0.682289 222.894 0.82048 223.077 5.23747C223.186 7.88148 223.392 10.2396 223.595 12.5788L223.595 12.5791ZM272.779 25.1993C273.548 25.1505 274.332 25.1039 275.119 25.0618C275.005 25.0516 274.888 25.0414 274.768 25.0315L272.937 24.8254C272.904 24.9596 272.85 25.0855 272.779 25.1993ZM286.742 26.2706C288.208 26.3578 289.681 26.449 291.165 26.5436C291.106 26.3717 291.05 26.2309 290.991 26.0807C290.864 25.7568 290.72 25.3894 290.48 24.5738C290.229 23.7218 289.677 18.7947 289.554 17.4213C288.177 17.2605 287.453 17.1116 286.882 16.9943C285.962 16.8053 285.443 16.6985 283.236 16.7571C283.249 17.6814 283.207 18.4999 283.166 19.3266C283.088 20.8676 283.008 22.4375 283.279 24.7765C283.306 24.8193 283.33 24.863 283.351 24.9075C284.103 24.9401 284.777 24.9939 285.345 25.0735C285.452 25.0652 285.558 25.0562 285.66 25.0466C285.817 24.8962 286.334 24.4966 286.844 24.1017C286.972 24.0024 287.1 23.9034 287.222 23.8087L287.121 23.7837C285.037 23.2761 284.797 22.4854 285.103 21.7408C284.603 21.5677 284.244 21.093 284.244 20.5347C284.244 19.8302 284.816 19.2588 285.52 19.2588C289.442 19.5689 288.487 21.2339 287.624 21.9633C288.925 22.5631 291.242 23.9055 287.271 24.9668C286.555 25.1579 286.548 25.157 286.102 25.1029C286.021 25.093 285.924 25.0813 285.806 25.0686L285.726 25.1059L285.682 25.1261C286.204 25.2163 286.617 25.3329 286.89 25.481C286.91 25.8077 286.856 26.0663 286.742 26.2706ZM228.47 16.9928C227.98 17.0272 227.32 17.0735 226.361 17.1312C226.21 15.4561 226.03 13.8629 225.847 12.2507L225.847 12.2497C225.688 10.8531 225.529 9.44222 225.385 7.95143C225.773 8.16782 226.126 8.30052 226.521 8.38038C225.512 9.55686 225.053 10.3363 227.298 11.0065L227.283 11.0223C226.605 11.7008 225.607 12.6987 228.508 14.1548L228.05 13.1614C227.494 12.0826 228.155 11.693 228.691 11.3769C229.31 11.0121 229.763 10.745 227.991 9.62991C228.922 8.79123 229.416 8.18449 229.608 7.73378C229.672 10.1066 229.749 12.5169 229.909 13.7724C230.003 14.5077 230.082 15.1831 230.157 15.8218L230.157 15.822L230.158 15.8258C230.202 16.2048 230.245 16.571 230.289 16.9291C230.119 16.9221 229.971 16.9191 229.824 16.9201C229.472 16.9224 229.121 16.9471 228.47 16.9928ZM225.14 5.06892L225.149 5.1928C225.532 5.12106 225.944 5.22531 226.252 5.51058C226.657 5.88786 227.352 6.07199 228.013 6.24699C228.69 6.42645 229.331 6.59632 229.587 6.95502L229.586 6.93103V6.93022C229.532 4.89197 229.481 2.98374 229.388 1.98455C228.211 2.27075 227.332 2.32136 226.686 2.35855C225.207 2.4437 224.951 2.45847 225.14 5.06892ZM231.477 23.0526C231.48 23.0915 231.491 23.1297 231.509 23.1645L231.477 23.0526ZM211.348 23.0079C212.784 22.9368 215.09 22.8137 215.38 22.744C216.088 22.5741 215.432 17.3283 215.337 16.6048C215.242 16.5605 215.226 16.5559 215.041 16.502L215.041 16.5019L214.948 16.475C213.99 16.1966 213.527 15.8621 213.331 15.4625C213.258 16.2058 212.751 16.8609 211.023 17.4606C210.806 18.5831 210.972 21.6478 211.348 23.0079ZM213.243 14.4454C213.27 14.27 213.308 14.086 213.348 13.8929C213.436 13.4684 213.533 13 213.536 12.4828C213.389 12.4976 213.356 12.5065 213.203 12.5473C213.16 12.5589 213.107 12.5731 213.038 12.5907C212.99 13.17 213.096 13.7063 213.196 14.206L213.197 14.2086C213.212 14.2884 213.228 14.3674 213.243 14.4454ZM213.521 12.0996L213.518 12.0628C213.518 12.0753 213.519 12.0871 213.521 12.0996ZM272.699 13.0804C273.085 13.0474 273.472 13.0247 273.834 13.0035L273.834 13.0035C274.242 12.9795 274.619 12.9574 274.929 12.9243C275.927 12.8177 276.727 12.8135 277.37 12.9102C277.175 12.2957 277.151 11.2523 277.173 11.0136C277.593 6.44414 277.285 6.52135 274.712 7.16648C273.892 7.37192 272.843 7.63496 271.514 7.82387C271.441 9.41512 271.978 11.0458 272.497 12.5245C272.611 12.6974 272.677 12.8879 272.699 13.0804ZM224.272 60.5766C222.776 60.5474 221.325 60.494 219.937 60.4111C219.411 59.3101 219.179 55.8005 219.424 54.3965C221.113 54.4142 222.832 54.4429 224.567 54.4798C224.674 55.493 224.747 56.2264 224.803 56.7863L224.803 56.7868C224.892 57.6891 224.937 58.141 225.011 58.5879C225.08 59.0026 225.174 59.4131 225.352 60.1752C224.036 60.2228 222.722 60.2848 221.414 60.3889C222.318 60.4626 223.278 60.5265 224.272 60.5766ZM226.068 63.0276C234.259 63.0215 243.502 62.3777 251.15 61.845L251.15 61.845L251.151 61.845C253.736 61.6649 256.138 61.4976 258.256 61.3719C258.746 61.3428 259.563 61.2866 260.616 61.2141C264.408 60.9532 271.25 60.4824 276.787 60.3185C278.633 60.4936 280.5 60.6345 282.41 60.7076C282.41 60.7076 288.409 61.838 286.091 59.3349C285.73 58.9447 284.501 58.702 282.725 58.5658C282.913 58.2819 282.987 57.9242 282.902 57.5667C282.739 56.882 282.051 56.4581 281.366 56.6207C278.346 57.1442 273.781 57.5464 268.801 57.9216C268.454 57.8924 268.109 57.8644 267.768 57.8376C267.7 56.503 267.654 55.2164 267.609 53.9566L267.609 53.9384V53.9371L267.608 53.9358L267.608 53.9343L267.608 53.9326L267.608 53.9308L267.608 53.9289L267.608 53.927L267.608 53.9249L267.608 53.9226L267.608 53.9202L267.608 53.9177C267.467 49.9686 267.336 46.2796 266.572 42.1912C269.478 42.8109 272.168 42.5339 274.915 42.2511C276.262 42.1124 277.624 41.9722 279.031 41.9358C276.692 47.0328 275.217 51.2383 277.417 56.7988L277.17 54.7908C276.775 49.6914 279.278 44.5032 280.383 42.2123C280.705 41.5444 280.909 41.1227 280.887 41.0213C280.671 40.018 275.582 40.3426 272.08 40.5659C270.649 40.6572 269.482 40.7316 269.022 40.6915C268.595 40.6542 268.05 40.5134 267.484 40.3669C265.849 39.9443 264.032 39.4742 264.327 41.3051C264.849 44.5524 265.03 47.3734 265.107 50.2014C264.875 49.9599 264.549 49.8096 264.188 49.8096C255.642 50.6444 262.721 55.5688 265.175 54.472C265.187 55.5003 265.2 56.5558 265.225 57.6569C263.016 57.5177 260.917 57.4352 258.852 57.415L258.864 57.1282C258.998 53.9964 259.173 49.9123 260.027 48.8172C262.369 45.8131 250.594 46.301 249.779 47.2135C249.608 47.4055 249.696 49.4374 249.85 51.8126C249.753 51.8064 249.7 51.8037 249.7 51.8037C248.995 51.8037 248.424 52.3752 248.424 53.0796C248.424 53.7841 248.995 54.3555 249.7 54.3555L249.833 54.3529C249.761 54.5282 249.82 54.7146 250.067 54.9112L250.09 55.2357C250.156 56.1391 250.218 56.9901 250.265 57.7053C248.231 57.8624 246.13 58.0844 243.894 58.3762C244.246 56.8405 244.558 55.4 244.492 55.2102C244.075 54.0208 237.867 53.2767 231.972 52.8293C231.967 52.6915 231.939 52.5523 231.886 52.4165C231.744 51.7187 231.63 50.9721 231.571 50.236C232.016 50.24 232.49 50.2493 232.982 50.2589H232.982C236.015 50.3185 239.736 50.3915 241.64 49.3084C241.701 50.0026 241.739 50.4761 241.767 50.8221L241.767 50.8265L241.767 50.8276L241.767 50.829C241.805 51.294 241.823 51.5275 241.856 51.759C241.889 51.9922 241.937 52.2233 242.032 52.687C242.101 53.0215 242.195 53.4769 242.326 54.1414C242.439 53.4658 242.52 53.005 242.58 52.6677C242.661 52.2081 242.701 51.9777 242.728 51.7458C242.755 51.5127 242.767 51.278 242.793 50.8075L242.793 50.8069C242.811 50.4634 242.836 49.9943 242.879 49.3084C242.329 49.1229 241.911 48.9764 241.579 48.8602C240.931 48.633 240.613 48.5216 240.286 48.4608C239.972 48.4024 239.648 48.3907 239.014 48.3678C238.488 48.3488 237.748 48.322 236.622 48.2544C235.608 48.1936 234.71 48.1133 233.922 48.0428C229.576 47.6541 228.53 47.5605 229.386 52.649C226.296 52.4513 223.569 52.3353 222.193 52.2767L222.193 52.2767C221.759 52.2583 221.46 52.2455 221.326 52.2377C220.887 52.2121 220.558 52.1849 220.302 52.1637C219.835 52.1251 219.613 52.1066 219.406 52.1552C219.218 52.1992 219.043 52.2986 218.709 52.4883L218.709 52.4884L218.709 52.4885C218.456 52.6325 218.111 52.8284 217.6 53.0916L218.339 52.2496C216.66 53.0155 216.555 57.3488 217.295 60.2088C215.872 60.073 214.541 59.8975 213.326 59.6752C212.802 59.5225 212.284 59.9571 212.168 60.6444C212.052 61.3324 212.382 62.0137 212.906 62.1665C216.497 62.7976 221.06 63.0295 226.009 63.0276L226.043 63.1791L226.068 63.0276ZM246.228 59.9226C247.439 59.731 248.831 59.5555 250.353 59.3918C250.351 59.2452 250.344 59.0593 250.333 58.8403C248.077 58.969 245.912 59.1642 243.653 59.4205L243.619 59.5653L243.501 60.0731C244.425 60.0236 245.335 59.973 246.228 59.9226ZM252.89 59.1393C254.642 58.9769 256.51 58.8253 258.429 58.6791L258.428 58.6714C257.98 58.6628 257.53 58.6582 257.077 58.6581C255.599 58.6575 254.208 58.6803 252.868 58.7255C252.876 58.8617 252.883 58.9996 252.89 59.1393ZM226.559 60.1348C226.693 59.3621 226.763 58.9481 226.808 58.5314C226.857 58.0825 226.877 57.6305 226.917 56.7238V56.7234V56.7231L226.917 56.7189C226.941 56.1819 226.972 55.4857 227.02 54.5369C230.939 54.6356 234.894 54.7688 238.704 54.9041L238.991 54.9141C240.569 54.9689 242.032 55.0196 243.495 55.5914C243.324 56.4496 243.195 57.0458 243.099 57.4881L243.099 57.4889L243.098 57.4897C242.996 57.9608 242.932 58.2572 242.896 58.5098C241.146 58.7501 239.31 59.032 237.358 59.358C234.076 59.9057 230.742 60.0072 227.413 60.1085C227.128 60.1172 226.844 60.1259 226.559 60.1348ZM252.609 55.2397C252.68 55.9712 252.743 56.7283 252.797 57.5414C254.628 57.4461 256.426 57.404 258.245 57.4109C257.848 54.4948 257.546 50.8024 258.498 48.5197C256.972 48.3472 253.474 48.444 251.717 48.6783C251.912 49.9172 252.082 51.0188 252.229 52.0792C254.234 52.4069 256.468 53.0931 254.967 54.4694C254.739 54.6781 254.321 54.8058 253.832 54.8848L253.952 54.9401C253.598 55.0443 253.119 55.1628 252.609 55.2397ZM237.448 60.2204C239.377 59.9509 241.161 59.7134 242.88 59.5101C242.89 59.6645 242.903 59.8426 242.919 60.0557L242.919 60.0599L242.923 60.1039C240.524 60.2305 238.042 60.3487 235.553 60.4383C236.206 60.377 236.84 60.3053 237.448 60.2204ZM258.955 16.426C254.735 15.9665 246.51 15.7632 241.075 15.7155C241.08 15.6471 241.079 15.5774 241.073 15.5068C241.053 15.296 241.032 15.0869 241.011 14.879L241.011 14.8722L241.01 14.8677C240.843 13.1849 240.684 11.5877 240.731 9.90157C244.287 10.2955 249.868 10.0721 254.84 9.87296C259.822 9.67346 264.193 9.49844 265.303 9.99371C265.539 11.3203 266.143 14.8234 266.116 16.3442C265.142 16.3259 264.332 16.2939 263.62 16.2657C261.79 16.1934 260.61 16.1467 258.955 16.426ZM237.138 22.7435C241.737 22.4703 246.4 22.4519 250.965 22.5915C251.636 22.6121 254.997 22.9279 257.51 23.164L257.51 23.164L257.511 23.1641C258.843 23.2893 259.937 23.392 260.264 23.4164L260.278 23.0402C260.34 21.4364 260.393 20.0433 260.253 18.3378C255.877 17.8275 246.903 17.9808 240.411 18.0918C239.198 18.1125 238.072 18.1318 237.079 18.1449C236.963 19.5393 236.914 22.0358 237.129 22.7297L237.138 22.7435ZM239.873 9.787C239.718 9.76265 239.565 9.73693 239.421 9.70927C239.57 9.76392 239.723 9.7903 239.873 9.787ZM273.042 24.2841L273.043 24.2841C273.911 24.2084 274.347 24.1704 274.783 24.1467C275.221 24.1229 275.66 24.1135 276.54 24.0946L276.541 24.0945C277.121 24.0821 277.892 24.0655 278.981 24.038C279.117 23.1104 278.876 21.084 278.781 20.3631C278.691 19.6738 278.617 19.0621 278.551 18.5205L278.551 18.5183C278.282 16.2887 278.156 15.2456 277.585 14.8555C277.083 14.5126 276.236 14.6743 274.645 14.9781C273.995 15.1021 273.222 15.2497 272.297 15.3965C273.014 17.7221 272.99 21.3729 272.976 23.5115V23.512C272.974 23.8015 272.972 24.0632 272.973 24.2902L273.042 24.2841ZM271.274 7.85679C271.206 7.866 271.139 7.87452 271.07 7.88308C271.145 7.88835 271.212 7.87917 271.274 7.85679ZM243.506 55.5328L243.522 55.4525C243.507 55.4762 243.503 55.5045 243.506 55.5328ZM219.428 54.3761L219.575 54.0706C219.545 54.1048 219.511 54.1371 219.473 54.1681C219.457 54.2306 219.442 54.2997 219.428 54.3761ZM219.345 54.2556C219.274 54.2991 219.189 54.3438 219.085 54.3958L219.092 54.3927C219.202 54.3424 219.277 54.3085 219.345 54.2556ZM258.812 47.8962C258.838 47.8534 258.864 47.8119 258.891 47.7718C258.858 47.8099 258.833 47.8521 258.812 47.8962ZM263.898 52.3534L263.69 52.3469C263.624 52.3835 263.558 52.4615 263.462 52.5769C263.428 52.6173 263.39 52.6623 263.347 52.7116C263.872 53.0224 264.424 53.208 264.586 52.8242C264.521 52.7771 264.461 52.7335 264.406 52.6933C264.161 52.5144 264.008 52.4034 263.898 52.3534ZM263.047 52.343C262.973 52.3463 262.899 52.3508 262.823 52.3574C262.915 52.4279 263.015 52.499 263.118 52.5681C263.083 52.4878 263.059 52.4127 263.047 52.343ZM262.317 51.9078C262.315 51.9022 262.313 51.8967 262.311 51.8911L262.305 51.8786L262.298 51.863L262.291 51.8742C262.298 51.8841 262.307 51.8959 262.317 51.9078ZM287.263 13.8577C287.278 13.8221 287.291 13.784 287.3 13.7431L287.287 13.7247C287.267 13.7569 287.262 13.779 287.259 13.7968C287.255 13.8158 287.252 13.8298 287.232 13.8458C287.214 13.843 287.199 13.8384 287.185 13.8342C287.153 13.8247 287.127 13.8167 287.085 13.8326L287.082 13.8452C287.123 13.8709 287.189 13.8702 287.263 13.8577ZM244.924 12.4859C244.91 12.4905 244.897 12.4958 244.884 12.5011L244.924 12.4859ZM247.677 11.5774C249.264 11.1501 250.905 10.9263 250.746 11.8986C251.283 11.8381 251.8 11.792 252.141 12.3654L252.126 12.3517C252.102 12.3299 252.088 12.3167 252.052 12.3062C252.199 12.59 255.241 12.5485 255.241 12.5485L257.81 13.1587C257.515 13.2054 257.132 13.2863 256.696 13.3783C254.944 13.7482 252.335 14.299 251.136 13.5425C250.206 13.6841 249.089 13.7519 248.632 13.2845L246.38 14.3629C244.007 15.617 242.481 13.6657 246.13 11.0349C246.718 10.8124 247.367 11.054 247.677 11.5774ZM250.827 13.2825C250.809 13.2614 250.79 13.2397 250.773 13.2174C250.79 13.2404 250.809 13.2621 250.827 13.2825ZM248.637 11.9125C248.665 11.8499 248.697 11.7848 248.731 11.7176C248.675 11.7788 248.646 11.8447 248.637 11.9125ZM241.899 19.6938C241.599 19.6233 241.296 19.5603 240.665 19.4287L240.664 19.4285L240.664 19.4284C240.292 19.3509 239.806 19.2497 239.14 19.1092C238.5 18.8136 237.742 19.0927 237.446 19.732C237.151 20.3713 237.429 21.1297 238.069 21.4253C239.118 21.4464 239.831 21.4773 240.35 21.4998C241.043 21.5298 241.391 21.5449 241.732 21.5019C242.076 21.4585 242.412 21.3559 243.087 21.1499L243.088 21.1498C243.571 21.0025 244.227 20.8024 245.183 20.5332C244.13 20.2652 243.457 20.0909 242.986 19.9687L242.984 19.9683L242.983 19.9679L242.981 19.9675L242.981 19.9674L242.978 19.9666L242.977 19.9665L242.977 19.9663L242.976 19.9661L242.975 19.9659C242.449 19.8296 242.175 19.7585 241.899 19.6938ZM276.191 16.722C276.154 16.8531 276.048 17.25 275.964 17.7082L275.975 17.7129C280.946 19.8249 272.658 24.935 273.715 16.1084C273.885 15.4251 274.577 15.0077 275.261 15.1775C275.944 15.3467 276.361 16.0387 276.191 16.722ZM275.848 18.701C275.841 19.0697 275.894 19.3792 276.059 19.5102L276.079 19.5069C276.23 19.2936 276.079 18.9934 275.848 18.701ZM286.937 21.646L286.957 21.6697L286.947 21.6647L286.94 21.6613C286.936 21.6592 286.933 21.6573 286.93 21.6557C286.928 21.6543 286.927 21.653 286.926 21.6519L286.937 21.646ZM287.926 23.2451C287.99 23.1898 288.027 23.1537 288.027 23.1425C287.98 23.1721 287.947 23.207 287.926 23.2451ZM286.115 20.3431C286.195 20.247 286.263 20.1608 286.309 20.0864C286.226 20.1634 286.161 20.2503 286.115 20.3431ZM227.643 10.6128C227.658 10.5865 227.672 10.5608 227.681 10.5358C227.665 10.5615 227.653 10.5871 227.643 10.6128ZM227.535 7.18675L227.553 7.1657L227.547 7.1637L227.535 7.18675ZM15.8629 74.0707C19.1276 71.2325 22.8263 68.4516 25.8211 66.5773C26.6276 66.5252 27.2392 65.8294 27.1872 65.0229C27.1352 64.2171 26.4387 63.6055 25.6328 63.6575C22.0955 65.277 8.90727 74.6994 8.12645 78.2019C7.65441 80.3198 9.2977 80.2428 11.3485 79.4521C9.94816 81.096 9.52481 82.4582 10.779 83.2285C14.1536 82.3773 20.255 79.2308 26.4517 76.0352L26.4518 76.0351C30.7607 73.8131 35.1156 71.5673 38.6321 70.0527C30.2585 74.6132 18.9735 80.7636 19.0828 81.9045C19.3464 84.6501 37.3271 76.4458 43.3047 73.7183L43.3048 73.7182C44.1944 73.3123 44.8181 73.0277 45.0781 72.9186C45.149 72.8887 45.467 72.774 45.9392 72.6037L45.9393 72.6036L45.9397 72.6035C46.686 72.3343 47.8176 71.9261 48.9689 71.4939C44.4414 74.3183 38.4365 78.3369 45.9629 76.7397C47.1438 76.4891 47.9982 76.3046 48.6492 76.164C49.7292 75.9307 50.2497 75.8183 50.7737 75.7258C51.2609 75.6398 51.7512 75.571 52.6973 75.4384L52.6977 75.4383L52.6981 75.4383L52.6985 75.4382C53.3767 75.3431 54.289 75.2152 55.6019 75.0247L50.7156 75.29C50.7098 75.2906 50.6328 75.3053 50.4984 75.3308L50.4889 75.3326L50.4859 75.3332L50.4848 75.3334L50.4846 75.3335L50.4843 75.3335C49.3354 75.552 44.2625 76.5167 43.2221 76.4651C43.8329 75.6129 46.0236 74.4115 48.2456 73.1929C51.2023 71.5714 54.2142 69.9196 53.6327 69.0198C53.2177 68.3767 43.7646 72.0895 34.8592 75.5871C31.8852 76.7552 28.9723 77.8992 26.4775 78.8491C28.5343 77.7319 30.6103 76.6392 32.6871 75.546C38.8928 72.2795 45.1062 69.009 50.8381 65.0717L50.5102 64.8866C50.7255 64.7596 50.9434 64.6279 51.1659 64.4903C50.9223 62.7602 49.6918 63.3414 48.5812 64.1519C43.9846 64.6404 24.0159 74.5045 15.3737 78.8253C18.3251 76.4539 22.9586 73.4808 26.8601 71.0943C29.105 69.8691 31.271 68.6188 33.0143 67.4325L33.3356 67.2462L33.3376 67.2093C33.8886 66.8255 34.3923 66.4483 34.8367 66.0816L33.7997 66.8544L33.3837 66.4193L33.5061 64.2954C32.8971 64.4482 32.7898 64.5278 32.4692 65.0677C32.3994 65.0492 32.2829 65.0631 32.1276 65.1052L32.0498 65.0242C31.9517 65.0821 31.7832 65.1796 31.56 65.308C29.6851 66.0827 25.4062 68.5622 21.0744 71.0724L21.0743 71.0725C19.2915 72.1056 17.4997 73.1439 15.8629 74.0707ZM219.85 80.3452C221.907 78.8448 236.779 70.9169 238.782 74.158C239.551 75.4023 237.905 76.9744 235.748 78.4525C235.985 78.3722 236.225 78.2907 236.467 78.2081L237.406 77.8881C247.094 74.5849 260.513 70.0097 258.493 74.4345C257.666 76.245 250.191 80.3387 244.634 83.1979C254.548 80.8798 267.699 76.4326 275.825 73.3298C276.534 72.9993 277.062 72.7906 277.353 72.7406C278.199 72.5938 278.512 73.499 277.82 73.9684C277.089 74.4648 275.628 75.1291 273.682 75.8928C271.002 77.2378 268.026 78.8679 265.04 80.5042C258.962 83.8345 252.837 87.1901 249.06 88.2192C251.055 87.2548 255.565 84.6591 260.424 81.862C262.329 80.7655 264.288 79.6379 266.171 78.5657C255.743 82.0293 241.801 85.9334 237.846 86.4877L237.988 84.7029L237.846 84.4949C237.882 84.4904 237.919 84.4853 237.956 84.4802L238.007 84.4731L238.022 84.2749C239.745 83.3934 249.814 78.2089 254.327 75.183C250.613 76.0729 245.461 77.8765 241.653 79.2096C240.556 79.5937 239.571 79.9387 238.764 80.2116C238.61 80.2635 238.301 80.3884 237.879 80.559L237.877 80.5597L237.877 80.5598C235.019 81.7153 226.984 84.9634 226.814 81.8937C226.763 80.9766 228.603 79.5697 230.729 78.1739C229.75 78.5941 228.774 79.0347 227.846 79.4541C225.569 80.4824 223.575 81.3834 222.501 81.5447C222.169 82.2768 221.307 82.6014 220.576 82.2703C219.844 81.9391 219.519 81.0773 219.85 80.3452ZM61.6786 51.1295C62.5282 51.0556 63.3615 50.9722 64.1741 50.8784C64.1905 50.8438 64.2065 50.8064 64.2219 50.7665C63.4174 50.8966 62.5634 51.0195 61.6786 51.1295ZM65.3781 41.8654C67.2631 42.5846 67.6627 47.3492 67.0321 50.4882C68.6621 50.227 70.17 49.9102 71.5105 49.5265C71.9733 49.3322 72.4724 49.7713 72.6238 50.5074C72.7759 51.2434 72.5243 51.9979 72.0609 52.1928C68.2843 53.2403 63.2476 53.7656 57.8369 54.0069L57.8065 54.1977L57.7633 54.0102C51.6784 54.2785 45.1261 54.1893 39.3648 54.0806L39.3658 54.2175C39.3564 54.1767 39.3452 54.1307 39.3323 54.08C38.7109 54.0683 38.0988 54.0563 37.4975 54.0445L37.4693 54.044H37.4691H37.4688H37.4686H37.4683H37.468H37.4678H37.4675H37.4673C35.1193 53.9981 32.9369 53.9554 31.0143 53.9414C30.5721 53.9381 29.8341 53.9244 28.8842 53.9067H28.8841C25.4415 53.8428 19.2151 53.7271 14.1926 53.869C12.5362 54.1639 10.8581 54.4233 9.13647 54.6123C9.13647 54.6123 3.79124 56.1771 5.7143 53.3416C6.37529 52.3666 10.8969 51.9242 16.1525 51.7339C17.467 51.4832 18.7232 51.2529 19.9335 51.0434C19.9103 50.8867 19.9054 50.7228 19.9217 50.5577C19.9232 50.542 19.9249 50.5265 19.9268 50.5111C19.9071 49.1585 19.8706 47.8516 19.8347 46.57L19.8347 46.57L19.8347 46.5696L19.8347 46.5693L19.8347 46.5689C19.8244 46.201 19.8142 45.8353 19.8045 45.4711C18.2708 47.4815 13.514 49.0933 14.0913 45.3323C14.138 45.0281 14.3757 44.7787 14.699 44.5983C14.5363 44.3883 14.4329 44.1288 14.4152 43.8437C14.3665 43.0833 14.9445 42.4269 15.7049 42.3789C17.862 42.452 19.1237 42.8213 19.7555 43.3325C19.7011 40.2227 19.7429 37.1616 20.1474 33.8378C17.0525 34.7065 14.1296 34.5922 11.1444 34.4755C9.67946 34.4182 8.19947 34.3603 6.67674 34.4178C9.5531 39.761 11.4341 44.2016 9.43991 50.3566L9.56894 48.1715C9.64488 42.6381 6.58689 37.208 5.23619 34.8096C4.84212 34.1099 4.59337 33.6682 4.61018 33.5573C4.77469 32.4585 10.2929 32.4596 14.0898 32.4604C15.6413 32.4607 16.9053 32.461 17.3994 32.3861C17.8579 32.3166 18.4365 32.1272 19.0385 31.9301C20.7744 31.3617 22.7048 30.7296 22.5122 32.7265C22.0192 37.8417 22.2347 41.9481 22.4738 46.5036C22.5284 47.5437 22.5843 48.6072 22.6332 49.7115C23.2098 49.7836 23.8291 49.848 24.4832 49.9064C24.4781 49.8586 24.473 49.8106 24.4679 49.7624L24.4677 49.7609L24.4673 49.7574C24.1077 46.3848 23.6387 41.9865 22.6418 40.8626C19.9057 37.7789 32.6554 37.4978 33.5975 38.4274C33.8886 38.7146 33.8464 43.3315 33.8119 47.1062L33.8119 47.1068C33.8039 47.9764 33.7964 48.8013 33.7934 49.5182C35.1733 49.4808 36.5633 49.4821 37.9919 49.523C37.5985 48.1778 37.2892 47.0366 37.3393 46.8578C37.5293 46.1813 39.3875 45.527 42.0109 44.9301C41.899 44.4571 41.8135 44.1044 41.7466 43.8285C41.6264 43.3325 41.5664 43.0852 41.5216 42.8352C41.4771 42.5867 41.4475 42.3355 41.3885 41.8345C41.3449 41.464 41.2852 40.9568 41.1914 40.2132C41.7714 39.9756 42.2122 39.789 42.5619 39.641C43.2476 39.3507 43.5834 39.2085 43.9329 39.1204C44.2683 39.0359 44.6162 39.0011 45.2981 38.933C45.8649 38.8764 46.6623 38.7968 47.875 38.6463C48.9662 38.511 49.9296 38.3628 50.7764 38.2324L50.7765 38.2324C55.3996 37.5208 56.5449 37.3446 56.0062 42.7429C58.2415 42.4764 60.1167 42.2767 61.2087 42.1604L61.2095 42.1604L61.2095 42.1603L61.2111 42.1602L61.214 42.1599L61.2143 42.1598C61.684 42.1098 62.0079 42.0753 62.1521 42.0577C62.6236 42 62.9761 41.9482 63.2502 41.9079L63.2503 41.9079L63.2504 41.9078L63.2509 41.9078L63.2513 41.9077L63.2517 41.9077L63.2518 41.9076C63.7534 41.8338 63.9923 41.7987 64.2189 41.8369C64.4248 41.8716 64.6206 41.9669 64.9944 42.1488C65.2779 42.2869 65.6639 42.4748 66.2346 42.7239L65.3781 41.8654ZM25.1592 49.9636C25.3851 46.7965 25.4496 42.8217 24.2719 40.436C25.9086 40.1457 29.6915 40.0094 31.606 40.1417C31.4907 41.38 31.3903 42.4923 31.3075 43.5588C30.1202 43.7119 23.3838 44.6856 25.9784 46.7769C26.2384 46.9869 26.698 47.0961 27.2326 47.1475L27.1055 47.2153C28.1298 47.4478 30.0938 47.7266 31.1006 47.0714C31.0701 47.8908 31.0521 48.7361 31.0478 49.6439C29.561 49.7394 28.0639 49.8794 26.5208 50.0631C26.0547 50.0321 25.6001 49.9991 25.1592 49.9636ZM48.798 51.6699C47.7429 51.4072 46.3666 51.2066 44.7821 51.047C46.3507 51.1678 47.9808 51.3218 49.7439 51.5022C50.2996 51.5588 50.8776 51.6003 51.4721 51.6286C50.5785 51.6469 49.6857 51.6603 48.798 51.6699ZM53.2181 43.0885C49.4925 43.5694 45.3217 44.1893 42.1876 44.8903C42.2503 44.4251 42.2992 44.0755 42.3377 43.8008C42.4085 43.2956 42.4439 43.0433 42.4637 42.7897C42.4834 42.5364 42.4876 42.2819 42.4959 41.7733C42.5021 41.3976 42.5105 40.8832 42.5292 40.1283C44.6608 41.1683 48.677 40.8333 51.9491 40.5604H51.9491L51.9499 40.5603C52.4783 40.5162 52.9873 40.4738 53.4658 40.439C53.4526 41.2376 53.3816 42.052 53.2756 42.8157C53.2468 42.9063 53.2278 42.9976 53.2181 43.0885ZM39.0011 49.2249C39.0361 49.3478 39.0679 49.4595 39.0967 49.5621C42.3218 49.6979 45.7736 50.0297 49.7656 50.5653C52.1766 50.8887 54.5971 50.8998 57.0178 50.8492C56.8353 50.0856 56.7365 49.6607 56.6622 49.2316C56.5788 48.7503 56.5261 48.2636 56.4205 47.2873C56.3578 46.7081 56.2765 45.9565 56.1591 44.9316C51.9344 45.3071 47.6734 45.7224 43.5694 46.1303L43.2663 46.1602C41.5626 46.3277 39.9851 46.4828 38.4427 47.2014C38.6859 48.1175 38.8667 48.7527 39.0008 49.2239L39.001 49.2248L39.0011 49.2249ZM58.8039 44.7015C60.6748 44.5426 62.5304 44.3936 64.3537 44.2585C64.712 45.7469 64.7056 49.5072 64.2239 50.7614C62.422 50.706 60.615 50.7551 58.8068 50.8043L58.3621 50.8163C58.4924 50.0384 58.562 49.6052 58.6061 49.1693C58.6553 48.6821 58.6727 48.1916 58.7073 47.2129L58.7073 47.2122C58.7289 46.6032 58.7571 45.8053 58.8039 44.7015ZM38.4263 47.1389L38.4039 47.0533C38.4223 47.0776 38.4276 47.1086 38.4263 47.1389ZM64.3484 44.2362L64.168 43.9169C64.2029 43.9524 64.2411 43.9841 64.2846 44.015C64.307 44.0815 64.328 44.1552 64.3484 44.2362ZM64.4294 44.1012C64.5097 44.1427 64.6045 44.1855 64.7197 44.2342L64.7121 44.2314L64.7121 44.2313C64.5892 44.1849 64.5061 44.1535 64.4294 44.1012ZM23.8894 39.7842C23.8591 39.7401 23.8282 39.6973 23.7966 39.6552C23.8341 39.6947 23.865 39.7381 23.8894 39.7842ZM16.1927 45.1059L16.4166 45.0848C16.4907 45.1194 16.5667 45.1992 16.6792 45.3175C16.7186 45.3589 16.7625 45.4049 16.8123 45.4554C16.2665 45.8267 15.6825 46.0644 15.4817 45.6615C15.5497 45.6054 15.6121 45.5535 15.6695 45.5057L15.67 45.5053C15.9209 45.2967 16.0771 45.1669 16.1927 45.1059ZM17.1105 45.036C17.1908 45.0347 17.2711 45.034 17.3534 45.0367C17.2586 45.119 17.156 45.2026 17.0493 45.2843C17.0822 45.1954 17.1026 45.1124 17.1105 45.036ZM17.8689 44.5166C17.8742 44.5002 17.8795 44.4837 17.8861 44.4666L17.8946 44.4778C17.888 44.4896 17.8794 44.5021 17.8689 44.5166Z" fill="#50A7EA"/>
</g>
<path fill-rule="evenodd" clip-rule="evenodd" d="M150.051 91.2855C153.693 93.092 155.359 93.7076 158.779 90.4941C159.511 94.6168 151.683 97.4346 150.051 91.2855Z" fill="#3B636B"/>
<path fill-rule="evenodd" clip-rule="evenodd" d="M148.143 26.8443C141.971 16.1052 165.753 9.41896 161.939 28.1486C159.705 39.1207 142.892 30.3837 140.325 47.5398C140.281 48.0257 139.851 48.3831 139.366 48.339C138.88 48.2943 138.521 47.8644 138.566 47.3785C141.315 29.0321 158.33 37.0785 160.204 27.8135C162.892 14.5298 148.14 15.8794 149.188 24.4328C150.116 32.0137 158.761 24.9957 152.739 24.5177C152.251 24.5177 151.855 24.1227 151.855 23.6348C151.855 23.147 152.251 22.7513 152.739 22.7513C161.426 23.4735 152.93 35.1732 148.143 26.8443Z" fill="#3B636B"/>
<path fill-rule="evenodd" clip-rule="evenodd" d="M104.414 78.2249C109.674 81.3435 114.843 82.7728 119.844 83.1276C124.714 83.4726 129.424 82.8274 133.968 79.6884C138.238 76.1681 142.457 73.2108 146.454 72.7309C149.257 72.3938 151.204 73.0192 152.417 74.2313C153.386 72.8165 155.185 71.8421 158.002 71.6558C162.018 71.3904 166.71 73.5183 171.557 76.1892C176.602 78.4362 181.35 78.2012 186.073 76.9628C190.922 75.6915 195.739 73.3326 200.333 69.2969C193.997 87.6117 171.501 98.8196 154.973 85.1021C154.293 84.3311 153.699 83.5154 153.204 82.6826C152.871 83.5931 152.438 84.5043 151.912 85.3871C138.199 101.919 114.021 95.0558 104.414 78.2249Z" fill="#3B636B"/>
<path fill-rule="evenodd" clip-rule="evenodd" d="M139.743 62.2607C140.378 62.2607 140.893 62.7749 140.893 63.4096C140.893 64.0449 140.378 64.5591 139.743 64.5591C139.109 64.5591 138.594 64.0449 138.594 63.4096C138.594 62.7749 139.109 62.2607 139.743 62.2607Z" fill="black"/>
<path fill-rule="evenodd" clip-rule="evenodd" d="M161.555 61.1113C162.19 61.1113 162.705 61.6261 162.705 62.2608C162.705 62.8955 162.19 63.4096 161.555 63.4096C160.92 63.4096 160.406 62.8955 160.406 62.2608C160.406 61.6261 160.92 61.1113 161.555 61.1113Z" fill="black"/>
<path fill-rule="evenodd" clip-rule="evenodd" d="M133.657 104.864C133.27 107.29 133.477 108.252 133.777 108.42C134.061 107.483 134.415 106.759 134.658 106.737C135.487 106.665 135.261 107.426 134.75 108.063C134.463 109.473 134.072 110.011 133.831 111.666C134.247 111.607 134.654 111.448 135.036 111.223C135.675 110.11 136.574 109.239 137.246 108.8C137.292 108.709 137.335 108.619 137.373 108.531C137.358 108.594 137.362 108.657 137.381 108.715C138.289 108.176 138.673 108.532 137.136 110.324L136.998 110.482C136.76 110.894 136.507 111.344 136.268 111.785C136.774 111.228 137.306 110.657 137.757 110.231L137.786 110.173V110.205C138.746 109.304 139.326 109.088 138.473 111.128C139.12 109.93 139.687 109.474 140.246 110.685C141.102 112.536 137.612 119.561 136.049 123.627C138.294 120.604 139.958 116.16 140.745 113.023L140.738 113.058L140.84 113.127C140.969 112.783 141.062 112.563 141.11 112.501L142.45 113.401C142.179 114.585 141.876 115.667 141.524 116.686C140.537 120.197 139.357 124.486 138.391 128.39C138.819 127.585 139.26 126.774 139.707 125.967C141.88 120.744 144.231 115.897 145.889 114.756C146.379 113.75 146.729 112.915 146.882 112.308C147.226 110.947 152.196 109.384 149.217 114.361C146.027 119.69 144.548 126.67 142.749 133.691H139.851C140.045 132.967 140.236 132.241 140.424 131.513C140.14 132.255 139.861 132.984 139.585 133.691H135.182C135.573 131.259 136.454 127.719 137.421 124.225C132.166 131.384 133.978 124.913 136.151 118.823C135.994 118.958 135.832 119.082 135.664 119.191C133.061 120.875 134.793 116.469 136.287 113.239C135.26 114.345 134.251 115.144 134.244 113.999C134.241 113.536 134.31 113.086 134.429 112.654C133.019 113.11 133.161 110.749 133.649 108.874C132.995 108.997 132.602 108.155 133.657 104.864ZM142.763 133.691C146.053 127.372 148.76 120.782 149.945 114.023C150.427 111.277 154.053 109.696 153.625 116.187L153.793 115.789H153.808C154.075 115.126 154.39 114.347 154.77 113.418C155.158 112.47 155.788 112.437 156.578 112.367C156.663 113.484 156.688 114.477 156.662 115.374C156.869 115.166 157.148 114.863 157.596 114.43C158.065 113.06 158.107 113.094 159.971 113.004C160.214 113.316 160.316 113.853 160.304 114.57C162.203 109.824 164.249 110.704 163.402 114.318C163.168 115.313 162.359 118.338 161.226 122.234C162.3 120.349 163.272 118.794 164.046 117.781L164.053 117.748L164.055 117.767C166.261 114.882 166.853 116.406 163.648 127.168C163.647 127.17 162.796 129.644 161.612 132.888C162.164 132.509 162.497 132.69 162.467 133.691H159.753C160.636 130.948 161.441 128.145 162.143 125.512C160.849 128.045 159.364 130.887 157.905 133.691H155.31L155.497 133.299C155.807 132.397 156.114 131.484 156.415 130.568C155.867 131.557 155.274 132.61 154.663 133.691H142.763ZM137.53 113.141C137.305 113.583 136.309 115.435 135.741 116.915C136.415 115.72 137.002 114.348 137.53 113.141Z" fill="#45CDC3"/>
<path fill-rule="evenodd" clip-rule="evenodd" d="M98.8665 32.2962C98.6657 32.9657 98.4227 33.7814 98.1923 34.5708C98.7051 33.5332 99.3898 32.1606 100.186 30.6088C99.7427 31.175 99.3023 31.7373 98.8665 32.2962ZM97.1297 37.3794C97.1166 37.3846 97.1027 37.3919 97.0902 37.4011L97.1422 37.3076C97.181 37.0996 97.2456 36.8303 97.3397 36.4959C97.2897 36.5169 97.2423 36.5485 97.1988 36.5926C97.2179 36.5584 97.3147 36.3602 97.4773 36.0271C97.7288 35.1976 98.1166 34.0586 98.665 32.5529C98.1679 33.1896 97.6761 33.8209 97.1909 34.4451C97.2693 34.0421 97.3621 33.6432 97.4668 33.2468C96.7367 33.8953 95.9947 34.503 95.2422 35.0633C96.2107 33.4082 97.4358 31.522 98.8269 29.5199C101.541 23.6342 106.507 18.3456 109.953 13.1077C110.133 12.8339 116.562 1.47589 116.223 7.68419C116.196 8.17796 116.127 8.6921 116.023 9.22207L116.845 9.36037C119.069 6.6927 120.687 5.69859 121.066 7.91462C121.252 8.99827 120.698 10.5454 119.681 12.4046C122.559 9.25175 124.887 7.31749 125.812 7.99691C126.927 8.81393 126.364 10.6231 124.831 13.0031C126.101 12.1669 127.098 11.8496 127.683 12.2624C127.988 12.4777 128.173 12.7732 128.259 13.134C129.379 12.8292 130.154 13.2631 130.429 14.7069C131.032 17.8736 127.118 22.669 122.549 27.637C122.261 27.5125 121.952 27.4 121.619 27.3006C120.505 26.8727 119.256 27.4289 118.829 28.5422C118.401 29.6555 118.957 31.096 120.07 31.5233C122.234 32.7109 122.895 33.6327 124.139 34.2983C122.744 35.7914 121.293 37.4024 119.661 39.3636C119.241 40.4796 119.806 41.7252 120.923 42.1446C122.039 42.5639 123.284 41.9984 123.703 40.8825C123.819 40.76 125.508 39.047 127.5 36.9633C128.119 37.6164 128.787 38.388 129.572 39.3235C128.615 40.3236 127.658 41.3341 126.727 42.3322C125.822 43.6818 124.887 45.0433 123.963 46.3409C125.675 44.1697 127.67 41.7581 129.636 39.3998C129.909 39.7244 130.195 40.0681 130.499 40.4335C131.291 41.3249 132.656 41.4039 133.547 40.6112C133.743 40.4368 133.9 40.2347 134.016 40.0161C135.036 38.9811 136.037 37.935 136.981 36.9001C139.102 33.9493 141.176 31.0262 143.207 28.3941L143.215 28.3796L143.211 28.3875L143.325 28.2407L144.063 28.6818C142.504 32.9506 138.685 37.2279 134.523 41.3683C130.919 45.9676 127.217 50.2641 124.455 52.1016C126.818 49.9441 129.122 47.2968 131.372 44.4409C130.372 45.4054 129.38 46.3593 128.42 47.3021C124.711 51.9402 121.588 55.2248 121.912 52.6664C122.011 51.8922 123.837 49.9803 126.381 47.4911C127.736 45.7596 129.281 43.7239 130.845 41.6159C130.54 41.9451 130.221 42.2874 129.886 42.6475L120.487 53.9232C119.121 54.4637 118.936 53.9271 119.53 52.6901L119.318 52.6171C119.755 52.0074 120.192 51.4156 120.627 50.8395C120.738 50.6729 120.855 50.5011 120.977 50.3246C118.039 53.9884 115.753 55.8924 115.764 52.9265C115.768 51.6513 119.1 47.362 123.359 42.5863C124.193 41.3618 125.042 40.1004 125.872 38.8554C122.314 42.6554 118.811 46.2435 114.994 50.8263L114.545 49.0705L112.825 49.3226C113.286 48.7736 113.744 48.2383 114.198 47.7142L114.102 47.3383L117.688 42.2525C116.211 43.7759 114.889 45.256 113.811 46.678C113.898 46.5306 113.96 46.3824 113.997 46.2369C113.278 46.9901 112.755 47.4463 112.542 47.4482C110.919 47.4601 110.706 46.6365 111.302 45.3896L111.099 45.5436C111.247 45.3297 111.415 45.094 111.6 44.8412C112.067 44.061 112.772 43.1604 113.605 42.2163C114.774 40.7304 116.177 38.9936 117.679 37.147C113.886 40.6771 110.525 43.3098 108.96 43.3138C107.976 43.3164 107.437 43.0366 107.253 42.5317C106.939 42.876 106.641 43.1881 106.361 43.4626L106.31 43.5389L106.288 43.5324C105.357 44.4337 104.631 44.9097 104.183 44.7944C103.178 44.5357 102.892 43.7997 103.132 42.7193L102.929 42.6673C102.932 42.6627 103.067 42.4619 103.31 42.107C103.434 41.7561 103.599 41.3782 103.804 40.9753C102.865 41.8332 101.947 42.585 101.059 43.1973C100.714 43.0781 100.608 43.0781 100.331 42.8345C99.5136 42.1169 99.5419 40.8351 100.167 39.176C100.134 39.1076 100.107 39.0345 100.084 38.9574C99.7164 39.2932 99.403 39.5039 99.1502 39.5704C98.5649 39.7251 98.1739 39.6909 97.9415 39.4999C97.871 39.4808 97.8131 39.4124 97.7716 39.2853C97.6887 39.1102 97.6669 38.8745 97.6939 38.5894C97.6932 38.488 97.6946 38.3794 97.6992 38.259C97.7104 37.9614 97.7426 37.6506 97.7914 37.33C97.6729 37.4801 97.5813 37.5749 97.5142 37.6236C97.185 38.016 97.025 38.0028 97.1297 37.3794ZM122.758 27.7298C126.8 23.8073 130.353 20.0145 131.796 17.8979C131.817 17.8683 138.059 14.7549 132.62 22.9416C134.992 20.5696 137 18.7683 137.595 18.819C140.783 19.0896 138.378 23.0298 134.887 27.1755C135.212 27.8523 135.03 29.2032 133.605 31.5318C133.605 31.5318 133.365 31.9302 132.944 32.6162C137.252 28.4804 140.817 25.6034 141.363 26.3842C142.111 25.8957 142.555 26.3414 142.017 27.8687L142.047 27.8424L142.007 27.8977C141.66 28.8727 140.918 30.281 139.608 32.1612C139.608 32.1612 137.166 35.6729 134.095 39.8515C134.416 39.1056 134.3 38.2096 133.724 37.5631C132.471 36.0515 131.431 34.8329 130.454 33.821C132.398 31.709 134.042 29.8063 134.195 29.2559C134.376 28.0775 133.568 26.9747 132.389 26.7923C131.45 26.6475 130.559 27.1314 130.144 27.9306C129.115 29.0584 128.145 30.0828 127.193 31.0815C125.77 30.1723 124.8 28.6772 122.758 27.7298Z" fill="#45CDC3"/>
<path fill-rule="evenodd" clip-rule="evenodd" d="M119.317 2.68036C127.304 5.44545 146.978 23.3389 145.735 31.2294C142.979 21.9801 127.312 7.43306 118.575 4.86679C116.075 4.13206 94.446 28.4195 96.1294 38.2882C105.988 43.7743 109.793 47.4598 118.726 54.2245C119.805 54.3298 120.595 55.289 120.491 56.3687C120.386 57.4477 119.426 58.2372 118.347 58.1331C108.994 52.3646 104.084 46.2517 94.0905 40.9737C85.1691 36.2618 112.927 0.468276 119.317 2.68036Z" fill="#3B636B"/>
<path fill-rule="evenodd" clip-rule="evenodd" d="M181.091 68.5841C183.785 86.4243 178.192 99.3149 169.608 106.24C170.089 106.507 170.415 107.022 170.415 107.612C170.257 109.575 169.33 122.124 168.153 133.69H164.794C165.655 125.029 166.68 116.139 167.251 107.944C151.983 117.798 129.576 110.502 125.268 81.2088C123.27 67.6223 126.729 58.822 131.532 51.4063C132.09 50.4997 132.688 49.6215 133.323 48.7755C129.261 56.523 125.864 63.0487 126.082 74.9077C126.943 121.564 179.478 120.649 178.869 74.173C178.577 51.877 166.272 40.9865 151.102 40.5112C150.35 40.5915 149.362 39.704 148.897 38.5289C148.431 37.3537 148.664 36.3359 149.416 36.2549C163.39 36.9014 177.572 45.2809 181.091 68.5841ZM132.462 133.69C132.454 123.102 132.865 110.537 132.903 104.954C134.094 110.013 134.157 123.014 134.299 133.69H132.462Z" fill="#3B636B"/>
<path fill-rule="evenodd" clip-rule="evenodd" d="M147.383 57.371C149.254 55.5697 152.344 55.3353 154.941 56.7007C159.868 51.2548 172.274 49.4055 179.018 51.3344C181.657 52.0876 181.88 53.8243 182.211 56.2484C182.948 61.6371 181.535 67.3865 177.988 69.9633C176.116 71.3235 173.973 72.2708 171.755 72.7179C169.519 73.1688 167.205 73.1122 165.011 72.4604C160.172 71.0232 155.962 66.7373 154.548 58.687C152.194 58.1748 150.485 58.3525 148.175 59.2505C148.279 67.4412 144.93 72.44 140.434 74.7482C138.398 75.7937 136.134 76.2763 133.854 76.2453C131.592 76.2151 129.309 75.6798 127.219 74.689C123.203 72.7844 119.542 67.6439 118.897 62.2704C118.496 58.9234 118.303 58.4875 121.127 57.1142C127.824 53.8553 141.066 52.6044 147.383 57.371ZM121.984 59.5619C122.121 67.1811 126.024 74.8101 133.99 74.9174C141.946 75.0234 146.486 66.1988 146.365 58.606C139.719 54.2832 128.216 54.9923 121.984 59.5619ZM179.324 54.2247C180.595 61.7385 179.185 69.8619 171.376 71.4374C163.576 73.0102 157.485 65.1751 156.204 57.6902C163.194 51.0145 174.236 51.7854 179.324 54.2247Z" fill="#CF312C"/>
<path fill-rule="evenodd" clip-rule="evenodd" d="M298 130.054C198.537 132.249 99.5087 131.387 1.80019e-05 130.041V134.958H298V130.054Z" fill="#50A7EA"/>
<path fill-rule="evenodd" clip-rule="evenodd" d="M104.314 82.3326C104.505 80.9498 103.189 78.7787 101.798 78.2934C100.408 77.8077 98.8623 79.6833 98.6719 81.0661C98.4416 97.5912 108.596 114.016 116.444 113.056C119.097 112.731 127.834 107.24 127.172 97.7759C125.178 105.524 117.664 110.084 115.161 109.85C108.224 109.201 103.577 96.2477 104.314 82.3326Z" fill="#3B636B"/>
<path d="M95.8043 70.6689C93.8885 73.3353 97.4589 76.9084 99.2425 78.2974C97.3619 78.0844 95.7359 75.3357 95.0316 73.8343C94.5643 72.8381 93.787 72.1053 93.0425 71.3426C90.5484 68.7877 87.9714 67.398 84.3866 67.5492C83.4109 67.5904 81.9069 67.7236 81.2561 68.5878C80.6501 69.3925 79.6367 71.6576 81.0465 73.423C85.3256 77.889 91.8713 82.2056 97.5945 84.59C102.953 86.8223 106.313 83.945 102.702 78.5426C101.15 76.2203 100.849 73.2627 99.2277 70.9966C98.7345 70.3074 96.3192 69.9522 95.8043 70.6689Z" fill="#3E656E"/>
<path fill-rule="evenodd" clip-rule="evenodd" d="M200.559 83.4632C200.585 82.0676 202.221 80.126 203.67 79.8615C205.118 79.5966 206.355 81.6885 206.33 83.0841C204.003 99.4462 191.432 114.104 183.826 111.942C181.255 111.211 173.472 104.435 175.59 95.1877C176.362 103.15 183.081 108.818 185.589 108.973C192.543 109.404 199.137 97.3251 200.559 83.4632Z" fill="#3B636B"/>
<path d="M207.898 71.6301C209.981 74.1673 206.649 77.9635 204.959 79.4648C206.822 79.1308 208.267 76.2828 208.873 74.739C209.275 73.7147 210.003 72.9333 210.697 72.1241C213.021 69.4135 215.503 67.8603 219.09 67.7796C220.066 67.7577 221.576 67.7935 222.281 68.6139C222.938 69.3778 224.095 71.5727 222.802 73.4254C218.821 78.1585 212.567 82.8887 207.01 85.6378C201.807 88.2115 198.269 85.5572 201.523 79.9329C202.922 77.5151 203.031 74.5443 204.502 72.1783C204.95 71.4586 207.337 70.9482 207.898 71.6301Z" fill="#3E656E"/>
</g>
<defs>
<radialGradient id="paint0_radial_4725_105343" cx="0" cy="0" r="1" gradientUnits="userSpaceOnUse" gradientTransform="translate(149 67.4791) rotate(90) scale(67.4791 149)">
<stop stop-color="white"/>
<stop offset="1" stop-color="#D9ECFA"/>
</radialGradient>
</defs>
</svg>
