<svg width="240" height="280" viewBox="0 0 240 280" fill="none" xmlns="http://www.w3.org/2000/svg">
<g clip-path="url(#clip0_3195_42573)">
<g filter="url(#filter0_ddd_3195_42573)">
<path d="M48.0548 13.6283C33.5556 15.6283 38.5554 33.6283 40.0554 54.6283C41.5554 75.6283 43.3551 85.8277 44.5551 92.6277C45.7551 99.4277 71.4004 94.96 84.9004 94.96C105.908 93.7476 193.175 97.7479 192.4 79.96C192.901 68.9597 195.093 45.4033 190.055 31.1276C188.115 25.629 172.055 31.1276 142.555 31.1276C113.055 31.1276 121.556 32.6282 120.056 22.6282C118.556 12.6282 110.056 13.628 99.0557 14.628C94.0514 15.0829 62.554 11.6283 48.0548 13.6283Z" fill="white"/>
<path d="M49.3536 37.7029L48.7317 23.9712C48.8495 23.4828 49.3958 23.213 50.3707 23.1619C51.2676 23.1149 52.0995 23.1951 52.8664 23.4026C53.6326 23.597 54.2841 23.967 54.821 24.5123C55.3703 25.044 55.6657 25.7063 55.7072 26.4992C55.7399 27.1232 55.6156 27.7358 55.3343 28.3371C55.066 28.9377 54.7153 29.3341 54.2822 29.5262C55.1202 29.5996 55.8159 30.065 56.3692 30.9223C56.9224 31.7796 57.2308 32.8128 57.2941 34.0216C57.337 34.8405 57.0495 35.5725 56.4316 36.2175C55.813 36.8495 55.0754 37.3248 54.2188 37.6434C53.3745 37.9483 52.5104 38.124 51.6265 38.1703C50.5476 38.2268 49.79 38.071 49.3536 37.7029ZM50.5948 30.7948C50.6418 31.6917 50.7232 33.4927 50.8388 36.1978C51.252 36.6193 51.764 36.814 52.3749 36.782C53.1809 36.7398 53.9434 36.3674 54.6626 35.665C55.3811 34.9496 55.7202 34.2084 55.68 33.4415C55.6303 32.4926 55.273 31.7683 54.6081 31.2688C53.9433 30.7692 53.1104 30.5456 52.1095 30.5981C51.4466 30.6328 50.9417 30.6984 50.5948 30.7948ZM50.4802 29.354L51.688 29.2711C52.5199 29.2275 53.1443 28.9537 53.561 28.4496C53.9901 27.9318 54.1869 27.3349 54.1515 26.659C54.1154 25.9701 53.8569 25.3905 53.3761 24.9204C52.8946 24.4373 52.2508 24.2169 51.4449 24.2591C51.081 24.2782 50.6561 24.3787 50.1703 24.5606C50.2379 25.3521 50.3023 26.3328 50.3636 27.5027C50.4379 28.6719 50.4768 29.289 50.4802 29.354ZM58.9754 27.677C60.9677 27.1425 62.1849 26.8636 62.6268 26.8405C64.3686 26.7492 65.2787 27.451 65.357 28.9458C65.3843 29.4657 65.3199 29.9775 65.1638 30.4809C65.02 30.9708 64.8222 31.3005 64.5704 31.4701C65.6204 32.1059 66.1771 33.0282 66.2404 34.2371C66.3004 35.381 65.9701 36.2911 65.2496 36.9676C64.542 37.6433 63.5773 38.0132 62.3554 38.0773C60.8996 38.1536 59.7938 37.8205 59.038 37.078L58.9754 27.677ZM60.3433 32.5128L60.7262 36.4617C61.0593 36.6006 61.4339 36.6592 61.8498 36.6374C62.6558 36.5952 63.3834 36.3029 64.0328 35.7605C64.6821 35.2181 64.9891 34.609 64.9537 33.933C64.9291 33.4651 64.7247 33.0457 64.3403 32.6748C63.9552 32.2909 63.4832 32.1136 62.9242 32.1429C62.5993 32.1599 61.739 32.2832 60.3433 32.5128ZM59.9378 28.5064L60.2316 31.5019C60.4253 31.4657 60.7232 31.4306 61.1255 31.3964C61.5278 31.3623 61.8514 31.3193 62.0963 31.2674C62.3406 31.2024 62.6084 31.0906 62.8999 30.932C63.1907 30.7603 63.4107 30.4816 63.5599 30.0958C63.7221 29.7093 63.8197 29.2089 63.8527 28.5945C63.7023 28.2114 63.2956 28.0372 62.6327 28.0719C62.3337 28.0876 61.8682 28.1576 61.236 28.282C60.6038 28.4063 60.1711 28.4811 59.9378 28.5064ZM75.0379 34.9687L75.2778 35.8164C74.7168 36.0543 73.8776 36.3329 72.7604 36.6521C71.6554 36.9577 70.83 37.1248 70.284 37.1534C69.7251 37.1827 69.2281 37.0263 68.7931 36.6841C68.3574 36.3289 68.0205 35.8708 67.7826 35.3098C67.5439 34.7358 67.358 34.172 67.2247 33.6185C67.1037 33.0513 67.029 32.4948 67.0003 31.9488C66.83 28.6992 68.2137 26.9974 71.1514 26.8434C71.8533 26.8066 72.4827 27.0017 73.0395 27.4287C73.5956 27.8428 73.8924 28.4072 73.9299 29.1222C73.9503 29.5121 73.8579 29.8624 73.6525 30.1729C73.4602 30.4828 73.2129 30.7369 72.9104 30.9352C72.6203 31.1199 72.2385 31.2963 71.7651 31.4645C71.3046 31.632 70.8941 31.7578 70.5336 31.8419C70.173 31.9259 69.7413 32.0202 69.2384 32.1248C68.7356 32.2294 68.3877 32.3062 68.1947 32.3555C68.2275 32.7317 68.2644 33.0622 68.3054 33.3468C68.3593 33.6307 68.4407 33.9393 68.5494 34.2725C68.6704 34.592 68.8147 34.8582 68.9823 35.071C69.1621 35.2701 69.3988 35.4336 69.6923 35.5616C69.9857 35.6896 70.3275 35.7434 70.7174 35.723C71.1854 35.6985 71.7553 35.6295 72.4271 35.5161C73.0983 35.3897 73.6914 35.2673 74.2066 35.1491C74.7348 35.0302 75.0119 34.97 75.0379 34.9687ZM68.2094 31.1425C69.9506 30.5429 71.372 29.934 72.4736 29.3158C72.3602 28.8916 72.2203 28.5861 72.0541 28.3993C71.8879 28.2125 71.6488 28.1273 71.3369 28.1436C70.544 28.1852 69.8368 28.496 69.2155 29.076C68.6072 29.6553 68.2718 30.3441 68.2094 31.1425ZM76.4797 39.3508L75.5921 39.2018C75.5846 39.0589 75.5365 38.6378 75.4477 37.9386C75.3589 37.2394 75.3063 36.7338 75.29 36.4218C75.2764 36.1618 75.2812 35.8813 75.3045 35.5803L76.5719 35.5139C76.6253 35.2895 76.7119 34.9526 76.8318 34.5032C76.9646 34.053 77.0522 33.7356 77.0947 33.5509C77.1371 33.3662 77.1947 33.096 77.2673 32.7403C77.3522 32.3708 77.4012 32.062 77.4142 31.8136C77.4396 31.5516 77.4554 31.2314 77.4616 30.8531C77.4809 30.4741 77.4796 30.0766 77.4578 29.6607C77.4067 28.6858 77.3101 27.5894 77.1681 26.3717C77.8981 26.3725 78.6664 26.3583 79.473 26.3291C80.2926 26.2992 80.963 26.2836 81.4843 26.2823C82.0056 26.2811 82.5416 26.3116 83.0924 26.374C83.1777 27.2559 83.293 28.7097 83.4382 30.7354C83.5958 32.7475 83.7173 34.1944 83.8026 35.0763L85.3234 34.9966L85.3541 35.5815C85.3718 35.9195 85.4035 36.4001 85.4492 37.0234C85.5079 37.6459 85.5427 38.0612 85.5536 38.2692C85.574 38.6592 85.5767 38.9588 85.5616 39.1682L84.674 39.0192C84.6124 38.8399 84.5482 38.6086 84.4812 38.3254C84.4279 38.0545 84.3667 37.7579 84.2977 37.4357C84.2287 37.1134 84.1774 36.8815 84.1439 36.7399C83.401 36.7397 82.214 36.7237 80.5831 36.6919C78.9651 36.6593 77.7001 36.6474 76.7882 36.6561L76.4797 39.3508ZM78.8703 27.5142C78.8675 27.7099 78.876 28.12 78.8957 28.7446C78.9147 29.3562 78.9197 29.8252 78.9108 30.1515C78.9148 30.4772 78.8997 30.9342 78.8653 31.5225C78.8433 32.0972 78.797 32.5819 78.7265 32.9766C78.6552 33.3583 78.5405 33.7814 78.3824 34.2459C78.2366 34.6967 78.0552 35.0908 77.8383 35.428L82.1083 35.2042L82.0957 27.5016C81.913 27.4981 81.431 27.5038 80.6497 27.5187C79.8815 27.5329 79.2883 27.5314 78.8703 27.5142ZM86.5445 26.2126L87.4516 26.3606C87.6115 27.4211 87.7904 29.0931 87.9882 31.3768C88.1855 33.6475 88.3114 35.0551 88.366 35.5997C88.2701 36.0088 88.0532 36.2222 87.7152 36.2399C87.4812 36.2521 87.249 36.1731 87.0185 36.0027C86.8003 35.8186 86.658 35.5914 86.5917 35.3212C86.5898 34.7869 86.5692 33.3998 86.5301 31.1599C86.4902 28.9071 86.495 27.258 86.5445 26.2126ZM86.6346 22.7082C86.9855 22.6898 87.2862 22.8305 87.5365 23.1302C87.7861 23.4169 87.9212 23.7552 87.9416 24.1452C87.9566 24.4311 87.8974 24.6689 87.7639 24.8583C87.6428 25.0341 87.4653 25.1282 87.2313 25.1404C86.8673 25.1595 86.5735 25.025 86.3499 24.7369C86.1262 24.4489 86.0038 24.1033 85.9827 23.7004C85.9677 23.4144 86.0143 23.1839 86.1224 23.0088C86.2429 22.82 86.4136 22.7198 86.6346 22.7082ZM89.077 27.1553L88.8565 26.3065C90.5929 26.1113 93.3281 25.8245 97.0622 25.4464C97.3748 25.443 97.6474 25.546 97.88 25.7554C98.1125 25.9648 98.2353 26.193 98.2482 26.44C98.2687 26.8299 98.0203 27.0645 97.5031 27.1438L93.8477 27.1594C93.9638 28.1309 94.0709 29.5525 94.169 31.4243C94.2794 33.2825 94.3766 34.6395 94.4606 35.4953C94.3633 35.8784 94.1457 36.0788 93.8078 36.0965C93.5868 36.1081 93.3676 36.0284 93.15 35.8573C92.9325 35.6862 92.791 35.472 92.7253 35.2148C92.7397 32.0076 92.7875 29.3135 92.8688 27.1325L89.077 27.1553ZM99.0694 25.6931L99.957 25.8421C100.005 26.2567 100.069 26.7421 100.151 27.2983C100.245 27.8538 100.35 28.487 100.465 29.1979C100.977 29.0146 101.467 28.9108 101.935 28.8862C102.494 28.8569 103.019 28.9402 103.512 29.136C104.004 29.3187 104.428 29.5767 104.784 29.91C105.141 30.2432 105.428 30.6322 105.647 31.077C105.865 31.5087 105.987 31.9585 106.011 32.4265C106.035 32.8815 105.959 33.3025 105.784 33.6897C105.609 34.0769 105.366 34.4155 105.055 34.7055C104.744 34.9825 104.377 35.2037 103.956 35.3692C103.535 35.5476 103.084 35.6495 102.603 35.6747C102.512 35.6794 102.311 35.6835 101.998 35.6869C101.685 35.6902 101.352 35.6751 100.998 35.6415C100.658 35.6202 100.35 35.5777 100.073 35.514C99.7958 35.4503 99.647 35.3473 99.6265 35.205C99.6149 34.9841 99.5928 34.6854 99.56 34.3092C99.5396 33.9192 99.5106 33.4906 99.4731 33.0233C99.4485 32.5554 99.4165 32.0683 99.3769 31.562C99.3367 31.0427 99.2975 30.543 99.2593 30.0627C99.2341 29.5817 99.2044 29.1401 99.1703 28.7378C99.1492 28.3349 99.1325 28.0164 99.1202 27.7824C99.0821 27.0545 99.0651 26.3581 99.0694 25.6931ZM100.704 30.3976L100.734 34.3258C101.263 34.4806 101.762 34.5457 102.23 34.5211C102.594 34.5021 102.922 34.4262 103.215 34.2936C103.52 34.1472 103.772 33.9711 103.97 33.7652C104.167 33.5464 104.317 33.3039 104.42 33.0378C104.524 32.7717 104.568 32.4956 104.553 32.2096C104.538 31.9237 104.465 31.6603 104.336 31.4194C104.205 31.1656 104.018 30.9473 103.773 30.7646C103.529 30.5819 103.235 30.4474 102.892 30.3611C102.548 30.2618 102.161 30.2234 101.732 30.2459C101.589 30.2534 101.434 30.2746 101.266 30.3094C101.098 30.3313 100.911 30.3607 100.704 30.3976ZM49.8954 45.4304L56.4693 45.1445L57.4134 54.5775C57.3168 54.9736 57.0996 55.1805 56.7616 55.1982C56.5276 55.2105 56.295 55.1249 56.0638 54.9415C55.8333 54.7711 55.6849 54.5508 55.6186 54.2806C55.6194 54.0459 55.6004 53.3105 55.5617 52.0742C55.5352 50.8243 55.5119 49.6329 55.4916 48.5C55.4707 47.354 55.4579 46.6118 55.4531 46.2731C55.0878 46.2662 54.5477 46.2815 53.8328 46.3189C52.8579 46.37 52.0434 46.3736 51.3894 46.3297C51.4509 46.7566 51.5559 48.1392 51.7045 50.4776C51.8525 52.803 51.9493 54.1535 51.9951 54.5291C51.8992 54.9382 51.6823 55.1516 51.3443 55.1693C51.1103 55.1816 50.8781 55.1025 50.6476 54.9321C50.4294 54.748 50.2871 54.5209 50.2208 54.2506C50.2258 53.5986 50.2112 52.9477 50.1771 52.2978C50.1594 51.9598 50.1236 51.4012 50.0698 50.622C50.0159 49.8427 49.977 49.2256 49.9532 48.7707C49.883 47.4318 49.8638 46.3184 49.8954 45.4304ZM58.7873 50.5757C58.7601 50.0557 58.7818 49.4746 58.8524 48.8322C58.936 48.1891 59.0699 47.5108 59.2541 46.7973C59.4382 46.0838 59.7391 45.4815 60.1565 44.9904C60.5739 44.4993 61.0751 44.2384 61.66 44.2077C62.9079 44.1423 63.9384 44.6553 64.7516 45.7467C65.5641 46.8251 66.0065 48.0532 66.0787 49.431C66.1094 50.016 66.075 50.6043 65.9757 51.1961C65.8887 51.7741 65.7298 52.3495 65.4991 52.922C65.2685 53.4946 64.916 53.9823 64.4418 54.3851C63.98 54.7743 63.4254 55.0119 62.7782 55.098C61.5742 55.0047 60.6247 54.5461 59.9298 53.7222C59.2342 52.8854 58.8534 51.8365 58.7873 50.5757ZM61.8302 45.2155C61.3779 45.2913 61.0163 45.7274 60.7452 46.5237C60.4741 47.3199 60.3125 48.0909 60.2603 48.8366C60.2075 49.5693 60.1957 50.2151 60.225 50.774C60.2631 51.502 60.5195 52.1663 60.9942 52.7671C61.4812 53.3542 62.0041 53.6331 62.563 53.6038C62.966 53.5827 63.3218 53.4076 63.6304 53.0786C63.939 52.7496 64.1724 52.3529 64.3305 51.8884C64.501 51.4102 64.6195 50.9348 64.6859 50.4621C64.7654 49.9886 64.7956 49.57 64.7765 49.206C64.7206 48.1401 64.4315 47.2233 63.909 46.4556C63.3865 45.6879 62.6935 45.2745 61.8302 45.2155ZM76.3338 43.6538L77.2214 43.8028C77.306 44.6716 77.4366 46.7894 77.613 50.1561C77.7009 51.8329 77.7841 53.0472 77.8626 53.7991C76.876 53.8769 75.5899 53.9573 74.004 54.0404C70.9363 54.2012 68.9068 54.275 67.9155 54.2618C67.9157 53.5188 67.875 51.8721 67.7935 49.3216C67.7113 46.7582 67.6864 44.9151 67.7188 43.7924L68.6074 43.9609C68.7557 45.0481 68.9147 46.7146 69.0845 48.9607C69.2544 51.2067 69.3574 52.5504 69.3936 52.9916C69.6782 52.9507 70.1909 52.9108 70.9318 52.8719C71.6851 52.8194 72.1719 52.7809 72.3921 52.7563C72.3943 52.3 72.3698 51.5844 72.3187 50.6095C72.299 50.2325 72.2622 49.6544 72.2083 48.8752C72.1674 48.0953 72.1368 47.5103 72.1163 47.1204C72.0496 45.8465 72.0365 44.7262 72.0771 43.7596L72.9647 43.9086C73.0972 44.9444 73.2412 46.5726 73.3967 48.7933C73.5651 51.0134 73.6644 52.2856 73.6944 52.6098C75.0203 52.5404 75.9493 52.4851 76.4816 52.4442C76.4797 51.6623 76.4513 50.2495 76.3964 48.206C76.3544 46.1618 76.3335 44.6444 76.3338 43.6538ZM81.1452 59.3557L79.9005 58.7366C80.3851 57.7858 81.2355 55.9816 82.4518 53.324C81.3499 52.4433 80.4697 51.0686 79.8113 49.2001C79.1529 47.3316 78.7155 45.4515 78.499 43.5599L79.633 43.5591C79.7143 43.8676 79.8883 44.5754 80.1549 45.6824C80.4337 46.7757 80.6521 47.5854 80.8101 48.1116C80.968 48.6377 81.2305 49.2952 81.5977 50.0841C81.9772 50.8593 82.3958 51.5086 82.8534 52.0321C84.4783 48.4668 85.2325 45.5727 85.116 43.3499L85.1048 43.1355C85.7861 43.204 86.2996 43.3009 86.645 43.4262C86.5086 44.802 86.2565 46.2099 85.8888 47.6499C85.5211 49.0899 85.0436 50.5487 84.4563 52.0263C83.8683 53.4909 83.3399 54.7242 82.871 55.7264C82.4152 56.7279 81.8399 57.9376 81.1452 59.3557ZM94.9142 52.358L95.0176 53.2129C94.7097 53.3072 94.4908 53.3578 94.3608 53.3646C93.8669 53.3905 93.4099 53.2515 92.9899 52.9477C92.5699 52.6438 92.2177 52.2647 91.9332 51.8104C91.6487 51.3561 91.3772 50.9011 91.1187 50.4454C90.8732 49.989 90.6119 49.6051 90.3349 49.2938C90.0579 48.9825 89.783 48.8339 89.51 48.8483C89.406 48.8537 89.3095 48.8783 89.2206 48.9221C89.3134 49.6993 89.4705 50.9554 89.6918 52.6904C89.5959 53.0995 89.379 53.3129 89.041 53.3306C88.8071 53.3428 88.5748 53.2638 88.3443 53.0934C88.1261 52.9093 87.9839 52.6821 87.9176 52.4119C87.8551 50.2254 87.7735 48.1702 87.6726 46.2464C87.5984 44.8296 87.598 43.7021 87.6713 42.8641L88.5651 43.1301C88.6957 43.6316 88.7923 44.3564 88.855 45.3046C88.9171 46.2399 88.9604 46.8176 88.985 47.0379C89.3715 46.9525 89.6989 46.7333 89.9672 46.3804C90.2484 46.0267 90.4688 45.6307 90.6283 45.1922C90.8008 44.753 90.9802 44.32 91.1663 43.8931C91.3525 43.4663 91.6006 43.1013 91.9106 42.7983C92.2336 42.4947 92.6225 42.3309 93.0775 42.307C93.3114 42.2948 93.6795 42.3537 94.1816 42.4838L94.1384 43.1508C94.0597 43.1419 93.9554 43.1409 93.8254 43.1477C93.3054 43.1749 92.8621 43.4197 92.4953 43.8821C92.1408 44.3308 91.88 44.8268 91.713 45.3699C91.5582 45.8994 91.3505 46.4121 91.0897 46.9081C90.829 47.404 90.5316 47.6998 90.1978 47.7955C90.6848 47.8873 91.1113 48.1908 91.4772 48.7061C91.8561 49.2206 92.145 49.7594 92.344 50.3225C92.5553 50.8719 92.8422 51.3717 93.2047 51.822C93.5665 52.2592 93.9943 52.4649 94.4883 52.439C94.6183 52.4322 94.7602 52.4052 94.9142 52.358ZM95.58 48.6474C95.5527 48.1275 95.5744 47.5463 95.645 46.904C95.7286 46.2609 95.8625 45.5826 96.0467 44.8691C96.2309 44.1556 96.5317 43.5533 96.9491 43.0622C97.3666 42.5711 97.8678 42.3102 98.4527 42.2795C99.7006 42.2141 100.731 42.7271 101.544 43.8185C102.357 44.8968 102.799 46.125 102.871 47.5028C102.902 48.0878 102.868 48.6761 102.768 49.2678C102.681 49.8459 102.522 50.4212 102.292 50.9938C102.061 51.5664 101.709 52.0541 101.235 52.4569C100.773 52.8461 100.218 53.0837 99.5709 53.1698C98.3668 53.0764 97.4174 52.6179 96.7225 51.794C96.0269 50.9572 95.6461 49.9083 95.58 48.6474ZM98.6228 43.2873C98.1706 43.3631 97.8089 43.7992 97.5378 44.5954C97.2667 45.3917 97.1051 46.1627 97.053 46.9084C97.0001 47.6411 96.9883 48.2869 97.0176 48.8458C97.0558 49.5737 97.3122 50.2381 97.7868 50.8389C98.2738 51.426 98.7968 51.7049 99.3557 51.6756C99.7587 51.6545 100.114 51.4794 100.423 51.1504C100.732 50.8214 100.965 50.4247 101.123 49.9602C101.294 49.482 101.412 49.0065 101.479 48.5338C101.558 48.0604 101.588 47.6417 101.569 47.2778C101.513 46.2119 101.224 45.2951 100.702 44.5274C100.179 43.7597 99.4862 43.3463 98.6228 43.2873ZM104.613 42.3086C106.605 41.774 107.822 41.4952 108.264 41.472C110.006 41.3807 110.916 42.0825 110.995 43.5774C111.022 44.0973 110.957 44.609 110.801 45.1125C110.658 45.6023 110.46 45.932 110.208 46.1016C111.258 46.7374 111.815 47.6598 111.878 48.8686C111.938 50.0125 111.608 50.9227 110.887 51.5991C110.18 52.2749 109.215 52.6448 107.993 52.7088C106.537 52.7851 105.431 52.452 104.676 51.7096L104.613 42.3086ZM105.981 47.1443L106.364 51.0932C106.697 51.2322 107.071 51.2908 107.487 51.269C108.293 51.2267 109.021 50.9344 109.67 50.392C110.32 49.8497 110.627 49.2405 110.591 48.5646C110.567 48.0966 110.362 47.6772 109.978 47.3063C109.593 46.9225 109.121 46.7452 108.562 46.7745C108.237 46.7915 107.376 46.9148 105.981 47.1443ZM105.575 43.138L105.869 46.1335C106.063 46.0973 106.361 46.0621 106.763 46.028C107.165 45.9939 107.489 45.9509 107.734 45.8989C107.978 45.834 108.246 45.7222 108.537 45.5635C108.828 45.3919 109.048 45.1132 109.197 44.7273C109.36 44.3408 109.457 43.8404 109.49 43.2261C109.34 42.8429 108.933 42.6687 108.27 42.7035C107.971 42.7191 107.506 42.7892 106.874 42.9135C106.241 43.0379 105.809 43.1127 105.575 43.138ZM115.25 50.1583C115.261 50.3793 115.29 50.6711 115.335 51.0337C115.239 51.4427 115.022 51.6561 114.684 51.6739C114.45 51.6861 114.218 51.6071 113.987 51.4367C113.769 51.2526 113.627 51.0254 113.561 50.7552C113.544 49.7002 113.509 48.1575 113.455 46.127C113.414 44.0958 113.387 42.7221 113.376 42.0058L114.264 41.8028C114.464 42.6265 114.619 43.7263 114.731 45.1021C114.842 46.4779 114.948 47.5021 115.048 48.1746C115.276 47.7977 115.928 46.812 117.005 45.2175C118.081 43.6231 118.808 42.438 119.184 41.6623C119.467 41.5953 119.648 41.5597 119.726 41.5557C119.973 41.5427 120.148 41.6443 120.25 41.8606C120.366 42.0761 120.453 42.4886 120.511 43.0982L121.302 51.112C121.206 51.508 120.988 51.7149 120.65 51.7327C120.416 51.7449 120.184 51.6659 119.954 51.4955C119.735 51.3114 119.593 51.0842 119.527 50.814C119.517 50.3843 119.495 49.3362 119.46 47.6697C119.437 45.9894 119.427 44.7973 119.429 44.0934C117.339 46.7446 115.946 48.7662 115.25 50.1583ZM124.058 39.1584L123.89 38.5611C124.204 38.5838 124.51 38.5873 124.809 38.5716C125.706 38.5246 126.519 38.2344 127.247 37.7009C127.547 37.7112 127.805 37.7889 128.021 37.934C128.238 38.0791 128.351 38.2556 128.362 38.4636C128.371 38.6326 128.32 38.7721 128.208 38.8823C128.096 38.9924 127.925 39.0796 127.694 39.1438C127.462 39.1951 127.268 39.2313 127.113 39.2525C126.957 39.2606 126.749 39.2715 126.489 39.2852C125.644 39.3294 124.834 39.2872 124.058 39.1584ZM124.55 49.6709C124.562 49.8918 124.59 50.1836 124.635 50.5462C124.539 50.9553 124.322 51.1687 123.985 51.1864C123.751 51.1987 123.518 51.1196 123.288 50.9492C123.07 50.7652 122.927 50.538 122.861 50.2677C122.845 49.2128 122.81 47.6701 122.755 45.6396C122.714 43.6084 122.688 42.2346 122.676 41.5183L123.565 41.3154C123.765 42.1391 123.92 43.2389 124.031 44.6147C124.142 45.9905 124.248 47.0147 124.349 47.6872C124.576 47.3103 125.229 46.3246 126.305 44.7301C127.382 43.1357 128.108 41.9506 128.485 41.1748C128.768 41.1079 128.948 41.0723 129.026 41.0682C129.273 41.0553 129.448 41.1569 129.551 41.3731C129.666 41.5887 129.753 42.0012 129.811 42.6108L130.603 50.6245C130.506 51.0206 130.289 51.2275 129.951 51.2452C129.717 51.2575 129.485 51.1784 129.254 51.008C129.036 50.824 128.894 50.5968 128.827 50.3265C128.818 49.8969 128.796 48.8488 128.76 47.1823C128.737 45.502 128.727 44.3099 128.729 43.606C126.639 46.2572 125.246 48.2788 124.55 49.6709ZM52.0052 66.2883L51.87 65.2005C51.909 65.1985 51.9679 65.2019 52.0465 65.2108C52.1375 65.206 52.2025 65.2026 52.2415 65.2006C53.5544 65.1318 54.1808 64.5254 54.1209 63.3816C53.9254 62.3882 53.3468 61.9167 52.3849 61.9671C52.0209 61.9862 51.4934 62.1181 50.8024 62.3628L50.4218 61.8158C50.9412 61.2802 51.7078 60.9859 52.7217 60.9327C53.4366 60.8953 54.0441 61.0459 54.5441 61.3847C55.0441 61.7234 55.3126 62.2438 55.3493 62.9457C55.3718 63.3747 55.3095 63.8015 55.1623 64.2264C55.0144 64.6382 54.8095 64.9552 54.5474 65.1775C55.0468 65.2556 55.448 65.5735 55.7509 66.1311C56.0662 66.6751 56.2422 67.298 56.279 67.9999C56.3267 68.9098 56.0757 69.7181 55.5262 70.4247C54.9767 71.1313 54.2405 71.5087 53.3176 71.5571C52.8626 71.5809 52.3099 71.4796 51.6593 71.253C51.0088 71.0264 50.6733 70.7181 50.6528 70.3281C50.6385 70.0552 50.8069 69.9095 51.1578 69.8911C51.3918 69.8788 51.7031 69.9733 52.0916 70.1745C52.4795 70.3628 52.7969 70.4504 53.0439 70.4375C53.5898 70.4088 54.0581 70.1432 54.4489 69.6404C54.8396 69.1377 55.0197 68.5938 54.989 68.0089C54.9563 67.3849 54.7108 66.9286 54.2525 66.6398C53.8066 66.3373 53.2456 66.2038 52.5697 66.2392C52.3097 66.2528 52.1216 66.2692 52.0052 66.2883ZM58.2895 62.3419L57.8475 61.368C58.1677 61.0123 58.5827 60.7233 59.0924 60.5011C59.6015 60.2659 60.1095 60.135 60.6164 60.1084C62.8132 59.9933 64.011 61.8335 64.2099 65.6291C64.2372 66.1491 64.2449 66.9177 64.233 67.935C64.2342 68.9516 64.248 69.7134 64.2746 70.2204C64.1917 70.6288 64.0008 70.8408 63.7018 70.8565C63.4679 70.8687 63.2473 70.763 63.04 70.5392C62.8328 70.3155 62.7217 70.0606 62.7067 69.7746C62.7019 69.6836 62.705 69.6183 62.716 69.5786C61.9509 70.4008 61.1134 70.8357 60.2035 70.8834C59.5146 70.9195 58.8972 70.7042 58.3514 70.2375C57.8179 69.7571 57.5324 69.1595 57.4949 68.4445C57.4316 67.2357 57.8423 66.1193 58.7271 65.0953C59.6249 64.0707 60.6718 63.527 61.8676 63.4644C61.9196 63.4616 61.972 63.4654 62.0246 63.4757C62.0766 63.473 62.1355 63.4764 62.2011 63.486C62.2798 63.4949 62.3386 63.4983 62.3776 63.4963C62.1939 61.9809 61.5497 61.2522 60.4448 61.3101C59.7948 61.3441 59.0764 61.6881 58.2895 62.3419ZM62.6844 68.2312C62.6628 67.32 62.6396 66.6304 62.6151 66.1624C62.5947 65.7724 62.5531 65.2272 62.4903 64.5266L62.3343 64.5348C61.4121 64.5962 60.5852 64.9849 59.8537 65.701C59.1352 66.4165 58.8012 67.2551 58.8516 68.217C58.8734 68.633 59.0143 68.958 59.2742 69.192C59.5471 69.4254 59.8655 69.5325 60.2295 69.5134C60.8014 69.4835 61.6197 69.0561 62.6844 68.2312ZM65.6683 60.6257L72.2421 60.3399L73.1862 69.7729C73.0896 70.169 72.8724 70.3759 72.5344 70.3936C72.3004 70.4058 72.0679 70.3203 71.8367 70.1369C71.6061 69.9665 71.4577 69.7461 71.3914 69.4759C71.3922 69.2412 71.3732 68.5058 71.3345 67.2696C71.3081 66.0196 71.2847 64.8282 71.2645 63.6953C71.2435 62.5494 71.2307 61.8071 71.226 61.4684C70.8606 61.4615 70.3205 61.4768 69.6056 61.5143C68.6307 61.5654 67.8162 61.5689 67.1622 61.525C67.2237 61.9519 67.3287 63.3346 67.4774 65.673C67.6253 67.9984 67.7221 69.3489 67.7679 69.7245C67.672 70.1335 67.4551 70.3469 67.1171 70.3647C66.8832 70.3769 66.6509 70.2978 66.4204 70.1274C66.2022 69.9434 66.06 69.7162 65.9937 69.446C65.9986 68.794 65.984 68.143 65.95 67.4931C65.9323 67.1551 65.8965 66.5965 65.8426 65.8173C65.7887 65.0381 65.7499 64.421 65.726 63.966C65.6558 62.6271 65.6366 61.5137 65.6683 60.6257ZM76.4088 68.2158C76.4204 68.4368 76.4487 68.7286 76.4938 69.0912C76.3979 69.5003 76.181 69.7137 75.843 69.7314C75.6091 69.7436 75.3768 69.6646 75.1463 69.4942C74.9281 69.3101 74.7858 69.0829 74.7195 68.8127C74.7034 67.7578 74.6681 66.215 74.6139 64.1845C74.5726 62.1533 74.5462 60.7796 74.5347 60.0633L75.4235 59.8603C75.623 60.684 75.7784 61.7838 75.8896 63.1596C76.0009 64.5354 76.1067 65.5596 76.2071 66.2321C76.435 65.8552 77.0872 64.8695 78.1637 63.2751C79.2402 61.6806 79.9666 60.4955 80.3431 59.7198C80.6263 59.6528 80.8069 59.6173 80.8849 59.6132C81.1319 59.6002 81.3067 59.7019 81.4093 59.9181C81.5248 60.1336 81.6116 60.5462 81.6696 61.1557L82.4611 69.1695C82.3645 69.5656 82.1473 69.7725 81.8093 69.7902C81.5753 69.8024 81.3431 69.7234 81.1126 69.553C80.8944 69.3689 80.7521 69.1417 80.6858 68.8715C80.6764 68.4419 80.654 67.3938 80.6188 65.7272C80.5959 64.047 80.5856 62.8549 80.5878 62.1509C78.4979 64.8021 77.1049 66.8238 76.4088 68.2158ZM82.9854 60.5198L82.7649 59.6711C84.5013 59.4758 87.2365 59.1891 90.9706 58.8109C91.2832 58.8075 91.5558 58.9106 91.7884 59.12C92.0209 59.3294 92.1437 59.5575 92.1566 59.8045C92.1771 60.1945 91.9287 60.4291 91.4115 60.5083L87.7561 60.5239C87.8722 61.4954 87.9793 62.9171 88.0774 64.7889C88.1878 66.647 88.285 68.004 88.369 68.8599C88.2717 69.243 88.0541 69.4434 87.7162 69.4611C87.4952 69.4726 87.276 69.3929 87.0584 69.2218C86.8409 69.0507 86.6994 68.8366 86.6337 68.5793C86.6481 65.3721 86.6959 62.678 86.7772 60.497L82.9854 60.5198ZM93.3411 58.9017L94.2482 59.0497C94.408 60.1101 94.5869 61.7822 94.7848 64.0659C94.982 66.3366 95.1079 67.7442 95.1625 68.2888C95.0667 68.6978 94.8497 68.9112 94.5118 68.929C94.2778 68.9412 94.0456 68.8622 93.815 68.6918C93.5968 68.5077 93.4546 68.2805 93.3883 68.0103C93.3864 67.476 93.3658 66.0889 93.3266 63.849C93.2868 61.5962 93.2916 59.9471 93.3411 58.9017ZM93.4311 55.3973C93.7821 55.3789 94.0827 55.5196 94.3331 55.8193C94.5827 56.106 94.7177 56.4443 94.7382 56.8343C94.7532 57.1202 94.6939 57.358 94.5605 57.5474C94.4394 57.7232 94.2618 57.8172 94.0278 57.8295C93.6639 57.8486 93.3701 57.7141 93.1464 57.426C92.9228 57.1379 92.8004 56.7924 92.7793 56.3895C92.7643 56.1035 92.8109 55.873 92.919 55.6979C93.0394 55.5091 93.2102 55.4089 93.4311 55.3973ZM94.9722 70.6254L94.6163 69.8033C95.0364 69.6118 95.4123 69.3249 95.7442 68.9426C96.0631 68.5609 96.3228 68.1693 96.5234 67.7678C96.7232 67.3532 96.8855 66.8429 97.0101 66.2368C97.1348 65.6307 97.218 65.1049 97.2599 64.6596C97.314 64.2005 97.3432 63.6385 97.3475 62.9735C97.3517 62.3086 97.3453 61.8136 97.3283 61.4886C97.3236 61.15 97.3066 60.7012 97.2773 60.1423C97.2357 59.3493 97.2824 58.8711 97.4172 58.7077C97.5889 58.5031 98.5912 58.3529 100.424 58.2568C101.867 58.1812 102.685 58.1318 102.88 58.1086C103.182 63.3846 103.427 66.8064 103.613 68.3738C103.504 68.7705 103.286 68.9774 102.961 68.9945C102.74 69.0061 102.521 68.9263 102.304 68.7552C102.086 68.5841 101.945 68.37 101.879 68.1127C101.839 67.6065 101.793 66.8529 101.741 65.852C101.715 65.358 101.676 64.6106 101.623 63.6097C101.584 62.6081 101.551 61.8539 101.524 61.3469C101.475 60.411 101.432 59.7094 101.395 59.2422C100.853 59.3618 100.317 59.442 99.7844 59.483C99.2522 59.5239 98.8762 59.5632 98.6566 59.6007C98.6401 60.0317 98.641 60.6704 98.6593 61.5166C98.6775 62.3629 98.6907 63.1117 98.6988 63.763C98.7192 64.4006 98.6793 65.1326 98.5793 65.959C98.4785 66.7724 98.3066 67.4723 98.0636 68.0585C97.833 68.6311 97.4497 69.153 96.9139 69.6242C96.3918 70.1078 95.7446 70.4415 94.9722 70.6254ZM105.098 58.2856L106.005 58.4335C106.165 59.494 106.344 61.166 106.542 63.4497C106.739 65.7204 106.865 67.128 106.92 67.6726C106.824 68.0817 106.607 68.2951 106.269 68.3128C106.035 68.3251 105.803 68.246 105.572 68.0756C105.354 67.8915 105.212 67.6643 105.146 67.3941C105.144 66.8598 105.123 65.4727 105.084 63.2329C105.044 60.98 105.049 59.3309 105.098 58.2856ZM105.188 54.7811C105.539 54.7627 105.84 54.9034 106.09 55.2031C106.34 55.4898 106.475 55.8281 106.495 56.2181C106.51 56.5041 106.451 56.7418 106.318 56.9313C106.197 57.107 106.019 57.2011 105.785 57.2133C105.421 57.2324 105.127 57.0979 104.904 56.8098C104.68 56.5218 104.558 56.1763 104.537 55.7733C104.522 55.4873 104.568 55.2568 104.676 55.0817C104.797 54.8929 104.967 54.7927 105.188 54.7811ZM113.926 58.0967L120.5 57.8108L121.444 67.2438C121.347 67.6399 121.13 67.8468 120.792 67.8645C120.558 67.8768 120.325 67.7912 120.094 67.6078C119.864 67.4374 119.715 67.2171 119.649 66.9468C119.65 66.7122 119.631 65.9767 119.592 64.7405C119.566 63.4906 119.542 62.2992 119.522 61.1662C119.501 60.0203 119.488 59.278 119.483 58.9394C119.118 58.9325 118.578 58.9477 117.863 58.9852C116.888 59.0363 116.074 59.0399 115.42 58.9959C115.481 59.4229 115.586 60.8055 115.735 63.1439C115.883 65.4693 115.98 66.8198 116.025 67.1954C115.929 67.6045 115.713 67.8179 115.375 67.8356C115.141 67.8478 114.908 67.7688 114.678 67.5984C114.46 67.4143 114.317 67.1871 114.251 66.9169C114.256 66.2649 114.241 65.614 114.207 64.964C114.19 64.6261 114.154 64.0675 114.1 63.2882C114.046 62.509 114.007 61.8919 113.983 61.4369C113.913 60.0981 113.894 58.9847 113.926 58.0967ZM130.794 65.0919L131.034 65.9396C130.473 66.1775 129.634 66.4561 128.516 66.7754C127.411 67.0809 126.586 67.248 126.04 67.2766C125.481 67.3059 124.984 67.1495 124.549 66.8073C124.113 66.4522 123.776 65.9941 123.539 65.433C123.3 64.859 123.114 64.2952 122.981 63.7417C122.86 63.1746 122.785 62.618 122.756 62.0721C122.586 58.8224 123.97 57.1206 126.907 56.9666C127.609 56.9298 128.239 57.125 128.795 57.552C129.352 57.966 129.648 58.5305 129.686 59.2454C129.706 59.6354 129.614 59.9856 129.408 60.2962C129.216 60.606 128.969 60.8601 128.666 61.0585C128.376 61.2431 127.994 61.4195 127.521 61.5877C127.061 61.7552 126.65 61.881 126.29 61.9651C125.929 62.0492 125.497 62.1435 124.994 62.248C124.492 62.3526 124.144 62.4295 123.951 62.4787C123.983 62.855 124.02 63.1854 124.061 63.47C124.115 63.754 124.197 64.0625 124.305 64.3957C124.426 64.7152 124.571 64.9814 124.738 65.1942C124.918 65.3933 125.155 65.5569 125.448 65.6849C125.742 65.8129 126.083 65.8667 126.473 65.8462C126.941 65.8217 127.511 65.7527 128.183 65.6393C128.854 65.5129 129.447 65.3906 129.963 65.2723C130.491 65.1534 130.768 65.0933 130.794 65.0919ZM123.965 61.2657C125.707 60.6661 127.128 60.0572 128.23 59.439C128.116 59.0149 127.976 58.7094 127.81 58.5225C127.644 58.3357 127.405 58.2505 127.093 58.2669C126.3 58.3084 125.593 58.6192 124.971 59.1992C124.363 59.7785 124.028 60.4674 123.965 61.2657ZM131.564 56.6639L132.666 56.8017C132.681 57.0746 132.698 57.2758 132.718 57.4051C133.409 56.9127 134.118 56.6474 134.846 56.6092C136.029 56.5472 136.978 57.0058 137.695 57.985C138.411 58.9641 138.802 60.0971 138.87 61.384C138.904 62.0339 138.885 62.6606 138.812 63.264C138.752 63.8537 138.614 64.467 138.4 65.1039C138.185 65.7277 137.827 66.2418 137.327 66.646C136.839 67.0365 136.231 67.2509 135.504 67.289C134.815 67.3251 134.142 67.1779 133.486 66.8473C133.657 69.1193 133.791 70.8068 133.888 71.9096C133.792 72.3187 133.576 72.5321 133.238 72.5498C133.004 72.5621 132.771 72.4765 132.54 72.2931C132.322 72.122 132.18 71.9014 132.114 71.6311L131.564 56.6639ZM132.94 58.6643L133.329 64.9591C133.501 65.2629 133.755 65.5037 134.09 65.6817C134.424 65.8466 134.787 65.9189 135.177 65.8984C135.683 65.8719 136.104 65.6869 136.438 65.3436C136.785 64.9995 137.016 64.5573 137.131 64.0168C137.258 63.4627 137.336 62.9503 137.363 62.4796C137.404 62.0083 137.41 61.5126 137.383 60.9927C137.267 58.7829 136.462 57.7172 134.967 57.7955C134.486 57.8208 134.041 57.9157 133.633 58.0805C133.237 58.2316 133.006 58.4262 132.94 58.6643ZM148.478 64.1651L148.718 65.0128C148.157 65.2507 147.318 65.5293 146.201 65.8486C145.096 66.1541 144.271 66.3212 143.725 66.3498C143.166 66.3791 142.669 66.2227 142.234 65.8805C141.798 65.5254 141.461 65.0673 141.223 64.5062C140.985 63.9322 140.799 63.3684 140.665 62.8149C140.544 62.2477 140.47 61.6912 140.441 61.1452C140.271 57.8956 141.654 56.1938 144.592 56.0398C145.294 56.003 145.923 56.1982 146.48 56.6252C147.036 57.0392 147.333 57.6037 147.37 58.3186C147.391 58.7086 147.298 59.0588 147.093 59.3694C146.901 59.6792 146.653 59.9333 146.351 60.1317C146.061 60.3163 145.679 60.4927 145.206 60.6609C144.745 60.8284 144.335 60.9542 143.974 61.0383C143.614 61.1224 143.182 61.2167 142.679 61.3212C142.176 61.4258 141.828 61.5027 141.635 61.5519C141.668 61.9282 141.705 62.2586 141.746 62.5432C141.8 62.8271 141.881 63.1357 141.99 63.4689C142.111 63.7884 142.255 64.0546 142.423 64.2674C142.603 64.4665 142.839 64.6301 143.133 64.7581C143.426 64.8861 143.768 64.9398 144.158 64.9194C144.626 64.8949 145.196 64.8259 145.868 64.7125C146.539 64.5861 147.132 64.4638 147.647 64.3455C148.175 64.2266 148.452 64.1664 148.478 64.1651ZM141.65 60.3389C143.391 59.7393 144.813 59.1304 145.914 58.5122C145.801 58.088 145.661 57.7825 145.495 57.5957C145.329 57.4089 145.089 57.3237 144.777 57.3401C143.985 57.3816 143.277 57.6924 142.656 58.2724C142.048 58.8517 141.712 59.5406 141.65 60.3389ZM150.691 53.7846L150.523 53.1873C150.837 53.2099 151.144 53.2134 151.443 53.1978C152.339 53.1508 153.152 52.8605 153.88 52.3271C154.18 52.3374 154.439 52.4151 154.655 52.5602C154.871 52.7053 154.984 52.8818 154.995 53.0898C155.004 53.2588 154.953 53.3983 154.841 53.5084C154.73 53.6185 154.558 53.7057 154.327 53.77C154.095 53.8213 153.901 53.8575 153.746 53.8786C153.59 53.8868 153.382 53.8977 153.122 53.9113C152.277 53.9556 151.467 53.9134 150.691 53.7846ZM151.183 64.297C151.195 64.518 151.223 64.8098 151.268 65.1724C151.173 65.5815 150.956 65.7949 150.618 65.8126C150.384 65.8249 150.152 65.7458 149.921 65.5754C149.703 65.3913 149.561 65.1642 149.494 64.8939C149.478 63.839 149.443 62.2963 149.389 60.2657C149.347 58.2345 149.321 56.8608 149.309 56.1445L150.198 55.9415C150.398 56.7653 150.553 57.865 150.664 59.2409C150.776 60.6167 150.881 61.6408 150.982 62.3134C151.21 61.9365 151.862 60.9508 152.938 59.3563C154.015 57.7618 154.741 56.5767 155.118 55.801C155.401 55.734 155.582 55.6985 155.66 55.6944C155.907 55.6815 156.081 55.7831 156.184 55.9993C156.3 56.2148 156.386 56.6274 156.444 57.237L157.236 65.2507C157.139 65.6468 156.922 65.8537 156.584 65.8714C156.35 65.8837 156.118 65.8046 155.887 65.6342C155.669 65.4501 155.527 65.223 155.461 64.9527C155.451 64.5231 155.429 63.475 155.394 61.8084C155.371 60.1282 155.36 58.9361 155.362 58.2321C153.273 60.8834 151.88 62.905 151.183 64.297ZM159.221 68.0598L158.333 67.9109C158.326 67.7679 158.278 67.3468 158.189 66.6476C158.1 65.9484 158.047 65.4428 158.031 65.1308C158.017 64.8708 158.022 64.5904 158.046 64.2893L159.313 64.2229C159.366 63.9985 159.453 63.6616 159.573 63.2122C159.706 62.762 159.793 62.4446 159.836 62.2599C159.878 62.0752 159.936 61.805 160.008 61.4493C160.093 61.0799 160.142 60.771 160.155 60.5226C160.181 60.2606 160.197 59.9405 160.203 59.5621C160.222 59.1831 160.221 58.7856 160.199 58.3697C160.148 57.3948 160.051 56.2985 159.909 55.0807C160.639 55.0815 161.408 55.0673 162.214 55.0381C163.034 55.0082 163.704 54.9926 164.225 54.9913C164.747 54.9901 165.283 55.0206 165.833 55.083C165.919 55.9649 166.034 57.4187 166.179 59.4444C166.337 61.4565 166.458 62.9035 166.544 63.7853L168.065 63.7056L168.095 64.2906C168.113 64.6285 168.145 65.1091 168.19 65.7324C168.249 66.355 168.284 66.7702 168.295 66.9782C168.315 67.3682 168.318 67.6678 168.303 67.8772L167.415 67.7282C167.354 67.5489 167.289 67.3177 167.222 67.0344C167.169 66.7635 167.108 66.4669 167.039 66.1447C166.97 65.8224 166.919 65.5905 166.885 65.4489C166.142 65.4487 164.955 65.4327 163.324 65.4009C161.706 65.3683 160.441 65.3564 159.529 65.3651L159.221 68.0598ZM161.611 56.2232C161.609 56.4189 161.617 56.829 161.637 57.4536C161.656 58.0652 161.661 58.5342 161.652 58.8605C161.656 59.1862 161.641 59.6432 161.606 60.2315C161.584 60.8062 161.538 61.2909 161.468 61.6856C161.396 62.0673 161.282 62.4905 161.124 62.9549C160.978 63.4058 160.796 63.7998 160.579 64.137L164.849 63.9132L164.837 56.2106C164.654 56.2071 164.172 56.2128 163.391 56.2277C162.623 56.2419 162.029 56.2404 161.611 56.2232ZM169.286 54.9216L170.193 55.0696C170.353 56.1301 170.531 57.8021 170.729 60.0858C170.927 62.3565 171.052 63.7641 171.107 64.3087C171.011 64.7178 170.794 64.9312 170.456 64.9489C170.222 64.9611 169.99 64.8821 169.76 64.7117C169.541 64.5276 169.399 64.3004 169.333 64.0302C169.331 63.4959 169.31 62.1088 169.271 59.8689C169.231 57.6161 169.236 55.967 169.286 54.9216ZM169.376 51.4172C169.727 51.3988 170.027 51.5395 170.278 51.8392C170.527 52.1259 170.662 52.4642 170.683 52.8542C170.698 53.1401 170.639 53.3779 170.505 53.5673C170.384 53.7431 170.206 53.8372 169.972 53.8494C169.608 53.8685 169.315 53.734 169.091 53.4459C168.867 53.1579 168.745 52.8123 168.724 52.4094C168.709 52.1234 168.755 51.8929 168.864 51.7178C168.984 51.529 169.155 51.4288 169.376 51.4172ZM171.818 55.8643L171.598 55.0155C173.334 54.8203 176.069 54.5335 179.803 54.1554C180.116 54.152 180.389 54.255 180.621 54.4644C180.854 54.6738 180.976 54.902 180.989 55.149C181.01 55.539 180.761 55.7736 180.244 55.8528L176.589 55.8684C176.705 56.8399 176.812 58.2615 176.91 60.1333C177.021 61.9915 177.118 63.3485 177.202 64.2043C177.104 64.5874 176.887 64.7878 176.549 64.8055C176.328 64.8171 176.109 64.7374 175.891 64.5663C175.674 64.3952 175.532 64.181 175.466 63.9238C175.481 60.7166 175.529 58.0225 175.61 55.8415L171.818 55.8643ZM181.81 54.4021L182.698 54.5511C182.746 54.9657 182.81 55.4511 182.892 56.0073C182.986 56.5629 183.091 57.196 183.206 57.9069C183.718 57.7236 184.208 57.6198 184.676 57.5952C185.235 57.566 185.761 57.6492 186.253 57.845C186.745 58.0277 187.169 58.2857 187.525 58.619C187.882 58.9523 188.169 59.3412 188.388 59.786C188.606 60.2177 188.728 60.6676 188.752 61.1355C188.776 61.5905 188.7 62.0115 188.525 62.3987C188.35 62.7859 188.107 63.1245 187.796 63.4145C187.485 63.6915 187.119 63.9127 186.697 64.0782C186.276 64.2566 185.825 64.3585 185.345 64.3837C185.254 64.3885 185.052 64.3925 184.739 64.3959C184.426 64.3992 184.093 64.3841 183.74 64.3505C183.4 64.3292 183.091 64.2867 182.814 64.223C182.537 64.1593 182.388 64.0564 182.368 63.914C182.356 63.6931 182.334 63.3944 182.301 63.0182C182.281 62.6282 182.252 62.1996 182.214 61.7323C182.19 61.2644 182.158 60.7773 182.118 60.271C182.078 59.7517 182.039 59.252 182 58.7717C181.975 58.2907 181.946 57.8491 181.911 57.4469C181.89 57.0439 181.874 56.7254 181.861 56.4915C181.823 55.7635 181.806 55.0671 181.81 54.4021ZM183.445 59.1066L183.475 63.0348C184.005 63.1896 184.503 63.2547 184.971 63.2302C185.335 63.2111 185.664 63.1352 185.956 63.0026C186.262 62.8562 186.513 62.6801 186.711 62.4742C186.908 62.2554 187.058 62.0129 187.161 61.7468C187.265 61.4807 187.309 61.2046 187.294 60.9187C187.279 60.6327 187.207 60.3693 187.077 60.1284C186.946 59.8746 186.759 59.6563 186.514 59.4736C186.27 59.2909 185.976 59.1564 185.633 59.0701C185.289 58.9708 184.902 58.9324 184.473 58.9549C184.331 58.9624 184.175 58.9836 184.008 59.0184C183.839 59.0403 183.652 59.0697 183.445 59.1066ZM51.9017 78.1164C53.894 77.5818 55.1112 77.303 55.5531 77.2798C57.2949 77.1885 58.205 77.8903 58.2834 79.3851C58.3106 79.9051 58.2462 80.4168 58.0901 80.9203C57.9463 81.4101 57.7485 81.7398 57.4967 81.9094C58.5467 82.5452 59.1034 83.4675 59.1668 84.6764C59.2267 85.8203 58.8964 86.7304 58.1759 87.4069C57.4683 88.0827 56.5036 88.4526 55.2817 88.5166C53.8259 88.5929 52.7201 88.2598 51.9643 87.5174L51.9017 78.1164ZM53.2696 82.9521L53.6525 86.901C53.9856 87.0399 54.3602 87.0985 54.7762 87.0767C55.5821 87.0345 56.3097 86.7422 56.9591 86.1998C57.6084 85.6574 57.9154 85.0483 57.88 84.3724C57.8554 83.9044 57.651 83.485 57.2666 83.1141C56.8815 82.7302 56.4095 82.5529 55.8506 82.5822C55.5256 82.5993 54.6653 82.7225 53.2696 82.9521ZM52.8641 78.9457L53.158 81.9413C53.3516 81.9051 53.6495 81.8699 54.0518 81.8358C54.4541 81.8017 54.7777 81.7586 55.0226 81.7067C55.2669 81.6418 55.5347 81.53 55.8262 81.3713C56.117 81.1997 56.337 80.9209 56.4862 80.5351C56.6485 80.1486 56.7461 79.6482 56.779 79.0338C56.6286 78.6507 56.2219 78.4765 55.559 78.5112C55.26 78.5269 54.7945 78.5969 54.1623 78.7213C53.5301 78.8457 53.0974 78.9205 52.8641 78.9457ZM73.4387 86.5288L73.5421 87.3836C73.2343 87.478 73.0153 87.5286 72.8853 87.5354C72.3914 87.5613 71.9344 87.4223 71.5144 87.1184C71.0944 86.8146 70.7422 86.4355 70.4577 85.9812C70.1732 85.5268 69.9017 85.0718 69.6432 84.6161C69.3977 84.1598 69.1365 83.7759 68.8595 83.4646C68.5824 83.1532 68.3075 83.0047 68.0345 83.019C67.9305 83.0245 67.834 83.0491 67.7451 83.0928C67.838 83.87 67.995 85.1261 68.2163 86.8611C68.1204 87.2702 67.9035 87.4836 67.5655 87.5013C67.3316 87.5136 67.0993 87.4345 66.8688 87.2641C66.6506 87.0801 66.5084 86.8529 66.4421 86.5826C66.3796 84.3962 66.298 82.341 66.1972 80.4172C66.1229 79.0004 66.1225 77.8729 66.1959 77.0349L67.0896 77.3008C67.2202 77.8023 67.3168 78.5272 67.3795 79.4754C67.4416 80.4106 67.4849 80.9884 67.5095 81.2087C67.896 81.1233 68.2234 80.9041 68.4917 80.5511C68.773 80.1975 68.9933 79.8014 69.1528 79.3629C69.3253 78.9238 69.5047 78.4907 69.6909 78.0639C69.877 77.637 70.1251 77.2721 70.4351 76.9691C70.7581 76.6654 71.147 76.5017 71.602 76.4778C71.836 76.4656 72.204 76.5245 72.7061 76.6546L72.6629 77.3216C72.5842 77.3127 72.4799 77.3116 72.3499 77.3184C71.8299 77.3457 71.3866 77.5905 71.0198 78.0529C70.6653 78.5016 70.4045 78.9975 70.2375 79.5407C70.0828 80.0702 69.875 80.5829 69.6142 81.0788C69.3535 81.5748 69.0562 81.8706 68.7223 81.9663C69.2094 82.0581 69.6358 82.3616 70.0017 82.8768C70.3806 83.3914 70.6696 83.9302 70.8685 84.4933C71.0798 85.0427 71.3667 85.5425 71.7292 85.9927C72.091 86.43 72.5188 86.6357 73.0128 86.6098C73.1428 86.603 73.2847 86.576 73.4387 86.5288ZM74.5826 78.5114L74.1406 77.5374C74.4608 77.1817 74.8758 76.8928 75.3855 76.6706C75.8946 76.4353 76.4026 76.3044 76.9095 76.2779C79.1063 76.1627 80.3041 78.003 80.5031 81.7986C80.5303 82.3185 80.538 83.0871 80.5261 84.1044C80.5273 85.1211 80.5411 85.8828 80.5677 86.3898C80.4848 86.7982 80.2939 87.0102 79.9949 87.0259C79.761 87.0382 79.5404 86.9324 79.3331 86.7087C79.1259 86.4849 79.0148 86.23 78.9998 85.9441C78.995 85.8531 78.9981 85.7878 79.0091 85.7481C78.244 86.5702 77.4065 87.0052 76.4966 87.0528C75.8077 87.0889 75.1903 86.8736 74.6445 86.4069C74.111 85.9266 73.8255 85.3289 73.788 84.614C73.7247 83.4051 74.1354 82.2887 75.0202 81.2648C75.918 80.2401 76.9649 79.6965 78.1607 79.6338C78.2127 79.6311 78.2651 79.6349 78.3177 79.6451C78.3697 79.6424 78.4286 79.6458 78.4942 79.6554C78.5729 79.6643 78.6317 79.6678 78.6707 79.6657C78.487 78.1503 77.8428 77.4216 76.7379 77.4795C76.0879 77.5136 75.3695 77.8575 74.5826 78.5114ZM78.9775 84.4007C78.9559 83.4894 78.9327 82.7998 78.9082 82.3318C78.8878 81.9419 78.8462 81.3966 78.7834 80.6961L78.6274 80.7042C77.7052 80.7656 76.8783 81.1543 76.1468 81.8705C75.4283 82.5859 75.0943 83.4246 75.1447 84.3865C75.1665 84.8024 75.3074 85.1274 75.5673 85.3615C75.8402 85.5948 76.1586 85.7019 76.5226 85.6829C77.0945 85.6529 77.9129 85.2255 78.9775 84.4007ZM81.2428 77.6344L81.0224 76.7857C82.7588 76.5904 85.494 76.3037 89.2281 75.9255C89.5407 75.9222 89.8133 76.0252 90.0459 76.2346C90.2784 76.444 90.4012 76.6722 90.4141 76.9192C90.4346 77.3091 90.1862 77.5437 89.6689 77.623L86.0136 77.6386C86.1297 78.6101 86.2368 80.0317 86.3349 81.9035C86.4453 83.7617 86.5425 85.1186 86.6265 85.9745C86.5292 86.3576 86.3116 86.558 85.9737 86.5757C85.7527 86.5873 85.5334 86.5075 85.3159 86.3365C85.0984 86.1654 84.9568 85.9512 84.8912 85.694C84.9056 82.4868 84.9534 79.7927 85.0346 77.6117L81.2428 77.6344ZM91.9553 77.6009L91.5132 76.627C91.8335 76.2713 92.2485 75.9823 92.7582 75.7601C93.2673 75.5249 93.7753 75.394 94.2822 75.3674C96.479 75.2523 97.6768 77.0925 97.8757 80.8881C97.903 81.4081 97.9107 82.1767 97.8988 83.194C97.9 84.2106 97.9138 84.9724 97.9404 85.4793C97.8575 85.8877 97.6666 86.0998 97.3676 86.1154C97.1337 86.1277 96.913 86.022 96.7058 85.7982C96.4986 85.5744 96.3874 85.3196 96.3725 85.0336C96.3677 84.9426 96.3708 84.8773 96.3817 84.8376C95.6167 85.6598 94.7792 86.0947 93.8693 86.1424C93.1804 86.1785 92.563 85.9632 92.0172 85.4965C91.4837 85.0161 91.1982 84.4185 91.1607 83.7035C91.0974 82.4947 91.5081 81.3782 92.3929 80.3543C93.2907 79.3297 94.3375 78.786 95.5334 78.7233C95.5854 78.7206 95.6377 78.7244 95.6904 78.7347C95.7424 78.7319 95.8012 78.7354 95.8669 78.745C95.9456 78.7539 96.0044 78.7573 96.0434 78.7553C95.8597 77.2399 95.2154 76.5111 94.1106 76.569C93.4606 76.6031 92.7422 76.9471 91.9553 77.6009ZM96.3502 83.4902C96.3285 82.5789 96.3054 81.8893 96.2809 81.4214C96.2605 81.0314 96.2189 80.4862 96.1561 79.7856L96.0001 79.7938C95.0779 79.8551 94.251 80.2439 93.5195 80.96C92.801 81.6754 92.467 82.5141 92.5174 83.476C92.5392 83.892 92.68 84.217 92.94 84.451C93.2129 84.6843 93.5313 84.7915 93.8953 84.7724C94.4672 84.7424 95.2855 84.315 96.3502 83.4902ZM97.7142 87.505L97.3583 86.6829C97.7784 86.4915 98.1544 86.2046 98.4863 85.8222C98.8051 85.4405 99.0649 85.0489 99.2654 84.6474C99.4653 84.2328 99.6275 83.7225 99.7522 83.1164C99.8768 82.5103 99.96 81.9846 100.002 81.5392C100.056 81.0802 100.085 80.5182 100.089 79.8532C100.094 79.1882 100.087 78.6932 100.07 78.3683C100.066 78.0296 100.049 77.5808 100.019 77.0219C99.9777 76.229 100.024 75.7508 100.159 75.5873C100.331 75.3828 101.333 75.2325 103.166 75.1364C104.609 75.0608 105.427 75.0114 105.622 74.9882C105.924 80.2643 106.169 83.686 106.355 85.2534C106.246 85.6502 106.028 85.8571 105.703 85.8741C105.483 85.8857 105.263 85.8059 105.046 85.6348C104.828 85.4638 104.687 85.2496 104.621 84.9924C104.581 84.4861 104.535 83.7325 104.483 82.7316C104.457 82.2377 104.418 81.4902 104.365 80.4893C104.326 79.4878 104.293 78.7335 104.266 78.2266C104.217 77.2907 104.174 76.5891 104.137 76.1218C103.595 76.2414 103.059 76.3217 102.526 76.3626C101.994 76.4035 101.618 76.4428 101.399 76.4804C101.382 76.9114 101.383 77.55 101.401 78.3963C101.42 79.2425 101.433 79.9913 101.441 80.6426C101.461 81.2802 101.421 82.0122 101.321 82.8387C101.221 83.6521 101.049 84.3519 100.806 84.9381C100.575 85.5107 100.192 86.0326 99.656 86.5039C99.1339 86.9874 98.4866 87.3211 97.7142 87.505ZM107.719 81.0566C107.692 80.5366 107.713 79.9554 107.784 79.3131C107.868 78.67 108.002 77.9917 108.186 77.2782C108.37 76.5647 108.671 75.9624 109.088 75.4713C109.506 74.9802 110.007 74.7193 110.592 74.6886C111.84 74.6232 112.87 75.1362 113.683 76.2276C114.496 77.306 114.938 78.5341 115.01 79.9119C115.041 80.4969 115.007 81.0852 114.907 81.677C114.82 82.255 114.661 82.8303 114.431 83.4029C114.2 83.9755 113.848 84.4632 113.373 84.866C112.912 85.2552 112.357 85.4928 111.71 85.5789C110.506 85.4856 109.556 85.027 108.861 84.2031C108.166 83.3663 107.785 82.3174 107.719 81.0566ZM110.762 75.6964C110.31 75.7722 109.948 76.2083 109.677 77.0045C109.406 77.8008 109.244 78.5718 109.192 79.3175C109.139 80.0502 109.127 80.696 109.157 81.2549C109.195 81.9829 109.451 82.6472 109.926 83.248C110.413 83.8351 110.936 84.114 111.495 84.0847C111.898 84.0636 112.253 83.8885 112.562 83.5595C112.871 83.2305 113.104 82.8338 113.262 82.3693C113.433 81.8911 113.551 81.4157 113.618 80.9429C113.697 80.4695 113.727 80.0509 113.708 79.6869C113.652 78.621 113.363 77.7042 112.841 76.9365C112.318 76.1688 111.625 75.7554 110.762 75.6964ZM116.713 74.7197C117.269 74.6385 118.11 74.5097 119.234 74.3334C120.358 74.1442 121.153 74.0178 121.619 73.9543C121.945 73.9502 122.224 74.0594 122.458 74.2818C122.703 74.4905 122.833 74.7249 122.846 74.9848C122.867 75.3748 122.619 75.6094 122.101 75.6887C121.618 75.6749 120.887 75.648 119.907 75.6081C118.928 75.5682 118.183 75.5421 117.674 75.5296C117.729 76.3219 117.874 77.6046 118.111 79.378C118.347 81.1513 118.49 82.5059 118.539 83.4418C118.581 84.2477 118.284 84.6674 117.647 84.7007C117.114 84.7287 116.828 84.3787 116.79 83.6508C116.745 82.7928 116.716 81.8754 116.704 80.8985C116.692 79.9085 116.691 78.7811 116.703 77.5161C116.714 76.2382 116.718 75.306 116.713 74.7197Z" fill="#3B636B"/>
<path d="M158.116 65.7384C157.101 66.1443 155.12 67.3111 153.749 68.3256C150.398 70.7606 143.036 78.5729 140.04 82.7834L137.653 86.1822L135.114 85.0155C129.935 82.6312 122.471 83.798 118.104 87.7548C114.601 90.9 113.382 94.096 113.636 99.321C113.839 102.821 114.144 103.988 115.718 107.083L117.546 110.684L116.022 112.003C115.159 112.714 114.093 113.272 113.636 113.272C112.417 113.322 108.406 115.199 107.187 116.315C106.172 117.279 106.172 117.279 106.324 112.916C106.476 109.72 106.273 107.945 105.664 106.322C103.227 99.9805 97.0319 97.3933 90.9387 100.285C86.7242 102.213 83.3729 106.981 81.545 113.525L80.6818 116.569L76.1626 116.823C71.1865 117.127 69.4601 117.837 67.0228 120.475C62.9607 124.787 61.2343 129.961 61.082 138.179C60.9804 143.151 61.1328 144.267 62.0467 146.296C63.4177 149.289 66.3627 152.536 69.1047 154.108C70.8819 155.174 71.3896 155.884 72.6083 159.029C76.5181 169.073 84.8455 176.987 95.3055 180.437C99.1137 181.705 106.883 183.278 109.421 183.278H110.792L110.843 201.895C110.894 216.809 111.097 221.223 111.706 223.861C112.62 227.564 112.773 239.637 112.011 241.159C111.706 241.616 110.792 242.225 109.878 242.377C108.964 242.58 107.39 243.188 106.426 243.645C104.75 244.507 104.344 244.507 101.602 243.848C97.4888 242.884 94.8992 242.986 92.4112 244.102C90.7355 244.863 89.8216 244.964 88.0952 244.609C86.8765 244.406 83.9315 244.203 81.545 244.203C74.944 244.152 71.6943 246.08 70.3233 250.747C68.8508 255.617 71.999 260.386 77.5844 261.907C82.4082 263.226 96.7272 265.002 101.602 264.9C105.004 264.799 108.101 265.053 110.945 265.661C115.819 266.727 120.948 266.575 122.877 265.256C124.045 264.545 124.654 264.545 129.884 265.205C134.454 265.814 136.181 265.864 138.263 265.408C140.446 264.9 141.411 264.951 144.356 265.712C148.976 266.93 157.964 267.335 160.553 266.422C161.671 266.067 164.463 265.763 166.85 265.763C169.896 265.712 171.674 265.458 172.994 264.799C174.365 264.14 176.243 263.886 180.61 263.784C185.637 263.683 186.653 263.531 188.278 262.516C192.289 260.03 193.761 254.856 191.629 250.747C190.309 248.16 187.059 245.471 184.215 244.66C182.387 244.102 179.29 243.848 167.256 243.29C163.295 243.087 161.264 242.833 161.264 242.428C161.264 242.123 160.452 239.739 159.487 237.152C157.355 231.572 157.304 230.303 158.979 228.325C160.655 226.346 161.62 222.846 162.585 215.49C162.991 212.142 163.549 208.693 163.752 207.881C164.108 206.41 164.209 206.511 165.225 209.758C166.037 212.396 166.24 213.867 165.987 216.606C165.123 227.26 172.841 234.666 180.915 230.963C182.641 230.202 183.403 230.1 184.875 230.506C190.512 232.079 197.265 226.752 198.585 219.701C199.093 217.114 197.722 212.853 195.589 210.367C193.711 208.185 188.684 205.395 185.586 204.837C184.622 204.634 183.555 204.33 183.301 204.178C182.997 203.975 182.134 201.997 181.372 199.764C179.341 193.931 175.939 187.082 172.689 182.263C171.166 179.929 169.947 178.002 169.998 177.9C170.099 177.85 171.978 177.089 174.212 176.226C179.747 174.096 185.282 170.392 189.395 165.979C193.051 162.124 194.726 159.181 194.777 156.645C194.777 154.413 192.746 150.76 190.766 149.441C187.922 147.564 185.891 147.412 181.727 148.934C179.696 149.644 178.021 150.151 178.021 149.999C178.021 149.847 178.427 149.086 178.985 148.376C180.712 145.84 182.032 142.847 182.794 139.448C183.809 135.237 183.809 133.512 182.895 131.331L182.184 129.657L186.856 124.635C189.395 121.845 193.355 117.888 195.589 115.909C200.058 112.003 201.276 110.076 201.733 106.22C202.597 99.0167 195.031 87.2475 182.844 76.7466C171.572 67.0067 163.905 63.6078 158.116 65.7384ZM103.074 135.846C103.48 137.419 103.024 137.419 101.196 135.947L99.8246 134.781L100.942 132.092L102.11 129.353L102.414 131.991C102.617 133.411 102.922 135.136 103.074 135.846ZM136.384 232.485H139.329L139.684 235.376C139.837 237 140.344 239.637 140.751 241.311C141.208 242.935 141.36 244.457 141.106 244.66C140.903 244.812 138.821 244.558 136.536 244L132.322 243.036V239.384C132.322 237.405 132.169 234.869 131.966 233.804C131.712 232.028 131.763 231.825 132.525 232.13C133.033 232.332 134.759 232.485 136.384 232.485Z" fill="white"/>
<path fill-rule="evenodd" clip-rule="evenodd" d="M171.965 251.641C169.611 251.07 167.684 250.507 162.273 250.547C161.97 250.55 161.051 250.561 160.642 250.503C160.814 250.543 160.847 250.58 161.001 250.662L160.899 250.84C160.25 250.594 159.788 250.433 159.659 250.391L159.031 250.58C157.593 251.34 158.588 251.737 160.268 251.942L160.238 251.995C161.433 252.779 163.172 253.61 164.307 254.29C158.488 253.334 138.421 249.67 141.809 253.02C142.324 253.529 143.934 254.093 145.85 254.646C138.616 253.139 136.299 250.625 124.359 250.15L124.361 250.187L124.246 250.153L123.325 250.427C122.373 251.066 122.992 251.402 124.462 251.664L124.47 251.788C126.183 252.444 128.366 253.168 130.24 253.894C123.961 253.068 111.115 251.36 109.08 251.083C106.927 250.421 106.259 251.79 107.252 252.313C107.621 252.471 110.014 253.468 112.205 254.399C104.449 252.722 93.1664 248.689 94.6472 251.844C94.8379 252.252 95.71 252.904 96.6472 253.522C90.0493 252.868 84.6905 251.596 82.2284 251.56C67.3273 251.347 94.6812 254.857 94.6956 254.859C103.589 256.02 102.351 254.866 99.8257 253.143C106.003 254.847 117.501 258.07 118.549 256.023C118.864 255.409 117.322 254.462 115.395 253.559C123.156 254.632 133.697 255.991 133.953 255.974C138.2 255.691 135.057 254.023 131.252 252.545C133.003 252.809 134.79 253.161 136.353 253.684C140.514 255.076 150.38 258 155.508 257.264C159.247 256.728 154.108 254.958 149.59 253.657C156.186 254.571 164.732 256.478 166.734 256.057C170.073 255.353 167.12 253.54 164.067 252.15C165.437 252.168 166.525 252.143 166.575 252.147L166.306 252.067C181.244 256.08 183.499 253.832 181.497 252.903C180.507 251.272 175.547 251.184 173.264 251.1C172.666 251.1 172.157 251.325 171.965 251.641Z" fill="#CCCCCC"/>
<path fill-rule="evenodd" clip-rule="evenodd" d="M120.255 233.967C119.318 245.334 120.625 246.908 109.783 249.933C108.95 250.139 108.442 250.981 108.647 251.814C108.854 252.648 109.696 253.156 110.53 252.95C126.2 247.79 122.417 240.127 121.442 223.988C121.398 223.255 121.434 223.604 121.302 222.806C119.773 225.728 120.258 233.934 120.255 233.967Z" fill="#3B636B"/>
<path fill-rule="evenodd" clip-rule="evenodd" d="M147.079 226.58C144.625 242.67 155.34 247.683 145.164 252.353C144.371 252.678 143.99 253.585 144.316 254.379C144.641 255.174 145.549 255.554 146.342 255.229C157.906 249.171 149.247 242.153 147.568 231.678L147.079 226.58Z" fill="#3B636B"/>
<path fill-rule="evenodd" clip-rule="evenodd" d="M80.3021 150.039C76.8104 141.009 75.8811 176.824 115.517 174.538C108.93 174.454 99.7873 172.54 92.4833 167.665C87.0768 164.055 81.9122 157.356 80.3021 150.039Z" fill="#3B636B"/>
<path fill-rule="evenodd" clip-rule="evenodd" d="M133.935 100.346C135.754 89.6036 114.093 91.3343 122.948 105.626C128.136 113.999 139.346 101.665 146.692 115.039C146.877 115.427 147.34 115.591 147.728 115.406C148.115 115.221 148.28 114.757 148.095 114.37C140.235 100.069 128.649 111.895 124.277 104.822C118.012 94.6801 130.594 91.2974 132.337 98.6744C133.882 105.212 124.61 102.056 129.433 99.8267C129.836 99.678 130.042 99.231 129.893 98.8281C129.745 98.426 129.298 98.2202 128.895 98.3689C121.947 101.612 132.523 108.677 133.935 100.346Z" fill="#3B636B"/>
<path fill-rule="evenodd" clip-rule="evenodd" d="M184.34 156.406C178.998 159.018 173.874 159.999 168.999 159.952C164.251 159.905 159.736 158.912 155.576 155.513C151.712 151.767 147.853 148.57 144.017 147.792C141.326 147.246 139.388 147.7 138.118 148.78C137.29 147.333 135.622 146.248 132.906 145.847C129.033 145.276 124.318 146.971 119.411 149.182C114.344 150.965 109.759 150.365 105.279 148.796C100.676 147.185 96.1919 144.521 92.0547 140.249C96.7637 158.499 117.695 171.124 134.791 159.118C135.51 158.425 136.149 157.68 136.695 156.912C136.946 157.82 137.295 158.737 137.735 159.634C149.736 176.733 173.711 171.97 184.34 156.406Z" fill="#3B636B"/>
<path fill-rule="evenodd" clip-rule="evenodd" d="M154.464 178.624C154.496 181.055 154.155 181.968 153.837 182.088C153.693 181.131 153.451 180.371 153.215 180.315C152.415 180.125 152.527 180.903 152.935 181.599C153.014 183.021 153.319 183.604 153.319 185.259C152.919 185.141 152.545 184.928 152.202 184.652C151.736 183.471 150.981 182.49 150.386 181.963C150.353 181.867 150.325 181.774 150.301 181.682C150.306 181.745 150.293 181.806 150.265 181.861C149.454 181.202 149.027 181.496 150.275 183.471L150.387 183.646C150.561 184.083 150.745 184.561 150.916 185.026C150.5 184.408 150.062 183.773 149.681 183.292L149.661 183.231L149.657 183.262C148.845 182.242 148.309 181.947 148.851 184.067C148.389 182.801 147.899 182.273 147.178 183.379C146.076 185.069 148.485 192.446 149.432 196.651C147.667 193.369 146.675 188.78 146.355 185.597L146.358 185.632L146.246 185.685C146.17 185.329 146.11 185.101 146.073 185.032L144.631 185.722C144.727 186.92 144.869 188.022 145.067 189.072C145.529 192.65 146.07 197.018 146.457 200.979C146.153 200.129 145.837 199.272 145.517 198.418C144.137 192.992 142.53 187.91 141.07 186.555C140.735 185.5 140.512 184.632 140.449 184.016C140.307 182.635 135.665 180.392 137.869 185.691C140.233 191.38 140.677 198.447 141.436 205.597C139.111 198.921 137.396 192.062 137.204 185.256C137.127 182.498 133.803 180.431 133.291 186.847L133.184 186.433L133.169 186.431C133.003 185.744 132.806 184.937 132.568 183.973C132.324 182.989 131.711 182.866 130.947 182.684C130.705 183.766 130.538 184.734 130.434 185.616C130.261 185.382 130.031 185.046 129.655 184.558C129.392 183.15 129.347 183.177 127.534 182.822C127.252 183.092 127.075 183.604 126.984 184.307C125.805 179.388 123.676 179.956 123.988 183.616C124.073 184.624 124.433 187.701 124.983 191.678C124.201 189.679 123.473 188.018 122.86 186.914L122.858 186.881L122.853 186.9C121.106 183.758 120.308 185.166 121.904 196.161C121.904 196.163 122.384 198.708 123.077 202.054C122.052 201.106 121.62 202.73 122.776 209.532C122.776 209.532 123.818 214.748 123.75 216.499C122.528 214.937 120.674 209.397 119.981 208.961L119.621 209.068C119.312 209.667 121.381 214.249 122.099 216.689C121.881 215.612 121.501 214.109 121.136 212.736C127.514 226.295 122.839 208.41 122.876 203.662C123.147 204.078 123.446 204.625 123.759 205.262C124.994 210.929 126.55 217.257 127.464 217.868C130.122 219.647 127.659 211.093 125.261 205.78C124.565 202.14 124.024 198.29 123.615 194.757C124.651 197.813 125.876 201.305 127.043 204.672C128.815 214.373 131.089 223.083 133.116 220.065C133.586 219.366 131.539 211.429 129.004 203.332C128.831 202.405 128.662 201.467 128.498 200.527C129.3 202.655 130.247 205.065 131.158 207.439C132.57 212.676 133.922 217.057 134.462 218.468C134.931 219.694 136.477 220.857 136.974 219.521C137.856 221.666 138.922 222.642 140.185 221.143C140.257 221.057 140.315 220.954 140.366 220.839C141.792 223.071 143.614 222.976 143.484 218.817C144.005 220.007 144.553 221.244 145.129 222.537C145.258 222.837 145.391 223.135 145.529 223.431L148.184 222.213L147.337 220.267C145.365 215.26 144.648 209.509 144.018 203.745C144.861 207.511 145.659 210.967 146.478 213.013C146.487 213.255 146.493 213.499 146.497 213.743L146.772 213.68C147.37 214.907 147.984 215.328 148.637 214.519C149.475 213.483 149.38 211.306 148.768 208.557C149.02 206.467 148.591 201.724 148.004 197.04C152.122 204.802 151.276 198.208 150.02 191.932C150.155 192.088 150.296 192.233 150.446 192.363C152.753 194.386 151.689 189.823 150.688 186.446C151.535 187.677 152.409 188.604 152.58 187.484C152.649 187.031 152.646 186.58 152.591 186.14C153.906 186.789 154.106 184.457 153.897 182.552C154.52 182.766 155.026 181.997 154.464 178.624ZM149.485 186.173C149.643 186.638 150.352 188.594 150.696 190.124C150.208 188.857 149.83 187.43 149.485 186.173ZM122.099 216.689C122.267 217.259 122.361 217.712 122.333 217.969C122.317 217.958 122.3 217.943 122.28 217.925C122.277 217.671 122.209 217.235 122.099 216.689ZM122.333 217.969C122.332 217.986 122.33 218.002 122.327 218.016C122.34 218.005 122.356 217.992 122.375 217.995C122.363 217.99 122.349 217.982 122.333 217.969ZM122.375 217.995L122.378 217.996L122.377 217.997L122.375 217.995ZM122.28 217.925C122.031 217.696 121.527 217.036 121.449 216.943C122.06 218.234 122.285 218.401 122.28 217.925Z" fill="#45CDC3"/>
<path fill-rule="evenodd" clip-rule="evenodd" d="M111.844 137.441C107.456 154.745 111.709 167.983 119.488 175.636C118.989 175.855 118.618 176.329 118.56 176.91C118.495 180.619 117.435 222.395 119.636 223.237C120.591 223.603 121.93 222.712 123.268 222.601C130.915 221.975 149.873 225.849 151.177 221.453C153.272 214.39 154.931 186.933 155.756 177.94C152.934 186.187 151.086 217.216 149.281 221.23C142.621 221.022 127.45 219.512 121.176 220.647C121.948 207.367 121.243 191.397 121.643 177.544C135.72 188.733 158.493 183.727 165.584 155.301C168.874 142.117 166.324 133.116 162.315 125.347C161.853 124.399 161.351 123.477 160.807 122.581C164.053 130.605 166.764 137.361 165.396 149.018C160.01 194.877 108.368 188.865 113.488 143.161C115.945 121.234 129.12 111.707 144.105 112.714C144.837 112.867 145.896 112.089 146.468 110.977C147.041 109.865 146.911 108.84 146.178 108.687C132.356 107.965 117.576 114.836 111.844 137.441Z" fill="#3B636B"/>
<path fill-rule="evenodd" clip-rule="evenodd" d="M144.904 130.889C143.202 128.964 140.173 128.487 137.503 129.627C133.077 123.864 120.989 121.053 114.183 122.418C111.521 122.951 111.163 124.647 110.643 127.011C109.487 132.267 110.425 138.05 113.717 140.873C115.455 142.364 117.494 143.469 119.646 144.086C121.815 144.71 124.101 144.838 126.318 144.369C131.204 143.337 135.698 139.445 137.732 131.617C140.095 131.3 141.767 131.611 143.973 132.681C143.219 140.751 146.124 145.947 150.375 148.581C152.3 149.775 154.495 150.431 156.746 150.582C158.98 150.732 161.273 150.385 163.413 149.575C167.526 148.016 171.546 143.237 172.609 137.989C173.271 134.72 173.497 134.305 170.821 132.725C164.475 128.979 151.514 126.691 144.904 130.889ZM169.781 135.071C169.039 142.575 164.583 149.789 156.717 149.261C148.862 148.733 145.086 139.668 145.811 132.189C152.709 128.454 163.997 130.068 169.781 135.071ZM113.652 125.244C111.8 132.554 112.544 140.678 120.121 142.854C127.689 145.026 134.32 137.783 136.179 130.502C129.816 123.363 118.864 123.244 113.652 125.244Z" fill="#CF312C"/>
<path fill-rule="evenodd" clip-rule="evenodd" d="M87.5243 138.705C91.9315 131.02 96.8232 120.394 97.2066 113.927C97.6896 105.777 92.8399 107.715 90.403 113.238C88.1633 118.314 87.7315 124.75 85.5741 129.638C85.0239 130.886 84.0737 128.357 84.8593 130.383C85.478 131.978 86.2644 130.93 86.546 129.973C88.1987 124.355 90.1134 114.721 93.3019 111.801C99.6239 106.014 91.8066 126.784 90.2247 130.378C89.1633 132.786 87.6731 135.087 86.9077 136.401C86.6283 136.883 85.4268 140.212 86.7849 139.809C86.839 139.794 87.4622 138.73 87.5243 138.705Z" fill="#3B636B"/>
<path fill-rule="evenodd" clip-rule="evenodd" d="M86.3857 137.497C86.2507 137.759 86.312 137.589 86.0073 138.419C86.7633 125.657 71.6412 127.369 80.0673 139.43C80.2232 139.653 79.7532 139.599 79.9323 139.874C80.7323 139.576 81.2362 139.412 80.9524 138.698C80.4867 137.528 79.2383 135.827 79.1127 134.993C78.4889 130.88 81.1221 129.095 83.3286 133.581C84.0875 135.124 84.8153 137.638 85.4095 140.36C86.7164 146.349 77.9142 152.103 75.2759 143.242C74.5294 144.289 74.7466 145.709 75.3943 146.721C72.3213 145.814 69.7662 143.058 69.8846 137.742C67.1698 142.353 71.5596 147.88 76.8434 148.448C80.8485 148.878 85.6051 147.531 86.0376 143.03C86.3236 140.058 87.9164 137.743 87.2521 137.352C86.5893 136.962 86.7763 136.833 86.3857 137.497Z" fill="#3B636B"/>
<path fill-rule="evenodd" clip-rule="evenodd" d="M74.0306 127.47C74.6321 127.085 74.822 127.977 75.7281 128.386C76.2119 128.605 77.4501 127.386 78.1851 127.457C78.7223 127.508 78.7519 128.836 79.2263 128.984C79.9252 129.201 81.2458 128.493 81.8552 128.523C82.7981 128.57 84.9411 130.936 85.406 130.907C85.5685 130.897 83.7865 128.022 82.5425 127.441C81.9259 127.153 81.3339 127.633 80.5606 127.392C80.24 127.293 80.0479 126.425 79.7143 126.315C77.6681 125.642 77.8169 126.994 77.0444 126.568C76.105 126.05 74.5663 125.667 74.0219 125.987C70.8818 127.833 67.6451 136.453 70.4263 139.93C70.705 140.278 71.3778 140.013 71.7843 140.246C72.6284 140.731 72.3959 141.871 74.6421 142.093C77.6457 142.389 79.019 140.817 80.6768 139.664C81.7309 138.929 80.0082 138.174 79.6789 138.825C79.6565 138.869 79.4061 139.087 78.9642 139.289C76.7267 140.312 77.4183 135.371 76.975 135.513C76.6956 135.602 76.6263 137.524 76.4754 138.912C76.2985 140.536 73.2017 142.736 73.4415 137.881C73.4833 137.028 73.5823 136.052 73.7534 135.114C74.2126 132.598 75.1931 130.33 74.9996 130.11C74.887 129.981 73.8256 131.742 73.0321 134.199C72.3837 136.205 72.0068 139.033 71.7028 138.705C70.9187 137.856 70.9786 136.093 71.2544 133.776C71.637 130.572 73.3295 127.92 74.0306 127.47Z" fill="#3B636B"/>
<path fill-rule="evenodd" clip-rule="evenodd" d="M171.35 209.525C174.76 213.319 179.1 210.739 184.75 215.232C185.264 215.64 185.628 216.061 185.88 216.469C186.392 217.301 186.441 218.081 186.35 218.601C186.067 220.206 183.927 221.911 181.062 218.193C179.132 215.687 175.051 214.828 175.488 217.329C176.236 221.614 174.854 222.345 173.699 220.41C172.663 218.673 175.338 210.151 173.687 213.076C169.762 220.042 177.171 228.476 176.048 217.44C178.151 214.778 183.247 224.478 186.582 220.412C191.488 214.431 181.708 212.477 175.597 211.156C173.777 210.763 171.95 209.717 171.35 209.525ZM176.967 220.763C176.985 220.766 177.002 220.77 177.02 220.775C177.006 220.777 176.988 220.772 176.967 220.763Z" fill="#3B636B"/>
<path fill-rule="evenodd" clip-rule="evenodd" d="M157.555 180.068C162.952 186.292 172.078 204.448 173.058 212.706C175.579 208.346 164.668 183.498 157.555 180.068Z" fill="#3B636B"/>
<path fill-rule="evenodd" clip-rule="evenodd" d="M128.65 167.049C133.061 167.477 135.274 168.082 140.767 166.184C141.673 171.917 130.75 175.615 128.65 167.049Z" fill="#3B636B"/>
<path fill-rule="evenodd" clip-rule="evenodd" d="M183.769 101C184.073 101.622 184.441 102.379 184.792 103.113C184.125 102.182 183.236 100.952 182.21 99.5645C182.734 100.045 183.254 100.524 183.769 101ZM186.279 105.684C186.293 105.688 186.308 105.693 186.322 105.7L186.256 105.617C186.184 105.42 186.078 105.167 185.933 104.856C185.984 104.868 186.036 104.892 186.086 104.928C186.062 104.897 185.935 104.719 185.723 104.42C185.345 103.65 184.784 102.601 184.007 101.219C184.594 101.76 185.175 102.298 185.749 102.829C185.608 102.449 185.454 102.074 185.288 101.704C186.105 102.22 186.926 102.695 187.751 103.121C186.54 101.661 185.042 100.015 183.363 98.2829C179.768 92.971 174.073 88.6034 169.868 84.041C169.648 83.8027 161.55 73.7427 162.876 79.75C162.982 80.2287 163.132 80.7197 163.319 81.22L162.538 81.4865C159.938 79.2381 158.2 78.5276 158.184 80.7514C158.177 81.8395 158.966 83.2619 160.256 84.9139C156.941 82.2966 154.358 80.7818 153.563 81.5926C152.607 82.5695 153.445 84.2453 155.324 86.3233C153.95 85.711 152.925 85.5608 152.42 86.0583C152.158 86.3168 152.025 86.6352 151.997 87.002C150.855 86.8836 150.168 87.4309 150.131 88.885C150.05 92.0728 154.641 96.1277 159.897 100.247C160.159 100.079 160.442 99.9197 160.752 99.7696C161.771 99.1732 163.08 99.5154 163.675 100.534C164.271 101.552 163.96 103.048 162.941 103.645C161.018 105.15 160.522 106.157 159.413 107.006C161.014 108.24 162.689 109.58 164.598 111.234C165.187 112.257 164.834 113.563 163.812 114.152C162.789 114.74 161.483 114.388 160.894 113.365C160.762 113.263 158.838 111.863 156.56 110.147C156.059 110.883 155.531 111.744 154.914 112.783C156.009 113.606 157.106 114.44 158.174 115.266C159.274 116.438 160.405 117.618 161.515 118.736C159.495 116.891 157.161 114.856 154.864 112.868C154.649 113.229 154.425 113.611 154.187 114.016C153.555 115.013 152.236 115.309 151.239 114.678C151.02 114.539 150.834 114.367 150.685 114.173C149.524 113.325 148.379 112.464 147.291 111.605C144.747 109.063 142.254 106.542 139.848 104.297L139.838 104.284L139.843 104.292L139.708 104.166L139.059 104.716C141.266 108.633 145.68 112.198 150.407 115.574C154.664 119.487 158.967 123.089 161.958 124.44C159.305 122.713 156.631 120.497 153.976 118.069C155.108 118.85 156.229 119.622 157.317 120.389C161.683 124.323 165.258 127.03 164.532 124.584C164.311 123.844 162.222 122.27 159.339 120.247C157.738 118.774 155.903 117.033 154.038 115.226C154.389 115.498 154.755 115.782 155.14 116.079C155.14 116.08 166.124 125.583 166.124 125.583C167.545 125.891 167.64 125.338 166.862 124.225L167.057 124.12C166.532 123.595 166.011 123.087 165.494 122.594C165.359 122.449 165.217 122.3 165.07 122.148C168.525 125.254 171.062 126.747 170.577 123.852C170.368 122.607 166.428 118.954 161.503 114.974C160.493 113.911 159.462 112.816 158.452 111.733C162.534 114.874 166.53 117.815 170.992 121.679L171.149 119.892L172.869 119.863C172.329 119.4 171.797 118.951 171.27 118.512L171.303 118.13L166.987 113.739C168.673 114.99 170.201 116.222 171.483 117.438C171.374 117.308 171.29 117.174 171.23 117.037C172.052 117.657 172.636 118.019 172.844 117.986C174.431 117.739 174.507 116.9 173.725 115.778L173.948 115.896C173.77 115.711 173.567 115.508 173.346 115.29C172.766 114.603 171.932 113.837 170.968 113.049C169.589 111.785 167.94 110.314 166.177 108.752C170.448 111.591 174.151 113.623 175.679 113.376C176.641 113.221 177.122 112.861 177.221 112.338C177.583 112.624 177.924 112.881 178.241 113.104L178.303 113.17L178.324 113.162C179.376 113.892 180.162 114.24 180.581 114.056C181.521 113.642 181.683 112.877 181.275 111.861L181.465 111.778C181.462 111.774 181.297 111.599 181.003 111.292C180.826 110.969 180.604 110.627 180.339 110.266C181.394 110.953 182.41 111.54 183.375 111.996C183.693 111.824 183.797 111.806 184.028 111.524C184.711 110.692 184.478 109.446 183.602 107.926C183.623 107.854 183.638 107.778 183.648 107.7C184.06 107.969 184.4 108.123 184.658 108.149C185.254 108.206 185.631 108.109 185.826 107.885C185.893 107.856 185.938 107.78 185.958 107.649C186.011 107.464 185.995 107.231 185.922 106.957C185.906 106.858 185.888 106.752 185.865 106.635C185.806 106.346 185.724 106.048 185.626 105.743C185.765 105.87 185.87 105.949 185.943 105.985C186.327 106.315 186.482 106.277 186.279 105.684ZM159.708 100.371C155.134 97.189 151.056 94.0555 149.308 92.2201C149.283 92.1941 142.689 90.1551 149.311 97.2764C146.615 95.3399 144.366 93.9038 143.794 94.0482C140.724 94.8237 143.703 98.2858 147.777 101.774C147.568 102.487 147.963 103.777 149.726 105.822C149.726 105.822 150.025 106.172 150.545 106.775C145.677 103.427 141.734 101.189 141.327 102.04C140.519 101.682 140.156 102.188 140.926 103.594L140.892 103.572L140.94 103.62C141.436 104.517 142.386 105.772 143.966 107.398C143.966 107.398 146.913 110.437 150.581 114.024C150.15 113.347 150.119 112.453 150.577 111.73C151.558 110.053 152.378 108.697 153.17 107.552C150.934 105.801 149.023 104.207 148.787 103.694C148.42 102.572 149.032 101.366 150.154 101C151.048 100.707 151.996 101.037 152.529 101.751C153.714 102.687 154.825 103.532 155.916 104.355C157.16 103.239 157.867 101.623 159.708 100.371Z" fill="#45CDC3"/>
<path fill-rule="evenodd" clip-rule="evenodd" d="M159.051 75.3601C151.696 79.3407 135.353 99.9653 137.831 107.471C139.04 97.9985 152.006 81.2829 160.126 77.376C162.449 76.2583 187.461 96.5061 187.399 106.412C178.653 113.349 175.528 117.557 167.89 125.595C166.853 125.87 166.235 126.934 166.51 127.97C166.785 129.007 167.849 129.625 168.887 129.35C177.094 122.219 180.908 115.463 189.82 108.708C197.776 102.676 164.936 72.1767 159.051 75.3601Z" fill="#3B636B"/>
<path d="M128.766 136.602C128.144 136.511 127.714 135.933 127.805 135.311C127.896 134.69 128.474 134.26 129.095 134.351C129.717 134.442 130.147 135.019 130.056 135.641C129.965 136.262 129.387 136.693 128.766 136.602Z" fill="black"/>
<path d="M150.104 139.901C149.482 139.81 149.052 139.233 149.143 138.611C149.234 137.99 149.812 137.56 150.433 137.651C151.055 137.742 151.485 138.319 151.394 138.941C151.303 139.562 150.725 139.992 150.104 139.901Z" fill="black"/>
</g>
</g>
<defs>
<filter id="filter0_ddd_3195_42573" x="20" y="-4" width="199.801" height="289.92" filterUnits="userSpaceOnUse" color-interpolation-filters="sRGB">
<feFlood flood-opacity="0" result="BackgroundImageFix"/>
<feColorMatrix in="SourceAlpha" type="matrix" values="0 0 0 0 0 0 0 0 0 0 0 0 0 0 0 0 0 0 127 0" result="hardAlpha"/>
<feOffset dy="3"/>
<feGaussianBlur stdDeviation="2.5"/>
<feColorMatrix type="matrix" values="0 0 0 0 0 0 0 0 0 0 0 0 0 0 0 0 0 0 0.2 0"/>
<feBlend mode="normal" in2="BackgroundImageFix" result="effect1_dropShadow_3195_42573"/>
<feColorMatrix in="SourceAlpha" type="matrix" values="0 0 0 0 0 0 0 0 0 0 0 0 0 0 0 0 0 0 127 0" result="hardAlpha"/>
<feOffset dy="1"/>
<feGaussianBlur stdDeviation="9"/>
<feColorMatrix type="matrix" values="0 0 0 0 0 0 0 0 0 0 0 0 0 0 0 0 0 0 0.12 0"/>
<feBlend mode="normal" in2="effect1_dropShadow_3195_42573" result="effect2_dropShadow_3195_42573"/>
<feColorMatrix in="SourceAlpha" type="matrix" values="0 0 0 0 0 0 0 0 0 0 0 0 0 0 0 0 0 0 127 0" result="hardAlpha"/>
<feOffset dy="5"/>
<feGaussianBlur stdDeviation="5"/>
<feColorMatrix type="matrix" values="0 0 0 0 0 0 0 0 0 0 0 0 0 0 0 0 0 0 0.14 0"/>
<feBlend mode="normal" in2="effect2_dropShadow_3195_42573" result="effect3_dropShadow_3195_42573"/>
<feBlend mode="normal" in="SourceGraphic" in2="effect3_dropShadow_3195_42573" result="shape"/>
</filter>
<clipPath id="clip0_3195_42573">
<rect width="240" height="280" fill="white"/>
</clipPath>
</defs>
</svg>
