<svg width="240" height="280" viewBox="0 0 240 280" fill="none" xmlns="http://www.w3.org/2000/svg">
<g filter="url(#filter0_ddd_3195_42574)">
<path d="M120.95 112.429C118.593 113.555 116.717 115.505 115.482 118.139L114.393 120.47L115.038 127.433C115.704 134.682 116.448 138.455 117.595 140.291C118.38 142.566 134.209 148.792 128.121 149.355C124.484 149.691 122.663 150.686 120.344 153.461C117.948 156.326 117.503 158.268 117.468 165.706C117.479 170.951 117.617 172.797 118.166 174.523C119.557 179.062 123.194 182.113 127.821 182.635C129.39 182.779 132.403 182.542 137.984 181.737C146.437 180.501 147.837 180.082 150.36 177.784C151.902 176.443 153.877 172.997 153.794 171.89C153.724 170.946 155.267 170.184 156.554 170.519C158.016 170.921 161.226 170.5 163.016 169.674C164.198 169.152 164.948 169.041 165.892 169.284C167.093 169.586 170.969 169.063 173.351 168.264C174.297 167.97 174.474 168.078 175.053 169.635C176.406 173.104 179.238 175.527 182.875 176.306C183.774 176.512 186.259 176.53 188.355 176.419C190.491 176.263 193.934 176.151 196.037 176.122C201.043 176.072 203.29 175.162 206.048 172.057C209.27 168.413 210.389 164.22 210.185 156.391C209.953 148.192 208.378 144 204.632 141.744L203.31 140.958L205.561 138.395C208.387 135.077 208.841 133.259 208.248 126.994C207.744 121.919 206.894 117.866 205.716 115.043C204.642 112.498 201.484 109.651 198.677 108.712C196.562 107.999 195.761 107.991 187.599 108.621L178.807 109.269L176.597 110.671C174.666 111.882 172.267 114.706 171.875 116.23C171.774 116.57 171.192 116.665 169.45 116.454C167.583 116.255 166.666 116.381 164.941 116.953C163.466 117.503 162.176 117.705 160.862 117.578C158.786 117.399 155.974 118.072 154.085 119.279C153.279 119.766 152.617 119.91 151.72 119.745C151.078 119.598 150.053 119.404 149.459 119.335C148.568 119.252 148.242 118.828 147.708 117.307C146.751 114.628 143.084 111.745 139.92 111.088C136.586 110.405 123.186 111.354 120.95 112.429Z" fill="white"/>
<path d="M125.726 121.256C125.482 121.608 125.612 122.127 125.612 122.127L126.099 126.329C126.37 128.639 126.743 131.507 126.935 132.692C127.222 134.56 127.34 134.885 127.711 135.225C128.316 135.756 129.226 135.66 129.783 135.011C130.193 134.534 130.204 134.462 129.954 133.016C129.523 130.313 128.663 123.668 128.745 123.573C128.827 123.477 136.083 123.207 137.833 123.233C139.114 123.247 139.772 122.73 139.691 121.783C139.615 120.905 139.314 120.542 138.528 120.415C137.668 120.259 131.953 120.433 128.912 120.694L126.605 120.893C126.605 120.893 125.971 120.903 125.726 121.256Z" fill="#3B636B"/>
<path d="M182.438 119.162C182.211 119.446 182.238 119.979 182.255 120.172C182.306 120.769 182.875 121.515 183.33 121.565C183.549 121.599 186.22 121.44 189.246 121.215C193.489 120.903 194.799 120.843 194.94 121.008C195.309 121.524 196.375 127.214 196.625 130.128C196.787 132.005 196.808 132.039 197.352 132.505C198.029 133.048 198.624 133.05 199.242 132.484C199.677 132.093 199.676 132.075 199.455 129.513C199.085 125.213 198.065 120.262 197.296 119.073C196.543 117.864 196.306 117.832 189.271 118.366L183.059 118.83C183.059 118.83 182.666 118.877 182.438 119.162Z" fill="#3B636B"/>
<path d="M168.138 126.779C167.727 127.239 167.731 127.291 167.996 130.363C168.262 133.664 168.236 135.876 167.809 143.692C167.531 149.055 167.537 151.848 167.849 156.312C168.096 159.597 168.097 159.615 168.537 159.913C169.016 160.243 169.845 160.242 170.34 159.917C170.886 159.569 170.945 158.786 170.707 154.758C170.45 150.519 170.478 148.324 170.838 142.247C171.218 135.566 171.228 132.118 170.848 129.375C170.549 127.155 170.492 126.912 170.084 126.576C169.483 126.08 168.644 126.17 168.138 126.779Z" fill="#CF312C"/>
<path d="M160.244 127.581C159.695 127.894 159.585 128.504 159.672 130.778C159.696 131.889 159.667 134.279 159.571 136.09C159.492 137.901 159.397 140.561 159.361 142.031C159.324 143.484 159.159 146.805 159.004 149.399C158.652 154.946 158.557 159.71 158.753 160.312C159.112 161.342 160.308 161.628 161.111 160.905C161.611 160.438 161.908 159.281 161.715 158.502C161.542 157.756 161.62 154.054 161.933 149.731C162.059 147.846 162.229 144.578 162.28 142.452C162.349 140.325 162.461 137.009 162.546 135.074C162.718 130.781 162.555 128.267 162.062 127.761C161.648 127.354 160.757 127.254 160.244 127.581Z" fill="#CF312C"/>
<path d="M175.928 126.639C175.673 126.82 175.431 127.142 175.413 127.355C175.388 127.693 175.597 136.409 175.895 146.78C175.937 148.315 176.125 151.552 176.314 153.957C176.669 158.294 176.673 158.347 177.121 158.732C177.94 159.458 179.32 158.95 179.442 157.861C179.476 157.628 179.335 155.147 179.149 152.352C178.85 147.834 178.607 140.606 178.502 133.101C178.474 131.724 178.4 129.821 178.317 128.856C178.183 127.294 178.13 127.104 177.742 126.784C177.145 126.34 176.473 126.274 175.928 126.639Z" fill="#CF312C"/>
<path d="M148.925 129.652C148.679 129.938 148.534 130.339 148.558 130.62C148.664 131.849 148.962 139.921 149.097 145.266C149.177 148.495 149.356 152.882 149.488 155.045C149.618 157.191 149.746 159.514 149.753 160.221C149.781 161.385 149.811 161.524 150.282 161.978C151.069 162.742 152.185 162.522 152.604 161.531C152.695 161.329 152.628 159.089 152.478 156.503C152.329 153.935 152.15 149.335 152.068 146.284C152.003 143.231 151.834 138.33 151.707 135.388C151.472 130.14 151.466 130.07 151.048 129.611C150.472 128.988 149.5 129.001 148.925 129.652Z" fill="#CF312C"/>
<path d="M198.781 150.575C198.092 150.935 198.008 151.632 198.359 153.83C198.861 156.951 198.965 160.249 198.603 162.331C198.436 163.317 198.224 164.202 198.142 164.297C198.044 164.412 197.16 164.4 195.833 164.266C193.506 164.024 190.186 164.186 187.991 164.64C186.982 164.851 186.671 165.001 186.278 165.459C185.886 165.935 185.83 166.117 185.96 166.583C186.27 167.67 186.544 167.717 189.968 167.299C192.714 166.974 193.272 166.962 195.307 167.158C196.561 167.28 198.042 167.329 198.616 167.298C199.6 167.213 199.686 167.17 200.273 166.448C201.494 164.929 201.993 161.102 201.583 156.54C201.249 152.662 200.96 151.184 200.477 150.801C199.992 150.401 199.3 150.319 198.781 150.575Z" fill="#3B636B"/>
<path d="M129.467 159.826C129.275 160.107 129.138 160.402 129.147 160.507C129.156 160.613 129.136 161.852 129.114 163.268C129.092 164.685 129.108 167.176 129.141 168.818C129.225 172.099 129.384 172.686 130.328 173.189C130.781 173.433 131.121 173.403 134.951 172.897C137.23 172.577 140.402 172.163 142.007 171.972C144.752 171.63 144.964 171.576 145.324 171.156C145.848 170.545 145.743 169.741 145.103 169.213L144.599 168.796L140.211 169.315C137.785 169.595 134.968 169.943 133.954 170.101L132.103 170.366L132.085 168.688C132.06 167.771 132.057 165.437 132.055 163.528L132.061 160.027L131.594 159.625C130.95 159.062 129.913 159.151 129.467 159.826Z" fill="#3B636B"/>
<path d="M59.7344 117.5C57.113 102.208 54.8477 91.2153 52.8396 67.5892C52.8396 61.5453 50.229 56.3804 55.8517 53.3035C62.8801 49.4574 186.881 45.6115 197.424 45.0621C207.966 44.5126 200.436 47.2599 205.456 67.5892C210.476 87.9186 189.893 84.0725 181.359 86.2703C172.824 88.4681 178.347 85.7209 176.841 100.006C175.334 114.292 177.204 116.521 167.734 119C154.234 122.534 141.734 116 126.234 117.5C118.507 118.248 124.785 126.099 112.234 125C99.6837 123.901 91.7912 122.802 77.7344 125L77.685 125.008C63.6724 127.199 61.4564 127.545 59.7344 117.5Z" fill="white"/>
<path d="M62.2178 59.9941L63.1817 58.9856C63.817 59.9168 64.6356 61.3599 65.6374 63.3147C66.6392 65.2694 67.3193 66.5568 67.6777 67.1767C68.8024 63.7679 69.6442 61.0518 70.2029 59.0282C70.3555 58.7074 70.5618 58.5402 70.8218 58.5265C71.0558 58.5143 71.2699 58.6204 71.4641 58.8448C71.6577 59.0563 71.7753 59.3108 71.817 59.6084C71.4247 60.5804 70.8039 62.1641 69.9544 64.3593C69.1172 66.5408 68.3964 68.3317 67.792 69.7319C67.1999 71.1185 66.56 72.462 65.8721 73.7624L64.5915 73.5754L66.8482 68.5106C66.3128 67.2482 64.7694 64.4094 62.2178 59.9941ZM78.6138 62.8301L79.9335 62.6436C80.6754 64.3644 81.5097 67.5988 82.4363 72.3469C82.218 72.4105 81.9984 72.448 81.7774 72.4596C81.5825 72.4698 81.3533 72.4493 81.0899 72.3979C80.8705 71.6925 80.5834 70.4432 80.2287 68.65C79.8871 66.8562 79.599 65.5874 79.3645 64.8437C78.7821 65.9169 78.0243 67.8727 77.0912 70.711C77.0009 70.7287 76.8398 70.7632 76.6078 70.8145C76.3889 70.8651 76.2209 70.8934 76.104 70.8996C75.961 70.907 75.791 70.8964 75.5939 70.8676C75.358 70.3456 75.0014 69.5105 74.5242 68.3624C74.0592 67.2007 73.6876 66.3273 73.4093 65.7423C72.329 69.0054 71.6731 71.412 71.4415 72.9622L70.6698 72.7876C70.683 71.7963 70.9502 70.0552 71.4714 67.5644C71.9919 65.0606 72.2995 63.4673 72.394 62.7846C72.55 62.7764 72.7265 62.7867 72.9235 62.8155C73.1329 62.8306 73.2895 62.8354 73.3935 62.83C73.7621 63.3972 74.2825 64.4974 74.9547 66.1306C75.6261 67.7507 76.0702 68.7637 76.287 69.1694C77.1278 66.3099 77.9033 64.1968 78.6138 62.8301ZM88.5434 62.036L89.4311 62.185L90.3751 71.618C90.2786 72.0141 90.0613 72.221 89.7233 72.2387C89.4894 72.251 89.2568 72.1654 89.0256 71.982C88.7951 71.8116 88.6467 71.5913 88.5804 71.321C88.5783 71.282 88.5792 70.1806 88.5831 68.0167L88.575 67.8607C88.2097 67.8538 87.6695 67.869 86.9546 67.9065C85.8757 67.9631 85.0616 67.9731 84.5122 67.9367C84.6167 68.6873 84.7649 69.8982 84.9568 71.5696C84.8609 71.9787 84.644 72.1921 84.3061 72.2098C84.0721 72.222 83.8398 72.143 83.6093 71.9726C83.3911 71.7885 83.2489 71.5613 83.1826 71.2911C83.1875 70.6391 83.1729 69.9882 83.1389 69.3382C83.1171 68.9223 83.0779 68.2987 83.0213 67.4674C82.9647 66.6362 82.9258 66.0191 82.9047 65.6162C82.8393 64.3683 82.8235 63.3199 82.8572 62.4709L83.7458 62.6394C84.1536 65.4464 84.3661 66.8886 84.3832 66.9659C86.6121 66.9664 87.759 66.965 87.824 66.9616C88.3569 66.9336 88.6217 66.8872 88.6183 66.8222C88.6047 66.5622 88.5874 65.7354 88.5665 64.3419C88.5456 62.9483 88.5379 62.1797 88.5434 62.036ZM91.5071 61.8807L92.3948 62.0297C92.4426 62.4443 92.5071 62.9297 92.5884 63.4859C92.6827 64.0414 92.7875 64.6746 92.903 65.3854C93.4148 65.2022 93.9046 65.0983 94.3726 65.0738C94.9315 65.0445 95.4573 65.1278 95.9498 65.3235C96.4416 65.5063 96.8657 65.7643 97.2221 66.0976C97.5785 66.4308 97.8661 66.8198 98.0849 67.2645C98.303 67.6963 98.4243 68.1461 98.4489 68.6141C98.4727 69.069 98.4035 69.4897 98.2413 69.8762C98.0921 70.2621 97.8621 70.6 97.5515 70.89C97.2531 71.1663 96.8867 71.3875 96.4523 71.5537C96.0315 71.7321 95.5611 71.835 95.0412 71.8622C94.7292 71.8786 94.3967 71.8765 94.0437 71.8559C93.6914 71.8483 93.3709 71.826 93.0822 71.789C92.7935 71.7519 92.5499 71.7061 92.3516 71.6513C92.1655 71.5828 92.0701 71.5031 92.0653 71.4121C92.0544 71.2041 92.0322 70.9055 91.9988 70.5162C91.9784 70.1263 91.9494 69.6977 91.9119 69.2304C91.8873 68.7624 91.855 68.2688 91.8147 67.7496C91.7745 67.2303 91.7352 66.7305 91.697 66.2503C91.6718 65.7693 91.6425 65.3342 91.6091 64.9449C91.5879 64.542 91.5709 64.217 91.558 63.97C91.5198 63.2421 91.5029 62.5456 91.5071 61.8807ZM93.1418 66.5851L93.1717 70.5134C93.7012 70.6681 94.1999 70.7332 94.6679 70.7087C95.0319 70.6896 95.3603 70.6138 95.6531 70.4811C95.9583 70.3348 96.2097 70.1587 96.4075 69.9528C96.6045 69.7339 96.7548 69.4914 96.8581 69.2253C96.9615 68.9592 97.0057 68.6832 96.9907 68.3972C96.9757 68.1112 96.9032 67.8478 96.7733 67.607C96.6427 67.3532 96.4553 67.1349 96.2111 66.9522C95.9669 66.7694 95.6731 66.6349 95.3297 66.5487C94.9856 66.4494 94.5991 66.411 94.1701 66.4335C94.0271 66.441 93.8718 66.4621 93.7042 66.497C93.5359 66.5188 93.3485 66.5482 93.1418 66.5851ZM98.9718 61.4308L99.8594 61.5798C100.004 62.6019 100.169 63.8902 100.355 65.4446C100.54 66.986 100.746 68.8065 100.974 70.9061C100.877 71.3022 100.66 71.5091 100.322 71.5268C100.088 71.5391 99.8558 71.46 99.6253 71.2896C99.4071 71.1055 99.2649 70.8784 99.1986 70.6081C99.2014 70.4125 99.1912 70.0937 99.168 69.6517C99.1578 69.2091 99.1443 68.7015 99.1273 68.1288C99.1103 67.5562 99.0913 66.9446 99.0702 66.294C99.0492 65.6434 99.0291 65.0122 99.0101 64.4006C98.9911 63.789 98.9745 63.2229 98.9602 62.7023C98.9583 62.168 98.9621 61.7441 98.9718 61.4308ZM103.712 58.9926L103.544 58.3953C103.858 58.418 104.165 58.4215 104.464 58.4058C105.361 58.3588 106.173 58.0685 106.901 57.5351C107.201 57.5454 107.46 57.6231 107.676 57.7682C107.892 57.9133 108.005 58.0898 108.016 58.2978C108.025 58.4668 107.974 58.6063 107.862 58.7165C107.751 58.8266 107.579 58.9138 107.348 58.978C107.116 59.0293 106.923 59.0655 106.767 59.0867C106.611 59.0948 106.403 59.1057 106.143 59.1194C105.298 59.1636 104.488 59.1214 103.712 58.9926ZM104.205 69.5051C104.216 69.726 104.245 70.0178 104.29 70.3804C104.194 70.7895 103.977 71.0029 103.639 71.0206C103.405 71.0329 103.173 70.9538 102.942 70.7834C102.724 70.5993 102.582 70.3722 102.515 70.1019C102.499 69.047 102.464 67.5043 102.41 65.4738C102.368 63.4426 102.342 62.0688 102.331 61.3525L103.219 61.1496C103.419 61.9733 103.574 63.0731 103.685 64.4489C103.797 65.8247 103.902 66.8489 104.003 67.5214C104.231 67.1445 104.883 66.1588 105.959 64.5643C107.036 62.9699 107.762 61.7848 108.139 61.009C108.422 60.9421 108.603 60.9065 108.681 60.9024C108.928 60.8895 109.102 60.9911 109.205 61.2073C109.321 61.4229 109.407 61.8354 109.465 62.445L110.257 70.4587C110.16 70.8548 109.943 71.0617 109.605 71.0794C109.371 71.0917 109.139 71.0126 108.908 70.8422C108.69 70.6581 108.548 70.431 108.482 70.1607C108.472 69.7311 108.45 68.683 108.415 67.0165C108.392 65.3362 108.381 64.1441 108.384 63.4402C106.294 66.0914 104.901 68.113 104.205 69.5051ZM117.316 60.4108C117.873 60.3295 118.713 60.2007 119.838 60.0244C120.962 59.8352 121.757 59.7088 122.223 59.6453C122.548 59.6413 122.828 59.7504 123.061 59.9728C123.307 60.1815 123.436 60.4159 123.45 60.6759C123.47 61.0658 123.222 61.3004 122.705 61.3797C122.222 61.3659 121.49 61.339 120.511 61.2991C119.531 61.2592 118.787 61.2331 118.278 61.2206C118.332 62.0129 118.478 63.2957 118.714 65.069C118.95 66.8423 119.093 68.1969 119.142 69.1328C119.184 69.9387 118.887 70.3584 118.25 70.3918C117.717 70.4197 117.431 70.0697 117.393 69.3418C117.348 68.4839 117.32 67.5664 117.308 66.5895C117.295 65.5995 117.295 64.4721 117.306 63.2071C117.318 61.9292 117.321 60.9971 117.316 60.4108ZM123.648 65.9444C123.62 65.4245 123.642 64.8433 123.713 64.2009C123.796 63.5578 123.93 62.8796 124.114 62.166C124.299 61.4525 124.599 60.8502 125.017 60.3591C125.434 59.868 125.936 59.6071 126.52 59.5765C127.768 59.5111 128.799 60.0241 129.612 61.1154C130.425 62.1938 130.867 63.4219 130.939 64.7998C130.97 65.3847 130.935 65.973 130.836 66.5648C130.749 67.1429 130.59 67.7182 130.36 68.2908C130.129 68.8633 129.776 69.351 129.302 69.7539C128.84 70.143 128.286 70.3807 127.639 70.4667C126.435 70.3734 125.485 69.9148 124.79 69.091C124.095 68.2541 123.714 67.2053 123.648 65.9444ZM126.691 60.5842C126.238 60.6601 125.877 61.0961 125.606 61.8924C125.334 62.6887 125.173 63.4596 125.121 64.2053C125.068 64.938 125.056 65.5838 125.085 66.1428C125.124 66.8707 125.38 67.535 125.855 68.1358C126.342 68.7229 126.865 69.0018 127.423 68.9725C127.826 68.9514 128.182 68.7763 128.491 68.4473C128.799 68.1183 129.033 67.7216 129.191 67.2571C129.361 66.7789 129.48 66.3035 129.546 65.8308C129.626 65.3574 129.656 64.9387 129.637 64.5747C129.581 63.5088 129.292 62.592 128.769 61.8243C128.247 61.0566 127.554 60.6433 126.691 60.5842ZM130.782 71.4946L130.426 70.6726C130.846 70.4811 131.222 70.1942 131.554 69.8118C131.873 69.4302 132.132 69.0386 132.333 68.637C132.533 68.2225 132.695 67.7122 132.82 67.106C132.944 66.4999 133.028 65.9742 133.069 65.5288C133.123 65.0698 133.153 64.5078 133.157 63.8428C133.161 63.1778 133.155 62.6829 133.138 62.3579C133.133 62.0193 133.116 61.5705 133.087 61.0115C133.045 60.2186 133.092 59.7404 133.227 59.5769C133.398 59.3724 134.401 59.2221 136.233 59.1261C137.676 59.0505 138.495 59.001 138.689 58.9778C138.992 64.2539 139.236 67.6757 139.423 69.243C139.313 69.6398 139.096 69.8467 138.771 69.8637C138.55 69.8753 138.331 69.7956 138.113 69.6245C137.896 69.4534 137.754 69.2392 137.688 68.982C137.649 68.4757 137.603 67.7222 137.55 66.7213C137.525 66.2273 137.485 65.4799 137.433 64.479C137.393 63.4774 137.36 62.7232 137.334 62.2162C137.285 61.2803 137.242 60.5787 137.204 60.1114C136.663 60.231 136.126 60.3113 135.594 60.3522C135.062 60.3932 134.686 60.4324 134.466 60.47C134.45 60.901 134.45 61.5396 134.469 62.3859C134.487 63.2322 134.5 63.981 134.508 64.6323C134.529 65.2699 134.489 66.0019 134.389 66.8283C134.288 67.6417 134.116 68.3415 133.873 68.9278C133.642 69.5003 133.259 70.0223 132.723 70.4935C132.201 70.9771 131.554 71.3108 130.782 71.4946ZM140.786 65.0462C140.759 64.5263 140.781 63.9451 140.851 63.3027C140.935 62.6596 141.069 61.9814 141.253 61.2678C141.437 60.5543 141.738 59.952 142.156 59.4609C142.573 58.9698 143.074 58.7089 143.659 58.6783C144.907 58.6129 145.938 59.1259 146.751 60.2172C147.563 61.2956 148.006 62.5237 148.078 63.9016C148.108 64.4865 148.074 65.0748 147.975 65.6666C147.888 66.2447 147.729 66.82 147.498 67.3926C147.268 67.9651 146.915 68.4528 146.441 68.8557C145.979 69.2448 145.425 69.4825 144.777 69.5685C143.573 69.4752 142.624 69.0166 141.929 68.1928C141.233 67.3559 140.853 66.3071 140.786 65.0462ZM143.829 59.686C143.377 59.7619 143.015 60.1979 142.744 60.9942C142.473 61.7905 142.312 62.5614 142.259 63.3071C142.207 64.0398 142.195 64.6856 142.224 65.2446C142.262 65.9725 142.519 66.6368 142.993 67.2376C143.48 67.8247 144.003 68.1036 144.562 68.0743C144.965 68.0532 145.321 67.8781 145.63 67.5491C145.938 67.2201 146.172 66.8234 146.33 66.3589C146.5 65.8807 146.619 65.4053 146.685 64.9326C146.765 64.4592 146.795 64.0405 146.776 63.6765C146.72 62.6106 146.431 61.6938 145.908 60.9261C145.386 60.1584 144.693 59.7451 143.829 59.686ZM155.979 58.7169L155.925 59.5605C155.375 59.5111 154.905 59.4966 154.515 59.517C153.618 59.564 152.892 59.8758 152.335 60.4524C151.778 61.016 151.409 61.6741 151.227 62.4266C151.057 63.1654 150.995 63.9833 151.042 64.8802C151.064 65.2961 151.109 65.6652 151.179 65.9875C151.248 66.3097 151.355 66.6234 151.502 66.9286C151.661 67.2331 151.888 67.4688 152.184 67.6358C152.492 67.7891 152.86 67.8545 153.289 67.832C153.861 67.8021 154.583 67.6534 155.455 67.3861C155.723 67.2678 155.935 67.2046 156.091 67.1964C156.403 67.1801 156.61 67.5342 156.713 68.2587C155.589 68.6826 154.539 68.9201 153.564 68.9712C152.147 69.0454 151.167 68.7514 150.624 68.089C150.093 67.413 149.787 66.295 149.705 64.7352C149.657 63.8253 149.674 63.0293 149.756 62.3473C149.85 61.6515 150.037 61.003 150.319 60.4017C150.599 59.7874 151.024 59.309 151.593 58.9663C152.174 58.623 152.894 58.4289 153.752 58.3839C154.714 58.3335 155.456 58.4445 155.979 58.7169ZM157.496 64.1705C157.469 63.6505 157.491 63.0694 157.561 62.427C157.645 61.7839 157.779 61.1056 157.963 60.3921C158.147 59.6786 158.448 59.0763 158.865 58.5852C159.283 58.0941 159.784 57.8332 160.369 57.8025C161.617 57.7371 162.647 58.2501 163.461 59.3415C164.273 60.4199 164.715 61.648 164.788 63.0258C164.818 63.6108 164.784 64.1991 164.685 64.7909C164.598 65.3689 164.439 65.9443 164.208 66.5168C163.977 67.0894 163.625 67.5771 163.151 67.98C162.689 68.3691 162.134 68.6067 161.487 68.6928C160.283 68.5995 159.334 68.1409 158.639 67.3171C157.943 66.4802 157.562 65.4313 157.496 64.1705ZM160.539 58.8103C160.087 58.8861 159.725 59.3222 159.454 60.1185C159.183 60.9147 159.021 61.6857 158.969 62.4314C158.916 63.1641 158.905 63.8099 158.934 64.3689C158.972 65.0968 159.228 65.7611 159.703 66.3619C160.19 66.949 160.713 67.2279 161.272 67.1986C161.675 67.1775 162.031 67.0024 162.339 66.6734C162.648 66.3444 162.881 65.9477 163.039 65.4832C163.21 65.005 163.328 64.5296 163.395 64.0569C163.474 63.5835 163.504 63.1648 163.485 62.8008C163.43 61.7349 163.14 60.8181 162.618 60.0504C162.095 59.2827 161.402 58.8693 160.539 58.8103ZM166.529 57.8316C168.521 57.2971 169.739 57.0182 170.181 56.9951C171.922 56.9038 172.832 57.6056 172.911 59.1004C172.938 59.6203 172.874 60.1321 172.718 60.6355C172.574 61.1254 172.376 61.4551 172.124 61.6247C173.174 62.2605 173.731 63.1828 173.794 64.3917C173.854 65.5355 173.524 66.4457 172.803 67.1222C172.096 67.7979 171.131 68.1678 169.909 68.2319C168.453 68.3082 167.348 67.9751 166.592 67.2326L166.529 57.8316ZM167.897 62.6674L168.28 66.6163C168.613 66.7552 168.988 66.8138 169.404 66.792C170.21 66.7498 170.937 66.4574 171.587 65.9151C172.236 65.3727 172.543 64.7636 172.507 64.0876C172.483 63.6197 172.278 63.2003 171.894 62.8294C171.509 62.4455 171.037 62.2682 170.478 62.2975C170.153 62.3145 169.293 62.4378 167.897 62.6674ZM167.492 58.661L167.785 61.6565C167.979 61.6203 168.277 61.5852 168.679 61.551C169.082 61.5169 169.405 61.4739 169.65 61.422C169.894 61.357 170.162 61.2452 170.454 61.0866C170.744 60.9149 170.964 60.6362 171.114 60.2504C171.276 59.8639 171.374 59.3634 171.406 58.7491C171.256 58.366 170.849 58.1918 170.186 58.2265C169.887 58.2422 169.422 58.3122 168.79 58.4366C168.158 58.5609 167.725 58.6357 167.492 58.661ZM175.317 63.2365C175.29 62.7166 175.312 62.1354 175.382 61.493C175.466 60.85 175.6 60.1717 175.784 59.4582C175.968 58.7447 176.269 58.1423 176.687 57.6512C177.104 57.1601 177.605 56.8992 178.19 56.8686C179.438 56.8032 180.468 57.3162 181.282 58.4075C182.094 59.4859 182.537 60.714 182.609 62.0919C182.639 62.6768 182.605 63.2652 182.506 63.8569C182.419 64.435 182.26 65.0103 182.029 65.5829C181.798 66.1554 181.446 66.6431 180.972 67.046C180.51 67.4352 179.955 67.6728 179.308 67.7588C178.104 67.6655 177.155 67.2069 176.46 66.3831C175.764 65.5462 175.383 64.4974 175.317 63.2365ZM178.36 57.8763C177.908 57.9522 177.546 58.3882 177.275 59.1845C177.004 59.9808 176.842 60.7517 176.79 61.4974C176.737 62.2301 176.726 62.8759 176.755 63.4349C176.793 64.1628 177.05 64.8272 177.524 65.4279C178.011 66.015 178.534 66.2939 179.093 66.2646C179.496 66.2435 179.852 66.0685 180.16 65.7395C180.469 65.4105 180.702 65.0137 180.861 64.5492C181.031 64.0711 181.149 63.5956 181.216 63.1229C181.295 62.6495 181.326 62.2308 181.307 61.8668C181.251 60.801 180.961 59.8842 180.439 59.1164C179.916 58.3487 179.224 57.9354 178.36 57.8763ZM185.584 54.7019L185.416 54.1046C185.73 54.1272 186.037 54.1307 186.336 54.1151C187.232 54.0681 188.045 53.7778 188.773 53.2444C189.073 53.2547 189.332 53.3324 189.548 53.4775C189.764 53.6226 189.877 53.7991 189.888 54.0071C189.897 54.1761 189.846 54.3156 189.734 54.4257C189.623 54.5358 189.451 54.623 189.22 54.6873C188.988 54.7385 188.795 54.7748 188.639 54.7959C188.483 54.8041 188.275 54.815 188.015 54.8286C187.17 54.8729 186.36 54.8307 185.584 54.7019ZM186.077 65.2143C186.088 65.4353 186.116 65.7271 186.162 66.0897C186.066 66.4988 185.849 66.7122 185.511 66.7299C185.277 66.7422 185.045 66.6631 184.814 66.4927C184.596 66.3086 184.454 66.0815 184.387 65.8112C184.371 64.7563 184.336 63.2136 184.282 61.183C184.24 59.1518 184.214 57.7781 184.202 57.0618L185.091 56.8588C185.291 57.6826 185.446 58.7823 185.557 60.1582C185.669 61.534 185.774 62.5581 185.875 63.2307C186.103 62.8538 186.755 61.8681 187.831 60.2736C188.908 58.6791 189.634 57.494 190.011 56.7183C190.294 56.6513 190.475 56.6158 190.553 56.6117C190.8 56.5988 190.974 56.7004 191.077 56.9166C191.193 57.1321 191.279 57.5447 191.337 58.1543L192.129 66.168C192.032 66.5641 191.815 66.771 191.477 66.7887C191.243 66.801 191.011 66.7219 190.78 66.5515C190.562 66.3674 190.42 66.1403 190.354 65.87C190.344 65.4404 190.322 64.3923 190.287 62.7257C190.264 61.0455 190.253 59.8534 190.256 59.1494C188.166 61.8007 186.773 63.8223 186.077 65.2143ZM64.2294 80.4704L70.8033 80.1846L71.7474 89.6176C71.6508 90.0137 71.4336 90.2206 71.0956 90.2383C70.8616 90.2505 70.629 90.165 70.3978 89.9816C70.1673 89.8112 70.0189 89.5908 69.9526 89.3206C69.9533 89.0859 69.9344 88.3505 69.8956 87.1143C69.8692 85.8643 69.8459 84.6729 69.8256 83.54C69.8047 82.3941 69.7918 81.6518 69.7871 81.3131C69.4218 81.3062 68.8817 81.3215 68.1668 81.359C67.1919 81.4101 66.3774 81.4136 65.7234 81.3697C65.7849 81.7966 65.8899 83.1793 66.0385 85.5177C66.1865 87.8431 66.2833 89.1936 66.3291 89.5692C66.2332 89.9782 66.0163 90.1916 65.6783 90.2094C65.4443 90.2216 65.2121 90.1425 64.9816 89.9721C64.7634 89.7881 64.6211 89.5609 64.5548 89.2907C64.5598 88.6387 64.5452 87.9877 64.5111 87.3378C64.4934 86.9998 64.4576 86.4412 64.4038 85.662C64.3499 84.8828 64.311 84.2657 64.2872 83.8107C64.217 82.4718 64.1978 81.3584 64.2294 80.4704ZM73.1213 85.6157C73.0941 85.0958 73.1157 84.5146 73.1863 83.8722C73.27 83.2291 73.4039 82.5509 73.588 81.8374C73.7722 81.1238 74.073 80.5215 74.4905 80.0304C74.9079 79.5393 75.4091 79.2784 75.994 79.2478C77.2419 79.1824 78.2724 79.6954 79.0856 80.7867C79.8981 81.8651 80.3405 83.0932 80.4127 84.4711C80.4433 85.056 80.409 85.6444 80.3097 86.2361C80.2227 86.8142 80.0638 87.3895 79.8331 87.9621C79.6025 88.5346 79.25 89.0223 78.7758 89.4252C78.3139 89.8144 77.7594 90.052 77.1122 90.138C75.9082 90.0447 74.9587 89.5861 74.2638 88.7623C73.5682 87.9254 73.1874 86.8766 73.1213 85.6157ZM76.1641 80.2555C75.7119 80.3314 75.3503 80.7674 75.0792 81.5637C74.8081 82.36 74.6464 83.1309 74.5943 83.8766C74.5414 84.6093 74.5297 85.2551 74.559 85.8141C74.5971 86.542 74.8535 87.2064 75.3282 87.8071C75.8151 88.3942 76.3381 88.6731 76.897 88.6438C77.3 88.6227 77.6558 88.4477 77.9644 88.1187C78.273 87.7897 78.5064 87.3929 78.6645 86.9284C78.835 86.4503 78.9534 85.9748 79.0199 85.5021C79.0994 85.0287 79.1296 84.61 79.1105 84.246C79.0546 83.1802 78.7655 82.2634 78.2429 81.4956C77.7204 80.7279 77.0275 80.3146 76.1641 80.2555ZM83.8805 87.5935C83.8921 87.8145 83.9204 88.1063 83.9655 88.4689C83.8696 88.878 83.6527 89.0914 83.3148 89.1091C83.0808 89.1214 82.8485 89.0423 82.618 88.8719C82.3998 88.6878 82.2576 88.4607 82.1913 88.1904C82.1751 87.1355 82.1399 85.5927 82.0856 83.5622C82.0443 81.531 82.0179 80.1573 82.0065 79.441L82.8952 79.238C83.0948 80.0618 83.2502 81.1615 83.3614 82.5373C83.4726 83.9132 83.5784 84.9373 83.6788 85.6099C83.9067 85.2329 84.5589 84.2473 85.6354 82.6528C86.7119 81.0583 87.4384 79.8732 87.8148 79.0975C88.0981 79.0305 88.2787 78.995 88.3567 78.9909C88.6036 78.978 88.7784 79.0796 88.881 79.2958C88.9966 79.5113 89.0834 79.9239 89.1414 80.5335L89.9328 88.5472C89.8363 88.9433 89.619 89.1502 89.2811 89.1679C89.0471 89.1802 88.8148 89.1011 88.5843 88.9307C88.3661 88.7466 88.2239 88.5195 88.1576 88.2492C88.1481 87.8196 88.1258 86.7715 88.0905 85.1049C88.0677 83.4247 88.0573 82.2326 88.0595 81.5286C85.9696 84.1798 84.5766 86.2015 83.8805 87.5935ZM97.614 78.799L97.5605 79.6425C97.0105 79.5932 96.5405 79.5787 96.1505 79.5991C95.2536 79.6461 94.527 79.9579 93.9707 80.5345C93.4136 81.0981 93.0441 81.7562 92.8619 82.5087C92.6921 83.2475 92.6307 84.0654 92.6777 84.9623C92.6995 85.3782 92.7449 85.7473 92.8139 86.0696C92.8829 86.3918 92.9906 86.7055 93.137 87.0107C93.2963 87.3151 93.5237 87.5509 93.8192 87.7179C94.127 87.8712 94.4954 87.9366 94.9244 87.9141C95.4963 87.8841 96.2185 87.7355 97.0908 87.4682C97.3583 87.3499 97.5701 87.2867 97.7261 87.2785C98.038 87.2622 98.2456 87.6162 98.3487 88.3408C97.2239 88.7647 96.1741 89.0022 95.1992 89.0533C93.7823 89.1275 92.8024 88.8335 92.2593 88.1711C91.7286 87.4951 91.4223 86.3771 91.3406 84.8173C91.2929 83.9074 91.3098 83.1114 91.3914 82.4293C91.4853 81.7336 91.6729 81.0851 91.9542 80.4838C92.2348 79.8695 92.6594 79.3911 93.228 79.0484C93.8096 78.7051 94.5294 78.511 95.3873 78.466C96.3492 78.4156 97.0914 78.5266 97.614 78.799ZM106.304 87.5524L106.407 88.4072C106.1 88.5015 105.881 88.5521 105.751 88.5589C105.257 88.5848 104.8 88.4458 104.38 88.142C103.96 87.8381 103.607 87.4591 103.323 87.0047C103.038 86.5504 102.767 86.0954 102.508 85.6397C102.263 85.1833 102.002 84.7995 101.725 84.4881C101.448 84.1768 101.173 84.0283 100.9 84.0426C100.796 84.048 100.699 84.0726 100.61 84.1164C100.703 84.8936 100.86 86.1497 101.082 87.8847C100.986 88.2938 100.769 88.5072 100.431 88.5249C100.197 88.5372 99.9646 88.4581 99.7341 88.2877C99.5159 88.1036 99.3736 87.8765 99.3073 87.6062C99.2449 85.4197 99.1633 83.3646 99.0624 81.4408C98.9882 80.0239 98.9877 78.8965 99.0611 78.0584L99.9549 78.3244C100.085 78.8259 100.182 79.5508 100.245 80.499C100.307 81.4342 100.35 82.012 100.375 82.2323C100.761 82.1468 101.089 81.9276 101.357 81.5747C101.638 81.2211 101.859 80.825 102.018 80.3865C102.191 79.9473 102.37 79.5143 102.556 79.0875C102.742 78.6606 102.99 78.2957 103.3 77.9927C103.623 77.689 104.012 77.5252 104.467 77.5014C104.701 77.4891 105.069 77.548 105.571 77.6781L105.528 78.3452C105.449 78.3362 105.345 78.3352 105.215 78.342C104.695 78.3693 104.252 78.6141 103.885 79.0765C103.531 79.5252 103.27 80.0211 103.103 80.5643C102.948 81.0938 102.74 81.6065 102.48 82.1024C102.219 82.5983 101.921 82.8942 101.588 82.9899C102.075 83.0816 102.501 83.3852 102.867 83.9004C103.246 84.4149 103.535 84.9538 103.734 85.5168C103.945 86.0662 104.232 86.5661 104.594 87.0163C104.956 87.4535 105.384 87.6592 105.878 87.6333C106.008 87.6265 106.15 87.5995 106.304 87.5524ZM114.395 85.9943C114.406 86.2153 114.435 86.5071 114.48 86.8697C114.384 87.2788 114.167 87.4922 113.829 87.5099C113.595 87.5222 113.363 87.4431 113.132 87.2727C112.914 87.0886 112.772 86.8615 112.706 86.5912C112.689 85.5363 112.654 83.9936 112.6 81.963C112.559 79.9319 112.532 78.5581 112.521 77.8418L113.41 77.6388C113.609 78.4626 113.764 79.5623 113.876 80.9382C113.987 82.314 114.093 83.3381 114.193 84.0107C114.421 83.6338 115.073 82.6481 116.15 81.0536C117.226 79.4591 117.953 78.274 118.329 77.4983C118.612 77.4313 118.793 77.3958 118.871 77.3917C119.118 77.3788 119.293 77.4804 119.395 77.6966C119.511 77.9121 119.598 78.3247 119.656 78.9343L120.447 86.948C120.351 87.3441 120.133 87.551 119.795 87.5687C119.561 87.581 119.329 87.5019 119.099 87.3315C118.88 87.1474 118.738 86.9203 118.672 86.65C118.662 86.2204 118.64 85.1723 118.605 83.5057C118.582 81.8255 118.572 80.6334 118.574 79.9294C116.484 82.5807 115.091 84.6023 114.395 85.9943ZM127.266 77.1668L133.84 76.8809L134.784 86.3139C134.688 86.71 134.47 86.9169 134.133 86.9346C133.899 86.9469 133.666 86.8613 133.435 86.6779C133.204 86.5075 133.056 86.2872 132.99 86.017C132.99 85.7823 132.971 85.0469 132.933 83.8106C132.906 82.5607 132.883 81.3693 132.863 80.2364C132.842 79.0905 132.829 78.3482 132.824 78.0095C132.459 78.0026 131.919 78.0179 131.204 78.0553C130.229 78.1064 129.414 78.11 128.76 78.0661C128.822 78.493 128.927 79.8756 129.075 82.214C129.223 84.5394 129.32 85.8899 129.366 86.2655C129.27 86.6746 129.053 86.888 128.715 86.9057C128.481 86.918 128.249 86.8389 128.018 86.6685C127.8 86.4844 127.658 86.2573 127.592 85.987C127.597 85.3351 127.582 84.6841 127.548 84.0342C127.53 83.6962 127.495 83.1376 127.441 82.3584C127.387 81.5791 127.348 80.962 127.324 80.5071C127.254 79.1682 127.235 78.0548 127.266 77.1668ZM136.158 82.3121C136.131 81.7921 136.153 81.211 136.223 80.5686C136.307 79.9255 136.441 79.2472 136.625 78.5337C136.809 77.8202 137.11 77.2179 137.527 76.7268C137.945 76.2357 138.446 75.9748 139.031 75.9441C140.279 75.8787 141.309 76.3917 142.123 77.4831C142.935 78.5615 143.377 79.7896 143.45 81.1674C143.48 81.7524 143.446 82.3407 143.347 82.9325C143.26 83.5106 143.101 84.0859 142.87 84.6584C142.639 85.231 142.287 85.7187 141.813 86.1216C141.351 86.5107 140.796 86.7483 140.149 86.8344C138.945 86.7411 137.996 86.2825 137.301 85.4587C136.605 84.6218 136.224 83.573 136.158 82.3121ZM139.201 76.9519C138.749 77.0277 138.387 77.4638 138.116 78.2601C137.845 79.0563 137.683 79.8273 137.631 80.573C137.578 81.3057 137.567 81.9515 137.596 82.5105C137.634 83.2384 137.89 83.9027 138.365 84.5035C138.852 85.0906 139.375 85.3695 139.934 85.3402C140.337 85.3191 140.693 85.144 141.001 84.815C141.31 84.486 141.543 84.0893 141.701 83.6248C141.872 83.1466 141.99 82.6712 142.057 82.1985C142.136 81.7251 142.166 81.3064 142.147 80.9424C142.092 79.8765 141.802 78.9597 141.28 78.192C140.757 77.4243 140.064 77.0109 139.201 76.9519ZM151.35 75.9828L151.297 76.8263C150.747 76.777 150.277 76.7625 149.887 76.7829C148.99 76.8299 148.263 77.1417 147.707 77.7183C147.15 78.2819 146.78 78.94 146.598 79.6925C146.428 80.4313 146.367 81.2492 146.414 82.1461C146.436 82.562 146.481 82.9311 146.55 83.2534C146.619 83.5756 146.727 83.8893 146.873 84.1945C147.033 84.4989 147.26 84.7347 147.556 84.9017C147.863 85.055 148.232 85.1204 148.661 85.0979C149.233 85.0679 149.955 84.9193 150.827 84.652C151.095 84.5337 151.306 84.4705 151.462 84.4623C151.774 84.446 151.982 84.8 152.085 85.5246C150.96 85.9485 149.91 86.186 148.936 86.2371C147.519 86.3113 146.539 86.0173 145.996 85.3549C145.465 84.6789 145.159 83.5609 145.077 82.0011C145.029 81.0912 145.046 80.2952 145.128 79.6131C145.222 78.9174 145.409 78.2689 145.691 77.6676C145.971 77.0533 146.396 76.5748 146.964 76.2322C147.546 75.8889 148.266 75.6948 149.124 75.6498C150.086 75.5994 150.828 75.7104 151.35 75.9828ZM160.04 84.7362L160.144 85.591C159.836 85.6853 159.617 85.7359 159.487 85.7427C158.993 85.7686 158.536 85.6296 158.116 85.3258C157.696 85.0219 157.344 84.6429 157.059 84.1885C156.775 83.7342 156.503 83.2792 156.245 82.8235C155.999 82.3671 155.738 81.9833 155.461 81.6719C155.184 81.3606 154.909 81.2121 154.636 81.2264C154.532 81.2318 154.436 81.2564 154.347 81.3002C154.44 82.0774 154.597 83.3335 154.818 85.0685C154.722 85.4776 154.505 85.691 154.167 85.7087C153.933 85.721 153.701 85.6419 153.47 85.4715C153.252 85.2874 153.11 85.0603 153.044 84.79C152.981 82.6035 152.9 80.5484 152.799 78.6246C152.725 77.2077 152.724 76.0803 152.798 75.2422L153.691 75.5082C153.822 76.0097 153.918 76.7346 153.981 77.6828C154.043 78.618 154.087 79.1958 154.111 79.4161C154.498 79.3306 154.825 79.1114 155.093 78.7585C155.375 78.4049 155.595 78.0088 155.755 77.5703C155.927 77.1311 156.106 76.6981 156.293 76.2713C156.479 75.8444 156.727 75.4795 157.037 75.1765C157.36 74.8728 157.749 74.709 158.204 74.6852C158.438 74.6729 158.806 74.7318 159.308 74.8619L159.265 75.5289C159.186 75.52 159.082 75.519 158.952 75.5258C158.432 75.553 157.988 75.7979 157.621 76.2603C157.267 76.709 157.006 77.2049 156.839 77.7481C156.684 78.2776 156.477 78.7903 156.216 79.2862C155.955 79.7821 155.658 80.078 155.324 80.1737C155.811 80.2654 156.238 80.569 156.603 81.0842C156.982 81.5987 157.271 82.1376 157.47 82.7006C157.681 83.25 157.968 83.7499 158.331 84.2001C158.693 84.6373 159.121 84.843 159.614 84.8171C159.744 84.8103 159.886 84.7833 160.04 84.7362ZM65.0668 96.4485L71.6407 96.1626L72.5847 105.596C72.4882 105.992 72.2709 106.199 71.933 106.216C71.699 106.229 71.4664 106.143 71.2352 105.96C71.0047 105.789 70.8563 105.569 70.79 105.299C70.7907 105.064 70.7717 104.329 70.733 103.092C70.7066 101.842 70.6833 100.651 70.663 99.5181C70.642 98.3721 70.6292 97.6299 70.6245 97.2912C70.2592 97.2843 69.7191 97.2996 69.0041 97.337C68.0292 97.3881 67.2148 97.3917 66.5608 97.3478C66.6222 97.7747 66.7273 99.1573 66.8759 101.496C67.0238 103.821 67.1207 105.172 67.1664 105.547C67.0706 105.956 66.8536 106.17 66.5157 106.187C66.2817 106.2 66.0495 106.121 65.8189 105.95C65.6007 105.766 65.4585 105.539 65.3922 105.269C65.3971 104.617 65.3826 103.966 65.3485 103.316C65.3308 102.978 65.295 102.419 65.2411 101.64C65.1873 100.861 65.1484 100.244 65.1246 99.7888C65.0544 98.4499 65.0351 97.3365 65.0668 96.4485ZM73.9587 101.594C73.9314 101.074 73.9531 100.493 74.0237 99.8503C74.1073 99.2072 74.2412 98.5289 74.4254 97.8154C74.6096 97.1019 74.9104 96.4996 75.3278 96.0085C75.7453 95.5174 76.2465 95.2565 76.8314 95.2258C78.0793 95.1604 79.1098 95.6734 79.923 96.7648C80.7355 97.8432 81.1779 99.0713 81.2501 100.449C81.2807 101.034 81.2464 101.622 81.147 102.214C81.06 102.792 80.9012 103.368 80.6705 103.94C80.4398 104.513 80.0874 105 79.6132 105.403C79.1513 105.792 78.5968 106.03 77.9496 106.116C76.7455 106.023 75.7961 105.564 75.1012 104.74C74.4056 103.904 74.0248 102.855 73.9587 101.594ZM77.0015 96.2336C76.5493 96.3094 76.1876 96.7455 75.9165 97.5418C75.6454 98.338 75.4838 99.109 75.4317 99.8547C75.3788 100.587 75.367 101.233 75.3963 101.792C75.4345 102.52 75.6909 103.184 76.1655 103.785C76.6525 104.372 77.1755 104.651 77.7344 104.622C78.1374 104.601 78.4932 104.426 78.8018 104.097C79.1104 103.768 79.3438 103.371 79.5019 102.906C79.6724 102.428 79.7908 101.953 79.8573 101.48C79.9367 101.007 79.9669 100.588 79.9479 100.224C79.892 99.1582 79.6028 98.2414 79.0803 97.4737C78.5578 96.706 77.8649 96.2926 77.0015 96.2336ZM97.0815 94.3796L97.9692 94.5286C98.0538 95.3975 98.1843 97.5153 98.3608 100.882C98.4486 102.559 98.5318 103.773 98.6103 104.525C97.6238 104.603 96.3376 104.683 94.7518 104.766C91.6841 104.927 89.6546 105.001 88.6633 104.988C88.6635 104.245 88.6228 102.598 88.5413 100.047C88.4591 97.484 88.4342 95.641 88.4666 94.5183L89.3552 94.6868C89.5034 95.7739 89.6625 97.4405 89.8323 99.6865C90.0022 101.933 90.1052 103.276 90.1413 103.718C90.4259 103.677 90.9387 103.637 91.6796 103.598C92.4329 103.545 92.9196 103.507 93.1399 103.482C93.1421 103.026 93.1176 102.31 93.0665 101.335C93.0468 100.958 93.0099 100.38 92.9561 99.601C92.9152 98.8211 92.8845 98.2362 92.8641 97.8462C92.7974 96.5724 92.7843 95.4521 92.8248 94.4854L93.7125 94.6344C93.845 95.6702 93.9889 97.2985 94.1444 99.5192C94.3129 101.739 94.4122 103.011 94.4422 103.336C95.7681 103.266 96.6971 103.211 97.2294 103.17C97.2275 102.388 97.1991 100.975 97.1441 98.9319C97.1022 96.8877 97.0813 95.3703 97.0815 94.3796ZM99.0937 95.4668L98.8732 94.6181C100.61 94.4228 103.345 94.1361 107.079 93.7579C107.392 93.7546 107.664 93.8576 107.897 94.067C108.129 94.2764 108.252 94.5046 108.265 94.7516C108.285 95.1415 108.037 95.3761 107.52 95.4554L103.864 95.471C103.981 96.4425 104.088 97.8641 104.186 99.7359C104.296 101.594 104.393 102.951 104.477 103.807C104.38 104.19 104.162 104.39 103.824 104.408C103.604 104.42 103.384 104.34 103.167 104.169C102.949 103.998 102.808 103.784 102.742 103.526C102.756 100.319 102.804 97.6251 102.885 95.4441L99.0937 95.4668ZM109.242 93.625L110.344 93.7628C110.359 94.0358 110.376 94.2369 110.395 94.3662C111.086 93.8738 111.796 93.6085 112.524 93.5703C113.707 93.5084 114.656 93.9669 115.372 94.9461C116.088 95.9252 116.48 97.0582 116.548 98.3451C116.582 98.995 116.562 99.6217 116.49 100.225C116.429 100.815 116.292 101.428 116.078 102.065C115.863 102.689 115.505 103.203 115.005 103.607C114.517 103.998 113.909 104.212 113.181 104.25C112.492 104.286 111.82 104.139 111.164 103.808C111.335 106.08 111.469 107.768 111.566 108.871C111.47 109.28 111.253 109.493 110.915 109.511C110.681 109.523 110.449 109.438 110.218 109.254C110 109.083 109.858 108.862 109.792 108.592L109.242 93.625ZM110.618 95.6254L111.006 101.92C111.179 102.224 111.432 102.465 111.768 102.643C112.102 102.808 112.464 102.88 112.854 102.86C113.361 102.833 113.782 102.648 114.116 102.305C114.463 101.961 114.694 101.518 114.809 100.978C114.936 100.424 115.013 99.9114 115.041 99.4408C115.081 98.9694 115.088 98.4737 115.061 97.9538C114.945 95.744 114.14 94.6783 112.645 94.7567C112.164 94.7819 111.719 94.8769 111.311 95.0416C110.914 95.1927 110.684 95.3873 110.618 95.6254ZM120.029 101.721C120.04 101.942 120.069 102.234 120.114 102.596C120.018 103.006 119.801 103.219 119.463 103.237C119.229 103.249 118.997 103.17 118.766 102.999C118.548 102.815 118.406 102.588 118.339 102.318C118.323 101.263 118.288 99.7203 118.234 97.6897C118.193 95.6586 118.166 94.2848 118.155 93.5685L119.043 93.3655C119.243 94.1893 119.398 95.289 119.51 96.6649C119.621 98.0407 119.727 99.0648 119.827 99.7374C120.055 99.3605 120.707 98.3748 121.784 96.7803C122.86 95.1858 123.587 94.0007 123.963 93.225C124.246 93.158 124.427 93.1225 124.505 93.1184C124.752 93.1055 124.927 93.2071 125.029 93.4233C125.145 93.6388 125.232 94.0514 125.29 94.661L126.081 102.675C125.984 103.071 125.767 103.278 125.429 103.295C125.195 103.308 124.963 103.229 124.733 103.058C124.514 102.874 124.372 102.647 124.306 102.377C124.296 101.947 124.274 100.899 124.239 99.2324C124.216 97.5522 124.206 96.3601 124.208 95.6561C122.118 98.3074 120.725 100.329 120.029 101.721ZM127.763 103.427L126.901 103.023C127.195 102.16 127.993 100.476 129.295 97.9703C128.487 96.9829 127.54 95.3186 126.453 92.9772L127.311 92.9323C127.845 93.921 128.726 95.1977 129.955 96.7626C130.136 96.4794 130.367 96.0437 130.649 95.4554C130.944 94.8664 131.23 94.3561 131.507 93.9245C131.798 93.4922 132.13 93.1099 132.503 92.7774C132.985 93.0129 133.235 93.3061 133.253 93.6571C133.263 93.852 133.228 94.0429 133.146 94.2297C132.818 94.677 132.405 95.3764 131.907 96.328C131.41 97.2795 131.101 97.8561 130.981 98.0579C132.46 99.9095 133.465 101.31 133.997 102.26C134.023 102.754 133.815 103.012 133.373 103.036C132.931 103.059 132.582 102.862 132.325 102.445C132.051 101.678 131.375 100.605 130.299 99.2276C130.098 99.6032 129.677 100.29 129.039 101.288C128.413 102.272 127.987 102.985 127.763 103.427ZM134.661 92.547C135.217 92.4657 136.058 92.337 137.183 92.1607C138.307 91.9715 139.102 91.8451 139.568 91.7816C139.893 91.7775 140.173 91.8867 140.406 92.1091C140.652 92.3178 140.781 92.5522 140.795 92.8121C140.815 93.2021 140.567 93.4367 140.05 93.5159C139.567 93.5022 138.835 93.4753 137.856 93.4354C136.876 93.3955 136.132 93.3693 135.623 93.3569C135.677 94.1492 135.823 95.4319 136.059 97.2053C136.295 98.9786 136.438 100.333 136.487 101.269C136.529 102.075 136.232 102.495 135.595 102.528C135.062 102.556 134.776 102.206 134.738 101.478C134.693 100.62 134.665 99.7027 134.653 98.7258C134.64 97.7358 134.639 96.6084 134.651 95.3434C134.663 94.0655 134.666 93.1333 134.661 92.547ZM140.993 98.0807C140.965 97.5607 140.987 96.9796 141.058 96.3372C141.141 95.6941 141.275 95.0158 141.459 94.3023C141.644 93.5888 141.944 92.9865 142.362 92.4954C142.779 92.0043 143.28 91.7434 143.865 91.7127C145.113 91.6473 146.144 92.1603 146.957 93.2517C147.77 94.3301 148.212 95.5582 148.284 96.936C148.315 97.521 148.28 98.1093 148.181 98.7011C148.094 99.2791 147.935 99.8545 147.705 100.427C147.474 101 147.121 101.487 146.647 101.89C146.185 102.279 145.631 102.517 144.984 102.603C143.78 102.51 142.83 102.051 142.135 101.227C141.44 100.39 141.059 99.3415 140.993 98.0807ZM144.036 92.7205C143.583 92.7963 143.222 93.2324 142.951 94.0287C142.679 94.8249 142.518 95.5959 142.466 96.3416C142.413 97.0743 142.401 97.7201 142.43 98.2791C142.468 99.007 142.725 99.6713 143.2 100.272C143.687 100.859 144.209 101.138 144.768 101.109C145.171 101.088 145.527 100.913 145.836 100.584C146.144 100.255 146.378 99.8579 146.536 99.3934C146.706 98.9152 146.825 98.4398 146.891 97.9671C146.971 97.4937 147.001 97.075 146.982 96.711C146.926 95.6451 146.637 94.7283 146.114 93.9606C145.592 93.1929 144.899 92.7795 144.036 92.7205ZM150.489 104.309L149.601 104.16C149.594 104.017 149.545 103.596 149.457 102.896C149.368 102.197 149.315 101.692 149.299 101.38C149.285 101.12 149.29 100.839 149.314 100.538L150.581 100.472C150.634 100.247 150.721 99.9105 150.841 99.4611C150.974 99.0109 151.061 98.6935 151.104 98.5088C151.146 98.3241 151.204 98.0539 151.276 97.6981C151.361 97.3287 151.41 97.0199 151.423 96.7715C151.449 96.5095 151.464 96.1893 151.471 95.811C151.49 95.432 151.489 95.0345 151.467 94.6186C151.416 93.6437 151.319 92.5473 151.177 91.3295C151.907 91.3304 152.675 91.3162 153.482 91.287C154.302 91.257 154.972 91.2415 155.493 91.2402C156.015 91.239 156.551 91.2695 157.101 91.3319C157.187 92.2138 157.302 93.6676 157.447 95.6933C157.605 97.7054 157.726 99.1523 157.812 100.034L159.332 99.9545L159.363 100.539C159.381 100.877 159.413 101.358 159.458 101.981C159.517 102.604 159.552 103.019 159.563 103.227C159.583 103.617 159.586 103.917 159.571 104.126L158.683 103.977C158.621 103.798 158.557 103.567 158.49 103.283C158.437 103.012 158.376 102.716 158.307 102.394C158.238 102.071 158.186 101.839 158.153 101.698C157.41 101.698 156.223 101.682 154.592 101.65C152.974 101.617 151.709 101.605 150.797 101.614L150.489 104.309ZM152.879 92.4721C152.877 92.6677 152.885 93.0779 152.905 93.7025C152.924 94.3141 152.929 94.7831 152.92 95.1094C152.924 95.4351 152.909 95.8921 152.874 96.4804C152.852 97.0551 152.806 97.5398 152.735 97.9345C152.664 98.3162 152.55 98.7393 152.391 99.2038C152.246 99.6546 152.064 100.049 151.847 100.386L156.117 100.162L156.105 92.4595C155.922 92.456 155.44 92.4617 154.659 92.4766C153.89 92.4908 153.297 92.4893 152.879 92.4721ZM162.356 106.913L161.111 106.294C161.596 105.343 162.447 103.539 163.663 100.881C162.561 100 161.681 98.6258 161.022 96.7572C160.364 94.8887 159.926 93.0086 159.71 91.117L160.844 91.1162C160.925 91.4248 161.099 92.1325 161.366 93.2395C161.645 94.3328 161.863 95.1425 162.021 95.6687C162.179 96.1948 162.441 96.8523 162.809 97.6412C163.188 98.4164 163.607 99.0657 164.064 99.5892C165.689 96.0239 166.443 93.1298 166.327 90.9071L166.316 90.6926C166.997 90.7611 167.511 90.8581 167.856 90.9833C167.72 92.3591 167.467 93.767 167.1 95.207C166.732 96.647 166.255 98.1058 165.667 99.5834C165.079 101.048 164.551 102.281 164.082 103.284C163.626 104.285 163.051 105.495 162.356 106.913Z" fill="#3B636B"/>
<path d="M74.5755 109.959C72.1068 112.12 70.7721 115.418 70.9801 119.073C71.0401 120.754 71.2529 122.614 71.4287 123.199C71.6171 123.826 71.6654 124.316 71.5305 124.361C71.4405 124.391 70.2576 123.913 69.0118 123.227C66.3853 121.899 62.5626 121.202 60.0088 121.597C57.9297 121.925 54.8335 123.974 53.282 126.057C51.7179 128.098 50.8969 132.282 51.5501 134.454C51.8839 135.4 52.5933 136.772 53.1593 137.502L54.2662 138.879L51.0881 139.667C46.9279 140.647 44.7509 142.295 43.0564 145.714C40.6867 150.508 41.9712 155.274 46.3141 157.867C48.7157 159.27 50.2856 159.388 56.7833 158.776C59.8621 158.48 62.4788 158.294 62.6064 158.389C62.7215 158.443 61.7553 159.18 60.4294 160.038C53.7224 164.399 52.499 165.269 51.3939 166.696C46.9411 172.464 49.1068 179.832 55.8833 181.794C57.7837 182.353 61.9074 182.076 63.111 181.305C63.7802 180.897 64.0282 181.228 65.4714 185.205C69.1783 195.23 75.6847 200.409 86.6821 201.923L89.5322 202.348L91.5175 207.799C93.282 212.681 93.6555 213.429 95.4653 215.169C101.162 220.619 111.402 217.144 113.235 209.08C113.624 207.248 113.501 206.508 112.067 202.068L110.47 197.084L112.739 195.083C115.826 192.348 117.976 188.961 119.279 184.57C121.243 177.934 121.604 171.559 120.413 164.14L119.766 159.85L124.4 157.977C127.015 156.963 129.715 155.737 130.494 155.2C132.689 153.775 134.308 151.256 134.773 148.525C135.584 143.977 133.734 140.458 129.592 138.534L126.888 137.278L127.45 135.526C128.71 131.977 127.935 128.742 125.272 126.139C122.844 123.825 118.683 122.827 115.67 123.836C114.366 124.272 114.296 124.204 113.806 122.574C112.45 118.062 108.479 115.391 103.573 115.7C100.116 115.892 97.7814 117.18 95.0045 120.455C92.7639 123.045 92.9292 123.265 91.91 117.077C91.027 111.67 89.9797 109.997 86.3105 108.329C82.386 106.47 77.8755 107.107 74.5755 109.959Z" fill="white"/>
<path d="M83.11 139.68C81.6894 140.348 80.3019 141.434 79.3062 142.607C77.1865 145.127 76.5831 147.954 77.033 153.286C77.4195 158.006 78.2982 161.637 80.5446 168.017C83.0601 175.162 84.0967 177.187 86.3634 179.247C87.7716 180.544 90.4308 181.718 92.3535 181.881C94.5711 182.071 95.742 181.883 98.0326 180.984C101.068 179.766 102.293 178.867 103.479 176.993C105.244 174.168 105.379 168.387 103.894 160.17C103.346 157.207 101.022 149.957 99.7281 147.257C97.9418 143.534 95.8146 141.277 92.7161 139.828C89.2928 138.213 86.2494 138.164 83.11 139.68ZM88.4397 141.52C91.2192 141.793 94.0954 143.637 95.8011 146.212C97.553 148.863 100.072 155.857 100.963 160.548C101.938 165.696 102.26 170.718 101.765 173.096C101.355 175.014 101.095 175.573 100.198 176.486C99.1449 177.548 96.4048 178.793 94.7182 178.976C93.0942 179.174 91.4763 178.903 90.1373 178.235C87.8356 177.104 86.8648 175.914 85.3245 172.404C83.7958 168.927 81.3677 161.49 80.6848 158.145C80.0863 155.255 79.709 151.373 79.8001 149.361C79.9959 145.539 81.9509 142.983 85.6155 141.823C86.8523 141.444 87.271 141.39 88.4397 141.52Z" fill="#CF312C"/>
<path d="M78.6873 118.034C78.5863 118.126 78.465 118.43 78.4231 118.744C78.3231 119.433 79.45 125.012 80.4128 128.557C81.1157 131.149 81.1567 131.265 81.6475 131.578C82.2183 131.956 83.3494 131.763 83.7287 131.218C84.0187 130.799 83.8996 129.758 83.4134 128.323C82.9688 127.06 82.1895 123.711 81.5989 120.52C81.1894 118.33 80.9573 117.833 80.2522 117.614C79.8883 117.5 79.0521 117.719 78.6873 118.034Z" fill="#45CDC3"/>
<path d="M61.9591 131.437C61.7218 131.748 61.6233 132.124 61.6867 132.489C61.7985 133.131 62.0259 133.287 65.6127 135.166C67.4371 136.126 68.0212 136.343 68.4803 136.261C69.5222 136.073 70.0439 134.779 69.3722 134.059C68.9698 133.63 67.5555 132.828 65.1232 131.619C63.1485 130.631 62.5416 130.597 61.9591 131.437Z" fill="#45CDC3"/>
<path d="M98.202 127.673C96.4182 130.337 95.2455 132.412 95.2126 133.021C95.1575 133.675 95.5543 134.208 96.2477 134.393C97.0947 134.636 97.55 134.308 98.3674 132.9C98.7787 132.176 99.6919 130.715 100.4 129.644C101.107 128.574 101.73 127.477 101.806 127.207C102.056 126.241 100.953 125.378 99.9372 125.736C99.4969 125.891 99.1105 126.307 98.202 127.673Z" fill="#45CDC3"/>
<path d="M54.8751 148.137C54.4934 148.458 54.2415 149.257 54.3819 149.656C54.5633 150.171 55.1464 150.638 55.6621 150.643C55.9284 150.642 57.0094 150.523 58.0448 150.383C59.0632 150.248 61.2993 150.059 62.9982 149.965C66.5998 149.761 67.4529 149.536 67.7386 148.725C68.1945 147.426 67.3362 146.663 65.6782 146.874C65.0785 146.954 63.5724 147.055 62.3378 147.116C60.48 147.191 55.5728 147.686 55.2627 147.833C55.2119 147.851 55.0321 147.989 54.8751 148.137Z" fill="#45CDC3"/>
<path d="M110.186 134.901C107.722 136.553 104.51 139.159 104.266 139.712C103.907 140.529 104.662 141.701 105.512 141.627C106.157 141.567 106.528 141.325 109.213 139.221C110.522 138.182 112.265 136.97 113.07 136.5C114.354 135.768 114.601 135.55 114.811 135.01C115.092 134.294 115.027 134.056 114.46 133.527C113.698 132.824 112.981 133.058 110.186 134.901Z" fill="#45CDC3"/>
<path d="M115.493 148.459C112.271 149.687 112.073 149.775 111.841 150.249C111.397 151.152 112.078 152.276 113.076 152.298C113.671 152.313 121.451 149.275 121.793 148.893C122.246 148.397 122.242 147.521 121.772 146.996C121.244 146.416 120.836 146.391 119.764 146.806C119.279 146.996 117.349 147.731 115.493 148.459Z" fill="#45CDC3"/>
<path d="M69.2812 165.214C68.6181 165.709 66.8299 166.955 65.3115 167.994C63.0732 169.529 62.5117 169.988 62.3297 170.444C62.0317 171.166 62.2306 171.731 62.9147 172.106C63.5136 172.455 64.0957 172.325 65.1588 171.615C72.2396 166.806 73.11 166.089 72.7883 165.175C72.5075 164.377 71.5219 163.903 70.7775 164.221C70.6309 164.291 69.9502 164.736 69.2812 165.214Z" fill="#45CDC3"/>
<path d="M107.103 161.342C106.536 161.841 106.541 162.287 107.111 164.664C108.276 169.595 108.581 174.137 108.032 178.308C107.374 183.302 106.339 185.012 102.901 186.763C96.9228 189.783 88.0288 188.955 83.6498 184.951C81.7665 183.223 81.2351 182.309 79.4961 177.748C77.9554 173.696 77.9379 173.646 77.4203 173.474C76.7491 173.243 76.0269 173.516 75.643 174.155C75.3483 174.67 75.3606 174.759 76.0839 177.138C78.7579 185.814 82.773 189.704 90.5519 191.149C92.2382 191.451 94.5907 191.538 96.3625 191.381C97.0814 191.315 97.7215 191.295 97.7898 191.327C97.8751 191.353 98.8179 193.598 99.8847 196.304C103.241 204.703 103.758 205.846 104.34 206.146C105.058 206.51 105.915 206.189 106.292 205.421C106.569 204.857 106.569 204.801 105.9 203.281C105.266 201.805 102.737 195.486 101.466 192.199L100.888 190.721L102.885 189.906C108.306 187.68 110.091 185.128 110.99 178.331C111.565 173.909 111.269 169.717 109.989 164.136C109.471 161.853 109.221 161.306 108.59 161.08C108.152 160.917 107.439 161.056 107.103 161.342Z" fill="#3B636B"/>
<path fill-rule="evenodd" clip-rule="evenodd" d="M89.9251 144.292C90.5669 144.652 90.7853 145.459 90.4128 146.096C89.9136 146.95 89.3276 147.715 88.7617 148.418C88.5903 148.63 88.4234 148.835 88.2604 149.034C87.867 149.515 87.4966 149.968 87.1397 150.451C87.1164 150.482 87.0932 150.513 87.07 150.545C87.8525 149.846 88.6298 149.149 89.4007 148.445C89.5135 148.341 89.6246 148.24 89.7338 148.141C90.3958 147.54 90.99 147 91.5027 146.397C91.5541 146.336 91.6015 146.258 91.7258 146.036C91.7291 146.03 91.7326 146.023 91.7361 146.017C91.8411 145.829 92.0154 145.517 92.2761 145.226C92.1771 145.336 92.4146 145.065 92.4515 145.025C92.4955 144.977 92.582 144.885 92.6823 144.8L92.6842 144.799C92.7196 144.769 92.8508 144.658 93.0388 144.574C93.124 144.535 93.3754 144.429 93.7111 144.453C94.1565 144.485 94.5792 144.736 94.8014 145.16C95.0485 145.631 94.978 146.095 94.9402 146.287C94.8932 146.525 94.81 146.743 94.7432 146.899C94.6727 147.063 94.5959 147.215 94.5368 147.328C94.4981 147.403 94.4744 147.447 94.4578 147.478C94.4418 147.508 94.4324 147.526 94.4224 147.546C94.2798 147.836 94.1256 148.124 93.9663 148.406C94.3859 147.953 94.8239 147.518 95.2786 147.101L95.2807 147.099C95.3463 147.039 95.5359 146.865 95.7965 146.754C95.9091 146.706 96.3175 146.543 96.8087 146.713C97.4201 146.925 97.6283 147.441 97.6824 147.71C97.7312 147.952 97.7009 148.152 97.688 148.227C97.6713 148.325 97.6474 148.408 97.6298 148.463C97.5944 148.574 97.5508 148.678 97.5169 148.753C97.4467 148.91 97.3619 149.073 97.2998 149.188C97.2429 149.294 97.1715 149.422 97.1755 149.415C96.8318 150.043 96.4704 150.691 96.0758 151.328C95.3858 152.442 94.6373 153.456 93.8623 154.455C92.7489 155.889 91.6065 157.286 90.4551 158.671C89.9662 159.259 89.5045 159.783 89.0569 160.292C88.9154 160.452 88.7753 160.612 88.6362 160.771C90.6797 159.292 92.6561 157.773 94.4946 156.108C94.7762 155.853 95.0484 155.603 95.3085 155.355C95.8583 154.627 96.4384 153.918 97.0534 153.227C97.1524 153.116 97.2508 153.003 97.3486 152.89C97.6168 152.472 97.926 152.034 98.287 151.627C98.2957 151.617 98.3087 151.602 98.3255 151.582C98.4284 151.461 98.6735 151.172 98.9278 150.969C98.9523 150.95 99.0157 150.9 99.1024 150.85C99.1443 150.825 99.2309 150.777 99.3485 150.737C99.4333 150.707 99.723 150.612 100.089 150.693C100.592 150.803 100.944 151.172 101.072 151.595C101.165 151.905 101.116 152.163 101.099 152.241C101.062 152.42 100.994 152.552 100.979 152.581L100.978 152.583C100.915 152.704 100.834 152.813 100.818 152.834C100.818 152.836 100.817 152.837 100.816 152.837C100.764 152.908 100.696 152.995 100.665 153.034C100.66 153.04 100.656 153.045 100.653 153.049C100.288 153.515 99.91 153.98 99.5193 154.438C99.5018 154.466 99.4844 154.494 99.467 154.522C98.8644 155.5 98.0981 156.343 97.3299 157.09C97.0589 157.453 96.7954 157.823 96.5387 158.198C96.6838 158.065 96.8302 157.935 96.9778 157.808C97.337 157.5 97.7256 157.199 98.1471 156.926C98.1468 156.926 98.1473 156.926 98.1487 156.925C98.1546 156.921 98.177 156.905 98.232 156.865L98.2437 156.856C98.2943 156.819 98.3679 156.766 98.4371 156.718C98.4382 156.718 98.4399 156.716 98.4422 156.715C98.4796 156.689 98.665 156.56 98.8775 156.484C98.9383 156.463 99.1246 156.398 99.3698 156.401C99.6422 156.404 100.216 156.512 100.532 157.092C100.779 157.543 100.673 157.964 100.648 158.061C100.608 158.21 100.552 158.322 100.524 158.373C100.411 158.586 100.269 158.76 100.182 158.864C100.134 158.921 100.087 158.974 100.052 159.014L100.047 159.02C100.01 159.061 99.9882 159.086 99.9695 159.108C99.5207 159.636 99.0369 160.126 98.5942 160.575C98.5696 160.6 98.5451 160.625 98.5208 160.649L98.4796 160.691C96.4074 162.792 94.3641 164.863 92.4814 167.052C93.3904 166.501 94.286 165.933 95.1652 165.343C95.6975 164.986 96.2051 164.645 96.6802 164.296C96.9462 163.954 97.2058 163.614 97.4581 163.27C97.5595 163.131 97.6412 162.992 97.7635 162.784C97.7876 162.742 97.8133 162.699 97.841 162.652C97.8417 162.65 97.8425 162.649 97.8435 162.647C97.8631 162.614 97.9465 162.471 98.0757 162.338C98.1179 162.295 98.1964 162.219 98.3092 162.145C98.4127 162.077 98.6336 161.951 98.9456 161.923C99.3122 161.89 99.6705 162.006 99.9415 162.238C100.172 162.435 100.273 162.657 100.315 162.767C100.392 162.969 100.399 163.145 100.401 163.183L100.401 163.187C100.403 163.239 100.402 163.283 100.401 163.307C100.401 163.307 100.401 163.307 100.401 163.307C100.405 163.326 100.418 163.391 100.427 163.449C100.437 163.515 100.45 163.604 100.454 163.709C100.485 164.383 100.074 164.854 99.9541 164.988C99.8623 165.091 99.7717 165.177 99.7071 165.236C99.6741 165.266 99.6434 165.293 99.6213 165.312C99.5957 165.335 99.5854 165.344 99.5778 165.351C99.2569 165.643 98.921 165.918 98.5805 166.179C98.419 166.384 98.2579 166.588 98.0987 166.789C98.0605 166.837 98.0224 166.885 97.9845 166.933C97.6174 167.396 97.2604 167.849 96.9174 168.304C97.0305 168.28 97.2668 168.245 97.5495 168.319C97.9279 168.418 98.2694 168.686 98.4364 169.085C98.5708 169.406 98.5389 169.688 98.5203 169.802C98.4986 169.936 98.4607 170.039 98.4389 170.094C98.3946 170.204 98.344 170.288 98.3202 170.327C98.1829 170.55 97.9369 170.843 97.8693 170.923C97.86 170.934 97.854 170.941 97.8522 170.944C97.6301 171.227 97.3159 171.399 96.9844 171.451C96.6219 171.73 96.2632 172.004 95.9079 172.275C94.919 173.03 93.9566 173.765 93.0123 174.554C92.9841 174.577 92.9568 174.6 92.9302 174.622C92.7865 174.742 92.6657 174.843 92.5619 174.934C92.3567 175.188 92.1449 175.437 91.9253 175.683C91.9131 175.697 91.8867 175.726 91.8531 175.759C91.838 175.774 91.8024 175.809 91.754 175.849C91.73 175.868 91.6859 175.903 91.6269 175.941C91.5849 175.968 91.4505 176.053 91.2565 176.108C91.0997 176.152 90.4991 176.282 89.9832 175.812C89.5251 175.395 89.5537 174.866 89.5599 174.769C89.5701 174.605 89.6096 174.481 89.6242 174.437C89.6434 174.378 89.6629 174.333 89.6746 174.307C89.7118 174.224 89.7513 174.16 89.7591 174.148L89.7599 174.146C89.8002 174.081 89.8524 174.008 89.876 173.975C89.9404 173.885 90.0311 173.764 90.0879 173.691C90.2434 173.494 90.4166 173.312 90.588 173.149C90.8544 172.812 91.1073 172.467 91.351 172.106C91.7895 171.456 92.1855 170.78 92.607 170.059C92.6087 170.056 92.6103 170.053 92.612 170.051C91.2662 170.835 89.9029 171.582 88.5333 172.302C88.578 172.279 88.267 172.45 88.0105 172.571L88.0102 172.571C87.9152 172.615 87.6782 172.726 87.44 172.778C87.3735 172.792 87.2289 172.82 87.0494 172.812C86.9147 172.806 86.4345 172.767 86.07 172.338C85.6559 171.851 85.751 171.308 85.8136 171.098C85.8384 171.015 85.8691 170.941 85.9 170.878C85.8646 170.877 85.8279 170.875 85.7903 170.87C85.5935 170.848 85.3165 170.772 85.0649 170.554C84.8066 170.33 84.6858 170.054 84.64 169.827C84.566 169.462 84.6729 169.174 84.695 169.114L84.6963 169.111C84.7562 168.948 84.8376 168.83 84.8535 168.807L84.8552 168.805C84.9055 168.731 84.9575 168.67 84.9785 168.645C85.0764 168.53 85.2203 168.382 85.2816 168.321C85.2989 168.304 85.327 168.273 85.3933 168.191C85.4006 168.182 85.4089 168.172 85.418 168.16C85.4744 168.09 85.5636 167.979 85.6577 167.875C85.9254 167.582 86.2339 167.296 86.4891 167.06C86.5733 166.982 86.6518 166.91 86.721 166.844C86.7605 166.806 86.812 166.756 86.8709 166.698C87.0142 166.558 87.201 166.376 87.3631 166.233C87.6805 165.955 88.0221 165.73 88.2815 165.559L88.2878 165.555C88.5735 165.367 88.7715 165.236 88.943 165.091C89.8142 164.356 90.476 163.41 91.1088 162.295C91.126 162.265 91.1431 162.234 91.1601 162.204C90.0741 163.006 88.9783 163.784 87.8889 164.55L87.8886 164.55L87.8877 164.551L87.8446 164.581C87.8195 164.599 87.7856 164.623 87.7443 164.652C87.6615 164.71 87.549 164.789 87.4166 164.881C87.1524 165.065 86.806 165.304 86.4576 165.536C86.1149 165.764 85.7484 166.001 85.4513 166.172C85.3111 166.254 85.1403 166.347 84.9771 166.416C84.9095 166.444 84.7523 166.508 84.5587 166.538C84.4667 166.553 84.2593 166.577 84.0097 166.518C83.7226 166.451 83.3284 166.253 83.1098 165.807C82.9482 165.477 82.9726 165.178 82.9832 165.079C82.9971 164.95 83.0268 164.848 83.0443 164.793C83.0802 164.681 83.1244 164.587 83.1489 164.538C83.2023 164.429 83.2667 164.32 83.3113 164.245C83.3399 164.197 83.3774 164.136 83.4056 164.09C83.4168 164.071 83.4265 164.055 83.4336 164.044C83.4799 163.917 83.5243 163.787 83.5742 163.64C83.5844 163.61 83.5948 163.58 83.6055 163.549C83.6771 163.339 83.7601 163.1 83.8589 162.858C83.9202 162.707 83.9878 162.562 84.06 162.421C83.7064 162.723 83.352 163.025 82.9964 163.326C82.9964 163.326 82.9964 163.326 82.9963 163.326C82.9925 163.33 82.9884 163.334 82.984 163.338C82.9536 163.368 82.9046 163.416 82.8492 163.466C82.8016 163.509 82.7126 163.587 82.6055 163.66C82.5552 163.694 82.4542 163.76 82.3197 163.816C82.2506 163.845 82.1408 163.885 82.0016 163.908C81.8654 163.931 81.6434 163.947 81.3871 163.873C80.8955 163.731 80.63 163.367 80.5207 163.082C80.4286 162.842 80.4321 162.636 80.4357 162.556C80.4434 162.387 80.4835 162.256 80.4936 162.223L80.4941 162.222C80.5219 162.131 80.5548 162.059 80.5651 162.036L80.5651 162.036C80.5936 161.973 80.6262 161.911 80.6497 161.867C80.7012 161.77 80.7677 161.652 80.8294 161.544C80.9387 161.354 81.0929 161.091 81.1399 161.021C81.1706 160.975 81.2014 160.929 81.2324 160.883C81.9721 159.779 82.7862 158.564 83.8268 157.492L83.8404 157.478C84.3739 156.929 84.9324 156.354 85.5465 155.8C86.2052 155.207 86.7914 154.568 87.3331 153.866C85.8727 155.191 84.4704 156.552 83.1413 157.986C83.0448 158.09 82.9498 158.202 82.8308 158.344L82.8192 158.358C82.7095 158.489 82.5772 158.647 82.4343 158.801C82.4702 158.763 82.3403 158.911 82.2313 159.01C82.1689 159.066 82.0584 159.16 81.9096 159.244C81.7783 159.319 81.4767 159.467 81.0742 159.442C80.6309 159.414 80.2736 159.185 80.0571 158.89C79.8775 158.646 79.8256 158.404 79.8071 158.288C79.7694 158.054 79.7962 157.847 79.8088 157.759C79.8396 157.544 79.9026 157.317 79.9523 157.152C80.0479 156.834 80.1896 156.444 80.2511 156.316C80.7325 155.315 81.3155 154.358 81.8622 153.48C82.8378 151.914 83.8779 150.391 84.9743 148.908C85.3728 148.369 85.8078 147.837 86.2171 147.336C86.3709 147.148 86.521 146.965 86.6641 146.787C87.208 146.111 87.6925 145.471 88.0885 144.794C88.461 144.158 89.2832 143.933 89.9251 144.292ZM83.0256 163.298C83.0253 163.298 83.0224 163.301 83.0175 163.305C83.0234 163.3 83.0258 163.297 83.0256 163.298ZM97.0974 149.029C97.1181 149.01 97.1154 149.014 97.0928 149.033C97.0943 149.031 97.0959 149.03 97.0974 149.029ZM83.4633 163.994C83.4628 163.995 83.462 163.996 83.4607 163.998C83.4675 163.986 83.4695 163.983 83.4633 163.994ZM99.9581 158.884C99.9741 158.873 99.9812 158.869 99.9808 158.869C99.9804 158.87 99.9724 158.875 99.9581 158.884ZM98.6605 151.281C98.6608 151.281 98.6579 151.285 98.6506 151.295C98.6565 151.286 98.6601 151.281 98.6605 151.281ZM81.0403 161.529C81.0403 161.529 81.0416 161.528 81.044 161.525C81.0415 161.528 81.0403 161.529 81.0403 161.529Z" fill="#CF312C"/>
</g>
<defs>
<filter id="filter0_ddd_3195_42574" x="23.8828" y="28" width="204.326" height="208.805" filterUnits="userSpaceOnUse" color-interpolation-filters="sRGB">
<feFlood flood-opacity="0" result="BackgroundImageFix"/>
<feColorMatrix in="SourceAlpha" type="matrix" values="0 0 0 0 0 0 0 0 0 0 0 0 0 0 0 0 0 0 127 0" result="hardAlpha"/>
<feOffset dy="3"/>
<feGaussianBlur stdDeviation="2.5"/>
<feColorMatrix type="matrix" values="0 0 0 0 0 0 0 0 0 0 0 0 0 0 0 0 0 0 0.2 0"/>
<feBlend mode="normal" in2="BackgroundImageFix" result="effect1_dropShadow_3195_42574"/>
<feColorMatrix in="SourceAlpha" type="matrix" values="0 0 0 0 0 0 0 0 0 0 0 0 0 0 0 0 0 0 127 0" result="hardAlpha"/>
<feOffset dy="1"/>
<feGaussianBlur stdDeviation="9"/>
<feColorMatrix type="matrix" values="0 0 0 0 0 0 0 0 0 0 0 0 0 0 0 0 0 0 0.12 0"/>
<feBlend mode="normal" in2="effect1_dropShadow_3195_42574" result="effect2_dropShadow_3195_42574"/>
<feColorMatrix in="SourceAlpha" type="matrix" values="0 0 0 0 0 0 0 0 0 0 0 0 0 0 0 0 0 0 127 0" result="hardAlpha"/>
<feOffset dy="5"/>
<feGaussianBlur stdDeviation="5"/>
<feColorMatrix type="matrix" values="0 0 0 0 0 0 0 0 0 0 0 0 0 0 0 0 0 0 0.14 0"/>
<feBlend mode="normal" in2="effect2_dropShadow_3195_42574" result="effect3_dropShadow_3195_42574"/>
<feBlend mode="normal" in="SourceGraphic" in2="effect3_dropShadow_3195_42574" result="shape"/>
</filter>
</defs>
</svg>
