<svg width="240" height="280" viewBox="0 0 240 280" fill="none" xmlns="http://www.w3.org/2000/svg">
<g clip-path="url(#clip0_3195_42577)">
<g filter="url(#filter0_ddd_3195_42577)">
<path d="M19.5 105.583C16.8786 90.2909 14.6133 79.2981 12.6052 55.6721C12.6052 49.6281 9.99464 44.4632 15.6174 41.3863C22.6458 37.5402 156.647 33.6943 167.189 33.1449C177.732 32.5955 192.735 32.5789 188 52.9766C181.5 80.9768 155.034 89.7788 146.5 91.9766C132.449 95.5949 140.267 104.004 127 107.477C118.568 109.684 86.1747 108.105 79 107.477C66.4493 106.378 51.5568 110.885 37.5 113.083L37.4507 113.091C23.438 115.281 21.222 115.628 19.5 105.583Z" fill="white"/>
<path d="M194.866 47.3315C190.896 48.2109 184.367 52.048 178.079 57.2175C176.986 58.0968 175.92 58.9495 175.734 59.0561C175.521 59.1893 174.668 58.8962 173.549 58.31C165.022 53.8067 155.216 57.0842 151.459 65.6645C150.499 67.8228 150.02 71.0471 150.18 74.3779C150.233 76.0833 150.366 77.6555 150.446 77.8687C150.553 78.1351 150.046 78.6148 148.821 79.4142C147.115 80.5067 145.783 81.5726 143.705 83.5711C143.092 84.1573 142.399 84.5303 141.679 84.6369C138.535 85.1699 134.698 88.1809 133.126 91.3253C131.82 93.8833 130.754 99.4259 130.967 102.357L131.047 103.636L129.848 102.57C127.823 100.758 126.118 100.119 123.32 100.119C121.268 100.119 120.682 100.225 119.403 100.838C117.431 101.771 115.352 103.849 114.473 105.794C114.1 106.62 113.754 107.34 113.754 107.367C113.727 107.393 112.288 107.127 110.529 106.754C106.106 105.821 97.5525 105.555 93.209 106.247C84.0692 107.633 76.4749 110.831 69.4668 116.187C67.6282 117.572 66.589 118.159 64.8303 118.745C55.424 121.889 49.242 128.284 47.5366 136.678C46.8704 139.849 46.8438 141.208 47.3501 144.086C47.7764 146.431 48.3626 148.349 49.162 149.895C49.615 150.801 49.695 151.6 49.7483 156.29C49.9081 167.455 51.8533 174.063 61.8459 197.246C63.8977 202.016 66.4025 207.931 67.4417 210.436C68.4543 212.914 70.0264 216.618 70.9057 218.643L72.5312 222.294L71.4653 222.853C70.4261 223.36 70.2396 223.386 66.2959 223.067C61.686 222.694 59.5809 222.907 57.3959 224.026C53.7453 225.865 51.5069 230.315 52.3063 234.178C53.159 238.282 55.877 241 60.1938 242.119C62.4054 242.679 68.1078 243.531 71.8917 243.904C73.6504 244.064 76.7147 244.597 78.6866 245.077C83.1366 246.169 85.9611 246.569 87.3468 246.329C87.933 246.223 89.0788 246.223 89.8782 246.356C91.2638 246.596 93.6887 246.409 98.4585 245.69C99.7375 245.503 100.803 245.53 102.269 245.77C104.64 246.143 107.438 245.956 109.011 245.343C109.917 244.97 110.263 244.944 110.982 245.21C112.395 245.716 116.818 245.85 119.403 245.477C121.455 245.183 122.014 245.21 123.853 245.61C128.516 246.596 133.685 246.409 136.084 245.13C136.696 244.837 137.229 244.571 137.309 244.597C137.389 244.624 139.628 244.89 142.266 245.237C147.009 245.823 147.142 245.823 149.514 245.37C151.885 244.917 151.992 244.917 154.15 245.45C160.172 246.915 165.049 247.342 168.539 246.729C169.818 246.489 171.177 246.143 171.604 245.93C172.137 245.663 173.043 245.583 174.935 245.69C178.079 245.823 180.717 245.397 182.476 244.464C183.568 243.851 183.994 243.771 184.874 243.931C186.526 244.224 190.869 244.171 192.601 243.851C199.476 242.572 203.153 235.484 200.142 229.249C199.103 227.064 195.906 224.426 193.054 223.36C191.029 222.587 187.032 222.027 183.675 222.027C182.129 222.027 180.051 221.894 179.038 221.761C176.747 221.415 174.082 220.082 174.082 219.283C174.082 218.723 175.308 205.48 175.547 203.428C175.627 202.682 175.974 201.882 176.48 201.243C177.573 199.857 178.718 197.459 179.251 195.381L179.731 193.649L182.289 193.729C188.658 193.942 193.667 191.384 195.932 186.747C196.785 185.042 196.865 184.695 196.865 182.35C196.865 180.938 196.758 179.313 196.652 178.7C196.465 177.741 196.492 177.607 197.051 177.341C198.091 176.888 200.622 174.41 201.475 173.051C203.26 170.226 203.633 166.469 202.434 162.925C200.808 158.049 197.051 152.106 192.788 147.656L190.31 145.045L191.455 144.752C194.493 143.979 195.719 143.553 198.357 142.354C201.794 140.835 204.832 138.89 208.056 136.145C210.694 133.907 214.025 130.096 214.985 128.204C215.784 126.632 216.264 123.941 216.05 122.235C215.544 118.159 211.867 114.481 207.79 113.975C206.271 113.762 203.42 114.215 202.247 114.828C201.821 115.041 201.421 115.174 201.368 115.094C201.315 115.041 201.581 114.295 201.954 113.442C202.354 112.589 202.807 111.39 202.967 110.777C203.26 109.685 203.447 109.525 209.522 105.475C213.253 102.97 217.116 100.625 219.115 99.639C223.112 97.6938 224.817 96.1483 226.203 93.1905C227.562 90.366 227.882 87.728 227.295 84.104C226.682 80.2402 225.856 77.9486 223.245 72.6725C217.782 61.5609 209.442 51.3552 203.42 48.2908C200.862 47.0118 197.824 46.6653 194.866 47.3315ZM152.311 204.6C153.164 204.68 153.937 204.92 153.99 205.08C154.044 205.24 153.404 208.677 152.525 212.701C151.672 216.725 150.846 220.615 150.713 221.361C150.553 222.241 150.34 222.667 150.126 222.614C149.94 222.587 148.608 222.347 147.195 222.107L144.611 221.654L145.863 217.791C146.529 215.659 147.675 211.715 148.394 209.024C149.593 204.6 149.753 204.174 150.233 204.281C150.526 204.334 151.459 204.494 152.311 204.6Z" fill="white"/>
<path fill-rule="evenodd" clip-rule="evenodd" d="M133.35 138.703C127.302 136.681 113.106 132.358 102.736 129.741C92.3663 127.123 85.8232 126.211 79.9345 126.39C74.0458 126.568 67.146 128.492 63.6168 130.494C60.0873 132.497 58.2632 135.233 57.3908 137.791C56.5185 140.349 56.5978 142.728 57.2917 144.929C57.9856 147.129 59.2943 149.152 60.9596 150.421C62.6252 151.69 66.3132 151.551 67.939 151.848C69.5648 152.146 70.7941 152.225 71.0717 151.709C71.3493 151.194 70.675 150.084 69.8226 148.973C68.9698 147.863 67.9387 146.753 66.9277 146.118C65.9167 145.484 64.9252 145.325 64.5882 144.136C64.2511 142.946 64.5682 140.725 64.8658 140.091C65.1632 139.456 65.4406 140.408 66.0553 141.479C66.6701 142.549 67.6216 143.739 68.4544 144.294C69.2872 144.849 70.0009 144.77 70.6156 144.492C71.2302 144.215 71.7458 143.739 71.845 142.986C71.9441 142.232 71.6269 141.201 70.9526 140.349C70.2785 139.496 69.2477 138.822 68.3355 137.989C67.4233 137.156 66.6303 136.165 66.3527 135.015C66.0751 133.865 66.3132 132.556 68.1966 131.545C70.0802 130.534 73.6094 129.82 85.05 131.307C96.4903 132.794 116.235 134.971 126.569 138.465C133.987 140.973 146.034 144.195 144.942 142.28C144.743 141.933 135.906 139.558 133.35 138.703Z" fill="#3B636B"/>
<path fill-rule="evenodd" clip-rule="evenodd" d="M181.04 231.818C178.863 231.29 177.081 230.77 172.079 230.807C171.799 230.809 170.949 230.82 170.571 230.766C170.729 230.803 170.76 230.836 170.902 230.912L170.808 231.077C170.208 230.85 169.781 230.701 169.662 230.662L169.081 230.837C167.752 231.539 168.671 231.907 170.224 232.097L170.197 232.145C171.302 232.87 172.911 233.639 173.959 234.267C168.579 233.383 150.025 229.995 153.158 233.093C153.634 233.563 155.122 234.085 156.894 234.597C150.205 233.203 148.064 230.878 137.023 230.439L137.025 230.474L136.919 230.442L136.067 230.695C135.187 231.286 135.76 231.597 137.119 231.84L137.127 231.954C138.71 232.56 140.728 233.229 142.461 233.901C136.655 233.138 124.778 231.558 122.896 231.302C120.906 230.69 120.288 231.956 121.207 232.439C121.548 232.585 123.76 233.508 125.786 234.368C118.614 232.817 108.421 229.088 109.79 232.006C109.966 232.383 110.535 232.986 111.401 233.558C112.714 233.148 99.9564 231.108 109.031 233.99C116.935 236.501 116.674 234.799 114.34 233.207C120.051 234.782 130.682 237.763 131.651 235.87C131.943 235.302 130.518 234.426 128.735 233.592C135.911 234.584 145.657 235.84 145.894 235.824C149.821 235.563 146.915 234.021 143.397 232.654C145.015 232.898 146.668 233.224 148.113 233.707C151.96 234.994 161.082 237.697 165.824 237.017C169.281 236.521 164.529 234.885 160.352 233.682C166.451 234.527 174.352 236.291 176.203 235.901C179.29 235.25 176.561 233.573 173.738 232.289C175.004 232.306 176.01 232.282 176.056 232.286L175.808 232.212C189.619 235.922 191.704 233.844 189.854 232.985C188.938 231.477 184.352 231.396 182.241 231.317C181.688 231.317 181.218 231.526 181.04 231.818Z" fill="#CCCCCC"/>
<path fill-rule="evenodd" clip-rule="evenodd" d="M165.038 197.375C164.354 197.957 161.281 213.069 159.953 218.977C158.625 224.886 158.545 226.631 159.418 228.296C160.29 229.962 162.114 231.548 164.85 232.579C167.586 233.61 167.353 234.014 169.792 233.915C172.231 233.815 173.46 233.141 173.738 232.289C174.507 229.924 166.339 227.914 164.354 225.203C163.542 224.093 163.145 222.903 163.562 217.51C163.978 212.117 165.723 196.794 165.038 197.375Z" fill="#3B636B"/>
<path fill-rule="evenodd" clip-rule="evenodd" d="M164.213 132.478C161.061 133.767 159.632 134.181 156.968 131.29C156.108 134.691 162.478 137.517 164.213 132.478Z" fill="#3B636B"/>
<path fill-rule="evenodd" clip-rule="evenodd" d="M170.423 76.5737C176.228 67.9725 156.76 60.9517 158.817 76.8315C160.022 86.134 174.597 79.8472 175.707 94.3369C175.715 94.7456 176.053 95.0704 176.461 95.0625C176.87 95.0545 177.195 94.7166 177.187 94.3082C175.996 78.8127 161.295 84.5103 160.287 76.6562C158.842 65.3949 171.086 67.4117 169.696 74.4958C168.463 80.7736 161.663 74.389 166.723 74.3526C167.131 74.3821 167.485 74.0753 167.515 73.6677C167.544 73.2601 167.237 72.9058 166.83 72.8763C159.527 72.9559 165.921 83.2441 170.423 76.5737Z" fill="#3B636B"/>
<path fill-rule="evenodd" clip-rule="evenodd" d="M205.483 124.068C200.7 126.457 196.102 127.379 191.719 127.373C187.451 127.368 183.384 126.509 179.619 123.485C176.117 120.147 172.624 117.303 169.169 116.633C166.746 116.163 165.008 116.585 163.874 117.565C163.118 116.271 161.611 115.308 159.166 114.969C155.68 114.485 151.455 116.045 147.06 118.069C142.519 119.711 138.394 119.207 134.353 117.83C130.204 116.417 126.152 114.056 122.4 110.248C126.773 126.618 145.685 137.807 160.962 126.885C161.602 126.255 162.172 125.581 162.656 124.886C162.889 125.701 163.21 126.523 163.613 127.326C174.531 142.605 196.046 138.141 205.483 124.068Z" fill="#3B636B"/>
<path d="M174.81 109.92C174.063 109.866 173.501 109.217 173.555 108.47C173.609 107.723 174.258 107.161 175.005 107.215C175.752 107.269 176.314 107.918 176.26 108.665C176.206 109.412 175.557 109.974 174.81 109.92Z" fill="black"/>
<path d="M155.842 106.48C155.192 106.433 154.703 105.868 154.75 105.217C154.797 104.567 155.362 104.078 156.012 104.125C156.662 104.172 157.151 104.737 157.105 105.387C157.058 106.038 156.492 106.527 155.842 106.48Z" fill="black"/>
<path fill-rule="evenodd" clip-rule="evenodd" d="M211.27 84.0989C211.397 84.6704 211.551 85.3667 211.695 86.0403C211.329 85.1423 210.84 83.9544 210.268 82.6099C210.605 83.1095 210.939 83.6059 211.27 84.0989ZM212.414 88.4507C212.425 88.4562 212.436 88.463 212.446 88.4715L212.408 88.3905C212.388 88.2142 212.35 87.9853 212.292 87.7004C212.332 87.7209 212.37 87.7505 212.404 87.7897C212.39 87.7599 212.321 87.5881 212.205 87.2999C212.045 86.5918 211.79 85.6166 211.423 84.3261C211.799 84.8879 212.172 85.4447 212.54 85.9955C212.498 85.6543 212.445 85.3153 212.381 84.9776C212.953 85.5636 213.536 86.1165 214.131 86.6298C213.421 85.1885 212.512 83.5387 211.47 81.7818C209.557 76.7003 205.726 71.9821 203.163 67.3973C203.029 67.1577 198.341 57.2802 198.251 62.4877C198.244 62.9024 198.27 63.3363 198.326 63.7853L197.63 63.8509C195.933 61.4877 194.641 60.56 194.19 62.3886C193.97 63.2828 194.339 64.6091 195.077 66.2239C192.862 63.4157 191.034 61.6596 190.22 62.1711C189.239 62.7869 189.6 64.3321 190.738 66.4132C189.727 65.6381 188.913 65.3128 188.399 65.6225C188.132 65.7839 187.96 66.0198 187.865 66.3164C186.948 65.9937 186.274 66.3098 185.958 67.4996C185.263 70.1085 188.244 74.3514 191.762 78.778C192.01 78.6921 192.275 78.6159 192.56 78.5531C193.516 78.2631 194.526 78.8028 194.816 79.7587C195.106 80.7146 194.555 81.8852 193.599 82.1754C191.719 83.0367 191.112 83.767 190.032 84.2484C191.107 85.5802 192.222 87.0136 193.469 88.7507C193.752 89.7087 193.205 90.715 192.246 90.9981C191.289 91.2813 190.282 90.734 189.999 89.7762C189.91 89.6665 188.602 88.1338 187.064 86.2725C186.507 86.7805 185.902 87.3853 185.19 88.1193C185.929 89.0127 186.668 89.9154 187.386 90.8051C188.06 91.9875 188.759 93.1815 189.453 94.3212C188.154 92.4038 186.632 90.2687 185.132 88.1791C184.884 88.434 184.624 88.7043 184.348 88.9911C183.632 89.6879 182.487 89.6721 181.791 88.956C181.637 88.7984 181.519 88.6199 181.434 88.4304C180.645 87.504 179.872 86.5696 179.145 85.648C177.551 83.0544 175.994 80.4874 174.456 78.1653L174.449 78.1527L174.452 78.1598L174.366 78.0298L173.723 78.3543C174.768 82.0146 177.701 85.8191 180.93 89.53C183.663 93.5899 186.498 97.4033 188.694 99.1051C186.85 97.1597 185.085 94.8089 183.377 92.287C184.155 93.153 184.926 94.0101 185.671 94.8556C188.491 98.9545 190.902 101.888 190.785 99.7301C190.75 99.0771 189.339 97.3696 187.363 95.1361C186.335 93.6081 185.167 91.8138 183.988 89.9581C184.223 90.2515 184.468 90.5571 184.727 90.8784L191.9 100.866C193.009 101.4 193.196 100.963 192.775 99.8933L192.956 99.8453C192.627 99.3094 192.298 98.7887 191.969 98.2812C191.887 98.1352 191.799 97.9846 191.708 97.8299C193.942 101.068 195.737 102.797 195.907 100.318C195.98 99.2519 193.455 95.4675 190.184 91.2204C189.561 90.1469 188.928 89.042 188.31 87.9513C191.052 91.3408 193.764 94.55 196.677 98.6097L197.158 97.1697L198.58 97.4843C198.227 96.9973 197.877 96.5223 197.529 96.0572L197.632 95.7493L194.943 91.2836C196.085 92.6456 197.1 93.9619 197.916 95.2149C197.852 95.0863 197.809 94.9592 197.787 94.8353C198.342 95.5075 198.751 95.9204 198.929 95.9346C200.284 96.043 200.512 95.3676 200.089 94.2896L200.25 94.4303C200.139 94.2432 200.012 94.0357 199.873 93.8134C199.53 93.1333 198.995 92.3382 198.356 91.4995C197.47 90.1872 196.402 88.6515 195.258 87.0181C198.215 90.1967 200.864 92.5989 202.171 92.6964C202.993 92.7579 203.461 92.5564 203.646 92.1454C203.887 92.4523 204.117 92.7312 204.334 92.9769L204.372 93.0439L204.391 93.0405C205.114 93.849 205.692 94.2911 206.073 94.2218C206.929 94.0657 207.213 93.4681 207.077 92.5512L207.25 92.5195C207.248 92.5158 207.147 92.3397 206.966 92.0287C206.883 91.7278 206.768 91.4023 206.621 91.053C207.354 91.8267 208.075 92.5103 208.78 93.0755C209.075 92.9965 209.164 93.0028 209.411 92.8159C210.137 92.2654 210.19 91.1932 209.768 89.7693C209.799 89.7137 209.827 89.6544 209.85 89.5916C210.137 89.8946 210.387 90.0891 210.594 90.16C211.073 90.3245 211.402 90.3193 211.608 90.1737C211.668 90.1621 211.72 90.1086 211.763 90.005C211.842 89.8635 211.875 89.6678 211.87 89.4282C211.876 89.3433 211.882 89.2526 211.885 89.1516C211.894 88.9022 211.885 88.6407 211.864 88.37C211.954 88.5023 212.025 88.5875 212.078 88.6323C212.329 88.9792 212.464 88.9782 212.414 88.4507ZM191.582 78.8434C188.441 75.3221 185.701 71.9389 184.623 70.0834C184.607 70.0573 179.579 67.0796 183.63 74.248C181.791 72.1226 180.222 70.4971 179.722 70.5031C177.042 70.5372 178.813 73.9746 181.481 77.6486C181.169 78.1946 181.239 79.3343 182.289 81.3658C182.289 81.3658 182.466 81.7133 182.776 82.3117C179.426 78.5966 176.621 75.9777 176.117 76.5972C175.522 76.1438 175.124 76.4892 175.481 77.7984L175.458 77.7744L175.488 77.8229C175.72 78.6586 176.255 79.88 177.235 81.5301C177.235 81.5301 179.064 84.6117 181.378 88.288C181.155 87.6453 181.307 86.9037 181.826 86.3983C182.964 85.2106 183.907 84.2552 184.785 83.4691C183.287 81.5867 182.028 79.8979 181.935 79.4289C181.853 78.4332 182.595 77.5603 183.591 77.4794C184.384 77.4148 185.1 77.873 185.399 78.5658C186.19 79.5702 186.939 80.4848 187.674 81.3766C188.918 80.7028 189.818 79.5114 191.582 78.8434Z" fill="#45CDC3"/>
<path fill-rule="evenodd" clip-rule="evenodd" d="M195.967 58.1215C189.127 59.9506 171.609 73.7151 172.171 80.3831C175.032 72.8214 189 61.6107 196.455 59.993C198.588 59.5301 215.196 81.1276 213.195 89.2722C204.627 93.2618 201.225 96.1114 193.353 101.226C192.445 101.248 191.727 102.002 191.75 102.91C191.772 103.818 192.526 104.536 193.434 104.514C201.596 100.258 206.068 95.4462 214.736 91.6386C222.475 88.2393 201.439 56.6586 195.967 58.1215Z" fill="#3B636B"/>
<path fill-rule="evenodd" clip-rule="evenodd" d="M186.261 123.378C188.75 112.147 186.391 104.585 182.825 98.0992C182.412 97.3081 181.966 96.5383 181.486 95.7927C184.413 102.511 186.859 108.169 185.961 118.064C182.429 156.997 138.588 153.065 141.899 114.268C143.487 95.6562 154.425 87.2985 167.129 87.8158C167.753 87.9283 168.632 87.2463 169.091 86.2925C169.551 85.3387 169.418 84.4737 168.794 84.3611C157.08 84.0588 144.725 90.2053 140.38 109.464C131.211 150.094 177.395 163.393 186.261 123.378Z" fill="#3B636B"/>
<path fill-rule="evenodd" clip-rule="evenodd" d="M173.098 148.534C170.319 145.611 174.197 153.438 174.195 153.513C173.793 153.382 173.418 153.145 173.078 152.838C172.634 151.524 171.893 150.433 171.303 149.847C171.273 149.74 171.246 149.636 171.224 149.534C171.227 149.605 171.212 149.673 171.184 149.733C170.377 149.001 169.937 149.328 171.154 151.525L171.264 151.719C171.429 152.206 171.603 152.737 171.765 153.254C171.359 152.567 170.93 151.861 170.556 151.326L170.538 151.257L170.533 151.292C169.735 150.158 169.198 149.83 169.697 152.188C169.259 150.78 168.776 150.193 168.018 151.424C166.86 153.305 169.123 161.512 169.981 166.19C168.272 162.539 167.378 157.434 167.131 153.892L167.132 153.931L167.019 153.989C166.95 153.594 166.895 153.34 166.859 153.264L165.381 154.032C165.449 155.365 165.566 156.592 165.742 157.759C166.123 161.741 166.565 166.6 166.861 171.006C166.573 170.061 166.274 169.109 165.97 168.158C164.704 162.122 163.198 156.468 161.753 154.961C161.439 153.787 161.233 152.822 161.184 152.137C161.074 150.599 156.426 148.106 158.53 154.002C160.788 160.33 161.066 168.193 161.661 176.147C159.467 168.72 157.896 161.09 157.867 153.517C157.855 150.449 154.538 148.151 153.864 155.29L153.765 154.83L153.75 154.827C153.598 154.063 153.419 153.164 153.2 152.092C152.977 150.998 152.359 150.862 151.59 150.659C151.318 151.863 151.125 152.94 150.999 153.922C150.829 153.662 150.604 153.288 150.235 152.745C150.003 151.178 149.956 151.209 148.128 150.814C147.836 151.115 147.644 151.684 147.535 152.467C146.459 146.995 144.288 147.628 144.515 151.7C144.578 152.821 144.867 156.245 145.328 160.669C144.584 158.446 143.887 156.597 143.293 155.369L143.291 155.333L143.286 155.354C141.592 151.86 140.75 153.426 142.1 165.659C142.1 165.662 142.524 168.492 143.146 172.214C142.13 171.16 141.653 172.968 142.66 180.536C142.66 180.536 143.588 186.339 143.477 188.286C142.277 186.549 140.532 180.386 139.842 179.902L139.474 180.021C139.146 180.687 141.131 185.785 141.799 188.499C141.605 187.301 141.256 185.629 140.92 184.101C147.054 199.184 142.75 179.288 142.903 174.005C143.167 174.467 143.457 175.075 143.759 175.784C144.872 182.088 146.297 189.128 147.207 189.808C149.857 191.786 147.569 182.269 145.268 176.36C144.652 172.309 144.196 168.027 143.868 164.096C144.844 167.496 146 171.38 147.1 175.126C148.661 185.918 150.753 195.609 152.882 192.249C153.374 191.472 151.493 182.642 149.121 173.635C148.968 172.603 148.819 171.559 148.676 170.513C149.436 172.881 150.338 175.562 151.202 178.202C152.507 184.029 153.77 188.903 154.283 190.472C154.729 191.835 156.267 193.129 156.803 191.642C157.644 194.029 158.701 195.114 160.017 193.445C160.092 193.35 160.154 193.235 160.208 193.106C161.599 195.59 163.447 195.483 163.416 190.855C163.914 192.179 164.44 193.555 164.993 194.994C165.116 195.327 165.243 195.659 165.376 195.988L168.097 194.631L167.284 192.467C165.408 186.896 164.821 180.498 164.323 174.086C165.085 178.276 165.81 182.121 166.591 184.397C166.594 184.666 166.595 184.937 166.592 185.209L166.872 185.138C167.448 186.503 168.06 186.971 168.741 186.071C169.615 184.918 169.573 182.495 169.02 179.437C169.324 177.111 169.005 171.835 168.524 166.624C172.508 175.258 171.811 167.921 170.691 160.94C170.824 161.113 170.963 161.273 171.111 161.419C173.4 163.667 172.433 158.592 171.501 154.835C172.329 156.204 173.192 157.235 173.392 155.989C173.473 155.485 173.482 154.983 173.436 154.494C173.888 156.286 176.526 152.141 173.098 148.534ZM170.289 154.532C170.437 155.049 171.108 157.225 171.419 158.928C170.955 157.518 170.607 155.93 170.289 154.532ZM141.799 188.499C141.956 189.133 142.04 189.637 142.006 189.924C141.99 189.91 141.972 189.893 141.953 189.874C141.956 189.592 141.898 189.106 141.799 188.499ZM142.006 189.924C142.004 189.941 142.002 189.959 141.999 189.975C142.012 189.963 142.028 189.949 142.047 189.953C142.035 189.946 142.021 189.937 142.006 189.924ZM142.047 189.953L142.051 189.953L142.05 189.954L142.047 189.953ZM141.953 189.874C141.706 189.62 141.211 188.886 141.135 188.781C141.723 190.219 141.947 190.404 141.953 189.874Z" fill="#45CDC3"/>
<path fill-rule="evenodd" clip-rule="evenodd" d="M138.716 143.281C138.384 147.399 136.818 192.729 138.982 193.779C139.922 194.234 141.339 194.258 142.7 194.206C150.475 193.904 166.862 199.291 168.495 194.473C171.12 186.731 174.213 159.03 175.693 149.079C172.248 158.099 168.707 189.759 166.594 194.127C159.877 193.552 147.15 190.988 140.725 191.925C142.459 177.206 140.389 159.52 141.788 144.145C142.122 141.34 139.081 140.93 138.716 143.281Z" fill="#3B636B"/>
<path fill-rule="evenodd" clip-rule="evenodd" d="M169.22 102.126C167.765 100.508 165.197 100.126 162.945 101.11C159.156 96.2627 148.902 93.9699 143.15 95.1747C140.9 95.6452 140.61 97.0828 140.187 99.0883C139.246 103.546 140.08 108.435 142.888 110.802C144.37 112.052 146.104 112.972 147.93 113.48C149.771 113.991 151.708 114.084 153.581 113.671C157.711 112.762 161.487 109.435 163.153 102.793C165.151 102.508 166.569 102.759 168.445 103.649C167.864 110.486 170.361 114.865 173.978 117.064C175.617 118.061 177.479 118.6 179.386 118.712C181.278 118.823 183.217 118.514 185.024 117.811C188.494 116.463 191.864 112.388 192.726 107.937C193.262 105.165 193.451 104.812 191.174 103.494C185.775 100.368 174.786 98.5244 169.22 102.126ZM190.31 105.488C189.736 111.846 186.015 117.985 179.352 117.594C172.699 117.203 169.437 109.556 169.996 103.219C175.81 100.008 185.378 101.294 190.31 105.488ZM142.721 97.5713C141.206 103.773 141.894 110.646 148.324 112.433C154.746 114.217 160.308 108.038 161.83 101.861C156.392 95.8619 147.12 95.8401 142.721 97.5713Z" fill="#CF312C"/>
<path fill-rule="evenodd" clip-rule="evenodd" d="M184.333 158.929C187.305 162.953 187.347 165.532 184.651 166.364C181.954 167.197 176.363 168.466 173.289 169.854C170.216 171.242 169.661 172.749 169.621 174.355C169.582 175.961 170.057 177.666 171.267 179.252C172.477 180.838 174.42 182.306 176.482 183.257C178.544 184.209 180.725 184.645 182.549 184.506C184.373 184.368 185.84 183.654 186.177 182.663C186.514 181.671 185.721 180.402 184.155 179.569C182.589 178.737 180.249 178.34 178.445 177.686C176.64 177.031 175.371 176.119 174.816 175.009C174.261 173.899 174.419 172.59 174.955 171.837C175.49 171.083 176.402 170.885 178.762 170.865C181.121 170.845 184.928 171.004 187.466 170.647C190.004 170.29 191.273 169.417 191.888 168.645C192.502 167.871 192.462 167.197 191.689 165.373C190.916 163.549 189.409 160.575 186.614 157.006C180.622 149.357 169.169 144.182 170.469 145.699C172.498 148.07 179.218 152.001 184.333 158.929Z" fill="#3B636B"/>
<path fill-rule="evenodd" clip-rule="evenodd" d="M140.299 146.932C138.692 140.431 135.377 134.781 129.765 129.022C109.184 107.902 74.7842 113.968 62.8409 140.281C61.9296 142.29 61.2286 144.258 60.7095 146.198C60.4324 147.196 60.1994 148.199 60.0085 149.206C59.4093 152.367 59.2244 155.56 59.3897 158.703C59.5503 161.753 60.0388 164.751 60.8445 167.922C61.6475 171.085 62.7661 174.423 64.1889 178.162C66.5313 184.317 69.7133 191.589 72.9486 198.982C73.3714 199.948 73.7954 200.917 74.2185 201.886C79.8937 216.082 86.6226 231.577 89.8598 233.271C93.785 235.326 102.228 226.123 104.498 224.032C118.639 211.008 132.791 193.506 138.707 174.359C139.404 172.412 139.945 170.589 140.362 168.856C141.155 165.566 141.503 162.607 141.635 159.746C141.767 156.88 141.683 154.109 141.279 151.392C141.055 149.892 140.735 148.408 140.299 146.932Z" fill="white"/>
<path fill-rule="evenodd" clip-rule="evenodd" d="M139.171 198.678C137.413 203.236 134.37 210.16 131.59 216.068C128.81 221.975 127.175 225.021 123.863 226.554C120.552 228.087 119.067 228.184 115.339 229.15C111.612 230.117 108.996 233.519 110.806 234.644C119.262 239.898 130.957 228.159 133.839 220.953C135.883 215.843 137.917 208.678 139.205 203.466C140.492 198.253 140.643 197.635 140.827 196.102C141.011 194.569 140.929 194.119 139.171 198.678Z" fill="#3B636B"/>
<path fill-rule="evenodd" clip-rule="evenodd" d="M94.2845 231.832C94.4809 231.985 94.7245 232.142 95.0021 232.301C89.5906 230.796 83.9536 229.495 86.5119 231.494C86.7726 231.698 87.1586 231.924 87.6249 232.163C86.3244 231.749 83.3929 230.838 78.6596 230.71C75.916 230.635 74.5797 231.651 74.6875 231.771C76.9985 234.332 80.3993 232.711 67.8803 232.538C67.2291 232.538 61.4284 231.846 61.6965 232.224C62.194 232.926 74.4478 234.444 75.6801 234.268C78.0899 234.605 84.6267 236.675 85.9649 236.519C88.9252 236.173 81.6381 233.498 78.2845 232.174C86.1212 234.579 91.7007 237.48 92.2216 236.496C92.8717 235.269 93.0818 235.78 91.0171 234.764C93.3328 235.488 95.3538 236.049 96.0717 236.049C98.8535 236.049 95.5545 234.289 92.4708 232.862C96.6638 234.105 101.964 235.933 103.839 236.081C108.248 236.431 101.966 234.749 98.6972 233.403C99.7003 233.53 103.569 234.024 106.839 234.441C109.107 234.73 108.906 234.793 109.386 234.744C109.905 234.69 110.861 234.48 106.484 233.595C102.24 232.737 91.1755 229.417 94.2845 231.832ZM75.7984 234.251C75.8823 234.238 75.9672 234.226 76.0534 234.213C75.872 234.251 75.834 234.251 75.7984 234.251Z" fill="#CCCCCC"/>
<path fill-rule="evenodd" clip-rule="evenodd" d="M108.186 197.436C105.054 197.21 99.8588 196.959 95.6953 196.624C91.5312 196.289 88.3987 195.871 86.1581 195.274C83.9175 194.677 82.5693 193.901 82.1926 194.178C81.8159 194.455 82.4109 195.786 84.7108 197.649C87.0107 199.512 91.0158 201.908 93.4547 203.287C95.8935 204.667 96.7656 205.031 96.845 205.351C96.9243 205.671 96.2107 205.947 94.5651 205.962C92.9192 205.976 90.3417 205.729 88.597 205.966C86.852 206.203 85.9401 206.924 85.9401 207.625C85.9401 208.327 86.852 209.008 88.1011 209.533C89.3502 210.058 90.9365 210.426 91.9678 210.711C92.9986 210.996 93.4744 211.198 93.8114 211.585C94.1486 211.971 94.3468 212.543 94.1486 212.936C93.9503 213.328 93.3556 213.541 92.4236 213.612C91.4917 213.684 90.2228 213.614 89.6478 213.845C89.0729 214.076 89.1918 214.609 89.5487 215.137C89.9057 215.666 90.5004 216.189 91.3135 216.48C92.1262 216.77 93.1573 216.827 93.9108 216.746C94.664 216.665 95.1398 216.445 95.12 216.234C95.1003 216.022 94.5846 215.819 94.0096 215.752C93.4346 215.685 92.8003 215.755 92.3047 215.588C91.8088 215.42 91.4521 215.014 92.0669 214.663C92.6814 214.311 94.2677 214.012 95.1997 213.818C96.1313 213.624 96.4089 213.534 96.6865 213.234C96.9641 212.933 97.2417 212.423 97.0633 211.939C96.8848 211.456 96.2505 211 95.259 210.542C94.2677 210.084 92.9192 209.624 92.2652 209.114C91.6108 208.605 91.6501 208.046 92.7012 207.876C93.7521 207.706 95.8142 207.924 98.2528 208.059C100.692 208.194 103.507 208.244 105.292 207.974C107.076 207.704 107.829 207.114 106.62 206.381C105.411 205.648 102.238 204.771 99.621 204.031C97.0037 203.29 94.9416 202.685 93.1178 201.953C91.2934 201.222 89.7072 200.362 89.6478 199.815C89.5883 199.269 91.0556 199.034 93.9108 199.314C96.7656 199.594 101.009 200.39 104.28 200.798C107.552 201.207 109.852 201.228 111.22 200.707C112.588 200.187 113.024 199.123 112.707 198.492C112.39 197.86 111.319 197.661 108.186 197.436Z" fill="#CCCCCC"/>
<path fill-rule="evenodd" clip-rule="evenodd" d="M140.299 146.932C138.692 140.431 135.377 134.781 129.765 129.022C109.184 107.902 74.7842 113.968 62.8409 140.281C61.9296 142.29 61.2286 144.258 60.7095 146.198C60.4324 147.196 60.1994 148.199 60.0085 149.206C59.4093 152.367 59.2244 155.56 59.3897 158.703C59.5503 161.753 60.0388 164.751 60.8445 167.922C61.6475 171.085 62.7661 174.423 64.1889 178.162C66.5313 184.317 69.7133 191.589 72.9486 198.982C73.3714 199.948 73.7954 200.917 74.2185 201.886C79.8937 216.082 86.6226 231.577 89.8598 233.271C93.785 235.326 102.228 226.123 104.498 224.032C118.639 211.008 132.791 193.506 138.707 174.359C139.404 172.412 139.945 170.589 140.362 168.856C141.155 165.566 141.503 162.607 141.635 159.746C141.767 156.88 141.683 154.109 141.279 151.392C141.055 149.892 140.735 148.408 140.299 146.932ZM140.338 151.53C140.734 154.189 140.816 156.9 140.687 159.705C140.557 162.514 140.216 165.416 139.44 168.637C138.663 171.862 137.448 175.414 135.571 179.523C133.641 183.749 131.009 188.562 127.958 193.413C127.642 193.915 127.322 194.417 126.998 194.919C125.056 197.752 123.004 200.523 120.891 203.242C117.427 207.699 94.322 233.114 90.7954 231.335C88.2229 230.038 77.129 205.985 70.3834 190.715C68.4131 186.145 66.5771 181.765 65.0773 177.824C64.2313 175.601 63.4942 173.522 62.8684 171.539C62.4827 170.183 62.1428 168.874 61.8863 167.739C53.3267 129.9 94.6692 105.282 123.881 125.957C125.183 126.878 126.41 127.837 127.562 128.833C127.897 129.159 128.237 129.5 128.582 129.858C130.402 131.746 132.38 134.116 134.17 136.715C135.697 138.933 137.087 141.315 138.12 143.701C139.238 146.282 139.944 148.878 140.338 151.53Z" fill="#3B636B"/>
<path d="M132.545 159.652C132.873 156.791 132.82 154.047 132.421 151.387C132.035 148.819 131.324 146.333 130.319 143.898C128.601 138.907 125.702 134.383 121.51 130.37C109.567 118.938 83.8556 121.038 75.128 136.756C74.846 137.264 74.5789 137.781 74.3256 138.307C73.8803 139.187 73.4711 140.096 73.0981 141.025C71.7024 144.5 70.8087 148.256 70.4064 151.84C70.0384 155.117 70.0803 158.255 70.4478 161.213C70.751 163.654 71.2766 165.971 71.9763 168.138C73.3749 173.513 76.0381 178.404 80.6118 182.834C92.3435 194.198 119.628 189.43 127.38 175.578C127.594 175.196 127.797 174.815 127.99 174.436C128.98 172.564 129.916 170.331 130.69 167.95C131.559 165.276 132.228 162.409 132.545 159.652Z" fill="#CF312C"/>
<path d="M134.491 160.153C134.842 157.252 134.786 154.469 134.358 151.772C133.944 149.167 133.182 146.646 132.105 144.177C130.264 139.117 127.157 134.528 122.665 130.459C109.867 118.866 82.3137 120.996 72.9611 136.935C72.6588 137.45 72.3724 137.975 72.1012 138.507C71.624 139.4 71.1856 140.322 70.7859 141.264C69.2901 144.787 68.3326 148.597 67.9013 152.231C67.5069 155.554 67.5519 158.736 67.9455 161.736C68.2706 164.212 68.8337 166.56 69.5835 168.758C71.0822 174.209 73.9363 179.169 78.8377 183.661C91.4098 195.185 120.649 190.35 128.956 176.302C129.185 175.915 129.403 175.529 129.61 175.145C130.67 173.247 131.673 170.982 132.503 168.567C133.435 165.856 134.152 162.949 134.491 160.153ZM129.18 173.943C121.825 186.269 104.3 189.722 91.0149 187.428C80.1686 185.554 73.0128 176.819 69.9473 166.745C69.4804 165.108 69.12 163.395 68.8862 161.613C68.5029 158.694 68.4599 155.591 68.8453 152.342C69.2669 148.79 70.2012 145.07 71.6593 141.636C72.1468 140.488 72.6922 139.371 73.297 138.304C73.4721 138.012 73.6482 137.732 73.8248 137.465C83.2652 123.181 109.301 121.4 121.536 131.741C124.994 134.664 127.688 137.886 129.673 141.406C130.083 142.145 130.469 142.894 130.825 143.65C132.141 146.486 133.035 149.501 133.533 152.695C133.842 155.06 133.854 157.5 133.547 160.041C133.216 162.765 132.515 165.605 131.603 168.258C130.896 170.316 130.064 172.257 129.18 173.943Z" fill="#CF312C"/>
<path fill-rule="evenodd" clip-rule="evenodd" d="M76.9933 165.204C77.6779 164.305 79.2452 163.351 80.1772 163.176C81.1091 163.001 81.4057 163.606 81.8109 164.522C82.2164 165.438 82.7299 166.665 83.6663 167.643C84.603 168.62 85.9623 169.348 87.4181 169.629C88.8738 169.911 90.0552 169.65 91.3789 169.199C95.4035 167.828 97.3578 159.91 96.9365 156.216C96.8034 155.05 96.8068 155.433 96.3014 155.835C94.63 157.165 92.4898 157.728 90.7433 157.694C89.2411 157.665 87.5863 157.351 86.0003 156.697C84.4143 156.042 82.8973 155.047 81.6308 153.739C80.3646 152.431 79.3486 150.81 78.791 148.949C78.2334 147.088 78.134 144.987 78.5471 143.093C79.9091 136.851 84.8624 133.021 91.289 133.483C96.1385 133.832 100.122 135.738 101.444 140.765C102.102 143.264 101.874 146.188 101.677 149.439C101.398 154.026 99.5058 163.352 97.5196 167.352C96.2321 169.945 94.5203 172.257 92.305 173.387C90.3668 174.375 87.8771 174.628 85.5205 174.193C83.1639 173.758 80.9301 172.616 79.4809 171.431C78.032 170.245 77.3676 169.017 76.9366 167.982C76.5058 166.946 76.3084 166.102 76.9933 165.204ZM92.875 138.026C96.627 138.994 98.8307 143.026 97.797 147.032C96.7633 151.038 93.0205 152.97 89.2688 152.002C85.5168 151.033 83.1762 147.532 84.2099 143.526C85.2436 139.52 89.123 137.057 92.875 138.026Z" fill="white"/>
<path fill-rule="evenodd" clip-rule="evenodd" d="M105.84 149.626C105.983 148.425 107.38 146.055 108.824 143.923C110.268 141.791 111.759 139.896 112.462 139.115C113.164 138.334 113.079 138.665 112.615 142.445C112.15 146.225 111.306 153.453 110.421 159.246C109.535 165.04 108.607 169.397 108.284 171.563C107.96 173.729 108.242 173.704 108.726 173.77C109.21 173.836 109.896 173.993 110.218 174.155C110.54 174.316 110.497 174.482 110.371 175.236C110.246 175.989 110.037 177.33 109.699 177.881C109.36 178.432 108.891 178.193 107.08 177.825C105.27 177.456 102.118 176.956 100.654 176.461C99.1907 175.965 99.4161 175.474 99.618 174.691C99.82 173.908 99.9987 172.834 100.22 172.282C100.441 171.73 100.704 171.7 101.25 171.792C101.796 171.883 102.625 172.097 103.184 171.986C103.743 171.875 104.033 171.439 104.797 168.021C105.561 164.603 106.8 158.204 107.399 154.852C107.999 151.5 107.96 151.195 107.384 151.027C106.809 150.859 105.697 150.827 105.84 149.626Z" fill="white"/>
<path fill-rule="evenodd" clip-rule="evenodd" d="M115.63 151.243C116.148 149.972 117.328 147.546 118.378 145.375C119.428 143.205 120.347 141.292 120.888 140.459C121.429 139.626 121.591 139.874 121.574 143.612C121.558 147.35 121.362 154.579 120.955 160.211C120.548 165.842 119.929 169.877 119.618 171.997C119.307 174.117 119.303 174.323 119.394 174.491C119.484 174.659 119.67 174.79 120.102 174.867C120.534 174.944 121.212 174.967 121.512 175.131C121.812 175.294 121.734 175.598 121.645 176.435C121.557 177.272 121.459 178.641 121.172 179.205C120.883 179.769 120.405 179.528 118.89 179.368C117.374 179.208 114.821 179.129 113.635 178.837C112.45 178.546 112.631 178.043 112.767 177.243C112.902 176.443 112.992 175.346 113.081 174.755C113.17 174.164 113.257 174.079 113.588 174.071C113.918 174.063 114.491 174.132 114.902 173.944C115.313 173.755 115.562 173.308 116.039 169.817C116.516 166.325 117.221 159.788 117.542 156.364C117.864 152.94 117.801 152.629 117.38 152.545C116.959 152.461 116.18 152.603 115.718 152.617C115.257 152.63 115.112 152.514 115.63 151.243Z" fill="white"/>
<path d="M111.766 165.484C112.815 165.416 113.596 164.285 113.51 162.957C113.425 161.63 112.505 160.608 111.456 160.676C110.407 160.743 109.626 161.874 109.711 163.202C109.797 164.53 110.717 165.551 111.766 165.484Z" fill="white"/>
<path d="M101.83 163.468C102.811 163.845 103.993 163.143 104.47 161.901C104.947 160.659 104.538 159.347 103.556 158.97C102.575 158.593 101.393 159.295 100.916 160.537C100.439 161.779 100.848 163.092 101.83 163.468Z" fill="white"/>
<path fill-rule="evenodd" clip-rule="evenodd" d="M59.9098 149.473C58.7454 148.248 57.8321 146.642 57.2917 144.928C56.5978 142.727 56.5185 140.348 57.3908 137.79C58.2632 135.232 60.0873 132.496 63.6168 130.493C65.5571 129.392 68.5161 128.315 71.7661 127.539C70.4527 128.799 69.2126 130.161 68.0571 131.621C66.7793 132.349 66.3153 133.221 66.2618 134.074C66.2417 134.392 66.2789 134.709 66.3527 135.014C66.6303 136.164 67.4233 137.155 68.3355 137.988C69.2477 138.821 70.2785 139.495 70.9526 140.348C71.6269 141.2 71.9441 142.231 71.845 142.985C71.7458 143.738 71.2302 144.214 70.6156 144.491C70.0009 144.769 69.2872 144.848 68.4544 144.293C67.6216 143.738 66.6701 142.548 66.0553 141.478C65.4406 140.407 65.1632 139.455 64.8658 140.09C64.5682 140.724 64.2511 142.945 64.5882 144.135C64.9252 145.324 65.9167 145.483 66.9277 146.117C67.9387 146.752 68.9698 147.862 69.8226 148.973C70.675 150.083 71.3493 151.193 71.0717 151.709C70.7941 152.224 69.5648 152.145 67.939 151.847C66.3132 151.55 62.6252 151.689 60.9596 150.42C60.5913 150.139 60.2404 149.822 59.9098 149.473Z" fill="#3B636B"/>
<path d="M33.3206 68.3197L32.4329 68.1707C32.2642 67.189 32.0205 66.3936 31.7018 65.7847C30.6188 65.7632 29.5379 65.7808 28.459 65.8373C27.5361 65.8857 26.1668 65.9965 24.3511 66.1699C24.2874 66.447 24.1876 67.4037 24.0518 69.0401L23.2093 69.006C22.8764 67.6288 22.6838 66.4398 22.6313 65.4389C22.6286 65.3869 22.6238 65.2959 22.617 65.1659C22.6232 65.0352 22.6246 64.9374 22.6212 64.8724C22.6342 64.8717 22.8487 64.8605 23.2646 64.8387C23.6799 64.8039 23.894 64.7861 23.907 64.7855C24.2089 64.0788 24.443 63.3236 24.6095 62.5198C24.7882 61.7023 24.8927 60.8365 24.923 59.9225C24.9526 58.9955 24.9624 58.1869 24.9523 57.4966C24.9415 56.7933 24.9078 55.9022 24.8513 54.8234C24.7948 53.7445 24.759 52.9382 24.7441 52.4046C25.6506 52.2919 27.6767 52.1531 30.8223 51.9883L31.892 64.191C32.1013 64.2061 32.3168 64.2144 32.5385 64.2158C32.7602 64.2172 32.9753 64.219 33.184 64.2211C33.1593 64.4961 33.1575 64.8351 33.1786 65.238C33.1895 65.446 33.213 65.7706 33.2492 66.2119C33.286 66.6662 33.3103 67.0038 33.3218 67.2248C33.345 67.6667 33.3446 68.0317 33.3206 68.3197ZM25.4607 64.5867C25.8117 64.5683 26.3388 64.5537 27.0421 64.5429C27.7447 64.5192 28.265 64.4984 28.603 64.4807C29.0969 64.4548 29.6093 64.4084 30.1402 64.3415C30.1233 63.5212 30.0692 62.2402 29.9779 60.4983L29.7746 56.6182C29.6935 55.0714 29.6462 53.9203 29.6327 53.1651C29.2674 53.1581 28.9937 53.1594 28.8118 53.169C28.5128 53.1846 28.0784 53.227 27.5085 53.2959C26.9516 53.3642 26.576 53.41 26.3817 53.4332C26.3733 54.0202 26.3762 54.9455 26.3903 56.2091C26.4037 57.4597 26.4024 58.4308 26.3866 59.1224C26.3707 59.8141 26.2856 60.6788 26.1315 61.7166C25.9896 62.7407 25.7661 63.6974 25.4607 64.5867ZM34.3609 55.7131L35.268 55.8611C35.4278 56.9215 35.6067 58.5936 35.8046 60.8773C36.0018 63.148 36.1277 64.5556 36.1823 65.1002C36.0865 65.5092 35.8695 65.7226 35.5316 65.7404C35.2976 65.7526 35.0653 65.6736 34.8348 65.5032C34.6166 65.3191 34.4744 65.0919 34.4081 64.8217C34.4062 64.2874 34.3856 62.9003 34.3464 60.6604C34.3066 58.4076 34.3114 56.7585 34.3609 55.7131ZM34.4509 52.2087C34.8019 52.1903 35.1025 52.331 35.3529 52.6307C35.6025 52.9174 35.7375 53.2557 35.758 53.6457C35.773 53.9316 35.7137 54.1694 35.5803 54.3588C35.4592 54.5346 35.2816 54.6286 35.0476 54.6409C34.6837 54.66 34.3899 54.5255 34.1662 54.2374C33.9426 53.9493 33.8202 53.6038 33.7991 53.2009C33.7841 52.9149 33.8307 52.6844 33.9388 52.5093C34.0592 52.3205 34.2299 52.2203 34.4509 52.2087ZM38.8843 60.6963L38.749 59.6085C38.788 59.6065 38.8469 59.6099 38.9255 59.6188C39.0165 59.6141 39.0815 59.6107 39.1205 59.6086C40.4334 59.5398 41.0598 58.9335 40.9999 57.7896C40.8045 56.7962 40.2258 56.3247 39.2639 56.3751C38.8999 56.3942 38.3724 56.5261 37.6814 56.7709L37.3008 56.2238C37.8202 55.6882 38.5868 55.3939 39.6007 55.3408C40.3156 55.3033 40.9231 55.4539 41.4231 55.7927C41.9232 56.1315 42.1916 56.6518 42.2283 57.3537C42.2508 57.7827 42.1885 58.2096 42.0413 58.6344C41.8934 59.0462 41.6885 59.3632 41.4264 59.5855C41.9258 59.6636 42.327 59.9815 42.6299 60.5391C42.9452 61.0831 43.1212 61.706 43.158 62.408C43.2057 63.3179 42.9548 64.1261 42.4052 64.8327C41.8557 65.5393 41.1195 65.9167 40.1966 65.9651C39.7417 65.989 39.1889 65.8876 38.5383 65.661C37.8878 65.4344 37.5523 65.1261 37.5319 64.7362C37.5175 64.4632 37.6859 64.3175 38.0368 64.2991C38.2708 64.2869 38.5821 64.3813 38.9706 64.5826C39.3585 64.7708 39.6759 64.8584 39.9229 64.8455C40.4688 64.8169 40.9372 64.5512 41.3279 64.0484C41.7187 63.5457 41.8987 63.0018 41.868 62.4169C41.8354 61.793 41.5898 61.3366 41.1315 61.0478C40.6856 60.7453 40.1246 60.6118 39.4487 60.6472C39.1887 60.6608 39.0006 60.6772 38.8843 60.6963ZM50.2199 55.0189L51.1075 55.1679L52.0515 64.6009C51.955 64.997 51.7377 65.2039 51.3998 65.2216C51.1658 65.2338 50.9332 65.1483 50.702 64.9649C50.4715 64.7945 50.3231 64.5741 50.2568 64.3039C50.2547 64.2649 50.2557 63.1634 50.2596 60.9995L50.2514 60.8436C49.8861 60.8366 49.346 60.8519 48.631 60.8894C47.5521 60.9459 46.738 60.956 46.1887 60.9196C46.2932 61.6701 46.4414 62.8811 46.6332 64.5525C46.5374 64.9615 46.3204 65.1749 45.9825 65.1927C45.7485 65.2049 45.5163 65.1258 45.2857 64.9554C45.0675 64.7714 44.9253 64.5442 44.859 64.274C44.8639 63.622 44.8494 62.971 44.8153 62.3211C44.7935 61.9051 44.7543 61.2815 44.6977 60.4503C44.6411 59.6191 44.6023 59.002 44.5811 58.599C44.5157 57.3512 44.4999 56.3027 44.5336 55.4537L45.4223 55.6222C45.8301 58.4293 46.0425 59.8715 46.0596 59.9488C48.2885 59.9493 49.4354 59.9478 49.5004 59.9444C50.0334 59.9165 50.2981 59.87 50.2947 59.8051C50.2811 59.5451 50.2638 58.7183 50.243 57.3247C50.2221 55.9311 50.2144 55.1625 50.2199 55.0189ZM53.9036 56.2922L53.4616 55.3182C53.7818 54.9625 54.1968 54.6736 54.7065 54.4513C55.2156 54.2161 55.7236 54.0852 56.2305 54.0587C58.4273 53.9435 59.6251 55.7838 59.824 59.5794C59.8513 60.0993 59.859 60.8679 59.8471 61.8852C59.8483 62.9019 59.8621 63.6636 59.8887 64.1706C59.8058 64.579 59.6149 64.791 59.3159 64.8067C59.082 64.819 58.8614 64.7132 58.6541 64.4895C58.4469 64.2657 58.3358 64.0108 58.3208 63.7249C58.316 63.6339 58.3191 63.5685 58.33 63.5289C57.565 64.351 56.7275 64.7859 55.8176 64.8336C55.1287 64.8697 54.5113 64.6544 53.9655 64.1877C53.432 63.7074 53.1465 63.1097 53.109 62.3948C53.0457 61.1859 53.4564 60.0695 54.3412 59.0455C55.239 58.0209 56.2858 57.4773 57.4817 57.4146C57.5337 57.4119 57.5861 57.4156 57.6387 57.4259C57.6907 57.4232 57.7496 57.4266 57.8152 57.4362C57.8939 57.4451 57.9527 57.4486 57.9917 57.4465C57.808 55.9311 57.1638 55.2024 56.0589 55.2603C55.4089 55.2944 54.6905 55.6383 53.9036 56.2922ZM58.2985 62.1815C58.2768 61.2702 58.2537 60.5806 58.2292 60.1126C58.2088 59.7227 58.1672 59.1774 58.1044 58.4768L57.9484 58.485C57.0262 58.5464 56.1993 58.9351 55.4678 59.6513C54.7493 60.3667 54.4153 61.2054 54.4657 62.1673C54.4875 62.5832 54.6284 62.9082 54.8883 63.1422C55.1612 63.3756 55.4796 63.4827 55.8436 63.4637C56.4155 63.4337 57.2338 63.0063 58.2985 62.1815ZM62.7955 52.1114L62.6274 51.5141C62.9414 51.5367 63.2479 51.5402 63.5468 51.5246C64.4437 51.4775 65.2562 51.1873 65.9842 50.6539C66.2846 50.6642 66.5428 50.7419 66.759 50.887C66.9751 51.0321 67.0887 51.2086 67.0996 51.4166C67.1084 51.5856 67.0571 51.7251 66.9455 51.8352C66.834 51.9453 66.6626 52.0325 66.4313 52.0968C66.1994 52.148 66.0058 52.1843 65.8505 52.2054C65.6945 52.2136 65.4865 52.2245 65.2266 52.2381C64.3816 52.2824 63.5713 52.2402 62.7955 52.1114ZM63.2878 62.6238C63.2994 62.8448 63.3277 63.1366 63.3728 63.4992C63.2769 63.9083 63.06 64.1217 62.722 64.1394C62.4881 64.1517 62.2558 64.0726 62.0253 63.9022C61.8071 63.7181 61.6649 63.491 61.5986 63.2207C61.5824 62.1658 61.5471 60.6231 61.4929 58.5925C61.4516 56.5613 61.4252 55.1876 61.4137 54.4713L62.3025 54.2683C62.5021 55.0921 62.6574 56.1918 62.7687 57.5677C62.8799 58.9435 62.9857 59.9676 63.0861 60.6402C63.314 60.2633 63.9662 59.2776 65.0427 57.6831C66.1192 56.0886 66.8456 54.9035 67.2221 54.1278C67.5053 54.0608 67.686 54.0253 67.7639 54.0212C68.0109 54.0083 68.1857 54.1099 68.2883 54.3261C68.4038 54.5416 68.4906 54.9542 68.5486 55.5638L69.3401 63.5775C69.2436 63.9736 69.0263 64.1805 68.6883 64.1982C68.4544 64.2105 68.2221 64.1314 67.9916 63.961C67.7734 63.7769 67.6311 63.5498 67.5648 63.2795C67.5554 62.8499 67.533 61.8018 67.4978 60.1352C67.4749 58.455 67.4646 57.2629 67.4668 56.5589C65.3769 59.2101 63.9839 61.2318 63.2878 62.6238ZM69.8644 54.9278L69.6439 54.0791C71.3803 53.8838 74.1155 53.5971 77.8496 53.2189C78.1622 53.2156 78.4348 53.3186 78.6674 53.528C78.9 53.7374 79.0227 53.9656 79.0356 54.2125C79.0561 54.6025 78.8077 54.8371 78.2905 54.9163L74.6352 54.9319C74.7512 55.9034 74.8583 57.3251 74.9564 59.1969C75.0668 61.055 75.164 62.412 75.248 63.2679C75.1508 63.651 74.9332 63.8514 74.5952 63.8691C74.3742 63.8807 74.155 63.8009 73.9375 63.6298C73.7199 63.4588 73.5784 63.2446 73.5127 62.9873C73.5271 59.7801 73.575 57.086 73.6562 54.9051L69.8644 54.9278ZM87.373 61.0879L87.6129 61.9356C87.0519 62.1735 86.2127 62.4521 85.0955 62.7713C83.9905 63.0769 83.1651 63.244 82.6192 63.2726C82.0602 63.3019 81.5632 63.1455 81.1282 62.8033C80.6925 62.4481 80.3557 61.99 80.1177 61.429C79.8791 60.855 79.6931 60.2912 79.5598 59.7377C79.4389 59.1705 79.3641 58.614 79.3355 58.068C79.1652 54.8184 80.5488 53.1166 83.4865 52.9626C84.1885 52.9258 84.8178 53.1209 85.3746 53.548C85.9307 53.962 86.2275 54.5265 86.265 55.2414C86.2854 55.6313 86.193 55.9816 85.9877 56.2921C85.7954 56.602 85.548 56.8561 85.2456 57.0544C84.9554 57.2391 84.5737 57.4155 84.1002 57.5837C83.6397 57.7512 83.2292 57.877 82.8687 57.9611C82.5081 58.0451 82.0764 58.1394 81.5736 58.244C81.0707 58.3486 80.7228 58.4255 80.5299 58.4747C80.5626 58.8509 80.5995 59.1814 80.6405 59.466C80.6945 59.7499 80.7758 60.0585 80.8845 60.3917C81.0055 60.7112 81.1498 60.9774 81.3174 61.1902C81.4973 61.3893 81.7339 61.5528 82.0274 61.6808C82.3209 61.8088 82.6626 61.8626 83.0525 61.8422C83.5205 61.8177 84.0904 61.7487 84.7622 61.6353C85.4334 61.5089 86.0265 61.3865 86.5417 61.2683C87.0699 61.1494 87.347 61.0892 87.373 61.0879ZM80.5445 57.2617C82.2857 56.6621 83.7072 56.0532 84.8088 55.435C84.6953 55.0108 84.5554 54.7053 84.3892 54.5185C84.223 54.3317 83.984 54.2465 83.672 54.2628C82.8791 54.3044 82.172 54.6152 81.5506 55.1952C80.9423 55.7745 80.6069 56.4633 80.5445 57.2617ZM94.511 52.9127L94.4574 53.7562C93.9074 53.7069 93.4374 53.6924 93.0475 53.7128C92.1505 53.7598 91.4239 54.0716 90.8676 54.6482C90.3106 55.2118 89.941 55.8699 89.7589 56.6224C89.589 57.3612 89.5276 58.1791 89.5746 59.076C89.5964 59.4919 89.6418 59.861 89.7109 60.1833C89.7799 60.5055 89.8876 60.8192 90.0339 61.1244C90.1932 61.4289 90.4207 61.6646 90.7162 61.8316C91.024 61.9849 91.3924 62.0503 91.8213 62.0278C92.3933 61.9979 93.1154 61.8492 93.9877 61.5819C94.2553 61.4636 94.467 61.4004 94.623 61.3922C94.935 61.3759 95.1425 61.7299 95.2457 62.4545C94.1209 62.8784 93.071 63.1159 92.0961 63.167C90.6793 63.2412 89.6993 62.9472 89.1563 62.2848C88.6255 61.6088 88.3193 60.4908 88.2375 58.931C88.1898 58.0211 88.2068 57.2251 88.2883 56.543C88.3822 55.8473 88.5698 55.1988 88.8511 54.5975C89.1318 53.9832 89.5564 53.5048 90.125 53.1621C90.7066 52.8188 91.4263 52.6247 92.2842 52.5797C93.2461 52.5293 93.9884 52.6403 94.511 52.9127ZM95.7866 52.6308L96.6742 52.7798C96.722 53.1944 96.7866 53.6798 96.8679 54.236C96.9621 54.7916 97.067 55.4247 97.1825 56.1356C97.6942 55.9523 98.1841 55.8485 98.6521 55.8239C99.211 55.7947 99.7367 55.8779 100.229 56.0737C100.721 56.2564 101.145 56.5144 101.502 56.8477C101.858 57.1809 102.146 57.5699 102.364 58.0147C102.582 58.4464 102.704 58.8963 102.728 59.3642C102.752 59.8192 102.677 60.2402 102.501 60.6274C102.326 61.0146 102.083 61.3532 101.772 61.6432C101.461 61.9202 101.095 62.1414 100.673 62.3069C100.252 62.4853 99.8016 62.5872 99.3207 62.6124C99.2297 62.6172 99.0278 62.6212 98.7152 62.6246C98.4025 62.6279 98.0694 62.6128 97.7157 62.5792C97.3757 62.5579 97.0671 62.5154 96.7901 62.4517C96.513 62.388 96.3643 62.2851 96.3438 62.1427C96.3322 61.9218 96.31 61.6231 96.2773 61.2469C96.2568 60.8569 96.2278 60.4283 96.1903 59.961C96.1658 59.4931 96.1337 59.006 96.0942 58.4997C96.0539 57.9804 96.0147 57.4807 95.9765 57.0004C95.9513 56.5194 95.9216 56.0778 95.8875 55.6756C95.8664 55.2726 95.8497 54.9541 95.8374 54.7202C95.7993 53.9922 95.7824 53.2958 95.7866 52.6308ZM97.4213 57.3353L97.4512 61.2635C97.9807 61.4183 98.4794 61.4834 98.9474 61.4589C99.3113 61.4398 99.6397 61.3639 99.9326 61.2313C100.238 61.0849 100.489 60.9088 100.687 60.7029C100.884 60.4841 101.034 60.2416 101.138 59.9755C101.241 59.7094 101.285 59.4333 101.27 59.1474C101.255 58.8614 101.183 58.598 101.053 58.3571C100.922 58.1033 100.735 57.885 100.491 57.7023C100.246 57.5196 99.9526 57.3851 99.6092 57.2988C99.2651 57.1995 98.8786 57.1611 98.4496 57.1836C98.3066 57.1911 98.1513 57.2123 97.9837 57.2471C97.8154 57.269 97.6279 57.2984 97.4213 57.3353ZM114.953 51.6263L115.841 51.7753L116.785 61.2083C116.688 61.6044 116.471 61.8113 116.133 61.829C115.899 61.8413 115.666 61.7557 115.435 61.5723C115.205 61.4019 115.056 61.1816 114.99 60.9114C114.988 60.8724 114.989 59.7709 114.993 57.607L114.985 57.451C114.619 57.4441 114.079 57.4594 113.364 57.4968C112.285 57.5534 111.471 57.5635 110.922 57.5271C111.026 58.2776 111.175 59.4886 111.366 61.1599C111.271 61.569 111.054 61.7824 110.716 61.8001C110.482 61.8124 110.25 61.7333 110.019 61.5629C109.801 61.3788 109.659 61.1517 109.592 60.8814C109.597 60.2295 109.583 59.5785 109.549 58.9286C109.527 58.5126 109.488 57.889 109.431 57.0578C109.374 56.2266 109.336 55.6095 109.314 55.2065C109.249 53.9586 109.233 52.9102 109.267 52.0612L110.156 52.2297C110.563 55.0368 110.776 56.479 110.793 56.5563C113.022 56.5568 114.169 56.5553 114.234 56.5519C114.767 56.524 115.031 56.4775 115.028 56.4125C115.014 56.1526 114.997 55.3258 114.976 53.9322C114.955 52.5386 114.948 51.77 114.953 51.6263ZM118.637 52.8996L118.195 51.9257C118.515 51.57 118.93 51.2811 119.44 51.0588C119.949 50.8236 120.457 50.6927 120.964 50.6661C123.161 50.551 124.358 52.3912 124.557 56.1868C124.585 56.7068 124.592 57.4754 124.58 58.4927C124.582 59.5093 124.595 60.2711 124.622 60.7781C124.539 61.1865 124.348 61.3985 124.049 61.4142C123.815 61.4264 123.595 61.3207 123.387 61.0969C123.18 60.8732 123.069 60.6183 123.054 60.3323C123.049 60.2414 123.052 60.176 123.063 60.1363C122.298 60.9585 121.461 61.3934 120.551 61.4411C119.862 61.4772 119.245 61.2619 118.699 60.7952C118.165 60.3148 117.88 59.7172 117.842 59.0023C117.779 57.7934 118.19 56.677 119.074 55.653C119.972 54.6284 121.019 54.0847 122.215 54.0221C122.267 54.0193 122.319 54.0231 122.372 54.0334C122.424 54.0307 122.483 54.0341 122.548 54.0437C122.627 54.0526 122.686 54.056 122.725 54.054C122.541 52.5386 121.897 51.8099 120.792 51.8678C120.142 51.9018 119.424 52.2458 118.637 52.8996ZM123.032 58.7889C123.01 57.8777 122.987 57.1881 122.962 56.7201C122.942 56.3301 122.9 55.7849 122.838 55.0843L122.682 55.0925C121.759 55.1539 120.933 55.5426 120.201 56.2587C119.483 56.9742 119.149 57.8128 119.199 58.7747C119.221 59.1907 119.362 59.5157 119.622 59.7497C119.894 59.9831 120.213 60.0902 120.577 60.0711C121.149 60.0412 121.967 59.6138 123.032 58.7889ZM132.548 50.4696L133.389 60.9247C133.279 61.3215 133.068 61.528 132.756 61.5444C132.535 61.556 132.31 61.4766 132.079 61.3062C131.862 61.1351 131.72 60.9209 131.654 60.6637L131.628 56.4224C131.1 56.802 130.544 57.0136 129.96 57.0572C129.551 58.708 128.99 59.93 128.275 60.7235C127.574 61.5162 126.416 62.183 124.802 62.7238L124.446 61.9017C126.845 61.1634 128.145 59.4855 128.347 56.8681C127.709 56.6408 127.169 56.2716 126.725 55.7604C126.294 55.2486 126.06 54.6482 126.024 53.9593C125.952 52.5814 126.255 51.6466 126.933 51.1549C127.611 50.6632 128.711 50.3774 130.231 50.2977C131.024 50.2562 131.796 50.3135 132.548 50.4696ZM131.698 54.7764L131.439 51.7008C130.976 51.5817 130.303 51.5453 129.419 51.5916C128.795 51.6243 128.27 51.7952 127.843 52.1043C127.415 52.4005 127.218 52.8605 127.251 53.4844C127.287 54.1864 127.599 54.7762 128.184 55.2538C128.769 55.7185 129.393 55.9334 130.056 55.8987C130.836 55.8578 131.383 55.4837 131.698 54.7764ZM134.874 50.465C136.866 49.9305 138.083 49.6516 138.525 49.6285C140.267 49.5372 141.177 50.239 141.256 51.7338C141.283 52.2537 141.218 52.7655 141.062 53.2689C140.918 53.7587 140.721 54.0885 140.469 54.2581C141.519 54.8939 142.076 55.8162 142.139 57.0251C142.199 58.1689 141.869 59.0791 141.148 59.7556C140.44 60.4313 139.476 60.8012 138.254 60.8653C136.798 60.9415 135.692 60.6085 134.936 59.866L134.874 50.465ZM136.242 55.3008L136.625 59.2497C136.958 59.3886 137.332 59.4472 137.748 59.4254C138.554 59.3831 139.282 59.0908 139.931 58.5485C140.581 58.0061 140.888 57.397 140.852 56.721C140.828 56.2531 140.623 55.8337 140.239 55.4628C139.854 55.0789 139.382 54.9016 138.823 54.9309C138.498 54.9479 137.637 55.0712 136.242 55.3008ZM135.836 51.2944L136.13 54.2899C136.324 54.2537 136.622 54.2186 137.024 54.1844C137.426 54.1503 137.75 54.1073 137.995 54.0554C138.239 53.9904 138.507 53.8786 138.798 53.72C139.089 53.5483 139.309 53.2696 139.458 52.8838C139.621 52.4973 139.718 51.9968 139.751 51.3825C139.601 50.9994 139.194 50.8252 138.531 50.8599C138.232 50.8756 137.767 50.9456 137.134 51.07C136.502 51.1943 136.07 51.2691 135.836 51.2944ZM149.192 49.832L150.079 49.981L151.023 59.414C150.927 59.8101 150.709 60.017 150.371 60.0347C150.137 60.0469 149.905 59.9614 149.674 59.778C149.443 59.6076 149.295 59.3873 149.228 59.117C149.226 59.078 149.227 57.9766 149.231 55.8127L149.223 55.6567C148.858 55.6497 148.318 55.665 147.603 55.7025C146.524 55.759 145.71 55.7691 145.16 55.7327C145.265 56.4832 145.413 57.6942 145.605 59.3656C145.509 59.7747 145.292 59.9881 144.954 60.0058C144.72 60.018 144.488 59.939 144.257 59.7686C144.039 59.5845 143.897 59.3573 143.831 59.0871C143.836 58.4351 143.821 57.7841 143.787 57.1342C143.765 56.7183 143.726 56.0947 143.669 55.2634C143.613 54.4322 143.574 53.8151 143.553 53.4121C143.487 52.1643 143.472 51.1158 143.505 50.2668L144.394 50.4353C144.802 53.2424 145.014 54.6846 145.031 54.7619C147.26 54.7624 148.407 54.761 148.472 54.7576C149.005 54.7296 149.27 54.6832 149.266 54.6182C149.253 54.3582 149.236 53.5314 149.215 52.1378C149.194 50.7443 149.186 49.9756 149.192 49.832ZM152.519 49.5208L153.426 49.6687C153.586 50.7292 153.764 52.4012 153.962 54.6849C154.159 56.9556 154.285 58.3632 154.34 58.9078C154.244 59.3169 154.027 59.5303 153.689 59.548C153.455 59.5602 153.223 59.4812 152.993 59.3108C152.774 59.1267 152.632 58.8995 152.566 58.6293C152.564 58.095 152.543 56.7079 152.504 54.468C152.464 52.2152 152.469 50.5661 152.519 49.5208ZM152.609 46.0163C152.96 45.9979 153.26 46.1386 153.511 46.4383C153.76 46.725 153.895 47.0633 153.916 47.4533C153.931 47.7392 153.871 47.977 153.738 48.1664C153.617 48.3422 153.439 48.4363 153.205 48.4485C152.841 48.4676 152.548 48.3331 152.324 48.045C152.1 47.757 151.978 47.4115 151.957 47.0085C151.942 46.7225 151.988 46.492 152.096 46.3169C152.217 46.1281 152.388 46.0279 152.609 46.0163ZM162.208 49.3649L162.154 50.2084C161.604 50.159 161.134 50.1445 160.744 50.165C159.847 50.212 159.121 50.5238 158.565 51.1004C158.008 51.664 157.638 52.322 157.456 53.0745C157.286 53.8134 157.225 54.6312 157.272 55.5281C157.293 55.9441 157.339 56.3132 157.408 56.6354C157.477 56.9577 157.585 57.2714 157.731 57.5765C157.89 57.881 158.118 58.1167 158.413 58.2837C158.721 58.437 159.089 58.5025 159.518 58.48C160.09 58.45 160.812 58.3014 161.685 58.0341C161.952 57.9158 162.164 57.8525 162.32 57.8444C162.632 57.828 162.839 58.1821 162.943 58.9066C161.818 59.3305 160.768 59.568 159.793 59.6191C158.376 59.6934 157.396 59.3993 156.853 58.737C156.322 58.0609 156.016 56.943 155.934 55.3831C155.887 54.4732 155.904 53.6773 155.985 52.9952C156.079 52.2995 156.267 51.6509 156.548 51.0497C156.829 50.4354 157.253 49.9569 157.822 49.6143C158.403 49.271 159.123 49.0769 159.981 49.0319C160.943 48.9815 161.685 49.0925 162.208 49.3649ZM162.85 50.0546L162.63 49.2059C164.366 49.0106 167.101 48.7239 170.835 48.3457C171.148 48.3424 171.421 48.4454 171.653 48.6548C171.886 48.8642 172.009 49.0924 172.021 49.3394C172.042 49.7293 171.793 49.9639 171.276 50.0432L167.621 50.0588C167.737 51.0303 167.844 52.4519 167.942 54.3237C168.053 56.1818 168.15 57.5388 168.234 58.3947C168.137 58.7778 167.919 58.9782 167.581 58.9959C167.36 59.0075 167.141 58.9277 166.923 58.7567C166.706 58.5856 166.564 58.3714 166.499 58.1142C166.513 54.907 166.561 52.2129 166.642 50.0319L162.85 50.0546ZM172.843 48.5925L173.73 48.7415C173.778 49.1561 173.843 49.6415 173.924 50.1977C174.018 50.7532 174.123 51.3864 174.238 52.0972C174.75 51.914 175.24 51.8101 175.708 51.7856C176.267 51.7563 176.793 51.8396 177.285 52.0353C177.777 52.2181 178.201 52.4761 178.558 52.8094C178.914 53.1426 179.201 53.5316 179.42 53.9763C179.638 54.4081 179.76 54.8579 179.784 55.3259C179.808 55.7808 179.732 56.2019 179.557 56.5891C179.382 56.9763 179.139 57.3148 178.828 57.6048C178.517 57.8818 178.151 58.1031 177.729 58.2685C177.308 58.447 176.858 58.5488 176.377 58.5741C176.286 58.5788 176.084 58.5829 175.771 58.5862C175.458 58.5896 175.125 58.5745 174.772 58.5409C174.432 58.5196 174.123 58.4771 173.846 58.4134C173.569 58.3497 173.42 58.2467 173.4 58.1044C173.388 57.8834 173.366 57.5848 173.333 57.2085C173.313 56.8186 173.284 56.39 173.246 55.9227C173.222 55.4547 173.19 54.9676 173.15 54.4614C173.11 53.9421 173.071 53.4423 173.032 52.9621C173.007 52.4811 172.978 52.0395 172.943 51.6372C172.922 51.2343 172.906 50.9158 172.893 50.6818C172.855 49.9539 172.838 49.2574 172.843 48.5925ZM174.477 53.2969L174.507 57.2252C175.037 57.3799 175.535 57.445 176.003 57.4205C176.367 57.4015 176.696 57.3256 176.989 57.1929C177.294 57.0466 177.545 56.8705 177.743 56.6646C177.94 56.4457 178.09 56.2032 178.194 55.9371C178.297 55.671 178.341 55.395 178.326 55.109C178.311 54.8231 178.239 54.5596 178.109 54.3188C177.978 54.065 177.791 53.8467 177.547 53.664C177.302 53.4812 177.009 53.3467 176.665 53.2605C176.321 53.1612 175.935 53.1228 175.506 53.1453C175.363 53.1528 175.207 53.1739 175.04 53.2088C174.871 53.2307 174.684 53.26 174.477 53.2969ZM26.0758 89.0074L24.8312 88.3883C25.3158 87.4375 26.1662 85.6333 27.3825 82.9757C26.2805 82.095 25.4004 80.7204 24.742 78.8519C24.0836 76.9833 23.6461 75.1033 23.4297 73.2116L24.5636 73.2108C24.645 73.5194 24.8189 74.2271 25.0855 75.3341C25.3644 76.4274 25.5828 77.2371 25.7407 77.7633C25.8986 78.2894 26.1612 78.9469 26.5284 79.7358C26.9079 80.511 27.3264 81.1603 27.784 81.6838C29.4089 78.1185 30.1632 75.2244 30.0467 73.0017L30.0354 72.7872C30.7168 72.8558 31.2302 72.9527 31.5757 73.0779C31.4392 74.4537 31.1872 75.8616 30.8195 77.3016C30.4518 78.7416 29.9742 80.2004 29.3869 81.678C28.7989 83.1426 28.2705 84.376 27.8017 85.3781C27.3458 86.3796 26.7705 87.5893 26.0758 89.0074ZM38.44 82.0638L37.8181 68.3322C37.9358 67.8437 38.4822 67.5739 39.4571 67.5228C40.354 67.4758 41.1859 67.5561 41.9527 67.7635C42.7189 67.958 43.3705 68.3279 43.9074 68.8733C44.4566 69.405 44.752 70.0673 44.7936 70.8602C44.8263 71.4841 44.702 72.0967 44.4207 72.698C44.1524 73.2986 43.8016 73.695 43.3686 73.8872C44.2066 73.9606 44.9023 74.4259 45.4555 75.2833C46.0088 76.1406 46.3171 77.1737 46.3805 78.3826C46.4234 79.2015 46.1359 79.9334 45.518 80.5784C44.8994 81.2104 44.1618 81.6858 43.3052 82.0044C42.4609 82.3093 41.5968 82.4849 40.7129 82.5313C39.634 82.5878 38.8763 82.432 38.44 82.0638ZM39.6811 75.1557C39.7281 76.0527 39.8095 77.8536 39.9252 80.5587C40.3383 80.9802 40.8503 81.175 41.4613 81.143C42.2672 81.1007 43.0297 80.7284 43.7489 80.026C44.4674 79.3105 44.8066 78.5693 44.7664 77.8024C44.7167 76.8535 44.3594 76.1293 43.6945 75.6297C43.0296 75.1302 42.1967 74.9066 41.1959 74.9591C40.5329 74.9938 40.028 75.0594 39.6811 75.1557ZM39.5665 73.7149L40.7744 73.6321C41.6063 73.5885 42.2306 73.3146 42.6474 72.8105C43.0764 72.2927 43.2733 71.6959 43.2378 71.0199C43.2017 70.331 42.9433 69.7515 42.4624 69.2814C41.9809 68.7983 41.3372 68.5779 40.5313 68.6201C40.1673 68.6392 39.7424 68.7396 39.2567 68.9215C39.3242 69.7131 39.3886 70.6938 39.45 71.8637C39.5243 73.0329 39.5631 73.6499 39.5665 73.7149ZM48.4175 73.603L47.9754 72.6291C48.2957 72.2734 48.7107 71.9844 49.2204 71.7622C49.7294 71.527 50.2374 71.3961 50.7444 71.3695C52.9412 71.2544 54.139 73.0946 54.3379 76.8902C54.3652 77.4102 54.3729 78.1788 54.361 79.1961C54.3622 80.2127 54.376 80.9745 54.4026 81.4814C54.3197 81.8898 54.1288 82.1019 53.8298 82.1175C53.5958 82.1298 53.3752 82.0241 53.168 81.8003C52.9607 81.5765 52.8496 81.3217 52.8346 81.0357C52.8299 80.9447 52.833 80.8794 52.8439 80.8397C52.0789 81.6619 51.2414 82.0968 50.3315 82.1445C49.6426 82.1806 49.0252 81.9653 48.4794 81.4986C47.9458 81.0182 47.6604 80.4205 47.6229 79.7056C47.5595 78.4968 47.9703 77.3803 48.8551 76.3564C49.7529 75.3318 50.7997 74.7881 51.9956 74.7254C52.0476 74.7227 52.0999 74.7265 52.1526 74.7368C52.2046 74.734 52.2634 74.7375 52.3291 74.7471C52.4078 74.756 52.4666 74.7594 52.5056 74.7574C52.3219 73.242 51.6776 72.5132 50.5727 72.5711C49.9228 72.6052 49.2044 72.9492 48.4175 73.603ZM52.8124 79.4923C52.7907 78.581 52.7676 77.8914 52.7431 77.4235C52.7227 77.0335 52.681 76.4883 52.6183 75.7877L52.4623 75.7959C51.5401 75.8572 50.7132 76.246 49.9817 76.9621C49.2632 77.6775 48.9292 78.5162 48.9796 79.4781C49.0014 79.8941 49.1422 80.2191 49.4021 80.4531C49.6751 80.6864 49.9935 80.7936 50.3575 80.7745C50.9294 80.7445 51.7477 80.3171 52.8124 79.4923ZM64.5889 71.035L65.4765 71.184C65.5611 72.0528 65.6917 74.1706 65.8681 77.5372C65.956 79.2141 66.0392 80.4284 66.1177 81.1803C65.1312 81.2581 63.845 81.3385 62.2592 81.4216C59.1915 81.5824 57.162 81.6562 56.1707 81.6429C56.1708 80.9 56.1302 79.2533 56.0486 76.7028C55.9664 74.1393 55.9415 72.2963 55.9739 71.1736L56.8626 71.3421C57.0108 72.4292 57.1698 74.0958 57.3397 76.3419C57.5095 78.5879 57.6125 79.9316 57.6487 80.3728C57.9333 80.3319 58.4461 80.2919 59.187 80.2531C59.9402 80.2006 60.427 80.1621 60.6473 80.1375C60.6494 79.6812 60.625 78.9656 60.5739 77.9907C60.5541 77.6137 60.5173 77.0356 60.4634 76.2564C60.4226 75.4764 60.3919 74.8915 60.3715 74.5015C60.3047 73.2277 60.2916 72.1074 60.3322 71.1407L61.2198 71.2897C61.3523 72.3255 61.4963 73.9538 61.6518 76.1745C61.8203 78.3946 61.9195 79.6667 61.9496 79.991C63.2754 79.9215 64.2045 79.8663 64.7367 79.8254C64.7349 79.0434 64.7064 77.6307 64.6515 75.5872C64.6095 73.543 64.5887 72.0256 64.5889 71.035ZM67.5977 70.9946L68.5048 71.1426C68.6647 72.203 68.8435 73.8751 69.0414 76.1587C69.2386 78.4294 69.3645 79.837 69.4192 80.3816C69.3233 80.7907 69.1064 81.0041 68.7684 81.0218C68.5344 81.0341 68.3022 80.955 68.0717 80.7846C67.8535 80.6005 67.7112 80.3734 67.6449 80.1031C67.643 79.5688 67.6224 78.1817 67.5833 75.9419C67.5434 73.689 67.5482 72.0399 67.5977 70.9946ZM67.6878 67.4902C68.0387 67.4718 68.3394 67.6124 68.5897 67.9121C68.8393 68.1988 68.9744 68.5372 68.9948 68.9271C69.0098 69.2131 68.9506 69.4508 68.8171 69.6403C68.696 69.8161 68.5184 69.9101 68.2845 69.9224C67.9205 69.9414 67.6267 69.8069 67.4031 69.5189C67.1794 69.2308 67.057 68.8853 67.0359 68.4823C67.0209 68.1964 67.0675 67.9658 67.1756 67.7907C67.2961 67.6019 67.4668 67.5017 67.6878 67.4902ZM72.3618 68.6334L72.1937 68.0361C72.5077 68.0587 72.8142 68.0622 73.1131 68.0465C74.01 67.9995 74.8225 67.7093 75.5505 67.1758C75.8509 67.1862 76.1091 67.2639 76.3253 67.409C76.5414 67.554 76.655 67.7306 76.6659 67.9386C76.6747 68.1075 76.6234 68.2471 76.5118 68.3572C76.4003 68.4673 76.2289 68.5545 75.9976 68.6188C75.7657 68.67 75.5721 68.7062 75.4168 68.7274C75.2608 68.7356 75.0528 68.7465 74.7929 68.7601C73.9479 68.8044 73.1376 68.7621 72.3618 68.6334ZM72.8541 79.1458C72.8657 79.3668 72.894 79.6586 72.9391 80.0212C72.8432 80.4303 72.6263 80.6437 72.2883 80.6614C72.0544 80.6736 71.8221 80.5946 71.5916 80.4242C71.3734 80.2401 71.2312 80.0129 71.1649 79.7427C71.1487 78.6878 71.1134 77.145 71.0592 75.1145C71.0179 73.0833 70.9915 71.7096 70.98 70.9933L71.8688 70.7903C72.0684 71.614 72.2238 72.7138 72.335 74.0896C72.4462 75.4654 72.552 76.4896 72.6524 77.1621C72.8803 76.7852 73.5325 75.7995 74.609 74.2051C75.6855 72.6106 76.4119 71.4255 76.7884 70.6498C77.0716 70.5828 77.2523 70.5473 77.3302 70.5432C77.5772 70.5302 77.752 70.6319 77.8546 70.8481C77.9701 71.0636 78.0569 71.4762 78.1149 72.0857L78.9064 80.0995C78.8099 80.4956 78.5926 80.7025 78.2546 80.7202C78.0207 80.7324 77.7884 80.6534 77.5579 80.483C77.3397 80.2989 77.1975 80.0717 77.1312 79.8015C77.1217 79.3719 77.0993 78.3238 77.0641 76.6572C77.0412 74.977 77.0309 73.7849 77.0331 73.0809C74.9432 75.7321 73.5502 77.7538 72.8541 79.1458ZM89.1028 65.7422L90.5898 65.762C91.0382 67.3548 91.9052 69.5969 93.1907 72.4883C94.4756 75.3667 95.3381 77.5243 95.7784 78.9611C95.7981 79.3381 95.7478 79.6209 95.6273 79.8097C95.5076 80.0115 95.3502 80.1175 95.1552 80.1277C94.9862 80.1366 94.82 80.0736 94.6565 79.9388C94.5067 79.8163 94.3993 79.6329 94.3344 79.3887C94.1874 78.8229 93.7505 77.6988 93.0237 76.0163C90.3282 75.8187 88.634 75.6989 87.941 75.657C87.7965 76.1338 87.6284 76.9052 87.4366 77.971C87.2448 79.0368 87.088 79.775 86.9661 80.1854C86.7834 80.4296 86.5686 80.5582 86.3216 80.5711C86.0486 80.5854 85.8082 80.4742 85.6003 80.2375C85.393 80.0137 85.2802 79.7263 85.2618 79.3754C85.5981 77.8327 86.2348 75.5575 87.1721 72.5495C88.1093 69.5416 88.7529 67.2725 89.1028 65.7422ZM89.8885 67.6757C89.7109 69.2622 89.1104 71.6072 88.0869 74.7109L90.2707 74.5965C91.2586 74.5447 92.0857 74.5339 92.7521 74.5642C91.2626 71.7617 90.3081 69.4655 89.8885 67.6757ZM96.2155 69.7685L102.789 69.4827L103.733 78.9157C103.637 79.3118 103.42 79.5187 103.082 79.5364C102.848 79.5486 102.615 79.4631 102.384 79.2797C102.153 79.1093 102.005 78.8889 101.939 78.6187C101.939 78.384 101.92 77.6486 101.882 76.4124C101.855 75.1624 101.832 73.971 101.812 72.8381C101.791 71.6922 101.778 70.9499 101.773 70.6112C101.408 70.6043 100.868 70.6196 100.153 70.6571C99.1779 70.7081 98.3635 70.7117 97.7095 70.6678C97.7709 71.0947 97.876 72.4774 98.0246 74.8158C98.1725 77.1412 98.2694 78.4916 98.3151 78.8672C98.2193 79.2763 98.0024 79.4897 97.6644 79.5074C97.4304 79.5197 97.1982 79.4406 96.9677 79.2702C96.7495 79.0862 96.6072 78.859 96.5409 78.5888C96.5458 77.9368 96.5313 77.2858 96.4972 76.6359C96.4795 76.2979 96.4437 75.7393 96.3898 74.9601C96.336 74.1808 96.2971 73.5638 96.2733 73.1088C96.2031 71.7699 96.1838 70.6565 96.2155 69.7685ZM104.232 70.15L104.012 69.3013C105.748 69.106 108.483 68.8193 112.217 68.4411C112.53 68.4378 112.803 68.5408 113.035 68.7502C113.268 68.9596 113.39 69.1878 113.403 69.4347C113.424 69.8247 113.175 70.0593 112.658 70.1385L109.003 70.1541C109.119 71.1256 109.226 72.5473 109.324 74.4191C109.435 76.2772 109.532 77.6342 109.616 78.4901C109.518 78.8732 109.301 79.0736 108.963 79.0913C108.742 79.1029 108.523 79.0231 108.305 78.852C108.088 78.6809 107.946 78.4668 107.88 78.2095C107.895 75.0023 107.943 72.3082 108.024 70.1272L104.232 70.15ZM121.741 76.3101L121.981 77.1578C121.42 77.3957 120.58 77.6743 119.463 77.9935C118.358 78.2991 117.533 78.4662 116.987 78.4948C116.428 78.5241 115.931 78.3677 115.496 78.0255C115.06 77.6703 114.723 77.2122 114.485 76.6512C114.247 76.0772 114.061 75.5134 113.928 74.9599C113.807 74.3927 113.732 73.8362 113.703 73.2902C113.533 70.0406 114.917 68.3388 117.854 68.1848C118.556 68.148 119.186 68.3431 119.742 68.7701C120.298 69.1842 120.595 69.7486 120.633 70.4636C120.653 70.8535 120.561 71.2038 120.355 71.5143C120.163 71.8242 119.916 72.0783 119.613 72.2766C119.323 72.4613 118.941 72.6377 118.468 72.8059C118.007 72.9734 117.597 73.0992 117.236 73.1833C116.876 73.2673 116.444 73.3616 115.941 73.4662C115.438 73.5708 115.091 73.6476 114.898 73.6969C114.93 74.0731 114.967 74.4036 115.008 74.6882C115.062 74.9721 115.144 75.2807 115.252 75.6139C115.373 75.9334 115.518 76.1996 115.685 76.4124C115.865 76.6115 116.102 76.775 116.395 76.903C116.689 77.031 117.03 77.0848 117.42 77.0644C117.888 77.0399 118.458 76.9709 119.13 76.8575C119.801 76.7311 120.394 76.6087 120.909 76.4905C121.438 76.3716 121.715 76.3114 121.741 76.3101ZM114.912 72.4839C116.653 71.8843 118.075 71.2754 119.176 70.6572C119.063 70.233 118.923 69.9275 118.757 69.7407C118.591 69.5539 118.352 69.4687 118.04 69.485C117.247 69.5266 116.54 69.8374 115.918 70.4174C115.31 70.9967 114.975 71.6855 114.912 72.4839ZM122.818 78.2088C122.819 77.4918 122.759 75.8396 122.636 73.2522C122.513 70.6518 122.47 68.8422 122.508 67.8236L123.396 67.9726C123.541 69.0077 123.693 70.6681 123.852 72.9538C124.024 75.2389 124.122 76.485 124.146 76.6923C124.34 76.6691 124.658 76.6459 125.1 76.6228C125.412 76.6064 125.868 76.5891 126.466 76.5707C127.078 76.5517 127.507 76.5357 127.754 76.5228L128.3 76.4942C128.297 75.6862 128.268 74.267 128.214 72.2365C128.159 70.193 128.132 68.6824 128.133 67.7048L129.02 67.8538C129.126 68.8649 129.236 70.4689 129.351 72.6657C129.479 74.8618 129.551 76.1158 129.567 76.4278L131.03 76.3511C131.036 76.7158 131.038 77.3869 131.038 78.3645C131.037 79.3422 131.042 80.0718 131.055 80.5534L130.11 80.4465L129.584 77.8542C127.896 77.9947 126.637 78.0868 125.805 78.1304C124.7 78.1883 123.704 78.2144 122.818 78.2088ZM132.194 67.6092L133.102 67.7572C133.261 68.8176 133.44 70.4897 133.638 72.7734C133.835 75.044 133.961 76.4517 134.016 76.9962C133.92 77.4053 133.703 77.6187 133.365 77.6364C133.131 77.6487 132.899 77.5696 132.668 77.3992C132.45 77.2152 132.308 76.988 132.242 76.7178C132.24 76.1834 132.219 74.7964 132.18 72.5565C132.14 70.3037 132.145 68.6546 132.194 67.6092ZM132.285 64.1048C132.635 64.0864 132.936 64.227 133.186 64.5267C133.436 64.8135 133.571 65.1518 133.592 65.5417C133.607 65.8277 133.547 66.0654 133.414 66.2549C133.293 66.4307 133.115 66.5247 132.881 66.537C132.517 66.5561 132.223 66.4216 132 66.1335C131.776 65.8454 131.654 65.4999 131.633 65.097C131.618 64.811 131.664 64.5805 131.772 64.4053C131.893 64.2165 132.064 64.1164 132.285 64.1048ZM25.1116 89.2627C27.1039 88.7282 28.3211 88.4493 28.763 88.4261C30.5048 88.3349 31.4149 89.0366 31.4933 90.5315C31.5205 91.0514 31.4561 91.5631 31.3 92.0666C31.1562 92.5564 30.9584 92.8861 30.7066 93.0557C31.7566 93.6915 32.3133 94.6139 32.3767 95.8227C32.4366 96.9666 32.1063 97.8768 31.3858 98.5532C30.6782 99.229 29.7135 99.5989 28.4916 99.6629C27.0358 99.7392 25.93 99.4062 25.1742 98.6637L25.1116 89.2627ZM26.4795 94.0984L26.8624 98.0473C27.1955 98.1863 27.5701 98.2449 27.986 98.2231C28.792 98.1808 29.5196 97.8885 30.169 97.3462C30.8183 96.8038 31.1253 96.1946 31.0899 95.5187C31.0653 95.0508 30.8609 94.6313 30.4765 94.2605C30.0914 93.8766 29.6194 93.6993 29.0605 93.7286C28.7355 93.7456 27.8752 93.8689 26.4795 94.0984ZM26.074 90.0921L26.3679 93.0876C26.5615 93.0514 26.8594 93.0162 27.2617 92.9821C27.664 92.948 27.9876 92.905 28.2325 92.853C28.4768 92.7881 28.7446 92.6763 29.0361 92.5176C29.3269 92.346 29.5469 92.0673 29.6961 91.6814C29.8584 91.2949 29.956 90.7945 29.9889 90.1802C29.8385 89.797 29.4318 89.6228 28.7689 89.6576C28.4699 89.6732 28.0044 89.7433 27.3722 89.8676C26.74 89.992 26.3073 90.0668 26.074 90.0921ZM39.4762 94.3753C39.449 93.8554 39.4706 93.2742 39.5412 92.6318C39.6249 91.9888 39.7588 91.3105 39.9429 90.597C40.1271 89.8835 40.4279 89.2812 40.8454 88.7901C41.2628 88.2989 41.764 88.0381 42.3489 88.0074C43.5968 87.942 44.6273 88.455 45.4405 89.5464C46.253 90.6247 46.6954 91.8529 46.7676 93.2307C46.7982 93.8156 46.7639 94.404 46.6646 94.9957C46.5776 95.5738 46.4187 96.1491 46.188 96.7217C45.9574 97.2943 45.6049 97.782 45.1307 98.1848C44.6688 98.574 44.1143 98.8116 43.4671 98.8977C42.2631 98.8043 41.3136 98.3458 40.6187 97.5219C39.9231 96.6851 39.5423 95.6362 39.4762 94.3753ZM42.519 89.0152C42.0668 89.091 41.7052 89.5271 41.4341 90.3233C41.163 91.1196 41.0013 91.8906 40.9492 92.6363C40.8963 93.369 40.8846 94.0148 40.9139 94.5737C40.952 95.3016 41.2084 95.966 41.6831 96.5668C42.17 97.1539 42.693 97.4328 43.2519 97.4035C43.6549 97.3823 44.0107 97.2073 44.3193 96.8783C44.6279 96.5493 44.8613 96.1525 45.0194 95.6881C45.1899 95.2099 45.3083 94.7344 45.3748 94.2617C45.4543 93.7883 45.4845 93.3696 45.4654 93.0057C45.4095 91.9398 45.1204 91.023 44.5978 90.2553C44.0753 89.4876 43.3824 89.0742 42.519 89.0152ZM48.9723 100.603L48.0846 100.454C48.0771 100.311 48.029 99.8903 47.9402 99.1911C47.8514 98.4919 47.7989 97.9863 47.7825 97.6744C47.7689 97.4144 47.7738 97.1339 47.7971 96.8329L49.0645 96.7665C49.1179 96.5421 49.2045 96.2052 49.3243 95.7557C49.4571 95.3056 49.5448 94.9882 49.5872 94.8035C49.6297 94.6188 49.6872 94.3485 49.7598 93.9928C49.8447 93.6234 49.8937 93.3145 49.9068 93.0662C49.9321 92.8042 49.9479 92.484 49.9542 92.1057C49.9734 91.7267 49.9721 91.3292 49.9503 90.9132C49.8992 89.9383 49.8027 88.842 49.6607 87.6242C50.3906 87.6251 51.1589 87.6109 51.9655 87.5816C52.7851 87.5517 53.4556 87.5361 53.9769 87.5349C54.4982 87.5336 55.0342 87.5642 55.5849 87.6266C55.6702 88.5084 55.7855 89.9622 55.9308 91.988C56.0884 94 56.2098 95.447 56.2951 96.3289L57.816 96.2492L57.8466 96.8341C57.8643 97.1721 57.896 97.6527 57.9417 98.2759C58.0004 98.8985 58.0352 99.3138 58.0461 99.5218C58.0666 99.9117 58.0692 100.211 58.0541 100.421L57.1665 100.272C57.105 100.092 57.0407 99.8612 56.9737 99.578C56.9204 99.307 56.8593 99.0104 56.7903 98.6882C56.7212 98.366 56.67 98.134 56.6365 97.9924C55.8935 97.9922 54.7066 97.9762 53.0756 97.9444C51.4576 97.9119 50.1927 97.9 49.2807 97.9087L48.9723 100.603ZM51.3629 88.7668C51.3601 88.9624 51.3685 89.3726 51.3882 89.9972C51.4073 90.6088 51.4123 91.0778 51.4033 91.4041C51.4074 91.7297 51.3922 92.1867 51.3579 92.7751C51.3358 93.3497 51.2896 93.8344 51.219 94.2292C51.1478 94.6109 51.0331 95.034 50.8749 95.4985C50.7291 95.9493 50.5477 96.3433 50.3308 96.6806L54.6009 96.4568L54.5882 88.7541C54.4055 88.7507 53.9236 88.7564 53.1423 88.7713C52.374 88.7854 51.7809 88.7839 51.3629 88.7668ZM60.7643 95.8014C60.7759 96.0224 60.8042 96.3141 60.8493 96.6767C60.7534 97.0858 60.5365 97.2992 60.1986 97.3169C59.9646 97.3292 59.7323 97.2501 59.5018 97.0797C59.2836 96.8957 59.1414 96.6685 59.0751 96.3982C59.0589 95.3433 59.0237 93.8006 58.9694 91.7701C58.9281 89.7389 58.9017 88.3651 58.8903 87.6489L59.779 87.4459C59.9786 88.2696 60.134 89.3694 60.2452 90.7452C60.3564 92.121 60.4622 93.1452 60.5626 93.8177C60.7905 93.4408 61.4427 92.4551 62.5192 90.8606C63.5957 89.2662 64.3222 88.0811 64.6986 87.3053C64.9819 87.2384 65.1625 87.2028 65.2405 87.1987C65.4874 87.1858 65.6622 87.2874 65.7648 87.5036C65.8804 87.7192 65.9672 88.1317 66.0252 88.7413L66.8166 96.755C66.7201 97.1511 66.5028 97.358 66.1649 97.3757C65.9309 97.388 65.6986 97.3089 65.4681 97.1385C65.2499 96.9545 65.1077 96.7273 65.0414 96.457C65.0319 96.0274 65.0096 94.9793 64.9744 93.3128C64.9515 91.6325 64.9411 90.4404 64.9433 89.7365C62.8534 92.3877 61.4604 94.4093 60.7643 95.8014ZM73.7457 86.8312L74.6333 86.9802L75.5774 96.4132C75.4808 96.8093 75.2635 97.0162 74.9256 97.0339C74.6916 97.0462 74.459 96.9606 74.2278 96.7772C73.9973 96.6068 73.8489 96.3865 73.7826 96.1162C73.7806 96.0772 73.7815 94.9758 73.7854 92.8119L73.7772 92.6559C73.4119 92.649 72.8718 92.6643 72.1568 92.7017C71.078 92.7583 70.2638 92.7683 69.7145 92.732C69.819 93.4825 69.9672 94.6934 70.159 96.3648C70.0632 96.7739 69.8463 96.9873 69.5083 97.005C69.2743 97.0173 69.0421 96.9382 68.8116 96.7678C68.5934 96.5837 68.4511 96.3566 68.3848 96.0863C68.3897 95.4343 68.3752 94.7834 68.3411 94.1334C68.3193 93.7175 68.2801 93.0939 68.2235 92.2627C68.1669 91.4314 68.1281 90.8143 68.107 90.4114C68.0416 89.1635 68.0257 88.1151 68.0594 87.2661L68.9481 87.4346C69.3559 90.2416 69.5683 91.6838 69.5854 91.7612C71.8143 91.7617 72.9612 91.7602 73.0262 91.7568C73.5592 91.7289 73.824 91.6824 73.8205 91.6174C73.8069 91.3574 73.7897 90.5307 73.7688 89.1371C73.7479 87.7435 73.7402 86.9749 73.7457 86.8312ZM89.7001 95.4189L89.8035 96.2738C89.4957 96.3681 89.2767 96.4187 89.1467 96.4255C88.6528 96.4514 88.1958 96.3124 87.7758 96.0085C87.3559 95.7047 87.0036 95.3256 86.7191 94.8713C86.4346 94.417 86.1631 93.9619 85.9046 93.5063C85.6591 93.0499 85.3979 92.666 85.1209 92.3547C84.8439 92.0433 84.5689 91.8948 84.2959 91.9091C84.1919 91.9146 84.0954 91.9392 84.0065 91.983C84.0994 92.7601 84.2564 94.0162 84.4777 95.7513C84.3818 96.1603 84.1649 96.3737 83.8269 96.3915C83.593 96.4037 83.3607 96.3246 83.1302 96.1542C82.912 95.9702 82.7698 95.743 82.7035 95.4728C82.641 93.2863 82.5594 91.2311 82.4586 89.3073C82.3843 87.8905 82.3839 86.763 82.4573 85.925L83.351 86.191C83.4816 86.6925 83.5782 87.4173 83.6409 88.3655C83.703 89.3008 83.7463 89.8785 83.7709 90.0988C84.1574 90.0134 84.4848 89.7942 84.7531 89.4412C85.0344 89.0876 85.2547 88.6915 85.4142 88.253C85.5867 87.8139 85.7661 87.3809 85.9523 86.954C86.1384 86.5271 86.3865 86.1622 86.6965 85.8592C87.0195 85.5555 87.4084 85.3918 87.8634 85.3679C88.0974 85.3557 88.4654 85.4146 88.9675 85.5447L88.9243 86.2117C88.8456 86.2028 88.7413 86.2017 88.6113 86.2085C88.0914 86.2358 87.648 86.4806 87.2812 86.943C86.9267 87.3917 86.6659 87.8877 86.4989 88.4308C86.3442 88.9603 86.1364 89.473 85.8756 89.9689C85.6149 90.4649 85.3176 90.7607 84.9837 90.8564C85.4708 90.9482 85.8973 91.2517 86.2631 91.7669C86.642 92.2815 86.931 92.8203 87.1299 93.3834C87.3412 93.9328 87.6281 94.4326 87.9906 94.8828C88.3524 95.3201 88.7803 95.5258 89.2742 95.4999C89.4042 95.4931 89.5461 95.4661 89.7001 95.4189ZM88.5892 97.7255L88.2333 96.9035C88.6534 96.712 89.0294 96.4251 89.3613 96.0428C89.6802 95.6611 89.9399 95.2695 90.1405 94.8679C90.3403 94.4534 90.5026 93.9431 90.6272 93.337C90.7519 92.7308 90.8351 92.2051 90.8769 91.7598C90.9311 91.3007 90.9603 90.7387 90.9645 90.0737C90.9688 89.4088 90.9624 88.9138 90.9454 88.5888C90.9407 88.2502 90.9237 87.8014 90.8944 87.2424C90.8528 86.4495 90.8994 85.9713 91.0342 85.8078C91.206 85.6033 92.2083 85.453 94.0411 85.357C95.4839 85.2814 96.3025 85.232 96.4968 85.2087C96.7994 90.4848 97.0439 93.9066 97.2303 95.4739C97.1208 95.8707 96.9035 96.0776 96.5785 96.0947C96.3576 96.1062 96.1383 96.0265 95.9208 95.8554C95.7033 95.6843 95.5617 95.4702 95.4961 95.2129C95.4565 94.7066 95.4105 93.9531 95.3581 92.9522C95.3322 92.4582 95.293 91.7108 95.2406 90.7099C95.2011 89.7083 95.1681 88.9541 95.1415 88.4471C95.0925 87.5112 95.0492 86.8096 95.0117 86.3424C94.4705 86.462 93.9338 86.5422 93.4015 86.5832C92.8692 86.6241 92.4933 86.6633 92.2737 86.7009C92.2572 87.1319 92.2581 87.7705 92.2763 88.6168C92.2946 89.4631 92.3078 90.2119 92.3159 90.8632C92.3362 91.5008 92.2964 92.2328 92.1963 93.0592C92.0956 93.8726 91.9237 94.5724 91.6807 95.1587C91.45 95.7313 91.0668 96.2532 90.531 96.7244C90.0089 97.208 89.3617 97.5417 88.5892 97.7255ZM98.7154 85.3857L99.6225 85.5337C99.7824 86.5942 99.9613 88.2662 100.159 90.5499C100.356 92.8206 100.482 94.2282 100.537 94.7728C100.441 95.1819 100.224 95.3953 99.8861 95.413C99.6521 95.4252 99.4199 95.3462 99.1894 95.1758C98.9712 94.9917 98.8289 94.7645 98.7626 94.4943C98.7607 93.96 98.7401 92.5729 98.701 90.333C98.6611 88.0802 98.6659 86.4311 98.7154 85.3857ZM98.8055 81.8813C99.1564 81.8629 99.4571 82.0036 99.7074 82.3033C99.957 82.59 100.092 82.9283 100.113 83.3183C100.128 83.6042 100.068 83.842 99.9348 84.0314C99.8137 84.2072 99.6362 84.3013 99.4022 84.3135C99.0382 84.3326 98.7444 84.1981 98.5208 83.91C98.2971 83.622 98.1747 83.2764 98.1536 82.8735C98.1386 82.5875 98.1852 82.357 98.2933 82.1819C98.4138 81.9931 98.5845 81.8929 98.8055 81.8813ZM109.296 94.392L109.399 95.2468C109.091 95.3411 108.872 95.3917 108.742 95.3985C108.248 95.4244 107.791 95.2854 107.371 94.9816C106.951 94.6777 106.599 94.2986 106.315 93.8443C106.03 93.39 105.759 92.935 105.5 92.4793C105.255 92.0229 104.993 91.6391 104.716 91.3277C104.439 91.0164 104.164 90.8679 103.891 90.8822C103.787 90.8876 103.691 90.9122 103.602 90.956C103.695 91.7332 103.852 92.9893 104.073 94.7243C103.977 95.1334 103.76 95.3468 103.422 95.3645C103.188 95.3768 102.956 95.2977 102.726 95.1273C102.507 94.9432 102.365 94.7161 102.299 94.4458C102.236 92.2593 102.155 90.2042 102.054 88.2804C101.98 86.8635 101.979 85.7361 102.053 84.898L102.946 85.164C103.077 85.6655 103.174 86.3904 103.236 87.3386C103.298 88.2738 103.342 88.8516 103.366 89.0719C103.753 88.9864 104.08 88.7672 104.349 88.4143C104.63 88.0606 104.85 87.6646 105.01 87.2261C105.182 86.7869 105.362 86.3539 105.548 85.927C105.734 85.5002 105.982 85.1353 106.292 84.8323C106.615 84.5286 107.004 84.3648 107.459 84.341C107.693 84.3287 108.061 84.3876 108.563 84.5177L108.52 85.1847C108.441 85.1758 108.337 85.1748 108.207 85.1816C107.687 85.2088 107.243 85.4537 106.877 85.9161C106.522 86.3648 106.261 86.8607 106.094 87.4039C105.94 87.9333 105.732 88.4461 105.471 88.942C105.21 89.4379 104.913 89.7338 104.579 89.8295C105.066 89.9212 105.493 90.2247 105.859 90.74C106.237 91.2545 106.526 91.7933 106.725 92.3564C106.937 92.9058 107.224 93.4057 107.586 93.8559C107.948 94.2931 108.376 94.4988 108.87 94.4729C109 94.4661 109.142 94.4391 109.296 94.392Z" fill="#3B636B"/>
</g>
</g>
<defs>
<filter id="filter0_ddd_3195_42577" x="-6" y="16" width="251.576" height="250" filterUnits="userSpaceOnUse" color-interpolation-filters="sRGB">
<feFlood flood-opacity="0" result="BackgroundImageFix"/>
<feColorMatrix in="SourceAlpha" type="matrix" values="0 0 0 0 0 0 0 0 0 0 0 0 0 0 0 0 0 0 127 0" result="hardAlpha"/>
<feOffset dy="3"/>
<feGaussianBlur stdDeviation="2.5"/>
<feColorMatrix type="matrix" values="0 0 0 0 0 0 0 0 0 0 0 0 0 0 0 0 0 0 0.2 0"/>
<feBlend mode="normal" in2="BackgroundImageFix" result="effect1_dropShadow_3195_42577"/>
<feColorMatrix in="SourceAlpha" type="matrix" values="0 0 0 0 0 0 0 0 0 0 0 0 0 0 0 0 0 0 127 0" result="hardAlpha"/>
<feOffset dy="1"/>
<feGaussianBlur stdDeviation="9"/>
<feColorMatrix type="matrix" values="0 0 0 0 0 0 0 0 0 0 0 0 0 0 0 0 0 0 0.12 0"/>
<feBlend mode="normal" in2="effect1_dropShadow_3195_42577" result="effect2_dropShadow_3195_42577"/>
<feColorMatrix in="SourceAlpha" type="matrix" values="0 0 0 0 0 0 0 0 0 0 0 0 0 0 0 0 0 0 127 0" result="hardAlpha"/>
<feOffset dy="5"/>
<feGaussianBlur stdDeviation="5"/>
<feColorMatrix type="matrix" values="0 0 0 0 0 0 0 0 0 0 0 0 0 0 0 0 0 0 0.14 0"/>
<feBlend mode="normal" in2="effect2_dropShadow_3195_42577" result="effect3_dropShadow_3195_42577"/>
<feBlend mode="normal" in="SourceGraphic" in2="effect3_dropShadow_3195_42577" result="shape"/>
</filter>
<clipPath id="clip0_3195_42577">
<rect width="240" height="280" fill="white"/>
</clipPath>
</defs>
</svg>
