<svg width="240" height="280" viewBox="0 0 240 280" fill="none" xmlns="http://www.w3.org/2000/svg">
<g filter="url(#filter0_ddd_3195_42575)">
<path d="M118.487 120.923C116.146 122.043 114.29 123.995 113.077 126.639L112.007 128.979L112.693 135.993C113.403 143.296 114.168 147.098 115.322 148.953C116.118 151.249 131.922 157.614 125.863 158.143C122.242 158.46 120.435 159.45 118.143 162.23C115.774 165.1 115.344 167.051 115.356 174.54C115.401 179.82 115.549 181.68 116.108 183.42C117.521 187.998 121.163 191.092 125.775 191.646C127.338 191.801 130.338 191.581 135.891 190.804C144.303 189.612 145.695 189.199 148.193 186.9C149.72 185.56 151.665 182.103 151.575 180.987C151.499 180.037 153.031 179.279 154.316 179.625C155.774 180.038 158.969 179.634 160.747 178.813C161.921 178.294 162.666 178.188 163.608 178.438C164.807 178.75 168.664 178.246 171.031 177.457C171.972 177.167 172.148 177.276 172.735 178.848C174.104 182.348 176.941 184.805 180.567 185.612C181.464 185.824 183.939 185.858 186.027 185.759C188.152 185.615 191.581 185.523 193.675 185.507C198.661 185.487 200.893 184.585 203.62 181.476C206.807 177.827 207.895 173.613 207.642 165.729C207.359 157.473 205.763 153.244 202.018 150.95L200.697 150.15L202.922 147.584C205.716 144.26 206.156 142.433 205.526 136.122C204.992 131.009 204.12 126.924 202.929 124.074C201.843 121.506 198.679 118.62 195.878 117.658C193.766 116.927 192.969 116.913 184.844 117.498L176.092 118.097L173.899 119.495C171.984 120.702 169.612 123.531 169.231 125.062C169.133 125.404 168.553 125.496 166.817 125.273C164.957 125.061 164.044 125.182 162.329 125.748C160.864 126.292 159.581 126.488 158.271 126.352C156.202 126.159 153.405 126.819 151.532 128.023C150.733 128.509 150.073 128.65 149.18 128.478C148.539 128.326 147.517 128.124 146.924 128.051C146.037 127.962 145.71 127.533 145.168 125.999C144.198 123.296 140.527 120.371 137.372 119.69C134.047 118.982 120.706 119.856 118.487 120.923Z" fill="white"/>
<path d="M123.296 130.217C123.052 130.57 123.182 131.089 123.182 131.089L123.67 135.291C123.941 137.601 124.313 140.469 124.505 141.654C124.792 143.521 124.91 143.847 125.282 144.187C125.886 144.718 126.797 144.622 127.354 143.973C127.763 143.496 127.775 143.424 127.524 141.978C127.094 139.275 126.234 132.63 126.316 132.535C126.397 132.439 133.654 132.169 135.404 132.195C136.684 132.209 137.342 131.692 137.261 130.745C137.185 129.867 136.884 129.504 136.098 129.377C135.238 129.221 129.523 129.395 126.482 129.656L124.175 129.855C124.175 129.855 123.541 129.865 123.296 130.217Z" fill="#3B636B"/>
<path d="M180.009 128.124C179.781 128.408 179.809 128.941 179.825 129.134C179.877 129.731 180.445 130.477 180.9 130.527C181.119 130.561 183.79 130.402 186.816 130.177C191.06 129.865 192.37 129.805 192.51 129.97C192.879 130.486 193.945 136.176 194.195 139.089C194.357 140.967 194.378 141.001 194.922 141.467C195.6 142.01 196.195 142.012 196.813 141.446C197.247 141.055 197.246 141.037 197.025 138.475C196.656 134.175 195.635 129.224 194.866 128.035C194.114 126.826 193.877 126.794 186.841 127.328L180.629 127.792C180.629 127.792 180.236 127.839 180.009 128.124Z" fill="#3B636B"/>
<path d="M165.708 135.741C165.297 136.2 165.302 136.253 165.566 139.324C165.832 142.625 165.806 144.838 165.379 152.654C165.102 158.017 165.108 160.81 165.42 165.274C165.666 168.559 165.668 168.577 166.108 168.875C166.587 169.205 167.415 169.204 167.91 168.879C168.457 168.531 168.515 167.748 168.277 163.72C168.021 159.481 168.048 157.286 168.408 151.209C168.788 144.528 168.798 141.08 168.418 138.337C168.119 136.117 168.062 135.874 167.655 135.538C167.053 135.042 166.214 135.131 165.708 135.741Z" fill="#CF312C"/>
<path d="M157.815 136.543C157.265 136.856 157.155 137.466 157.243 139.74C157.266 140.851 157.237 143.241 157.141 145.052C157.063 146.863 156.967 149.523 156.931 150.993C156.894 152.446 156.729 155.767 156.574 158.361C156.222 163.908 156.128 168.672 156.324 169.274C156.682 170.304 157.878 170.59 158.681 169.867C159.181 169.4 159.478 168.242 159.285 167.463C159.113 166.718 159.191 163.016 159.504 158.693C159.63 156.808 159.799 153.54 159.85 151.414C159.92 149.286 160.031 145.971 160.117 144.036C160.288 139.743 160.126 137.228 159.632 136.723C159.218 136.316 158.327 136.216 157.815 136.543Z" fill="#CF312C"/>
<path d="M173.498 135.601C173.244 135.782 173.001 136.104 172.983 136.317C172.958 136.655 173.167 145.371 173.465 155.742C173.507 157.276 173.695 160.513 173.884 162.919C174.239 167.256 174.244 167.309 174.691 167.694C175.51 168.42 176.89 167.912 177.013 166.823C177.047 166.59 176.905 164.109 176.719 161.314C176.421 156.796 176.177 149.568 176.072 142.063C176.044 140.686 175.97 138.783 175.887 137.818C175.753 136.256 175.7 136.066 175.313 135.746C174.716 135.302 174.043 135.236 173.498 135.601Z" fill="#CF312C"/>
<path d="M146.495 138.614C146.25 138.9 146.104 139.301 146.128 139.582C146.234 140.811 146.532 148.883 146.667 154.228C146.747 157.457 146.926 161.844 147.058 164.007C147.189 166.153 147.316 168.476 147.323 169.182C147.351 170.347 147.381 170.486 147.853 170.94C148.639 171.704 149.755 171.484 150.175 170.493C150.265 170.291 150.199 168.051 150.048 165.465C149.9 162.896 149.72 158.297 149.638 155.246C149.573 152.193 149.404 147.292 149.277 144.35C149.042 139.102 149.036 139.032 148.618 138.572C148.042 137.95 147.07 137.963 146.495 138.614Z" fill="#CF312C"/>
<path d="M196.352 159.537C195.662 159.897 195.578 160.594 195.929 162.792C196.432 165.913 196.535 169.21 196.174 171.292C196.006 172.279 195.794 173.164 195.712 173.259C195.614 173.374 194.73 173.362 193.403 173.228C191.076 172.986 187.757 173.148 185.561 173.602C184.552 173.813 184.241 173.963 183.848 174.421C183.457 174.897 183.4 175.079 183.53 175.545C183.84 176.632 184.114 176.679 187.538 176.261C190.285 175.936 190.842 175.924 192.877 176.12C194.131 176.242 195.613 176.291 196.187 176.26C197.17 176.175 197.257 176.132 197.843 175.41C199.064 173.89 199.564 170.064 199.153 165.502C198.82 161.624 198.53 160.146 198.047 159.763C197.562 159.363 196.87 159.281 196.352 159.537Z" fill="#3B636B"/>
<path d="M127.037 168.788C126.845 169.069 126.708 169.364 126.717 169.469C126.726 169.575 126.707 170.814 126.684 172.23C126.662 173.647 126.678 176.138 126.711 177.78C126.795 181.061 126.954 181.648 127.898 182.151C128.352 182.395 128.691 182.365 132.522 181.859C134.801 181.539 137.972 181.125 139.577 180.934C142.323 180.592 142.534 180.538 142.895 180.118C143.419 179.507 143.314 178.703 142.673 178.175L142.169 177.758L137.781 178.277C135.355 178.557 132.538 178.905 131.524 179.063L129.673 179.328L129.655 177.65C129.63 176.733 129.628 174.399 129.626 172.49L129.631 168.989L129.164 168.587C128.521 168.024 127.483 168.113 127.037 168.788Z" fill="#3B636B"/>
<path d="M57.3047 126.462C54.6833 111.17 52.418 100.177 50.4099 76.5512C50.4099 70.5072 47.7993 48.3423 53.422 45.2654C60.4504 41.4193 184.451 37.5735 194.994 37.024C205.537 36.4746 198.006 45.2218 203.026 76.5512C206.34 97.2275 187.464 93.0345 178.929 95.2323C170.395 97.43 175.917 94.6828 174.411 108.968C172.905 123.254 174.774 125.483 165.305 127.962C151.805 131.496 139.305 124.962 123.805 126.462C116.078 127.21 122.355 135.061 109.805 133.962C97.254 132.863 89.3615 131.764 75.3047 133.962L75.2553 133.97C61.2427 136.161 59.0267 136.507 57.3047 126.462Z" fill="white"/>
<path d="M60.062 51.5904L60.9271 51.3105C60.9489 51.7264 60.9677 51.96 60.9834 52.0114C61.6984 51.4786 62.7254 51.1771 64.0642 51.1069C65.5071 51.0313 66.6098 51.4297 67.3724 52.3022C68.1344 53.1616 68.5579 54.4037 68.6431 56.0286C68.7187 57.4714 68.4304 58.6857 67.7782 59.6714C67.126 60.6571 66.0915 61.187 64.6746 61.2613C64.4406 61.2736 63.5007 61.2446 61.8547 61.1745C61.9304 62.122 62.0597 63.5946 62.2426 65.5923C62.1467 66.0014 61.9298 66.2148 61.5918 66.2325C61.3579 66.2448 61.1253 66.1592 60.8941 65.9758C60.6766 65.8047 60.5347 65.5841 60.4684 65.3138C60.4501 64.2199 60.3777 62.0926 60.2512 58.9319C60.1377 55.7705 60.0746 53.3233 60.062 51.5904ZM61.2273 53.3085L61.7021 59.3837C62.4375 59.7362 63.2731 59.8879 64.209 59.8389C65.106 59.7919 65.8487 59.4141 66.4372 58.7054C67.0257 57.9968 67.2944 57.155 67.2433 56.1801C67.1881 55.1273 66.8134 54.1954 66.1192 53.3845C65.425 52.5737 64.5904 52.1938 63.6155 52.2449C62.8226 52.2865 62.0266 52.641 61.2273 53.3085ZM69.3326 60.9781C69.3053 60.4581 69.327 59.877 69.3976 59.2346C69.4812 58.5915 69.6151 57.9132 69.7993 57.1997C69.9835 56.4862 70.2843 55.8839 70.7018 55.3928C71.1192 54.9017 71.6204 54.6408 72.2053 54.6101C73.4532 54.5447 74.4837 55.0577 75.2969 56.1491C76.1094 57.2275 76.5518 58.4556 76.624 59.8334C76.6546 60.4184 76.6203 61.0067 76.521 61.5985C76.4339 62.1766 76.2751 62.7519 76.0444 63.3244C75.8137 63.897 75.4613 64.3847 74.9871 64.7876C74.5252 65.1767 73.9707 65.4143 73.3235 65.5004C72.1194 65.4071 71.17 64.9485 70.4751 64.1247C69.7795 63.2878 69.3987 62.2389 69.3326 60.9781ZM72.3754 55.6179C71.9232 55.6937 71.5615 56.1298 71.2905 56.9261C71.0194 57.7223 70.8577 58.4933 70.8056 59.239C70.7527 59.9717 70.741 60.6175 70.7702 61.1765C70.8084 61.9044 71.0648 62.5687 71.5395 63.1695C72.0264 63.7566 72.5494 64.0355 73.1083 64.0062C73.5113 63.9851 73.8671 63.81 74.1757 63.481C74.4843 63.152 74.7177 62.7553 74.8758 62.2908C75.0463 61.8126 75.1647 61.3372 75.2312 60.8645C75.3107 60.3911 75.3409 59.9724 75.3218 59.6084C75.2659 58.5425 74.9767 57.6257 74.4542 56.858C73.9317 56.0903 73.2388 55.6769 72.3754 55.6179ZM78.5009 59.8328L78.3657 58.745C78.4047 58.743 78.4635 58.7464 78.5422 58.7553C78.6332 58.7506 78.6982 58.7472 78.7372 58.7451C80.05 58.6763 80.6765 58.07 80.6165 56.9261C80.4211 55.9327 79.8424 55.4612 78.8805 55.5116C78.5166 55.5307 77.9891 55.6626 77.298 55.9074L76.9174 55.3603C77.4368 54.8248 78.2034 54.5304 79.2173 54.4773C79.9323 54.4398 80.5397 54.5905 81.0398 54.9292C81.5398 55.268 81.8082 55.7883 81.845 56.4902C81.8675 56.9192 81.8051 57.3461 81.6579 57.7709C81.5101 58.1827 81.3051 58.4997 81.043 58.722C81.5424 58.8001 81.9436 59.118 82.2465 59.6756C82.5618 60.2196 82.7378 60.8425 82.7746 61.5445C82.8223 62.4544 82.5714 63.2626 82.0219 63.9692C81.4724 64.6758 80.7361 65.0533 79.8132 65.1016C79.3583 65.1255 78.8055 65.0241 78.155 64.7975C77.5044 64.5709 77.1689 64.2626 77.1485 63.8727C77.1342 63.5997 77.3025 63.454 77.6535 63.4356C77.8874 63.4234 78.1987 63.5178 78.5872 63.7191C78.9751 63.9073 79.2925 63.9949 79.5395 63.982C80.0854 63.9534 80.5538 63.6877 80.9445 63.1849C81.3353 62.6822 81.5153 62.1383 81.4847 61.5534C81.452 60.9295 81.2065 60.4731 80.7482 60.1843C80.3022 59.8818 79.7412 59.7483 79.0653 59.7837C78.8053 59.7973 78.6172 59.8137 78.5009 59.8328ZM86.231 70.0442L84.9864 69.4251C85.4709 68.4743 86.3214 66.6701 87.5377 64.0125C86.4357 63.1318 85.5556 61.7572 84.8972 59.8887C84.2388 58.0201 83.8013 56.1401 83.5849 54.2484L84.7188 54.2476C84.8002 54.5562 84.9741 55.2639 85.2407 56.3709C85.5196 57.4642 85.738 58.2739 85.8959 58.8001C86.0538 59.3262 86.3164 59.9837 86.6836 60.7726C87.0631 61.5478 87.4816 62.1971 87.9392 62.7206C89.5641 59.1553 90.3183 56.2612 90.2018 54.0385L90.1906 53.824C90.872 53.8926 91.3854 53.9895 91.7309 54.1147C91.5944 55.4905 91.3423 56.8984 90.9746 58.3384C90.6069 59.7784 90.1294 61.2372 89.5421 62.7148C88.9541 64.1794 88.4257 65.4128 87.9568 66.4149C87.501 67.4164 86.9257 68.6261 86.231 70.0442ZM100.185 53.8868L101.504 53.7003C102.246 55.421 103.081 58.6555 104.007 63.4035C103.789 63.4671 103.569 63.5047 103.348 63.5163C103.153 63.5265 102.924 63.5059 102.661 63.4545C102.441 62.7492 102.154 61.4999 101.8 59.7067C101.458 57.9128 101.17 56.644 100.935 55.9003C100.353 56.9736 99.5952 58.9294 98.6621 61.7676C98.5718 61.7854 98.4107 61.8199 98.1788 61.8712C97.9598 61.9217 97.7919 61.9501 97.6749 61.9562C97.5319 61.9637 97.3619 61.9531 97.1649 61.9243C96.929 61.4022 96.5724 60.5672 96.0951 59.4191C95.6302 58.2573 95.2585 57.384 94.9802 56.799C93.8999 60.062 93.244 62.4687 93.0124 64.0189L92.2408 63.8442C92.254 62.8529 92.5212 61.1119 93.0424 58.6211C93.5629 56.1173 93.8704 54.524 93.965 53.8412C94.1209 53.8331 94.2974 53.8434 94.4945 53.8722C94.7038 53.8872 94.8605 53.8921 94.9645 53.8866C95.3331 54.4539 95.8535 55.554 96.5256 57.1872C97.1971 58.8074 97.6412 59.8203 97.8579 60.2261C98.6987 57.3666 99.4743 55.2535 100.185 53.8868ZM110.114 53.0926L111.002 53.2416L111.946 62.6747C111.85 63.0707 111.632 63.2776 111.294 63.2954C111.06 63.3076 110.828 63.2221 110.597 63.0387C110.366 62.8683 110.218 62.6479 110.151 62.3777C110.149 62.3387 110.15 61.2372 110.154 59.0733L110.146 58.9173C109.781 58.9104 109.24 58.9257 108.526 58.9632C107.447 59.0197 106.633 59.0298 106.083 58.9934C106.188 59.7439 106.336 60.9549 106.528 62.6262C106.432 63.0353 106.215 63.2487 105.877 63.2664C105.643 63.2787 105.411 63.1996 105.18 63.0292C104.962 62.8452 104.82 62.618 104.754 62.3477C104.758 61.6958 104.744 61.0448 104.71 60.3949C104.688 59.9789 104.649 59.3553 104.592 58.5241C104.536 57.6929 104.497 57.0758 104.476 56.6728C104.41 55.4249 104.394 54.3765 104.428 53.5275L105.317 53.696C105.725 56.5031 105.937 57.9453 105.954 58.0226C108.183 58.0231 109.33 58.0216 109.395 58.0182C109.928 57.9903 110.193 57.9438 110.189 57.8788C110.176 57.6189 110.158 56.7921 110.137 55.3985C110.117 54.0049 110.109 53.2363 110.114 53.0926ZM115.169 61.1176C115.18 61.3386 115.209 61.6304 115.254 61.993C115.158 62.4021 114.941 62.6155 114.603 62.6332C114.369 62.6454 114.137 62.5664 113.906 62.396C113.688 62.2119 113.546 61.9847 113.479 61.7145C113.463 60.6595 113.428 59.1168 113.374 57.0863C113.332 55.0551 113.306 53.6814 113.295 52.9651L114.183 52.7621C114.383 53.5858 114.538 54.6856 114.65 56.0614C114.761 57.4372 114.867 58.4614 114.967 59.1339C115.195 58.757 115.847 57.7713 116.924 56.1769C118 54.5824 118.726 53.3973 119.103 52.6216C119.386 52.5546 119.567 52.5191 119.645 52.515C119.892 52.502 120.067 52.6037 120.169 52.8199C120.285 53.0354 120.371 53.448 120.429 54.0575L121.221 62.0713C121.124 62.4674 120.907 62.6743 120.569 62.692C120.335 62.7042 120.103 62.6252 119.872 62.4548C119.654 62.2707 119.512 62.0435 119.446 61.7733C119.436 61.3436 119.414 60.2955 119.379 58.629C119.356 56.9488 119.345 55.7567 119.348 55.0527C117.258 57.7039 115.865 59.7256 115.169 61.1176ZM123.977 50.1177L123.809 49.5204C124.123 49.5431 124.429 49.5466 124.728 49.5309C125.625 49.4839 126.438 49.1937 127.166 48.6602C127.466 48.6705 127.724 48.7482 127.94 48.8933C128.157 49.0384 128.27 49.2149 128.281 49.4229C128.29 49.5919 128.238 49.7315 128.127 49.8416C128.015 49.9517 127.844 50.0389 127.613 50.1031C127.381 50.1544 127.187 50.1906 127.032 50.2118C126.876 50.22 126.668 50.2309 126.408 50.2445C125.563 50.2888 124.753 50.2465 123.977 50.1177ZM124.469 60.6302C124.481 60.8512 124.509 61.143 124.554 61.5056C124.458 61.9146 124.241 62.128 123.903 62.1458C123.669 62.158 123.437 62.0789 123.207 61.9085C122.988 61.7245 122.846 61.4973 122.78 61.2271C122.764 60.1721 122.729 58.6294 122.674 56.5989C122.633 54.5677 122.607 53.194 122.595 52.4777L123.484 52.2747C123.683 53.0984 123.839 54.1982 123.95 55.574C124.061 56.9498 124.167 57.974 124.267 58.6465C124.495 58.2696 125.148 57.2839 126.224 55.6894C127.301 54.095 128.027 52.9099 128.403 52.1342C128.687 52.0672 128.867 52.0316 128.945 52.0276C129.192 52.0146 129.367 52.1162 129.47 52.3325C129.585 52.548 129.672 52.9605 129.73 53.5701L130.521 61.5839C130.425 61.9799 130.208 62.1868 129.87 62.2046C129.636 62.2168 129.403 62.1377 129.173 61.9673C128.955 61.7833 128.813 61.5561 128.746 61.2859C128.737 60.8562 128.714 59.8081 128.679 58.1416C128.656 56.4613 128.646 55.2692 128.648 54.5653C126.558 57.2165 125.165 59.2381 124.469 60.6302ZM61.2392 72.5601C61.7954 72.4788 62.6359 72.3501 63.7606 72.1738C64.8847 71.9845 65.6797 71.8582 66.1456 71.7946C66.4712 71.7906 66.7507 71.8998 66.9839 72.1222C67.2295 72.3309 67.359 72.5652 67.3727 72.8252C67.3931 73.2152 67.1447 73.4498 66.6275 73.529C66.1445 73.5152 65.4132 73.4884 64.4335 73.4485C63.4538 73.4086 62.7095 73.3824 62.2005 73.37C62.2551 74.1622 62.4005 75.445 62.6368 77.2183C62.8731 78.9917 63.0158 80.3463 63.0649 81.2822C63.1071 82.0881 62.8098 82.5077 62.1728 82.5411C61.6399 82.569 61.3543 82.219 61.3162 81.4911C61.2712 80.6332 61.2427 79.7158 61.2306 78.7388C61.2178 77.7489 61.2174 76.6215 61.2293 75.3565C61.2405 74.0785 61.2438 73.1464 61.2392 72.5601ZM67.5706 78.0938C67.5433 77.5738 67.565 76.9926 67.6356 76.3503C67.7192 75.7072 67.8531 75.0289 68.0373 74.3154C68.2215 73.6019 68.5223 72.9996 68.9397 72.5085C69.3572 72.0174 69.8584 71.7565 70.4433 71.7258C71.6912 71.6604 72.7217 72.1734 73.5349 73.2648C74.3474 74.3431 74.7898 75.5713 74.862 76.9491C74.8926 77.5341 74.8583 78.1224 74.7589 78.7142C74.6719 79.2922 74.5131 79.8675 74.2824 80.4401C74.0517 81.0127 73.6993 81.5004 73.2251 81.9032C72.7632 82.2924 72.2087 82.53 71.5615 82.6161C70.3574 82.5228 69.408 82.0642 68.7131 81.2403C68.0175 80.4035 67.6367 79.3546 67.5706 78.0938ZM70.6134 72.7336C70.1612 72.8094 69.7995 73.2455 69.5284 74.0417C69.2573 74.838 69.0957 75.609 69.0436 76.3547C68.9907 77.0874 68.9789 77.7332 69.0082 78.2921C69.0464 79.0201 69.3028 79.6844 69.7774 80.2852C70.2644 80.8723 70.7874 81.1512 71.3463 81.1219C71.7493 81.1008 72.1051 80.9257 72.4137 80.5967C72.7223 80.2677 72.9557 79.871 73.1138 79.4065C73.2843 78.9283 73.4027 78.4529 73.4692 77.9801C73.5486 77.5067 73.5788 77.0881 73.5598 76.7241C73.5039 75.6582 73.2147 74.7414 72.6922 73.9737C72.1697 73.206 71.4768 72.7926 70.6134 72.7336ZM74.7045 83.644L74.3486 82.8219C74.7687 82.6305 75.1447 82.3436 75.4766 81.9612C75.7955 81.5795 76.0552 81.1879 76.2557 80.7864C76.4556 80.3718 76.6178 79.8615 76.7425 79.2554C76.8671 78.6493 76.9504 78.1236 76.9922 77.6782C77.0463 77.2192 77.0755 76.6571 77.0798 75.9922C77.084 75.3272 77.0776 74.8322 77.0606 74.5073C77.0559 74.1686 77.0389 73.7198 77.0096 73.1609C76.9681 72.368 77.0147 71.8898 77.1495 71.7263C77.3213 71.5218 78.3235 71.3715 80.1563 71.2754C81.5992 71.1998 82.4178 71.1504 82.6121 71.1272C82.9146 76.4033 83.1591 79.825 83.3456 81.3924C83.236 81.7892 83.0188 81.9961 82.6938 82.0131C82.4728 82.0247 82.2536 81.9449 82.0361 81.7738C81.8185 81.6028 81.677 81.3886 81.6113 81.1313C81.5718 80.6251 81.5258 79.8715 81.4733 78.8706C81.4474 78.3767 81.4083 77.6292 81.3558 76.6283C81.3163 75.6268 81.2833 74.8725 81.2568 74.3656C81.2077 73.4297 81.1644 72.7281 81.1269 72.2608C80.5857 72.3804 80.049 72.4607 79.5168 72.5016C78.9845 72.5425 78.6086 72.5818 78.3889 72.6194C78.3724 73.0504 78.3733 73.689 78.3916 74.5353C78.4099 75.3815 78.423 76.1303 78.4311 76.7816C78.4515 77.4192 78.4116 78.1512 78.3116 78.9777C78.2108 79.7911 78.039 80.4909 77.796 81.0771C77.5653 81.6497 77.1821 82.1716 76.6463 82.6429C76.1242 83.1264 75.4769 83.4601 74.7045 83.644ZM84.7093 77.1955C84.682 76.6756 84.7037 76.0944 84.7743 75.4521C84.8579 74.809 84.9918 74.1307 85.176 73.4172C85.3602 72.7037 85.661 72.1014 86.0785 71.6103C86.4959 71.1192 86.9971 70.8583 87.582 70.8276C88.8299 70.7622 89.8604 71.2752 90.6736 72.3666C91.4861 73.4449 91.9285 74.6731 92.0007 76.0509C92.0313 76.6359 91.997 77.2242 91.8977 77.816C91.8106 78.394 91.6518 78.9693 91.4211 79.5419C91.1904 80.1145 90.838 80.6022 90.3638 81.005C89.9019 81.3942 89.3474 81.6318 88.7002 81.7179C87.4961 81.6246 86.5467 81.166 85.8518 80.3421C85.1562 79.5053 84.7754 78.4564 84.7093 77.1955ZM87.7521 71.8354C87.2999 71.9112 86.9382 72.3473 86.6672 73.1435C86.3961 73.9398 86.2344 74.7108 86.1823 75.4565C86.1294 76.1892 86.1177 76.835 86.1469 77.3939C86.1851 78.1219 86.4415 78.7862 86.9161 79.387C87.4031 79.9741 87.9261 80.253 88.485 80.2237C88.888 80.2026 89.2438 80.0275 89.5524 79.6985C89.861 79.3695 90.0944 78.9728 90.2525 78.5083C90.423 78.0301 90.5414 77.5547 90.6079 77.0819C90.6874 76.6085 90.7176 76.1898 90.6985 75.8259C90.6426 74.76 90.3534 73.8432 89.8309 73.0755C89.3084 72.3078 88.6155 71.8944 87.7521 71.8354ZM99.9015 70.8663L99.8479 71.7098C99.2979 71.6604 98.8279 71.646 98.438 71.6664C97.541 71.7134 96.8144 72.0252 96.2581 72.6018C95.7011 73.1654 95.3315 73.8234 95.1494 74.5759C94.9795 75.3148 94.9181 76.1326 94.9651 77.0295C94.9869 77.4455 95.0323 77.8146 95.1014 78.1368C95.1704 78.4591 95.2781 78.7728 95.4244 79.0779C95.5837 79.3824 95.8112 79.6181 96.1067 79.7851C96.4145 79.9384 96.7829 80.0039 97.2118 79.9814C97.7838 79.9514 98.5059 79.8028 99.3782 79.5355C99.6458 79.4172 99.8575 79.3539 100.014 79.3458C100.325 79.3294 100.533 79.6835 100.636 80.408C99.5114 80.8319 98.4615 81.0694 97.4866 81.1205C96.0698 81.1948 95.0898 80.9007 94.5468 80.2384C94.016 79.5623 93.7098 78.4444 93.628 76.8846C93.5803 75.9746 93.5973 75.1787 93.6789 74.4966C93.7727 73.8009 93.9603 73.1523 94.2416 72.5511C94.5223 71.9368 94.9469 71.4583 95.5155 71.1157C96.0971 70.7724 96.8168 70.5783 97.6747 70.5333C98.6366 70.4829 99.3789 70.5939 99.9015 70.8663ZM101.419 76.3198C101.392 75.7999 101.413 75.2187 101.484 74.5763C101.568 73.9333 101.702 73.255 101.886 72.5415C102.07 71.828 102.371 71.2257 102.788 70.7345C103.206 70.2434 103.707 69.9825 104.292 69.9519C105.54 69.8865 106.57 70.3995 107.383 71.4909C108.196 72.5692 108.638 73.7973 108.71 75.1752C108.741 75.7601 108.707 76.3485 108.607 76.9402C108.52 77.5183 108.362 78.0936 108.131 78.6662C107.9 79.2388 107.548 79.7265 107.074 80.1293C106.612 80.5185 106.057 80.7561 105.41 80.8421C104.206 80.7488 103.256 80.2903 102.562 79.4664C101.866 78.6296 101.485 77.5807 101.419 76.3198ZM104.462 70.9597C104.01 71.0355 103.648 71.4715 103.377 72.2678C103.106 73.0641 102.944 73.8351 102.892 74.5808C102.839 75.3134 102.827 75.9593 102.857 76.5182C102.895 77.2461 103.151 77.9105 103.626 78.5113C104.113 79.0983 104.636 79.3772 105.195 79.348C105.598 79.3268 105.954 79.1518 106.262 78.8228C106.571 78.4938 106.804 78.097 106.962 77.6325C107.133 77.1544 107.251 76.6789 107.318 76.2062C107.397 75.7328 107.427 75.3141 107.408 74.9502C107.352 73.8843 107.063 72.9675 106.541 72.1998C106.018 71.4321 105.325 71.0187 104.462 70.9597ZM110.452 69.981C112.444 69.4464 113.661 69.1676 114.103 69.1444C115.845 69.0531 116.755 69.7549 116.834 71.2498C116.861 71.7697 116.796 72.2814 116.64 72.7849C116.497 73.2747 116.299 73.6044 116.047 73.774C117.097 74.4098 117.654 75.3321 117.717 76.541C117.777 77.6849 117.447 78.5951 116.726 79.2715C116.019 79.9473 115.054 80.3172 113.832 80.3812C112.376 80.4575 111.27 80.1244 110.515 79.382L110.452 69.981ZM111.82 74.8167L112.203 78.7656C112.536 78.9046 112.91 78.9631 113.326 78.9413C114.132 78.8991 114.86 78.6068 115.509 78.0644C116.159 77.5221 116.466 76.9129 116.43 76.237C116.406 75.769 116.201 75.3496 115.817 74.9787C115.432 74.5948 114.96 74.4175 114.401 74.4468C114.076 74.4639 113.216 74.5872 111.82 74.8167ZM111.414 70.8104L111.708 73.8059C111.902 73.7697 112.2 73.7345 112.602 73.7004C113.004 73.6663 113.328 73.6232 113.573 73.5713C113.817 73.5064 114.085 73.3946 114.376 73.2359C114.667 73.0643 114.887 72.7855 115.037 72.3997C115.199 72.0132 115.296 71.5128 115.329 70.8985C115.179 70.5153 114.772 70.3411 114.109 70.3759C113.81 70.3915 113.345 70.4615 112.713 70.5859C112.08 70.7103 111.648 70.7851 111.414 70.8104ZM121.089 77.8307C121.1 78.0517 121.129 78.3434 121.174 78.706C121.078 79.1151 120.861 79.3285 120.523 79.3462C120.289 79.3585 120.057 79.2794 119.826 79.109C119.608 78.925 119.466 78.6978 119.4 78.4275C119.383 77.3726 119.348 75.8299 119.294 73.7994C119.253 71.7682 119.226 70.3944 119.215 69.6782L120.104 69.4752C120.303 70.2989 120.458 71.3987 120.57 72.7745C120.681 74.1503 120.787 75.1745 120.887 75.847C121.115 75.4701 121.767 74.4844 122.844 72.8899C123.92 71.2955 124.647 70.1104 125.023 69.3346C125.306 69.2677 125.487 69.2321 125.565 69.228C125.812 69.2151 125.987 69.3167 126.089 69.5329C126.205 69.7485 126.292 70.161 126.35 70.7706L127.141 78.7843C127.045 79.1804 126.827 79.3873 126.489 79.405C126.255 79.4173 126.023 79.3382 125.793 79.1678C125.574 78.9838 125.432 78.7566 125.366 78.4863C125.356 78.0567 125.334 77.0086 125.299 75.3421C125.276 73.6618 125.266 72.4697 125.268 71.7658C123.178 74.417 121.785 76.4386 121.089 77.8307ZM129.897 66.8308L129.729 66.2335C130.043 66.2561 130.349 66.2596 130.648 66.244C131.545 66.197 132.358 65.9067 133.086 65.3733C133.386 65.3836 133.644 65.4613 133.861 65.6064C134.077 65.7515 134.19 65.928 134.201 66.136C134.21 66.305 134.159 66.4445 134.047 66.5546C133.936 66.6648 133.764 66.7519 133.533 66.8162C133.301 66.8675 133.107 66.9037 132.952 66.9249C132.796 66.933 132.588 66.9439 132.328 66.9576C131.483 67.0018 130.673 66.9596 129.897 66.8308ZM130.389 77.3433C130.401 77.5642 130.429 77.856 130.474 78.2186C130.378 78.6277 130.162 78.8411 129.824 78.8588C129.59 78.8711 129.357 78.792 129.127 78.6216C128.909 78.4375 128.766 78.2104 128.7 77.9401C128.684 76.8852 128.649 75.3425 128.594 73.312C128.553 71.2808 128.527 69.907 128.515 69.1907L129.404 68.9877C129.604 69.8115 129.759 70.9113 129.87 72.2871C129.981 73.6629 130.087 74.687 130.188 75.3596C130.416 74.9827 131.068 73.997 132.144 72.4025C133.221 70.808 133.947 69.6229 134.324 68.8472C134.607 68.7802 134.788 68.7447 134.866 68.7406C135.112 68.7277 135.287 68.8293 135.39 69.0455C135.505 69.261 135.592 69.6736 135.65 70.2832L136.442 78.2969C136.345 78.693 136.128 78.8999 135.79 78.9176C135.556 78.9299 135.324 78.8508 135.093 78.6804C134.875 78.4963 134.733 78.2692 134.666 77.9989C134.657 77.5693 134.635 76.5212 134.599 74.8546C134.577 73.1744 134.566 71.9823 134.568 71.2783C132.478 73.9296 131.085 75.9512 130.389 77.3433ZM143.261 68.5157L149.835 68.2298L150.779 77.6628C150.682 78.0589 150.465 78.2658 150.127 78.2836C149.893 78.2958 149.66 78.2102 149.429 78.0268C149.199 77.8564 149.05 77.6361 148.984 77.3659C148.985 77.1312 148.966 76.3958 148.927 75.1595C148.901 73.9096 148.877 72.7182 148.857 71.5853C148.836 70.4394 148.823 69.6971 148.819 69.3584C148.453 69.3515 147.913 69.3668 147.198 69.4042C146.223 69.4553 145.409 69.4589 144.755 69.415C144.816 69.8419 144.921 71.2246 145.07 73.5629C145.218 75.8883 145.315 77.2388 145.361 77.6144C145.265 78.0235 145.048 78.2369 144.71 78.2546C144.476 78.2669 144.244 78.1878 144.013 78.0174C143.795 77.8333 143.653 77.6062 143.586 77.3359C143.591 76.684 143.577 76.033 143.543 75.3831C143.525 75.0451 143.489 74.4865 143.435 73.7073C143.381 72.928 143.342 72.3109 143.319 71.856C143.248 70.5171 143.229 69.4037 143.261 68.5157ZM152.153 73.661C152.125 73.141 152.147 72.5599 152.218 71.9175C152.301 71.2744 152.435 70.5961 152.619 69.8826C152.804 69.1691 153.104 68.5668 153.522 68.0757C153.939 67.5846 154.441 67.3237 155.025 67.2931C156.273 67.2277 157.304 67.7406 158.117 68.832C158.93 69.9104 159.372 71.1385 159.444 72.5164C159.475 73.1013 159.44 73.6896 159.341 74.2814C159.254 74.8595 159.095 75.4348 158.865 76.0073C158.634 76.5799 158.281 77.0676 157.807 77.4705C157.345 77.8596 156.791 78.0972 156.144 78.1833C154.94 78.09 153.99 77.6314 153.295 76.8076C152.6 75.9707 152.219 74.9219 152.153 73.661ZM155.196 68.3008C154.743 68.3767 154.382 68.8127 154.111 69.609C153.84 70.4052 153.678 71.1762 153.626 71.9219C153.573 72.6546 153.561 73.3004 153.59 73.8594C153.629 74.5873 153.885 75.2516 154.36 75.8524C154.847 76.4395 155.37 76.7184 155.928 76.6891C156.331 76.668 156.687 76.4929 156.996 76.1639C157.304 75.8349 157.538 75.4382 157.696 74.9737C157.866 74.4955 157.985 74.0201 158.051 73.5474C158.131 73.074 158.161 72.6553 158.142 72.2913C158.086 71.2254 157.797 70.3086 157.274 69.5409C156.752 68.7732 156.059 68.3598 155.196 68.3008ZM169.699 66.7391L170.587 66.8881C170.671 67.757 170.802 69.8747 170.978 73.2414C171.066 74.9182 171.149 76.1325 171.228 76.8844C170.241 76.9622 168.955 77.0426 167.369 77.1257C164.302 77.2865 162.272 77.3603 161.281 77.3471C161.281 76.6041 161.24 74.9574 161.159 72.4069C161.077 69.8435 161.052 68.0004 161.084 66.8778L161.973 67.0463C162.121 68.1334 162.28 69.8 162.45 72.046C162.62 74.292 162.723 75.6357 162.759 76.077C163.044 76.036 163.556 75.9961 164.297 75.9572C165.051 75.9047 165.537 75.8662 165.758 75.8416C165.76 75.3853 165.735 74.6697 165.684 73.6948C165.664 73.3178 165.628 72.7397 165.574 71.9605C165.533 71.1806 165.502 70.5956 165.482 70.2057C165.415 68.9318 165.402 67.8115 165.442 66.8449L166.33 66.9939C166.463 68.0297 166.607 69.6579 166.762 71.8787C166.931 74.0987 167.03 75.3709 167.06 75.6952C168.386 75.6257 169.315 75.5705 169.847 75.5295C169.845 74.7476 169.817 73.3348 169.762 71.2913C169.72 69.2471 169.699 67.7297 169.699 66.7391ZM174.511 82.441L173.266 81.8219C173.751 80.8711 174.601 79.0669 175.817 76.4093C174.715 75.5286 173.835 74.154 173.177 72.2854C172.518 70.4169 172.081 68.5368 171.864 66.6452L172.998 66.6444C173.08 66.953 173.254 67.6607 173.52 68.7677C173.799 69.861 174.018 70.6707 174.175 71.1969C174.333 71.723 174.596 72.3805 174.963 73.1694C175.343 73.9446 175.761 74.5939 176.219 75.1174C177.844 71.5521 178.598 68.658 178.481 66.4353L178.47 66.2208C179.152 66.2893 179.665 66.3863 180.01 66.5115C179.874 67.8873 179.622 69.2952 179.254 70.7352C178.887 72.1752 178.409 73.634 177.822 75.1116C177.234 76.5762 176.705 77.8096 176.236 78.8117C175.781 79.8132 175.205 81.0229 174.511 82.441ZM188.28 75.4433L188.383 76.2982C188.075 76.3925 187.856 76.4431 187.726 76.4499C187.232 76.4758 186.775 76.3368 186.355 76.033C185.935 75.7291 185.583 75.35 185.299 74.8957C185.014 74.4414 184.743 73.9864 184.484 73.5307C184.239 73.0743 183.977 72.6905 183.7 72.3791C183.423 72.0678 183.148 71.9193 182.875 71.9336C182.771 71.939 182.675 71.9636 182.586 72.0074C182.679 72.7846 182.836 74.0407 183.057 75.7757C182.961 76.1848 182.744 76.3982 182.406 76.4159C182.172 76.4282 181.94 76.3491 181.71 76.1787C181.492 75.9946 181.349 75.7674 181.283 75.4972C181.221 73.3107 181.139 71.2556 181.038 69.3318C180.964 67.9149 180.963 66.7875 181.037 65.9494L181.931 66.2154C182.061 66.7169 182.158 67.4417 182.22 68.39C182.283 69.3252 182.326 69.9029 182.35 70.1232C182.737 70.0378 183.064 69.8186 183.333 69.4657C183.614 69.112 183.834 68.716 183.994 68.2775C184.166 67.8383 184.346 67.4053 184.532 66.9784C184.718 66.5516 184.966 66.1867 185.276 65.8837C185.599 65.58 185.988 65.4162 186.443 65.3924C186.677 65.3801 187.045 65.439 187.547 65.5691L187.504 66.2361C187.425 66.2272 187.321 66.2262 187.191 66.233C186.671 66.2602 186.227 66.5051 185.861 66.9674C185.506 67.4162 185.245 67.9121 185.078 68.4553C184.924 68.9847 184.716 69.4975 184.455 69.9934C184.194 70.4893 183.897 70.7851 183.563 70.8808C184.05 70.9726 184.477 71.2761 184.843 71.7914C185.222 72.3059 185.51 72.8447 185.709 73.4078C185.921 73.9572 186.208 74.457 186.57 74.9073C186.932 75.3445 187.36 75.5502 187.854 75.5243C187.984 75.5175 188.126 75.4905 188.28 75.4433ZM61.1178 89.6442L60.8974 88.7955C62.6337 88.6002 65.369 88.3135 69.103 87.9353C69.4157 87.932 69.6883 88.035 69.9208 88.2444C70.1534 88.4538 70.2762 88.682 70.2891 88.9289C70.3095 89.3189 70.0611 89.5535 69.5439 89.6328L65.8886 89.6484C66.0047 90.6198 66.1118 92.0415 66.2099 93.9133C66.3203 95.7714 66.4175 97.1284 66.5014 97.9843C66.4042 98.3674 66.1866 98.5678 65.8486 98.5855C65.6277 98.5971 65.4084 98.5173 65.1909 98.3462C64.9734 98.1752 64.8318 97.961 64.7662 97.7037C64.7806 94.4965 64.8284 91.8024 64.9096 89.6215L61.1178 89.6442ZM71.8303 89.6107L71.3882 88.6367C71.7085 88.281 72.1235 87.9921 72.6332 87.7699C73.1422 87.5346 73.6502 87.4037 74.1572 87.3772C76.3539 87.262 77.5518 89.1023 77.7507 92.8979C77.778 93.4178 77.7857 94.1865 77.7738 95.2038C77.7749 96.2204 77.7888 96.9822 77.8154 97.4891C77.7325 97.8975 77.5416 98.1096 77.2426 98.1252C77.0086 98.1375 76.788 98.0317 76.5808 97.808C76.3735 97.5842 76.2624 97.3294 76.2474 97.0434C76.2427 96.9524 76.2458 96.8871 76.2567 96.8474C75.4917 97.6695 74.6542 98.1045 73.7443 98.1521C73.0554 98.1883 72.438 97.973 71.8922 97.5063C71.3586 97.0259 71.0731 96.4282 71.0357 95.7133C70.9723 94.5044 71.3831 93.388 72.2679 92.3641C73.1657 91.3394 74.2125 90.7958 75.4084 90.7331C75.4604 90.7304 75.5127 90.7342 75.5654 90.7444C75.6174 90.7417 75.6762 90.7451 75.7419 90.7547C75.8206 90.7637 75.8794 90.7671 75.9184 90.765C75.7347 89.2497 75.0904 88.5209 73.9855 88.5788C73.3356 88.6129 72.6172 88.9568 71.8303 89.6107ZM76.2252 95.5C76.2035 94.5887 76.1804 93.8991 76.1559 93.4312C76.1354 93.0412 76.0938 92.4959 76.0311 91.7954L75.8751 91.8035C74.9528 91.8649 74.126 92.2537 73.3945 92.9698C72.676 93.6852 72.3419 94.5239 72.3924 95.4858C72.4142 95.9017 72.555 96.2267 72.8149 96.4608C73.0879 96.6941 73.4063 96.8013 73.7703 96.7822C74.3422 96.7522 75.1605 96.3248 76.2252 95.5ZM84.7854 87.6022L91.3593 87.3164L92.3034 96.7494C92.2068 97.1455 91.9896 97.3524 91.6516 97.3701C91.4176 97.3823 91.185 97.2968 90.9538 97.1134C90.7233 96.943 90.5749 96.7226 90.5086 96.4524C90.5094 96.2177 90.4904 95.4823 90.4516 94.2461C90.4252 92.9962 90.4019 91.8047 90.3816 90.6718C90.3607 89.5259 90.3479 88.7836 90.3431 88.445C89.9778 88.438 89.4377 88.4533 88.7228 88.4908C87.7479 88.5419 86.9334 88.5454 86.2794 88.5015C86.3409 88.9284 86.4459 90.3111 86.5945 92.6495C86.7425 94.9749 86.8393 96.3254 86.8851 96.701C86.7892 97.11 86.5723 97.3234 86.2343 97.3412C86.0003 97.3534 85.7681 97.2744 85.5376 97.104C85.3194 96.9199 85.1771 96.6927 85.1108 96.4225C85.1158 95.7705 85.1012 95.1195 85.0671 94.4696C85.0494 94.1316 85.0136 93.573 84.9598 92.7938C84.9059 92.0146 84.867 91.3975 84.8432 90.9425C84.773 89.6037 84.7538 88.4902 84.7854 87.6022ZM93.6773 92.7475C93.6501 92.2276 93.6717 91.6464 93.7424 91.004C93.826 90.361 93.9599 89.6827 94.1441 88.9692C94.3282 88.2557 94.6291 87.6533 95.0465 87.1622C95.4639 86.6711 95.9651 86.4102 96.55 86.3796C97.7979 86.3142 98.8284 86.8272 99.6416 87.9185C100.454 88.9969 100.896 90.225 100.969 91.6029C100.999 92.1878 100.965 92.7762 100.866 93.3679C100.779 93.946 100.62 94.5213 100.389 95.0939C100.158 95.6664 99.806 96.1541 99.3318 96.557C98.87 96.9462 98.3154 97.1838 97.6682 97.2698C96.4642 97.1765 95.5147 96.7179 94.8198 95.8941C94.1242 95.0572 93.7434 94.0084 93.6773 92.7475ZM96.7202 87.3873C96.2679 87.4632 95.9063 87.8992 95.6352 88.6955C95.3641 89.4918 95.2025 90.2627 95.1503 91.0084C95.0975 91.7411 95.0857 92.3869 95.115 92.9459C95.1531 93.6738 95.4095 94.3382 95.8842 94.9389C96.3711 95.526 96.8941 95.8049 97.453 95.7756C97.856 95.7545 98.2118 95.5795 98.5204 95.2505C98.829 94.9215 99.0624 94.5247 99.2205 94.0602C99.391 93.5821 99.5095 93.1066 99.5759 92.6339C99.6554 92.1605 99.6856 91.7418 99.6665 91.3779C99.6106 90.312 99.3215 89.3952 98.799 88.6275C98.2765 87.8597 97.5835 87.4464 96.7202 87.3873ZM111.224 85.8256L112.111 85.9746C112.196 86.8435 112.327 88.9612 112.503 92.3279C112.591 94.0047 112.674 95.2191 112.753 95.9709C111.766 96.0487 110.48 96.1292 108.894 96.2123C105.826 96.373 103.797 96.4468 102.806 96.4336C102.806 95.6906 102.765 94.0439 102.683 91.4935C102.601 88.93 102.576 87.0869 102.609 85.9643L103.497 86.1328C103.646 87.2199 103.805 88.8865 103.975 91.1325C104.144 93.3786 104.247 94.7222 104.284 95.1635C104.568 95.1225 105.081 95.0826 105.822 95.0438C106.575 94.9913 107.062 94.9527 107.282 94.9281C107.284 94.4718 107.26 93.7562 107.209 92.7813C107.189 92.4044 107.152 91.8263 107.098 91.047C107.057 90.2671 107.027 89.6822 107.006 89.2922C106.94 88.0183 106.926 86.8981 106.967 85.9314L107.855 86.0804C107.987 87.1162 108.131 88.7445 108.287 90.9652C108.455 93.1852 108.554 94.4574 108.584 94.7817C109.91 94.7122 110.839 94.657 111.372 94.6161C111.37 93.8341 111.341 92.4214 111.286 90.3778C111.244 88.3337 111.224 86.8162 111.224 85.8256ZM116.035 101.528L114.791 100.908C115.275 99.9576 116.126 98.1534 117.342 95.4958C116.24 94.6151 115.36 93.2405 114.701 91.372C114.043 89.5035 113.605 87.6234 113.389 85.7317L114.523 85.7309C114.604 86.0395 114.778 86.7473 115.045 87.8542C115.324 88.9475 115.542 89.7573 115.7 90.2834C115.858 90.8095 116.121 91.467 116.488 92.2559C116.867 93.0311 117.286 93.6805 117.743 94.2039C119.368 90.6386 120.122 87.7445 120.006 85.5218L119.995 85.3073C120.676 85.3759 121.19 85.4728 121.535 85.5981C121.399 86.9738 121.146 88.3817 120.779 89.8217C120.411 91.2617 119.934 92.7205 119.346 94.1981C118.758 95.6627 118.23 96.8961 117.761 97.8982C117.305 98.8997 116.73 100.109 116.035 101.528ZM129.804 94.5299L129.908 95.3847C129.6 95.4791 129.381 95.5296 129.251 95.5364C128.757 95.5623 128.3 95.4234 127.88 95.1195C127.46 94.8157 127.108 94.4366 126.823 93.9822C126.539 93.5279 126.267 93.0729 126.009 92.6172C125.763 92.1608 125.502 91.777 125.225 91.4657C124.948 91.1543 124.673 91.0058 124.4 91.0201C124.296 91.0255 124.2 91.0502 124.111 91.0939C124.203 91.8711 124.361 93.1272 124.582 94.8622C124.486 95.2713 124.269 95.4847 123.931 95.5024C123.697 95.5147 123.465 95.4356 123.234 95.2652C123.016 95.0811 122.874 94.854 122.808 94.5837C122.745 92.3972 122.663 90.3421 122.563 88.4183C122.488 87.0014 122.488 85.874 122.561 85.0359L123.455 85.3019C123.586 85.8034 123.682 86.5283 123.745 87.4765C123.807 88.4117 123.85 88.9895 123.875 89.2098C124.262 89.1243 124.589 88.9051 124.857 88.5522C125.138 88.1986 125.359 87.8025 125.518 87.364C125.691 86.9248 125.87 86.4918 126.056 86.065C126.243 85.6381 126.491 85.2732 126.801 84.9702C127.124 84.6665 127.513 84.5027 127.967 84.4789C128.201 84.4666 128.569 84.5255 129.072 84.6556L129.028 85.3227C128.95 85.3137 128.845 85.3127 128.715 85.3195C128.195 85.3468 127.752 85.5916 127.385 86.054C127.031 86.5027 126.77 86.9986 126.603 87.5418C126.448 88.0713 126.24 88.584 125.98 89.0799C125.719 89.5758 125.422 89.8717 125.088 89.9674C125.575 90.0592 126.001 90.3627 126.367 90.8779C126.746 91.3924 127.035 91.9313 127.234 92.4943C127.445 93.0438 127.732 93.5436 128.095 93.9938C128.456 94.4311 128.884 94.6367 129.378 94.6108C129.508 94.604 129.65 94.577 129.804 94.5299ZM62.7261 105.782L69.2999 105.496L70.244 114.929C70.1474 115.325 69.9302 115.532 69.5922 115.549C69.3582 115.562 69.1256 115.476 68.8944 115.293C68.6639 115.122 68.5155 114.902 68.4492 114.632C68.45 114.397 68.431 113.662 68.3923 112.425C68.3659 111.176 68.3425 109.984 68.3222 108.851C68.3013 107.705 68.2885 106.963 68.2837 106.624C67.9184 106.617 67.3783 106.633 66.6634 106.67C65.6885 106.721 64.874 106.725 64.22 106.681C64.2815 107.108 64.3865 108.49 64.5351 110.829C64.6831 113.154 64.7799 114.505 64.8257 114.88C64.7298 115.289 64.5129 115.503 64.1749 115.521C63.9409 115.533 63.7087 115.454 63.4782 115.283C63.26 115.099 63.1177 114.872 63.0514 114.602C63.0564 113.95 63.0418 113.299 63.0077 112.649C62.99 112.311 62.9542 111.752 62.9004 110.973C62.8465 110.194 62.8076 109.577 62.7838 109.122C62.7136 107.783 62.6944 106.67 62.7261 105.782ZM71.6179 110.927C71.5907 110.407 71.6124 109.826 71.683 109.183C71.7666 108.54 71.9005 107.862 72.0847 107.149C72.2689 106.435 72.5697 105.833 72.9871 105.342C73.4045 104.851 73.9057 104.59 74.4906 104.559C75.7385 104.494 76.769 105.007 77.5822 106.098C78.3947 107.176 78.8371 108.404 78.9093 109.782C78.94 110.367 78.9056 110.956 78.8063 111.547C78.7193 112.125 78.5604 112.701 78.3298 113.273C78.0991 113.846 77.7466 114.334 77.2724 114.736C76.8106 115.126 76.256 115.363 75.6088 115.449C74.4048 115.356 73.4553 114.897 72.7604 114.074C72.0648 113.237 71.684 112.188 71.6179 110.927ZM74.6608 105.567C74.2085 105.643 73.8469 106.079 73.5758 106.875C73.3047 107.671 73.1431 108.442 73.0909 109.188C73.0381 109.921 73.0263 110.566 73.0556 111.125C73.0937 111.853 73.3501 112.518 73.8248 113.118C74.3118 113.705 74.8347 113.984 75.3937 113.955C75.7966 113.934 76.1524 113.759 76.461 113.43C76.7696 113.101 77.003 112.704 77.1611 112.24C77.3316 111.761 77.4501 111.286 77.5165 110.813C77.596 110.34 77.6262 109.921 77.6071 109.557C77.5513 108.491 77.2621 107.575 76.7396 106.807C76.2171 106.039 75.5241 105.626 74.6608 105.567ZM94.7408 103.713L95.6284 103.862C95.713 104.731 95.8436 106.848 96.02 110.215C96.1079 111.892 96.1911 113.106 96.2696 113.858C95.2831 113.936 93.9969 114.016 92.411 114.099C89.3434 114.26 87.3139 114.334 86.3226 114.321C86.3227 113.578 86.282 111.931 86.2005 109.381C86.1183 106.817 86.0934 104.974 86.1258 103.851L87.0145 104.02C87.1627 105.107 87.3217 106.774 87.4916 109.02C87.6614 111.266 87.7644 112.609 87.8006 113.051C88.0852 113.01 88.5979 112.97 89.3389 112.931C90.0921 112.878 90.5789 112.84 90.7992 112.815C90.8013 112.359 90.7769 111.643 90.7258 110.668C90.706 110.292 90.6692 109.713 90.6153 108.934C90.5744 108.154 90.5438 107.569 90.5234 107.179C90.4566 105.906 90.4435 104.785 90.4841 103.819L91.3717 103.968C91.5042 105.003 91.6482 106.632 91.8037 108.852C91.9722 111.072 92.0714 112.345 92.1014 112.669C93.4273 112.599 94.3564 112.544 94.8886 112.503C94.8868 111.721 94.8583 110.309 94.8034 108.265C94.7614 106.221 94.7405 104.703 94.7408 103.713ZM96.7529 104.8L96.5325 103.951C98.2688 103.756 101.004 103.469 104.738 103.091C105.051 103.088 105.323 103.191 105.556 103.4C105.788 103.61 105.911 103.838 105.924 104.085C105.945 104.475 105.696 104.709 105.179 104.789L101.524 104.804C101.64 105.776 101.747 107.197 101.845 109.069C101.955 110.927 102.053 112.284 102.137 113.14C102.039 113.523 101.822 113.724 101.484 113.741C101.263 113.753 101.043 113.673 100.826 113.502C100.608 113.331 100.467 113.117 100.401 112.86C100.416 109.652 100.463 106.958 100.545 104.777L96.7529 104.8ZM106.901 102.958L108.003 103.096C108.018 103.369 108.035 103.57 108.055 103.699C108.746 103.207 109.455 102.942 110.183 102.903C111.366 102.841 112.316 103.3 113.032 104.279C113.748 105.258 114.139 106.391 114.207 107.678C114.241 108.328 114.222 108.955 114.149 109.558C114.089 110.148 113.951 110.761 113.737 111.398C113.522 112.022 113.165 112.536 112.664 112.94C112.176 113.331 111.569 113.545 110.841 113.583C110.152 113.619 109.479 113.472 108.823 113.142C108.994 115.414 109.128 117.101 109.225 118.204C109.13 118.613 108.913 118.826 108.575 118.844C108.341 118.856 108.108 118.771 107.877 118.587C107.659 118.416 107.517 118.196 107.451 117.925L106.901 102.958ZM108.277 104.959L108.666 111.253C108.838 111.557 109.092 111.798 109.427 111.976C109.761 112.141 110.124 112.213 110.514 112.193C111.021 112.166 111.441 111.981 111.775 111.638C112.122 111.294 112.353 110.852 112.468 110.311C112.595 109.757 112.673 109.245 112.7 108.774C112.741 108.303 112.747 107.807 112.72 107.287C112.604 105.077 111.799 104.011 110.304 104.09C109.823 104.115 109.378 104.21 108.97 104.375C108.574 104.526 108.343 104.72 108.277 104.959ZM117.688 111.054C117.7 111.275 117.728 111.567 117.773 111.93C117.677 112.339 117.46 112.552 117.122 112.57C116.888 112.582 116.656 112.503 116.425 112.333C116.207 112.148 116.065 111.921 115.999 111.651C115.983 110.596 115.947 109.053 115.893 107.023C115.852 104.992 115.825 103.618 115.814 102.902L116.703 102.699C116.902 103.522 117.058 104.622 117.169 105.998C117.28 107.374 117.386 108.398 117.486 109.071C117.714 108.694 118.366 107.708 119.443 106.113C120.519 104.519 121.246 103.334 121.622 102.558C121.905 102.491 122.086 102.456 122.164 102.452C122.411 102.439 122.586 102.54 122.688 102.756C122.804 102.972 122.891 103.385 122.949 103.994L123.74 112.008C123.644 112.404 123.426 112.611 123.088 112.629C122.855 112.641 122.622 112.562 122.392 112.391C122.174 112.207 122.031 111.98 121.965 111.71C121.956 111.28 121.933 110.232 121.898 108.566C121.875 106.885 121.865 105.693 121.867 104.989C119.777 107.641 118.384 109.662 117.688 111.054ZM125.422 112.76L124.56 112.356C124.854 111.493 125.652 109.809 126.954 107.303C126.147 106.316 125.199 104.652 124.112 102.31L124.97 102.265C125.504 103.254 126.385 104.531 127.614 106.096C127.795 105.813 128.026 105.377 128.308 104.789C128.603 104.2 128.89 103.689 129.167 103.258C129.457 102.825 129.789 102.443 130.162 102.111C130.644 102.346 130.894 102.639 130.912 102.99C130.923 103.185 130.887 103.376 130.805 103.563C130.477 104.01 130.064 104.71 129.566 105.661C129.069 106.613 128.76 107.189 128.64 107.391C130.119 109.243 131.124 110.643 131.656 111.593C131.682 112.087 131.474 112.345 131.032 112.369C130.59 112.392 130.241 112.195 129.985 111.778C129.71 111.011 129.035 109.938 127.959 108.561C127.757 108.936 127.337 109.623 126.698 110.621C126.072 111.605 125.647 112.319 125.422 112.76ZM139.409 111.05L139.513 111.905C139.205 111.999 138.986 112.05 138.856 112.056C138.362 112.082 137.905 111.943 137.485 111.639C137.065 111.336 136.713 110.957 136.428 110.502C136.144 110.048 135.872 109.593 135.614 109.137C135.368 108.681 135.107 108.297 134.83 107.986C134.553 107.674 134.278 107.526 134.005 107.54C133.901 107.545 133.805 107.57 133.716 107.614C133.809 108.391 133.966 109.647 134.187 111.382C134.091 111.791 133.874 112.005 133.536 112.022C133.302 112.035 133.07 111.956 132.84 111.785C132.621 111.601 132.479 111.374 132.413 111.104C132.35 108.917 132.269 106.862 132.168 104.938C132.094 103.521 132.093 102.394 132.167 101.556L133.06 101.822C133.191 102.323 133.288 103.048 133.35 103.996C133.412 104.932 133.456 105.509 133.48 105.73C133.867 105.644 134.194 105.425 134.462 105.072C134.744 104.719 134.964 104.322 135.124 103.884C135.296 103.445 135.475 103.012 135.662 102.585C135.848 102.158 136.096 101.793 136.406 101.49C136.729 101.186 137.118 101.023 137.573 100.999C137.807 100.987 138.175 101.045 138.677 101.176L138.634 101.843C138.555 101.834 138.451 101.833 138.321 101.839C137.801 101.867 137.357 102.112 136.991 102.574C136.636 103.023 136.375 103.519 136.208 104.062C136.054 104.591 135.846 105.104 135.585 105.6C135.324 106.096 135.027 106.392 134.693 106.487C135.18 106.579 135.607 106.883 135.973 107.398C136.351 107.912 136.64 108.451 136.839 109.014C137.051 109.564 137.337 110.064 137.7 110.514C138.062 110.951 138.49 111.157 138.984 111.131C139.114 111.124 139.256 111.097 139.409 111.05ZM140.075 107.339C140.048 106.819 140.07 106.238 140.14 105.596C140.224 104.953 140.358 104.274 140.542 103.561C140.726 102.847 141.027 102.245 141.444 101.754C141.862 101.263 142.363 101.002 142.948 100.971C144.196 100.906 145.226 101.419 146.04 102.51C146.852 103.589 147.294 104.817 147.367 106.195C147.397 106.78 147.363 107.368 147.264 107.96C147.177 108.538 147.018 109.113 146.787 109.686C146.556 110.258 146.204 110.746 145.73 111.149C145.268 111.538 144.713 111.775 144.066 111.862C142.862 111.768 141.913 111.31 141.218 110.486C140.522 109.649 140.141 108.6 140.075 107.339ZM143.118 101.979C142.666 102.055 142.304 102.491 142.033 103.287C141.762 104.083 141.6 104.854 141.548 105.6C141.495 106.333 141.484 106.979 141.513 107.538C141.551 108.266 141.807 108.93 142.282 109.531C142.769 110.118 143.292 110.397 143.851 110.367C144.254 110.346 144.61 110.171 144.918 109.842C145.227 109.513 145.46 109.116 145.618 108.652C145.789 108.174 145.907 107.698 145.974 107.226C146.053 106.752 146.084 106.334 146.064 105.97C146.009 104.904 145.719 103.987 145.197 103.219C144.674 102.451 143.981 102.038 143.118 101.979ZM149.571 113.567L148.684 113.418C148.676 113.275 148.628 112.854 148.539 112.155C148.451 111.456 148.398 110.95 148.382 110.638C148.368 110.378 148.373 110.098 148.396 109.797L149.664 109.73C149.717 109.506 149.804 109.169 149.923 108.72C150.056 108.269 150.144 107.952 150.186 107.767C150.229 107.583 150.286 107.312 150.359 106.957C150.444 106.587 150.493 106.278 150.506 106.03C150.531 105.768 150.547 105.448 150.553 105.07C150.572 104.691 150.571 104.293 150.549 103.877C150.498 102.902 150.402 101.806 150.26 100.588C150.99 100.589 151.758 100.575 152.565 100.546C153.384 100.516 154.055 100.5 154.576 100.499C155.097 100.498 155.633 100.528 156.184 100.59C156.269 101.472 156.385 102.926 156.53 104.952C156.687 106.964 156.809 108.411 156.894 109.293L158.415 109.213L158.446 109.798C158.463 110.136 158.495 110.617 158.541 111.24C158.6 111.862 158.634 112.278 158.645 112.486C158.666 112.876 158.668 113.175 158.653 113.385L157.766 113.236C157.704 113.056 157.64 112.825 157.573 112.542C157.52 112.271 157.458 111.974 157.389 111.652C157.32 111.33 157.269 111.098 157.236 110.956C156.493 110.956 155.306 110.94 153.675 110.908C152.057 110.876 150.792 110.864 149.88 110.873L149.571 113.567ZM151.962 101.731C151.959 101.926 151.968 102.336 151.987 102.961C152.006 103.573 152.011 104.042 152.002 104.368C152.006 104.694 151.991 105.151 151.957 105.739C151.935 106.314 151.889 106.798 151.818 107.193C151.747 107.575 151.632 107.998 151.474 108.462C151.328 108.913 151.147 109.307 150.93 109.644L155.2 109.421L155.187 101.718C155.005 101.715 154.523 101.72 153.741 101.735C152.973 101.749 152.38 101.748 151.962 101.731ZM161.439 116.171L160.194 115.552C160.679 114.601 161.529 112.797 162.745 110.14C161.643 109.259 160.763 107.884 160.105 106.016C159.446 104.147 159.009 102.267 158.793 100.376L159.927 100.375C160.008 100.683 160.182 101.391 160.448 102.498C160.727 103.591 160.946 104.401 161.104 104.927C161.262 105.453 161.524 106.111 161.891 106.9C162.271 107.675 162.689 108.324 163.147 108.848C164.772 105.282 165.526 102.388 165.41 100.166L165.398 99.9511C166.08 100.02 166.593 100.117 166.939 100.242C166.802 101.618 166.55 103.026 166.182 104.466C165.815 105.906 165.337 107.364 164.75 108.842C164.162 110.307 163.633 111.54 163.165 112.542C162.709 113.544 162.133 114.753 161.439 116.171Z" fill="#3B636B"/>
<path d="M71.1438 118.373C68.7691 120.51 67.538 123.808 67.833 127.486C67.9337 129.178 68.189 131.052 68.3765 131.642C68.5773 132.275 68.6369 132.768 68.5053 132.812C68.4176 132.841 67.2422 132.344 65.9999 131.636C63.3838 130.263 59.6066 129.508 57.1045 129.869C55.0677 130.17 52.0731 132.186 50.5986 134.259C49.1108 136.289 48.4069 140.485 49.1031 142.679C49.4549 143.635 50.1866 145.024 50.7614 145.767L51.8841 147.167L48.7777 147.914C44.7102 148.84 42.6098 150.467 41.0278 153.881C38.8157 158.668 40.197 163.48 44.5328 166.148C46.9297 167.593 48.4766 167.734 54.8524 167.21C57.8734 166.957 60.4424 166.807 60.5703 166.904C60.6848 166.96 59.7527 167.687 58.4699 168.531C51.9811 172.822 50.7993 173.679 49.7477 175.099C45.5108 180.836 47.8234 188.276 54.5371 190.344C56.4201 190.934 60.4692 190.713 61.6339 189.955C62.282 189.554 62.5341 189.891 64.0521 193.911C67.9462 204.044 74.474 209.344 85.3281 211.022L88.1419 211.49L90.2295 217C92.0859 221.934 92.4718 222.692 94.2949 224.467C100.033 230.028 110.019 226.678 111.622 218.596C111.96 216.759 111.82 216.013 110.299 211.528L108.605 206.494L110.787 204.513C113.756 201.806 115.787 198.431 116.96 194.034C118.728 187.389 118.924 180.983 117.569 173.506L116.827 169.183L121.338 167.365C123.886 166.382 126.511 165.188 127.264 164.659C129.387 163.257 130.917 160.747 131.307 158.007C131.992 153.445 130.085 149.88 125.964 147.886L123.273 146.585L123.783 144.832C124.933 141.281 124.091 138.016 121.407 135.361C118.962 133 114.845 131.937 111.907 132.909C110.635 133.33 110.564 133.26 110.042 131.614C108.596 127.058 104.625 124.315 99.8068 124.557C96.4119 124.701 94.1471 125.963 91.4969 129.217C89.3572 131.789 89.5253 132.013 88.3697 125.776C87.3673 120.326 86.2958 118.629 82.6456 116.9C78.7396 114.975 74.3189 115.551 71.1438 118.373Z" fill="white"/>
<path d="M80.6803 148.641C79.2598 149.309 77.8722 150.395 76.8765 151.568C74.7568 154.088 74.1534 156.915 74.6033 162.247C74.9898 166.967 75.8685 170.598 78.1149 176.978C80.6304 184.123 81.667 186.148 83.9337 188.208C85.3419 189.505 88.0011 190.679 89.9238 190.842C92.1414 191.032 93.3123 190.844 95.6029 189.944C98.6379 188.726 99.8633 187.828 101.049 185.954C102.815 183.129 102.949 177.348 101.464 169.131C100.916 166.168 98.5919 158.918 97.2984 156.218C95.5121 152.495 93.3849 150.237 90.2864 148.789C86.8631 147.174 83.8197 147.125 80.6803 148.641ZM86.01 150.481C88.7895 150.754 91.6657 152.598 93.3714 155.172C95.1233 157.824 97.6428 164.818 98.5332 169.509C99.5081 174.657 99.8299 179.679 99.3349 182.057C98.9254 183.975 98.6653 184.534 97.7687 185.447C96.7152 186.509 93.9751 187.754 92.2885 187.937C90.6645 188.135 89.0466 187.864 87.7076 187.196C85.4059 186.064 84.4351 184.875 82.8948 181.365C81.3661 177.888 78.9381 170.451 78.2551 167.106C77.6566 164.216 77.2794 160.334 77.3705 158.322C77.5662 154.5 79.5212 151.944 83.1858 150.784C84.4226 150.405 84.8413 150.351 86.01 150.481Z" fill="#CF312C"/>
<path d="M76.2576 126.995C76.1566 127.087 76.0353 127.391 75.9935 127.705C75.8934 128.394 77.0203 133.973 77.9831 137.518C78.6861 140.109 78.727 140.226 79.2178 140.539C79.7886 140.917 80.9197 140.724 81.299 140.179C81.589 139.76 81.4699 138.719 80.9837 137.284C80.5391 136.021 79.7598 132.672 79.1693 129.481C78.7597 127.291 78.5276 126.794 77.8225 126.575C77.4586 126.46 76.6224 126.68 76.2576 126.995Z" fill="#45CDC3"/>
<path d="M59.5294 140.398C59.2922 140.709 59.1936 141.085 59.257 141.449C59.3688 142.092 59.5963 142.248 63.183 144.127C65.0074 145.087 65.5915 145.304 66.0506 145.222C67.0925 145.034 67.6142 143.74 66.9425 143.019C66.5401 142.591 65.1258 141.789 62.6936 140.58C60.7188 139.592 60.1119 139.558 59.5294 140.398Z" fill="#45CDC3"/>
<path d="M95.7703 136.634C93.9865 139.298 92.8139 141.372 92.7809 141.982C92.7258 142.636 93.1227 143.169 93.816 143.354C94.663 143.597 95.1184 143.269 95.9358 141.861C96.3471 141.137 97.2602 139.676 97.968 138.605C98.6758 137.534 99.2983 136.438 99.3747 136.168C99.6246 135.202 98.5215 134.339 97.5055 134.697C97.0653 134.852 96.6789 135.268 95.7703 136.634Z" fill="#45CDC3"/>
<path d="M52.4454 157.098C52.0637 157.419 51.8118 158.218 51.9522 158.617C52.1336 159.132 52.7167 159.599 53.2324 159.604C53.4987 159.603 54.5797 159.484 55.6151 159.344C56.6335 159.209 58.8697 159.02 60.5685 158.926C64.1701 158.722 65.0232 158.497 65.3089 157.686C65.7648 156.387 64.9065 155.624 63.2485 155.835C62.6488 155.915 61.1427 156.016 59.9081 156.077C58.0503 156.152 53.1431 156.647 52.8331 156.794C52.7823 156.812 52.6025 156.95 52.4454 157.098Z" fill="#45CDC3"/>
<path d="M107.756 143.862C105.292 145.514 102.08 148.12 101.837 148.673C101.477 149.49 102.233 150.662 103.082 150.587C103.727 150.528 104.098 150.286 106.784 148.182C108.093 147.143 109.836 145.931 110.641 145.461C111.925 144.729 112.172 144.511 112.381 143.971C112.662 143.255 112.597 143.017 112.03 142.488C111.269 141.785 110.552 142.019 107.756 143.862Z" fill="#45CDC3"/>
<path d="M113.063 157.42C109.841 158.648 109.644 158.736 109.411 159.21C108.968 160.113 109.649 161.237 110.646 161.259C111.241 161.274 119.022 158.236 119.363 157.854C119.817 157.358 119.813 156.482 119.342 155.956C118.814 155.377 118.406 155.352 117.334 155.767C116.849 155.957 114.919 156.692 113.063 157.42Z" fill="#45CDC3"/>
<path d="M66.8515 174.175C66.1884 174.67 64.4002 175.916 62.8818 176.955C60.6436 178.49 60.082 178.949 59.9 179.405C59.602 180.127 59.8009 180.691 60.485 181.067C61.0839 181.416 61.6661 181.286 62.7292 180.576C69.81 175.767 70.6803 175.05 70.3586 174.136C70.0778 173.338 69.0922 172.863 68.3478 173.182C68.2013 173.252 67.5205 173.697 66.8515 174.175Z" fill="#45CDC3"/>
<path d="M104.673 170.303C104.106 170.802 104.111 171.248 104.681 173.625C105.846 178.556 106.152 183.098 105.603 187.269C104.944 192.263 103.909 193.972 100.472 195.724C94.4931 198.744 85.5991 197.916 81.2201 193.912C79.3368 192.184 78.8054 191.27 77.0664 186.709C75.5257 182.657 75.5082 182.607 74.9906 182.435C74.3195 182.204 73.5972 182.477 73.2133 183.116C72.9186 183.631 72.931 183.72 73.6542 186.099C76.3283 194.775 80.3434 198.665 88.1222 200.109C89.8085 200.412 92.161 200.499 93.9328 200.342C94.6517 200.276 95.2918 200.256 95.3601 200.288C95.4454 200.314 96.3882 202.559 97.455 205.265C100.812 213.663 101.329 214.807 101.91 215.107C102.628 215.47 103.486 215.15 103.862 214.382C104.139 213.818 104.139 213.762 103.47 212.242C102.837 210.766 100.307 204.447 99.0359 201.16L98.4586 199.682L100.455 198.867C105.876 196.641 107.661 194.089 108.561 187.292C109.135 182.869 108.84 178.678 107.56 173.097C107.041 170.814 106.792 170.267 106.16 170.041C105.722 169.878 105.01 170.017 104.673 170.303Z" fill="#3B636B"/>
<path fill-rule="evenodd" clip-rule="evenodd" d="M87.4954 153.253C88.1372 153.613 88.3556 154.42 87.9831 155.057C87.4839 155.911 86.8979 156.676 86.332 157.378C86.1606 157.591 85.9937 157.795 85.8307 157.995C85.4374 158.476 85.0669 158.929 84.71 159.411C84.6868 159.443 84.6635 159.474 84.6403 159.506C85.4228 158.807 86.2001 158.11 86.971 157.405C87.0839 157.302 87.1949 157.201 87.3041 157.102C87.9661 156.501 88.5603 155.961 89.073 155.358C89.1244 155.297 89.1718 155.219 89.2961 154.997C89.2995 154.991 89.3029 154.984 89.3064 154.978C89.4114 154.79 89.5857 154.478 89.8464 154.187C89.7474 154.297 89.9849 154.026 90.0218 153.986C90.0658 153.938 90.1524 153.846 90.2526 153.761L90.2545 153.76C90.2899 153.73 90.4211 153.619 90.6091 153.535C90.6943 153.496 90.9457 153.39 91.2814 153.414C91.7268 153.446 92.1495 153.697 92.3717 154.121C92.6188 154.592 92.5483 155.056 92.5105 155.248C92.4635 155.486 92.3803 155.704 92.3135 155.86C92.243 156.024 92.1662 156.176 92.1071 156.289C92.0684 156.363 92.0447 156.408 92.0281 156.439C92.0121 156.469 92.0027 156.486 91.9928 156.507C91.8501 156.797 91.6959 157.085 91.5366 157.366C91.9562 156.914 92.3942 156.479 92.8489 156.062L92.851 156.06C92.9166 155.999 93.1062 155.825 93.3668 155.714C93.4794 155.666 93.8878 155.504 94.379 155.674C94.9904 155.886 95.1986 156.402 95.2527 156.671C95.3015 156.913 95.2712 157.113 95.2583 157.188C95.2416 157.286 95.2177 157.369 95.2002 157.424C95.1647 157.535 95.1211 157.639 95.0872 157.714C95.017 157.871 94.9322 158.034 94.8701 158.149C94.8132 158.255 94.7418 158.383 94.7458 158.375C94.4021 159.004 94.0408 159.652 93.6461 160.289C92.9561 161.403 92.2076 162.417 91.4326 163.416C90.3192 164.85 89.1769 166.247 88.0254 167.632C87.5366 168.22 87.0748 168.744 86.6272 169.253C86.4857 169.413 86.3456 169.572 86.2065 169.731C88.25 168.252 90.2264 166.734 92.0649 165.069C92.3465 164.814 92.6187 164.564 92.8788 164.316C93.4287 163.588 94.0087 162.879 94.6237 162.188C94.7227 162.077 94.8211 161.964 94.9189 161.851C95.1871 161.433 95.4964 160.995 95.8574 160.588C95.866 160.578 95.879 160.563 95.8959 160.543C95.9987 160.422 96.2438 160.133 96.4981 159.93C96.5226 159.911 96.586 159.861 96.6727 159.811C96.7146 159.786 96.8013 159.738 96.9188 159.698C97.0037 159.668 97.2933 159.573 97.659 159.653C98.1619 159.764 98.5143 160.133 98.6419 160.556C98.7358 160.866 98.686 161.124 98.6696 161.202C98.6322 161.381 98.5639 161.513 98.5492 161.542L98.5478 161.544C98.4858 161.665 98.4045 161.774 98.3888 161.795C98.3879 161.797 98.3872 161.797 98.3867 161.798C98.3344 161.869 98.2661 161.956 98.2352 161.995C98.2303 162.001 98.2263 162.006 98.2235 162.01C97.8578 162.476 97.4803 162.941 97.0896 163.399C97.0722 163.427 97.0547 163.455 97.0373 163.483C96.4347 164.461 95.6684 165.304 94.9002 166.051C94.6292 166.414 94.3657 166.784 94.109 167.159C94.2541 167.026 94.4006 166.896 94.5481 166.769C94.9073 166.461 95.296 166.16 95.7174 165.887C95.7172 165.887 95.7176 165.887 95.719 165.886C95.7249 165.882 95.7473 165.866 95.8023 165.826L95.814 165.817C95.8646 165.78 95.9383 165.727 96.0074 165.679C96.0086 165.679 96.0103 165.677 96.0125 165.676C96.0499 165.65 96.2353 165.521 96.4478 165.445C96.5086 165.424 96.695 165.359 96.9401 165.362C97.2125 165.365 97.7861 165.473 98.1025 166.052C98.3492 166.504 98.2435 166.925 98.2179 167.022C98.1787 167.171 98.122 167.282 98.0948 167.333C97.9809 167.547 97.8397 167.721 97.752 167.825C97.7041 167.882 97.6571 167.935 97.6218 167.975L97.6171 167.981C97.5804 168.022 97.5585 168.047 97.5398 168.069C97.091 168.597 96.6072 169.087 96.1645 169.536C96.1399 169.561 96.1154 169.586 96.0911 169.61L96.0499 169.652C93.9777 171.753 91.9344 173.824 90.0518 176.013C90.9607 175.462 91.8563 174.894 92.7355 174.304C93.2678 173.947 93.7754 173.606 94.2505 173.257C94.5165 172.915 94.7761 172.575 95.0284 172.231C95.1298 172.092 95.2115 171.953 95.3338 171.744C95.3579 171.703 95.3836 171.66 95.4114 171.613C95.412 171.611 95.4128 171.61 95.4138 171.608C95.4334 171.575 95.5168 171.432 95.6461 171.299C95.6882 171.256 95.7667 171.18 95.8796 171.106C95.983 171.038 96.204 170.912 96.5159 170.884C96.8825 170.851 97.2408 170.967 97.5118 171.199C97.742 171.396 97.843 171.618 97.8849 171.728C97.9621 171.93 97.9695 172.106 97.9711 172.144L97.9713 172.147C97.9736 172.199 97.9726 172.244 97.9717 172.268C97.9718 172.268 97.9718 172.268 97.9718 172.268C97.9754 172.287 97.988 172.352 97.9973 172.41C98.0078 172.476 98.0199 172.565 98.0247 172.67C98.0552 173.344 97.6438 173.815 97.5244 173.949C97.4326 174.052 97.342 174.138 97.2774 174.196C97.2444 174.227 97.2137 174.254 97.1916 174.273C97.166 174.296 97.1557 174.305 97.1481 174.312C96.8273 174.604 96.4913 174.879 96.1508 175.14C95.9893 175.345 95.8282 175.549 95.669 175.75C95.6308 175.798 95.5927 175.846 95.5548 175.894C95.1877 176.357 94.8308 176.81 94.4877 177.265C94.6008 177.241 94.8371 177.206 95.1198 177.28C95.4983 177.379 95.8397 177.647 96.0067 178.046C96.1411 178.367 96.1092 178.649 96.0906 178.763C96.0689 178.897 96.0311 179 96.0092 179.054C95.9649 179.165 95.9143 179.249 95.8905 179.288C95.7532 179.511 95.5072 179.804 95.4396 179.884C95.4303 179.895 95.4243 179.902 95.4225 179.905C95.2004 180.188 94.8862 180.36 94.5547 180.411C94.1922 180.691 93.8335 180.965 93.4782 181.236C92.4893 181.991 91.5269 182.726 90.5826 183.514C90.5544 183.538 90.5271 183.561 90.5005 183.583C90.3568 183.703 90.236 183.804 90.1322 183.895C89.927 184.149 89.7152 184.398 89.4956 184.644C89.4834 184.658 89.457 184.687 89.4234 184.72C89.4083 184.735 89.3727 184.77 89.3243 184.81C89.3003 184.829 89.2562 184.864 89.1972 184.902C89.1552 184.929 89.0208 185.014 88.8268 185.068C88.67 185.113 88.0694 185.243 87.5535 184.773C87.0954 184.356 87.1241 183.827 87.1302 183.729C87.1404 183.565 87.1799 183.442 87.1945 183.397C87.2137 183.339 87.2332 183.294 87.2449 183.268C87.2821 183.185 87.3216 183.121 87.3294 183.109L87.3302 183.107C87.3705 183.042 87.4227 182.969 87.4464 182.936C87.5107 182.846 87.6014 182.725 87.6582 182.652C87.8137 182.455 87.987 182.273 88.1583 182.11C88.4247 181.773 88.6776 181.428 88.9213 181.067C89.3598 180.417 89.7558 179.741 90.1773 179.02C90.179 179.017 90.1806 179.014 90.1823 179.012C88.8365 179.796 87.4732 180.543 86.1036 181.263C86.1483 181.24 85.8373 181.411 85.5808 181.532L85.5805 181.532C85.4855 181.576 85.2485 181.687 85.0103 181.739C84.9438 181.753 84.7992 181.781 84.6197 181.773C84.485 181.767 84.0048 181.728 83.6403 181.299C83.2262 180.812 83.3213 180.269 83.3839 180.059C83.4087 179.976 83.4394 179.902 83.4704 179.839C83.4349 179.838 83.3983 179.836 83.3606 179.831C83.1638 179.809 82.8868 179.732 82.6352 179.515C82.3769 179.291 82.2561 179.015 82.2103 178.788C82.1363 178.423 82.2432 178.135 82.2653 178.075L82.2666 178.071C82.3265 177.909 82.408 177.791 82.4239 177.768L82.4255 177.766C82.4759 177.692 82.5278 177.631 82.5488 177.606C82.6467 177.491 82.7906 177.342 82.8519 177.282C82.8693 177.265 82.8973 177.234 82.9636 177.152C82.9709 177.143 82.9792 177.133 82.9884 177.121C83.0447 177.051 83.134 176.94 83.228 176.836C83.4957 176.543 83.8042 176.257 84.0594 176.021C84.1436 175.943 84.2221 175.871 84.2913 175.805C84.3308 175.767 84.3823 175.717 84.4412 175.659C84.5845 175.519 84.7713 175.337 84.9334 175.194C85.2508 174.916 85.5924 174.691 85.8518 174.52L85.8581 174.516C86.1438 174.328 86.3419 174.197 86.5133 174.052C87.3845 173.317 88.0463 172.37 88.6791 171.256C88.6963 171.225 88.7134 171.195 88.7305 171.165C87.6444 171.967 86.5487 172.745 85.4592 173.511L85.4589 173.511L85.458 173.512L85.4149 173.542C85.3898 173.56 85.3559 173.584 85.3146 173.613C85.2319 173.671 85.1193 173.75 84.9869 173.842C84.7227 174.026 84.3763 174.265 84.0279 174.497C83.6852 174.725 83.3187 174.961 83.0216 175.133C82.8815 175.215 82.7106 175.308 82.5474 175.377C82.4798 175.405 82.3226 175.469 82.129 175.499C82.037 175.513 81.8296 175.538 81.5801 175.479C81.2929 175.412 80.8987 175.214 80.6801 174.767C80.5185 174.438 80.543 174.139 80.5535 174.04C80.5674 173.911 80.5971 173.809 80.6146 173.754C80.6505 173.642 80.6947 173.548 80.7192 173.499C80.7727 173.39 80.837 173.28 80.8816 173.206C80.9102 173.158 80.9477 173.097 80.9759 173.05C80.9871 173.032 80.9968 173.016 81.0039 173.005C81.0502 172.878 81.0947 172.748 81.1446 172.601C81.1547 172.571 81.1651 172.541 81.1758 172.51C81.2474 172.3 81.3304 172.061 81.4292 171.819C81.4905 171.668 81.5581 171.523 81.6303 171.382C81.2768 171.684 80.9223 171.986 80.5667 172.287C80.5667 172.287 80.5667 172.287 80.5666 172.287C80.5628 172.291 80.5587 172.295 80.5543 172.299C80.5239 172.329 80.4749 172.377 80.4195 172.427C80.3719 172.47 80.2829 172.548 80.1758 172.621C80.1255 172.655 80.0245 172.721 79.89 172.777C79.8209 172.806 79.7111 172.846 79.5719 172.869C79.4357 172.892 79.2137 172.908 78.9574 172.834C78.4658 172.692 78.2003 172.328 78.091 172.043C77.9989 171.803 78.0024 171.597 78.006 171.517C78.0137 171.348 78.0538 171.217 78.0639 171.184L78.0644 171.183C78.0923 171.092 78.1251 171.02 78.1354 170.997L78.1355 170.997C78.1639 170.934 78.1965 170.872 78.22 170.828C78.2715 170.731 78.3381 170.613 78.3997 170.505C78.5091 170.315 78.6632 170.052 78.7102 169.982C78.7409 169.936 78.7717 169.89 78.8027 169.844C79.5424 168.74 80.3565 167.525 81.3972 166.453L81.4107 166.439C81.9442 165.89 82.5028 165.315 83.1168 164.761C83.7755 164.168 84.3617 163.529 84.9035 162.827C83.4431 164.152 82.0407 165.513 80.7116 166.947C80.6152 167.051 80.5201 167.163 80.4011 167.305L80.3896 167.319C80.2798 167.45 80.1475 167.608 80.0046 167.762C80.0405 167.723 79.9106 167.872 79.8016 167.971C79.7392 168.027 79.6287 168.121 79.4799 168.205C79.3486 168.28 79.047 168.428 78.6445 168.402C78.2012 168.375 77.8439 168.146 77.6274 167.851C77.4478 167.607 77.396 167.365 77.3774 167.249C77.3397 167.015 77.3665 166.808 77.3791 166.72C77.4099 166.505 77.473 166.278 77.5226 166.113C77.6182 165.795 77.7599 165.405 77.8214 165.277C78.3028 164.276 78.8859 163.319 79.4325 162.441C80.4081 160.875 81.4482 159.352 82.5447 157.869C82.9431 157.33 83.3782 156.798 83.7875 156.297C83.9412 156.109 84.0913 155.926 84.2344 155.748C84.7784 155.072 85.2628 154.432 85.6589 153.755C86.0313 153.118 86.8535 152.894 87.4954 153.253ZM80.5959 172.258C80.5957 172.259 80.5927 172.262 80.5878 172.266C80.5937 172.261 80.5961 172.258 80.5959 172.258ZM94.6677 157.99C94.6884 157.97 94.6858 157.975 94.6631 157.994C94.6646 157.992 94.6662 157.991 94.6677 157.99ZM81.0336 172.955C81.0331 172.956 81.0323 172.957 81.0311 172.959C81.0378 172.947 81.0398 172.944 81.0336 172.955ZM97.5284 167.844C97.5444 167.834 97.5516 167.83 97.5511 167.83C97.5507 167.831 97.5427 167.836 97.5284 167.844ZM96.2308 160.242C96.2311 160.242 96.2282 160.246 96.2209 160.256C96.2268 160.247 96.2304 160.242 96.2308 160.242ZM78.6106 170.49C78.6106 170.49 78.6119 170.488 78.6144 170.486C78.6118 170.489 78.6106 170.49 78.6106 170.49Z" fill="#CF312C"/>
</g>
<defs>
<filter id="filter0_ddd_3195_42575" x="21.9863" y="20" width="203.691" height="226.213" filterUnits="userSpaceOnUse" color-interpolation-filters="sRGB">
<feFlood flood-opacity="0" result="BackgroundImageFix"/>
<feColorMatrix in="SourceAlpha" type="matrix" values="0 0 0 0 0 0 0 0 0 0 0 0 0 0 0 0 0 0 127 0" result="hardAlpha"/>
<feOffset dy="3"/>
<feGaussianBlur stdDeviation="2.5"/>
<feColorMatrix type="matrix" values="0 0 0 0 0 0 0 0 0 0 0 0 0 0 0 0 0 0 0.2 0"/>
<feBlend mode="normal" in2="BackgroundImageFix" result="effect1_dropShadow_3195_42575"/>
<feColorMatrix in="SourceAlpha" type="matrix" values="0 0 0 0 0 0 0 0 0 0 0 0 0 0 0 0 0 0 127 0" result="hardAlpha"/>
<feOffset dy="1"/>
<feGaussianBlur stdDeviation="9"/>
<feColorMatrix type="matrix" values="0 0 0 0 0 0 0 0 0 0 0 0 0 0 0 0 0 0 0.12 0"/>
<feBlend mode="normal" in2="effect1_dropShadow_3195_42575" result="effect2_dropShadow_3195_42575"/>
<feColorMatrix in="SourceAlpha" type="matrix" values="0 0 0 0 0 0 0 0 0 0 0 0 0 0 0 0 0 0 127 0" result="hardAlpha"/>
<feOffset dy="5"/>
<feGaussianBlur stdDeviation="5"/>
<feColorMatrix type="matrix" values="0 0 0 0 0 0 0 0 0 0 0 0 0 0 0 0 0 0 0.14 0"/>
<feBlend mode="normal" in2="effect2_dropShadow_3195_42575" result="effect3_dropShadow_3195_42575"/>
<feBlend mode="normal" in="SourceGraphic" in2="effect3_dropShadow_3195_42575" result="shape"/>
</filter>
</defs>
</svg>
