<svg width="240" height="280" viewBox="0 0 240 280" fill="none" xmlns="http://www.w3.org/2000/svg">
<g clip-path="url(#clip0_3195_42576)">
<g filter="url(#filter0_ddd_3195_42576)">
<path d="M19.5 105.583C16.8786 90.2909 14.6133 79.2981 12.6052 55.6721C12.6052 49.6281 9.99464 44.4632 15.6174 41.3863C22.6458 37.5402 146.647 33.6943 157.189 33.1449C167.732 32.5955 182.735 32.5789 178 52.9766C171.5 80.9768 155.034 89.7788 146.5 91.9766C132.449 95.5949 140.267 104.004 127 107.477C118.568 109.684 86.1747 108.105 79 107.477C66.4493 106.378 51.5568 110.885 37.5 113.083L37.4507 113.091C23.438 115.281 21.222 115.628 19.5 105.583Z" fill="white"/>
<path d="M194.866 47.3315C190.896 48.2109 184.367 52.048 178.079 57.2175C176.986 58.0968 175.92 58.9495 175.734 59.0561C175.521 59.1893 174.668 58.8962 173.549 58.31C165.022 53.8067 155.216 57.0842 151.459 65.6645C150.499 67.8228 150.02 71.0471 150.18 74.3779C150.233 76.0833 150.366 77.6555 150.446 77.8687C150.553 78.1351 150.046 78.6148 148.821 79.4142C147.115 80.5067 145.783 81.5726 143.705 83.5711C143.092 84.1573 142.399 84.5303 141.679 84.6369C138.535 85.1699 134.698 88.1809 133.126 91.3253C131.82 93.8833 130.754 99.4259 130.967 102.357L131.047 103.636L129.848 102.57C127.823 100.758 126.118 100.119 123.32 100.119C121.268 100.119 120.682 100.225 119.403 100.838C117.431 101.771 115.352 103.849 114.473 105.794C114.1 106.62 113.754 107.34 113.754 107.367C113.727 107.393 112.288 107.127 110.529 106.754C106.106 105.821 97.5525 105.555 93.209 106.247C84.0692 107.633 76.4749 110.831 69.4668 116.187C67.6282 117.572 66.589 118.159 64.8303 118.745C55.424 121.889 49.242 128.284 47.5366 136.678C46.8704 139.849 46.8438 141.208 47.3501 144.086C47.7764 146.431 48.3626 148.349 49.162 149.895C49.615 150.801 49.695 151.6 49.7483 156.29C49.9081 167.455 51.8533 174.063 61.8459 197.246C63.8977 202.016 66.4025 207.931 67.4417 210.436C68.4543 212.914 70.0264 216.618 70.9057 218.643L72.5312 222.294L71.4653 222.853C70.4261 223.36 70.2396 223.386 66.2959 223.067C61.686 222.694 59.5809 222.907 57.3959 224.026C53.7453 225.865 51.5069 230.315 52.3063 234.178C53.159 238.282 55.877 241 60.1938 242.119C62.4054 242.679 68.1078 243.531 71.8917 243.904C73.6504 244.064 76.7147 244.597 78.6866 245.077C83.1366 246.169 85.9611 246.569 87.3468 246.329C87.933 246.223 89.0788 246.223 89.8782 246.356C91.2638 246.596 93.6887 246.409 98.4585 245.69C99.7375 245.503 100.803 245.53 102.269 245.77C104.64 246.143 107.438 245.956 109.011 245.343C109.917 244.97 110.263 244.944 110.982 245.21C112.395 245.716 116.818 245.85 119.403 245.477C121.455 245.183 122.014 245.21 123.853 245.61C128.516 246.596 133.685 246.409 136.084 245.13C136.696 244.837 137.229 244.571 137.309 244.597C137.389 244.624 139.628 244.89 142.266 245.237C147.009 245.823 147.142 245.823 149.514 245.37C151.885 244.917 151.992 244.917 154.15 245.45C160.172 246.915 165.049 247.342 168.539 246.729C169.818 246.489 171.177 246.143 171.604 245.93C172.137 245.663 173.043 245.583 174.935 245.69C178.079 245.823 180.717 245.397 182.476 244.464C183.568 243.851 183.994 243.771 184.874 243.931C186.526 244.224 190.869 244.171 192.601 243.851C199.476 242.572 203.153 235.484 200.142 229.249C199.103 227.064 195.906 224.426 193.054 223.36C191.029 222.587 187.032 222.027 183.675 222.027C182.129 222.027 180.051 221.894 179.038 221.761C176.747 221.415 174.082 220.082 174.082 219.283C174.082 218.723 175.308 205.48 175.547 203.428C175.627 202.682 175.974 201.882 176.48 201.243C177.573 199.857 178.718 197.459 179.251 195.381L179.731 193.649L182.289 193.729C188.658 193.942 193.667 191.384 195.932 186.747C196.785 185.042 196.865 184.695 196.865 182.35C196.865 180.938 196.758 179.313 196.652 178.7C196.465 177.741 196.492 177.607 197.051 177.341C198.091 176.888 200.622 174.41 201.475 173.051C203.26 170.226 203.633 166.469 202.434 162.925C200.808 158.049 197.051 152.106 192.788 147.656L190.31 145.045L191.455 144.752C194.493 143.979 195.719 143.553 198.357 142.354C201.794 140.835 204.832 138.89 208.056 136.145C210.694 133.907 214.025 130.096 214.985 128.204C215.784 126.632 216.264 123.941 216.05 122.235C215.544 118.159 211.867 114.481 207.79 113.975C206.271 113.762 203.42 114.215 202.247 114.828C201.821 115.041 201.421 115.174 201.368 115.094C201.315 115.041 201.581 114.295 201.954 113.442C202.354 112.589 202.807 111.39 202.967 110.777C203.26 109.685 203.447 109.525 209.522 105.475C213.253 102.97 217.116 100.625 219.115 99.639C223.112 97.6938 224.817 96.1483 226.203 93.1905C227.562 90.366 227.882 87.728 227.295 84.104C226.682 80.2402 225.856 77.9486 223.245 72.6725C217.782 61.5609 209.442 51.3552 203.42 48.2908C200.862 47.0118 197.824 46.6653 194.866 47.3315ZM152.311 204.6C153.164 204.68 153.937 204.92 153.99 205.08C154.044 205.24 153.404 208.677 152.525 212.701C151.672 216.725 150.846 220.615 150.713 221.361C150.553 222.241 150.34 222.667 150.126 222.614C149.94 222.587 148.608 222.347 147.195 222.107L144.611 221.654L145.863 217.791C146.529 215.659 147.675 211.715 148.394 209.024C149.593 204.6 149.753 204.174 150.233 204.281C150.526 204.334 151.459 204.494 152.311 204.6Z" fill="white"/>
<path fill-rule="evenodd" clip-rule="evenodd" d="M133.35 138.703C127.302 136.681 113.106 132.358 102.736 129.741C92.3663 127.123 85.8232 126.211 79.9345 126.39C74.0458 126.568 67.146 128.492 63.6168 130.494C60.0873 132.497 58.2632 135.233 57.3908 137.791C56.5185 140.349 56.5978 142.728 57.2917 144.929C57.9856 147.129 59.2943 149.152 60.9596 150.421C62.6252 151.69 66.3132 151.551 67.939 151.848C69.5648 152.146 70.7941 152.225 71.0717 151.709C71.3493 151.194 70.675 150.084 69.8226 148.973C68.9698 147.863 67.9387 146.753 66.9277 146.118C65.9167 145.484 64.9252 145.325 64.5882 144.136C64.2511 142.946 64.5682 140.725 64.8658 140.091C65.1632 139.456 65.4406 140.408 66.0553 141.479C66.6701 142.549 67.6216 143.739 68.4544 144.294C69.2872 144.849 70.0009 144.77 70.6156 144.492C71.2302 144.215 71.7458 143.739 71.845 142.986C71.9441 142.232 71.6269 141.201 70.9526 140.349C70.2785 139.496 69.2477 138.822 68.3355 137.989C67.4233 137.156 66.6303 136.165 66.3527 135.015C66.0751 133.865 66.3132 132.556 68.1966 131.545C70.0802 130.534 73.6094 129.82 85.05 131.307C96.4903 132.794 116.235 134.971 126.569 138.465C133.987 140.973 146.034 144.195 144.942 142.28C144.743 141.933 135.906 139.558 133.35 138.703Z" fill="#3B636B"/>
<path fill-rule="evenodd" clip-rule="evenodd" d="M181.04 231.818C178.863 231.29 177.081 230.77 172.079 230.807C171.799 230.809 170.949 230.82 170.571 230.766C170.729 230.803 170.76 230.836 170.902 230.912L170.808 231.077C170.208 230.85 169.781 230.701 169.662 230.662L169.081 230.837C167.752 231.539 168.671 231.907 170.224 232.097L170.197 232.145C171.302 232.87 172.911 233.639 173.959 234.267C168.579 233.383 150.025 229.995 153.158 233.093C153.634 233.563 155.122 234.085 156.894 234.597C150.205 233.203 148.064 230.878 137.023 230.439L137.025 230.474L136.919 230.442L136.067 230.695C135.187 231.286 135.76 231.597 137.119 231.84L137.127 231.954C138.71 232.56 140.728 233.229 142.461 233.901C136.655 233.138 124.778 231.558 122.896 231.302C120.906 230.69 120.288 231.956 121.207 232.439C121.548 232.585 123.76 233.508 125.786 234.368C118.614 232.817 108.421 229.088 109.79 232.006C109.966 232.383 110.535 232.986 111.401 233.558C112.714 233.148 99.9564 231.108 109.031 233.99C116.935 236.501 116.674 234.799 114.34 233.207C120.051 234.782 130.682 237.763 131.651 235.87C131.943 235.302 130.518 234.426 128.735 233.592C135.911 234.584 145.657 235.84 145.894 235.824C149.821 235.563 146.915 234.021 143.397 232.654C145.015 232.898 146.668 233.224 148.113 233.707C151.96 234.994 161.082 237.697 165.824 237.017C169.281 236.521 164.529 234.885 160.352 233.682C166.451 234.527 174.352 236.291 176.203 235.901C179.29 235.25 176.561 233.573 173.738 232.289C175.004 232.306 176.01 232.282 176.056 232.286L175.808 232.212C189.619 235.922 191.704 233.844 189.854 232.985C188.938 231.477 184.352 231.396 182.241 231.317C181.688 231.317 181.218 231.526 181.04 231.818Z" fill="#CCCCCC"/>
<path fill-rule="evenodd" clip-rule="evenodd" d="M165.038 197.375C164.354 197.957 161.281 213.069 159.953 218.977C158.625 224.886 158.545 226.631 159.418 228.296C160.29 229.962 162.114 231.548 164.85 232.579C167.586 233.61 167.353 234.014 169.792 233.915C172.231 233.815 173.46 233.141 173.738 232.289C174.507 229.924 166.339 227.914 164.354 225.203C163.542 224.093 163.145 222.903 163.562 217.51C163.978 212.117 165.723 196.794 165.038 197.375Z" fill="#3B636B"/>
<path fill-rule="evenodd" clip-rule="evenodd" d="M164.213 132.478C161.061 133.767 159.632 134.181 156.968 131.29C156.108 134.691 162.478 137.517 164.213 132.478Z" fill="#3B636B"/>
<path fill-rule="evenodd" clip-rule="evenodd" d="M170.423 76.5737C176.228 67.9725 156.76 60.9517 158.817 76.8315C160.022 86.134 174.597 79.8472 175.707 94.3369C175.715 94.7456 176.053 95.0704 176.461 95.0625C176.87 95.0545 177.195 94.7166 177.187 94.3082C175.996 78.8127 161.295 84.5103 160.287 76.6562C158.842 65.3949 171.086 67.4117 169.696 74.4958C168.463 80.7736 161.663 74.389 166.723 74.3526C167.131 74.3821 167.485 74.0753 167.515 73.6677C167.544 73.2601 167.237 72.9058 166.83 72.8763C159.527 72.9559 165.921 83.2441 170.423 76.5737Z" fill="#3B636B"/>
<path fill-rule="evenodd" clip-rule="evenodd" d="M205.483 124.068C200.7 126.457 196.102 127.379 191.719 127.373C187.451 127.368 183.384 126.509 179.619 123.485C176.117 120.147 172.624 117.303 169.169 116.633C166.746 116.163 165.008 116.585 163.874 117.565C163.118 116.271 161.611 115.308 159.166 114.969C155.68 114.485 151.455 116.045 147.06 118.069C142.519 119.711 138.394 119.207 134.353 117.83C130.204 116.417 126.152 114.056 122.4 110.248C126.773 126.618 145.685 137.807 160.962 126.885C161.602 126.255 162.172 125.581 162.656 124.886C162.889 125.701 163.21 126.523 163.613 127.326C174.531 142.605 196.046 138.141 205.483 124.068Z" fill="#3B636B"/>
<path d="M174.81 109.92C174.063 109.866 173.501 109.217 173.555 108.47C173.609 107.723 174.258 107.161 175.005 107.215C175.752 107.269 176.314 107.918 176.26 108.665C176.206 109.412 175.557 109.974 174.81 109.92Z" fill="black"/>
<path d="M155.842 106.48C155.192 106.433 154.703 105.868 154.75 105.217C154.797 104.567 155.362 104.078 156.012 104.125C156.662 104.172 157.151 104.737 157.105 105.387C157.058 106.038 156.492 106.527 155.842 106.48Z" fill="black"/>
<path fill-rule="evenodd" clip-rule="evenodd" d="M211.27 84.0989C211.397 84.6704 211.551 85.3667 211.695 86.0403C211.329 85.1423 210.84 83.9544 210.268 82.6099C210.605 83.1095 210.939 83.6059 211.27 84.0989ZM212.414 88.4507C212.425 88.4562 212.436 88.463 212.446 88.4715L212.408 88.3905C212.388 88.2142 212.35 87.9853 212.292 87.7004C212.332 87.7209 212.37 87.7505 212.404 87.7897C212.39 87.7599 212.321 87.5881 212.205 87.2999C212.045 86.5918 211.79 85.6166 211.423 84.3261C211.799 84.8879 212.172 85.4447 212.54 85.9955C212.498 85.6543 212.445 85.3153 212.381 84.9776C212.953 85.5636 213.536 86.1165 214.131 86.6298C213.421 85.1885 212.512 83.5387 211.47 81.7818C209.557 76.7003 205.726 71.9821 203.163 67.3973C203.029 67.1577 198.341 57.2802 198.251 62.4877C198.244 62.9024 198.27 63.3363 198.326 63.7853L197.63 63.8509C195.933 61.4877 194.641 60.56 194.19 62.3886C193.97 63.2828 194.339 64.6091 195.077 66.2239C192.862 63.4157 191.034 61.6596 190.22 62.1711C189.239 62.7869 189.6 64.3321 190.738 66.4132C189.727 65.6381 188.913 65.3128 188.399 65.6225C188.132 65.7839 187.96 66.0198 187.865 66.3164C186.948 65.9937 186.274 66.3098 185.958 67.4996C185.263 70.1085 188.244 74.3514 191.762 78.778C192.01 78.6921 192.275 78.6159 192.56 78.5531C193.516 78.2631 194.526 78.8028 194.816 79.7587C195.106 80.7146 194.555 81.8852 193.599 82.1754C191.719 83.0367 191.112 83.767 190.032 84.2484C191.107 85.5802 192.222 87.0136 193.469 88.7507C193.752 89.7087 193.205 90.715 192.246 90.9981C191.289 91.2813 190.282 90.734 189.999 89.7762C189.91 89.6665 188.602 88.1338 187.064 86.2725C186.507 86.7805 185.902 87.3853 185.19 88.1193C185.929 89.0127 186.668 89.9154 187.386 90.8051C188.06 91.9875 188.759 93.1815 189.453 94.3212C188.154 92.4038 186.632 90.2687 185.132 88.1791C184.884 88.434 184.624 88.7043 184.348 88.9911C183.632 89.6879 182.487 89.6721 181.791 88.956C181.637 88.7984 181.519 88.6199 181.434 88.4304C180.645 87.504 179.872 86.5696 179.145 85.648C177.551 83.0544 175.994 80.4874 174.456 78.1653L174.449 78.1527L174.452 78.1598L174.366 78.0298L173.723 78.3543C174.768 82.0146 177.701 85.8191 180.93 89.53C183.663 93.5899 186.498 97.4033 188.694 99.1051C186.85 97.1597 185.085 94.8089 183.377 92.287C184.155 93.153 184.926 94.0101 185.671 94.8556C188.491 98.9545 190.902 101.888 190.785 99.7301C190.75 99.0771 189.339 97.3696 187.363 95.1361C186.335 93.6081 185.167 91.8138 183.988 89.9581C184.223 90.2515 184.468 90.5571 184.727 90.8784L191.9 100.866C193.009 101.4 193.196 100.963 192.775 99.8933L192.956 99.8453C192.627 99.3094 192.298 98.7887 191.969 98.2812C191.887 98.1352 191.799 97.9846 191.708 97.8299C193.942 101.068 195.737 102.797 195.907 100.318C195.98 99.2519 193.455 95.4675 190.184 91.2204C189.561 90.1469 188.928 89.042 188.31 87.9513C191.052 91.3408 193.764 94.55 196.677 98.6097L197.158 97.1697L198.58 97.4843C198.227 96.9973 197.877 96.5223 197.529 96.0572L197.632 95.7493L194.943 91.2836C196.085 92.6456 197.1 93.9619 197.916 95.2149C197.852 95.0863 197.809 94.9592 197.787 94.8353C198.342 95.5075 198.751 95.9204 198.929 95.9346C200.284 96.043 200.512 95.3676 200.089 94.2896L200.25 94.4303C200.139 94.2432 200.012 94.0357 199.873 93.8134C199.53 93.1333 198.995 92.3382 198.356 91.4995C197.47 90.1872 196.402 88.6515 195.258 87.0181C198.215 90.1967 200.864 92.5989 202.171 92.6964C202.993 92.7579 203.461 92.5564 203.646 92.1454C203.887 92.4523 204.117 92.7312 204.334 92.9769L204.372 93.0439L204.391 93.0405C205.114 93.849 205.692 94.2911 206.073 94.2218C206.929 94.0657 207.213 93.4681 207.077 92.5512L207.25 92.5195C207.248 92.5158 207.147 92.3397 206.966 92.0287C206.883 91.7278 206.768 91.4023 206.621 91.053C207.354 91.8267 208.075 92.5103 208.78 93.0755C209.075 92.9965 209.164 93.0028 209.411 92.8159C210.137 92.2654 210.19 91.1932 209.768 89.7693C209.799 89.7137 209.827 89.6544 209.85 89.5916C210.137 89.8946 210.387 90.0891 210.594 90.16C211.073 90.3245 211.402 90.3193 211.608 90.1737C211.668 90.1621 211.72 90.1086 211.763 90.005C211.842 89.8635 211.875 89.6678 211.87 89.4282C211.876 89.3433 211.882 89.2526 211.885 89.1516C211.894 88.9022 211.885 88.6407 211.864 88.37C211.954 88.5023 212.025 88.5875 212.078 88.6323C212.329 88.9792 212.464 88.9782 212.414 88.4507ZM191.582 78.8434C188.441 75.3221 185.701 71.9389 184.623 70.0834C184.607 70.0573 179.579 67.0796 183.63 74.248C181.791 72.1226 180.222 70.4971 179.722 70.5031C177.042 70.5372 178.813 73.9746 181.481 77.6486C181.169 78.1946 181.239 79.3343 182.289 81.3658C182.289 81.3658 182.466 81.7133 182.776 82.3117C179.426 78.5966 176.621 75.9777 176.117 76.5972C175.522 76.1438 175.124 76.4892 175.481 77.7984L175.458 77.7744L175.488 77.8229C175.72 78.6586 176.255 79.88 177.235 81.5301C177.235 81.5301 179.064 84.6117 181.378 88.288C181.155 87.6453 181.307 86.9037 181.826 86.3983C182.964 85.2106 183.907 84.2552 184.785 83.4691C183.287 81.5867 182.028 79.8979 181.935 79.4289C181.853 78.4332 182.595 77.5603 183.591 77.4794C184.384 77.4148 185.1 77.873 185.399 78.5658C186.19 79.5702 186.939 80.4848 187.674 81.3766C188.918 80.7028 189.818 79.5114 191.582 78.8434Z" fill="#45CDC3"/>
<path fill-rule="evenodd" clip-rule="evenodd" d="M195.967 58.1215C189.127 59.9506 171.609 73.7151 172.171 80.3831C175.032 72.8214 189 61.6107 196.455 59.993C198.588 59.5301 215.196 81.1276 213.195 89.2722C204.627 93.2618 201.225 96.1114 193.353 101.226C192.445 101.248 191.727 102.002 191.75 102.91C191.772 103.818 192.526 104.536 193.434 104.514C201.596 100.258 206.068 95.4462 214.736 91.6386C222.475 88.2393 201.439 56.6586 195.967 58.1215Z" fill="#3B636B"/>
<path fill-rule="evenodd" clip-rule="evenodd" d="M186.261 123.378C188.75 112.147 186.391 104.585 182.825 98.0992C182.412 97.3081 181.966 96.5383 181.486 95.7927C184.413 102.511 186.859 108.169 185.961 118.064C182.429 156.997 138.588 153.065 141.899 114.268C143.487 95.6562 154.425 87.2985 167.129 87.8158C167.753 87.9283 168.632 87.2463 169.091 86.2925C169.551 85.3387 169.418 84.4737 168.794 84.3611C157.08 84.0588 144.725 90.2053 140.38 109.464C131.211 150.094 177.395 163.393 186.261 123.378Z" fill="#3B636B"/>
<path fill-rule="evenodd" clip-rule="evenodd" d="M173.098 148.534C170.319 145.611 174.197 153.438 174.195 153.513C173.793 153.382 173.418 153.145 173.078 152.838C172.634 151.524 171.893 150.433 171.303 149.847C171.273 149.74 171.246 149.636 171.224 149.534C171.227 149.605 171.212 149.673 171.184 149.733C170.377 149.001 169.937 149.328 171.154 151.525L171.264 151.719C171.429 152.206 171.603 152.737 171.765 153.254C171.359 152.567 170.93 151.861 170.556 151.326L170.538 151.257L170.533 151.292C169.735 150.158 169.198 149.83 169.697 152.188C169.259 150.78 168.776 150.193 168.018 151.424C166.86 153.305 169.123 161.512 169.981 166.19C168.272 162.539 167.378 157.434 167.131 153.892L167.132 153.931L167.019 153.989C166.95 153.594 166.895 153.34 166.859 153.264L165.381 154.032C165.449 155.365 165.566 156.592 165.742 157.759C166.123 161.741 166.565 166.6 166.861 171.006C166.573 170.061 166.274 169.109 165.97 168.158C164.704 162.122 163.198 156.468 161.753 154.961C161.439 153.787 161.233 152.822 161.184 152.137C161.074 150.599 156.426 148.106 158.53 154.002C160.788 160.33 161.066 168.193 161.661 176.147C159.467 168.72 157.896 161.09 157.867 153.517C157.855 150.449 154.538 148.151 153.864 155.29L153.765 154.83L153.75 154.827C153.598 154.063 153.419 153.164 153.2 152.092C152.977 150.998 152.359 150.862 151.59 150.659C151.318 151.863 151.125 152.94 150.999 153.922C150.829 153.662 150.604 153.288 150.235 152.745C150.003 151.178 149.956 151.209 148.128 150.814C147.836 151.115 147.644 151.684 147.535 152.467C146.459 146.995 144.288 147.628 144.515 151.7C144.578 152.821 144.867 156.245 145.328 160.669C144.584 158.446 143.887 156.597 143.293 155.369L143.291 155.333L143.286 155.354C141.592 151.86 140.75 153.426 142.1 165.659C142.1 165.662 142.524 168.492 143.146 172.214C142.13 171.16 141.653 172.968 142.66 180.536C142.66 180.536 143.588 186.339 143.477 188.286C142.277 186.549 140.532 180.386 139.842 179.902L139.474 180.021C139.146 180.687 141.131 185.785 141.799 188.499C141.605 187.301 141.256 185.629 140.92 184.101C147.054 199.184 142.75 179.288 142.903 174.005C143.167 174.467 143.457 175.075 143.759 175.784C144.872 182.088 146.297 189.128 147.207 189.808C149.857 191.786 147.569 182.269 145.268 176.36C144.652 172.309 144.196 168.027 143.868 164.096C144.844 167.496 146 171.38 147.1 175.126C148.661 185.918 150.753 195.609 152.882 192.249C153.374 191.472 151.493 182.642 149.121 173.635C148.968 172.603 148.819 171.559 148.676 170.513C149.436 172.881 150.338 175.562 151.202 178.202C152.507 184.029 153.77 188.903 154.283 190.472C154.729 191.835 156.267 193.129 156.803 191.642C157.644 194.029 158.701 195.114 160.017 193.445C160.092 193.35 160.154 193.235 160.208 193.106C161.599 195.59 163.447 195.483 163.416 190.855C163.914 192.179 164.44 193.555 164.993 194.994C165.116 195.327 165.243 195.659 165.376 195.988L168.097 194.631L167.284 192.467C165.408 186.896 164.821 180.498 164.323 174.086C165.085 178.276 165.81 182.121 166.591 184.397C166.594 184.666 166.595 184.937 166.592 185.209L166.872 185.138C167.448 186.503 168.06 186.971 168.741 186.071C169.615 184.918 169.573 182.495 169.02 179.437C169.324 177.111 169.005 171.835 168.524 166.624C172.508 175.258 171.811 167.921 170.691 160.94C170.824 161.113 170.963 161.273 171.111 161.419C173.4 163.667 172.433 158.592 171.501 154.835C172.329 156.204 173.192 157.235 173.392 155.989C173.473 155.485 173.482 154.983 173.436 154.494C173.888 156.286 176.526 152.141 173.098 148.534ZM170.289 154.532C170.437 155.049 171.108 157.225 171.419 158.928C170.955 157.518 170.607 155.93 170.289 154.532ZM141.799 188.499C141.956 189.133 142.04 189.637 142.006 189.924C141.99 189.91 141.972 189.893 141.953 189.874C141.956 189.592 141.898 189.106 141.799 188.499ZM142.006 189.924C142.004 189.941 142.002 189.959 141.999 189.975C142.012 189.963 142.028 189.949 142.047 189.953C142.035 189.946 142.021 189.937 142.006 189.924ZM142.047 189.953L142.051 189.953L142.05 189.954L142.047 189.953ZM141.953 189.874C141.706 189.62 141.211 188.886 141.135 188.781C141.723 190.219 141.947 190.404 141.953 189.874Z" fill="#45CDC3"/>
<path fill-rule="evenodd" clip-rule="evenodd" d="M138.716 143.281C138.384 147.399 136.818 192.729 138.982 193.779C139.922 194.234 141.339 194.258 142.7 194.206C150.475 193.904 166.862 199.291 168.495 194.473C171.12 186.731 174.213 159.03 175.693 149.079C172.248 158.099 168.707 189.759 166.594 194.127C159.877 193.552 147.15 190.988 140.725 191.925C142.459 177.206 140.389 159.52 141.788 144.145C142.122 141.34 139.081 140.93 138.716 143.281Z" fill="#3B636B"/>
<path fill-rule="evenodd" clip-rule="evenodd" d="M169.22 102.126C167.765 100.508 165.197 100.126 162.945 101.11C159.156 96.2627 148.902 93.9699 143.15 95.1747C140.9 95.6452 140.61 97.0828 140.187 99.0883C139.246 103.546 140.08 108.435 142.888 110.802C144.37 112.052 146.104 112.972 147.93 113.48C149.771 113.991 151.708 114.084 153.581 113.671C157.711 112.762 161.487 109.435 163.153 102.793C165.151 102.508 166.569 102.759 168.445 103.649C167.864 110.486 170.361 114.865 173.978 117.064C175.617 118.061 177.479 118.6 179.386 118.712C181.278 118.823 183.217 118.514 185.024 117.811C188.494 116.463 191.864 112.388 192.726 107.937C193.262 105.165 193.451 104.812 191.174 103.494C185.775 100.368 174.786 98.5244 169.22 102.126ZM190.31 105.488C189.736 111.846 186.015 117.985 179.352 117.594C172.699 117.203 169.437 109.556 169.996 103.219C175.81 100.008 185.378 101.294 190.31 105.488ZM142.721 97.5713C141.206 103.773 141.894 110.646 148.324 112.433C154.746 114.217 160.308 108.038 161.83 101.861C156.392 95.8619 147.12 95.8401 142.721 97.5713Z" fill="#CF312C"/>
<path fill-rule="evenodd" clip-rule="evenodd" d="M184.333 158.929C187.305 162.953 187.347 165.532 184.651 166.364C181.954 167.197 176.363 168.466 173.289 169.854C170.216 171.242 169.661 172.749 169.621 174.355C169.582 175.961 170.057 177.666 171.267 179.252C172.477 180.838 174.42 182.306 176.482 183.257C178.544 184.209 180.725 184.645 182.549 184.506C184.373 184.368 185.84 183.654 186.177 182.663C186.514 181.671 185.721 180.402 184.155 179.569C182.589 178.737 180.249 178.34 178.445 177.686C176.64 177.031 175.371 176.119 174.816 175.009C174.261 173.899 174.419 172.59 174.955 171.837C175.49 171.083 176.402 170.885 178.762 170.865C181.121 170.845 184.928 171.004 187.466 170.647C190.004 170.29 191.273 169.417 191.888 168.645C192.502 167.871 192.462 167.197 191.689 165.373C190.916 163.549 189.409 160.575 186.614 157.006C180.622 149.357 169.169 144.182 170.469 145.699C172.498 148.07 179.218 152.001 184.333 158.929Z" fill="#3B636B"/>
<path fill-rule="evenodd" clip-rule="evenodd" d="M140.299 146.932C138.692 140.431 135.377 134.781 129.765 129.022C109.184 107.902 74.7842 113.968 62.8409 140.281C61.9296 142.29 61.2286 144.258 60.7095 146.198C60.4324 147.196 60.1994 148.199 60.0085 149.206C59.4093 152.367 59.2244 155.56 59.3897 158.703C59.5503 161.753 60.0388 164.751 60.8445 167.922C61.6475 171.085 62.7661 174.423 64.1889 178.162C66.5313 184.317 69.7133 191.589 72.9486 198.982C73.3714 199.948 73.7954 200.917 74.2185 201.886C79.8937 216.082 86.6226 231.577 89.8598 233.271C93.785 235.326 102.228 226.123 104.498 224.032C118.639 211.008 132.791 193.506 138.707 174.359C139.404 172.412 139.945 170.589 140.362 168.856C141.155 165.566 141.503 162.607 141.635 159.746C141.767 156.88 141.683 154.109 141.279 151.392C141.055 149.892 140.735 148.408 140.299 146.932Z" fill="white"/>
<path fill-rule="evenodd" clip-rule="evenodd" d="M139.171 198.678C137.413 203.236 134.37 210.16 131.59 216.068C128.81 221.975 127.175 225.021 123.863 226.554C120.552 228.087 119.067 228.184 115.339 229.15C111.612 230.117 108.996 233.519 110.806 234.644C119.262 239.898 130.957 228.159 133.839 220.953C135.883 215.843 137.917 208.678 139.205 203.466C140.492 198.253 140.643 197.635 140.827 196.102C141.011 194.569 140.929 194.119 139.171 198.678Z" fill="#3B636B"/>
<path fill-rule="evenodd" clip-rule="evenodd" d="M94.2845 231.832C94.4809 231.985 94.7245 232.142 95.0021 232.301C89.5906 230.796 83.9536 229.495 86.5119 231.494C86.7726 231.698 87.1586 231.924 87.6249 232.163C86.3244 231.749 83.3929 230.838 78.6596 230.71C75.916 230.635 74.5797 231.651 74.6875 231.771C76.9985 234.332 80.3993 232.711 67.8803 232.538C67.2291 232.538 61.4284 231.846 61.6965 232.224C62.194 232.926 74.4478 234.444 75.6801 234.268C78.0899 234.605 84.6267 236.675 85.9649 236.519C88.9252 236.173 81.6381 233.498 78.2845 232.174C86.1212 234.579 91.7007 237.48 92.2216 236.496C92.8717 235.269 93.0818 235.78 91.0171 234.764C93.3328 235.488 95.3538 236.049 96.0717 236.049C98.8535 236.049 95.5545 234.289 92.4708 232.862C96.6638 234.105 101.964 235.933 103.839 236.081C108.248 236.431 101.966 234.749 98.6972 233.403C99.7003 233.53 103.569 234.024 106.839 234.441C109.107 234.73 108.906 234.793 109.386 234.744C109.905 234.69 110.861 234.48 106.484 233.595C102.24 232.737 91.1755 229.417 94.2845 231.832ZM75.7984 234.251C75.8823 234.238 75.9672 234.226 76.0534 234.213C75.872 234.251 75.834 234.251 75.7984 234.251Z" fill="#CCCCCC"/>
<path fill-rule="evenodd" clip-rule="evenodd" d="M108.186 197.436C105.054 197.21 99.8588 196.959 95.6953 196.624C91.5312 196.289 88.3987 195.871 86.1581 195.274C83.9175 194.677 82.5693 193.901 82.1926 194.178C81.8159 194.455 82.4109 195.786 84.7108 197.649C87.0107 199.512 91.0158 201.908 93.4547 203.287C95.8935 204.667 96.7656 205.031 96.845 205.351C96.9243 205.671 96.2107 205.947 94.5651 205.962C92.9192 205.976 90.3417 205.729 88.597 205.966C86.852 206.203 85.9401 206.924 85.9401 207.625C85.9401 208.327 86.852 209.008 88.1011 209.533C89.3502 210.058 90.9365 210.426 91.9678 210.711C92.9986 210.996 93.4744 211.198 93.8114 211.585C94.1486 211.971 94.3468 212.543 94.1486 212.936C93.9503 213.328 93.3556 213.541 92.4236 213.612C91.4917 213.684 90.2228 213.614 89.6478 213.845C89.0729 214.076 89.1918 214.609 89.5487 215.137C89.9057 215.666 90.5004 216.189 91.3135 216.48C92.1262 216.77 93.1573 216.827 93.9108 216.746C94.664 216.665 95.1398 216.445 95.12 216.234C95.1003 216.022 94.5846 215.819 94.0096 215.752C93.4346 215.685 92.8003 215.755 92.3047 215.588C91.8088 215.42 91.4521 215.014 92.0669 214.663C92.6814 214.311 94.2677 214.012 95.1997 213.818C96.1313 213.624 96.4089 213.534 96.6865 213.234C96.9641 212.933 97.2417 212.423 97.0633 211.939C96.8848 211.456 96.2505 211 95.259 210.542C94.2677 210.084 92.9192 209.624 92.2652 209.114C91.6108 208.605 91.6501 208.046 92.7012 207.876C93.7521 207.706 95.8142 207.924 98.2528 208.059C100.692 208.194 103.507 208.244 105.292 207.974C107.076 207.704 107.829 207.114 106.62 206.381C105.411 205.648 102.238 204.771 99.621 204.031C97.0037 203.29 94.9416 202.685 93.1178 201.953C91.2934 201.222 89.7072 200.362 89.6478 199.815C89.5883 199.269 91.0556 199.034 93.9108 199.314C96.7656 199.594 101.009 200.39 104.28 200.798C107.552 201.207 109.852 201.228 111.22 200.707C112.588 200.187 113.024 199.123 112.707 198.492C112.39 197.86 111.319 197.661 108.186 197.436Z" fill="#CCCCCC"/>
<path fill-rule="evenodd" clip-rule="evenodd" d="M140.299 146.932C138.692 140.431 135.377 134.781 129.765 129.022C109.184 107.902 74.7842 113.968 62.8409 140.281C61.9296 142.29 61.2286 144.258 60.7095 146.198C60.4324 147.196 60.1994 148.199 60.0085 149.206C59.4093 152.367 59.2244 155.56 59.3897 158.703C59.5503 161.753 60.0388 164.751 60.8445 167.922C61.6475 171.085 62.7661 174.423 64.1889 178.162C66.5313 184.317 69.7133 191.589 72.9486 198.982C73.3714 199.948 73.7954 200.917 74.2185 201.886C79.8937 216.082 86.6226 231.577 89.8598 233.271C93.785 235.326 102.228 226.123 104.498 224.032C118.639 211.008 132.791 193.506 138.707 174.359C139.404 172.412 139.945 170.589 140.362 168.856C141.155 165.566 141.503 162.607 141.635 159.746C141.767 156.88 141.683 154.109 141.279 151.392C141.055 149.892 140.735 148.408 140.299 146.932ZM140.338 151.53C140.734 154.189 140.816 156.9 140.687 159.705C140.557 162.514 140.216 165.416 139.44 168.637C138.663 171.862 137.448 175.414 135.571 179.523C133.641 183.749 131.009 188.562 127.958 193.413C127.642 193.915 127.322 194.417 126.998 194.919C125.056 197.752 123.004 200.523 120.891 203.242C117.427 207.699 94.322 233.114 90.7954 231.335C88.2229 230.038 77.129 205.985 70.3834 190.715C68.4131 186.145 66.5771 181.765 65.0773 177.824C64.2313 175.601 63.4942 173.522 62.8684 171.539C62.4827 170.183 62.1428 168.874 61.8863 167.739C53.3267 129.9 94.6692 105.282 123.881 125.957C125.183 126.878 126.41 127.837 127.562 128.833C127.897 129.159 128.237 129.5 128.582 129.858C130.402 131.746 132.38 134.116 134.17 136.715C135.697 138.933 137.087 141.315 138.12 143.701C139.238 146.282 139.944 148.878 140.338 151.53Z" fill="#3B636B"/>
<path d="M132.545 159.652C132.873 156.791 132.82 154.047 132.421 151.387C132.035 148.819 131.324 146.333 130.319 143.898C128.601 138.907 125.702 134.383 121.51 130.37C109.567 118.938 83.8556 121.038 75.128 136.756C74.846 137.264 74.5789 137.781 74.3256 138.307C73.8803 139.187 73.4711 140.096 73.0981 141.025C71.7024 144.5 70.8087 148.256 70.4064 151.84C70.0384 155.117 70.0803 158.255 70.4478 161.213C70.751 163.654 71.2766 165.971 71.9763 168.138C73.3749 173.513 76.0381 178.404 80.6118 182.834C92.3435 194.198 119.628 189.43 127.38 175.578C127.594 175.196 127.797 174.815 127.99 174.436C128.98 172.564 129.916 170.331 130.69 167.95C131.559 165.276 132.228 162.409 132.545 159.652Z" fill="#CF312C"/>
<path d="M134.491 160.153C134.842 157.252 134.786 154.469 134.358 151.772C133.944 149.167 133.182 146.646 132.105 144.177C130.264 139.117 127.157 134.528 122.665 130.459C109.867 118.866 82.3137 120.996 72.9611 136.935C72.6588 137.45 72.3724 137.975 72.1012 138.507C71.624 139.4 71.1856 140.322 70.7859 141.264C69.2901 144.787 68.3326 148.597 67.9013 152.231C67.5069 155.554 67.5519 158.736 67.9455 161.736C68.2706 164.212 68.8337 166.56 69.5835 168.758C71.0822 174.209 73.9363 179.169 78.8377 183.661C91.4098 195.185 120.649 190.35 128.956 176.302C129.185 175.915 129.403 175.529 129.61 175.145C130.67 173.247 131.673 170.982 132.503 168.567C133.435 165.856 134.152 162.949 134.491 160.153ZM129.18 173.943C121.825 186.269 104.3 189.722 91.0149 187.428C80.1686 185.554 73.0128 176.819 69.9473 166.745C69.4804 165.108 69.12 163.395 68.8862 161.613C68.5029 158.694 68.4599 155.591 68.8453 152.342C69.2669 148.79 70.2012 145.07 71.6593 141.636C72.1468 140.488 72.6922 139.371 73.297 138.304C73.4721 138.012 73.6482 137.732 73.8248 137.465C83.2652 123.181 109.301 121.4 121.536 131.741C124.994 134.664 127.688 137.886 129.673 141.406C130.083 142.145 130.469 142.894 130.825 143.65C132.141 146.486 133.035 149.501 133.533 152.695C133.842 155.06 133.854 157.5 133.547 160.041C133.216 162.765 132.515 165.605 131.603 168.258C130.896 170.316 130.064 172.257 129.18 173.943Z" fill="#CF312C"/>
<path fill-rule="evenodd" clip-rule="evenodd" d="M76.9933 165.204C77.6779 164.305 79.2452 163.351 80.1772 163.176C81.1091 163.001 81.4057 163.606 81.8109 164.522C82.2164 165.438 82.7299 166.665 83.6663 167.643C84.603 168.62 85.9623 169.348 87.4181 169.629C88.8738 169.911 90.0552 169.65 91.3789 169.199C95.4035 167.828 97.3578 159.91 96.9365 156.216C96.8034 155.05 96.8068 155.433 96.3014 155.835C94.63 157.165 92.4898 157.728 90.7433 157.694C89.2411 157.665 87.5863 157.351 86.0003 156.697C84.4143 156.042 82.8973 155.047 81.6308 153.739C80.3646 152.431 79.3486 150.81 78.791 148.949C78.2334 147.088 78.134 144.987 78.5471 143.093C79.9091 136.851 84.8624 133.021 91.289 133.483C96.1385 133.832 100.122 135.738 101.444 140.765C102.102 143.264 101.874 146.188 101.677 149.439C101.398 154.026 99.5058 163.352 97.5196 167.352C96.2321 169.945 94.5203 172.257 92.305 173.387C90.3668 174.375 87.8771 174.628 85.5205 174.193C83.1639 173.758 80.9301 172.616 79.4809 171.431C78.032 170.245 77.3676 169.017 76.9366 167.982C76.5058 166.946 76.3084 166.102 76.9933 165.204ZM92.875 138.026C96.627 138.994 98.8307 143.026 97.797 147.032C96.7633 151.038 93.0205 152.97 89.2688 152.002C85.5168 151.033 83.1762 147.532 84.2099 143.526C85.2436 139.52 89.123 137.057 92.875 138.026Z" fill="white"/>
<path fill-rule="evenodd" clip-rule="evenodd" d="M105.84 149.626C105.983 148.425 107.38 146.055 108.824 143.923C110.268 141.791 111.759 139.896 112.462 139.115C113.164 138.334 113.079 138.665 112.615 142.445C112.15 146.225 111.306 153.453 110.421 159.246C109.535 165.04 108.607 169.397 108.284 171.563C107.96 173.729 108.242 173.704 108.726 173.77C109.21 173.836 109.896 173.993 110.218 174.155C110.54 174.316 110.497 174.482 110.371 175.236C110.246 175.989 110.037 177.33 109.699 177.881C109.36 178.432 108.891 178.193 107.08 177.825C105.27 177.456 102.118 176.956 100.654 176.461C99.1907 175.965 99.4161 175.474 99.618 174.691C99.82 173.908 99.9987 172.834 100.22 172.282C100.441 171.73 100.704 171.7 101.25 171.792C101.796 171.883 102.625 172.097 103.184 171.986C103.743 171.875 104.033 171.439 104.797 168.021C105.561 164.603 106.8 158.204 107.399 154.852C107.999 151.5 107.96 151.195 107.384 151.027C106.809 150.859 105.697 150.827 105.84 149.626Z" fill="white"/>
<path fill-rule="evenodd" clip-rule="evenodd" d="M115.63 151.243C116.148 149.972 117.328 147.546 118.378 145.375C119.428 143.205 120.347 141.292 120.888 140.459C121.429 139.626 121.591 139.874 121.574 143.612C121.558 147.35 121.362 154.579 120.955 160.211C120.548 165.842 119.929 169.877 119.618 171.997C119.307 174.117 119.303 174.323 119.394 174.491C119.484 174.659 119.67 174.79 120.102 174.867C120.534 174.944 121.212 174.967 121.512 175.131C121.812 175.294 121.734 175.598 121.645 176.435C121.557 177.272 121.459 178.641 121.172 179.205C120.883 179.769 120.405 179.528 118.89 179.368C117.374 179.208 114.821 179.129 113.635 178.837C112.45 178.546 112.631 178.043 112.767 177.243C112.902 176.443 112.992 175.346 113.081 174.755C113.17 174.164 113.257 174.079 113.588 174.071C113.918 174.063 114.491 174.132 114.902 173.944C115.313 173.755 115.562 173.308 116.039 169.817C116.516 166.325 117.221 159.788 117.542 156.364C117.864 152.94 117.801 152.629 117.38 152.545C116.959 152.461 116.18 152.603 115.718 152.617C115.257 152.63 115.112 152.514 115.63 151.243Z" fill="white"/>
<path d="M111.766 165.484C112.815 165.416 113.596 164.285 113.51 162.957C113.425 161.63 112.505 160.608 111.456 160.676C110.407 160.743 109.626 161.874 109.711 163.202C109.797 164.53 110.717 165.551 111.766 165.484Z" fill="white"/>
<path d="M101.83 163.468C102.811 163.845 103.993 163.143 104.47 161.901C104.947 160.659 104.538 159.347 103.556 158.97C102.575 158.593 101.393 159.295 100.916 160.537C100.439 161.779 100.848 163.092 101.83 163.468Z" fill="white"/>
<path fill-rule="evenodd" clip-rule="evenodd" d="M59.9098 149.473C58.7454 148.248 57.8321 146.642 57.2917 144.928C56.5978 142.727 56.5185 140.348 57.3908 137.79C58.2632 135.232 60.0873 132.496 63.6168 130.493C65.5571 129.392 68.5161 128.315 71.7661 127.539C70.4527 128.799 69.2126 130.161 68.0571 131.621C66.7793 132.349 66.3153 133.221 66.2618 134.074C66.2417 134.392 66.2789 134.709 66.3527 135.014C66.6303 136.164 67.4233 137.155 68.3355 137.988C69.2477 138.821 70.2785 139.495 70.9526 140.348C71.6269 141.2 71.9441 142.231 71.845 142.985C71.7458 143.738 71.2302 144.214 70.6156 144.491C70.0009 144.769 69.2872 144.848 68.4544 144.293C67.6216 143.738 66.6701 142.548 66.0553 141.478C65.4406 140.407 65.1632 139.455 64.8658 140.09C64.5682 140.724 64.2511 142.945 64.5882 144.135C64.9252 145.324 65.9167 145.483 66.9277 146.117C67.9387 146.752 68.9698 147.862 69.8226 148.973C70.675 150.083 71.3493 151.193 71.0717 151.709C70.7941 152.224 69.5648 152.145 67.939 151.847C66.3132 151.55 62.6252 151.689 60.9596 150.42C60.5913 150.139 60.2404 149.822 59.9098 149.473Z" fill="#3B636B"/>
<path d="M21.9835 53.0771L22.9473 52.0686C23.5826 52.9999 24.4012 54.4429 25.403 56.3977C26.4049 58.3524 27.0849 59.6398 27.4433 60.2597C28.5681 56.8509 29.4098 54.1348 29.9685 52.1112C30.1212 51.7904 30.3275 51.6232 30.5874 51.6096C30.8214 51.5973 31.0355 51.7034 31.2298 51.9278C31.4233 52.1393 31.5409 52.3938 31.5826 52.6914C31.1904 53.6635 30.5695 55.2471 29.72 57.4423C28.8828 59.6238 28.162 61.4147 27.5576 62.8149C26.9656 64.2015 26.3256 65.545 25.6378 66.8454L24.3571 66.6584L26.6138 61.5936C26.0784 60.3312 24.535 57.4924 21.9835 53.0771ZM32.9764 61.0059L32.8412 59.9181C32.8802 59.9161 32.939 59.9195 33.0177 59.9284C33.1086 59.9237 33.1736 59.9203 33.2126 59.9182C34.5255 59.8494 35.152 59.2431 35.092 58.0992C34.8966 57.1058 34.3179 56.6343 33.356 56.6847C32.992 56.7038 32.4645 56.8357 31.7735 57.0805L31.3929 56.5334C31.9123 55.9979 32.6789 55.7035 33.6928 55.6504C34.4078 55.6129 35.0152 55.7636 35.5152 56.1023C36.0153 56.4411 36.2837 56.9614 36.3205 57.6633C36.3429 58.0923 36.2806 58.5192 36.1334 58.944C35.9855 59.3558 35.7806 59.6729 35.5185 59.8951C36.0179 59.9732 36.4191 60.2911 36.722 60.8487C37.0373 61.3927 37.2133 62.0156 37.2501 62.7176C37.2978 63.6275 37.0469 64.4357 36.4974 65.1423C35.9478 65.8489 35.2116 66.2264 34.2887 66.2747C33.8338 66.2986 33.281 66.1972 32.6305 65.9706C31.9799 65.744 31.6444 65.4357 31.624 65.0458C31.6097 64.7728 31.778 64.6271 32.129 64.6087C32.3629 64.5965 32.6742 64.691 33.0627 64.8922C33.4506 65.0804 33.768 65.168 34.015 65.1551C34.5609 65.1265 35.0293 64.8608 35.42 64.358C35.8108 63.8553 35.9908 63.3115 35.9602 62.7265C35.9275 62.1026 35.682 61.6462 35.2237 61.3574C34.7777 61.0549 34.2167 60.9214 33.5408 60.9568C33.2808 60.9704 33.0927 60.9868 32.9764 61.0059ZM44.312 55.3285L45.1996 55.4775L46.1437 64.9105C46.0471 65.3066 45.8298 65.5135 45.4919 65.5312C45.2579 65.5435 45.0253 65.4579 44.7941 65.2745C44.5636 65.1041 44.4152 64.8838 44.3489 64.6135C44.3469 64.5745 44.3478 63.4731 44.3517 61.3092L44.3435 61.1532C43.9782 61.1463 43.4381 61.1615 42.7231 61.199C41.6443 61.2555 40.8301 61.2656 40.2808 61.2292C40.3853 61.9798 40.5335 63.1907 40.7253 64.8621C40.6295 65.2712 40.4126 65.4846 40.0746 65.5023C39.8406 65.5145 39.6084 65.4355 39.3779 65.2651C39.1597 65.081 39.0174 64.8538 38.9511 64.5836C38.956 63.9316 38.9415 63.2806 38.9074 62.6307C38.8856 62.2148 38.8464 61.5912 38.7898 60.7599C38.7332 59.9287 38.6944 59.3116 38.6733 58.9086C38.6079 57.6608 38.592 56.6123 38.6257 55.7633L39.5144 55.9318C39.9222 58.7389 40.1346 60.1811 40.1517 60.2584C42.3806 60.2589 43.5275 60.2575 43.5925 60.2541C44.1255 60.2261 44.3903 60.1797 44.3869 60.1147C44.3732 59.8547 44.356 59.0279 44.3351 57.6343C44.3142 56.2408 44.3065 55.4721 44.312 55.3285ZM47.9957 56.6018L47.5537 55.6278C47.8739 55.2721 48.2889 54.9832 48.7986 54.761C49.3077 54.5257 49.8157 54.3948 50.3226 54.3683C52.5194 54.2531 53.7172 56.0934 53.9162 59.889C53.9434 60.4089 53.9511 61.1776 53.9393 62.1949C53.9404 63.2115 53.9542 63.9733 53.9808 64.4802C53.8979 64.8886 53.707 65.1007 53.4081 65.1163C53.1741 65.1286 52.9535 65.0228 52.7462 64.7991C52.539 64.5753 52.4279 64.3205 52.4129 64.0345C52.4081 63.9435 52.4112 63.8782 52.4222 63.8385C51.6571 64.6606 50.8196 65.0956 49.9097 65.1432C49.2208 65.1794 48.6034 64.9641 48.0576 64.4974C47.5241 64.017 47.2386 63.4193 47.2011 62.7044C47.1378 61.4955 47.5485 60.3791 48.4333 59.3552C49.3311 58.3305 50.378 57.7869 51.5738 57.7242C51.6258 57.7215 51.6782 57.7253 51.7308 57.7355C51.7828 57.7328 51.8417 57.7362 51.9073 57.7458C51.986 57.7548 52.0449 57.7582 52.0839 57.7561C51.9002 56.2407 51.2559 55.512 50.151 55.5699C49.5011 55.604 48.7826 55.9479 47.9957 56.6018ZM52.3907 62.4911C52.369 61.5798 52.3459 60.8902 52.3213 60.4223C52.3009 60.0323 52.2593 59.487 52.1965 58.7865L52.0405 58.7946C51.1183 58.856 50.2914 59.2448 49.5599 59.9609C48.8414 60.6763 48.5074 61.515 48.5578 62.4769C48.5796 62.8928 48.7205 63.2178 48.9804 63.4519C49.2533 63.6852 49.5717 63.7924 49.9357 63.7733C50.5076 63.7433 51.326 63.3159 52.3907 62.4911ZM55.6537 54.6168C57.646 54.0822 58.8631 53.8034 59.3051 53.7802C61.0469 53.6889 61.957 54.3907 62.0353 55.8856C62.0625 56.4055 61.9981 56.9172 61.842 57.4207C61.6983 57.9105 61.5005 58.2402 61.2487 58.4098C62.2987 59.0456 62.8553 59.9679 62.9187 61.1768C62.9786 62.3207 62.6483 63.2309 61.9278 63.9073C61.2203 64.5831 60.2556 64.953 59.0337 65.017C57.5778 65.0933 56.472 64.7602 55.7162 64.0178L55.6537 54.6168ZM57.0215 59.4525L57.4044 63.4014C57.7376 63.5404 58.1121 63.5989 58.5281 63.5771C59.334 63.5349 60.0616 63.2426 60.711 62.7002C61.3604 62.1579 61.6673 61.5487 61.6319 60.8728C61.6074 60.4048 61.4029 59.9854 61.0185 59.6145C60.6334 59.2306 60.1614 59.0533 59.6025 59.0826C59.2775 59.0997 58.4172 59.223 57.0215 59.4525ZM56.6161 55.4462L56.9099 58.4417C57.1035 58.4055 57.4015 58.3703 57.8037 58.3362C58.206 58.3021 58.5296 58.259 58.7746 58.2071C59.0188 58.1422 59.2867 58.0304 59.5781 57.8717C59.8689 57.7001 60.0889 57.4213 60.2382 57.0355C60.4004 56.649 60.498 56.1486 60.531 55.5343C60.3805 55.1511 59.9739 54.9769 59.3109 55.0117C59.012 55.0273 58.5464 55.0973 57.9142 55.2217C57.2821 55.3461 56.8493 55.4209 56.6161 55.4462ZM64.92 55.7148L64.4779 54.7409C64.7982 54.3852 65.2131 54.0962 65.7229 53.874C66.2319 53.6388 66.7399 53.5079 67.2469 53.4813C69.4436 53.3662 70.6415 55.2064 70.8404 59.002C70.8676 59.522 70.8753 60.2906 70.8635 61.3079C70.8646 62.3245 70.8785 63.0863 70.905 63.5932C70.8222 64.0017 70.6313 64.2137 70.3323 64.2294C70.0983 64.2416 69.8777 64.1359 69.6705 63.9121C69.4632 63.6884 69.3521 63.4335 69.3371 63.1475C69.3323 63.0565 69.3354 62.9912 69.3464 62.9515C68.5814 63.7737 67.7439 64.2086 66.834 64.2563C66.145 64.2924 65.5277 64.0771 64.9818 63.6104C64.4483 63.13 64.1628 62.5324 64.1254 61.8174C64.062 60.6086 64.4727 59.4922 65.3575 58.4682C66.2554 57.4436 67.3022 56.8999 68.4981 56.8373C68.5501 56.8345 68.6024 56.8383 68.6551 56.8486C68.7071 56.8459 68.7659 56.8493 68.8316 56.8589C68.9103 56.8678 68.9691 56.8712 69.0081 56.8692C68.8244 55.3538 68.1801 54.625 67.0752 54.6829C66.4253 54.717 65.7069 55.061 64.92 55.7148ZM69.3149 61.6041C69.2932 60.6929 69.2701 60.0032 69.2456 59.5353C69.2251 59.1453 69.1835 58.6001 69.1207 57.8995L68.9648 57.9077C68.0425 57.969 67.2157 58.3578 66.4842 59.0739C65.7657 59.7894 65.4316 60.628 65.482 61.5899C65.5038 62.0059 65.6447 62.3309 65.9046 62.5649C66.1775 62.7983 66.496 62.9054 66.8599 62.8863C67.4319 62.8563 68.2502 62.4289 69.3149 61.6041ZM73.8119 51.534L73.6437 50.9367C73.9577 50.9594 74.2642 50.9629 74.5632 50.9472C75.4601 50.9002 76.2726 50.61 77.0006 50.0765C77.3009 50.0868 77.5592 50.1646 77.7753 50.3096C77.9915 50.4547 78.105 50.6313 78.1159 50.8392C78.1248 51.0082 78.0734 51.1478 77.9619 51.2579C77.8503 51.368 77.6789 51.4552 77.4477 51.5194C77.2158 51.5707 77.0221 51.6069 76.8668 51.6281C76.7109 51.6363 76.5029 51.6472 76.2429 51.6608C75.398 51.7051 74.5877 51.6628 73.8119 51.534ZM74.3042 62.0465C74.3157 62.2675 74.3441 62.5593 74.3891 62.9219C74.2933 63.331 74.0763 63.5444 73.7384 63.5621C73.5044 63.5743 73.2722 63.4953 73.0416 63.3249C72.8235 63.1408 72.6812 62.9136 72.6149 62.6434C72.5987 61.5884 72.5635 60.0457 72.5092 58.0152C72.4679 55.984 72.4416 54.6103 72.4301 53.894L73.3188 53.691C73.5184 54.5147 73.6738 55.6145 73.785 56.9903C73.8962 58.3661 74.002 59.3903 74.1024 60.0628C74.3303 59.6859 74.9825 58.7002 76.059 57.1058C77.1355 55.5113 77.862 54.3262 78.2384 53.5505C78.5217 53.4835 78.7023 53.448 78.7803 53.4439C79.0273 53.4309 79.202 53.5326 79.3046 53.7488C79.4202 53.9643 79.507 54.3768 79.565 54.9864L80.3565 63.0002C80.2599 63.3962 80.0426 63.6032 79.7047 63.6209C79.4707 63.6331 79.2385 63.5541 79.0079 63.3837C78.7897 63.1996 78.6475 62.9724 78.5812 62.7022C78.5717 62.2725 78.5494 61.2244 78.5142 59.5579C78.4913 57.8777 78.4809 56.6856 78.4832 55.9816C76.3932 58.6328 75.0002 60.6544 74.3042 62.0465ZM80.8807 54.3505L80.6603 53.5018C82.3966 53.3065 85.1319 53.0198 88.8659 52.6416C89.1786 52.6382 89.4512 52.7412 89.6837 52.9506C89.9163 53.16 90.0391 53.3882 90.052 53.6352C90.0724 54.0252 89.824 54.2598 89.3068 54.339L85.6515 54.3546C85.7676 55.3261 85.8747 56.7477 85.9728 58.6196C86.0832 60.4777 86.1804 61.8347 86.2643 62.6905C86.1671 63.0736 85.9495 63.274 85.6115 63.2917C85.3906 63.3033 85.1713 63.2236 84.9538 63.0525C84.7363 62.8814 84.5947 62.6672 84.5291 62.41C84.5435 59.2028 84.5913 56.5087 84.6725 54.3277L80.8807 54.3505ZM98.3893 60.5105L98.6293 61.3582C98.0682 61.5962 97.2291 61.8748 96.1118 62.194C95.0069 62.4996 94.1815 62.6667 93.6355 62.6953C93.0766 62.7246 92.5796 62.5681 92.1445 62.226C91.7088 61.8708 91.372 61.4127 91.1341 60.8517C90.8954 60.2776 90.7095 59.7139 90.5762 59.1604C90.4552 58.5932 90.3804 58.0366 90.3518 57.4907C90.1815 54.241 91.5652 52.5392 94.5029 52.3853C95.2048 52.3485 95.8342 52.5436 96.391 52.9706C96.9471 53.3846 97.2439 53.9491 97.2813 54.664C97.3018 55.054 97.2093 55.4042 97.004 55.7148C96.8117 56.0247 96.5643 56.2788 96.2619 56.4771C95.9718 56.6617 95.59 56.8382 95.1166 57.0064C94.6561 57.1739 94.2456 57.2997 93.885 57.3837C93.5245 57.4678 93.0928 57.5621 92.5899 57.6667C92.087 57.7712 91.7392 57.8481 91.5462 57.8973C91.579 58.2736 91.6158 58.6041 91.6568 58.8887C91.7108 59.1726 91.7921 59.4811 91.9009 59.8143C92.0219 60.1339 92.1662 60.4 92.3337 60.6128C92.5136 60.8119 92.7503 60.9755 93.0437 61.1035C93.3372 61.2315 93.6789 61.2853 94.0689 61.2648C94.5368 61.2403 95.1067 61.1713 95.7786 61.0579C96.4497 60.9315 97.0429 60.8092 97.5581 60.691C98.0863 60.572 98.3633 60.5119 98.3893 60.5105ZM91.5609 56.6844C93.3021 56.0848 94.7235 55.4759 95.8251 54.8577C95.7116 54.4335 95.5718 54.128 95.4056 53.9412C95.2394 53.7544 95.0003 53.6691 94.6883 53.6855C93.8954 53.727 93.1883 54.0378 92.567 54.6178C91.9587 55.1972 91.6233 55.886 91.5609 56.6844ZM110.352 51.8675L111.239 52.0165L112.183 61.4495C112.087 61.8456 111.869 62.0525 111.531 62.0702C111.298 62.0825 111.065 61.9969 110.834 61.8135C110.603 61.6431 110.455 61.4228 110.389 61.1525C110.386 61.1135 110.387 60.0121 110.391 57.8482L110.383 57.6922C110.018 57.6853 109.478 57.7005 108.763 57.738C107.684 57.7945 106.87 57.8046 106.32 57.7682C106.425 58.5188 106.573 59.7297 106.765 61.4011C106.669 61.8102 106.452 62.0236 106.114 62.0413C105.88 62.0535 105.648 61.9745 105.417 61.8041C105.199 61.62 105.057 61.3928 104.991 61.1226C104.996 60.4706 104.981 59.8197 104.947 59.1697C104.925 58.7538 104.886 58.1302 104.829 57.2989C104.773 56.4677 104.734 55.8506 104.713 55.4477C104.647 54.1998 104.632 53.1514 104.665 52.3024L105.554 52.4708C105.962 55.2779 106.174 56.7201 106.191 56.7974C108.42 56.7979 109.567 56.7965 109.632 56.7931C110.165 56.7651 110.43 56.7187 110.426 56.6537C110.413 56.3937 110.396 55.5669 110.375 54.1734C110.354 52.7798 110.346 52.0112 110.352 51.8675ZM114.035 53.1408L113.593 52.1668C113.914 51.8112 114.329 51.5222 114.838 51.3C115.347 51.0647 115.855 50.9339 116.362 50.9073C118.559 50.7922 119.757 52.6324 119.956 56.428C119.983 56.9479 119.991 57.7166 119.979 58.7339C119.98 59.7505 119.994 60.5123 120.02 61.0192C119.938 61.4276 119.747 61.6397 119.448 61.6553C119.214 61.6676 118.993 61.5618 118.786 61.3381C118.579 61.1143 118.467 60.8595 118.452 60.5735C118.448 60.4825 118.451 60.4172 118.462 60.3775C117.697 61.1997 116.859 61.6346 115.949 61.6823C115.26 61.7184 114.643 61.5031 114.097 61.0364C113.564 60.556 113.278 59.9583 113.241 59.2434C113.177 58.0345 113.588 56.9181 114.473 55.8942C115.371 54.8695 116.418 54.3259 117.613 54.2632C117.665 54.2605 117.718 54.2643 117.77 54.2745C117.822 54.2718 117.881 54.2753 117.947 54.2849C118.026 54.2938 118.084 54.2972 118.123 54.2952C117.94 52.7798 117.295 52.051 116.191 52.1089C115.541 52.143 114.822 52.4869 114.035 53.1408ZM118.43 59.0301C118.409 58.1188 118.385 57.4292 118.361 56.9613C118.341 56.5713 118.299 56.026 118.236 55.3255L118.08 55.3337C117.158 55.395 116.331 55.7838 115.6 56.4999C114.881 57.2153 114.547 58.054 114.597 59.0159C114.619 59.4319 114.76 59.7568 115.02 59.9909C115.293 60.2242 115.611 60.3314 115.975 60.3123C116.547 60.2823 117.366 59.8549 118.43 59.0301ZM119.794 63.0449L119.438 62.2228C119.858 62.0314 120.234 61.7444 120.566 61.3621C120.885 60.9804 121.145 60.5888 121.345 60.1873C121.545 59.7727 121.708 59.2624 121.832 58.6563C121.957 58.0502 122.04 57.5244 122.082 57.0791C122.136 56.62 122.165 56.058 122.17 55.3931C122.174 54.7281 122.167 54.2331 122.15 53.9081C122.146 53.5695 122.129 53.1207 122.099 52.5618C122.058 51.7688 122.104 51.2907 122.239 51.1272C122.411 50.9227 123.413 50.7724 125.246 50.6763C126.689 50.6007 127.507 50.5513 127.702 50.5281C128.004 55.8042 128.249 59.2259 128.435 60.7933C128.326 61.19 128.108 61.397 127.784 61.414C127.563 61.4256 127.343 61.3458 127.126 61.1747C126.908 61.0036 126.767 60.7895 126.701 60.5322C126.662 60.026 126.615 59.2724 126.563 58.2715C126.537 57.7775 126.498 57.0301 126.446 56.0292C126.406 55.0277 126.373 54.2734 126.346 53.7664C126.297 52.8305 126.254 52.129 126.217 51.6617C125.675 51.7813 125.139 51.8616 124.606 51.9025C124.074 51.9434 123.698 51.9827 123.479 52.0202C123.462 52.4512 123.463 53.0899 123.481 53.9362C123.5 54.7824 123.513 55.5312 123.521 56.1825C123.541 56.8201 123.501 57.5521 123.401 58.3785C123.301 59.1919 123.129 59.8918 122.886 60.478C122.655 61.0506 122.272 61.5725 121.736 62.0437C121.214 62.5273 120.567 62.861 119.794 63.0449ZM131.648 59.0413C131.659 59.2622 131.688 59.554 131.733 59.9166C131.637 60.3257 131.42 60.5391 131.082 60.5568C130.848 60.5691 130.616 60.49 130.385 60.3196C130.167 60.1355 130.025 59.9084 129.958 59.6381C129.942 58.5832 129.907 57.0405 129.853 55.01C129.811 52.9788 129.785 51.605 129.774 50.8887L130.662 50.6857C130.862 51.5095 131.017 52.6093 131.129 53.9851C131.24 55.3609 131.346 56.385 131.446 57.0576C131.674 56.6807 132.326 55.695 133.403 54.1005C134.479 52.506 135.206 51.3209 135.582 50.5452C135.865 50.4782 136.046 50.4427 136.124 50.4386C136.371 50.4257 136.546 50.5273 136.648 50.7435C136.764 50.959 136.85 51.3716 136.909 51.9812L137.7 59.9949C137.603 60.391 137.386 60.5979 137.048 60.6156C136.814 60.6279 136.582 60.5488 136.351 60.3784C136.133 60.1943 135.991 59.9672 135.925 59.6969C135.915 59.2673 135.893 58.2192 135.858 56.5526C135.835 54.8724 135.824 53.6803 135.827 52.9763C133.737 55.6276 132.344 57.6492 131.648 59.0413ZM143.864 49.642L144.65 49.3466C144.818 49.8201 145.049 51.6197 145.343 54.7456C145.65 57.8578 145.835 59.5295 145.899 59.7607C145.803 60.1698 145.587 60.3832 145.249 60.4009C145.015 60.4132 144.782 60.3276 144.551 60.1442C144.333 59.9601 144.19 59.733 144.124 59.4627C144.111 58.7204 144.078 57.5947 144.025 56.0855C143.358 56.2899 142.804 56.4037 142.362 56.4268C141.686 56.4623 141.094 56.3564 140.585 56.1093C140.077 55.8623 139.674 55.5054 139.376 55.0388C139.091 54.5714 138.876 54.0744 138.731 53.5475C138.585 53.0077 138.496 52.4259 138.463 51.8019C138.437 51.308 138.468 50.6546 138.556 49.8419L139.445 50.0104C139.467 50.1787 139.503 50.5027 139.554 50.9822C139.618 51.4481 139.668 51.7844 139.705 51.991C139.742 52.1976 139.796 52.4946 139.869 52.8818C139.954 53.2554 140.053 53.5369 140.167 53.7264C140.294 53.9023 140.441 54.0966 140.608 54.3094C140.789 54.5215 141.005 54.6666 141.257 54.7447C141.522 54.822 141.823 54.8519 142.161 54.8341C142.59 54.8117 143.181 54.6568 143.935 54.3697C143.918 54.0317 143.911 53.2826 143.915 52.1223C143.919 50.949 143.913 50.2194 143.898 49.9334C143.89 49.7644 143.878 49.6673 143.864 49.642ZM149.118 58.1257C149.129 58.3467 149.158 58.6384 149.203 59.001C149.107 59.4101 148.89 59.6235 148.552 59.6412C148.318 59.6535 148.086 59.5744 147.855 59.404C147.637 59.22 147.495 58.9928 147.429 58.7225C147.412 57.6676 147.377 56.1249 147.323 54.0944C147.282 52.0632 147.255 50.6894 147.244 49.9732L148.133 49.7702C148.332 50.5939 148.487 51.6937 148.599 53.0695C148.71 54.4453 148.816 55.4695 148.916 56.142C149.144 55.7651 149.796 54.7794 150.873 53.1849C151.949 51.5905 152.676 50.4054 153.052 49.6296C153.335 49.5627 153.516 49.5271 153.594 49.523C153.841 49.5101 154.016 49.6117 154.118 49.8279C154.234 50.0435 154.321 50.456 154.379 51.0656L155.17 59.0793C155.074 59.4754 154.856 59.6823 154.518 59.7C154.284 59.7123 154.052 59.6332 153.822 59.4628C153.603 59.2788 153.461 59.0516 153.395 58.7813C153.385 58.3517 153.363 57.3036 153.328 55.6371C153.305 53.9568 153.295 52.7647 153.297 52.0608C151.207 54.712 149.814 56.7336 149.118 58.1257ZM164.546 57.0434L164.786 57.8911C164.225 58.129 163.386 58.4076 162.268 58.7269C161.163 59.0324 160.338 59.1995 159.792 59.2281C159.233 59.2574 158.736 59.101 158.301 58.7588C157.865 58.4037 157.529 57.9456 157.291 57.3845C157.052 56.8105 156.866 56.2467 156.733 55.6932C156.612 55.1261 156.537 54.5695 156.508 54.0236C156.338 50.7739 157.722 49.0721 160.659 48.9181C161.361 48.8814 161.991 49.0765 162.548 49.5035C163.104 49.9175 163.4 50.482 163.438 51.1969C163.458 51.5869 163.366 51.9371 163.161 52.2477C162.968 52.5575 162.721 52.8116 162.419 53.01C162.128 53.1946 161.747 53.371 161.273 53.5392C160.813 53.7067 160.402 53.8325 160.042 53.9166C159.681 54.0007 159.249 54.095 158.747 54.1995C158.244 54.3041 157.896 54.381 157.703 54.4302C157.736 54.8065 157.772 55.1369 157.813 55.4215C157.867 55.7055 157.949 56.014 158.057 56.3472C158.178 56.6667 158.323 56.9329 158.49 57.1457C158.67 57.3448 158.907 57.5084 159.2 57.6364C159.494 57.7644 159.836 57.8182 160.225 57.7977C160.693 57.7732 161.263 57.7042 161.935 57.5908C162.606 57.4644 163.2 57.3421 163.715 57.2238C164.243 57.1049 164.52 57.0448 164.546 57.0434ZM157.717 53.2172C159.459 52.6177 160.88 52.0088 161.982 51.3905C161.868 50.9664 161.728 50.6609 161.562 50.4741C161.396 50.2872 161.157 50.202 160.845 50.2184C160.052 50.2599 159.345 50.5707 158.724 51.1507C158.115 51.73 157.78 52.4189 157.717 53.2172ZM24.2742 73.2846C26.2666 72.7501 27.4837 72.4712 27.9256 72.4481C29.6675 72.3568 30.5775 73.0586 30.6559 74.5534C30.6831 75.0734 30.6187 75.5851 30.4626 76.0886C30.3188 76.5784 30.121 76.9081 29.8692 77.0777C30.9192 77.7135 31.4759 78.6358 31.5393 79.8447C31.5992 80.9886 31.2689 81.8987 30.5484 82.5752C29.8408 83.2509 28.8761 83.6208 27.6543 83.6849C26.1984 83.7612 25.0926 83.4281 24.3368 82.6856L24.2742 73.2846ZM25.6421 78.1204L26.025 82.0693C26.3582 82.2082 26.7327 82.2668 27.1487 82.245C27.9546 82.2028 28.6822 81.9105 29.3316 81.3681C29.981 80.8257 30.2879 80.2166 30.2525 79.5406C30.228 79.0727 30.0235 78.6533 29.6391 78.2824C29.254 77.8985 28.782 77.7212 28.2231 77.7505C27.8981 77.7675 27.0378 77.8908 25.6421 78.1204ZM25.2366 74.114L25.5305 77.1095C25.7241 77.0733 26.022 77.0382 26.4243 77.004C26.8266 76.9699 27.1502 76.9269 27.3951 76.875C27.6394 76.81 27.9072 76.6982 28.1987 76.5396C28.4895 76.3679 28.7095 76.0892 28.8588 75.7034C29.021 75.3169 29.1186 74.8165 29.1516 74.2021C29.0011 73.819 28.5945 73.6448 27.9315 73.6795C27.6326 73.6952 27.167 73.7652 26.5348 73.8896C25.9027 74.0139 25.4699 74.0888 25.2366 74.114ZM38.8299 82.0434L38.208 68.3117C38.3258 67.8233 38.8721 67.5535 39.847 67.5024C40.7439 67.4554 41.5758 67.5356 42.3427 67.7431C43.1089 67.9376 43.7604 68.3075 44.2974 68.8529C44.8466 69.3845 45.142 70.0468 45.1835 70.8398C45.2162 71.4637 45.0919 72.0763 44.8106 72.6776C44.5423 73.2782 44.1916 73.6746 43.7585 73.8667C44.5966 73.9401 45.2922 74.4055 45.8455 75.2628C46.3988 76.1202 46.7071 77.1533 46.7704 78.3621C46.8133 79.1811 46.5258 79.913 45.9079 80.558C45.2893 81.19 44.5517 81.6653 43.6951 81.9839C42.8508 82.2889 41.9867 82.4645 41.1028 82.5108C40.0239 82.5674 39.2663 82.4115 38.8299 82.0434ZM40.0711 75.1353C40.1181 76.0322 40.1995 77.8332 40.3152 80.5383C40.7283 80.9598 41.2403 81.1546 41.8512 81.1225C42.6572 81.0803 43.4197 80.708 44.1389 80.0055C44.8574 79.2901 45.1965 78.5489 45.1563 77.782C45.1066 76.8331 44.7493 76.1088 44.0845 75.6093C43.4196 75.1097 42.5867 74.8862 41.5858 74.9386C40.9229 74.9734 40.418 75.0389 40.0711 75.1353ZM39.9565 73.6945L41.1643 73.6117C41.9963 73.5681 42.6206 73.2942 43.0373 72.7901C43.4664 72.2723 43.6632 71.6754 43.6278 70.9995C43.5917 70.3106 43.3332 69.7311 42.8524 69.261C42.3709 68.7779 41.7271 68.5574 40.9212 68.5997C40.5573 68.6187 40.1324 68.7192 39.6466 68.9011C39.7142 69.6926 39.7786 70.6733 39.8399 71.8432C39.9142 73.0124 39.9531 73.6295 39.9565 73.6945ZM48.8075 73.5826L48.3654 72.6086C48.6856 72.2529 49.1006 71.964 49.6104 71.7418C50.1194 71.5065 50.6274 71.3756 51.1343 71.3491C53.3311 71.2339 54.529 73.0742 54.7279 76.8698C54.7551 77.3897 54.7628 78.1583 54.751 79.1756C54.7521 80.1923 54.766 80.954 54.7925 81.461C54.7097 81.8694 54.5187 82.0814 54.2198 82.0971C53.9858 82.1094 53.7652 82.0036 53.5579 81.7799C53.3507 81.5561 53.2396 81.3012 53.2246 81.0153C53.2198 80.9243 53.2229 80.859 53.2339 80.8193C52.4688 81.6414 51.6314 82.0763 50.7215 82.124C50.0325 82.1601 49.4152 81.9448 48.8693 81.4781C48.3358 80.9978 48.0503 80.4001 48.0128 79.6852C47.9495 78.4763 48.3602 77.3599 49.245 76.336C50.1428 75.3113 51.1897 74.7677 52.3856 74.705C52.4376 74.7023 52.4899 74.7061 52.5426 74.7163C52.5946 74.7136 52.6534 74.717 52.7191 74.7266C52.7977 74.7355 52.8566 74.739 52.8956 74.7369C52.7119 73.2215 52.0676 72.4928 50.9627 72.5507C50.3128 72.5848 49.5944 72.9287 48.8075 73.5826ZM53.2024 79.4719C53.1807 78.5606 53.1576 77.871 53.1331 77.403C53.1126 77.0131 53.071 76.4678 53.0082 75.7673L52.8522 75.7754C51.93 75.8368 51.1032 76.2255 50.3717 76.9417C49.6532 77.6571 49.3191 78.4958 49.3695 79.4577C49.3913 79.8736 49.5322 80.1986 49.7921 80.4327C50.065 80.666 50.3835 80.7731 50.7474 80.7541C51.3194 80.7241 52.1377 80.2967 53.2024 79.4719ZM64.9788 71.0145L65.8665 71.1635C65.9511 72.0324 66.0816 74.1502 66.2581 77.5168C66.346 79.1936 66.4292 80.408 66.5077 81.1599C65.5211 81.2376 64.2349 81.3181 62.6491 81.4012C59.5814 81.5619 57.5519 81.6357 56.5606 81.6225C56.5608 80.8795 56.5201 79.2328 56.4386 76.6824C56.3564 74.1189 56.3315 72.2759 56.3639 71.1532L57.2525 71.3217C57.4008 72.4088 57.5598 74.0754 57.7296 76.3214C57.8995 78.5675 58.0025 79.9111 58.0386 80.3524C58.3232 80.3114 58.836 80.2715 59.5769 80.2327C60.3302 80.1802 60.8169 80.1416 61.0372 80.117C61.0394 79.6607 61.0149 78.9451 60.9638 77.9702C60.9441 77.5933 60.9073 77.0152 60.8534 76.2359C60.8125 75.456 60.7819 74.8711 60.7614 74.4811C60.6947 73.2072 60.6816 72.087 60.7222 71.1203L61.6098 71.2693C61.7423 72.3051 61.8863 73.9334 62.0417 76.1541C62.2102 78.3741 62.3095 79.6463 62.3395 79.9706C63.6654 79.9011 64.5944 79.8459 65.1267 79.805C65.1248 79.023 65.0964 77.6103 65.0414 75.5668C64.9995 73.5226 64.9786 72.0052 64.9788 71.0145ZM75.8425 78.7155L76.0824 79.5632C75.5214 79.8011 74.6822 80.0797 73.565 80.399C72.46 80.7045 71.6346 80.8716 71.0887 80.9002C70.5297 80.9295 70.0327 80.7731 69.5977 80.4309C69.162 80.0758 68.8252 79.6177 68.5872 79.0566C68.3486 78.4826 68.1626 77.9188 68.0293 77.3653C67.9084 76.7981 67.8336 76.2416 67.805 75.6956C67.6347 72.446 69.0184 70.7442 71.956 70.5902C72.658 70.5534 73.2873 70.7486 73.8441 71.1756C74.4002 71.5896 74.697 72.1541 74.7345 72.869C74.7549 73.259 74.6625 73.6092 74.4572 73.9198C74.2649 74.2296 74.0175 74.4837 73.7151 74.6821C73.4249 74.8667 73.0432 75.0431 72.5697 75.2113C72.1093 75.3788 71.6987 75.5046 71.3382 75.5887C70.9776 75.6728 70.5459 75.7671 70.0431 75.8716C69.5402 75.9762 69.1923 76.0531 68.9994 76.1023C69.0321 76.4786 69.069 76.809 69.11 77.0936C69.164 77.3775 69.2453 77.6861 69.354 78.0193C69.475 78.3388 69.6193 78.605 69.7869 78.8178C69.9668 79.0169 70.2034 79.1805 70.4969 79.3085C70.7904 79.4365 71.1321 79.4902 71.522 79.4698C71.99 79.4453 72.5599 79.3763 73.2317 79.2629C73.9029 79.1365 74.4961 79.0141 75.0112 78.8959C75.5394 78.777 75.8165 78.7168 75.8425 78.7155ZM69.014 74.8893C70.7553 74.2897 72.1767 73.6808 73.2783 73.0626C73.1648 72.6384 73.025 72.3329 72.8588 72.1461C72.6926 71.9593 72.4535 71.8741 72.1415 71.8905C71.3486 71.932 70.6415 72.2428 70.0201 72.8228C69.4118 73.4021 69.0764 74.091 69.014 74.8893ZM78.0552 68.335L77.8871 67.7377C78.2011 67.7603 78.5076 67.7638 78.8065 67.7482C79.7035 67.7012 80.5159 67.4109 81.244 66.8775C81.5443 66.8878 81.8025 66.9655 82.0187 67.1106C82.2348 67.2557 82.3484 67.4322 82.3593 67.6402C82.3681 67.8092 82.3168 67.9487 82.2052 68.0588C82.0937 68.1689 81.9223 68.2561 81.6911 68.3204C81.4591 68.3716 81.2655 68.4079 81.1102 68.429C80.9542 68.4372 80.7462 68.4481 80.4863 68.4617C79.6414 68.506 78.831 68.4638 78.0552 68.335ZM78.5475 78.8474C78.5591 79.0684 78.5874 79.3602 78.6325 79.7228C78.5366 80.1319 78.3197 80.3453 77.9817 80.363C77.7478 80.3753 77.5155 80.2962 77.285 80.1258C77.0668 79.9417 76.9246 79.7146 76.8583 79.4443C76.8421 78.3894 76.8069 76.8467 76.7526 74.8161C76.7113 72.7849 76.6849 71.4112 76.6735 70.6949L77.5622 70.4919C77.7618 71.3157 77.9172 72.4154 78.0284 73.7913C78.1396 75.1671 78.2454 76.1912 78.3458 76.8638C78.5737 76.4869 79.2259 75.5012 80.3024 73.9067C81.3789 72.3122 82.1054 71.1271 82.4818 70.3514C82.765 70.2844 82.9457 70.2489 83.0237 70.2448C83.2706 70.2319 83.4454 70.3335 83.548 70.5497C83.6635 70.7652 83.7503 71.1778 83.8084 71.7874L84.5998 79.8011C84.5033 80.1972 84.286 80.4041 83.948 80.4218C83.7141 80.4341 83.4818 80.355 83.2513 80.1846C83.0331 80.0005 82.8909 79.7734 82.8246 79.5031C82.8151 79.0735 82.7927 78.0254 82.7575 76.3588C82.7346 74.6786 82.7243 73.4865 82.7265 72.7825C80.6366 75.4338 79.2436 77.4554 78.5475 78.8474ZM94.7962 65.4438L96.2832 65.4636C96.7316 67.0564 97.5986 69.2985 98.8841 72.1899C100.169 75.0683 101.032 77.2259 101.472 78.6627C101.492 79.0397 101.441 79.3225 101.321 79.5113C101.201 79.7131 101.044 79.8191 100.849 79.8294C100.68 79.8382 100.513 79.7752 100.35 79.6404C100.2 79.5179 100.093 79.3346 100.028 79.0903C99.8809 78.5245 99.4439 77.4004 98.7171 75.7179C96.0217 75.5203 94.3274 75.4005 93.6344 75.3587C93.49 75.8355 93.3218 76.6068 93.13 77.6726C92.9382 78.7385 92.7814 79.4766 92.6595 79.8871C92.4768 80.1312 92.262 80.2598 92.015 80.2728C91.742 80.2871 91.5016 80.1758 91.2937 79.9391C91.0864 79.7153 90.9736 79.428 90.9552 79.077C91.2915 77.5344 91.9282 75.2591 92.8655 72.2512C93.8027 69.2433 94.4463 66.9741 94.7962 65.4438ZM95.5819 67.3773C95.4043 68.9638 94.8038 71.3089 93.7803 74.4125L95.9641 74.2981C96.952 74.2463 97.7791 74.2356 98.4455 74.2658C96.9561 71.4633 96.0015 69.1671 95.5819 67.3773ZM101.909 69.4701L108.483 69.1843L109.427 78.6173C109.33 79.0134 109.113 79.2203 108.775 79.238C108.541 79.2502 108.309 79.1647 108.077 78.9813C107.847 78.8109 107.698 78.5906 107.632 78.3203C107.633 78.0857 107.614 77.3502 107.575 76.114C107.549 74.8641 107.525 73.6726 107.505 72.5397C107.484 71.3938 107.471 70.6515 107.467 70.3129C107.101 70.3059 106.561 70.3212 105.846 70.3587C104.871 70.4098 104.057 70.4134 103.403 70.3694C103.464 70.7963 103.569 72.179 103.718 74.5174C103.866 76.8428 103.963 78.1933 104.009 78.5689C103.913 78.978 103.696 79.1914 103.358 79.2091C103.124 79.2213 102.892 79.1423 102.661 78.9719C102.443 78.7878 102.301 78.5606 102.234 78.2904C102.239 77.6384 102.225 76.9874 102.191 76.3375C102.173 75.9995 102.137 75.4409 102.083 74.6617C102.029 73.8825 101.991 73.2654 101.967 72.8104C101.897 71.4716 101.877 70.3581 101.909 69.4701ZM109.925 69.8516L109.705 69.0029C111.441 68.8076 114.177 68.5209 117.911 68.1427C118.223 68.1394 118.496 68.2424 118.729 68.4518C118.961 68.6612 119.084 68.8894 119.097 69.1364C119.117 69.5263 118.869 69.7609 118.352 69.8402L114.696 69.8558C114.812 70.8273 114.919 72.2489 115.018 74.1207C115.128 75.9788 115.225 77.3358 115.309 78.1917C115.212 78.5748 114.994 78.7752 114.656 78.7929C114.435 78.8045 114.216 78.7247 113.999 78.5537C113.781 78.3826 113.639 78.1684 113.574 77.9112C113.588 74.704 113.636 72.0099 113.717 69.8289L109.925 69.8516ZM127.434 76.0117L127.674 76.8594C127.113 77.0973 126.274 77.3759 125.157 77.6952C124.052 78.0007 123.226 78.1678 122.68 78.1964C122.121 78.2257 121.624 78.0693 121.189 77.7271C120.754 77.372 120.417 76.9139 120.179 76.3528C119.94 75.7788 119.754 75.215 119.621 74.6615C119.5 74.0943 119.425 73.5378 119.397 72.9918C119.226 69.7422 120.61 68.0404 123.548 67.8864C124.25 67.8496 124.879 68.0447 125.436 68.4718C125.992 68.8858 126.289 69.4503 126.326 70.1652C126.347 70.5552 126.254 70.9054 126.049 71.216C125.856 71.5258 125.609 71.7799 125.307 71.9783C125.017 72.1629 124.635 72.3393 124.161 72.5075C123.701 72.675 123.29 72.8008 122.93 72.8849C122.569 72.969 122.138 73.0633 121.635 73.1678C121.132 73.2724 120.784 73.3493 120.591 73.3985C120.624 73.7748 120.661 74.1052 120.702 74.3898C120.756 74.6737 120.837 74.9823 120.946 75.3155C121.067 75.635 121.211 75.9012 121.378 76.114C121.558 76.3131 121.795 76.4767 122.089 76.6047C122.382 76.7327 122.724 76.7864 123.114 76.766C123.582 76.7415 124.151 76.6725 124.823 76.5591C125.494 76.4327 126.088 76.3103 126.603 76.1921C127.131 76.0732 127.408 76.013 127.434 76.0117ZM120.606 72.1855C122.347 71.5859 123.768 70.977 124.87 70.3588C124.756 69.9346 124.617 69.6291 124.45 69.4423C124.284 69.2555 124.045 69.1703 123.733 69.1866C122.94 69.2282 122.233 69.539 121.612 70.119C121.003 70.6983 120.668 71.3872 120.606 72.1855ZM135.463 76.9986L135.566 77.8535C135.258 77.9478 135.039 77.9984 134.91 78.0052C134.416 78.0311 133.959 77.8921 133.539 77.5883C133.119 77.2844 132.766 76.9053 132.482 76.451C132.197 75.9967 131.926 75.5417 131.667 75.086C131.422 74.6296 131.161 74.2457 130.884 73.9344C130.607 73.6231 130.332 73.4745 130.059 73.4889C129.955 73.4943 129.858 73.5189 129.769 73.5627C129.862 74.3399 130.019 75.596 130.24 77.331C130.145 77.7401 129.928 77.9535 129.59 77.9712C129.356 77.9834 129.123 77.9044 128.893 77.734C128.675 77.5499 128.533 77.3227 128.466 77.0525C128.404 74.866 128.322 72.8108 128.221 70.887C128.147 69.4702 128.147 68.3427 128.22 67.5047L129.114 67.7707C129.244 68.2722 129.341 68.997 129.404 69.9452C129.466 70.8805 129.509 71.4582 129.534 71.6785C129.92 71.5931 130.248 71.3739 130.516 71.021C130.797 70.6673 131.018 70.2713 131.177 69.8328C131.349 69.3936 131.529 68.9606 131.715 68.5337C131.901 68.1069 132.149 67.7419 132.459 67.4389C132.782 67.1352 133.171 66.9715 133.626 66.9476C133.86 66.9354 134.228 66.9943 134.73 67.1244L134.687 67.7914C134.608 67.7825 134.504 67.7815 134.374 67.7883C133.854 67.8155 133.411 68.0603 133.044 68.5227C132.689 68.9714 132.429 69.4674 132.262 70.0105C132.107 70.54 131.899 71.0527 131.638 71.5487C131.378 72.0446 131.08 72.3404 130.746 72.4361C131.234 72.5279 131.66 72.8314 132.026 73.3466C132.405 73.8612 132.694 74.4 132.893 74.9631C133.104 75.5125 133.391 76.0123 133.753 76.4626C134.115 76.8998 134.543 77.1055 135.037 77.0796C135.167 77.0728 135.309 77.0458 135.463 76.9986ZM144.105 75.138L144.345 75.9857C143.784 76.2236 142.945 76.5022 141.827 76.8215C140.722 77.127 139.897 77.2941 139.351 77.3227C138.792 77.352 138.295 77.1956 137.86 76.8534C137.424 76.4983 137.088 76.0402 136.85 75.4791C136.611 74.9051 136.425 74.3413 136.292 73.7878C136.171 73.2207 136.096 72.6641 136.067 72.1182C135.897 68.8685 137.281 67.1667 140.218 67.0127C140.92 66.976 141.55 67.1711 142.106 67.5981C142.663 68.0121 142.959 68.5766 142.997 69.2915C143.017 69.6815 142.925 70.0317 142.72 70.3423C142.527 70.6521 142.28 70.9062 141.977 71.1046C141.687 71.2892 141.306 71.4656 140.832 71.6338C140.372 71.8013 139.961 71.9271 139.601 72.0112C139.24 72.0953 138.808 72.1896 138.305 72.2941C137.803 72.3987 137.455 72.4756 137.262 72.5248C137.294 72.9011 137.331 73.2315 137.372 73.5161C137.426 73.8001 137.508 74.1086 137.616 74.4418C137.737 74.7613 137.882 75.0275 138.049 75.2403C138.229 75.4394 138.466 75.603 138.759 75.731C139.053 75.859 139.394 75.9128 139.784 75.8923C140.252 75.8678 140.822 75.7988 141.494 75.6854C142.165 75.559 142.758 75.4367 143.274 75.3184C143.802 75.1995 144.079 75.1394 144.105 75.138ZM137.276 71.3118C139.018 70.7123 140.439 70.1034 141.541 69.4851C141.427 69.061 141.287 68.7555 141.121 68.5687C140.955 68.3818 140.716 68.2966 140.404 68.313C139.611 68.3545 138.904 68.6653 138.283 69.2453C137.674 69.8246 137.339 70.5135 137.276 71.3118ZM25.1116 89.2627C27.1039 88.7282 28.3211 88.4493 28.763 88.4261C30.5048 88.3349 31.4149 89.0366 31.4933 90.5315C31.5205 91.0514 31.4561 91.5631 31.3 92.0666C31.1562 92.5564 30.9584 92.8861 30.7066 93.0557C31.7566 93.6915 32.3133 94.6139 32.3767 95.8227C32.4366 96.9666 32.1063 97.8768 31.3858 98.5532C30.6782 99.229 29.7135 99.5989 28.4916 99.6629C27.0358 99.7392 25.93 99.4062 25.1742 98.6637L25.1116 89.2627ZM26.4795 94.0984L26.8624 98.0473C27.1955 98.1863 27.5701 98.2449 27.986 98.2231C28.792 98.1808 29.5196 97.8885 30.169 97.3462C30.8183 96.8038 31.1253 96.1946 31.0899 95.5187C31.0653 95.0508 30.8609 94.6313 30.4765 94.2605C30.0914 93.8766 29.6194 93.6993 29.0605 93.7286C28.7355 93.7456 27.8752 93.8689 26.4795 94.0984ZM26.074 90.0921L26.3679 93.0876C26.5615 93.0514 26.8594 93.0162 27.2617 92.9821C27.664 92.948 27.9876 92.905 28.2325 92.853C28.4768 92.7881 28.7446 92.6763 29.0361 92.5176C29.3269 92.346 29.5469 92.0673 29.6961 91.6814C29.8584 91.2949 29.956 90.7945 29.9889 90.1802C29.8385 89.797 29.4318 89.6228 28.7689 89.6576C28.4699 89.6732 28.0044 89.7433 27.3722 89.8676C26.74 89.992 26.3073 90.0668 26.074 90.0921ZM39.4762 94.3753C39.449 93.8554 39.4706 93.2742 39.5412 92.6318C39.6249 91.9888 39.7588 91.3105 39.9429 90.597C40.1271 89.8835 40.4279 89.2812 40.8454 88.7901C41.2628 88.2989 41.764 88.0381 42.3489 88.0074C43.5968 87.942 44.6273 88.455 45.4405 89.5464C46.253 90.6247 46.6954 91.8529 46.7676 93.2307C46.7982 93.8156 46.7639 94.404 46.6646 94.9957C46.5776 95.5738 46.4187 96.1491 46.188 96.7217C45.9574 97.2943 45.6049 97.782 45.1307 98.1848C44.6688 98.574 44.1143 98.8116 43.4671 98.8977C42.2631 98.8043 41.3136 98.3458 40.6187 97.5219C39.9231 96.6851 39.5423 95.6362 39.4762 94.3753ZM42.519 89.0152C42.0668 89.091 41.7052 89.5271 41.4341 90.3233C41.163 91.1196 41.0013 91.8906 40.9492 92.6363C40.8963 93.369 40.8846 94.0148 40.9139 94.5737C40.952 95.3016 41.2084 95.966 41.6831 96.5668C42.17 97.1539 42.693 97.4328 43.2519 97.4035C43.6549 97.3823 44.0107 97.2073 44.3193 96.8783C44.6279 96.5493 44.8613 96.1525 45.0194 95.6881C45.1899 95.2099 45.3083 94.7344 45.3748 94.2617C45.4543 93.7883 45.4845 93.3696 45.4654 93.0057C45.4095 91.9398 45.1204 91.023 44.5978 90.2553C44.0753 89.4876 43.3824 89.0742 42.519 89.0152ZM48.9723 100.603L48.0846 100.454C48.0771 100.311 48.029 99.8903 47.9402 99.1911C47.8514 98.4919 47.7989 97.9863 47.7825 97.6744C47.7689 97.4144 47.7738 97.1339 47.7971 96.8329L49.0645 96.7665C49.1179 96.5421 49.2045 96.2052 49.3243 95.7557C49.4571 95.3056 49.5448 94.9882 49.5872 94.8035C49.6297 94.6188 49.6872 94.3485 49.7598 93.9928C49.8447 93.6234 49.8937 93.3145 49.9068 93.0662C49.9321 92.8042 49.9479 92.484 49.9542 92.1057C49.9734 91.7267 49.9721 91.3292 49.9503 90.9132C49.8992 89.9383 49.8027 88.842 49.6607 87.6242C50.3906 87.6251 51.1589 87.6109 51.9655 87.5816C52.7851 87.5517 53.4556 87.5361 53.9769 87.5349C54.4982 87.5336 55.0342 87.5642 55.5849 87.6266C55.6702 88.5084 55.7855 89.9622 55.9308 91.988C56.0884 94 56.2098 95.447 56.2951 96.3289L57.816 96.2492L57.8466 96.8341C57.8643 97.1721 57.896 97.6527 57.9417 98.2759C58.0004 98.8985 58.0352 99.3138 58.0461 99.5218C58.0666 99.9117 58.0692 100.211 58.0541 100.421L57.1665 100.272C57.105 100.092 57.0407 99.8612 56.9737 99.578C56.9204 99.307 56.8593 99.0104 56.7903 98.6882C56.7212 98.366 56.67 98.134 56.6365 97.9924C55.8935 97.9922 54.7066 97.9762 53.0756 97.9444C51.4576 97.9119 50.1927 97.9 49.2807 97.9087L48.9723 100.603ZM51.3629 88.7668C51.3601 88.9624 51.3685 89.3726 51.3882 89.9972C51.4073 90.6088 51.4123 91.0778 51.4033 91.4041C51.4074 91.7297 51.3922 92.1867 51.3579 92.7751C51.3358 93.3497 51.2896 93.8344 51.219 94.2292C51.1478 94.6109 51.0331 95.034 50.8749 95.4985C50.7291 95.9493 50.5477 96.3433 50.3308 96.6806L54.6009 96.4568L54.5882 88.7541C54.4055 88.7507 53.9236 88.7564 53.1423 88.7713C52.374 88.7854 51.7809 88.7839 51.3629 88.7668ZM60.7643 95.8014C60.7759 96.0224 60.8042 96.3141 60.8493 96.6767C60.7534 97.0858 60.5365 97.2992 60.1986 97.3169C59.9646 97.3292 59.7323 97.2501 59.5018 97.0797C59.2836 96.8957 59.1414 96.6685 59.0751 96.3982C59.0589 95.3433 59.0237 93.8006 58.9694 91.7701C58.9281 89.7389 58.9017 88.3651 58.8903 87.6489L59.779 87.4459C59.9786 88.2696 60.134 89.3694 60.2452 90.7452C60.3564 92.121 60.4622 93.1452 60.5626 93.8177C60.7905 93.4408 61.4427 92.4551 62.5192 90.8606C63.5957 89.2662 64.3222 88.0811 64.6986 87.3053C64.9819 87.2384 65.1625 87.2028 65.2405 87.1987C65.4874 87.1858 65.6622 87.2874 65.7648 87.5036C65.8804 87.7192 65.9672 88.1317 66.0252 88.7413L66.8166 96.755C66.7201 97.1511 66.5028 97.358 66.1649 97.3757C65.9309 97.388 65.6986 97.3089 65.4681 97.1385C65.2499 96.9545 65.1077 96.7273 65.0414 96.457C65.0319 96.0274 65.0096 94.9793 64.9744 93.3128C64.9515 91.6325 64.9411 90.4404 64.9433 89.7365C62.8534 92.3877 61.4604 94.4093 60.7643 95.8014ZM73.7457 86.8312L74.6333 86.9802L75.5774 96.4132C75.4808 96.8093 75.2635 97.0162 74.9256 97.0339C74.6916 97.0462 74.459 96.9606 74.2278 96.7772C73.9973 96.6068 73.8489 96.3865 73.7826 96.1162C73.7806 96.0772 73.7815 94.9758 73.7854 92.8119L73.7772 92.6559C73.4119 92.649 72.8718 92.6643 72.1568 92.7017C71.078 92.7583 70.2638 92.7683 69.7145 92.732C69.819 93.4825 69.9672 94.6934 70.159 96.3648C70.0632 96.7739 69.8463 96.9873 69.5083 97.005C69.2743 97.0173 69.0421 96.9382 68.8116 96.7678C68.5934 96.5837 68.4511 96.3566 68.3848 96.0863C68.3897 95.4343 68.3752 94.7834 68.3411 94.1334C68.3193 93.7175 68.2801 93.0939 68.2235 92.2627C68.1669 91.4314 68.1281 90.8143 68.107 90.4114C68.0416 89.1635 68.0257 88.1151 68.0594 87.2661L68.9481 87.4346C69.3559 90.2416 69.5683 91.6838 69.5854 91.7612C71.8143 91.7617 72.9612 91.7602 73.0262 91.7568C73.5592 91.7289 73.824 91.6824 73.8205 91.6174C73.8069 91.3574 73.7897 90.5307 73.7688 89.1371C73.7479 87.7435 73.7402 86.9749 73.7457 86.8312ZM89.7001 95.4189L89.8035 96.2738C89.4957 96.3681 89.2767 96.4187 89.1467 96.4255C88.6528 96.4514 88.1958 96.3124 87.7758 96.0085C87.3559 95.7047 87.0036 95.3256 86.7191 94.8713C86.4346 94.417 86.1631 93.9619 85.9046 93.5063C85.6591 93.0499 85.3979 92.666 85.1209 92.3547C84.8439 92.0433 84.5689 91.8948 84.2959 91.9091C84.1919 91.9146 84.0954 91.9392 84.0065 91.983C84.0994 92.7601 84.2564 94.0162 84.4777 95.7513C84.3818 96.1603 84.1649 96.3737 83.8269 96.3915C83.593 96.4037 83.3607 96.3246 83.1302 96.1542C82.912 95.9702 82.7698 95.743 82.7035 95.4728C82.641 93.2863 82.5594 91.2311 82.4586 89.3073C82.3843 87.8905 82.3839 86.763 82.4573 85.925L83.351 86.191C83.4816 86.6925 83.5782 87.4173 83.6409 88.3655C83.703 89.3008 83.7463 89.8785 83.7709 90.0988C84.1574 90.0134 84.4848 89.7942 84.7531 89.4412C85.0344 89.0876 85.2547 88.6915 85.4142 88.253C85.5867 87.8139 85.7661 87.3809 85.9523 86.954C86.1384 86.5271 86.3865 86.1622 86.6965 85.8592C87.0195 85.5555 87.4084 85.3918 87.8634 85.3679C88.0974 85.3557 88.4654 85.4146 88.9675 85.5447L88.9243 86.2117C88.8456 86.2028 88.7413 86.2017 88.6113 86.2085C88.0914 86.2358 87.648 86.4806 87.2812 86.943C86.9267 87.3917 86.6659 87.8877 86.4989 88.4308C86.3442 88.9603 86.1364 89.473 85.8756 89.9689C85.6149 90.4649 85.3176 90.7607 84.9837 90.8564C85.4708 90.9482 85.8973 91.2517 86.2631 91.7669C86.642 92.2815 86.931 92.8203 87.1299 93.3834C87.3412 93.9328 87.6281 94.4326 87.9906 94.8828C88.3524 95.3201 88.7803 95.5258 89.2742 95.4999C89.4042 95.4931 89.5461 95.4661 89.7001 95.4189ZM88.5892 97.7255L88.2333 96.9035C88.6534 96.712 89.0294 96.4251 89.3613 96.0428C89.6802 95.6611 89.9399 95.2695 90.1405 94.8679C90.3403 94.4534 90.5026 93.9431 90.6272 93.337C90.7519 92.7308 90.8351 92.2051 90.8769 91.7598C90.9311 91.3007 90.9603 90.7387 90.9645 90.0737C90.9688 89.4088 90.9624 88.9138 90.9454 88.5888C90.9407 88.2502 90.9237 87.8014 90.8944 87.2424C90.8528 86.4495 90.8994 85.9713 91.0342 85.8078C91.206 85.6033 92.2083 85.453 94.0411 85.357C95.4839 85.2814 96.3025 85.232 96.4968 85.2087C96.7994 90.4848 97.0439 93.9066 97.2303 95.4739C97.1208 95.8707 96.9035 96.0776 96.5785 96.0947C96.3576 96.1062 96.1383 96.0265 95.9208 95.8554C95.7033 95.6843 95.5617 95.4702 95.4961 95.2129C95.4565 94.7066 95.4105 93.9531 95.3581 92.9522C95.3322 92.4582 95.293 91.7108 95.2406 90.7099C95.2011 89.7083 95.1681 88.9541 95.1415 88.4471C95.0925 87.5112 95.0492 86.8096 95.0117 86.3424C94.4705 86.462 93.9338 86.5422 93.4015 86.5832C92.8692 86.6241 92.4933 86.6633 92.2737 86.7009C92.2572 87.1319 92.2581 87.7705 92.2763 88.6168C92.2946 89.4631 92.3078 90.2119 92.3159 90.8632C92.3362 91.5008 92.2964 92.2328 92.1963 93.0592C92.0956 93.8726 91.9237 94.5724 91.6807 95.1587C91.45 95.7313 91.0668 96.2532 90.531 96.7244C90.0089 97.208 89.3617 97.5417 88.5892 97.7255ZM100.443 93.7219C100.454 93.9429 100.483 94.2347 100.528 94.5973C100.432 95.0064 100.215 95.2198 99.8769 95.2375C99.6429 95.2498 99.4107 95.1707 99.1802 95.0003C98.962 94.8162 98.8197 94.589 98.7534 94.3188C98.7373 93.2639 98.702 91.7211 98.6477 89.6906C98.6065 87.6594 98.5801 86.2857 98.5686 85.5694L99.4574 85.3664C99.6569 86.1901 99.8123 87.2899 99.9235 88.6657C100.035 90.0415 100.141 91.0657 100.241 91.7382C100.469 91.3613 101.121 90.3756 102.198 88.7812C103.274 87.1867 104.001 86.0016 104.377 85.2259C104.66 85.1589 104.841 85.1234 104.919 85.1193C105.166 85.1063 105.341 85.208 105.443 85.4242C105.559 85.6397 105.646 86.0523 105.704 86.6618L106.495 94.6756C106.398 95.0717 106.181 95.2786 105.843 95.2963C105.609 95.3085 105.377 95.2295 105.146 95.0591C104.928 94.875 104.786 94.6478 104.72 94.3776C104.71 93.948 104.688 92.8999 104.653 91.2333C104.63 89.5531 104.619 88.361 104.622 87.657C102.532 90.3082 101.139 92.3299 100.443 93.7219ZM115.067 94.0895L115.17 94.9443C114.863 95.0387 114.644 95.0892 114.514 95.0961C114.02 95.1219 113.563 94.983 113.143 94.6791C112.723 94.3753 112.37 93.9962 112.086 93.5419C111.801 93.0875 111.53 92.6325 111.271 92.1768C111.026 91.7205 110.765 91.3366 110.488 91.0253C110.211 90.7139 109.936 90.5654 109.663 90.5797C109.559 90.5852 109.462 90.6098 109.373 90.6535C109.466 91.4307 109.623 92.6868 109.845 94.4218C109.749 94.8309 109.532 95.0443 109.194 95.062C108.96 95.0743 108.728 94.9952 108.497 94.8248C108.279 94.6407 108.137 94.4136 108.07 94.1433C108.008 91.9568 107.926 89.9017 107.825 87.9779C107.751 86.561 107.751 85.4336 107.824 84.5955L108.718 84.8615C108.848 85.363 108.945 86.0879 109.008 87.0361C109.07 87.9713 109.113 88.5491 109.138 88.7694C109.524 88.684 109.852 88.4648 110.12 88.1118C110.401 87.7582 110.622 87.3621 110.781 86.9236C110.954 86.4845 111.133 86.0514 111.319 85.6246C111.505 85.1977 111.753 84.8328 112.063 84.5298C112.386 84.2261 112.775 84.0623 113.23 84.0385C113.464 84.0262 113.832 84.0852 114.334 84.2153L114.291 84.8823C114.212 84.8734 114.108 84.8723 113.978 84.8791C113.458 84.9064 113.015 85.1512 112.648 85.6136C112.294 86.0623 112.033 86.5582 111.866 87.1014C111.711 87.6309 111.503 88.1436 111.242 88.6395C110.982 89.1355 110.684 89.4313 110.351 89.527C110.838 89.6188 111.264 89.9223 111.63 90.4375C112.009 90.9521 112.298 91.4909 112.497 92.054C112.708 92.6034 112.995 93.1032 113.357 93.5534C113.719 93.9907 114.147 94.1963 114.641 94.1705C114.771 94.1636 114.913 94.1367 115.067 94.0895Z" fill="#3B636B"/>
</g>
</g>
<defs>
<filter id="filter0_ddd_3195_42576" x="-6" y="16" width="251.576" height="250" filterUnits="userSpaceOnUse" color-interpolation-filters="sRGB">
<feFlood flood-opacity="0" result="BackgroundImageFix"/>
<feColorMatrix in="SourceAlpha" type="matrix" values="0 0 0 0 0 0 0 0 0 0 0 0 0 0 0 0 0 0 127 0" result="hardAlpha"/>
<feOffset dy="3"/>
<feGaussianBlur stdDeviation="2.5"/>
<feColorMatrix type="matrix" values="0 0 0 0 0 0 0 0 0 0 0 0 0 0 0 0 0 0 0.2 0"/>
<feBlend mode="normal" in2="BackgroundImageFix" result="effect1_dropShadow_3195_42576"/>
<feColorMatrix in="SourceAlpha" type="matrix" values="0 0 0 0 0 0 0 0 0 0 0 0 0 0 0 0 0 0 127 0" result="hardAlpha"/>
<feOffset dy="1"/>
<feGaussianBlur stdDeviation="9"/>
<feColorMatrix type="matrix" values="0 0 0 0 0 0 0 0 0 0 0 0 0 0 0 0 0 0 0.12 0"/>
<feBlend mode="normal" in2="effect1_dropShadow_3195_42576" result="effect2_dropShadow_3195_42576"/>
<feColorMatrix in="SourceAlpha" type="matrix" values="0 0 0 0 0 0 0 0 0 0 0 0 0 0 0 0 0 0 127 0" result="hardAlpha"/>
<feOffset dy="5"/>
<feGaussianBlur stdDeviation="5"/>
<feColorMatrix type="matrix" values="0 0 0 0 0 0 0 0 0 0 0 0 0 0 0 0 0 0 0.14 0"/>
<feBlend mode="normal" in2="effect2_dropShadow_3195_42576" result="effect3_dropShadow_3195_42576"/>
<feBlend mode="normal" in="SourceGraphic" in2="effect3_dropShadow_3195_42576" result="shape"/>
</filter>
<clipPath id="clip0_3195_42576">
<rect width="240" height="280" fill="white"/>
</clipPath>
</defs>
</svg>
