<svg width="240" height="280" viewBox="0 0 240 280" fill="none" xmlns="http://www.w3.org/2000/svg">
<g clip-path="url(#clip0_3195_42572)">
<g filter="url(#filter0_ddd_3195_42572)">
<path d="M48.0548 13.6283C33.5556 15.6283 38.5554 33.6283 40.0554 54.6283C41.5554 75.6283 43.3551 85.8277 44.5551 92.6277C45.7551 99.4277 71.4004 94.96 84.9004 94.96C105.908 93.7476 193.175 97.7479 192.4 79.96C192.901 68.9597 195.093 45.4033 190.055 31.1276C188.115 25.629 172.055 31.1276 142.555 31.1276C113.055 31.1276 121.556 32.6282 120.056 22.6282C118.556 12.6282 110.056 13.628 99.0557 14.628C94.0514 15.0829 62.554 11.6283 48.0548 13.6283Z" fill="white"/>
<path d="M49.3536 37.7029L48.7317 23.9712C48.8495 23.4828 49.3958 23.213 50.3707 23.1619C51.2676 23.1149 52.0995 23.1951 52.8664 23.4026C53.6326 23.597 54.2841 23.967 54.821 24.5123C55.3703 25.044 55.6657 25.7063 55.7072 26.4992C55.7399 27.1232 55.6156 27.7358 55.3343 28.3371C55.066 28.9377 54.7153 29.3341 54.2822 29.5262C55.1202 29.5996 55.8159 30.065 56.3692 30.9223C56.9224 31.7796 57.2308 32.8128 57.2941 34.0216C57.337 34.8405 57.0495 35.5725 56.4316 36.2175C55.813 36.8495 55.0754 37.3248 54.2188 37.6434C53.3745 37.9483 52.5104 38.124 51.6265 38.1703C50.5476 38.2268 49.79 38.071 49.3536 37.7029ZM50.5948 30.7948C50.6418 31.6917 50.7232 33.4927 50.8388 36.1978C51.252 36.6193 51.764 36.814 52.3749 36.782C53.1809 36.7398 53.9434 36.3674 54.6626 35.665C55.3811 34.9496 55.7202 34.2084 55.68 33.4415C55.6303 32.4926 55.273 31.7683 54.6081 31.2688C53.9433 30.7692 53.1104 30.5456 52.1095 30.5981C51.4466 30.6328 50.9417 30.6984 50.5948 30.7948ZM50.4802 29.354L51.688 29.2711C52.5199 29.2275 53.1443 28.9537 53.561 28.4496C53.9901 27.9318 54.1869 27.3349 54.1515 26.659C54.1154 25.9701 53.8569 25.3905 53.3761 24.9204C52.8946 24.4373 52.2508 24.2169 51.4449 24.2591C51.081 24.2782 50.6561 24.3787 50.1703 24.5606C50.2379 25.3521 50.3023 26.3328 50.3636 27.5027C50.4379 28.6719 50.4768 29.289 50.4802 29.354ZM58.9754 27.677C60.9677 27.1425 62.1849 26.8636 62.6268 26.8405C64.3686 26.7492 65.2787 27.451 65.357 28.9458C65.3843 29.4657 65.3199 29.9775 65.1638 30.4809C65.02 30.9708 64.8222 31.3005 64.5704 31.4701C65.6204 32.1059 66.1771 33.0282 66.2404 34.2371C66.3004 35.381 65.9701 36.2911 65.2496 36.9676C64.542 37.6433 63.5773 38.0132 62.3554 38.0773C60.8996 38.1536 59.7938 37.8205 59.038 37.078L58.9754 27.677ZM60.3433 32.5128L60.7262 36.4617C61.0593 36.6006 61.4339 36.6592 61.8498 36.6374C62.6558 36.5952 63.3834 36.3029 64.0328 35.7605C64.6821 35.2181 64.9891 34.609 64.9537 33.933C64.9291 33.4651 64.7247 33.0457 64.3403 32.6748C63.9552 32.2909 63.4832 32.1136 62.9242 32.1429C62.5993 32.1599 61.739 32.2832 60.3433 32.5128ZM59.9378 28.5064L60.2316 31.5019C60.4253 31.4657 60.7232 31.4306 61.1255 31.3964C61.5278 31.3623 61.8514 31.3193 62.0963 31.2674C62.3406 31.2024 62.6084 31.0906 62.8999 30.932C63.1907 30.7603 63.4107 30.4816 63.5599 30.0958C63.7221 29.7093 63.8197 29.2089 63.8527 28.5945C63.7023 28.2114 63.2956 28.0372 62.6327 28.0719C62.3337 28.0876 61.8682 28.1576 61.236 28.282C60.6038 28.4063 60.1711 28.4811 59.9378 28.5064ZM75.0379 34.9687L75.2778 35.8164C74.7168 36.0543 73.8776 36.3329 72.7604 36.6521C71.6554 36.9577 70.83 37.1248 70.284 37.1534C69.7251 37.1827 69.2281 37.0263 68.7931 36.6841C68.3574 36.3289 68.0205 35.8708 67.7826 35.3098C67.5439 34.7358 67.358 34.172 67.2247 33.6185C67.1037 33.0513 67.029 32.4948 67.0003 31.9488C66.83 28.6992 68.2137 26.9974 71.1514 26.8434C71.8533 26.8066 72.4827 27.0017 73.0395 27.4287C73.5956 27.8428 73.8924 28.4072 73.9299 29.1222C73.9503 29.5121 73.8579 29.8624 73.6525 30.1729C73.4602 30.4828 73.2129 30.7369 72.9104 30.9352C72.6203 31.1199 72.2385 31.2963 71.7651 31.4645C71.3046 31.632 70.8941 31.7578 70.5336 31.8419C70.173 31.9259 69.7413 32.0202 69.2384 32.1248C68.7356 32.2294 68.3877 32.3062 68.1947 32.3555C68.2275 32.7317 68.2644 33.0622 68.3054 33.3468C68.3593 33.6307 68.4407 33.9393 68.5494 34.2725C68.6704 34.592 68.8147 34.8582 68.9823 35.071C69.1621 35.2701 69.3988 35.4336 69.6923 35.5616C69.9857 35.6896 70.3275 35.7434 70.7174 35.723C71.1854 35.6985 71.7553 35.6295 72.4271 35.5161C73.0983 35.3897 73.6914 35.2673 74.2066 35.1491C74.7348 35.0302 75.0119 34.97 75.0379 34.9687ZM68.2094 31.1425C69.9506 30.5429 71.372 29.934 72.4736 29.3158C72.3602 28.8916 72.2203 28.5861 72.0541 28.3993C71.8879 28.2125 71.6488 28.1273 71.3369 28.1436C70.544 28.1852 69.8368 28.496 69.2155 29.076C68.6072 29.6553 68.2718 30.3441 68.2094 31.1425ZM76.4797 39.3508L75.5921 39.2018C75.5846 39.0589 75.5365 38.6378 75.4477 37.9386C75.3589 37.2394 75.3063 36.7338 75.29 36.4218C75.2764 36.1618 75.2812 35.8813 75.3045 35.5803L76.5719 35.5139C76.6253 35.2895 76.7119 34.9526 76.8318 34.5032C76.9646 34.053 77.0522 33.7356 77.0947 33.5509C77.1371 33.3662 77.1947 33.096 77.2673 32.7403C77.3522 32.3708 77.4012 32.062 77.4142 31.8136C77.4396 31.5516 77.4554 31.2314 77.4616 30.8531C77.4809 30.4741 77.4796 30.0766 77.4578 29.6607C77.4067 28.6858 77.3101 27.5894 77.1681 26.3717C77.8981 26.3725 78.6664 26.3583 79.473 26.3291C80.2926 26.2992 80.963 26.2836 81.4843 26.2823C82.0056 26.2811 82.5416 26.3116 83.0924 26.374C83.1777 27.2559 83.293 28.7097 83.4382 30.7354C83.5958 32.7475 83.7173 34.1944 83.8026 35.0763L85.3234 34.9966L85.3541 35.5815C85.3718 35.9195 85.4035 36.4001 85.4492 37.0234C85.5079 37.6459 85.5427 38.0612 85.5536 38.2692C85.574 38.6592 85.5767 38.9588 85.5616 39.1682L84.674 39.0192C84.6124 38.8399 84.5482 38.6086 84.4812 38.3254C84.4279 38.0545 84.3667 37.7579 84.2977 37.4357C84.2287 37.1134 84.1774 36.8815 84.1439 36.7399C83.401 36.7397 82.214 36.7237 80.5831 36.6919C78.9651 36.6593 77.7001 36.6474 76.7882 36.6561L76.4797 39.3508ZM78.8703 27.5142C78.8675 27.7099 78.876 28.12 78.8957 28.7446C78.9147 29.3562 78.9197 29.8252 78.9108 30.1515C78.9148 30.4772 78.8997 30.9342 78.8653 31.5225C78.8433 32.0972 78.797 32.5819 78.7265 32.9766C78.6552 33.3583 78.5405 33.7814 78.3824 34.2459C78.2366 34.6967 78.0552 35.0908 77.8383 35.428L82.1083 35.2042L82.0957 27.5016C81.913 27.4981 81.431 27.5038 80.6497 27.5187C79.8815 27.5329 79.2883 27.5314 78.8703 27.5142ZM88.2718 34.5488C88.2834 34.7698 88.3117 35.0616 88.3568 35.4242C88.2609 35.8333 88.044 36.0467 87.706 36.0644C87.472 36.0766 87.2398 35.9976 87.0093 35.8272C86.7911 35.6431 86.6488 35.4159 86.5825 35.1457C86.5664 34.0908 86.5311 32.548 86.4768 30.5175C86.4356 28.4863 86.4092 27.1126 86.3977 26.3963L87.2865 26.1933C87.486 27.017 87.6414 28.1168 87.7526 29.4926C87.8638 30.8684 87.9697 31.8926 88.0701 32.5651C88.298 32.1882 88.9502 31.2025 90.0267 29.6081C91.1032 28.0136 91.8296 26.8285 92.2061 26.0528C92.4893 25.9858 92.6699 25.9503 92.7479 25.9462C92.9949 25.9332 93.1697 26.0349 93.2722 26.2511C93.3878 26.4666 93.4746 26.8792 93.5326 27.4887L94.3241 35.5025C94.2275 35.8986 94.0103 36.1055 93.6723 36.1232C93.4383 36.1354 93.2061 36.0564 92.9756 35.886C92.7574 35.7019 92.6151 35.4747 92.5488 35.2045C92.5394 34.7749 92.517 33.7268 92.4818 32.0602C92.4589 30.38 92.4486 29.1879 92.4508 28.4839C90.3609 31.1351 88.9679 33.1568 88.2718 34.5488ZM94.8484 26.8528L94.6279 26.0041C96.3643 25.8088 99.0995 25.5221 102.834 25.1439C103.146 25.1405 103.419 25.2436 103.651 25.453C103.884 25.6624 104.007 25.8905 104.02 26.1375C104.04 26.5275 103.792 26.7621 103.274 26.8413L99.6191 26.8569C99.7352 27.8284 99.8423 29.2501 99.9404 31.1219C100.051 32.98 100.148 34.337 100.232 35.1929C100.135 35.576 99.9171 35.7764 99.5792 35.7941C99.3582 35.8056 99.139 35.7259 98.9214 35.5548C98.7039 35.3837 98.5624 35.1696 98.4967 34.9123C98.5111 31.7051 98.5589 29.011 98.6402 26.83L94.8484 26.8528ZM112.357 33.0128L112.597 33.8605C112.036 34.0985 111.197 34.3771 110.079 34.6963C108.975 35.0019 108.149 35.169 107.603 35.1976C107.044 35.2269 106.547 35.0704 106.112 34.7283C105.676 34.3731 105.34 33.915 105.102 33.354C104.863 32.7799 104.677 32.2162 104.544 31.6627C104.423 31.0955 104.348 30.539 104.319 29.993C104.149 26.7433 105.533 25.0415 108.471 24.8876C109.172 24.8508 109.802 25.0459 110.359 25.4729C110.915 25.887 111.211 26.4514 111.249 27.1664C111.269 27.5563 111.177 27.9066 110.972 28.2171C110.779 28.527 110.532 28.7811 110.23 28.9794C109.939 29.1641 109.558 29.3405 109.084 29.5087C108.624 29.6762 108.213 29.802 107.853 29.886C107.492 29.9701 107.06 30.0644 106.558 30.169C106.055 30.2735 105.707 30.3504 105.514 30.3997C105.547 30.7759 105.583 31.1064 105.624 31.391C105.678 31.6749 105.76 31.9835 105.868 32.3167C105.99 32.6362 106.134 32.9023 106.301 33.1151C106.481 33.3143 106.718 33.4778 107.011 33.6058C107.305 33.7338 107.647 33.7876 108.037 33.7672C108.504 33.7426 109.074 33.6737 109.746 33.5603C110.417 33.4338 111.011 33.3115 111.526 33.1933C112.054 33.0744 112.331 33.0142 112.357 33.0128ZM105.528 29.1867C107.27 28.5871 108.691 27.9782 109.793 27.36C109.679 26.9358 109.539 26.6303 109.373 26.4435C109.207 26.2567 108.968 26.1715 108.656 26.1878C107.863 26.2294 107.156 26.5401 106.535 27.1202C105.926 27.6995 105.591 28.3883 105.528 29.1867ZM49.8954 45.4304L56.4693 45.1445L57.4134 54.5775C57.3168 54.9736 57.0996 55.1805 56.7616 55.1982C56.5276 55.2105 56.295 55.1249 56.0638 54.9415C55.8333 54.7711 55.6849 54.5508 55.6186 54.2806C55.6194 54.0459 55.6004 53.3105 55.5617 52.0742C55.5352 50.8243 55.5119 49.6329 55.4916 48.5C55.4707 47.354 55.4579 46.6118 55.4531 46.2731C55.0878 46.2662 54.5477 46.2815 53.8328 46.3189C52.8579 46.37 52.0434 46.3736 51.3894 46.3297C51.4509 46.7566 51.5559 48.1392 51.7045 50.4776C51.8525 52.803 51.9493 54.1535 51.9951 54.5291C51.8992 54.9382 51.6823 55.1516 51.3443 55.1693C51.1103 55.1816 50.8781 55.1025 50.6476 54.9321C50.4294 54.748 50.2871 54.5209 50.2208 54.2506C50.2258 53.5986 50.2112 52.9477 50.1771 52.2978C50.1594 51.9598 50.1236 51.4012 50.0698 50.622C50.0159 49.8427 49.977 49.2256 49.9532 48.7707C49.883 47.4318 49.8638 46.3184 49.8954 45.4304ZM58.7873 50.5757C58.7601 50.0557 58.7818 49.4746 58.8524 48.8322C58.936 48.1891 59.0699 47.5108 59.2541 46.7973C59.4382 46.0838 59.7391 45.4815 60.1565 44.9904C60.5739 44.4993 61.0751 44.2384 61.66 44.2077C62.9079 44.1423 63.9384 44.6553 64.7516 45.7467C65.5641 46.8251 66.0065 48.0532 66.0787 49.431C66.1094 50.016 66.075 50.6043 65.9757 51.1961C65.8887 51.7741 65.7298 52.3495 65.4991 52.922C65.2685 53.4946 64.916 53.9823 64.4418 54.3851C63.98 54.7743 63.4254 55.0119 62.7782 55.098C61.5742 55.0047 60.6247 54.5461 59.9298 53.7222C59.2342 52.8854 58.8534 51.8365 58.7873 50.5757ZM61.8302 45.2155C61.3779 45.2913 61.0163 45.7274 60.7452 46.5237C60.4741 47.3199 60.3125 48.0909 60.2603 48.8366C60.2075 49.5693 60.1957 50.2151 60.225 50.774C60.2631 51.502 60.5195 52.1663 60.9942 52.7671C61.4812 53.3542 62.0041 53.6331 62.563 53.6038C62.966 53.5827 63.3218 53.4076 63.6304 53.0786C63.939 52.7496 64.1724 52.3529 64.3305 51.8884C64.501 51.4102 64.6195 50.9348 64.6859 50.4621C64.7654 49.9886 64.7956 49.57 64.7765 49.206C64.7206 48.1401 64.4315 47.2233 63.909 46.4556C63.3865 45.6879 62.6935 45.2745 61.8302 45.2155ZM69.5466 52.5535C69.5581 52.7745 69.5865 53.0663 69.6315 53.4289C69.5357 53.838 69.3187 54.0514 68.9808 54.0691C68.7468 54.0813 68.5146 54.0023 68.284 53.8319C68.0658 53.6478 67.9236 53.4206 67.8573 53.1504C67.8411 52.0954 67.8059 50.5527 67.7516 48.5222C67.7103 46.491 67.684 45.1173 67.6725 44.401L68.5612 44.198C68.7608 45.0217 68.9162 46.1215 69.0274 47.4973C69.1386 48.8731 69.2444 49.8973 69.3448 50.5698C69.5727 50.1929 70.2249 49.2072 71.3014 47.6128C72.3779 46.0183 73.1044 44.8332 73.4808 44.0575C73.7641 43.9905 73.9447 43.955 74.0227 43.9509C74.2697 43.9379 74.4444 44.0396 74.547 44.2558C74.6626 44.4713 74.7494 44.8838 74.8074 45.4934L75.5988 53.5072C75.5023 53.9032 75.285 54.1102 74.9471 54.1279C74.7131 54.1401 74.4809 54.0611 74.2503 53.8907C74.0321 53.7066 73.8899 53.4794 73.8236 53.2092C73.8141 52.7795 73.7918 51.7314 73.7566 50.0649C73.7337 48.3847 73.7233 47.1926 73.7256 46.4886C71.6356 49.1398 70.2426 51.1614 69.5466 52.5535ZM83.2801 43.759L83.2265 44.6025C82.6765 44.5531 82.2065 44.5386 81.8165 44.5591C80.9196 44.6061 80.193 44.9179 79.6367 45.4945C79.0797 46.0581 78.7101 46.7161 78.5279 47.4686C78.3581 48.2075 78.2967 49.0253 78.3437 49.9222C78.3655 50.3382 78.4109 50.7073 78.4799 51.0295C78.549 51.3518 78.6566 51.6655 78.803 51.9706C78.9623 52.2751 79.1897 52.5108 79.4852 52.6778C79.7931 52.8311 80.1615 52.8966 80.5904 52.8741C81.1623 52.8441 81.8845 52.6955 82.7568 52.4282C83.0243 52.3099 83.2361 52.2466 83.3921 52.2385C83.704 52.2221 83.9116 52.5762 84.0147 53.3007C82.8899 53.7246 81.8401 53.9621 80.8652 54.0132C79.4483 54.0875 78.4684 53.7934 77.9253 53.1311C77.3946 52.455 77.0883 51.3371 77.0066 49.7772C76.9589 48.8673 76.9758 48.0714 77.0574 47.3893C77.1513 46.6936 77.3389 46.045 77.6202 45.4438C77.9008 44.8295 78.3254 44.351 78.894 44.0084C79.4756 43.6651 80.1954 43.471 81.0533 43.426C82.0152 43.3756 82.7574 43.4866 83.2801 43.759ZM91.97 52.5123L92.0734 53.3672C91.7656 53.4615 91.5466 53.5121 91.4166 53.5189C90.9227 53.5448 90.4657 53.4058 90.0457 53.102C89.6257 52.7981 89.2735 52.419 88.989 51.9647C88.7045 51.5104 88.433 51.0554 88.1745 50.5997C87.929 50.1433 87.6678 49.7594 87.3908 49.4481C87.1137 49.1368 86.8388 48.9882 86.5658 49.0026C86.4618 49.008 86.3653 49.0326 86.2764 49.0764C86.3693 49.8536 86.5263 51.1097 86.7476 52.8447C86.6517 53.2538 86.4348 53.4672 86.0968 53.4849C85.8629 53.4971 85.6306 53.4181 85.4001 53.2477C85.1819 53.0636 85.0397 52.8364 84.9734 52.5662C84.9109 50.3797 84.8293 48.3245 84.7285 46.4007C84.6542 44.9839 84.6538 43.8564 84.7272 43.0184L85.6209 43.2844C85.7515 43.7859 85.8481 44.5107 85.9108 45.4589C85.9729 46.3942 86.0162 46.9719 86.0408 47.1922C86.4273 47.1068 86.7547 46.8876 87.023 46.5346C87.3043 46.181 87.5246 45.785 87.6841 45.3465C87.8566 44.9073 88.036 44.4743 88.2222 44.0474C88.4083 43.6206 88.6564 43.2556 88.9664 42.9526C89.2894 42.6489 89.6783 42.4852 90.1333 42.4613C90.3673 42.4491 90.7353 42.508 91.2374 42.6381L91.1942 43.3051C91.1155 43.2962 91.0112 43.2952 90.8812 43.302C90.3612 43.3292 89.9179 43.574 89.5511 44.0364C89.1966 44.4851 88.9358 44.9811 88.7688 45.5242C88.6141 46.0537 88.4063 46.5664 88.1455 47.0624C87.8848 47.5583 87.5875 47.8541 87.2536 47.9498C87.7407 48.0416 88.1671 48.3451 88.533 48.8603C88.9119 49.3749 89.2009 49.9137 89.3998 50.4768C89.6111 51.0262 89.898 51.526 90.2605 51.9763C90.6223 52.4135 91.0501 52.6192 91.5441 52.5933C91.6741 52.5865 91.816 52.5595 91.97 52.5123ZM92.6358 48.8017C92.6085 48.2818 92.6302 47.7006 92.7008 47.0583C92.7844 46.4152 92.9183 45.7369 93.1025 45.0234C93.2867 44.3099 93.5875 43.7076 94.005 43.2165C94.4224 42.7253 94.9236 42.4645 95.5085 42.4338C96.7564 42.3684 97.7869 42.8814 98.6001 43.9728C99.4126 45.0511 99.855 46.2793 99.9272 47.6571C99.9578 48.242 99.9235 48.8304 99.8242 49.4221C99.7371 50.0002 99.5783 50.5755 99.3476 51.1481C99.1169 51.7207 98.7645 52.2084 98.2903 52.6112C97.8284 53.0004 97.2739 53.238 96.6267 53.3241C95.4226 53.2307 94.4732 52.7722 93.7783 51.9483C93.0827 51.1115 92.7019 50.0626 92.6358 48.8017ZM95.6786 43.4416C95.2264 43.5174 94.8647 43.9535 94.5936 44.7497C94.3226 45.546 94.1609 46.317 94.1088 47.0627C94.0559 47.7954 94.0442 48.4412 94.0734 49.0001C94.1116 49.728 94.368 50.3924 94.8426 50.9932C95.3296 51.5803 95.8526 51.8592 96.4115 51.8299C96.8145 51.8087 97.1703 51.6337 97.4789 51.3047C97.7875 50.9757 98.0209 50.579 98.179 50.1145C98.3495 49.6363 98.4679 49.1608 98.5344 48.6881C98.6139 48.2147 98.6441 47.796 98.625 47.4321C98.5691 46.3662 98.2799 45.4494 97.7574 44.6817C97.2349 43.914 96.542 43.5006 95.6786 43.4416ZM101.669 42.4629C103.661 41.9283 104.878 41.6495 105.32 41.6263C107.062 41.535 107.972 42.2368 108.05 43.7317C108.078 44.2516 108.013 44.7633 107.857 45.2668C107.713 45.7566 107.516 46.0863 107.264 46.2559C108.314 46.8917 108.87 47.8141 108.934 49.0229C108.994 50.1668 108.663 51.077 107.943 51.7534C107.235 52.4292 106.271 52.7991 105.049 52.8631C103.593 52.9394 102.487 52.6063 101.731 51.8639L101.669 42.4629ZM103.037 47.2986L103.42 51.2475C103.753 51.3865 104.127 51.4451 104.543 51.4233C105.349 51.381 106.077 51.0887 106.726 50.5463C107.375 50.004 107.682 49.3948 107.647 48.7189C107.622 48.2509 107.418 47.8315 107.034 47.4606C106.649 47.0768 106.177 46.8995 105.618 46.9288C105.293 46.9458 104.432 47.0691 103.037 47.2986ZM102.631 43.2923L102.925 46.2878C103.119 46.2516 103.417 46.2164 103.819 46.1823C104.221 46.1482 104.545 46.1052 104.79 46.0532C105.034 45.9883 105.302 45.8765 105.593 45.7178C105.884 45.5462 106.104 45.2675 106.253 44.8816C106.415 44.4951 106.513 43.9947 106.546 43.3804C106.396 42.9972 105.989 42.823 105.326 42.8578C105.027 42.8734 104.561 42.9435 103.929 43.0678C103.297 43.1922 102.864 43.267 102.631 43.2923ZM110.215 42.1323L111.103 42.2813C111.15 42.6959 111.215 43.1813 111.296 43.7375C111.391 44.2931 111.495 44.9262 111.611 45.6371C112.123 45.4539 112.613 45.35 113.08 45.3254C113.639 45.2962 114.165 45.3794 114.658 45.5752C115.15 45.7579 115.574 46.016 115.93 46.3492C116.286 46.6825 116.574 47.0714 116.793 47.5162C117.011 47.9479 117.132 48.3978 117.157 48.8657C117.181 49.3207 117.111 49.7414 116.949 50.1279C116.8 50.5137 116.57 50.8516 116.259 51.1416C115.961 51.4179 115.595 51.6392 115.16 51.8053C114.739 51.9838 114.269 52.0866 113.749 52.1139C113.437 52.1302 113.105 52.1281 112.752 52.1075C112.399 52.0999 112.079 52.0776 111.79 52.0406C111.501 52.0036 111.258 51.9577 111.059 51.9029C110.873 51.8345 110.778 51.7547 110.773 51.6638C110.762 51.4558 110.74 51.1571 110.707 50.7679C110.686 50.3779 110.657 49.9493 110.62 49.482C110.595 49.0141 110.563 48.5205 110.523 48.0012C110.482 47.4819 110.443 46.9822 110.405 46.5019C110.38 46.0209 110.35 45.5858 110.317 45.1966C110.296 44.7936 110.279 44.4686 110.266 44.2217C110.228 43.4937 110.211 42.7973 110.215 42.1323ZM111.85 46.8368L111.88 50.765C112.409 50.9198 112.908 50.9849 113.376 50.9604C113.74 50.9413 114.068 50.8654 114.361 50.7328C114.666 50.5864 114.918 50.4103 115.115 50.2044C115.312 49.9856 115.463 49.7431 115.566 49.477C115.669 49.2109 115.714 48.9348 115.699 48.6489C115.684 48.3629 115.611 48.0995 115.481 47.8586C115.351 47.6048 115.163 47.3865 114.919 47.2038C114.675 47.0211 114.381 46.8866 114.038 46.8003C113.693 46.701 113.307 46.6626 112.878 46.6851C112.735 46.6926 112.58 46.7138 112.412 46.7486C112.244 46.7705 112.056 46.7999 111.85 46.8368ZM117.68 41.6825L118.567 41.8314C118.712 42.8536 118.877 44.1418 119.063 45.6962C119.248 47.2376 119.454 49.0581 119.682 51.1578C119.585 51.5539 119.368 51.7608 119.03 51.7785C118.796 51.7907 118.564 51.7117 118.333 51.5413C118.115 51.3572 117.973 51.13 117.906 50.8598C117.909 50.6641 117.899 50.3453 117.876 49.9034C117.866 49.4607 117.852 48.9531 117.835 48.3805C117.818 47.8078 117.799 47.1962 117.778 46.5456C117.757 45.895 117.737 45.2639 117.718 44.6523C117.699 44.0407 117.682 43.4745 117.668 42.9539C117.666 42.4196 117.67 41.9958 117.68 41.6825ZM122.42 39.2442L122.252 38.647C122.566 38.6696 122.873 38.6731 123.172 38.6574C124.068 38.6104 124.881 38.3202 125.609 37.7867C125.909 37.7971 126.167 37.8748 126.384 38.0198C126.6 38.1649 126.713 38.3415 126.724 38.5494C126.733 38.7184 126.682 38.858 126.57 38.9681C126.459 39.0782 126.287 39.1654 126.056 39.2297C125.824 39.2809 125.63 39.3171 125.475 39.3383C125.319 39.3465 125.111 39.3574 124.851 39.371C124.006 39.4153 123.196 39.373 122.42 39.2442ZM122.912 49.7567C122.924 49.9777 122.952 50.2695 122.997 50.6321C122.902 51.0412 122.685 51.2546 122.347 51.2723C122.113 51.2845 121.88 51.2055 121.65 51.0351C121.432 50.851 121.29 50.6238 121.223 50.3536C121.207 49.2986 121.172 47.7559 121.118 45.7254C121.076 43.6942 121.05 42.3205 121.038 41.6042L121.927 41.4012C122.127 42.2249 122.282 43.3247 122.393 44.7005C122.505 46.0763 122.61 47.1005 122.711 47.773C122.939 47.3961 123.591 46.4104 124.667 44.816C125.744 43.2215 126.47 42.0364 126.847 41.2607C127.13 41.1937 127.311 41.1582 127.389 41.1541C127.636 41.1411 127.81 41.2428 127.913 41.459C128.029 41.6745 128.115 42.087 128.173 42.6966L128.965 50.7104C128.868 51.1065 128.651 51.3134 128.313 51.3311C128.079 51.3433 127.847 51.2643 127.616 51.0939C127.398 50.9098 127.256 50.6826 127.19 50.4124C127.18 49.9827 127.158 48.9346 127.122 47.2681C127.1 45.5879 127.089 44.3958 127.091 43.6918C125.002 46.343 123.609 48.3647 122.912 49.7567ZM137.056 45.809L136.921 44.7212C136.96 44.7192 137.019 44.7226 137.098 44.7315C137.189 44.7267 137.254 44.7233 137.293 44.7213C138.606 44.6525 139.232 44.0461 139.172 42.9023C138.977 41.9089 138.398 41.4374 137.436 41.4878C137.072 41.5069 136.545 41.6388 135.854 41.8835L135.473 41.3365C135.992 40.8009 136.759 40.5066 137.773 40.4534C138.488 40.416 139.095 40.5666 139.595 40.9054C140.095 41.2441 140.364 41.7645 140.401 42.4664C140.423 42.8954 140.361 43.3222 140.213 43.7471C140.066 44.1589 139.861 44.4759 139.599 44.6982C140.098 44.7763 140.499 45.0942 140.802 45.6518C141.117 46.1958 141.293 46.8187 141.33 47.5206C141.378 48.4305 141.127 49.2388 140.577 49.9454C140.028 50.652 139.292 51.0294 138.369 51.0778C137.914 51.1016 137.361 51.0003 136.71 50.7737C136.06 50.5471 135.724 50.2388 135.704 49.8488C135.69 49.5759 135.858 49.4302 136.209 49.4118C136.443 49.3995 136.754 49.494 137.143 49.6952C137.531 49.8835 137.848 49.9711 138.095 49.9582C138.641 49.9295 139.109 49.6639 139.5 49.1611C139.891 48.6584 140.071 48.1145 140.04 47.5296C140.008 46.9056 139.762 46.4493 139.304 46.1605C138.858 45.858 138.297 45.7245 137.621 45.7599C137.361 45.7735 137.173 45.7899 137.056 45.809ZM143.341 41.8626L142.899 40.8887C143.219 40.533 143.634 40.244 144.144 40.0218C144.653 39.7866 145.161 39.6557 145.668 39.6291C147.864 39.514 149.062 41.3542 149.261 45.1498C149.288 45.6698 149.296 46.4384 149.284 47.4557C149.285 48.4723 149.299 49.2341 149.326 49.7411C149.243 50.1495 149.052 50.3615 148.753 50.3772C148.519 50.3894 148.298 50.2837 148.091 50.0599C147.884 49.8362 147.773 49.5813 147.758 49.2953C147.753 49.2043 147.756 49.139 147.767 49.0993C147.002 49.9215 146.165 50.3564 145.255 50.4041C144.566 50.4402 143.948 50.2249 143.403 49.7582C142.869 49.2778 142.584 48.6802 142.546 47.9652C142.483 46.7564 142.893 45.64 143.778 44.616C144.676 43.5914 145.723 43.0477 146.919 42.9851C146.971 42.9823 147.023 42.9861 147.076 42.9964C147.128 42.9937 147.187 42.9971 147.252 43.0067C147.331 43.0156 147.39 43.019 147.429 43.017C147.245 41.5016 146.601 40.7729 145.496 40.8308C144.846 40.8648 144.128 41.2088 143.341 41.8626ZM147.736 47.7519C147.714 46.8407 147.691 46.1511 147.666 45.6831C147.646 45.2931 147.604 44.7479 147.541 44.0473L147.385 44.0555C146.463 44.1169 145.636 44.5056 144.905 45.2217C144.186 45.9372 143.852 46.7758 143.903 47.7377C143.925 48.1537 144.065 48.4787 144.325 48.7127C144.598 48.9461 144.917 49.0532 145.281 49.0341C145.853 49.0042 146.671 48.5768 147.736 47.7519ZM150.719 40.1464L157.293 39.8606L158.237 49.2936C158.141 49.6897 157.924 49.8966 157.586 49.9143C157.352 49.9265 157.119 49.841 156.888 49.6576C156.657 49.4872 156.509 49.2668 156.443 48.9966C156.443 48.7619 156.424 48.0265 156.386 46.7903C156.359 45.5403 156.336 44.3489 156.316 43.216C156.295 42.0701 156.282 41.3278 156.277 40.9891C155.912 40.9822 155.372 40.9975 154.657 41.035C153.682 41.0861 152.867 41.0896 152.213 41.0457C152.275 41.4726 152.38 42.8553 152.529 45.1937C152.676 47.5191 152.773 48.8696 152.819 49.2452C152.723 49.6542 152.506 49.8676 152.168 49.8854C151.934 49.8976 151.702 49.8185 151.472 49.6481C151.253 49.4641 151.111 49.2369 151.045 48.9667C151.05 48.3147 151.035 47.6637 151.001 47.0138C150.983 46.6758 150.948 46.1172 150.894 45.338C150.84 44.5588 150.801 43.9417 150.777 43.4867C150.707 42.1478 150.688 41.0344 150.719 40.1464ZM159.525 39.1766L160.628 39.3143C160.642 39.5873 160.659 39.7884 160.679 39.9178C161.37 39.4253 162.079 39.16 162.807 39.1219C163.99 39.0599 164.94 39.5185 165.656 40.4976C166.372 41.4768 166.763 42.6098 166.831 43.8967C166.865 44.5466 166.846 45.1733 166.773 45.7766C166.713 46.3664 166.575 46.9796 166.361 47.6165C166.146 48.2404 165.789 48.7544 165.288 49.1587C164.801 49.5492 164.193 49.7635 163.465 49.8017C162.776 49.8378 162.103 49.6905 161.447 49.36C161.618 51.632 161.753 53.3194 161.849 54.4223C161.754 54.8314 161.537 55.0448 161.199 55.0625C160.965 55.0747 160.732 54.9892 160.501 54.8058C160.283 54.6347 160.142 54.414 160.075 54.1438L159.525 39.1766ZM160.901 41.1769L161.29 47.4717C161.462 47.7755 161.716 48.0164 162.051 48.1943C162.385 48.3593 162.748 48.4315 163.138 48.4111C163.645 48.3845 164.065 48.1996 164.399 47.8562C164.746 47.5122 164.977 47.0699 165.092 46.5295C165.219 45.9754 165.297 45.463 165.324 44.9923C165.365 44.5209 165.371 44.0253 165.344 43.5054C165.228 41.2956 164.423 40.2299 162.928 40.3082C162.447 40.3334 162.002 40.4284 161.594 40.5932C161.198 40.7443 160.967 40.9389 160.901 41.1769ZM168.463 44.8278C168.436 44.3078 168.458 43.7267 168.528 43.0843C168.612 42.4412 168.746 41.7629 168.93 41.0494C169.114 40.3359 169.415 39.7336 169.833 39.2425C170.25 38.7514 170.751 38.4905 171.336 38.4599C172.584 38.3945 173.614 38.9074 174.428 39.9988C175.24 41.0772 175.683 42.3053 175.755 43.6832C175.785 44.2681 175.751 44.8564 175.652 45.4482C175.565 46.0263 175.406 46.6016 175.175 47.1741C174.945 47.7467 174.592 48.2344 174.118 48.6373C173.656 49.0264 173.101 49.264 172.454 49.3501C171.25 49.2568 170.301 48.7982 169.606 47.9744C168.91 47.1375 168.529 46.0887 168.463 44.8278ZM171.506 39.4676C171.054 39.5435 170.692 39.9795 170.421 40.7758C170.15 41.572 169.989 42.343 169.936 43.0887C169.884 43.8214 169.872 44.4672 169.901 45.0262C169.939 45.7541 170.196 46.4184 170.67 47.0192C171.157 47.6063 171.68 47.8852 172.239 47.8559C172.642 47.8348 172.998 47.6597 173.306 47.3307C173.615 47.0017 173.848 46.605 174.007 46.1405C174.177 45.6623 174.296 45.1869 174.362 44.7142C174.441 44.2408 174.472 43.8221 174.453 43.4581C174.397 42.3922 174.108 41.4754 173.585 40.7077C173.063 39.94 172.37 39.5266 171.506 39.4676ZM183.656 38.4985L183.602 39.342C183.052 39.2927 182.582 39.2782 182.192 39.2986C181.295 39.3456 180.569 39.6574 180.012 40.234C179.455 40.7976 179.086 41.4557 178.903 42.2082C178.734 42.947 178.672 43.7649 178.719 44.6618C178.741 45.0777 178.786 45.4468 178.855 45.7691C178.924 46.0913 179.032 46.405 179.179 46.7102C179.338 47.0146 179.565 47.2504 179.861 47.4174C180.169 47.5707 180.537 47.6361 180.966 47.6136C181.538 47.5837 182.26 47.435 183.132 47.1677C183.4 47.0494 183.612 46.9862 183.768 46.978C184.08 46.9617 184.287 47.3157 184.39 48.0403C183.265 48.4642 182.216 48.7017 181.241 48.7528C179.824 48.827 178.844 48.533 178.301 47.8706C177.77 47.1946 177.464 46.0766 177.382 44.5168C177.334 43.6069 177.351 42.8109 177.433 42.1288C177.527 41.4331 177.714 40.7846 177.996 40.1833C178.276 39.569 178.701 39.0906 179.27 38.7479C179.851 38.4046 180.571 38.2105 181.429 38.1655C182.391 38.1151 183.133 38.2261 183.656 38.4985ZM52.7383 69.4563C52.7498 69.6773 52.7782 69.9691 52.8232 70.3317C52.7274 70.7408 52.5105 70.9542 52.1725 70.9719C51.9385 70.9842 51.7063 70.9051 51.4758 70.7347C51.2576 70.5506 51.1153 70.3235 51.049 70.0532C51.0328 68.9983 50.9976 67.4556 50.9433 65.425C50.902 63.3938 50.8757 62.0201 50.8642 61.3038L51.7529 61.1008C51.9525 61.9246 52.1079 63.0243 52.2191 64.4002C52.3303 65.776 52.4361 66.8001 52.5366 67.4727C52.7645 67.0958 53.4166 66.1101 54.4931 64.5156C55.5696 62.9211 56.2961 61.736 56.6726 60.9603C56.9558 60.8933 57.1364 60.8578 57.2144 60.8537C57.4614 60.8408 57.6362 60.9424 57.7387 61.1586C57.8543 61.3741 57.9411 61.7867 57.9991 62.3963L58.7906 70.41C58.694 70.8061 58.4768 71.013 58.1388 71.0307C57.9048 71.043 57.6726 70.9639 57.4421 70.7935C57.2239 70.6094 57.0816 70.3823 57.0153 70.112C57.0058 69.6824 56.9835 68.6343 56.9483 66.9677C56.9254 65.2875 56.9151 64.0954 56.9173 63.3914C54.8273 66.0426 53.4343 68.0643 52.7383 69.4563ZM58.4135 72.5413L58.0576 71.7193C58.4777 71.5278 58.8537 71.2409 59.1856 70.8585C59.5044 70.4769 59.7642 70.0853 59.9647 69.6837C60.1646 69.2692 60.3268 68.7589 60.4515 68.1527C60.5761 67.5466 60.6593 67.0209 60.7012 66.5755C60.7553 66.1165 60.7845 65.5545 60.7888 64.8895C60.793 64.2245 60.7866 63.7296 60.7696 63.4046C60.7649 63.066 60.7479 62.6172 60.7186 62.0582C60.677 61.2653 60.7237 60.7871 60.8585 60.6236C61.0302 60.4191 62.0325 60.2688 63.8653 60.1728C65.3082 60.0972 66.1268 60.0477 66.3211 60.0245C66.6236 65.3006 66.8681 68.7223 67.0546 70.2897C66.945 70.6865 66.7277 70.8934 66.4028 70.9104C66.1818 70.922 65.9626 70.8423 65.745 70.6712C65.5275 70.5001 65.386 70.2859 65.3203 70.0287C65.2808 69.5224 65.2348 68.7688 65.1823 67.7679C65.1564 67.274 65.1172 66.5266 65.0648 65.5257C65.0253 64.5241 64.9923 63.7698 64.9658 63.2629C64.9167 62.327 64.8734 61.6254 64.8359 61.1581C64.2947 61.2777 63.758 61.358 63.2257 61.3989C62.6935 61.4399 62.3175 61.4791 62.0979 61.5167C62.0814 61.9477 62.0823 62.5863 62.1006 63.4326C62.1189 64.2789 62.132 65.0277 62.1401 65.679C62.1605 66.3166 62.1206 67.0486 62.0206 67.875C61.9198 68.6884 61.7479 69.3882 61.505 69.9745C61.2743 70.547 60.891 71.0689 60.3553 71.5402C59.8332 72.0238 59.1859 72.3575 58.4135 72.5413ZM70.2669 68.5377C70.2785 68.7587 70.3068 69.0505 70.3519 69.4131C70.256 69.8222 70.0391 70.0356 69.7012 70.0533C69.4672 70.0655 69.2349 69.9865 69.0044 69.8161C68.7862 69.632 68.644 69.4048 68.5777 69.1346C68.5615 68.0796 68.5263 66.5369 68.472 64.5064C68.4307 62.4752 68.4043 61.1015 68.3929 60.3852L69.2816 60.1822C69.4812 61.0059 69.6366 62.1057 69.7478 63.4815C69.859 64.8573 69.9648 65.8815 70.0652 66.554C70.2931 66.1771 70.9453 65.1914 72.0218 63.597C73.0983 62.0025 73.8248 60.8174 74.2012 60.0417C74.4845 59.9747 74.6651 59.9392 74.7431 59.9351C74.9901 59.9221 75.1648 60.0238 75.2674 60.24C75.383 60.4555 75.4698 60.868 75.5278 61.4776L76.3192 69.4914C76.2227 69.8875 76.0054 70.0944 75.6675 70.1121C75.4335 70.1243 75.2012 70.0453 74.9707 69.8749C74.7525 69.6908 74.6103 69.4636 74.544 69.1934C74.5345 68.7637 74.5122 67.7156 74.477 66.0491C74.4541 64.3689 74.4437 63.1768 74.4459 62.4728C72.356 65.124 70.963 67.1456 70.2669 68.5377ZM83.1384 59.7102L89.7123 59.4243L90.6564 68.8573C90.5598 69.2534 90.3426 69.4603 90.0046 69.478C89.7706 69.4903 89.538 69.4047 89.3068 69.2213C89.0763 69.0509 88.9279 68.8306 88.8616 68.5603C88.8624 68.3257 88.8434 67.5902 88.8046 66.354C88.7782 65.1041 88.7549 63.9127 88.7346 62.7797C88.7137 61.6338 88.7009 60.8915 88.6961 60.5529C88.3308 60.5459 87.7907 60.5612 87.0758 60.5987C86.1009 60.6498 85.2864 60.6534 84.6324 60.6094C84.6939 61.0363 84.7989 62.419 84.9475 64.7574C85.0955 67.0828 85.1923 68.4333 85.2381 68.8089C85.1422 69.218 84.9253 69.4314 84.5873 69.4491C84.3533 69.4613 84.1211 69.3823 83.8906 69.2119C83.6724 69.0278 83.5301 68.8006 83.4638 68.5304C83.4688 67.8784 83.4542 67.2275 83.4201 66.5775C83.4024 66.2396 83.3666 65.681 83.3128 64.9017C83.2589 64.1225 83.22 63.5054 83.1962 63.0504C83.126 61.7116 83.1068 60.5981 83.1384 59.7102ZM100.007 66.7054L100.246 67.5531C99.6854 67.791 98.8463 68.0696 97.729 68.3889C96.6241 68.6944 95.7986 68.8615 95.2527 68.8901C94.6938 68.9194 94.1968 68.763 93.7617 68.4208C93.326 68.0657 92.9892 67.6076 92.7512 67.0465C92.5126 66.4725 92.3267 65.9087 92.1934 65.3552C92.0724 64.7881 91.9976 64.2315 91.969 63.6856C91.7987 60.4359 93.1824 58.7341 96.1201 58.5801C96.822 58.5433 97.4514 58.7385 98.0082 59.1655C98.5643 59.5795 98.861 60.144 98.8985 60.8589C98.919 61.2489 98.8265 61.5991 98.6212 61.9097C98.4289 62.2195 98.1815 62.4736 97.8791 62.672C97.589 62.8566 97.2072 63.033 96.7337 63.2012C96.2733 63.3687 95.8628 63.4945 95.5022 63.5786C95.1417 63.6627 94.71 63.757 94.2071 63.8615C93.7042 63.9661 93.3563 64.043 93.1634 64.0922C93.1962 64.4685 93.233 64.7989 93.274 65.0835C93.328 65.3675 93.4093 65.676 93.518 66.0092C93.6391 66.3287 93.7834 66.5949 93.9509 66.8077C94.1308 67.0068 94.3675 67.1704 94.6609 67.2984C94.9544 67.4264 95.2961 67.4801 95.6861 67.4597C96.154 67.4352 96.7239 67.3662 97.3958 67.2528C98.0669 67.1264 98.6601 67.0041 99.1753 66.8858C99.7034 66.7669 99.9805 66.7068 100.007 66.7054ZM93.178 62.8792C94.9193 62.2796 96.3407 61.6707 97.4423 61.0525C97.3288 60.6283 97.189 60.3228 97.0228 60.136C96.8566 59.9492 96.6175 59.864 96.3055 59.8804C95.5126 59.9219 94.8055 60.2327 94.1842 60.8127C93.5759 61.392 93.2405 62.0809 93.178 62.8792ZM100.777 58.2774L101.879 58.4152C101.893 58.6881 101.91 58.8893 101.93 59.0186C102.621 58.5262 103.331 58.2609 104.059 58.2227C105.242 58.1607 106.191 58.6193 106.907 59.5985C107.623 60.5776 108.015 61.7106 108.082 62.9975C108.117 63.6474 108.097 64.2741 108.025 64.8775C107.964 65.4672 107.827 66.0805 107.613 66.7174C107.398 67.3412 107.04 67.8553 106.54 68.2595C106.052 68.65 105.444 68.8644 104.716 68.9025C104.027 68.9386 103.355 68.7914 102.699 68.4608C102.87 70.7328 103.004 72.4203 103.101 73.5231C103.005 73.9322 102.788 74.1456 102.45 74.1633C102.216 74.1756 101.984 74.09 101.753 73.9066C101.535 73.7355 101.393 73.5149 101.327 73.2446L100.777 58.2774ZM102.153 60.2778L102.541 66.5726C102.714 66.8763 102.967 67.1172 103.303 67.2952C103.637 67.4601 103.999 67.5324 104.389 67.5119C104.896 67.4854 105.317 67.3004 105.651 66.957C105.997 66.613 106.228 66.1708 106.344 65.6303C106.471 65.0762 106.548 64.5638 106.576 64.0931C106.616 63.6218 106.623 63.1261 106.596 62.6062C106.48 60.3964 105.674 59.3307 104.18 59.409C103.699 59.4342 103.254 59.5292 102.846 59.694C102.449 59.8451 102.218 60.0397 102.153 60.2778ZM117.691 65.7786L117.931 66.6263C117.37 66.8642 116.531 67.1428 115.414 67.4621C114.309 67.7676 113.483 67.9347 112.937 67.9633C112.378 67.9926 111.881 67.8362 111.446 67.494C111.011 67.1389 110.674 66.6808 110.436 66.1197C110.197 65.5457 110.011 64.9819 109.878 64.4284C109.757 63.8612 109.682 63.3047 109.654 62.7587C109.483 59.5091 110.867 57.8073 113.805 57.6533C114.507 57.6165 115.136 57.8116 115.693 58.2387C116.249 58.6527 116.546 59.2172 116.583 59.9321C116.604 60.3221 116.511 60.6723 116.306 60.9829C116.114 61.2927 115.866 61.5468 115.564 61.7452C115.274 61.9298 114.892 62.1062 114.418 62.2744C113.958 62.4419 113.547 62.5677 113.187 62.6518C112.826 62.7358 112.395 62.8302 111.892 62.9347C111.389 63.0393 111.041 63.1162 110.848 63.1654C110.881 63.5417 110.918 63.8721 110.959 64.1567C111.013 64.4406 111.094 64.7492 111.203 65.0824C111.324 65.4019 111.468 65.6681 111.636 65.8809C111.815 66.08 112.052 66.2436 112.346 66.3716C112.639 66.4996 112.981 66.5533 113.371 66.5329C113.839 66.5084 114.409 66.4394 115.08 66.326C115.752 66.1996 116.345 66.0772 116.86 65.959C117.388 65.8401 117.665 65.7799 117.691 65.7786ZM110.863 61.9524C112.604 61.3528 114.025 60.7439 115.127 60.1257C115.013 59.7015 114.874 59.396 114.707 59.2092C114.541 59.0224 114.302 58.9372 113.99 58.9535C113.197 58.9951 112.49 59.3059 111.869 59.8859C111.261 60.4652 110.925 61.1541 110.863 61.9524ZM119.904 55.3981L119.736 54.8008C120.05 54.8234 120.356 54.8269 120.655 54.8113C121.552 54.7642 122.365 54.474 123.093 53.9406C123.393 53.9509 123.651 54.0286 123.867 54.1737C124.084 54.3188 124.197 54.4953 124.208 54.7033C124.217 54.8723 124.165 55.0118 124.054 55.1219C123.942 55.232 123.771 55.3192 123.54 55.3835C123.308 55.4347 123.114 55.471 122.959 55.4921C122.803 55.5003 122.595 55.5112 122.335 55.5248C121.49 55.5691 120.68 55.5269 119.904 55.3981ZM120.396 65.9105C120.408 66.1315 120.436 66.4233 120.481 66.7859C120.385 67.195 120.168 67.4084 119.83 67.4261C119.596 67.4384 119.364 67.3593 119.134 67.1889C118.916 67.0048 118.773 66.7777 118.707 66.5074C118.691 65.4525 118.656 63.9097 118.601 61.8792C118.56 59.848 118.534 58.4743 118.522 57.758L119.411 57.555C119.61 58.3788 119.766 59.4785 119.877 60.8544C119.988 62.2302 120.094 63.2543 120.194 63.9269C120.422 63.5499 121.075 62.5643 122.151 60.9698C123.228 59.3753 123.954 58.1902 124.33 57.4145C124.614 57.3475 124.794 57.312 124.872 57.3079C125.119 57.295 125.294 57.3966 125.397 57.6128C125.512 57.8283 125.599 58.2409 125.657 58.8505L126.449 66.8642C126.352 67.2603 126.135 67.4672 125.797 67.4849C125.563 67.4972 125.331 67.4181 125.1 67.2477C124.882 67.0636 124.74 66.8365 124.673 66.5662C124.664 66.1366 124.641 65.0885 124.606 63.4219C124.583 61.7417 124.573 60.5496 124.575 59.8456C122.485 62.4968 121.092 64.5185 120.396 65.9105ZM128.434 69.6733L127.546 69.5243C127.538 69.3814 127.49 68.9603 127.402 68.2611C127.313 67.5619 127.26 67.0563 127.244 66.7443C127.23 66.4843 127.235 66.2038 127.258 65.9028L128.526 65.8364C128.579 65.612 128.666 65.2751 128.786 64.8257C128.918 64.3755 129.006 64.0581 129.049 63.8734C129.091 63.6887 129.149 63.4185 129.221 63.0628C129.306 62.6933 129.355 62.3845 129.368 62.1361C129.393 61.8741 129.409 61.5539 129.415 61.1756C129.435 60.7966 129.433 60.3991 129.412 59.9832C129.361 59.0083 129.264 57.9119 129.122 56.6942C129.852 56.695 130.62 56.6808 131.427 56.6516C132.246 56.6217 132.917 56.6061 133.438 56.6048C133.959 56.6036 134.495 56.6341 135.046 56.6965C135.132 57.5784 135.247 59.0322 135.392 61.0579C135.55 63.07 135.671 64.517 135.756 65.3988L137.277 65.3191L137.308 65.904C137.326 66.242 137.357 66.7226 137.403 67.3459C137.462 67.9684 137.497 68.3837 137.507 68.5917C137.528 68.9817 137.531 69.2813 137.515 69.4907L136.628 69.3417C136.566 69.1624 136.502 68.9311 136.435 68.6479C136.382 68.377 136.321 68.0804 136.252 67.7582C136.183 67.4359 136.131 67.204 136.098 67.0624C135.355 67.0622 134.168 67.0462 132.537 67.0144C130.919 66.9818 129.654 66.9699 128.742 66.9786L128.434 69.6733ZM130.824 57.8367C130.821 58.0324 130.83 58.4425 130.85 59.0671C130.869 59.6787 130.874 60.1477 130.865 60.474C130.869 60.7997 130.854 61.2567 130.819 61.845C130.797 62.4197 130.751 62.9044 130.68 63.2991C130.609 63.6808 130.494 64.1039 130.336 64.5684C130.19 65.0192 130.009 65.4133 129.792 65.7505L134.062 65.5267L134.05 57.8241C133.867 57.8206 133.385 57.8263 132.604 57.8412C131.835 57.8554 131.242 57.8539 130.824 57.8367ZM140.226 64.8713C140.237 65.0923 140.266 65.3841 140.311 65.7467C140.215 66.1558 139.998 66.3692 139.66 66.3869C139.426 66.3991 139.194 66.3201 138.963 66.1497C138.745 65.9656 138.603 65.7384 138.536 65.4682C138.52 64.4133 138.485 62.8705 138.431 60.84C138.389 58.8088 138.363 57.4351 138.352 56.7188L139.24 56.5158C139.44 57.3395 139.595 58.4393 139.706 59.8151C139.818 61.1909 139.924 62.2151 140.024 62.8876C140.252 62.5107 140.904 61.525 141.981 59.9306C143.057 58.3361 143.783 57.151 144.16 56.3753C144.443 56.3083 144.624 56.2728 144.702 56.2687C144.949 56.2557 145.124 56.3574 145.226 56.5736C145.342 56.7891 145.428 57.2017 145.486 57.8112L146.278 65.825C146.181 66.2211 145.964 66.428 145.626 66.4457C145.392 66.4579 145.16 66.3789 144.929 66.2085C144.711 66.0244 144.569 65.7972 144.503 65.527C144.493 65.0974 144.471 64.0493 144.436 62.3827C144.413 60.7025 144.402 59.5104 144.405 58.8064C142.315 61.4576 140.922 63.4793 140.226 64.8713ZM146.802 57.1753L146.582 56.3266C148.318 56.1313 151.053 55.8446 154.787 55.4664C155.1 55.463 155.373 55.5661 155.605 55.7755C155.838 55.9849 155.961 56.213 155.973 56.46C155.994 56.85 155.746 57.0846 155.228 57.1638L151.573 57.1794C151.689 58.1509 151.796 59.5726 151.894 61.4444C152.005 63.3025 152.102 64.6595 152.186 65.5154C152.089 65.8985 151.871 66.0989 151.533 66.1166C151.312 66.1281 151.093 66.0484 150.875 65.8773C150.658 65.7062 150.516 65.4921 150.451 65.2348C150.465 62.0276 150.513 59.3335 150.594 57.1525L146.802 57.1753ZM164.311 63.3353L164.551 64.183C163.99 64.421 163.151 64.6996 162.033 65.0188C160.928 65.3244 160.103 65.4915 159.557 65.5201C158.998 65.5494 158.501 65.3929 158.066 65.0508C157.63 64.6956 157.293 64.2375 157.056 63.6765C156.817 63.1024 156.631 62.5387 156.498 61.9852C156.377 61.418 156.302 60.8615 156.273 60.3155C156.103 57.0658 157.487 55.364 160.424 55.2101C161.126 55.1733 161.756 55.3684 162.312 55.7954C162.869 56.2095 163.165 56.7739 163.203 57.4889C163.223 57.8788 163.131 58.2291 162.925 58.5396C162.733 58.8495 162.486 59.1036 162.183 59.3019C161.893 59.4866 161.511 59.663 161.038 59.8312C160.578 59.9987 160.167 60.1245 159.807 60.2085C159.446 60.2926 159.014 60.3869 158.511 60.4915C158.009 60.596 157.661 60.6729 157.468 60.7222C157.5 61.0984 157.537 61.4289 157.578 61.7135C157.632 61.9974 157.714 62.306 157.822 62.6392C157.943 62.9587 158.088 63.2248 158.255 63.4376C158.435 63.6368 158.672 63.8003 158.965 63.9283C159.259 64.0563 159.6 64.1101 159.99 64.0897C160.458 64.0651 161.028 63.9962 161.7 63.8828C162.371 63.7563 162.964 63.634 163.48 63.5158C164.008 63.3969 164.285 63.3367 164.311 63.3353ZM157.482 59.5092C159.224 58.9096 160.645 58.3007 161.747 57.6825C161.633 57.2583 161.493 56.9528 161.327 56.766C161.161 56.5792 160.922 56.494 160.61 56.5103C159.817 56.5519 159.11 56.8626 158.488 57.4427C157.88 58.022 157.545 58.7108 157.482 59.5092ZM170.866 54.8584C172.858 54.3238 174.075 54.045 174.517 54.0218C176.259 53.9305 177.169 54.6323 177.248 56.1272C177.275 56.6471 177.21 57.1588 177.054 57.6623C176.911 58.1521 176.713 58.4818 176.461 58.6514C177.511 59.2872 178.068 60.2095 178.131 61.4184C178.191 62.5623 177.861 63.4725 177.14 64.1489C176.433 64.8247 175.468 65.1946 174.246 65.2586C172.79 65.3349 171.684 65.0018 170.929 64.2594L170.866 54.8584ZM172.234 59.6941L172.617 63.643C172.95 63.782 173.324 63.8405 173.74 63.8187C174.546 63.7765 175.274 63.4842 175.923 62.9418C176.573 62.3995 176.88 61.7903 176.844 61.1144C176.82 60.6464 176.615 60.227 176.231 59.8561C175.846 59.4722 175.374 59.2949 174.815 59.3242C174.49 59.3413 173.63 59.4646 172.234 59.6941ZM171.828 55.6878L172.122 58.6833C172.316 58.6471 172.614 58.6119 173.016 58.5778C173.418 58.5437 173.742 58.5006 173.987 58.4487C174.231 58.3838 174.499 58.272 174.79 58.1133C175.081 57.9417 175.301 57.6629 175.451 57.2771C175.613 56.8906 175.71 56.3902 175.743 55.7759C175.593 55.3927 175.186 55.2185 174.523 55.2533C174.224 55.2689 173.759 55.3389 173.127 55.4633C172.494 55.5877 172.062 55.6625 171.828 55.6878ZM58.9517 87.288L59.0552 88.1429C58.7473 88.2372 58.5283 88.2878 58.3984 88.2946C57.9044 88.3205 57.4474 88.1815 57.0274 87.8777C56.6075 87.5738 56.2552 87.1947 55.9707 86.7404C55.6862 86.2861 55.4147 85.8311 55.1562 85.3754C54.9107 84.919 54.6495 84.5351 54.3725 84.2238C54.0955 83.9125 53.8205 83.7639 53.5475 83.7783C53.4435 83.7837 53.347 83.8083 53.2581 83.8521C53.351 84.6293 53.508 85.8854 53.7293 87.6204C53.6334 88.0295 53.4165 88.2429 53.0786 88.2606C52.8446 88.2728 52.6123 88.1938 52.3818 88.0234C52.1636 87.8393 52.0214 87.6121 51.9551 87.3419C51.8926 85.1554 51.811 83.1002 51.7102 81.1764C51.6359 79.7596 51.6355 78.6321 51.7089 77.7941L52.6026 78.0601C52.7332 78.5616 52.8298 79.2864 52.8926 80.2346C52.9546 81.1699 52.9979 81.7476 53.0225 81.9679C53.409 81.8825 53.7365 81.6633 54.0047 81.3104C54.286 80.9567 54.5063 80.5607 54.6658 80.1222C54.8383 79.683 55.0177 79.25 55.2039 78.8231C55.39 78.3963 55.6381 78.0313 55.9481 77.7283C56.2711 77.4247 56.66 77.2609 57.115 77.237C57.349 77.2248 57.717 77.2837 58.2191 77.4138L58.1759 78.0808C58.0972 78.0719 57.9929 78.0709 57.8629 78.0777C57.343 78.1049 56.8996 78.3497 56.5328 78.8121C56.1783 79.2608 55.9175 79.7568 55.7505 80.2999C55.5958 80.8294 55.388 81.3421 55.1273 81.8381C54.8665 82.334 54.5692 82.6298 54.2353 82.7255C54.7224 82.8173 55.1489 83.1208 55.5148 83.6361C55.8936 84.1506 56.1826 84.6894 56.3815 85.2525C56.5928 85.8019 56.8797 86.3017 57.2422 86.752C57.604 87.1892 58.0319 87.3949 58.5258 87.369C58.6558 87.3622 58.7978 87.3352 58.9517 87.288ZM60.0956 79.2706L59.6536 78.2966C59.9738 77.941 60.3888 77.652 60.8985 77.4298C61.4076 77.1946 61.9156 77.0637 62.4225 77.0371C64.6193 76.922 65.8171 78.7622 66.0161 82.5578C66.0433 83.0778 66.051 83.8464 66.0392 84.8637C66.0403 85.8803 66.0541 86.6421 66.0807 87.149C65.9978 87.5574 65.8069 87.7695 65.508 87.7851C65.274 87.7974 65.0534 87.6917 64.8461 87.4679C64.6389 87.2441 64.5278 86.9893 64.5128 86.7033C64.508 86.6123 64.5111 86.547 64.5221 86.5073C63.757 87.3295 62.9196 87.7644 62.0096 87.8121C61.3207 87.8482 60.7033 87.6329 60.1575 87.1662C59.624 86.6858 59.3385 86.0881 59.301 85.3732C59.2377 84.1643 59.6484 83.0479 60.5332 82.024C61.431 80.9994 62.4779 80.4557 63.6737 80.393C63.7257 80.3903 63.7781 80.3941 63.8307 80.4044C63.8827 80.4016 63.9416 80.4051 64.0073 80.4147C64.0859 80.4236 64.1448 80.427 64.1838 80.425C64.0001 78.9096 63.3558 78.1808 62.2509 78.2387C61.601 78.2728 60.8825 78.6168 60.0956 79.2706ZM64.4906 85.1599C64.4689 84.2486 64.4458 83.559 64.4212 83.0911C64.4008 82.7011 64.3592 82.1559 64.2964 81.4553L64.1404 81.4635C63.2182 81.5248 62.3913 81.9136 61.6598 82.6297C60.9413 83.3451 60.6073 84.1838 60.6577 85.1457C60.6795 85.5617 60.8204 85.8867 61.0803 86.1207C61.3532 86.354 61.6716 86.4612 62.0356 86.4421C62.6075 86.4121 63.4259 85.9847 64.4906 85.1599ZM66.7559 78.3937L66.5354 77.545C68.2718 77.3497 71.007 77.063 74.7411 76.6848C75.0537 76.6814 75.3263 76.7845 75.5589 76.9938C75.7914 77.2032 75.9142 77.4314 75.9271 77.6784C75.9476 78.0684 75.6992 78.303 75.182 78.3822L71.5266 78.3978C71.6427 79.3693 71.7498 80.791 71.8479 82.6628C71.9583 84.5209 72.0555 85.8779 72.1395 86.7337C72.0422 87.1168 71.8246 87.3172 71.4867 87.3349C71.2657 87.3465 71.0465 87.2668 70.8289 87.0957C70.6114 86.9246 70.4699 86.7105 70.4042 86.4532C70.4186 83.246 70.4664 80.5519 70.5477 78.3709L66.7559 78.3937ZM77.4683 78.3601L77.0263 77.3862C77.3465 77.0305 77.7615 76.7416 78.2712 76.5193C78.7803 76.2841 79.2883 76.1532 79.7952 76.1266C81.992 76.0115 83.1898 77.8517 83.3888 81.6473C83.416 82.1673 83.4237 82.9359 83.4118 83.9532C83.413 84.9698 83.4268 85.7316 83.4534 86.2386C83.3705 86.647 83.1796 86.859 82.8806 86.8747C82.6467 86.8869 82.4261 86.7812 82.2188 86.5574C82.0116 86.3337 81.9005 86.0788 81.8855 85.7928C81.8807 85.7019 81.8838 85.6365 81.8948 85.5968C81.1297 86.419 80.2922 86.8539 79.3823 86.9016C78.6934 86.9377 78.076 86.7224 77.5302 86.2557C76.9967 85.7753 76.7112 85.1777 76.6737 84.4628C76.6104 83.2539 77.0211 82.1375 77.9059 81.1135C78.8037 80.0889 79.8506 79.5452 81.0464 79.4826C81.0984 79.4798 81.1508 79.4836 81.2034 79.4939C81.2554 79.4912 81.3143 79.4946 81.3799 79.5042C81.4586 79.5131 81.5174 79.5165 81.5564 79.5145C81.3727 77.9991 80.7285 77.2704 79.6236 77.3283C78.9736 77.3623 78.2552 77.7063 77.4683 78.3601ZM81.8632 84.2494C81.8416 83.3382 81.8184 82.6486 81.7939 82.1806C81.7735 81.7907 81.7319 81.2454 81.6691 80.5448L81.5131 80.553C80.5909 80.6144 79.764 81.0031 79.0325 81.7192C78.314 82.4347 77.98 83.2733 78.0304 84.2352C78.0522 84.6512 78.1931 84.9762 78.453 85.2102C78.7259 85.4436 79.0443 85.5507 79.4083 85.5316C79.9802 85.5017 80.7986 85.0743 81.8632 84.2494ZM83.2272 88.2642L82.8713 87.4422C83.2914 87.2507 83.6674 86.9638 83.9993 86.5814C84.3182 86.1998 84.5779 85.8082 84.7784 85.4066C84.9783 84.9921 85.1405 84.4817 85.2652 83.8756C85.3898 83.2695 85.4731 82.7438 85.5149 82.2984C85.569 81.8394 85.5982 81.2774 85.6025 80.6124C85.6067 79.9474 85.6004 79.4525 85.5833 79.1275C85.5786 78.7888 85.5616 78.3401 85.5323 77.7811C85.4908 76.9882 85.5374 76.51 85.6722 76.3465C85.844 76.142 86.8462 75.9917 88.6791 75.8957C90.1219 75.8201 90.9405 75.7706 91.1348 75.7474C91.4373 81.0235 91.6818 84.4452 91.8683 86.0126C91.7587 86.4094 91.5415 86.6163 91.2165 86.6333C90.9955 86.6449 90.7763 86.5652 90.5588 86.3941C90.3412 86.223 90.1997 86.0088 90.1341 85.7516C90.0945 85.2453 90.0485 84.4917 89.996 83.4908C89.9701 82.9969 89.931 82.2495 89.8785 81.2486C89.8391 80.247 89.806 79.4927 89.7795 78.9858C89.7304 78.0499 89.6871 77.3483 89.6496 76.881C89.1084 77.0006 88.5717 77.0809 88.0395 77.1218C87.5072 77.1628 87.1313 77.202 86.9116 77.2396C86.8951 77.6706 86.896 78.3092 86.9143 79.1555C86.9326 80.0018 86.9457 80.7506 86.9538 81.4019C86.9742 82.0395 86.9344 82.7715 86.8343 83.5979C86.7335 84.4113 86.5617 85.1111 86.3187 85.6974C86.088 86.2699 85.7048 86.7918 85.169 87.2631C84.6469 87.7467 83.9996 88.0804 83.2272 88.2642ZM93.232 81.8158C93.2047 81.2958 93.2264 80.7147 93.297 80.0723C93.3806 79.4292 93.5145 78.7509 93.6987 78.0374C93.8829 77.3239 94.1837 76.7216 94.6012 76.2305C95.0186 75.7394 95.5198 75.4785 96.1047 75.4479C97.3526 75.3825 98.3831 75.8954 99.1963 76.9868C100.009 78.0652 100.451 79.2933 100.523 80.6712C100.554 81.2561 100.52 81.8444 100.42 82.4362C100.333 83.0143 100.174 83.5896 99.9438 84.1621C99.7131 84.7347 99.3607 85.2224 98.8865 85.6253C98.4246 86.0144 97.8701 86.252 97.2229 86.3381C96.0188 86.2448 95.0694 85.7862 94.3745 84.9624C93.6789 84.1255 93.2981 83.0767 93.232 81.8158ZM96.2748 76.4556C95.8226 76.5315 95.4609 76.9675 95.1899 77.7638C94.9188 78.56 94.7571 79.331 94.705 80.0767C94.6521 80.8094 94.6404 81.4552 94.6696 82.0142C94.7078 82.7421 94.9642 83.4064 95.4389 84.0072C95.9258 84.5943 96.4488 84.8732 97.0077 84.8439C97.4107 84.8228 97.7665 84.6477 98.0751 84.3187C98.3837 83.9897 98.6171 83.593 98.7752 83.1285C98.9457 82.6503 99.0641 82.1749 99.1306 81.7022C99.2101 81.2288 99.2403 80.8101 99.2212 80.4461C99.1653 79.3802 98.8761 78.4634 98.3536 77.6957C97.8311 76.928 97.1382 76.5146 96.2748 76.4556ZM102.226 75.479C102.782 75.3977 103.623 75.2689 104.747 75.0927C105.871 74.9034 106.666 74.777 107.132 74.7135C107.458 74.7095 107.737 74.8187 107.971 75.041C108.216 75.2498 108.346 75.4841 108.359 75.7441C108.38 76.134 108.132 76.3686 107.614 76.4479C107.131 76.4341 106.4 76.4072 105.42 76.3673C104.441 76.3275 103.696 76.3013 103.187 76.2889C103.242 77.0811 103.387 78.3639 103.624 80.1372C103.86 81.9105 104.003 83.2651 104.052 84.201C104.094 85.0069 103.797 85.4266 103.16 85.46C102.627 85.4879 102.341 85.1379 102.303 84.41C102.258 83.5521 102.229 82.6346 102.217 81.6577C102.205 80.6678 102.204 79.5403 102.216 78.2754C102.227 76.9974 102.231 76.0653 102.226 75.479Z" fill="#3B636B"/>
<path d="M158.116 65.7384C157.101 66.1443 155.12 67.3111 153.749 68.3256C150.398 70.7606 143.036 78.5729 140.04 82.7834L137.653 86.1822L135.114 85.0155C129.935 82.6312 122.471 83.798 118.104 87.7548C114.601 90.9 113.382 94.096 113.636 99.321C113.839 102.821 114.144 103.988 115.718 107.083L117.546 110.684L116.022 112.003C115.159 112.714 114.093 113.272 113.636 113.272C112.417 113.322 108.406 115.199 107.187 116.315C106.172 117.279 106.172 117.279 106.324 112.916C106.476 109.72 106.273 107.945 105.664 106.322C103.227 99.9805 97.0319 97.3933 90.9387 100.285C86.7242 102.213 83.3729 106.981 81.545 113.525L80.6818 116.569L76.1626 116.823C71.1865 117.127 69.4601 117.837 67.0228 120.475C62.9607 124.787 61.2343 129.961 61.082 138.179C60.9804 143.151 61.1328 144.267 62.0467 146.296C63.4177 149.289 66.3627 152.536 69.1047 154.108C70.8819 155.174 71.3896 155.884 72.6083 159.029C76.5181 169.073 84.8455 176.987 95.3055 180.437C99.1137 181.705 106.883 183.278 109.421 183.278H110.792L110.843 201.895C110.894 216.809 111.097 221.223 111.706 223.861C112.62 227.564 112.773 239.637 112.011 241.159C111.706 241.616 110.792 242.225 109.878 242.377C108.964 242.58 107.39 243.188 106.426 243.645C104.75 244.507 104.344 244.507 101.602 243.848C97.4888 242.884 94.8992 242.986 92.4112 244.102C90.7355 244.863 89.8216 244.964 88.0952 244.609C86.8765 244.406 83.9315 244.203 81.545 244.203C74.944 244.152 71.6943 246.08 70.3233 250.747C68.8508 255.617 71.999 260.386 77.5844 261.907C82.4082 263.226 96.7272 265.002 101.602 264.9C105.004 264.799 108.101 265.053 110.945 265.661C115.819 266.727 120.948 266.575 122.877 265.256C124.045 264.545 124.654 264.545 129.884 265.205C134.454 265.814 136.181 265.864 138.263 265.408C140.446 264.9 141.411 264.951 144.356 265.712C148.976 266.93 157.964 267.335 160.553 266.422C161.671 266.067 164.463 265.763 166.85 265.763C169.896 265.712 171.674 265.458 172.994 264.799C174.365 264.14 176.243 263.886 180.61 263.784C185.637 263.683 186.653 263.531 188.278 262.516C192.289 260.03 193.761 254.856 191.629 250.747C190.309 248.16 187.059 245.471 184.215 244.66C182.387 244.102 179.29 243.848 167.256 243.29C163.295 243.087 161.264 242.833 161.264 242.428C161.264 242.123 160.452 239.739 159.487 237.152C157.355 231.572 157.304 230.303 158.979 228.325C160.655 226.346 161.62 222.846 162.585 215.49C162.991 212.142 163.549 208.693 163.752 207.881C164.108 206.41 164.209 206.511 165.225 209.758C166.037 212.396 166.24 213.867 165.987 216.606C165.123 227.26 172.841 234.666 180.915 230.963C182.641 230.202 183.403 230.1 184.875 230.506C190.512 232.079 197.265 226.752 198.585 219.701C199.093 217.114 197.722 212.853 195.589 210.367C193.711 208.185 188.684 205.395 185.586 204.837C184.622 204.634 183.555 204.33 183.301 204.178C182.997 203.975 182.134 201.997 181.372 199.764C179.341 193.931 175.939 187.082 172.689 182.263C171.166 179.929 169.947 178.002 169.998 177.9C170.099 177.85 171.978 177.089 174.212 176.226C179.747 174.096 185.282 170.392 189.395 165.979C193.051 162.124 194.726 159.181 194.777 156.645C194.777 154.413 192.746 150.76 190.766 149.441C187.922 147.564 185.891 147.412 181.727 148.934C179.696 149.644 178.021 150.151 178.021 149.999C178.021 149.847 178.427 149.086 178.985 148.376C180.712 145.84 182.032 142.847 182.794 139.448C183.809 135.237 183.809 133.512 182.895 131.331L182.184 129.657L186.856 124.635C189.395 121.845 193.355 117.888 195.589 115.909C200.058 112.003 201.276 110.076 201.733 106.22C202.597 99.0167 195.031 87.2475 182.844 76.7466C171.572 67.0067 163.905 63.6078 158.116 65.7384ZM103.074 135.846C103.48 137.419 103.024 137.419 101.196 135.947L99.8246 134.781L100.942 132.092L102.11 129.353L102.414 131.991C102.617 133.411 102.922 135.136 103.074 135.846ZM136.384 232.485H139.329L139.684 235.376C139.837 237 140.344 239.637 140.751 241.311C141.208 242.935 141.36 244.457 141.106 244.66C140.903 244.812 138.821 244.558 136.536 244L132.322 243.036V239.384C132.322 237.405 132.169 234.869 131.966 233.804C131.712 232.028 131.763 231.825 132.525 232.13C133.033 232.332 134.759 232.485 136.384 232.485Z" fill="white"/>
<path fill-rule="evenodd" clip-rule="evenodd" d="M171.965 251.641C169.611 251.07 167.684 250.507 162.273 250.547C161.97 250.55 161.051 250.561 160.642 250.503C160.814 250.543 160.847 250.58 161.001 250.662L160.899 250.84C160.25 250.594 159.788 250.433 159.659 250.391L159.031 250.58C157.593 251.34 158.588 251.737 160.268 251.942L160.238 251.995C161.433 252.779 163.172 253.61 164.307 254.29C158.488 253.334 138.421 249.67 141.809 253.02C142.324 253.529 143.934 254.093 145.85 254.646C138.616 253.139 136.299 250.625 124.359 250.15L124.361 250.187L124.246 250.153L123.325 250.427C122.373 251.066 122.992 251.402 124.462 251.664L124.47 251.788C126.183 252.444 128.366 253.168 130.24 253.894C123.961 253.068 111.115 251.36 109.08 251.083C106.927 250.421 106.259 251.79 107.252 252.313C107.621 252.471 110.014 253.468 112.205 254.399C104.449 252.722 93.1664 248.689 94.6472 251.844C94.8379 252.252 95.71 252.904 96.6472 253.522C90.0493 252.868 84.6905 251.596 82.2284 251.56C67.3273 251.347 94.6812 254.857 94.6956 254.859C103.589 256.02 102.351 254.866 99.8257 253.143C106.003 254.847 117.501 258.07 118.549 256.023C118.864 255.409 117.322 254.462 115.395 253.559C123.156 254.632 133.697 255.991 133.953 255.974C138.2 255.691 135.057 254.023 131.252 252.545C133.003 252.809 134.79 253.161 136.353 253.684C140.514 255.076 150.38 258 155.508 257.264C159.247 256.728 154.108 254.958 149.59 253.657C156.186 254.571 164.732 256.478 166.734 256.057C170.073 255.353 167.12 253.54 164.067 252.15C165.437 252.168 166.525 252.143 166.575 252.147L166.306 252.067C181.244 256.08 183.499 253.832 181.497 252.903C180.507 251.272 175.547 251.184 173.264 251.1C172.666 251.1 172.157 251.325 171.965 251.641Z" fill="#CCCCCC"/>
<path fill-rule="evenodd" clip-rule="evenodd" d="M120.255 233.967C119.318 245.334 120.625 246.908 109.783 249.933C108.95 250.139 108.442 250.981 108.647 251.814C108.854 252.648 109.696 253.156 110.53 252.95C126.2 247.79 122.417 240.127 121.442 223.988C121.398 223.255 121.434 223.604 121.302 222.806C119.773 225.728 120.258 233.934 120.255 233.967Z" fill="#3B636B"/>
<path fill-rule="evenodd" clip-rule="evenodd" d="M147.079 226.58C144.625 242.67 155.34 247.683 145.164 252.353C144.371 252.678 143.99 253.585 144.316 254.379C144.641 255.174 145.549 255.554 146.342 255.229C157.906 249.171 149.247 242.153 147.568 231.678L147.079 226.58Z" fill="#3B636B"/>
<path fill-rule="evenodd" clip-rule="evenodd" d="M80.3021 150.039C76.8104 141.009 75.8811 176.824 115.517 174.538C108.93 174.454 99.7873 172.54 92.4833 167.665C87.0768 164.055 81.9122 157.356 80.3021 150.039Z" fill="#3B636B"/>
<path fill-rule="evenodd" clip-rule="evenodd" d="M133.935 100.346C135.754 89.6036 114.093 91.3343 122.948 105.626C128.136 113.999 139.346 101.665 146.692 115.039C146.877 115.427 147.34 115.591 147.728 115.406C148.115 115.221 148.28 114.757 148.095 114.37C140.235 100.069 128.649 111.895 124.277 104.822C118.012 94.6801 130.594 91.2974 132.337 98.6744C133.882 105.212 124.61 102.056 129.433 99.8267C129.836 99.678 130.042 99.231 129.893 98.8281C129.745 98.426 129.298 98.2202 128.895 98.3689C121.947 101.612 132.523 108.677 133.935 100.346Z" fill="#3B636B"/>
<path fill-rule="evenodd" clip-rule="evenodd" d="M184.34 156.406C178.998 159.018 173.874 159.999 168.999 159.952C164.251 159.905 159.736 158.912 155.576 155.513C151.712 151.767 147.853 148.57 144.017 147.792C141.326 147.246 139.388 147.7 138.118 148.78C137.29 147.333 135.622 146.248 132.906 145.847C129.033 145.276 124.318 146.971 119.411 149.182C114.344 150.965 109.759 150.365 105.279 148.796C100.676 147.185 96.1919 144.521 92.0547 140.249C96.7637 158.499 117.695 171.124 134.791 159.118C135.51 158.425 136.149 157.68 136.695 156.912C136.946 157.82 137.295 158.737 137.735 159.634C149.736 176.733 173.711 171.97 184.34 156.406Z" fill="#3B636B"/>
<path fill-rule="evenodd" clip-rule="evenodd" d="M154.464 178.624C154.496 181.055 154.155 181.968 153.837 182.088C153.693 181.131 153.451 180.371 153.215 180.315C152.415 180.125 152.527 180.903 152.935 181.599C153.014 183.021 153.319 183.604 153.319 185.259C152.919 185.141 152.545 184.928 152.202 184.652C151.736 183.471 150.981 182.49 150.386 181.963C150.353 181.867 150.325 181.774 150.301 181.682C150.306 181.745 150.293 181.806 150.265 181.861C149.454 181.202 149.027 181.496 150.275 183.471L150.387 183.646C150.561 184.083 150.745 184.561 150.916 185.026C150.5 184.408 150.062 183.773 149.681 183.292L149.661 183.231L149.657 183.262C148.845 182.242 148.309 181.947 148.851 184.067C148.389 182.801 147.899 182.273 147.178 183.379C146.076 185.069 148.485 192.446 149.432 196.651C147.667 193.369 146.675 188.78 146.355 185.597L146.358 185.632L146.246 185.685C146.17 185.329 146.11 185.101 146.073 185.032L144.631 185.722C144.727 186.92 144.869 188.022 145.067 189.072C145.529 192.65 146.07 197.018 146.457 200.979C146.153 200.129 145.837 199.272 145.517 198.418C144.137 192.992 142.53 187.91 141.07 186.555C140.735 185.5 140.512 184.632 140.449 184.016C140.307 182.635 135.665 180.392 137.869 185.691C140.233 191.38 140.677 198.447 141.436 205.597C139.111 198.921 137.396 192.062 137.204 185.256C137.127 182.498 133.803 180.431 133.291 186.847L133.184 186.433L133.169 186.431C133.003 185.744 132.806 184.937 132.568 183.973C132.324 182.989 131.711 182.866 130.947 182.684C130.705 183.766 130.538 184.734 130.434 185.616C130.261 185.382 130.031 185.046 129.655 184.558C129.392 183.15 129.347 183.177 127.534 182.822C127.252 183.092 127.075 183.604 126.984 184.307C125.805 179.388 123.676 179.956 123.988 183.616C124.073 184.624 124.433 187.701 124.983 191.678C124.201 189.679 123.473 188.018 122.86 186.914L122.858 186.881L122.853 186.9C121.106 183.758 120.308 185.166 121.904 196.161C121.904 196.163 122.384 198.708 123.077 202.054C122.052 201.106 121.62 202.73 122.776 209.532C122.776 209.532 123.818 214.748 123.75 216.499C122.528 214.937 120.674 209.397 119.981 208.961L119.621 209.068C119.312 209.667 121.381 214.249 122.099 216.689C121.881 215.612 121.501 214.109 121.136 212.736C127.514 226.295 122.839 208.41 122.876 203.662C123.147 204.078 123.446 204.625 123.759 205.262C124.994 210.929 126.55 217.257 127.464 217.868C130.122 219.647 127.659 211.093 125.261 205.78C124.565 202.14 124.024 198.29 123.615 194.757C124.651 197.813 125.876 201.305 127.043 204.672C128.815 214.373 131.089 223.083 133.116 220.065C133.586 219.366 131.539 211.429 129.004 203.332C128.831 202.405 128.662 201.467 128.498 200.527C129.3 202.655 130.247 205.065 131.158 207.439C132.57 212.676 133.922 217.057 134.462 218.468C134.931 219.694 136.477 220.857 136.974 219.521C137.856 221.666 138.922 222.642 140.185 221.143C140.257 221.057 140.315 220.954 140.366 220.839C141.792 223.071 143.614 222.976 143.484 218.817C144.005 220.007 144.553 221.244 145.129 222.537C145.258 222.837 145.391 223.135 145.529 223.431L148.184 222.213L147.337 220.267C145.365 215.26 144.648 209.509 144.018 203.745C144.861 207.511 145.659 210.967 146.478 213.013C146.487 213.255 146.493 213.499 146.497 213.743L146.772 213.68C147.37 214.907 147.984 215.328 148.637 214.519C149.475 213.483 149.38 211.306 148.768 208.557C149.02 206.467 148.591 201.724 148.004 197.04C152.122 204.802 151.276 198.208 150.02 191.932C150.155 192.088 150.296 192.233 150.446 192.363C152.753 194.386 151.689 189.823 150.688 186.446C151.535 187.677 152.409 188.604 152.58 187.484C152.649 187.031 152.646 186.58 152.591 186.14C153.906 186.789 154.106 184.457 153.897 182.552C154.52 182.766 155.026 181.997 154.464 178.624ZM149.485 186.173C149.643 186.638 150.352 188.594 150.696 190.124C150.208 188.857 149.83 187.43 149.485 186.173ZM122.099 216.689C122.267 217.259 122.361 217.712 122.333 217.969C122.317 217.958 122.3 217.943 122.28 217.925C122.277 217.671 122.209 217.235 122.099 216.689ZM122.333 217.969C122.332 217.986 122.33 218.002 122.327 218.016C122.34 218.005 122.356 217.992 122.375 217.995C122.363 217.99 122.349 217.982 122.333 217.969ZM122.375 217.995L122.378 217.996L122.377 217.997L122.375 217.995ZM122.28 217.925C122.031 217.696 121.527 217.036 121.449 216.943C122.06 218.234 122.285 218.401 122.28 217.925Z" fill="#45CDC3"/>
<path fill-rule="evenodd" clip-rule="evenodd" d="M111.844 137.441C107.456 154.745 111.709 167.983 119.488 175.636C118.989 175.855 118.618 176.329 118.56 176.91C118.495 180.619 117.435 222.395 119.636 223.237C120.591 223.603 121.93 222.712 123.268 222.601C130.915 221.975 149.873 225.849 151.177 221.453C153.272 214.39 154.931 186.933 155.756 177.94C152.934 186.187 151.086 217.216 149.281 221.23C142.621 221.022 127.45 219.512 121.176 220.647C121.948 207.367 121.243 191.397 121.643 177.544C135.72 188.733 158.493 183.727 165.584 155.301C168.874 142.117 166.324 133.116 162.315 125.347C161.853 124.399 161.351 123.477 160.807 122.581C164.053 130.605 166.764 137.361 165.396 149.018C160.01 194.877 108.368 188.865 113.488 143.161C115.945 121.234 129.12 111.707 144.105 112.714C144.837 112.867 145.896 112.089 146.468 110.977C147.041 109.865 146.911 108.84 146.178 108.687C132.356 107.965 117.576 114.836 111.844 137.441Z" fill="#3B636B"/>
<path fill-rule="evenodd" clip-rule="evenodd" d="M144.904 130.889C143.202 128.964 140.173 128.487 137.503 129.627C133.077 123.864 120.989 121.053 114.183 122.418C111.521 122.951 111.163 124.647 110.643 127.011C109.487 132.267 110.425 138.05 113.717 140.873C115.455 142.364 117.494 143.469 119.646 144.086C121.815 144.71 124.101 144.838 126.318 144.369C131.204 143.337 135.698 139.445 137.732 131.617C140.095 131.3 141.767 131.611 143.973 132.681C143.219 140.751 146.124 145.947 150.375 148.581C152.3 149.775 154.495 150.431 156.746 150.582C158.98 150.732 161.273 150.385 163.413 149.575C167.526 148.016 171.546 143.237 172.609 137.989C173.271 134.72 173.497 134.305 170.821 132.725C164.475 128.979 151.514 126.691 144.904 130.889ZM169.781 135.071C169.039 142.575 164.583 149.789 156.717 149.261C148.862 148.733 145.086 139.668 145.811 132.189C152.709 128.454 163.997 130.068 169.781 135.071ZM113.652 125.244C111.8 132.554 112.544 140.678 120.121 142.854C127.689 145.026 134.32 137.783 136.179 130.502C129.816 123.363 118.864 123.244 113.652 125.244Z" fill="#CF312C"/>
<path fill-rule="evenodd" clip-rule="evenodd" d="M87.5243 138.705C91.9315 131.02 96.8232 120.394 97.2066 113.927C97.6896 105.777 92.8399 107.715 90.403 113.238C88.1633 118.314 87.7315 124.75 85.5741 129.638C85.0239 130.886 84.0737 128.357 84.8593 130.383C85.478 131.978 86.2644 130.93 86.546 129.973C88.1987 124.355 90.1134 114.721 93.3019 111.801C99.6239 106.014 91.8066 126.784 90.2247 130.378C89.1633 132.786 87.6731 135.087 86.9077 136.401C86.6283 136.883 85.4268 140.212 86.7849 139.809C86.839 139.794 87.4622 138.73 87.5243 138.705Z" fill="#3B636B"/>
<path fill-rule="evenodd" clip-rule="evenodd" d="M86.3857 137.497C86.2507 137.759 86.312 137.589 86.0073 138.419C86.7633 125.657 71.6412 127.369 80.0673 139.43C80.2232 139.653 79.7532 139.599 79.9323 139.874C80.7323 139.576 81.2362 139.412 80.9524 138.698C80.4867 137.528 79.2383 135.827 79.1127 134.993C78.4889 130.88 81.1221 129.095 83.3286 133.581C84.0875 135.124 84.8153 137.638 85.4095 140.36C86.7164 146.349 77.9142 152.103 75.2759 143.242C74.5294 144.289 74.7466 145.709 75.3943 146.721C72.3213 145.814 69.7662 143.058 69.8846 137.742C67.1698 142.353 71.5596 147.88 76.8434 148.448C80.8485 148.878 85.6051 147.531 86.0376 143.03C86.3236 140.058 87.9164 137.743 87.2521 137.352C86.5893 136.962 86.7763 136.833 86.3857 137.497Z" fill="#3B636B"/>
<path fill-rule="evenodd" clip-rule="evenodd" d="M74.0306 127.47C74.6321 127.085 74.822 127.977 75.7281 128.386C76.2119 128.605 77.4501 127.386 78.1851 127.457C78.7223 127.508 78.7519 128.836 79.2263 128.984C79.9252 129.201 81.2458 128.493 81.8552 128.523C82.7981 128.57 84.9411 130.936 85.406 130.907C85.5685 130.897 83.7865 128.022 82.5425 127.441C81.9259 127.153 81.3339 127.633 80.5606 127.392C80.24 127.293 80.0479 126.425 79.7143 126.315C77.6681 125.642 77.8169 126.994 77.0444 126.568C76.105 126.05 74.5663 125.667 74.0219 125.987C70.8818 127.833 67.6451 136.453 70.4263 139.93C70.705 140.278 71.3778 140.013 71.7843 140.246C72.6284 140.731 72.3959 141.871 74.6421 142.093C77.6457 142.389 79.019 140.817 80.6768 139.664C81.7309 138.929 80.0082 138.174 79.6789 138.825C79.6565 138.869 79.4061 139.087 78.9642 139.289C76.7267 140.312 77.4183 135.371 76.975 135.513C76.6956 135.602 76.6263 137.524 76.4754 138.912C76.2985 140.536 73.2017 142.736 73.4415 137.881C73.4833 137.028 73.5823 136.052 73.7534 135.114C74.2126 132.598 75.1931 130.33 74.9996 130.11C74.887 129.981 73.8256 131.742 73.0321 134.199C72.3837 136.205 72.0068 139.033 71.7028 138.705C70.9187 137.856 70.9786 136.093 71.2544 133.776C71.637 130.572 73.3295 127.92 74.0306 127.47Z" fill="#3B636B"/>
<path fill-rule="evenodd" clip-rule="evenodd" d="M171.35 209.525C174.76 213.319 179.1 210.739 184.75 215.232C185.264 215.64 185.628 216.061 185.88 216.469C186.392 217.301 186.441 218.081 186.35 218.601C186.067 220.206 183.927 221.911 181.062 218.193C179.132 215.687 175.051 214.828 175.488 217.329C176.236 221.614 174.854 222.345 173.699 220.41C172.663 218.673 175.338 210.151 173.687 213.076C169.762 220.042 177.171 228.476 176.048 217.44C178.151 214.778 183.247 224.478 186.582 220.412C191.488 214.431 181.708 212.477 175.597 211.156C173.777 210.763 171.95 209.717 171.35 209.525ZM176.967 220.763C176.985 220.766 177.002 220.77 177.02 220.775C177.006 220.777 176.988 220.772 176.967 220.763Z" fill="#3B636B"/>
<path fill-rule="evenodd" clip-rule="evenodd" d="M157.555 180.068C162.952 186.292 172.078 204.448 173.058 212.706C175.579 208.346 164.668 183.498 157.555 180.068Z" fill="#3B636B"/>
<path fill-rule="evenodd" clip-rule="evenodd" d="M128.65 167.049C133.061 167.477 135.274 168.082 140.767 166.184C141.673 171.917 130.75 175.615 128.65 167.049Z" fill="#3B636B"/>
<path fill-rule="evenodd" clip-rule="evenodd" d="M183.769 101C184.073 101.622 184.441 102.379 184.792 103.113C184.125 102.182 183.236 100.952 182.21 99.5645C182.734 100.045 183.254 100.524 183.769 101ZM186.279 105.684C186.293 105.688 186.308 105.693 186.322 105.7L186.256 105.617C186.184 105.42 186.078 105.167 185.933 104.856C185.984 104.868 186.036 104.892 186.086 104.928C186.062 104.897 185.935 104.719 185.723 104.42C185.345 103.65 184.784 102.601 184.007 101.219C184.594 101.76 185.175 102.298 185.749 102.829C185.608 102.449 185.454 102.074 185.288 101.704C186.105 102.22 186.926 102.695 187.751 103.121C186.54 101.661 185.042 100.015 183.363 98.2829C179.768 92.971 174.073 88.6034 169.868 84.041C169.648 83.8027 161.55 73.7427 162.876 79.75C162.982 80.2287 163.132 80.7197 163.319 81.22L162.538 81.4865C159.938 79.2381 158.2 78.5276 158.184 80.7514C158.177 81.8395 158.966 83.2619 160.256 84.9139C156.941 82.2966 154.358 80.7818 153.563 81.5926C152.607 82.5695 153.445 84.2453 155.324 86.3233C153.95 85.711 152.925 85.5608 152.42 86.0583C152.158 86.3168 152.025 86.6352 151.997 87.002C150.855 86.8836 150.168 87.4309 150.131 88.885C150.05 92.0728 154.641 96.1277 159.897 100.247C160.159 100.079 160.442 99.9197 160.752 99.7696C161.771 99.1732 163.08 99.5154 163.675 100.534C164.271 101.552 163.96 103.048 162.941 103.645C161.018 105.15 160.522 106.157 159.413 107.006C161.014 108.24 162.689 109.58 164.598 111.234C165.187 112.257 164.834 113.563 163.812 114.152C162.789 114.74 161.483 114.388 160.894 113.365C160.762 113.263 158.838 111.863 156.56 110.147C156.059 110.883 155.531 111.744 154.914 112.783C156.009 113.606 157.106 114.44 158.174 115.266C159.274 116.438 160.405 117.618 161.515 118.736C159.495 116.891 157.161 114.856 154.864 112.868C154.649 113.229 154.425 113.611 154.187 114.016C153.555 115.013 152.236 115.309 151.239 114.678C151.02 114.539 150.834 114.367 150.685 114.173C149.524 113.325 148.379 112.464 147.291 111.605C144.747 109.063 142.254 106.542 139.848 104.297L139.838 104.284L139.843 104.292L139.708 104.166L139.059 104.716C141.266 108.633 145.68 112.198 150.407 115.574C154.664 119.487 158.967 123.089 161.958 124.44C159.305 122.713 156.631 120.497 153.976 118.069C155.108 118.85 156.229 119.622 157.317 120.389C161.683 124.323 165.258 127.03 164.532 124.584C164.311 123.844 162.222 122.27 159.339 120.247C157.738 118.774 155.903 117.033 154.038 115.226C154.389 115.498 154.755 115.782 155.14 116.079C155.14 116.08 166.124 125.583 166.124 125.583C167.545 125.891 167.64 125.338 166.862 124.225L167.057 124.12C166.532 123.595 166.011 123.087 165.494 122.594C165.359 122.449 165.217 122.3 165.07 122.148C168.525 125.254 171.062 126.747 170.577 123.852C170.368 122.607 166.428 118.954 161.503 114.974C160.493 113.911 159.462 112.816 158.452 111.733C162.534 114.874 166.53 117.815 170.992 121.679L171.149 119.892L172.869 119.863C172.329 119.4 171.797 118.951 171.27 118.512L171.303 118.13L166.987 113.739C168.673 114.99 170.201 116.222 171.483 117.438C171.374 117.308 171.29 117.174 171.23 117.037C172.052 117.657 172.636 118.019 172.844 117.986C174.431 117.739 174.507 116.9 173.725 115.778L173.948 115.896C173.77 115.711 173.567 115.508 173.346 115.29C172.766 114.603 171.932 113.837 170.968 113.049C169.589 111.785 167.94 110.314 166.177 108.752C170.448 111.591 174.151 113.623 175.679 113.376C176.641 113.221 177.122 112.861 177.221 112.338C177.583 112.624 177.924 112.881 178.241 113.104L178.303 113.17L178.324 113.162C179.376 113.892 180.162 114.24 180.581 114.056C181.521 113.642 181.683 112.877 181.275 111.861L181.465 111.778C181.462 111.774 181.297 111.599 181.003 111.292C180.826 110.969 180.604 110.627 180.339 110.266C181.394 110.953 182.41 111.54 183.375 111.996C183.693 111.824 183.797 111.806 184.028 111.524C184.711 110.692 184.478 109.446 183.602 107.926C183.623 107.854 183.638 107.778 183.648 107.7C184.06 107.969 184.4 108.123 184.658 108.149C185.254 108.206 185.631 108.109 185.826 107.885C185.893 107.856 185.938 107.78 185.958 107.649C186.011 107.464 185.995 107.231 185.922 106.957C185.906 106.858 185.888 106.752 185.865 106.635C185.806 106.346 185.724 106.048 185.626 105.743C185.765 105.87 185.87 105.949 185.943 105.985C186.327 106.315 186.482 106.277 186.279 105.684ZM159.708 100.371C155.134 97.189 151.056 94.0555 149.308 92.2201C149.283 92.1941 142.689 90.1551 149.311 97.2764C146.615 95.3399 144.366 93.9038 143.794 94.0482C140.724 94.8237 143.703 98.2858 147.777 101.774C147.568 102.487 147.963 103.777 149.726 105.822C149.726 105.822 150.025 106.172 150.545 106.775C145.677 103.427 141.734 101.189 141.327 102.04C140.519 101.682 140.156 102.188 140.926 103.594L140.892 103.572L140.94 103.62C141.436 104.517 142.386 105.772 143.966 107.398C143.966 107.398 146.913 110.437 150.581 114.024C150.15 113.347 150.119 112.453 150.577 111.73C151.558 110.053 152.378 108.697 153.17 107.552C150.934 105.801 149.023 104.207 148.787 103.694C148.42 102.572 149.032 101.366 150.154 101C151.048 100.707 151.996 101.037 152.529 101.751C153.714 102.687 154.825 103.532 155.916 104.355C157.16 103.239 157.867 101.623 159.708 100.371Z" fill="#45CDC3"/>
<path fill-rule="evenodd" clip-rule="evenodd" d="M159.051 75.3601C151.696 79.3407 135.353 99.9653 137.831 107.471C139.04 97.9985 152.006 81.2829 160.126 77.376C162.449 76.2583 187.461 96.5061 187.399 106.412C178.653 113.349 175.528 117.557 167.89 125.595C166.853 125.87 166.235 126.934 166.51 127.97C166.785 129.007 167.849 129.625 168.887 129.35C177.094 122.219 180.908 115.463 189.82 108.708C197.776 102.676 164.936 72.1767 159.051 75.3601Z" fill="#3B636B"/>
<path d="M128.766 136.602C128.144 136.511 127.714 135.933 127.805 135.311C127.896 134.69 128.474 134.26 129.095 134.351C129.717 134.442 130.147 135.019 130.056 135.641C129.965 136.262 129.387 136.693 128.766 136.602Z" fill="black"/>
<path d="M150.104 139.901C149.482 139.81 149.052 139.233 149.143 138.611C149.234 137.99 149.812 137.56 150.433 137.651C151.055 137.742 151.485 138.319 151.394 138.941C151.303 139.562 150.725 139.992 150.104 139.901Z" fill="black"/>
</g>
</g>
<defs>
<filter id="filter0_ddd_3195_42572" x="20" y="-4" width="199.801" height="289.92" filterUnits="userSpaceOnUse" color-interpolation-filters="sRGB">
<feFlood flood-opacity="0" result="BackgroundImageFix"/>
<feColorMatrix in="SourceAlpha" type="matrix" values="0 0 0 0 0 0 0 0 0 0 0 0 0 0 0 0 0 0 127 0" result="hardAlpha"/>
<feOffset dy="3"/>
<feGaussianBlur stdDeviation="2.5"/>
<feColorMatrix type="matrix" values="0 0 0 0 0 0 0 0 0 0 0 0 0 0 0 0 0 0 0.2 0"/>
<feBlend mode="normal" in2="BackgroundImageFix" result="effect1_dropShadow_3195_42572"/>
<feColorMatrix in="SourceAlpha" type="matrix" values="0 0 0 0 0 0 0 0 0 0 0 0 0 0 0 0 0 0 127 0" result="hardAlpha"/>
<feOffset dy="1"/>
<feGaussianBlur stdDeviation="9"/>
<feColorMatrix type="matrix" values="0 0 0 0 0 0 0 0 0 0 0 0 0 0 0 0 0 0 0.12 0"/>
<feBlend mode="normal" in2="effect1_dropShadow_3195_42572" result="effect2_dropShadow_3195_42572"/>
<feColorMatrix in="SourceAlpha" type="matrix" values="0 0 0 0 0 0 0 0 0 0 0 0 0 0 0 0 0 0 127 0" result="hardAlpha"/>
<feOffset dy="5"/>
<feGaussianBlur stdDeviation="5"/>
<feColorMatrix type="matrix" values="0 0 0 0 0 0 0 0 0 0 0 0 0 0 0 0 0 0 0.14 0"/>
<feBlend mode="normal" in2="effect2_dropShadow_3195_42572" result="effect3_dropShadow_3195_42572"/>
<feBlend mode="normal" in="SourceGraphic" in2="effect3_dropShadow_3195_42572" result="shape"/>
</filter>
<clipPath id="clip0_3195_42572">
<rect width="240" height="280" fill="white"/>
</clipPath>
</defs>
</svg>
