<svg width="320" height="120" viewBox="0 0 320 120" fill="none" xmlns="http://www.w3.org/2000/svg">
<path fill-rule="evenodd" clip-rule="evenodd" d="M154.349 29.5256C159.278 20.7966 140.287 15.3618 143.333 30.5857C145.117 39.5042 158.543 32.4025 160.592 46.3474C160.627 46.7423 160.971 47.0329 161.359 46.997C161.747 46.9606 162.033 46.6112 161.997 46.2163C159.802 31.3038 146.215 37.8442 144.718 30.3133C142.571 19.5161 154.352 20.613 153.515 27.5654C152.774 33.7274 145.87 28.023 150.679 27.6345C151.069 27.6345 151.385 27.3134 151.385 26.9168C151.385 26.5203 151.069 26.1987 150.679 26.1987C143.742 26.7857 150.526 36.2955 154.349 29.5256Z" fill="#3B636B"/>
<path fill-rule="evenodd" clip-rule="evenodd" d="M190 71.9864C185.723 74.4268 181.519 75.5452 177.453 75.8229C173.492 76.0929 169.662 75.588 165.967 73.1316C162.495 70.3769 159.064 68.0628 155.814 67.6872C153.534 67.4234 151.951 67.9128 150.964 68.8613C150.177 67.7542 148.714 66.9917 146.423 66.8459C143.157 66.6383 139.341 68.3034 135.4 70.3934C131.297 72.1518 127.436 71.9678 123.596 70.9988C119.653 70.004 115.735 68.1581 112 65C117.152 79.3318 135.445 88.1023 148.886 77.3679C149.439 76.7647 149.922 76.1264 150.324 75.4747C150.595 76.1872 150.948 76.9002 151.375 77.591C162.526 90.5277 182.188 85.157 190 71.9864Z" fill="#3B636B"/>
<path fill-rule="evenodd" clip-rule="evenodd" d="M161 59C160.448 59 160 59.4474 160 59.9997C160 60.5526 160.448 61 161 61C161.552 61 162 60.5526 162 59.9997C162 59.4474 161.552 59 161 59Z" fill="black"/>
<path fill-rule="evenodd" clip-rule="evenodd" d="M143.5 58C143.224 58 143 58.448 143 59.0003C143 59.5526 143.224 60 143.5 60C143.776 60 144 59.5526 144 59.0003C144 58.448 143.776 58 143.5 58Z" fill="black"/>
<path fill-rule="evenodd" clip-rule="evenodd" d="M166.464 94C166.782 95.9357 166.611 96.7031 166.365 96.837C166.132 96.0896 165.841 95.5118 165.641 95.4944C164.961 95.4367 165.147 96.0439 165.566 96.5518C165.801 97.677 166.123 98.1067 166.321 99.4272C165.979 99.3794 165.645 99.2533 165.331 99.0737C164.806 98.1854 164.068 97.4905 163.516 97.1402C163.478 97.0677 163.444 96.9962 163.412 96.9253C163.424 96.9757 163.421 97.0262 163.405 97.0724C162.66 96.6422 162.344 96.9263 163.606 98.3562L163.72 98.4822C163.915 98.8111 164.123 99.1704 164.319 99.5218C163.904 99.0774 163.467 98.6219 163.097 98.2821L163.073 98.2359V98.2611C162.284 97.5425 161.808 97.3702 162.509 98.9975C161.977 98.0415 161.512 97.678 161.052 98.6445C160.35 100.121 163.216 105.726 164.499 108.97C162.655 106.558 161.289 103.013 160.643 100.51L160.649 100.538L160.565 100.593C160.459 100.318 160.382 100.143 160.343 100.093L159.243 100.811C159.465 101.756 159.714 102.619 160.003 103.433C160.813 106.234 161.783 109.656 162.576 112.77C162.224 112.128 161.862 111.481 161.496 110.837C159.711 106.67 157.78 102.803 156.418 101.892C156.016 101.09 155.728 100.423 155.603 99.9394C155.32 98.8531 151.239 97.6061 153.686 101.577C156.305 105.829 157.52 111.398 158.997 117H161.377C161.218 116.422 161.061 115.843 160.906 115.262C161.139 115.854 161.369 116.436 161.596 117H165.212C164.89 115.06 164.167 112.235 163.373 109.448C167.688 115.159 166.2 109.996 164.415 105.137C164.544 105.245 164.677 105.344 164.816 105.431C166.953 106.774 165.531 103.259 164.304 100.682C165.147 101.565 165.975 102.202 165.981 101.288C165.984 100.919 165.927 100.56 165.83 100.215C166.988 100.579 166.871 98.695 166.47 97.1995C167.008 97.2977 167.33 96.6254 166.464 94ZM158.986 117C156.284 111.958 154.06 106.7 153.087 101.307C152.692 99.1163 149.714 97.855 150.065 103.034L149.927 102.717H149.915C149.696 102.188 149.437 101.566 149.125 100.824C148.807 100.069 148.289 100.042 147.64 99.9861C147.571 100.878 147.55 101.67 147.571 102.386C147.401 102.219 147.172 101.978 146.804 101.632C146.419 100.539 146.385 100.567 144.854 100.495C144.655 100.743 144.571 101.172 144.581 101.744C143.021 97.9575 141.341 98.6593 142.037 101.543C142.229 102.337 142.893 104.75 143.824 107.859C142.941 106.355 142.143 105.114 141.507 104.305L141.501 104.28L141.5 104.295C139.688 101.993 139.202 103.209 141.834 111.796C141.835 111.797 142.534 113.771 143.506 116.359C143.053 116.057 142.78 116.202 142.804 117H145.033C144.308 114.811 143.647 112.575 143.07 110.474C144.133 112.495 145.352 114.762 146.551 117H148.682L148.528 116.687C148.274 115.967 148.022 115.239 147.774 114.508C148.224 115.298 148.711 116.138 149.213 117H158.986ZM163.283 100.604C163.468 100.956 164.285 102.434 164.752 103.615C164.199 102.661 163.717 101.567 163.283 100.604Z" fill="#45CDC3"/>
<path fill-rule="evenodd" clip-rule="evenodd" d="M195.031 34.2576C195.195 34.7954 195.394 35.4506 195.583 36.0846C195.163 35.2512 194.602 34.1486 193.949 32.9022C194.313 33.357 194.673 33.8086 195.031 34.2576ZM196.454 38.3405C196.464 38.3447 196.476 38.3506 196.486 38.358L196.443 38.2829C196.411 38.1158 196.359 37.8995 196.281 37.6309C196.322 37.6478 196.361 37.6731 196.397 37.7086C196.381 37.6811 196.302 37.5219 196.169 37.2543C195.963 36.588 195.645 35.6732 195.196 34.4638C195.603 34.9751 196.006 35.4823 196.403 35.9836C196.339 35.66 196.263 35.3395 196.177 35.0211C196.776 35.542 197.383 36.0302 198 36.4802C197.207 35.1507 196.203 33.6357 195.063 32.0276C192.839 27.3 188.771 23.0521 185.947 18.8448C185.8 18.6248 180.532 9.5018 180.81 14.4885C180.832 14.8851 180.889 15.2981 180.974 15.7238L180.301 15.8348C178.478 13.6921 177.153 12.8936 176.842 14.6736C176.69 15.544 177.143 16.7867 177.977 18.2801C175.619 15.7476 173.712 14.1939 172.953 14.7397C172.04 15.3959 172.501 16.8491 173.758 18.7608C172.717 18.0892 171.9 17.8343 171.42 18.1658C171.171 18.3388 171.02 18.5762 170.948 18.866C170.031 18.6211 169.396 18.9696 169.171 20.1293C168.677 22.6729 171.884 26.5247 175.627 30.5151C175.863 30.4152 176.116 30.3248 176.389 30.245C177.301 29.9012 178.325 30.348 178.675 31.2423C179.025 32.1365 178.57 33.2935 177.658 33.6367C175.885 34.5907 175.344 35.3311 174.324 35.8657C175.467 37.065 176.656 38.359 177.994 39.9343C178.337 40.8307 177.874 41.8312 176.96 42.168C176.045 42.5049 175.025 42.0507 174.682 41.1543C174.587 41.056 173.203 39.68 171.571 38.0063C171.064 38.5309 170.516 39.1507 169.873 39.9021C170.657 40.7054 171.441 41.5171 172.204 42.3187C172.945 43.4028 173.712 44.4964 174.469 45.5387C173.066 43.7947 171.432 41.8576 169.82 39.9634C169.597 40.2241 169.363 40.5002 169.114 40.7937C168.464 41.5097 167.346 41.5731 166.616 40.9364C166.456 40.7963 166.327 40.634 166.232 40.4584C165.396 39.6271 164.576 38.7868 163.802 37.9555C162.065 35.5854 160.366 33.2375 158.702 31.1233L158.695 31.1117L158.698 31.118L158.605 31.0001L158 31.3544C159.278 34.7832 162.406 38.2189 165.817 41.5446C168.769 45.2389 171.802 48.6899 174.065 50.1658C172.129 48.4329 170.242 46.3065 168.398 44.0125C169.217 44.7872 170.03 45.5535 170.817 46.3107C173.856 50.0362 176.414 52.6745 176.149 50.6195C176.068 49.9976 174.572 48.462 172.487 46.4625C171.377 45.0718 170.111 43.4367 168.83 41.7434C169.08 42.0078 169.341 42.2828 169.616 42.572L177.317 51.629C178.435 52.0632 178.587 51.6322 178.101 50.6385L178.275 50.5799C177.916 50.0902 177.558 49.6148 177.202 49.1521C177.111 49.0183 177.015 48.8802 176.915 48.7385C179.322 51.6814 181.195 53.2107 181.186 50.8284C181.182 49.8041 178.453 46.3589 174.963 42.5229C174.28 41.5393 173.584 40.5261 172.905 39.5261C175.819 42.5784 178.69 45.4604 181.817 49.1415L182.185 47.7312L183.594 47.9337C183.216 47.4927 182.841 47.0627 182.469 46.6418L182.548 46.3398L179.61 42.2548C180.82 43.4784 181.903 44.6672 182.787 45.8095C182.715 45.691 182.664 45.572 182.634 45.4551C183.223 46.0601 183.651 46.4265 183.826 46.4281C185.156 46.4376 185.33 45.7761 184.842 44.7746L185.008 44.8983C184.887 44.7264 184.749 44.5371 184.597 44.3341C184.215 43.7074 183.637 42.984 182.955 42.2257C181.997 41.0322 180.848 39.6371 179.617 38.1538C182.725 40.9893 185.479 43.104 186.761 43.1072C187.567 43.1093 188.009 42.8846 188.16 42.479C188.417 42.7556 188.661 43.0062 188.89 43.2268L188.932 43.2881L188.95 43.2828C189.713 44.0067 190.308 44.3891 190.674 44.2965C191.498 44.0887 191.733 43.4975 191.536 42.6297L191.702 42.5879C191.7 42.5842 191.589 42.4229 191.39 42.1379C191.288 41.856 191.153 41.5525 190.985 41.2289C191.755 41.9179 192.507 42.5218 193.234 43.0136C193.516 42.9179 193.604 42.9179 193.831 42.7223C194.5 42.1459 194.477 41.1162 193.965 39.7836C193.992 39.7286 194.014 39.6699 194.033 39.6081C194.334 39.8778 194.591 40.047 194.798 40.1004C195.278 40.2247 195.598 40.1972 195.788 40.0438C195.846 40.0285 195.894 39.9735 195.928 39.8714C195.996 39.7308 196.013 39.5414 195.991 39.3125C195.992 39.231 195.991 39.1438 195.987 39.047C195.978 38.808 195.951 38.5584 195.911 38.3009C196.009 38.4214 196.083 38.4976 196.139 38.5367C196.408 38.8519 196.539 38.8413 196.454 38.3405ZM175.456 30.5897C172.144 27.4391 169.233 24.3926 168.051 22.6925C168.034 22.6687 162.919 20.1679 167.375 26.7437C165.432 24.8384 163.787 23.3916 163.3 23.4323C160.687 23.6496 162.658 26.8145 165.518 30.1445C165.252 30.6881 165.401 31.7732 166.568 33.6436C166.568 33.6436 166.765 33.9636 167.11 34.5146C163.581 31.1926 160.66 28.8817 160.213 29.5089C159.6 29.1165 159.236 29.4745 159.676 30.7013L159.652 30.6801L159.685 30.7246C159.969 31.5077 160.577 32.6389 161.65 34.1492C161.65 34.1492 163.651 36.9698 166.167 40.3262C165.904 39.7271 165.999 39.0073 166.471 38.4881C167.498 37.2739 168.35 36.2951 169.151 35.4823C167.558 33.7859 166.21 32.2576 166.086 31.8155C165.937 30.869 166.599 29.9832 167.565 29.8367C168.334 29.7203 169.064 30.109 169.405 30.751C170.247 31.6568 171.042 32.4797 171.822 33.2819C172.988 32.5516 173.782 31.3507 175.456 30.5897Z" fill="#45CDC3"/>
<path fill-rule="evenodd" clip-rule="evenodd" d="M177.793 10.0796C171.219 12.3192 155.023 26.8117 156.046 33.2024C158.315 25.7111 171.212 13.929 178.404 11.8505C180.462 11.2554 198.266 30.9265 196.881 38.9196C188.765 43.3629 185.633 46.3479 178.28 51.8268C177.391 51.9121 176.741 52.689 176.827 53.5635C176.913 54.4374 177.703 55.0768 178.592 54.9926C186.29 50.3205 190.332 45.3694 198.559 41.0946C205.903 37.2783 183.053 8.288 177.793 10.0796Z" fill="#3B636B"/>
<path fill-rule="evenodd" clip-rule="evenodd" d="M127.561 64.2123C125.343 78.677 129.948 89.1286 137.016 94.743C136.62 94.9603 136.351 95.3772 136.351 95.856C136.482 97.4472 137.245 107.622 138.214 117H140.98C140.271 109.977 139.427 102.77 138.957 96.125C151.529 104.114 169.978 98.1988 173.525 74.4483C175.17 63.4325 172.322 56.2973 168.367 50.2846C167.908 49.5496 167.416 48.8375 166.892 48.1516C170.237 54.4333 173.035 59.7242 172.855 69.3394C172.146 107.168 128.889 106.426 129.39 68.7437C129.631 50.6663 139.763 41.8364 152.254 41.451C152.873 41.5161 153.686 40.7965 154.069 39.8437C154.453 38.8909 154.261 38.0657 153.642 38C142.136 38.5242 130.459 45.3183 127.561 64.2123ZM167.601 117C167.609 108.415 167.27 98.2276 167.238 93.7006C166.258 97.8028 166.206 108.344 166.089 117H167.601Z" fill="#3B636B"/>
<path fill-rule="evenodd" clip-rule="evenodd" d="M155.571 54.5485C154.044 53.074 151.523 52.8821 149.404 53.9999C145.384 49.5419 135.263 48.0281 129.759 49.6071C127.607 50.2237 127.425 51.6453 127.155 53.6296C126.553 58.0407 127.706 62.7471 130.6 64.8565C132.127 65.9699 133.876 66.7454 135.686 67.1113C137.51 67.4805 139.398 67.4341 141.189 66.9006C145.136 65.7241 148.571 62.2157 149.725 55.6258C151.645 55.2065 153.04 55.352 154.925 56.0871C154.84 62.7919 157.572 66.8839 161.241 68.7733C162.902 69.6291 164.749 70.0242 166.61 69.9989C168.455 69.9741 170.318 69.5359 172.023 68.7249C175.3 67.1658 178.287 62.9579 178.813 58.5592C179.14 55.8193 179.298 55.4625 176.994 54.3383C171.53 51.6707 160.726 50.6467 155.571 54.5485ZM176.295 56.342C176.183 62.579 172.998 68.824 166.498 68.9119C160.007 68.9986 156.303 61.7749 156.402 55.5595C161.825 52.021 171.209 52.6014 176.295 56.342ZM129.51 51.973C128.473 58.1237 129.624 64.7734 135.995 66.0631C142.359 67.3506 147.329 60.9369 148.374 54.8099C142.671 49.3452 133.662 49.9763 129.51 51.973Z" fill="#CF312C"/>
<path fill-rule="evenodd" clip-rule="evenodd" d="M190.319 75.1519C190.164 74.0222 191.239 72.2485 192.375 71.8521C193.511 71.4553 194.773 72.9876 194.929 74.1172C195.117 87.6173 186.822 101.035 180.41 100.251C178.242 99.9859 171.105 95.4996 171.646 87.7683C173.275 94.0976 179.414 97.8232 181.458 97.6323C187.125 97.1019 190.922 86.5198 190.319 75.1519Z" fill="#3B636B"/>
<path d="M197.27 65.6232C198.835 67.8016 195.919 70.7206 194.461 71.8554C195.998 71.6813 197.326 69.4358 197.902 68.2092C198.283 67.3954 198.918 66.7967 199.527 66.1736C201.564 64.0865 203.669 62.9512 206.598 63.0747C207.395 63.1083 208.624 63.2171 209.155 63.9231C209.65 64.5805 210.478 66.431 209.327 67.8732C205.831 71.5217 200.483 75.0481 195.808 76.996C191.43 78.8198 188.686 76.4691 191.635 72.0557C192.903 70.1584 193.149 67.7422 194.474 65.891C194.876 65.3279 196.85 65.0378 197.27 65.6232Z" fill="#3E656E"/>
<path fill-rule="evenodd" clip-rule="evenodd" d="M111.693 76.0757C111.672 74.9356 110.336 73.3494 109.152 73.1333C107.969 72.9168 106.958 74.6258 106.979 75.766C108.88 89.1329 119.15 101.107 125.363 99.3414C127.464 98.7444 133.822 93.2087 132.092 85.654C131.461 92.1591 125.972 96.7888 123.923 96.9161C118.242 97.2681 112.855 87.4001 111.693 76.0757Z" fill="#3B636B"/>
<path d="M105.698 66.4085C103.996 68.4813 106.718 71.5825 108.099 72.809C106.577 72.5362 105.396 70.2096 104.901 68.9484C104.573 68.1115 103.978 67.4731 103.411 66.8121C101.512 64.5977 99.4849 63.3288 96.5545 63.2629C95.7569 63.245 94.5238 63.2742 93.9476 63.9444C93.4111 64.5685 92.4654 66.3616 93.5216 67.8752C96.7745 71.7418 101.883 75.6062 106.423 77.8521C110.674 79.9546 113.564 77.7862 110.906 73.1914C109.763 71.2163 109.674 68.7893 108.472 66.8563C108.106 66.2684 106.156 65.8515 105.698 66.4085Z" fill="#3E656E"/>
<circle cx="151.5" cy="86.5" r="2.5" fill="#3B636B"/>
<path fill-rule="evenodd" clip-rule="evenodd" d="M204.183 30.4029C212.284 30.6776 219.352 31.4318 227.555 31.4443C242.267 31.4681 256.975 31.3503 271.685 31.2908C262.779 30.8608 253.904 30.6199 244.542 30.652C239.494 30.6693 230.697 30.9399 225.907 30.1144C231.988 30.2797 238.433 30.018 244.529 29.8669C261.685 29.4429 277.191 30.1323 294.271 31.2028L294.318 31.273L295.335 31.2772L294.774 31.9534L295.335 32.7932C272.739 32.9419 250.152 33.4361 227.56 33.5753C219.36 33.6259 212.356 32.9323 204.265 32.7069C203.589 32.7278 203.023 32.2294 203.001 31.5936C202.978 30.9572 203.507 30.4243 204.183 30.4029Z" fill="#EDEDED"/>
<path fill-rule="evenodd" clip-rule="evenodd" d="M213.28 30.1795C210.716 29.605 210.562 21.5882 212.794 20.9405C213.215 20.8186 213.55 20.7953 213.929 20.5634C213.956 19.8883 212.401 15.6477 216.922 16.6237C218.618 16.9901 217.459 18.9123 217.576 20.3933C220.17 21.2176 219.119 21.6774 219.262 25.1954C219.381 28.1276 219.448 28.6176 216.183 28.4285C215.314 28.3785 214.767 28.3625 214.393 28.3512C214.567 28.5736 214.657 28.8561 214.624 29.1529C214.554 29.7857 213.952 30.2455 213.28 30.1795ZM214.03 27.7862C215.408 27.7219 217.621 27.6107 217.899 27.5477C218.578 27.3942 217.949 22.6552 217.857 22.0015C217.754 21.9557 217.749 21.9569 217.485 21.8843C216.565 21.6327 216.12 21.3306 215.932 20.9696C215.863 21.6411 215.375 22.2329 213.718 22.7747C213.509 23.7888 213.668 26.5574 214.03 27.7862ZM215.848 20.0507C215.93 19.544 216.125 18.9575 216.129 18.2777C215.949 18.2949 215.947 18.3033 215.652 18.3752C215.597 18.9831 215.745 19.5386 215.848 20.0507ZM216.115 17.9315L216.112 17.8982C216.112 17.9096 216.113 17.9202 216.115 17.9315Z" fill="#EDEDED"/>
<path fill-rule="evenodd" clip-rule="evenodd" d="M226.338 28.0399C226.34 21.8205 225.54 17.5394 225.285 11.7315C225.061 6.61896 227.263 7.8519 231.739 7.01686C234.193 6.55948 232.784 15.5439 232.846 17.0071C232.902 18.3233 234.22 27.9132 233.807 28.1476C233.063 28.5699 230.737 28.2207 229.985 28.0727C230.554 27.9834 232.699 27.846 233.305 27.6872C232.381 24.6069 232.28 22.6609 231.842 19.442C231.538 17.195 231.547 10.8537 231.342 8.79284C227.627 9.64335 227.004 8.19091 227.265 11.5793C227.725 17.5578 228.622 21.7069 228.785 28.1054C228.767 28.7417 228.202 29.2432 227.527 29.2247C226.851 29.2069 226.319 28.6757 226.338 28.0399ZM233.347 27.8258C233.35 27.8609 233.36 27.8954 233.378 27.9269L233.347 27.8258Z" fill="#EDEDED"/>
<path fill-rule="evenodd" clip-rule="evenodd" d="M236.885 28.9944C236.73 28.8005 236.585 28.433 236.465 27.9595C235.921 27.9227 235.376 27.8804 234.832 27.8334C235.355 27.7864 235.879 27.7436 236.405 27.7037C235.91 25.4371 235.955 21.2946 237.744 21.2173C240.448 21.1013 261.21 21.3071 262.275 22.361C262.707 22.7886 263.872 29.6879 261.054 29.6528C259.479 29.6332 254.403 28.7636 251.988 28.6096C247.64 28.3312 243.312 28.3122 238.986 28.1052C239.013 28.4353 238.889 28.7743 238.616 29.0223C238.13 29.4648 237.355 29.4523 236.885 28.9944ZM238.779 27.5479C243.193 27.3011 247.668 27.2844 252.049 27.4105C253.035 27.4391 260.067 28.0921 260.973 28.1558C261.037 26.56 261.108 25.2277 260.963 23.5678C255.979 23.0206 244.779 23.318 238.722 23.3935C238.611 24.6532 238.564 26.9085 238.77 27.5354L238.779 27.5479Z" fill="#EDEDED"/>
<path fill-rule="evenodd" clip-rule="evenodd" d="M240.119 21.2096C239.355 11.3092 239.699 14.1302 246.821 14.2866C249.521 14.3455 266.565 13.0637 267.206 15.5433C267.276 15.8187 268.674 22.8184 267.041 22.8476C262.716 22.9249 261.486 22.2064 256.134 22.6691C261.156 21.2697 261.809 21.6795 266.593 21.7639C266.618 20.39 266.039 17.2253 265.813 16.0268C263.684 15.1329 249.064 16.6561 242.23 15.9436C242.18 17.6583 242.379 19.2713 242.558 21.0074C242.618 21.6414 242.119 22.2011 241.446 22.2564C240.773 22.3123 240.178 21.8437 240.119 21.2096ZM241.407 15.8401C241.257 15.8181 241.112 15.7949 240.973 15.7699C241.116 15.8193 241.263 15.8431 241.407 15.8401Z" fill="#EDEDED"/>
<path fill-rule="evenodd" clip-rule="evenodd" d="M270.726 29.1397C270.77 27.4678 271.013 22.4415 270.292 20.8695L270.333 20.9022C268.804 18.6629 273.194 18.8628 275.051 18.676C280.319 18.1467 279.823 20.4103 280.211 25.2624C280.651 30.7752 280.262 30.0353 274.898 29.6137L273.14 29.4275C273.009 29.9319 272.526 30.3066 271.95 30.3066C271.281 30.3066 270.737 29.8004 270.726 29.1724L270.547 29.1539L270.726 29.1397ZM273.174 28.944C275.48 28.7548 274.689 28.8173 278.94 28.7162C279.071 27.8782 278.84 26.0475 278.749 25.3962C277.86 19.0346 278.662 19.9928 272.526 20.9093C273.307 23.2949 273.171 27.2239 273.174 28.944Z" fill="#EDEDED"/>
<path fill-rule="evenodd" clip-rule="evenodd" d="M270.669 19.5811C270.197 18.2869 268.118 12.3125 271.464 12.2483C276.294 12.1561 280.035 9.86328 277.981 17.1664C277.862 17.5898 277.818 18.7948 277.687 19.069C277.228 18.9357 277.175 17.249 277.204 16.9511C277.735 11.5084 277.052 13.3628 271.772 14.0694C271.702 15.507 272.218 16.9801 272.716 18.316C273.087 18.8477 272.93 19.5626 272.365 19.9117C271.8 20.2615 271.041 20.1134 270.669 19.5811ZM271.542 14.0992C271.477 14.1075 271.412 14.1152 271.346 14.1229C271.418 14.1277 271.482 14.1194 271.542 14.0992Z" fill="#EDEDED"/>
<path fill-rule="evenodd" clip-rule="evenodd" d="M218.812 30.2332C219.278 20.4048 219.76 22.9272 227.16 22.5459C233.622 22.2134 229.893 22.1849 236.49 22.5489L231.827 23.3316C226.821 24.1268 226.648 24.0441 222.245 24.2493C220.473 24.332 221.245 28.876 221.261 30.2332C221.261 30.8696 220.713 31.3853 220.037 31.3853C219.361 31.3853 218.812 30.8696 218.812 30.2332Z" fill="#EDEDED"/>
<path fill-rule="evenodd" clip-rule="evenodd" d="M280.986 30.6039C280.861 29.9288 279.551 20.3894 282.131 20.2931C283.469 20.2425 290.319 20.5548 290.538 22.2677C290.77 24.0805 290.528 27.4028 290.784 29.0236C291.076 30.8644 291.461 30.4189 290.953 32.0348C290.543 30.4891 290.477 30.8073 289.975 29.2008C289.734 28.4312 289.205 23.98 289.086 22.7393C285.634 22.3598 286.455 22.0535 283.022 22.1392C283.059 24.5307 282.664 26.1372 283.064 29.384C283.422 29.9241 283.247 30.6348 282.673 30.972C282.1 31.3086 281.345 31.1445 280.986 30.6039ZM289.069 22.5508L289.068 22.5353C289.068 22.5407 289.069 22.5454 289.069 22.5508Z" fill="#EDEDED"/>
<path fill-rule="evenodd" clip-rule="evenodd" d="M286.887 19.5203C286.902 19.4881 286.914 19.4537 286.923 19.4168L286.911 19.4002C286.871 19.4602 286.895 19.4816 286.858 19.5096C286.802 19.5013 286.775 19.4769 286.717 19.4977L286.714 19.509C286.753 19.5322 286.816 19.5316 286.887 19.5203ZM287.48 18.2422C288.653 18.5931 289.621 19.4323 288.379 20.6396C284.949 23.9756 282.837 16.3865 286.96 17.7919C287.185 17.8948 287.362 18.0536 287.48 18.2422Z" fill="#EDEDED"/>
<path fill-rule="evenodd" clip-rule="evenodd" d="M246.254 18.2791C246.24 18.2833 246.228 18.2881 246.215 18.2928L246.254 18.2791ZM248.896 17.4584C250.419 17.0724 251.994 16.8702 251.842 17.7486C252.357 17.6939 252.853 17.6523 253.181 18.1703C253.148 18.1429 253.136 18.1281 253.095 18.1168C253.236 18.3731 256.156 18.3357 256.156 18.3357L258.621 18.887C257.2 19.0987 253.653 20.0872 252.216 19.2337C251.324 19.3616 250.251 19.4229 249.813 19.0006L247.651 19.9748C245.373 21.1078 243.909 19.345 247.411 16.9683C247.976 16.7673 248.599 16.9855 248.896 17.4584ZM251.919 18.9988C251.902 18.9797 251.884 18.9602 251.868 18.9399C251.884 18.9608 251.902 18.9803 251.919 18.9988ZM249.817 17.7611C249.844 17.7046 249.875 17.6457 249.908 17.5851C249.854 17.6404 249.826 17.6998 249.817 17.7611Z" fill="#EDEDED"/>
<path fill-rule="evenodd" clip-rule="evenodd" d="M240.707 24.2638C244.328 24.9823 242.392 24.5642 246.507 25.5503C242.08 26.7237 244.354 26.4448 239.68 26.3562C239.066 26.0891 238.798 25.404 239.082 24.8264C239.366 24.2489 240.094 23.9968 240.707 24.2638Z" fill="#EDEDED"/>
<path fill-rule="evenodd" clip-rule="evenodd" d="M276.262 22.1073C276.226 22.2256 276.124 22.5842 276.043 22.9982L276.054 23.0024C280.825 24.9104 272.871 29.5269 273.885 21.5529C274.048 20.9356 274.712 20.5585 275.368 20.712C276.024 20.8648 276.425 21.4899 276.262 22.1073ZM275.933 23.8951C275.926 24.2282 275.976 24.5077 276.134 24.6261L276.154 24.6231C276.298 24.4304 276.154 24.1592 275.933 23.8951Z" fill="#EDEDED"/>
<path fill-rule="evenodd" clip-rule="evenodd" d="M285.217 24.3984C288.981 24.6786 288.064 26.1827 287.236 26.8417C288.485 27.3836 290.708 28.5963 286.897 29.555C286.034 29.7721 286.244 29.715 285.344 29.6329C285.523 29.4694 286.262 28.9395 286.85 28.5089L286.753 28.4862C284.753 28.0277 284.522 27.3134 284.816 26.6407C284.337 26.4843 283.992 26.0554 283.992 25.5511C283.992 24.9147 284.541 24.3984 285.217 24.3984ZM286.596 26.5765L286.577 26.555L286.566 26.5604C286.569 26.5639 286.58 26.5693 286.596 26.5765ZM287.526 27.9997C287.587 27.9498 287.623 27.9171 287.623 27.907C287.578 27.9337 287.546 27.9652 287.526 27.9997ZM285.788 25.378C285.864 25.2912 285.929 25.2133 285.974 25.1461C285.894 25.2157 285.832 25.2941 285.788 25.378Z" fill="#EDEDED"/>
<path fill-rule="evenodd" clip-rule="evenodd" d="M228.333 11.9807C229.627 13.1137 233.992 12.3185 230.003 15.7021C233.178 17.5827 228.91 16.7935 230.06 18.8924L230.499 19.7899C227.693 18.4642 228.687 17.559 229.338 16.9458C227.183 16.3403 227.623 15.6361 228.592 14.5733C227.954 14.4519 227.43 14.1956 226.67 13.6716C226.174 13.2392 226.144 12.51 226.603 12.0431C227.063 11.5762 227.837 11.5483 228.333 11.9807ZM229.668 16.5901C229.684 16.5663 229.696 16.5431 229.705 16.5205C229.69 16.5437 229.678 16.5669 229.668 16.5901ZM229.565 13.4949L229.582 13.4759L229.576 13.4741L229.565 13.4949Z" fill="#EDEDED"/>
<path fill-rule="evenodd" clip-rule="evenodd" d="M205.56 30.1611C225.382 30.236 246.143 30.5614 266.293 30.2099C270.682 29.9202 280.86 29.0983 285.046 29.6502C285.236 29.6365 285.419 29.6205 285.589 29.6026C285.505 29.6389 285.433 29.6698 285.37 29.6978C285.871 29.7793 286.267 29.8846 286.529 30.0184C286.652 31.8532 283.986 31.3096 282.172 31.4C257.264 32.6424 230.612 32.3701 205.56 32.4664C204.884 32.4664 204.336 31.9501 204.336 31.3137C204.336 30.6773 204.884 30.1611 205.56 30.1611Z" fill="#EDEDED"/>
<path fill-rule="evenodd" clip-rule="evenodd" d="M13.1342 48.7914C16.0584 49.2952 19.6902 49.5331 23.6387 49.6057C22.6852 49.5604 21.7641 49.5027 20.8965 49.4361C25.9785 49.0555 31.1507 49.2976 36.1986 48.5048C50.1838 46.3065 57.9428 46.3237 71.8226 47.6976C77.3929 47.5775 82.2044 47.7066 82.969 48.4839C85.1931 50.7452 79.4357 49.724 79.4357 49.724C77.6027 49.658 75.8108 49.5307 74.0391 49.3725C67.2499 49.5616 58.4168 50.2034 56.2546 50.3241C44.5566 50.9778 23.8169 52.8762 12.7312 51.042C12.2282 50.904 11.911 50.2885 12.0222 49.6669C12.1334 49.046 12.6313 48.6534 13.1342 48.7914ZM34.4654 49.4807C41.3665 49.247 48.2036 48.798 53.2552 48.5702C54.493 48.5143 57.5763 48.3156 61.3131 48.1175C59.2956 47.9688 57.2422 47.8731 55.123 47.8725C48.155 47.8701 43.1817 48.3769 36.2845 49.2839C35.7013 49.3606 35.0929 49.4254 34.4654 49.4807Z" fill="#EDEDED"/>
<path fill-rule="evenodd" clip-rule="evenodd" d="M17.9824 51.3263C16.3542 49.8989 15.7583 43.0234 17.9451 42.0843L17.2357 42.845C19.4749 41.7602 18.3869 41.9404 20.8119 42.0736C22.2032 42.1497 42.2984 42.754 43.0452 44.759C43.1729 45.1022 41.8441 49.9756 41.6659 50.998C41.4302 47 41.283 48.9199 42.088 45.1034C40.5993 44.5556 39.1114 44.5371 37.49 44.4824C31.4414 44.2802 25.0111 44.0833 18.9865 44.0238C18.7451 45.3287 18.9871 48.6469 19.5229 49.5379C19.9892 49.9286 20.0713 50.5972 19.6941 51.0807C19.2935 51.5934 18.5271 51.7034 17.9824 51.3263ZM42.0988 45.0504L42.1146 44.9778C42.0995 44.9992 42.0963 45.0248 42.0988 45.0504ZM18.9903 44.0054L19.1318 43.7294C19.1028 43.7603 19.0705 43.7895 19.0338 43.8175C19.0181 43.874 19.0036 43.9364 18.9903 44.0054ZM18.9107 43.8966C18.8424 43.9358 18.7609 43.9763 18.661 44.0233C18.771 43.9763 18.8443 43.9453 18.9107 43.8966Z" fill="#EDEDED"/>
<path fill-rule="evenodd" clip-rule="evenodd" d="M48.6726 48.5961C48.66 46.8874 47.7475 37.9285 48.121 37.5348C48.9032 36.7104 60.2044 36.2697 57.9563 38.9836C56.7962 40.3836 56.9422 47.1925 56.6566 49.3164C56.2528 46.8011 55.2317 41.5524 56.4891 38.7148C55.0239 38.5589 51.6675 38.6464 49.9805 38.8581C50.5776 42.4261 50.9302 44.7331 51.121 48.5961C51.121 49.2325 50.5731 49.7487 49.897 49.7487C49.2203 49.7487 48.6726 49.2325 48.6726 48.5961ZM56.7905 38.1515C56.8151 38.1129 56.8405 38.0754 56.8657 38.0391C56.8348 38.0736 56.8101 38.1117 56.7905 38.1515Z" fill="#EDEDED"/>
<path fill-rule="evenodd" clip-rule="evenodd" d="M62.9633 47.6929C62.7958 42.0855 63.0491 37.8579 62.0812 32.1958C61.7001 29.9684 64.9959 31.5106 66.5875 31.6415C68.1096 31.7664 77.6821 30.6625 77.9747 31.9394C78.0676 32.3451 73.9182 38.4289 74.4072 44.3789L74.6448 46.1929C72.5331 41.1695 73.9485 37.3702 76.1934 32.7655C72.0896 32.8655 68.394 33.8308 64.2365 32.9963C65.2341 38.0232 65.1071 42.3817 65.4085 47.574C65.4438 48.2098 64.9239 48.7516 64.2491 48.7843C63.5736 48.817 62.998 48.3281 62.9633 47.6929Z" fill="#EDEDED"/>
<path fill-rule="evenodd" clip-rule="evenodd" d="M48.0448 41.6797C48.0448 41.6797 55.4854 42.0294 53.0995 44.0879C52.8809 44.2764 52.4804 44.3918 52.0103 44.4632L52.126 44.5131C51.1927 44.7718 49.3528 45.1281 48.4619 44.5328C48.1706 44.3383 48.0979 44.1545 48.1731 43.9826L48.0448 43.985C47.3687 43.985 46.8203 43.4687 46.8203 42.8323C46.8203 42.1959 47.3687 41.6797 48.0448 41.6797Z" fill="#EDEDED"/>
<path fill-rule="evenodd" clip-rule="evenodd" d="M61.6687 42.1761L61.4684 42.1701C61.3831 42.2147 61.2985 42.3278 61.1399 42.4996C61.6435 42.7804 62.1735 42.9481 62.3289 42.6013C61.9883 42.3694 61.7982 42.2314 61.6687 42.1761ZM60.8517 42.1666C60.7803 42.1696 60.7095 42.1737 60.6363 42.1797C60.7253 42.2433 60.8208 42.3075 60.92 42.37C60.8858 42.2974 60.8631 42.2296 60.8517 42.1666ZM60.151 41.7734C60.146 41.7604 60.1402 41.7473 60.1332 41.733L60.1263 41.7431C60.1327 41.752 60.1415 41.7627 60.151 41.7734ZM62.9621 41.6741C63.2585 41.8073 63.4828 42.0024 63.5415 42.254C64.7578 47.4772 51.7392 40.8165 61.9467 39.8779C62.6228 39.8779 63.1706 40.3942 63.1706 41.0306C63.1706 41.2691 63.0942 41.4903 62.9621 41.6741Z" fill="#EDEDED"/>
<path fill-rule="evenodd" clip-rule="evenodd" d="M26.3104 43.554C25.9964 49.1686 26.3167 46.3667 25.3405 51.958C24.0181 46.4232 24.5128 49.2239 23.8614 43.554C23.8614 42.9176 24.4097 42.4013 25.0858 42.4013C25.7619 42.4013 26.3104 42.9176 26.3104 43.554Z" fill="#EDEDED"/>
<path fill-rule="evenodd" clip-rule="evenodd" d="M28.6659 43.0699C27.4686 36.9307 28.9231 38.1036 35.4937 38.4742C39.9255 38.7246 38.1234 38.3546 41.4981 39.4264C41.3054 42.3603 41.4823 40.905 40.9673 43.7925C40.3652 40.918 40.5863 42.3734 40.3089 39.4264C38.1853 40.5636 33.7062 40.29 30.6461 40.2644C30.7024 40.9293 30.8118 41.6038 30.9482 42.2342C31.1934 42.8278 30.8812 43.4957 30.2512 43.7265C29.6207 43.9573 28.9111 43.6634 28.6659 43.0699Z" fill="#EDEDED"/>
<path fill-rule="evenodd" clip-rule="evenodd" d="M79.0006 48.2752C67.834 49.7514 52.997 49.6634 41.4746 49.6753C47.335 47.8904 69.6694 47.4627 78.4344 46.0323C79.0922 45.8854 79.7524 46.2685 79.9085 46.887C80.0652 47.5068 79.659 48.1277 79.0006 48.2752Z" fill="#EDEDED"/>
<path fill-rule="evenodd" clip-rule="evenodd" d="M221.125 53.993C223.098 52.6375 237.372 45.4754 239.294 48.4034C240.032 49.5275 238.452 50.9478 236.382 52.2831C245.714 49.3003 260.263 44.4221 258.211 48.6532C257.418 50.2888 250.244 53.9871 244.91 56.5701C254.425 54.476 267.046 50.4583 274.845 47.6552C275.526 47.3566 276.032 47.1681 276.312 47.1229C277.123 46.9903 277.424 47.808 276.76 48.2321C276.058 48.6806 274.656 49.2807 272.788 49.9706C264.981 53.6588 254.564 59.7199 249.158 61.1063C251.823 59.8936 259.165 55.8249 265.579 52.3853C255.572 55.5144 242.192 59.0413 238.395 59.5421L238.532 57.9297L238.395 57.7418C238.446 57.7359 238.498 57.7287 238.55 57.7222L238.565 57.5431C240.218 56.7467 249.881 52.063 254.213 49.3295C249.621 50.3649 242.741 52.7702 239.276 53.8722C238.131 54.2368 227.995 58.5756 227.808 55.3919C227.758 54.5634 229.524 53.2923 231.565 52.0314C228.322 53.3417 225.119 54.8714 223.668 55.0766C223.35 55.738 222.523 56.0313 221.821 55.7321C221.118 55.4329 220.807 54.6544 221.125 53.993Z" fill="#EDEDED"/>
<path fill-rule="evenodd" clip-rule="evenodd" d="M24.1109 70.769C25.8695 69.5615 38.5855 63.1808 40.2978 65.7893C40.9553 66.7908 39.5475 68.0561 37.704 69.2457C46.0175 66.5884 58.9788 62.2424 57.1505 66.0119C56.4441 67.469 50.0529 70.7637 45.3014 73.065C53.7782 71.1993 65.0217 67.62 71.9702 65.1228C72.5764 64.8568 73.0272 64.6888 73.2766 64.6486C73.9994 64.5304 74.2673 65.2589 73.6757 65.6367C73.0503 66.0363 71.8018 66.5709 70.1373 67.1856C63.1821 70.4713 53.902 75.8711 49.0858 77.1062C51.4596 76.0258 58.0011 72.401 63.7152 69.3368C54.7993 72.1244 42.8793 75.2665 39.4973 75.7127L39.6189 74.2762L39.4973 74.1088C39.5424 74.1035 39.5891 74.0971 39.6347 74.0913L39.6482 73.9318C41.1207 73.2223 49.7298 69.0496 53.5891 66.6144C49.4979 67.5368 43.3684 69.6796 40.282 70.6615C39.2614 70.9863 30.2319 74.8516 30.0647 72.0153C30.0208 71.2772 31.5942 70.1448 33.4118 69.0215C30.523 70.1888 27.6696 71.5516 26.3772 71.7344C26.0935 72.3236 25.3566 72.5849 24.7312 72.3184C24.1053 72.0519 23.8278 71.3582 24.1109 70.769Z" fill="#EDEDED"/>
<path fill-rule="evenodd" clip-rule="evenodd" d="M320 115.013C213.195 117.245 106.855 116.369 1.9331e-05 115V120H320V115.013Z" fill="#E0E0E0"/>
<path fill-rule="evenodd" clip-rule="evenodd" d="M97.2535 117.92C99.5819 106.011 95.6297 113.679 96.6084 105.953C97.005 102.82 93.7204 101.244 93.9358 106.055C94.1821 111.569 92.9643 110.197 93.0008 112.896C93.0179 114.205 93.2472 114.3 93.8486 115.522C93.8249 113.833 93.6487 112.958 94.4379 111.457C94.5246 111.293 94.6047 111.133 94.6798 110.978C95.2917 111.483 96.0936 111.05 94.545 117.124C94.3362 117.91 94.7731 118.725 95.5209 118.945C96.2687 119.165 97.0447 118.706 97.2535 117.92Z" fill="#E0E0E0"/>
<path fill-rule="evenodd" clip-rule="evenodd" d="M86.9577 116.432C87.4313 110.525 92.3158 104.469 85.0397 104.516C84.6013 103.093 82.5008 96.6708 81.0187 99.8938C80.7056 100.574 80.6752 103.123 80.8804 104.583C71.0122 105.717 79.0011 109.52 79.9666 116.62L80.2195 118C82.0314 109.569 72.7042 106.389 81.1285 106.375C82.2885 106.373 82.7859 106.077 82.96 105.597C84.5161 108.785 85.1166 105.814 86.3607 107.094C86.347 108.004 84.324 112.963 83.9208 116.432C83.9208 117.263 84.6007 117.937 85.4393 117.937C86.2778 117.937 86.9577 117.263 86.9577 116.432ZM82.963 100.93C82.994 100.863 83.0262 100.798 83.0632 100.733C83.0364 100.804 83.003 100.869 82.963 100.93ZM86.3655 107.099C86.3906 107.125 86.4156 107.152 86.4406 107.181C86.3971 107.147 86.3941 107.143 86.3655 107.099Z" fill="#E0E0E0"/>
<path fill-rule="evenodd" clip-rule="evenodd" d="M76.3432 116.511C76.2845 111.746 76.1961 107.925 76.896 103.169C77.5453 98.7516 75.1159 99.1036 70.7143 99.0042C67.2843 98.927 67.9649 99.8861 68.2558 103.493C68.5923 107.656 68.8821 111.839 69.5479 115.959L69.5693 115.957C69.4606 115.992 69.5139 115.964 69.414 116.046C69.4689 116.099 69.5034 116.153 69.5836 116.146C70.245 111.157 69.9206 106.055 69.8119 101.02C71.7424 101.128 72.7578 101.221 74.814 101.698C74.017 103.577 73.5998 114.374 73.5488 116.511C73.5488 117.333 74.1745 118 74.9463 118C75.718 118 76.3432 117.333 76.3432 116.511Z" fill="#E0E0E0"/>
<path fill-rule="evenodd" clip-rule="evenodd" d="M74.1585 95.5155L74.0826 95.4164C74.1226 95.3961 74.1631 95.3757 74.2049 95.353C75.2946 94.755 75.1341 94.0437 74.5011 93.5609C74.5295 93.5357 74.5544 93.5123 74.5753 93.492C74.0675 93.1637 73.6328 93.0374 73.2739 93.0473C71.7263 92.7702 69.9554 93.6478 71.7639 97.3488C72.2404 98.0509 73.1626 98.2103 73.824 97.7041C74.4848 97.1979 74.635 96.2182 74.1585 95.5155ZM73.6096 94.3331L73.6438 94.3572C73.5574 94.4428 73.6234 94.4594 73.4977 94.5309L73.4733 94.5142C73.4814 94.4748 73.5331 94.4113 73.6096 94.3331Z" fill="#E0E0E0"/>
</svg>
