<svg width="320" height="120" viewBox="0 0 320 120" fill="none" xmlns="http://www.w3.org/2000/svg">
<g clip-path="url(#clip0_5382_70259)">
<path fill-rule="evenodd" clip-rule="evenodd" d="M204.183 30.4029C212.284 30.6776 219.352 31.4318 227.555 31.4443C242.267 31.4681 256.975 31.3503 271.685 31.2908C262.779 30.8608 253.904 30.6199 244.542 30.652C239.494 30.6693 230.697 30.9399 225.907 30.1144C231.988 30.2797 238.433 30.018 244.529 29.8669C261.685 29.4429 277.191 30.1323 294.271 31.2028L294.318 31.273L295.335 31.2772L294.774 31.9534L295.335 32.7932C272.739 32.9419 250.152 33.4361 227.56 33.5753C219.36 33.6259 212.356 32.9323 204.265 32.7069C203.589 32.7278 203.023 32.2294 203.001 31.5936C202.978 30.9572 203.507 30.4243 204.183 30.4029Z" fill="#EDEDED"/>
<path fill-rule="evenodd" clip-rule="evenodd" d="M213.28 30.1795C210.716 29.605 210.562 21.5882 212.794 20.9405C213.215 20.8186 213.55 20.7953 213.929 20.5634C213.956 19.8883 212.401 15.6477 216.922 16.6237C218.618 16.9901 217.459 18.9123 217.576 20.3933C220.17 21.2176 219.119 21.6774 219.262 25.1954C219.381 28.1276 219.448 28.6176 216.183 28.4285C215.314 28.3785 214.767 28.3625 214.393 28.3512C214.567 28.5736 214.657 28.8561 214.624 29.1529C214.554 29.7857 213.952 30.2455 213.28 30.1795ZM214.03 27.7862C215.408 27.7219 217.621 27.6107 217.899 27.5477C218.578 27.3942 217.949 22.6552 217.857 22.0015C217.754 21.9557 217.749 21.9569 217.485 21.8843C216.565 21.6327 216.12 21.3306 215.932 20.9696C215.863 21.6411 215.375 22.2329 213.718 22.7747C213.509 23.7888 213.668 26.5574 214.03 27.7862ZM215.848 20.0507C215.93 19.544 216.125 18.9575 216.129 18.2777C215.949 18.2949 215.947 18.3033 215.652 18.3752C215.597 18.9831 215.745 19.5386 215.848 20.0507ZM216.115 17.9315L216.112 17.8982C216.112 17.9096 216.113 17.9202 216.115 17.9315Z" fill="#EDEDED"/>
<path fill-rule="evenodd" clip-rule="evenodd" d="M226.338 28.0399C226.34 21.8205 225.54 17.5394 225.285 11.7315C225.061 6.61896 227.263 7.8519 231.739 7.01686C234.193 6.55948 232.784 15.5439 232.846 17.0071C232.902 18.3233 234.22 27.9132 233.807 28.1476C233.063 28.5699 230.737 28.2207 229.985 28.0727C230.554 27.9834 232.699 27.846 233.305 27.6872C232.381 24.6069 232.28 22.6609 231.842 19.442C231.538 17.195 231.547 10.8537 231.342 8.79284C227.627 9.64335 227.004 8.19091 227.265 11.5793C227.725 17.5578 228.622 21.7069 228.785 28.1054C228.767 28.7417 228.202 29.2432 227.527 29.2247C226.851 29.2069 226.319 28.6757 226.338 28.0399ZM233.347 27.8258C233.35 27.8609 233.36 27.8954 233.378 27.9269L233.347 27.8258Z" fill="#EDEDED"/>
<path fill-rule="evenodd" clip-rule="evenodd" d="M236.885 28.9944C236.73 28.8005 236.585 28.433 236.465 27.9595C235.921 27.9227 235.376 27.8804 234.832 27.8334C235.355 27.7864 235.879 27.7436 236.405 27.7037C235.91 25.4371 235.955 21.2946 237.744 21.2173C240.448 21.1013 261.21 21.3071 262.275 22.361C262.707 22.7886 263.872 29.6879 261.054 29.6528C259.479 29.6332 254.403 28.7636 251.988 28.6096C247.64 28.3312 243.312 28.3122 238.986 28.1052C239.013 28.4353 238.889 28.7743 238.616 29.0223C238.13 29.4648 237.355 29.4523 236.885 28.9944ZM238.779 27.5479C243.193 27.3011 247.668 27.2844 252.049 27.4105C253.035 27.4391 260.067 28.0921 260.973 28.1558C261.037 26.56 261.108 25.2277 260.963 23.5678C255.979 23.0206 244.779 23.318 238.722 23.3935C238.611 24.6532 238.564 26.9085 238.77 27.5354L238.779 27.5479Z" fill="#EDEDED"/>
<path fill-rule="evenodd" clip-rule="evenodd" d="M240.119 21.2096C239.355 11.3092 239.699 14.1302 246.821 14.2866C249.521 14.3455 266.565 13.0637 267.206 15.5433C267.276 15.8187 268.674 22.8184 267.041 22.8476C262.716 22.9249 261.486 22.2064 256.134 22.6691C261.156 21.2697 261.809 21.6795 266.593 21.7639C266.618 20.39 266.039 17.2253 265.813 16.0268C263.684 15.1329 249.064 16.6561 242.23 15.9436C242.18 17.6583 242.379 19.2713 242.558 21.0074C242.618 21.6414 242.119 22.2011 241.446 22.2564C240.773 22.3123 240.178 21.8437 240.119 21.2096ZM241.407 15.8401C241.257 15.8181 241.112 15.7949 240.973 15.7699C241.116 15.8193 241.263 15.8431 241.407 15.8401Z" fill="#EDEDED"/>
<path fill-rule="evenodd" clip-rule="evenodd" d="M270.726 29.1397C270.77 27.4678 271.013 22.4415 270.292 20.8695L270.333 20.9022C268.804 18.6629 273.194 18.8628 275.051 18.676C280.319 18.1467 279.823 20.4103 280.211 25.2624C280.651 30.7752 280.262 30.0353 274.898 29.6137L273.14 29.4275C273.009 29.9319 272.526 30.3066 271.95 30.3066C271.281 30.3066 270.737 29.8004 270.726 29.1724L270.547 29.1539L270.726 29.1397ZM273.174 28.944C275.48 28.7548 274.689 28.8173 278.94 28.7162C279.071 27.8782 278.84 26.0475 278.749 25.3962C277.86 19.0346 278.662 19.9928 272.526 20.9093C273.307 23.2949 273.171 27.2239 273.174 28.944Z" fill="#EDEDED"/>
<path fill-rule="evenodd" clip-rule="evenodd" d="M270.669 19.5811C270.197 18.2869 268.118 12.3125 271.464 12.2483C276.294 12.1561 280.035 9.86328 277.981 17.1664C277.862 17.5898 277.818 18.7948 277.687 19.069C277.228 18.9357 277.175 17.249 277.204 16.9511C277.735 11.5084 277.052 13.3628 271.772 14.0694C271.702 15.507 272.218 16.9801 272.716 18.316C273.087 18.8477 272.93 19.5626 272.365 19.9117C271.8 20.2615 271.041 20.1134 270.669 19.5811ZM271.542 14.0992C271.477 14.1075 271.412 14.1152 271.346 14.1229C271.418 14.1277 271.482 14.1194 271.542 14.0992Z" fill="#EDEDED"/>
<path fill-rule="evenodd" clip-rule="evenodd" d="M218.812 30.2332C219.278 20.4048 219.76 22.9272 227.16 22.5459C233.622 22.2134 229.893 22.1849 236.49 22.5489L231.827 23.3316C226.821 24.1268 226.648 24.0441 222.245 24.2493C220.473 24.332 221.245 28.876 221.261 30.2332C221.261 30.8696 220.713 31.3853 220.037 31.3853C219.361 31.3853 218.812 30.8696 218.812 30.2332Z" fill="#EDEDED"/>
<path fill-rule="evenodd" clip-rule="evenodd" d="M280.986 30.6039C280.861 29.9288 279.551 20.3894 282.131 20.2931C283.469 20.2425 290.319 20.5548 290.538 22.2677C290.77 24.0805 290.528 27.4028 290.784 29.0236C291.076 30.8644 291.461 30.4189 290.953 32.0348C290.543 30.4891 290.477 30.8073 289.975 29.2008C289.734 28.4312 289.205 23.98 289.086 22.7393C285.634 22.3598 286.455 22.0535 283.022 22.1392C283.059 24.5307 282.664 26.1372 283.064 29.384C283.422 29.9241 283.247 30.6348 282.673 30.972C282.1 31.3086 281.345 31.1445 280.986 30.6039ZM289.069 22.5508L289.068 22.5353C289.068 22.5407 289.069 22.5454 289.069 22.5508Z" fill="#EDEDED"/>
<path fill-rule="evenodd" clip-rule="evenodd" d="M286.887 19.5203C286.902 19.4881 286.914 19.4537 286.923 19.4168L286.911 19.4002C286.871 19.4602 286.895 19.4816 286.858 19.5096C286.802 19.5013 286.775 19.4769 286.717 19.4977L286.714 19.509C286.753 19.5322 286.816 19.5316 286.887 19.5203ZM287.48 18.2422C288.653 18.5931 289.621 19.4323 288.379 20.6396C284.949 23.9756 282.837 16.3865 286.96 17.7919C287.185 17.8948 287.362 18.0536 287.48 18.2422Z" fill="#EDEDED"/>
<path fill-rule="evenodd" clip-rule="evenodd" d="M246.254 18.2791C246.24 18.2833 246.228 18.2881 246.215 18.2928L246.254 18.2791ZM248.896 17.4584C250.419 17.0724 251.994 16.8702 251.842 17.7486C252.357 17.6939 252.853 17.6523 253.181 18.1703C253.148 18.1429 253.136 18.1281 253.095 18.1168C253.236 18.3731 256.156 18.3357 256.156 18.3357L258.621 18.887C257.2 19.0987 253.653 20.0872 252.216 19.2337C251.324 19.3616 250.251 19.4229 249.813 19.0006L247.651 19.9748C245.373 21.1078 243.909 19.345 247.411 16.9683C247.976 16.7673 248.599 16.9855 248.896 17.4584ZM251.919 18.9988C251.902 18.9797 251.884 18.9602 251.868 18.9399C251.884 18.9608 251.902 18.9803 251.919 18.9988ZM249.817 17.7611C249.844 17.7046 249.875 17.6457 249.908 17.5851C249.854 17.6404 249.826 17.6998 249.817 17.7611Z" fill="#EDEDED"/>
<path fill-rule="evenodd" clip-rule="evenodd" d="M240.707 24.2638C244.328 24.9823 242.392 24.5642 246.507 25.5503C242.08 26.7237 244.354 26.4448 239.68 26.3562C239.066 26.0891 238.798 25.404 239.082 24.8264C239.366 24.2489 240.094 23.9968 240.707 24.2638Z" fill="#EDEDED"/>
<path fill-rule="evenodd" clip-rule="evenodd" d="M276.262 22.1073C276.226 22.2256 276.124 22.5842 276.043 22.9982L276.054 23.0024C280.825 24.9104 272.871 29.5269 273.885 21.5529C274.048 20.9356 274.712 20.5585 275.368 20.712C276.024 20.8648 276.425 21.4899 276.262 22.1073ZM275.933 23.8951C275.926 24.2282 275.976 24.5077 276.134 24.6261L276.154 24.6231C276.298 24.4304 276.154 24.1592 275.933 23.8951Z" fill="#EDEDED"/>
<path fill-rule="evenodd" clip-rule="evenodd" d="M285.217 24.3984C288.981 24.6786 288.064 26.1827 287.236 26.8417C288.485 27.3836 290.708 28.5963 286.897 29.555C286.034 29.7721 286.244 29.715 285.344 29.6329C285.523 29.4694 286.262 28.9395 286.85 28.5089L286.753 28.4862C284.753 28.0277 284.522 27.3134 284.816 26.6407C284.337 26.4843 283.992 26.0554 283.992 25.5511C283.992 24.9147 284.541 24.3984 285.217 24.3984ZM286.596 26.5765L286.577 26.555L286.566 26.5604C286.569 26.5639 286.58 26.5693 286.596 26.5765ZM287.526 27.9997C287.587 27.9498 287.623 27.9171 287.623 27.907C287.578 27.9337 287.546 27.9652 287.526 27.9997ZM285.788 25.378C285.864 25.2912 285.929 25.2133 285.974 25.1461C285.894 25.2157 285.832 25.2941 285.788 25.378Z" fill="#EDEDED"/>
<path fill-rule="evenodd" clip-rule="evenodd" d="M228.333 11.9807C229.627 13.1137 233.992 12.3185 230.003 15.7021C233.178 17.5827 228.91 16.7935 230.06 18.8924L230.499 19.7899C227.693 18.4642 228.687 17.559 229.338 16.9458C227.183 16.3403 227.623 15.6361 228.592 14.5733C227.954 14.4519 227.43 14.1956 226.67 13.6716C226.174 13.2392 226.144 12.51 226.603 12.0431C227.063 11.5762 227.837 11.5483 228.333 11.9807ZM229.668 16.5901C229.684 16.5663 229.696 16.5431 229.705 16.5205C229.69 16.5437 229.678 16.5669 229.668 16.5901ZM229.565 13.4949L229.582 13.4759L229.576 13.4741L229.565 13.4949Z" fill="#EDEDED"/>
<path fill-rule="evenodd" clip-rule="evenodd" d="M205.56 30.1611C225.382 30.236 246.143 30.5614 266.293 30.2099C270.682 29.9202 280.86 29.0983 285.046 29.6502C285.236 29.6365 285.419 29.6205 285.589 29.6026C285.505 29.6389 285.433 29.6698 285.37 29.6978C285.871 29.7793 286.267 29.8846 286.529 30.0184C286.652 31.8532 283.986 31.3096 282.172 31.4C257.264 32.6424 230.612 32.3701 205.56 32.4664C204.884 32.4664 204.336 31.9501 204.336 31.3137C204.336 30.6773 204.884 30.1611 205.56 30.1611Z" fill="#EDEDED"/>
<path fill-rule="evenodd" clip-rule="evenodd" d="M167.819 90.4555C171.999 96.6457 177.913 105.897 178.615 113.133C178.783 114.861 179.007 117.373 179.152 117.787C179.852 119.786 178.165 121.931 178.124 122.536C178.079 123.189 178.62 123.661 179.325 123.584C180.031 123.507 180.645 122.909 180.69 122.256L180.806 120.548C181.627 121.725 182.243 122.999 182.623 124.365C182.801 125.641 185.32 127.524 185.959 126.24C188.899 120.332 174.537 93.2843 167.819 90.4555Z" fill="#3B636B"/>
<path fill-rule="evenodd" clip-rule="evenodd" d="M101.295 62.3193C100.682 61.0023 99.47 61.4846 99.3205 61.6836C98.2911 63.0563 108.823 95.2624 139.086 87.9637C133.237 88.7949 124.772 87.7806 117.366 82.9383C111.884 79.3528 104.129 70.909 101.295 62.3193Z" fill="#3B636B"/>
<path fill-rule="evenodd" clip-rule="evenodd" d="M148.899 22.7229C150.467 13.4686 131.808 14.9601 139.435 27.2715C143.904 34.4842 153.561 23.8599 159.89 35.3807C160.048 35.714 160.448 35.8555 160.782 35.696C161.115 35.5371 161.256 35.1371 161.098 34.8038C154.327 22.4849 144.346 32.6712 140.581 26.5781C135.183 17.8422 146.022 14.9283 147.524 21.2831C148.854 26.9145 140.867 24.1963 145.022 22.2756C145.369 22.1479 145.546 21.7622 145.418 21.4158C145.29 21.0688 144.905 20.8918 144.558 21.0196C138.572 23.8138 147.683 29.8994 148.899 22.7229Z" fill="#3B636B"/>
<path fill-rule="evenodd" clip-rule="evenodd" d="M192.321 71.0148C187.719 73.2652 183.305 74.1106 179.106 74.0701C175.015 74.0296 171.125 73.1742 167.542 70.246C164.214 67.0188 160.889 64.2651 157.585 63.5947C155.266 63.125 153.598 63.5156 152.503 64.4458C151.789 63.1991 150.353 62.2646 148.013 61.9194C144.677 61.4266 140.616 62.8876 136.388 64.7916C132.024 66.3279 128.074 65.8114 124.214 64.4595C120.25 63.0714 116.387 60.7768 112.822 57.0967C116.879 72.8179 134.91 83.6932 149.637 73.3518C150.256 72.7537 150.808 72.1126 151.277 71.4509C151.493 72.2328 151.794 73.0234 152.173 73.796C162.511 88.5253 183.164 84.4234 192.321 71.0148Z" fill="#3B636B"/>
<path fill-rule="evenodd" clip-rule="evenodd" d="M166.583 90.1567C166.61 92.2507 166.316 93.0363 166.042 93.1404C165.919 92.3155 165.71 91.6607 165.507 91.6121C164.817 91.4489 164.914 92.1186 165.266 92.7186C165.334 93.9441 165.597 94.4462 165.596 95.8717C165.252 95.7701 164.929 95.5863 164.634 95.3489C164.233 94.3309 163.582 93.4861 163.069 93.032C163.042 92.9497 163.017 92.8694 162.996 92.7902C163.001 92.8451 162.989 92.8974 162.966 92.9441C162.267 92.3772 161.899 92.6301 162.974 94.3316L163.071 94.4817C163.221 94.8586 163.379 95.2698 163.526 95.671C163.168 95.1384 162.79 94.5914 162.462 94.177L162.445 94.1241L162.442 94.1509C161.742 93.2724 161.28 93.0189 161.748 94.8443C161.35 93.754 160.928 93.2992 160.307 94.2518C159.357 95.7078 161.432 102.063 162.248 105.685C160.728 102.858 159.873 98.9051 159.597 96.1626L159.6 96.1925L159.504 96.238C159.438 95.9315 159.386 95.7352 159.355 95.676L158.113 96.2704C158.195 97.3027 158.317 98.2522 158.488 99.1556C158.886 102.239 159.352 106.001 159.686 109.413C159.423 108.681 159.151 107.943 158.875 107.207C157.687 102.534 156.302 98.1556 155.045 96.9881C154.756 96.0791 154.564 95.3315 154.51 94.8013C154.387 93.6107 150.389 91.6788 152.287 96.2442C154.324 101.144 154.706 107.232 155.36 113.391C153.357 107.64 151.879 101.732 151.715 95.8692C151.647 93.493 148.785 91.713 148.344 97.2398L148.251 96.8835L148.239 96.8816C148.096 96.2897 147.926 95.5938 147.721 94.7633C147.51 93.916 146.982 93.8107 146.324 93.6531C146.116 94.5851 145.972 95.4193 145.883 96.1794C145.734 95.9782 145.536 95.6885 145.211 95.2673C144.985 94.0549 144.946 94.078 143.384 93.7721C143.142 94.0051 142.989 94.4456 142.911 95.0512C141.895 90.8146 140.061 91.3037 140.329 94.4562C140.403 95.3246 140.713 97.9756 141.187 101.401C140.513 99.6795 139.885 98.2478 139.358 97.2971L139.356 97.2691L139.352 97.2847C137.847 94.5789 137.16 95.7913 138.534 105.263C138.535 105.265 138.947 107.457 139.545 110.339C138.662 109.523 138.291 110.922 139.286 116.781C139.286 116.781 140.183 121.275 140.125 122.782C139.072 121.437 137.474 116.665 136.878 116.29L136.568 116.382C136.302 116.897 138.083 120.845 138.702 122.947C138.515 122.019 138.186 120.724 137.872 119.541C143.367 131.222 139.34 115.816 139.371 111.725C139.604 112.083 139.863 112.554 140.132 113.103C141.196 117.984 142.537 123.436 143.324 123.962C145.614 125.494 143.492 118.126 141.426 113.55C140.827 110.413 140.36 107.097 140.008 104.054C140.901 106.687 141.956 109.694 142.961 112.595C144.488 120.951 146.446 128.455 148.193 125.854C148.598 125.253 146.835 118.416 144.652 111.441C144.502 110.642 144.356 109.834 144.215 109.024C144.905 110.858 145.722 112.934 146.506 114.978C147.722 119.49 148.887 123.264 149.352 124.479C149.756 125.535 151.088 126.537 151.516 125.386C152.275 127.234 153.195 128.075 154.282 126.783C154.344 126.71 154.395 126.621 154.439 126.521C155.666 128.444 157.236 128.363 157.124 124.78C157.572 125.804 158.044 126.87 158.542 127.984C158.653 128.243 158.767 128.5 158.886 128.754L161.174 127.705L160.443 126.029C158.745 121.715 158.127 116.761 157.584 111.797C158.31 115.041 158.998 118.017 159.704 119.781C159.711 119.989 159.717 120.199 159.719 120.41L159.957 120.354C160.472 121.412 161 121.774 161.563 121.078C162.285 120.185 162.203 118.309 161.677 115.942C161.893 114.14 161.523 110.056 161.018 106.021C164.566 112.707 163.836 107.026 162.755 101.62C162.871 101.754 162.993 101.879 163.121 101.992C165.108 103.733 164.192 99.8035 163.33 96.8946C164.06 97.9544 164.812 98.7531 164.96 97.788C165.019 97.398 165.017 97.0093 164.969 96.6305C166.103 97.1894 166.275 95.1807 166.094 93.5391C166.631 93.7241 167.067 93.0619 166.583 90.1567ZM162.294 96.6592C162.43 97.0591 163.04 98.7444 163.336 100.063C162.916 98.9712 162.591 97.742 162.294 96.6592ZM138.702 122.947C138.847 123.438 138.927 123.828 138.904 124.05C138.89 124.039 138.875 124.026 138.858 124.011C138.856 123.793 138.797 123.417 138.702 122.947ZM138.904 124.05C138.902 124.064 138.901 124.077 138.899 124.09C138.91 124.08 138.924 124.069 138.94 124.072C138.93 124.067 138.918 124.06 138.904 124.05ZM138.94 124.072H138.943L138.942 124.073L138.94 124.072ZM138.858 124.011C138.643 123.815 138.209 123.246 138.142 123.165C138.669 124.278 138.863 124.421 138.858 124.011Z" fill="#45CDC3"/>
<path fill-rule="evenodd" clip-rule="evenodd" d="M129.867 54.6768C126.087 69.5837 129.751 80.9874 136.452 87.5802C136.022 87.7677 135.702 88.1764 135.653 88.6773C135.596 91.8721 134.683 127.86 136.579 128.585C137.402 128.9 138.556 128.132 139.709 128.038C146.295 127.497 162.627 130.835 163.75 127.048C165.555 120.964 166.984 97.311 167.695 89.5651C165.264 96.6687 163.672 123.398 162.117 126.856C156.38 126.677 143.311 125.377 137.906 126.354C138.572 114.914 137.964 101.156 138.308 89.2237C150.435 98.8617 170.053 94.5498 176.161 70.0628C178.994 58.7052 176.798 50.9512 173.345 44.2581C172.947 43.442 172.514 42.6476 172.046 41.8763C174.842 48.7887 177.178 54.6083 175.999 64.6494C171.359 104.154 126.872 98.9763 131.283 59.6036C133.399 40.7157 144.75 32.5087 157.658 33.3765C158.289 33.508 159.201 32.8376 159.694 31.8794C160.187 30.9218 160.075 30.0391 159.443 29.907C147.537 29.2846 134.805 35.2045 129.867 54.6768Z" fill="#3B636B"/>
<path fill-rule="evenodd" clip-rule="evenodd" d="M158.349 49.0345C156.882 47.376 154.274 46.9648 151.973 47.9473C148.16 42.9819 137.747 40.5608 131.885 41.7371C129.591 42.1962 129.283 43.6566 128.835 45.6939C127.84 50.2213 128.647 55.2029 131.483 57.6352C132.98 58.9192 134.736 59.8706 136.59 60.4033C138.459 60.9397 140.429 61.0499 142.338 60.6468C146.548 59.7572 150.418 56.4047 152.171 49.6612C154.206 49.3883 155.647 49.6556 157.547 50.5777C156.898 57.5293 159.4 62.0056 163.062 64.2747C164.72 65.3026 166.61 65.8677 168.55 65.9985C170.474 66.1275 172.45 65.8291 174.293 65.1301C177.836 63.7881 181.3 59.6712 182.215 55.15C182.785 52.334 182.98 51.9763 180.675 50.6163C175.208 47.3885 164.044 45.4179 158.349 49.0345ZM179.779 52.6367C179.14 59.1012 175.301 65.3151 168.525 64.8603C161.758 64.4055 158.506 56.5966 159.13 50.1534C165.072 46.9362 174.796 48.3273 179.779 52.6367ZM131.427 44.1718C129.832 50.4686 130.473 57.4676 137 59.341C143.519 61.2119 149.231 54.9731 150.833 48.7012C145.351 42.5507 135.917 42.4486 131.427 44.1718Z" fill="#CF312C"/>
<path fill-rule="evenodd" clip-rule="evenodd" d="M143.124 77.8501C147.999 79.6743 150.327 81.0331 157.138 80.5471C156.424 87.3287 142.905 88.2077 143.124 77.8501Z" fill="#3B636B"/>
<path fill-rule="evenodd" clip-rule="evenodd" d="M191.828 23.2858C192.089 23.8216 192.406 24.4738 192.708 25.1068C192.134 24.3044 191.368 23.2446 190.484 22.0497C190.936 22.464 191.384 22.8764 191.828 23.2858ZM193.99 27.3216C194.002 27.3248 194.015 27.3291 194.027 27.3347L193.97 27.2637C193.909 27.0936 193.817 26.8762 193.691 26.6083C193.737 26.6189 193.781 26.6388 193.823 26.67C193.803 26.6438 193.694 26.4899 193.511 26.2326C193.185 25.5697 192.702 24.6645 192.032 23.4745C192.539 23.9412 193.039 24.4041 193.533 24.8626C193.412 24.5343 193.279 24.2115 193.136 23.8926C193.84 24.3368 194.547 24.7461 195.258 25.1137C194.215 23.8552 192.924 22.4378 191.478 20.9457C188.381 16.3697 183.475 12.6073 179.853 8.67729C179.664 8.47169 172.687 -0.193836 173.83 4.98093C173.921 5.39274 174.05 5.81578 174.211 6.24753L173.539 6.47678C171.299 4.53982 169.801 3.92742 169.788 5.84381C169.782 6.78083 170.461 8.00567 171.573 9.42926C168.717 7.17456 166.492 5.86935 165.808 6.56837C164.983 7.40945 165.706 8.85357 167.325 10.6435C166.14 10.1158 165.258 9.98622 164.823 10.4149C164.597 10.6373 164.482 10.912 164.458 11.2279C163.475 11.1257 162.883 11.5973 162.851 12.8496C162.78 15.5959 166.735 19.0891 171.263 22.6372C171.489 22.4933 171.733 22.3556 172 22.226C172.878 21.7126 174.005 22.0079 174.518 22.8851C175.032 23.7624 174.763 25.0507 173.886 25.5641C172.23 26.8619 171.801 27.7285 170.847 28.4599C172.225 29.5234 173.669 30.6778 175.313 32.102C175.82 32.983 175.517 34.1081 174.635 34.6153C173.755 35.1224 172.629 34.819 172.123 33.9381C172.009 33.8509 170.351 32.6435 168.388 31.1657C167.958 31.7999 167.502 32.5419 166.971 33.4365C167.914 34.1455 168.859 34.8639 169.779 35.5753C170.726 36.5853 171.701 37.6014 172.658 38.5652C170.918 36.9747 168.907 35.2221 166.927 33.5101C166.743 33.8203 166.55 34.1493 166.345 34.4988C165.801 35.3573 164.664 35.6127 163.805 35.0688C163.617 34.9492 163.456 34.8009 163.329 34.6333C162.328 33.9032 161.341 33.1618 160.404 32.4216C158.213 30.2324 156.065 28.0605 153.993 26.1267L153.984 26.1155L153.989 26.1217L153.873 26.0139L153.312 26.4874C155.213 29.8617 159.016 32.9325 163.089 35.8408C166.755 39.2113 170.462 42.3145 173.038 43.4789C170.754 41.9899 168.451 40.0816 166.163 37.9902C167.138 38.663 168.104 39.3284 169.041 39.9888C172.802 43.378 175.882 45.7099 175.256 43.6023C175.066 42.9643 173.266 41.6086 170.782 39.8661C169.403 38.597 167.823 37.098 166.216 35.5405C166.519 35.776 166.834 36.0202 167.165 36.2762C167.166 36.2769 176.628 44.4627 176.628 44.4627C177.852 44.7287 177.933 44.2521 177.263 43.2933L177.431 43.2029C176.979 42.75 176.53 42.3126 176.085 41.8884C175.968 41.7631 175.846 41.6354 175.72 41.5033C178.696 44.1798 180.882 45.4651 180.464 42.9724C180.283 41.8996 176.889 38.7521 172.647 35.3236C171.777 34.4084 170.888 33.4652 170.019 32.5319C173.535 35.237 176.978 37.7715 180.821 41.099L180.956 39.5602L182.438 39.5352C181.974 39.1365 181.515 38.7496 181.06 38.3721L181.09 38.0425L177.371 34.2595C178.824 35.3373 180.14 36.3996 181.244 37.4469C181.149 37.3347 181.077 37.2189 181.026 37.1011C181.734 37.6357 182.237 37.9472 182.417 37.9191C183.784 37.7054 183.849 36.9834 183.176 36.0171L183.367 36.118C183.214 35.9591 183.039 35.7834 182.849 35.5965C182.349 35.0047 181.631 34.3443 180.801 33.6658C179.612 32.5768 178.193 31.3096 176.674 29.9645C180.352 32.4098 183.542 34.1599 184.859 33.9474C185.687 33.8135 186.102 33.5038 186.187 33.0534C186.499 33.2995 186.792 33.5213 187.065 33.7131L187.119 33.7705L187.137 33.7624C188.044 34.3916 188.721 34.6919 189.082 34.533C189.891 34.1767 190.031 33.5175 189.679 32.6428L189.843 32.5699C189.84 32.5674 189.698 32.4167 189.445 32.1519C189.292 31.874 189.101 31.5787 188.873 31.2678C189.781 31.8603 190.658 32.3656 191.488 32.7581C191.762 32.6104 191.852 32.5955 192.052 32.3525C192.639 31.6354 192.438 30.5619 191.683 29.253C191.701 29.1907 191.715 29.1253 191.723 29.0574C192.078 29.2891 192.372 29.4224 192.594 29.4442C193.107 29.4935 193.432 29.41 193.6 29.2175C193.657 29.1919 193.696 29.1265 193.714 29.0138C193.759 28.8549 193.745 28.6536 193.683 28.4175C193.67 28.3322 193.653 28.2412 193.633 28.1403C193.582 27.8917 193.512 27.635 193.427 27.3721C193.547 27.4818 193.637 27.549 193.701 27.5808C194.032 27.8649 194.164 27.8319 193.99 27.3216ZM171.101 22.7444C167.16 20.0031 163.647 17.3036 162.141 15.723C162.12 15.7005 156.44 13.9436 162.144 20.0785C159.822 18.4107 157.885 17.1733 157.391 17.2979C154.747 17.9658 157.314 20.9482 160.822 23.953C160.643 24.5673 160.982 25.6781 162.502 27.44C162.502 27.44 162.759 27.7422 163.208 28.2612C159.014 25.3772 155.618 23.449 155.266 24.1816C154.57 23.8739 154.258 24.31 154.921 25.5205L154.892 25.5024L154.934 25.5436C155.36 26.3155 156.179 27.3977 157.54 28.7982C157.54 28.7982 160.079 31.4155 163.239 34.5056C162.866 33.9225 162.84 33.1531 163.235 32.5294C164.08 31.0846 164.787 29.9165 165.469 28.9303C163.542 27.4226 161.896 26.0488 161.693 25.6071C161.377 24.6408 161.904 23.6016 162.87 23.2858C163.641 23.0341 164.457 23.3181 164.917 23.933C165.938 24.7399 166.895 25.4676 167.834 26.1765C168.905 25.2146 169.514 23.8228 171.101 22.7444Z" fill="#45CDC3"/>
<path fill-rule="evenodd" clip-rule="evenodd" d="M170.537 1.20006C164.2 4.62852 150.122 22.3957 152.257 28.8613C153.298 20.7011 164.468 6.30129 171.462 2.93639C173.464 1.97383 195.01 19.4158 194.957 27.9492C187.422 33.9246 184.73 37.5499 178.151 44.4735C177.258 44.7108 176.726 45.6273 176.962 46.5207C177.2 47.4135 178.116 47.9455 179.009 47.7088C186.079 41.5652 189.365 35.7456 197.042 29.926C203.896 24.7307 175.605 -1.54245 170.537 1.20006Z" fill="#3B636B"/>
<path d="M145.048 53.947C144.13 53.8126 143.495 52.9594 143.629 52.0413C143.764 51.1232 144.617 50.4879 145.535 50.6223C146.453 50.7567 147.088 51.61 146.954 52.5281C146.819 53.4462 145.966 54.0815 145.048 53.947Z" fill="black"/>
<path d="M163.348 56.7916C162.481 56.6646 161.881 55.8584 162.008 54.991C162.135 54.1236 162.941 53.5234 163.808 53.6504C164.676 53.7774 165.276 54.5835 165.149 55.451C165.022 56.3184 164.216 56.9186 163.348 56.7916Z" fill="black"/>
<path fill-rule="evenodd" clip-rule="evenodd" d="M97.0135 65.4244C97.3623 65.722 98.1444 65.5115 101.995 64.9008C99.9269 59.6729 101.868 56.1398 103.348 53.4451C104.518 51.3154 105.4 49.7093 103.788 48.2042C102.912 47.2772 99.7306 45.7134 98.6196 51.8055C98.6759 55.484 97.9858 55.806 97.0188 56.2571C96.6528 56.4279 96.247 56.6172 95.8271 57.0141C92.5761 60.0865 94.4141 62.3218 96.0685 64.0723C96.7393 64.7822 96.7756 65.2215 97.0135 65.4244Z" fill="#3B636B"/>
<path d="M100.131 61.4348C96.0419 66.3862 98.7777 67.3428 94.4768 67.3081C90.176 67.2735 87.0125 65.8024 87.0486 61.3294C87.0846 56.8565 87.7944 53.5475 92.0953 53.5821C96.3962 53.6168 100.168 56.9619 100.131 61.4348Z" fill="#3B636B"/>
<path fill-rule="evenodd" clip-rule="evenodd" d="M13.1342 48.7914C16.0584 49.2952 19.6902 49.5331 23.6387 49.6057C22.6852 49.5604 21.7641 49.5027 20.8965 49.4361C25.9785 49.0555 31.1507 49.2976 36.1986 48.5048C50.1838 46.3065 57.9428 46.3237 71.8226 47.6976C77.3929 47.5775 82.2044 47.7066 82.969 48.4839C85.1931 50.7452 79.4357 49.724 79.4357 49.724C77.6027 49.658 75.8108 49.5307 74.0391 49.3725C67.2499 49.5616 58.4168 50.2034 56.2546 50.3241C44.5566 50.9778 23.8169 52.8762 12.7312 51.042C12.2282 50.904 11.911 50.2885 12.0222 49.6669C12.1334 49.046 12.6313 48.6534 13.1342 48.7914ZM34.4654 49.4807C41.3665 49.247 48.2036 48.798 53.2552 48.5702C54.493 48.5143 57.5763 48.3156 61.3131 48.1175C59.2956 47.9688 57.2422 47.8731 55.123 47.8725C48.155 47.8701 43.1817 48.3769 36.2845 49.2839C35.7013 49.3606 35.0929 49.4254 34.4654 49.4807Z" fill="#EDEDED"/>
<path fill-rule="evenodd" clip-rule="evenodd" d="M17.9824 51.3263C16.3542 49.8989 15.7583 43.0234 17.9451 42.0843L17.2357 42.845C19.4749 41.7602 18.3869 41.9404 20.8119 42.0736C22.2032 42.1497 42.2984 42.754 43.0452 44.759C43.1729 45.1022 41.8441 49.9756 41.6659 50.998C41.4302 47 41.283 48.9199 42.088 45.1034C40.5993 44.5556 39.1114 44.5371 37.49 44.4824C31.4414 44.2802 25.0111 44.0833 18.9865 44.0238C18.7451 45.3287 18.9871 48.6469 19.5229 49.5379C19.9892 49.9286 20.0713 50.5972 19.6941 51.0807C19.2935 51.5934 18.5271 51.7034 17.9824 51.3263ZM42.0988 45.0504L42.1146 44.9778C42.0995 44.9992 42.0963 45.0248 42.0988 45.0504ZM18.9903 44.0054L19.1318 43.7294C19.1028 43.7603 19.0705 43.7895 19.0338 43.8175C19.0181 43.874 19.0036 43.9364 18.9903 44.0054ZM18.9107 43.8966C18.8424 43.9358 18.7609 43.9763 18.661 44.0233C18.771 43.9763 18.8443 43.9453 18.9107 43.8966Z" fill="#EDEDED"/>
<path fill-rule="evenodd" clip-rule="evenodd" d="M48.6726 48.5961C48.66 46.8874 47.7475 37.9285 48.121 37.5348C48.9032 36.7104 60.2044 36.2697 57.9563 38.9836C56.7962 40.3836 56.9422 47.1925 56.6566 49.3164C56.2528 46.8011 55.2317 41.5524 56.4891 38.7148C55.0239 38.5589 51.6675 38.6464 49.9805 38.8581C50.5776 42.4261 50.9302 44.7331 51.121 48.5961C51.121 49.2325 50.5731 49.7487 49.897 49.7487C49.2203 49.7487 48.6726 49.2325 48.6726 48.5961ZM56.7905 38.1515C56.8151 38.1129 56.8405 38.0754 56.8657 38.0391C56.8348 38.0736 56.8101 38.1117 56.7905 38.1515Z" fill="#EDEDED"/>
<path fill-rule="evenodd" clip-rule="evenodd" d="M62.9633 47.6929C62.7958 42.0855 63.0491 37.8579 62.0812 32.1958C61.7001 29.9684 64.9959 31.5106 66.5875 31.6415C68.1096 31.7664 77.6821 30.6625 77.9747 31.9394C78.0676 32.3451 73.9182 38.4289 74.4072 44.3789L74.6448 46.1929C72.5331 41.1695 73.9485 37.3702 76.1934 32.7655C72.0896 32.8655 68.394 33.8308 64.2365 32.9963C65.2341 38.0232 65.1071 42.3817 65.4085 47.574C65.4438 48.2098 64.9239 48.7516 64.2491 48.7843C63.5736 48.817 62.998 48.3281 62.9633 47.6929Z" fill="#EDEDED"/>
<path fill-rule="evenodd" clip-rule="evenodd" d="M48.0448 41.6797C48.0448 41.6797 55.4854 42.0294 53.0995 44.0879C52.8809 44.2764 52.4804 44.3918 52.0103 44.4632L52.126 44.5131C51.1927 44.7718 49.3528 45.1281 48.4619 44.5328C48.1706 44.3383 48.0979 44.1545 48.1731 43.9826L48.0448 43.985C47.3687 43.985 46.8203 43.4687 46.8203 42.8323C46.8203 42.1959 47.3687 41.6797 48.0448 41.6797Z" fill="#EDEDED"/>
<path fill-rule="evenodd" clip-rule="evenodd" d="M61.6687 42.1761L61.4684 42.1701C61.3831 42.2147 61.2985 42.3278 61.1399 42.4996C61.6435 42.7804 62.1735 42.9481 62.3289 42.6013C61.9883 42.3694 61.7982 42.2314 61.6687 42.1761ZM60.8517 42.1666C60.7803 42.1696 60.7095 42.1737 60.6363 42.1797C60.7253 42.2433 60.8208 42.3075 60.92 42.37C60.8858 42.2974 60.8631 42.2296 60.8517 42.1666ZM60.151 41.7734C60.146 41.7604 60.1402 41.7473 60.1332 41.733L60.1263 41.7431C60.1327 41.752 60.1415 41.7627 60.151 41.7734ZM62.9621 41.6741C63.2585 41.8073 63.4828 42.0024 63.5415 42.254C64.7578 47.4772 51.7392 40.8165 61.9467 39.8779C62.6228 39.8779 63.1706 40.3942 63.1706 41.0306C63.1706 41.2691 63.0942 41.4903 62.9621 41.6741Z" fill="#EDEDED"/>
<path fill-rule="evenodd" clip-rule="evenodd" d="M26.3104 43.554C25.9964 49.1686 26.3167 46.3667 25.3405 51.958C24.0181 46.4232 24.5128 49.2239 23.8614 43.554C23.8614 42.9176 24.4097 42.4013 25.0858 42.4013C25.7619 42.4013 26.3104 42.9176 26.3104 43.554Z" fill="#EDEDED"/>
<path fill-rule="evenodd" clip-rule="evenodd" d="M28.6659 43.0699C27.4686 36.9307 28.9231 38.1036 35.4937 38.4742C39.9255 38.7246 38.1234 38.3546 41.4981 39.4264C41.3054 42.3603 41.4823 40.905 40.9673 43.7925C40.3652 40.918 40.5863 42.3734 40.3089 39.4264C38.1853 40.5636 33.7062 40.29 30.6461 40.2644C30.7024 40.9293 30.8118 41.6038 30.9482 42.2342C31.1934 42.8278 30.8812 43.4957 30.2512 43.7265C29.6207 43.9573 28.9111 43.6634 28.6659 43.0699Z" fill="#EDEDED"/>
<path fill-rule="evenodd" clip-rule="evenodd" d="M79.0006 48.2752C67.834 49.7514 52.997 49.6634 41.4746 49.6753C47.335 47.8904 69.6694 47.4627 78.4344 46.0323C79.0922 45.8854 79.7524 46.2685 79.9085 46.887C80.0652 47.5068 79.659 48.1277 79.0006 48.2752Z" fill="#EDEDED"/>
<path fill-rule="evenodd" clip-rule="evenodd" d="M221.125 53.993C223.098 52.6375 237.372 45.4754 239.294 48.4034C240.032 49.5275 238.452 50.9478 236.382 52.2831C245.714 49.3003 260.263 44.4221 258.211 48.6532C257.418 50.2888 250.244 53.9871 244.91 56.5701C254.425 54.476 267.046 50.4583 274.845 47.6552C275.526 47.3566 276.032 47.1681 276.312 47.1229C277.123 46.9903 277.424 47.808 276.76 48.2321C276.058 48.6806 274.656 49.2807 272.788 49.9706C264.981 53.6588 254.564 59.7199 249.158 61.1063C251.823 59.8936 259.165 55.8249 265.579 52.3853C255.572 55.5144 242.192 59.0413 238.395 59.5421L238.532 57.9297L238.395 57.7418C238.446 57.7359 238.498 57.7287 238.55 57.7222L238.565 57.5431C240.218 56.7467 249.881 52.063 254.213 49.3295C249.621 50.3649 242.741 52.7702 239.276 53.8722C238.131 54.2368 227.995 58.5756 227.808 55.3919C227.758 54.5634 229.524 53.2923 231.565 52.0314C228.322 53.3417 225.119 54.8714 223.668 55.0766C223.35 55.738 222.523 56.0313 221.821 55.7321C221.118 55.4329 220.807 54.6544 221.125 53.993Z" fill="#EDEDED"/>
<path fill-rule="evenodd" clip-rule="evenodd" d="M24.1109 70.769C25.8695 69.5615 38.5855 63.1808 40.2978 65.7893C40.9553 66.7908 39.5475 68.0561 37.704 69.2457C46.0175 66.5884 58.9788 62.2424 57.1505 66.0119C56.4441 67.469 50.0529 70.7637 45.3014 73.065C53.7782 71.1993 65.0217 67.62 71.9702 65.1228C72.5764 64.8568 73.0272 64.6888 73.2766 64.6486C73.9994 64.5304 74.2673 65.2589 73.6757 65.6367C73.0503 66.0363 71.8018 66.5709 70.1373 67.1856C63.1821 70.4713 53.902 75.8711 49.0858 77.1062C51.4596 76.0258 58.0011 72.401 63.7152 69.3368C54.7993 72.1244 42.8793 75.2665 39.4973 75.7127L39.6189 74.2762L39.4973 74.1088C39.5424 74.1035 39.5891 74.0971 39.6347 74.0913L39.6482 73.9318C41.1207 73.2223 49.7298 69.0496 53.5891 66.6144C49.4979 67.5368 43.3684 69.6796 40.282 70.6615C39.2614 70.9863 30.2319 74.8516 30.0647 72.0153C30.0208 71.2772 31.5942 70.1448 33.4118 69.0215C30.523 70.1888 27.6696 71.5516 26.3772 71.7344C26.0935 72.3236 25.3566 72.5849 24.7312 72.3184C24.1053 72.0519 23.8278 71.3582 24.1109 70.769Z" fill="#EDEDED"/>
<path fill-rule="evenodd" clip-rule="evenodd" d="M320 115.013C213.195 117.245 106.855 116.369 1.9331e-05 115V120H320V115.013Z" fill="#E0E0E0"/>
<path fill-rule="evenodd" clip-rule="evenodd" d="M97.2535 117.92C99.5819 106.011 95.6297 113.679 96.6084 105.953C97.005 102.82 93.7204 101.244 93.9358 106.055C94.1821 111.569 92.9643 110.197 93.0008 112.896C93.0179 114.205 93.2472 114.3 93.8486 115.522C93.8249 113.833 93.6487 112.958 94.4379 111.457C94.5246 111.293 94.6047 111.133 94.6798 110.978C95.2917 111.483 96.0936 111.05 94.545 117.124C94.3362 117.91 94.7731 118.725 95.5209 118.945C96.2687 119.165 97.0447 118.706 97.2535 117.92Z" fill="#E0E0E0"/>
<path fill-rule="evenodd" clip-rule="evenodd" d="M86.9577 116.432C87.4313 110.525 92.3158 104.469 85.0397 104.516C84.6013 103.093 82.5008 96.6708 81.0187 99.8938C80.7056 100.574 80.6752 103.123 80.8804 104.583C71.0122 105.717 79.0011 109.52 79.9666 116.62L80.2195 118C82.0314 109.569 72.7042 106.389 81.1285 106.375C82.2885 106.373 82.7859 106.077 82.96 105.597C84.5161 108.785 85.1166 105.814 86.3607 107.094C86.347 108.004 84.324 112.963 83.9208 116.432C83.9208 117.263 84.6007 117.937 85.4393 117.937C86.2778 117.937 86.9577 117.263 86.9577 116.432ZM82.963 100.93C82.994 100.863 83.0262 100.798 83.0632 100.733C83.0364 100.804 83.003 100.869 82.963 100.93ZM86.3655 107.099C86.3906 107.125 86.4156 107.152 86.4406 107.181C86.3971 107.147 86.3941 107.143 86.3655 107.099Z" fill="#E0E0E0"/>
<path fill-rule="evenodd" clip-rule="evenodd" d="M76.3432 116.511C76.2845 111.746 76.1961 107.925 76.896 103.169C77.5453 98.7516 75.1159 99.1036 70.7143 99.0042C67.2843 98.927 67.9649 99.8861 68.2558 103.493C68.5923 107.656 68.8821 111.839 69.5479 115.959L69.5693 115.957C69.4606 115.992 69.5139 115.964 69.414 116.046C69.4689 116.099 69.5034 116.153 69.5836 116.146C70.245 111.157 69.9206 106.055 69.8119 101.02C71.7424 101.128 72.7578 101.221 74.814 101.698C74.017 103.577 73.5998 114.374 73.5488 116.511C73.5488 117.333 74.1745 118 74.9463 118C75.718 118 76.3432 117.333 76.3432 116.511Z" fill="#E0E0E0"/>
<path fill-rule="evenodd" clip-rule="evenodd" d="M74.1585 95.5155L74.0826 95.4164C74.1226 95.3961 74.1631 95.3757 74.2049 95.353C75.2946 94.755 75.1341 94.0437 74.5011 93.5609C74.5295 93.5357 74.5544 93.5123 74.5753 93.492C74.0675 93.1637 73.6328 93.0374 73.2739 93.0473C71.7263 92.7702 69.9554 93.6478 71.7639 97.3488C72.2404 98.0509 73.1626 98.2103 73.824 97.7041C74.4848 97.1979 74.635 96.2182 74.1585 95.5155ZM73.6096 94.3331L73.6438 94.3572C73.5574 94.4428 73.6234 94.4594 73.4977 94.5309L73.4733 94.5142C73.4814 94.4748 73.5331 94.4113 73.6096 94.3331Z" fill="#E0E0E0"/>
</g>
<defs>
<clipPath id="clip0_5382_70259">
<rect width="320" height="120" fill="white"/>
</clipPath>
</defs>
</svg>
